G04 #@! TF.GenerationSoftware,KiCad,Pcbnew,5.1.10*
G04 #@! TF.CreationDate,2022-03-31T14:29:17-07:00*
G04 #@! TF.ProjectId,zf_vga,7a665f76-6761-42e6-9b69-6361645f7063,rev?*
G04 #@! TF.SameCoordinates,Original*
G04 #@! TF.FileFunction,Legend,Bot*
G04 #@! TF.FilePolarity,Positive*
%FSLAX46Y46*%
G04 Gerber Fmt 4.6, Leading zero omitted, Abs format (unit mm)*
G04 Created by KiCad (PCBNEW 5.1.10) date 2022-03-31 14:29:17*
%MOMM*%
%LPD*%
G01*
G04 APERTURE LIST*
%ADD10C,0.150000*%
%ADD11C,0.010000*%
G04 APERTURE END LIST*
D10*
X134805237Y-106464380D02*
X134138570Y-106464380D01*
X134805237Y-107464380D01*
X134138570Y-107464380D01*
X133757618Y-107083428D02*
X132995713Y-107083428D01*
X132186189Y-106940571D02*
X132519522Y-106940571D01*
X132519522Y-107464380D02*
X132519522Y-106464380D01*
X132043332Y-106464380D01*
X131662379Y-107464380D02*
X131662379Y-106464380D01*
X130662379Y-106512000D02*
X130757618Y-106464380D01*
X130900475Y-106464380D01*
X131043332Y-106512000D01*
X131138570Y-106607238D01*
X131186189Y-106702476D01*
X131233808Y-106892952D01*
X131233808Y-107035809D01*
X131186189Y-107226285D01*
X131138570Y-107321523D01*
X131043332Y-107416761D01*
X130900475Y-107464380D01*
X130805237Y-107464380D01*
X130662379Y-107416761D01*
X130614760Y-107369142D01*
X130614760Y-107035809D01*
X130805237Y-107035809D01*
X130186189Y-107464380D02*
X130186189Y-106464380D01*
X130186189Y-106940571D02*
X129614760Y-106940571D01*
X129614760Y-107464380D02*
X129614760Y-106464380D01*
X129281427Y-106464380D02*
X128709998Y-106464380D01*
X128995713Y-107464380D02*
X128995713Y-106464380D01*
X128376665Y-106940571D02*
X128043332Y-106940571D01*
X127900475Y-107464380D02*
X128376665Y-107464380D01*
X128376665Y-106464380D01*
X127900475Y-106464380D01*
X126900475Y-107464380D02*
X127233808Y-106988190D01*
X127471903Y-107464380D02*
X127471903Y-106464380D01*
X127090951Y-106464380D01*
X126995713Y-106512000D01*
X126948094Y-106559619D01*
X126900475Y-106654857D01*
X126900475Y-106797714D01*
X126948094Y-106892952D01*
X126995713Y-106940571D01*
X127090951Y-106988190D01*
X127471903Y-106988190D01*
X125852856Y-106464380D02*
X125519522Y-107464380D01*
X125186189Y-106464380D01*
X124329046Y-106512000D02*
X124424284Y-106464380D01*
X124567141Y-106464380D01*
X124709998Y-106512000D01*
X124805237Y-106607238D01*
X124852856Y-106702476D01*
X124900475Y-106892952D01*
X124900475Y-107035809D01*
X124852856Y-107226285D01*
X124805237Y-107321523D01*
X124709998Y-107416761D01*
X124567141Y-107464380D01*
X124471903Y-107464380D01*
X124329046Y-107416761D01*
X124281427Y-107369142D01*
X124281427Y-107035809D01*
X124471903Y-107035809D01*
X123900475Y-107178666D02*
X123424284Y-107178666D01*
X123995713Y-107464380D02*
X123662379Y-106464380D01*
X123329046Y-107464380D01*
X122233808Y-107464380D02*
X122233808Y-106464380D01*
X121900475Y-107178666D01*
X121567141Y-106464380D01*
X121567141Y-107464380D01*
X120948094Y-107464380D02*
X121043332Y-107416761D01*
X121090951Y-107369142D01*
X121138570Y-107273904D01*
X121138570Y-106988190D01*
X121090951Y-106892952D01*
X121043332Y-106845333D01*
X120948094Y-106797714D01*
X120805237Y-106797714D01*
X120709998Y-106845333D01*
X120662379Y-106892952D01*
X120614760Y-106988190D01*
X120614760Y-107273904D01*
X120662379Y-107369142D01*
X120709998Y-107416761D01*
X120805237Y-107464380D01*
X120948094Y-107464380D01*
X119757618Y-107464380D02*
X119757618Y-106464380D01*
X119757618Y-107416761D02*
X119852856Y-107464380D01*
X120043332Y-107464380D01*
X120138570Y-107416761D01*
X120186189Y-107369142D01*
X120233808Y-107273904D01*
X120233808Y-106988190D01*
X120186189Y-106892952D01*
X120138570Y-106845333D01*
X120043332Y-106797714D01*
X119852856Y-106797714D01*
X119757618Y-106845333D01*
X118852856Y-106797714D02*
X118852856Y-107464380D01*
X119281427Y-106797714D02*
X119281427Y-107321523D01*
X119233808Y-107416761D01*
X119138570Y-107464380D01*
X118995713Y-107464380D01*
X118900475Y-107416761D01*
X118852856Y-107369142D01*
X118233808Y-107464380D02*
X118329046Y-107416761D01*
X118376665Y-107321523D01*
X118376665Y-106464380D01*
X117471903Y-107416761D02*
X117567141Y-107464380D01*
X117757618Y-107464380D01*
X117852856Y-107416761D01*
X117900475Y-107321523D01*
X117900475Y-106940571D01*
X117852856Y-106845333D01*
X117757618Y-106797714D01*
X117567141Y-106797714D01*
X117471903Y-106845333D01*
X117424284Y-106940571D01*
X117424284Y-107035809D01*
X117900475Y-107131047D01*
X115662379Y-107464380D02*
X115995713Y-106988190D01*
X116233808Y-107464380D02*
X116233808Y-106464380D01*
X115852856Y-106464380D01*
X115757618Y-106512000D01*
X115709999Y-106559619D01*
X115662379Y-106654857D01*
X115662379Y-106797714D01*
X115709999Y-106892952D01*
X115757618Y-106940571D01*
X115852856Y-106988190D01*
X116233808Y-106988190D01*
X114852856Y-107416761D02*
X114948094Y-107464380D01*
X115138570Y-107464380D01*
X115233808Y-107416761D01*
X115281427Y-107321523D01*
X115281427Y-106940571D01*
X115233808Y-106845333D01*
X115138570Y-106797714D01*
X114948094Y-106797714D01*
X114852856Y-106845333D01*
X114805237Y-106940571D01*
X114805237Y-107035809D01*
X115281427Y-107131047D01*
X114471903Y-106797714D02*
X114233808Y-107464380D01*
X113995713Y-106797714D01*
X113614760Y-107369142D02*
X113567141Y-107416761D01*
X113614760Y-107464380D01*
X113662379Y-107416761D01*
X113614760Y-107369142D01*
X113614760Y-107464380D01*
X111852856Y-107464380D02*
X112424284Y-107464380D01*
X112138570Y-107464380D02*
X112138570Y-106464380D01*
X112233808Y-106607238D01*
X112329046Y-106702476D01*
X112424284Y-106750095D01*
X110043332Y-106988190D02*
X110090951Y-106940571D01*
X110186189Y-106892952D01*
X110281427Y-106892952D01*
X110376665Y-106940571D01*
X110424284Y-106988190D01*
X110471903Y-107083428D01*
X110471903Y-107178666D01*
X110424284Y-107273904D01*
X110376665Y-107321523D01*
X110281427Y-107369142D01*
X110186189Y-107369142D01*
X110090951Y-107321523D01*
X110043332Y-107273904D01*
X110043332Y-106892952D02*
X110043332Y-107273904D01*
X109995713Y-107321523D01*
X109948094Y-107321523D01*
X109852856Y-107273904D01*
X109805237Y-107178666D01*
X109805237Y-106940571D01*
X109900475Y-106797714D01*
X110043332Y-106702476D01*
X110233808Y-106654857D01*
X110424284Y-106702476D01*
X110567141Y-106797714D01*
X110662379Y-106940571D01*
X110709999Y-107131047D01*
X110662379Y-107321523D01*
X110567141Y-107464380D01*
X110424284Y-107559619D01*
X110233808Y-107607238D01*
X110043332Y-107559619D01*
X109900475Y-107464380D01*
X109519522Y-106797714D02*
X109138570Y-106797714D01*
X109376665Y-106464380D02*
X109376665Y-107321523D01*
X109329046Y-107416761D01*
X109233808Y-107464380D01*
X109138570Y-107464380D01*
X108376665Y-107464380D02*
X108376665Y-106940571D01*
X108424284Y-106845333D01*
X108519522Y-106797714D01*
X108709999Y-106797714D01*
X108805237Y-106845333D01*
X108376665Y-107416761D02*
X108471903Y-107464380D01*
X108709999Y-107464380D01*
X108805237Y-107416761D01*
X108852856Y-107321523D01*
X108852856Y-107226285D01*
X108805237Y-107131047D01*
X108709999Y-107083428D01*
X108471903Y-107083428D01*
X108376665Y-107035809D01*
X107900475Y-106797714D02*
X107900475Y-107464380D01*
X107900475Y-106892952D02*
X107852856Y-106845333D01*
X107757618Y-106797714D01*
X107614760Y-106797714D01*
X107519522Y-106845333D01*
X107471903Y-106940571D01*
X107471903Y-107464380D01*
X106567141Y-106797714D02*
X106567141Y-107607238D01*
X106614760Y-107702476D01*
X106662379Y-107750095D01*
X106757618Y-107797714D01*
X106900475Y-107797714D01*
X106995713Y-107750095D01*
X106567141Y-107416761D02*
X106662379Y-107464380D01*
X106852856Y-107464380D01*
X106948094Y-107416761D01*
X106995713Y-107369142D01*
X107043332Y-107273904D01*
X107043332Y-106988190D01*
X106995713Y-106892952D01*
X106948094Y-106845333D01*
X106852856Y-106797714D01*
X106662379Y-106797714D01*
X106567141Y-106845333D01*
X105709999Y-107416761D02*
X105805237Y-107464380D01*
X105995713Y-107464380D01*
X106090951Y-107416761D01*
X106138570Y-107321523D01*
X106138570Y-106940571D01*
X106090951Y-106845333D01*
X105995713Y-106797714D01*
X105805237Y-106797714D01*
X105709999Y-106845333D01*
X105662379Y-106940571D01*
X105662379Y-107035809D01*
X106138570Y-107131047D01*
X105233808Y-106797714D02*
X105233808Y-107464380D01*
X105233808Y-106892952D02*
X105186189Y-106845333D01*
X105090951Y-106797714D01*
X104948094Y-106797714D01*
X104852856Y-106845333D01*
X104805237Y-106940571D01*
X104805237Y-107464380D01*
X104471903Y-106797714D02*
X104090951Y-106797714D01*
X104329046Y-106464380D02*
X104329046Y-107321523D01*
X104281427Y-107416761D01*
X104186189Y-107464380D01*
X104090951Y-107464380D01*
X103852856Y-106464380D02*
X103233808Y-106464380D01*
X103567141Y-106845333D01*
X103424284Y-106845333D01*
X103329046Y-106892952D01*
X103281427Y-106940571D01*
X103233808Y-107035809D01*
X103233808Y-107273904D01*
X103281427Y-107369142D01*
X103329046Y-107416761D01*
X103424284Y-107464380D01*
X103709999Y-107464380D01*
X103805237Y-107416761D01*
X103852856Y-107369142D01*
X102805237Y-107464380D02*
X102805237Y-106464380D01*
X102567141Y-106464380D01*
X102424284Y-106512000D01*
X102329046Y-106607238D01*
X102281427Y-106702476D01*
X102233808Y-106892952D01*
X102233808Y-107035809D01*
X102281427Y-107226285D01*
X102329046Y-107321523D01*
X102424284Y-107416761D01*
X102567141Y-107464380D01*
X102805237Y-107464380D01*
X101090951Y-106559619D02*
X101043332Y-106512000D01*
X100948094Y-106464380D01*
X100709999Y-106464380D01*
X100614760Y-106512000D01*
X100567141Y-106559619D01*
X100519522Y-106654857D01*
X100519522Y-106750095D01*
X100567141Y-106892952D01*
X101138570Y-107464380D01*
X100519522Y-107464380D01*
X99900475Y-106464380D02*
X99805237Y-106464380D01*
X99709999Y-106512000D01*
X99662379Y-106559619D01*
X99614760Y-106654857D01*
X99567141Y-106845333D01*
X99567141Y-107083428D01*
X99614760Y-107273904D01*
X99662379Y-107369142D01*
X99709999Y-107416761D01*
X99805237Y-107464380D01*
X99900475Y-107464380D01*
X99995713Y-107416761D01*
X100043332Y-107369142D01*
X100090951Y-107273904D01*
X100138570Y-107083428D01*
X100138570Y-106845333D01*
X100090951Y-106654857D01*
X100043332Y-106559619D01*
X99995713Y-106512000D01*
X99900475Y-106464380D01*
X99186189Y-106559619D02*
X99138570Y-106512000D01*
X99043332Y-106464380D01*
X98805237Y-106464380D01*
X98709999Y-106512000D01*
X98662379Y-106559619D01*
X98614760Y-106654857D01*
X98614760Y-106750095D01*
X98662379Y-106892952D01*
X99233808Y-107464380D01*
X98614760Y-107464380D01*
X98233808Y-106559619D02*
X98186189Y-106512000D01*
X98090951Y-106464380D01*
X97852856Y-106464380D01*
X97757618Y-106512000D01*
X97709999Y-106559619D01*
X97662379Y-106654857D01*
X97662379Y-106750095D01*
X97709999Y-106892952D01*
X98281427Y-107464380D01*
X97662379Y-107464380D01*
D11*
G36*
X104555656Y-95993830D02*
G01*
X104537737Y-96000637D01*
X104518713Y-96013637D01*
X104497079Y-96034200D01*
X104471331Y-96063692D01*
X104439962Y-96103481D01*
X104415855Y-96135501D01*
X104358138Y-96214108D01*
X104306025Y-96287523D01*
X104257785Y-96358476D01*
X104211687Y-96429702D01*
X104166003Y-96503933D01*
X104119001Y-96583902D01*
X104068951Y-96672342D01*
X104021987Y-96757559D01*
X103985839Y-96824133D01*
X103955957Y-96880224D01*
X103931209Y-96928328D01*
X103910467Y-96970945D01*
X103892601Y-97010573D01*
X103876482Y-97049709D01*
X103860978Y-97090853D01*
X103844961Y-97136503D01*
X103828629Y-97185144D01*
X103783658Y-97332055D01*
X103747594Y-97475661D01*
X103719859Y-97619424D01*
X103699875Y-97766807D01*
X103687066Y-97921271D01*
X103681205Y-98068647D01*
X103680018Y-98191530D01*
X103682221Y-98301227D01*
X103687901Y-98399125D01*
X103697145Y-98486608D01*
X103710039Y-98565062D01*
X103713189Y-98580382D01*
X103725317Y-98640359D01*
X103733143Y-98687908D01*
X103736568Y-98724939D01*
X103735491Y-98753360D01*
X103729814Y-98775082D01*
X103719437Y-98792014D01*
X103704259Y-98806066D01*
X103701294Y-98808235D01*
X103681761Y-98818846D01*
X103659096Y-98823565D01*
X103629764Y-98822616D01*
X103590231Y-98816223D01*
X103586663Y-98815511D01*
X103558234Y-98810351D01*
X103539630Y-98808959D01*
X103526205Y-98811390D01*
X103515692Y-98816334D01*
X103500773Y-98826168D01*
X103490142Y-98837886D01*
X103483440Y-98853711D01*
X103480310Y-98875861D01*
X103480393Y-98906557D01*
X103483330Y-98948019D01*
X103487534Y-98990819D01*
X103500911Y-99111208D01*
X103516252Y-99235873D01*
X103533226Y-99362754D01*
X103551505Y-99489795D01*
X103570756Y-99614936D01*
X103590649Y-99736120D01*
X103610855Y-99851290D01*
X103631043Y-99958387D01*
X103650882Y-100055353D01*
X103670042Y-100140130D01*
X103675925Y-100164147D01*
X103722939Y-100341399D01*
X103777281Y-100527550D01*
X103837854Y-100719156D01*
X103903561Y-100912777D01*
X103973305Y-101104971D01*
X103990141Y-101149504D01*
X104009721Y-101193504D01*
X104031012Y-101224056D01*
X104056237Y-101242235D01*
X104087619Y-101249118D01*
X104127382Y-101245782D01*
X104168643Y-101235939D01*
X104203623Y-101227599D01*
X104240181Y-101222356D01*
X104280749Y-101220209D01*
X104327761Y-101221154D01*
X104383651Y-101225190D01*
X104450852Y-101232313D01*
X104478236Y-101235627D01*
X104561207Y-101244788D01*
X104651909Y-101252567D01*
X104751938Y-101259061D01*
X104862891Y-101264366D01*
X104986365Y-101268578D01*
X105052798Y-101270293D01*
X105111407Y-101272015D01*
X105172077Y-101274415D01*
X105230930Y-101277297D01*
X105284089Y-101280464D01*
X105327678Y-101283718D01*
X105341089Y-101284953D01*
X105386714Y-101289159D01*
X105441500Y-101293722D01*
X105499686Y-101298190D01*
X105555512Y-101302110D01*
X105576412Y-101303455D01*
X105685511Y-101311232D01*
X105780469Y-101320147D01*
X105862053Y-101330323D01*
X105931029Y-101341885D01*
X105988162Y-101354955D01*
X106034220Y-101369658D01*
X106061672Y-101381686D01*
X106085698Y-101394769D01*
X106106884Y-101408880D01*
X106126492Y-101425642D01*
X106145789Y-101446674D01*
X106166038Y-101473599D01*
X106188503Y-101508037D01*
X106214450Y-101551609D01*
X106245143Y-101605937D01*
X106265881Y-101643494D01*
X106294012Y-101695143D01*
X106315318Y-101735860D01*
X106330396Y-101767684D01*
X106339841Y-101792653D01*
X106344248Y-101812803D01*
X106344214Y-101830174D01*
X106340333Y-101846803D01*
X106333201Y-101864726D01*
X106331591Y-101868308D01*
X106317657Y-101892280D01*
X106298377Y-101912164D01*
X106271419Y-101929432D01*
X106234452Y-101945558D01*
X106185144Y-101962014D01*
X106181530Y-101963108D01*
X106138876Y-101976771D01*
X106093079Y-101992756D01*
X106050771Y-102008694D01*
X106028383Y-102017862D01*
X105996937Y-102030978D01*
X105972781Y-102039369D01*
X105950629Y-102044079D01*
X105925193Y-102046154D01*
X105891187Y-102046636D01*
X105882706Y-102046634D01*
X105834252Y-102045133D01*
X105788489Y-102040194D01*
X105738573Y-102030958D01*
X105714618Y-102025567D01*
X105661013Y-102014511D01*
X105605809Y-102006395D01*
X105543883Y-102000555D01*
X105501706Y-101997883D01*
X105458680Y-101995524D01*
X105404587Y-101992535D01*
X105343279Y-101989131D01*
X105278606Y-101985525D01*
X105214419Y-101981933D01*
X105176736Y-101979816D01*
X105115687Y-101976626D01*
X105052605Y-101973766D01*
X104991128Y-101971370D01*
X104934893Y-101969571D01*
X104887536Y-101968503D01*
X104862971Y-101968264D01*
X104768147Y-101966671D01*
X104672641Y-101962414D01*
X104580553Y-101955778D01*
X104495981Y-101947045D01*
X104437147Y-101938844D01*
X104355098Y-101926248D01*
X104284353Y-101916582D01*
X104221655Y-101909432D01*
X104168206Y-101904717D01*
X104116715Y-101898512D01*
X104076838Y-101887927D01*
X104045610Y-101871855D01*
X104020314Y-101849462D01*
X104001870Y-101824611D01*
X103991518Y-101797949D01*
X103988667Y-101765989D01*
X103992726Y-101725240D01*
X103996069Y-101706132D01*
X104005170Y-101645095D01*
X104006700Y-101595418D01*
X104000295Y-101555376D01*
X103985594Y-101523241D01*
X103962233Y-101497288D01*
X103950258Y-101488165D01*
X103931506Y-101476975D01*
X103903194Y-101462208D01*
X103869569Y-101446008D01*
X103843236Y-101434127D01*
X103796089Y-101412578D01*
X103739924Y-101385384D01*
X103678577Y-101354524D01*
X103615879Y-101321974D01*
X103555666Y-101289710D01*
X103501772Y-101259711D01*
X103475798Y-101244649D01*
X103433265Y-101221663D01*
X103400057Y-101208892D01*
X103374818Y-101206107D01*
X103356189Y-101213078D01*
X103346865Y-101222897D01*
X103340442Y-101234119D01*
X103336667Y-101246852D01*
X103335966Y-101262269D01*
X103338767Y-101281544D01*
X103345494Y-101305852D01*
X103356575Y-101336366D01*
X103372435Y-101374261D01*
X103393501Y-101420711D01*
X103420198Y-101476890D01*
X103452954Y-101543971D01*
X103492072Y-101622884D01*
X103587827Y-101808799D01*
X103685049Y-101984347D01*
X103786434Y-102154051D01*
X103894674Y-102322435D01*
X104002597Y-102480029D01*
X104095726Y-102611901D01*
X104181554Y-102732341D01*
X104260931Y-102842440D01*
X104334704Y-102943289D01*
X104403723Y-103035979D01*
X104468836Y-103121603D01*
X104530891Y-103201250D01*
X104590737Y-103276013D01*
X104649223Y-103346982D01*
X104707197Y-103415248D01*
X104765508Y-103481904D01*
X104825004Y-103548039D01*
X104877370Y-103604905D01*
X104979767Y-103710412D01*
X105095137Y-103820820D01*
X105222599Y-103935436D01*
X105361272Y-104053568D01*
X105510275Y-104174522D01*
X105668726Y-104297606D01*
X105835744Y-104422128D01*
X106010448Y-104547394D01*
X106191956Y-104672712D01*
X106379387Y-104797389D01*
X106465412Y-104853090D01*
X106550426Y-104907315D01*
X106624361Y-104953659D01*
X106688386Y-104992800D01*
X106743671Y-105025413D01*
X106791383Y-105052176D01*
X106832693Y-105073766D01*
X106868768Y-105090860D01*
X106894971Y-105101882D01*
X106925248Y-105114109D01*
X106963133Y-105129823D01*
X107002558Y-105146492D01*
X107021971Y-105154836D01*
X107152592Y-105206614D01*
X107290722Y-105252577D01*
X107407994Y-105285102D01*
X107456523Y-105296968D01*
X107495296Y-105305419D01*
X107528930Y-105311120D01*
X107562043Y-105314737D01*
X107599251Y-105316936D01*
X107637464Y-105318185D01*
X107679520Y-105319023D01*
X107719148Y-105319326D01*
X107752545Y-105319098D01*
X107775907Y-105318343D01*
X107780236Y-105318029D01*
X107847822Y-105310238D01*
X107911764Y-105298973D01*
X107975248Y-105283324D01*
X108041460Y-105262384D01*
X108113586Y-105235244D01*
X108194810Y-105200996D01*
X108202324Y-105197690D01*
X108442157Y-105085525D01*
X108682557Y-104960769D01*
X108920284Y-104825275D01*
X109152095Y-104680899D01*
X109374750Y-104529497D01*
X109394608Y-104515317D01*
X109612828Y-104351334D01*
X109830617Y-104172667D01*
X110047702Y-103979573D01*
X110115733Y-103914325D01*
X107877353Y-103914325D01*
X107874953Y-103937041D01*
X107865554Y-103955006D01*
X107852211Y-103969437D01*
X107825960Y-103989491D01*
X107793878Y-104003177D01*
X107753273Y-104011246D01*
X107701449Y-104014452D01*
X107690589Y-104014571D01*
X107650106Y-104013781D01*
X107620424Y-104010610D01*
X107597516Y-104004526D01*
X107589427Y-104001193D01*
X107554161Y-103979309D01*
X107531169Y-103952667D01*
X107520665Y-103923459D01*
X107522861Y-103893875D01*
X107537970Y-103866107D01*
X107566205Y-103842345D01*
X107573586Y-103838193D01*
X107594013Y-103831932D01*
X107625313Y-103827532D01*
X107663646Y-103824997D01*
X107705169Y-103824328D01*
X107746044Y-103825528D01*
X107782428Y-103828599D01*
X107810481Y-103833543D01*
X107822975Y-103838050D01*
X107853462Y-103858635D01*
X107870917Y-103881531D01*
X107877246Y-103909409D01*
X107877353Y-103914325D01*
X110115733Y-103914325D01*
X110263809Y-103772309D01*
X110469943Y-103560108D01*
X108791992Y-103560108D01*
X108790760Y-103596783D01*
X108775959Y-103631785D01*
X108756227Y-103655600D01*
X108730498Y-103676574D01*
X108702329Y-103690868D01*
X108670000Y-103698472D01*
X108631790Y-103699378D01*
X108585980Y-103693576D01*
X108530851Y-103681056D01*
X108464681Y-103661809D01*
X108439804Y-103653874D01*
X108392807Y-103638876D01*
X108354254Y-103627428D01*
X108320062Y-103618664D01*
X108286146Y-103611717D01*
X108248422Y-103605719D01*
X108202807Y-103599803D01*
X108163392Y-103595177D01*
X108129309Y-103591373D01*
X108097836Y-103588182D01*
X108067275Y-103585552D01*
X108035930Y-103583429D01*
X108002106Y-103581762D01*
X107964106Y-103580499D01*
X107920235Y-103579586D01*
X107868794Y-103578973D01*
X107808090Y-103578607D01*
X107736424Y-103578435D01*
X107652102Y-103578405D01*
X107619618Y-103578418D01*
X107527560Y-103578538D01*
X107448933Y-103578817D01*
X107382231Y-103579297D01*
X107325945Y-103580015D01*
X107278565Y-103581014D01*
X107238585Y-103582331D01*
X107204494Y-103584008D01*
X107174786Y-103586083D01*
X107147952Y-103588597D01*
X107122824Y-103591547D01*
X107077409Y-103596787D01*
X107023107Y-103602163D01*
X106965960Y-103607123D01*
X106912006Y-103611117D01*
X106898706Y-103611963D01*
X106852874Y-103615019D01*
X106808165Y-103618477D01*
X106768506Y-103622000D01*
X106737829Y-103625250D01*
X106726883Y-103626698D01*
X106667485Y-103633187D01*
X106617806Y-103633687D01*
X106579278Y-103628258D01*
X106556927Y-103619376D01*
X106540477Y-103606866D01*
X106533719Y-103592153D01*
X106532647Y-103575354D01*
X106536387Y-103553809D01*
X106548610Y-103533572D01*
X106570818Y-103513236D01*
X106604515Y-103491391D01*
X106645830Y-103469317D01*
X106697447Y-103445743D01*
X106754389Y-103424464D01*
X106817556Y-103405354D01*
X106887847Y-103388285D01*
X106966162Y-103373129D01*
X107053401Y-103359759D01*
X107150463Y-103348046D01*
X107258249Y-103337864D01*
X107377658Y-103329085D01*
X107509589Y-103321582D01*
X107654944Y-103315225D01*
X107757824Y-103311624D01*
X107848676Y-103309003D01*
X107927336Y-103307513D01*
X107996523Y-103307316D01*
X108058953Y-103308574D01*
X108117345Y-103311450D01*
X108174418Y-103316105D01*
X108232888Y-103322702D01*
X108295474Y-103331403D01*
X108364893Y-103342370D01*
X108415236Y-103350836D01*
X108474451Y-103361279D01*
X108521714Y-103370530D01*
X108559879Y-103379393D01*
X108591798Y-103388675D01*
X108620326Y-103399183D01*
X108648317Y-103411722D01*
X108670912Y-103423068D01*
X108719115Y-103453241D01*
X108755686Y-103487018D01*
X108780139Y-103523080D01*
X108791992Y-103560108D01*
X110469943Y-103560108D01*
X110478663Y-103551132D01*
X110691991Y-103316298D01*
X110772754Y-103223353D01*
X110834083Y-103150816D01*
X110899275Y-103071684D01*
X110967401Y-102987209D01*
X111037530Y-102898645D01*
X111108731Y-102807245D01*
X111180074Y-102714261D01*
X111250628Y-102620947D01*
X111319463Y-102528555D01*
X111385649Y-102438340D01*
X111448254Y-102351552D01*
X111506348Y-102269446D01*
X111559001Y-102193275D01*
X111605282Y-102124291D01*
X111644261Y-102063748D01*
X111675007Y-102012898D01*
X111685401Y-101994441D01*
X111749130Y-101877133D01*
X111806056Y-101770514D01*
X111857218Y-101672556D01*
X111903657Y-101581232D01*
X111946411Y-101494512D01*
X111986520Y-101410369D01*
X112003919Y-101372945D01*
X112026810Y-101319760D01*
X112040955Y-101277855D01*
X112046358Y-101246399D01*
X112043025Y-101224562D01*
X112030963Y-101211516D01*
X112010178Y-101206429D01*
X112005075Y-101206294D01*
X111985211Y-101211124D01*
X111954461Y-101225662D01*
X111912676Y-101249983D01*
X111903849Y-101255483D01*
X111871114Y-101275033D01*
X111828784Y-101298811D01*
X111780785Y-101324693D01*
X111731047Y-101350553D01*
X111690269Y-101370964D01*
X111630245Y-101401217D01*
X111582603Y-101427902D01*
X111545845Y-101452983D01*
X111518471Y-101478419D01*
X111498983Y-101506175D01*
X111485883Y-101538211D01*
X111477672Y-101576491D01*
X111472852Y-101622975D01*
X111470839Y-101658264D01*
X111468375Y-101702561D01*
X111464727Y-101736470D01*
X111458408Y-101763896D01*
X111447930Y-101788745D01*
X111431805Y-101814923D01*
X111408544Y-101846336D01*
X111390325Y-101869598D01*
X111352345Y-101913281D01*
X111311472Y-101952603D01*
X111270855Y-101984856D01*
X111233643Y-102007330D01*
X111226356Y-102010639D01*
X111205756Y-102016455D01*
X111173927Y-102021918D01*
X111134578Y-102026464D01*
X111108383Y-102028552D01*
X111063915Y-102032118D01*
X111016038Y-102036948D01*
X110971655Y-102042303D01*
X110947765Y-102045745D01*
X110885617Y-102054092D01*
X110814678Y-102060761D01*
X110734009Y-102065781D01*
X110642672Y-102069184D01*
X110539729Y-102070999D01*
X110424243Y-102071256D01*
X110295273Y-102069986D01*
X110228845Y-102068853D01*
X110145811Y-102067372D01*
X110056143Y-102065961D01*
X109963376Y-102064664D01*
X109871042Y-102063523D01*
X109782677Y-102062581D01*
X109701812Y-102061884D01*
X109631982Y-102061473D01*
X109625471Y-102061448D01*
X109537829Y-102060846D01*
X109463264Y-102059525D01*
X109399918Y-102057201D01*
X109345933Y-102053591D01*
X109299450Y-102048413D01*
X109258613Y-102041383D01*
X109221563Y-102032218D01*
X109186441Y-102020636D01*
X109151391Y-102006354D01*
X109114554Y-101989087D01*
X109098794Y-101981227D01*
X109064841Y-101964814D01*
X109025301Y-101946782D01*
X108988515Y-101930931D01*
X108987212Y-101930393D01*
X108931256Y-101902308D01*
X108889013Y-101869364D01*
X108859784Y-101830637D01*
X108842866Y-101785203D01*
X108837557Y-101732970D01*
X108841792Y-101679809D01*
X108853483Y-101629350D01*
X108871404Y-101585361D01*
X108894332Y-101551608D01*
X108897651Y-101548133D01*
X108919609Y-101528387D01*
X108943260Y-101512395D01*
X108970920Y-101499378D01*
X109004904Y-101488555D01*
X109047529Y-101479147D01*
X109101110Y-101470375D01*
X109147353Y-101464069D01*
X109193296Y-101457442D01*
X109243488Y-101449076D01*
X109290891Y-101440193D01*
X109319177Y-101434203D01*
X109356928Y-101426628D01*
X109403940Y-101418685D01*
X109454586Y-101411251D01*
X109503237Y-101405204D01*
X109509677Y-101404507D01*
X109549712Y-101400051D01*
X109584973Y-101395727D01*
X109612542Y-101391924D01*
X109629502Y-101389029D01*
X109632941Y-101388108D01*
X109645053Y-101386138D01*
X109671928Y-101384006D01*
X109713387Y-101381717D01*
X109741388Y-101380495D01*
X108233943Y-101380495D01*
X108222299Y-101413291D01*
X108196241Y-101449657D01*
X108164245Y-101482069D01*
X108089747Y-101542868D01*
X108012724Y-101590649D01*
X107930830Y-101626428D01*
X107841721Y-101651223D01*
X107743054Y-101666050D01*
X107739147Y-101666425D01*
X107706669Y-101669637D01*
X107668892Y-101673595D01*
X107642030Y-101676545D01*
X107564714Y-101682612D01*
X107492136Y-101683126D01*
X107427504Y-101678172D01*
X107379887Y-101669394D01*
X107303076Y-101644439D01*
X107233059Y-101610870D01*
X107172812Y-101570234D01*
X107148545Y-101548969D01*
X107118561Y-101516688D01*
X107093187Y-101482716D01*
X107074430Y-101450267D01*
X107064299Y-101422554D01*
X107063087Y-101412136D01*
X107069811Y-101386324D01*
X107087724Y-101360748D01*
X107113569Y-101339463D01*
X107127261Y-101332214D01*
X107140550Y-101326637D01*
X107152830Y-101322902D01*
X107166278Y-101321234D01*
X107183071Y-101321857D01*
X107205384Y-101324996D01*
X107235396Y-101330876D01*
X107275282Y-101339722D01*
X107327218Y-101351759D01*
X107335736Y-101353749D01*
X107389381Y-101366200D01*
X107431819Y-101375624D01*
X107466381Y-101382449D01*
X107496394Y-101387105D01*
X107525190Y-101390020D01*
X107556097Y-101391624D01*
X107592444Y-101392346D01*
X107637403Y-101392613D01*
X107719793Y-101391243D01*
X107792426Y-101385996D01*
X107860155Y-101376142D01*
X107927828Y-101360947D01*
X108000298Y-101339680D01*
X108010889Y-101336246D01*
X108067341Y-101318875D01*
X108112223Y-101307857D01*
X108147438Y-101303091D01*
X108174891Y-101304473D01*
X108196485Y-101311900D01*
X108214104Y-101325249D01*
X108231202Y-101351178D01*
X108233943Y-101380495D01*
X109741388Y-101380495D01*
X109769252Y-101379279D01*
X109839346Y-101376697D01*
X109923491Y-101373977D01*
X110021509Y-101371127D01*
X110133222Y-101368152D01*
X110258452Y-101365059D01*
X110312765Y-101363779D01*
X110392713Y-101361762D01*
X110475821Y-101359382D01*
X110559263Y-101356739D01*
X110640212Y-101353931D01*
X110715842Y-101351059D01*
X110783325Y-101348223D01*
X110839835Y-101345522D01*
X110858866Y-101344495D01*
X110919716Y-101341327D01*
X110982795Y-101338507D01*
X111044383Y-101336167D01*
X111100757Y-101334442D01*
X111148195Y-101333465D01*
X111171003Y-101333294D01*
X111223648Y-101332746D01*
X111263768Y-101330664D01*
X111293750Y-101326389D01*
X111315985Y-101319265D01*
X111332862Y-101308633D01*
X111346770Y-101293836D01*
X111354650Y-101282736D01*
X111364477Y-101264083D01*
X111378060Y-101232661D01*
X111394883Y-101190020D01*
X111414430Y-101137707D01*
X111436185Y-101077273D01*
X111459632Y-101010265D01*
X111484254Y-100938233D01*
X111509536Y-100862726D01*
X111534963Y-100785292D01*
X111560017Y-100707481D01*
X111584183Y-100630840D01*
X111606944Y-100556920D01*
X111627786Y-100487269D01*
X111646192Y-100423435D01*
X111661645Y-100366968D01*
X111668250Y-100341399D01*
X111679574Y-100297177D01*
X111693533Y-100243805D01*
X111708739Y-100186525D01*
X111723805Y-100130576D01*
X111732038Y-100100414D01*
X111778740Y-99918304D01*
X111815928Y-99746263D01*
X111827051Y-99681116D01*
X110370740Y-99681116D01*
X110370311Y-99764043D01*
X110369104Y-99844762D01*
X110367076Y-99921556D01*
X110366310Y-99943345D01*
X110362284Y-100046746D01*
X110358381Y-100136609D01*
X110354462Y-100214337D01*
X110350389Y-100281331D01*
X110346025Y-100338993D01*
X110341229Y-100388725D01*
X110335866Y-100431927D01*
X110329795Y-100470003D01*
X110322880Y-100504354D01*
X110314982Y-100536381D01*
X110305962Y-100567485D01*
X110304227Y-100573037D01*
X110280258Y-100634152D01*
X110249932Y-100683584D01*
X110211913Y-100722311D01*
X110164864Y-100751315D01*
X110107452Y-100771575D01*
X110038339Y-100784071D01*
X110013122Y-100786625D01*
X109952354Y-100789914D01*
X109899082Y-100788106D01*
X109846595Y-100780737D01*
X109808500Y-100772451D01*
X109757753Y-100756724D01*
X109718778Y-100736067D01*
X109688707Y-100708521D01*
X109666559Y-100675630D01*
X109644147Y-100634794D01*
X109640090Y-100047928D01*
X105514880Y-100047928D01*
X105514513Y-100097420D01*
X105513508Y-100143863D01*
X105511846Y-100189633D01*
X105509511Y-100237106D01*
X105506563Y-100287411D01*
X105503063Y-100344580D01*
X105499649Y-100401640D01*
X105496505Y-100455372D01*
X105493820Y-100502557D01*
X105491780Y-100539975D01*
X105490946Y-100556353D01*
X105488142Y-100593531D01*
X105483729Y-100629178D01*
X105478430Y-100658087D01*
X105475263Y-100669628D01*
X105453018Y-100712561D01*
X105418963Y-100748493D01*
X105375058Y-100776220D01*
X105323264Y-100794540D01*
X105265541Y-100802250D01*
X105258912Y-100802399D01*
X105235455Y-100801301D01*
X105201241Y-100797933D01*
X105160200Y-100792761D01*
X105116264Y-100786253D01*
X105098294Y-100783302D01*
X105028796Y-100770296D01*
X104972287Y-100756641D01*
X104926818Y-100741434D01*
X104890439Y-100723771D01*
X104861201Y-100702751D01*
X104837153Y-100677471D01*
X104821262Y-100655031D01*
X104808043Y-100632475D01*
X104797548Y-100609714D01*
X104789345Y-100584474D01*
X104783004Y-100554479D01*
X104778093Y-100517456D01*
X104774182Y-100471128D01*
X104770839Y-100413221D01*
X104769317Y-100380794D01*
X104767603Y-100330231D01*
X104766468Y-100269784D01*
X104765878Y-100200891D01*
X104765798Y-100124990D01*
X104766193Y-100043519D01*
X104767028Y-99957916D01*
X104768268Y-99869619D01*
X104769880Y-99780066D01*
X104771827Y-99690696D01*
X104774075Y-99602945D01*
X104776590Y-99518254D01*
X104779336Y-99438058D01*
X104782278Y-99363797D01*
X104785383Y-99296909D01*
X104788615Y-99238831D01*
X104791939Y-99191001D01*
X104795321Y-99154859D01*
X104798726Y-99131841D01*
X104799621Y-99128146D01*
X104816019Y-99089894D01*
X104841804Y-99052073D01*
X104872700Y-99020382D01*
X104889795Y-99007952D01*
X104925798Y-98991301D01*
X104974964Y-98977097D01*
X105035670Y-98965661D01*
X105106291Y-98957311D01*
X105169348Y-98953043D01*
X105214648Y-98951249D01*
X105248598Y-98950939D01*
X105274733Y-98952299D01*
X105296590Y-98955517D01*
X105317703Y-98960778D01*
X105318122Y-98960899D01*
X105370954Y-98981875D01*
X105411760Y-99011056D01*
X105441611Y-99049460D01*
X105461113Y-99096489D01*
X105468337Y-99128920D01*
X105475323Y-99175197D01*
X105481991Y-99234227D01*
X105488260Y-99304914D01*
X105494053Y-99386166D01*
X105499288Y-99476886D01*
X105503886Y-99575982D01*
X105507768Y-99682360D01*
X105510303Y-99771941D01*
X105512319Y-99857393D01*
X105513766Y-99930291D01*
X105514625Y-99993011D01*
X105514880Y-100047928D01*
X109640090Y-100047928D01*
X109639524Y-99966176D01*
X109638544Y-99837522D01*
X109637470Y-99720790D01*
X109636307Y-99616333D01*
X109635061Y-99524502D01*
X109633740Y-99445649D01*
X109632349Y-99380127D01*
X109630895Y-99328286D01*
X109629384Y-99290478D01*
X109627821Y-99267056D01*
X109626896Y-99260206D01*
X109619406Y-99198537D01*
X109624748Y-99143868D01*
X109642815Y-99096557D01*
X109673502Y-99056964D01*
X109691168Y-99041934D01*
X109717549Y-99025401D01*
X109749631Y-99011776D01*
X109788839Y-99000832D01*
X109836595Y-98992341D01*
X109894323Y-98986074D01*
X109963447Y-98981803D01*
X110045391Y-98979301D01*
X110085990Y-98978700D01*
X110132680Y-98978277D01*
X110167219Y-98978383D01*
X110192396Y-98979327D01*
X110210999Y-98981419D01*
X110225816Y-98984969D01*
X110239637Y-98990286D01*
X110254759Y-98997441D01*
X110291658Y-99021045D01*
X110319006Y-99052208D01*
X110338848Y-99093624D01*
X110346392Y-99118264D01*
X110351108Y-99143918D01*
X110355418Y-99182793D01*
X110359281Y-99233176D01*
X110362654Y-99293352D01*
X110365497Y-99361606D01*
X110367769Y-99436225D01*
X110369428Y-99515492D01*
X110370432Y-99597694D01*
X110370740Y-99681116D01*
X111827051Y-99681116D01*
X111843802Y-99583008D01*
X111862560Y-99427253D01*
X111872404Y-99277716D01*
X111874118Y-99186100D01*
X111873934Y-99143368D01*
X111873159Y-99112838D01*
X111871458Y-99091776D01*
X111868497Y-99077444D01*
X111863942Y-99067108D01*
X111858635Y-99059507D01*
X111837198Y-99043813D01*
X111807410Y-99039961D01*
X111770066Y-99047978D01*
X111750703Y-99055601D01*
X111711129Y-99067236D01*
X111674482Y-99065339D01*
X111639903Y-99049544D01*
X111606529Y-99019487D01*
X111578571Y-98982610D01*
X111563936Y-98958681D01*
X111544119Y-98923535D01*
X111520295Y-98879472D01*
X111493642Y-98828794D01*
X111465338Y-98773803D01*
X111436559Y-98716801D01*
X111408484Y-98660089D01*
X111382288Y-98605970D01*
X111359150Y-98556744D01*
X111346447Y-98528773D01*
X111320987Y-98473154D01*
X111298667Y-98429217D01*
X111277307Y-98394681D01*
X111254722Y-98367266D01*
X111228732Y-98344694D01*
X111197154Y-98324685D01*
X111157806Y-98304958D01*
X111113402Y-98285330D01*
X111089150Y-98274438D01*
X111053763Y-98257858D01*
X111009437Y-98236651D01*
X110958364Y-98211879D01*
X110902741Y-98184604D01*
X110844761Y-98155889D01*
X110807394Y-98137228D01*
X110573641Y-98020088D01*
X110489894Y-98020335D01*
X110463290Y-98020693D01*
X110438757Y-98021855D01*
X110413909Y-98024210D01*
X110386362Y-98028146D01*
X110353729Y-98034052D01*
X110313626Y-98042315D01*
X110263666Y-98053325D01*
X110204441Y-98066786D01*
X110063484Y-98099083D01*
X109936356Y-98128220D01*
X109822321Y-98154352D01*
X109720637Y-98177633D01*
X109630568Y-98198217D01*
X109551375Y-98216258D01*
X109482317Y-98231911D01*
X109422658Y-98245330D01*
X109371657Y-98256669D01*
X109328577Y-98266083D01*
X109292678Y-98273726D01*
X109263222Y-98279751D01*
X109239469Y-98284313D01*
X109220682Y-98287567D01*
X109206122Y-98289667D01*
X109195049Y-98290766D01*
X109186725Y-98291020D01*
X109180411Y-98290582D01*
X109175369Y-98289607D01*
X109170859Y-98288249D01*
X109166143Y-98286662D01*
X109160483Y-98285000D01*
X109159971Y-98284870D01*
X109128191Y-98273256D01*
X109101013Y-98254501D01*
X109076324Y-98226453D01*
X109052009Y-98186962D01*
X109039240Y-98162067D01*
X109016600Y-98119702D01*
X109012545Y-98113655D01*
X106062993Y-98113655D01*
X106057556Y-98172548D01*
X106042433Y-98223766D01*
X106018512Y-98265934D01*
X105986682Y-98297678D01*
X105947830Y-98317621D01*
X105928153Y-98322403D01*
X105916195Y-98323938D01*
X105902933Y-98324426D01*
X105886887Y-98323607D01*
X105866578Y-98321217D01*
X105840525Y-98316995D01*
X105807248Y-98310680D01*
X105765268Y-98302010D01*
X105713104Y-98290722D01*
X105649275Y-98276554D01*
X105576412Y-98260173D01*
X105523018Y-98248128D01*
X105457240Y-98233291D01*
X105381268Y-98216158D01*
X105297296Y-98197222D01*
X105207513Y-98176977D01*
X105114111Y-98155918D01*
X105019283Y-98134538D01*
X104925217Y-98113331D01*
X104844294Y-98095089D01*
X104740761Y-98071711D01*
X104650778Y-98051244D01*
X104573306Y-98033360D01*
X104507311Y-98017729D01*
X104451756Y-98004025D01*
X104405603Y-97991919D01*
X104367816Y-97981082D01*
X104337359Y-97971186D01*
X104313196Y-97961902D01*
X104294289Y-97952903D01*
X104279601Y-97943859D01*
X104268097Y-97934443D01*
X104258740Y-97924327D01*
X104250493Y-97913181D01*
X104245324Y-97905363D01*
X104234133Y-97886979D01*
X104227772Y-97871653D01*
X104225250Y-97854370D01*
X104225579Y-97830120D01*
X104226684Y-97810911D01*
X104233274Y-97758621D01*
X104245988Y-97700229D01*
X104263130Y-97642053D01*
X104282999Y-97590409D01*
X104289865Y-97575877D01*
X104317225Y-97535183D01*
X104342663Y-97512377D01*
X104355959Y-97503563D01*
X104369101Y-97496619D01*
X104383321Y-97491760D01*
X104399847Y-97489200D01*
X104419911Y-97489153D01*
X104444743Y-97491835D01*
X104475574Y-97497458D01*
X104513633Y-97506238D01*
X104560151Y-97518389D01*
X104616359Y-97534125D01*
X104683486Y-97553660D01*
X104762764Y-97577209D01*
X104829353Y-97597159D01*
X104915969Y-97623148D01*
X105013045Y-97652262D01*
X105116725Y-97683345D01*
X105223155Y-97715242D01*
X105328479Y-97746797D01*
X105428843Y-97776855D01*
X105520390Y-97804261D01*
X105546345Y-97812028D01*
X105618413Y-97833721D01*
X105687205Y-97854675D01*
X105751180Y-97874402D01*
X105808794Y-97892416D01*
X105858503Y-97908228D01*
X105898765Y-97921353D01*
X105928037Y-97931304D01*
X105944774Y-97937592D01*
X105946217Y-97938240D01*
X105994509Y-97968023D01*
X106030270Y-98005497D01*
X106053126Y-98050101D01*
X106062705Y-98101279D01*
X106062993Y-98113655D01*
X109012545Y-98113655D01*
X108996118Y-98089160D01*
X108980676Y-98073220D01*
X108967892Y-98065229D01*
X108943706Y-98051617D01*
X108910086Y-98033432D01*
X108869000Y-98011724D01*
X108822414Y-97987543D01*
X108772296Y-97961937D01*
X108766353Y-97958927D01*
X108621704Y-97882766D01*
X108471954Y-97798361D01*
X108320718Y-97707958D01*
X108171610Y-97613801D01*
X108028245Y-97518136D01*
X107894236Y-97423210D01*
X107843736Y-97385703D01*
X107781142Y-97337068D01*
X107710322Y-97279532D01*
X107633386Y-97214981D01*
X107552445Y-97145302D01*
X107469609Y-97072382D01*
X107386987Y-96998108D01*
X107306690Y-96924369D01*
X107230829Y-96853050D01*
X107161512Y-96786038D01*
X107100851Y-96725222D01*
X107074265Y-96697557D01*
X107021665Y-96641971D01*
X106978316Y-96596256D01*
X106943183Y-96559447D01*
X106915228Y-96530581D01*
X106893414Y-96508694D01*
X106876706Y-96492821D01*
X106864067Y-96481998D01*
X106854461Y-96475261D01*
X106846850Y-96471646D01*
X106840199Y-96470189D01*
X106833471Y-96469926D01*
X106829566Y-96469941D01*
X106808273Y-96472903D01*
X106792410Y-96483068D01*
X106780839Y-96502354D01*
X106772419Y-96532679D01*
X106766011Y-96575959D01*
X106765880Y-96577100D01*
X106757700Y-96628834D01*
X106745578Y-96668929D01*
X106728187Y-96700457D01*
X106704197Y-96726492D01*
X106699508Y-96730476D01*
X106681624Y-96743684D01*
X106662770Y-96753645D01*
X106640904Y-96760569D01*
X106613987Y-96764665D01*
X106579979Y-96766143D01*
X106536839Y-96765213D01*
X106482529Y-96762085D01*
X106430149Y-96758179D01*
X106285190Y-96745311D01*
X106151830Y-96730340D01*
X106026807Y-96712704D01*
X105906858Y-96691837D01*
X105788721Y-96667177D01*
X105669132Y-96638161D01*
X105554000Y-96606842D01*
X105404575Y-96557124D01*
X105260727Y-96494474D01*
X105121886Y-96418546D01*
X104987488Y-96328994D01*
X104856963Y-96225471D01*
X104729746Y-96107629D01*
X104717822Y-96095687D01*
X104681693Y-96059590D01*
X104653909Y-96032921D01*
X104632522Y-96014278D01*
X104615589Y-96002254D01*
X104601162Y-95995447D01*
X104587298Y-95992450D01*
X104573977Y-95991851D01*
X104555656Y-95993830D01*
G37*
X104555656Y-95993830D02*
X104537737Y-96000637D01*
X104518713Y-96013637D01*
X104497079Y-96034200D01*
X104471331Y-96063692D01*
X104439962Y-96103481D01*
X104415855Y-96135501D01*
X104358138Y-96214108D01*
X104306025Y-96287523D01*
X104257785Y-96358476D01*
X104211687Y-96429702D01*
X104166003Y-96503933D01*
X104119001Y-96583902D01*
X104068951Y-96672342D01*
X104021987Y-96757559D01*
X103985839Y-96824133D01*
X103955957Y-96880224D01*
X103931209Y-96928328D01*
X103910467Y-96970945D01*
X103892601Y-97010573D01*
X103876482Y-97049709D01*
X103860978Y-97090853D01*
X103844961Y-97136503D01*
X103828629Y-97185144D01*
X103783658Y-97332055D01*
X103747594Y-97475661D01*
X103719859Y-97619424D01*
X103699875Y-97766807D01*
X103687066Y-97921271D01*
X103681205Y-98068647D01*
X103680018Y-98191530D01*
X103682221Y-98301227D01*
X103687901Y-98399125D01*
X103697145Y-98486608D01*
X103710039Y-98565062D01*
X103713189Y-98580382D01*
X103725317Y-98640359D01*
X103733143Y-98687908D01*
X103736568Y-98724939D01*
X103735491Y-98753360D01*
X103729814Y-98775082D01*
X103719437Y-98792014D01*
X103704259Y-98806066D01*
X103701294Y-98808235D01*
X103681761Y-98818846D01*
X103659096Y-98823565D01*
X103629764Y-98822616D01*
X103590231Y-98816223D01*
X103586663Y-98815511D01*
X103558234Y-98810351D01*
X103539630Y-98808959D01*
X103526205Y-98811390D01*
X103515692Y-98816334D01*
X103500773Y-98826168D01*
X103490142Y-98837886D01*
X103483440Y-98853711D01*
X103480310Y-98875861D01*
X103480393Y-98906557D01*
X103483330Y-98948019D01*
X103487534Y-98990819D01*
X103500911Y-99111208D01*
X103516252Y-99235873D01*
X103533226Y-99362754D01*
X103551505Y-99489795D01*
X103570756Y-99614936D01*
X103590649Y-99736120D01*
X103610855Y-99851290D01*
X103631043Y-99958387D01*
X103650882Y-100055353D01*
X103670042Y-100140130D01*
X103675925Y-100164147D01*
X103722939Y-100341399D01*
X103777281Y-100527550D01*
X103837854Y-100719156D01*
X103903561Y-100912777D01*
X103973305Y-101104971D01*
X103990141Y-101149504D01*
X104009721Y-101193504D01*
X104031012Y-101224056D01*
X104056237Y-101242235D01*
X104087619Y-101249118D01*
X104127382Y-101245782D01*
X104168643Y-101235939D01*
X104203623Y-101227599D01*
X104240181Y-101222356D01*
X104280749Y-101220209D01*
X104327761Y-101221154D01*
X104383651Y-101225190D01*
X104450852Y-101232313D01*
X104478236Y-101235627D01*
X104561207Y-101244788D01*
X104651909Y-101252567D01*
X104751938Y-101259061D01*
X104862891Y-101264366D01*
X104986365Y-101268578D01*
X105052798Y-101270293D01*
X105111407Y-101272015D01*
X105172077Y-101274415D01*
X105230930Y-101277297D01*
X105284089Y-101280464D01*
X105327678Y-101283718D01*
X105341089Y-101284953D01*
X105386714Y-101289159D01*
X105441500Y-101293722D01*
X105499686Y-101298190D01*
X105555512Y-101302110D01*
X105576412Y-101303455D01*
X105685511Y-101311232D01*
X105780469Y-101320147D01*
X105862053Y-101330323D01*
X105931029Y-101341885D01*
X105988162Y-101354955D01*
X106034220Y-101369658D01*
X106061672Y-101381686D01*
X106085698Y-101394769D01*
X106106884Y-101408880D01*
X106126492Y-101425642D01*
X106145789Y-101446674D01*
X106166038Y-101473599D01*
X106188503Y-101508037D01*
X106214450Y-101551609D01*
X106245143Y-101605937D01*
X106265881Y-101643494D01*
X106294012Y-101695143D01*
X106315318Y-101735860D01*
X106330396Y-101767684D01*
X106339841Y-101792653D01*
X106344248Y-101812803D01*
X106344214Y-101830174D01*
X106340333Y-101846803D01*
X106333201Y-101864726D01*
X106331591Y-101868308D01*
X106317657Y-101892280D01*
X106298377Y-101912164D01*
X106271419Y-101929432D01*
X106234452Y-101945558D01*
X106185144Y-101962014D01*
X106181530Y-101963108D01*
X106138876Y-101976771D01*
X106093079Y-101992756D01*
X106050771Y-102008694D01*
X106028383Y-102017862D01*
X105996937Y-102030978D01*
X105972781Y-102039369D01*
X105950629Y-102044079D01*
X105925193Y-102046154D01*
X105891187Y-102046636D01*
X105882706Y-102046634D01*
X105834252Y-102045133D01*
X105788489Y-102040194D01*
X105738573Y-102030958D01*
X105714618Y-102025567D01*
X105661013Y-102014511D01*
X105605809Y-102006395D01*
X105543883Y-102000555D01*
X105501706Y-101997883D01*
X105458680Y-101995524D01*
X105404587Y-101992535D01*
X105343279Y-101989131D01*
X105278606Y-101985525D01*
X105214419Y-101981933D01*
X105176736Y-101979816D01*
X105115687Y-101976626D01*
X105052605Y-101973766D01*
X104991128Y-101971370D01*
X104934893Y-101969571D01*
X104887536Y-101968503D01*
X104862971Y-101968264D01*
X104768147Y-101966671D01*
X104672641Y-101962414D01*
X104580553Y-101955778D01*
X104495981Y-101947045D01*
X104437147Y-101938844D01*
X104355098Y-101926248D01*
X104284353Y-101916582D01*
X104221655Y-101909432D01*
X104168206Y-101904717D01*
X104116715Y-101898512D01*
X104076838Y-101887927D01*
X104045610Y-101871855D01*
X104020314Y-101849462D01*
X104001870Y-101824611D01*
X103991518Y-101797949D01*
X103988667Y-101765989D01*
X103992726Y-101725240D01*
X103996069Y-101706132D01*
X104005170Y-101645095D01*
X104006700Y-101595418D01*
X104000295Y-101555376D01*
X103985594Y-101523241D01*
X103962233Y-101497288D01*
X103950258Y-101488165D01*
X103931506Y-101476975D01*
X103903194Y-101462208D01*
X103869569Y-101446008D01*
X103843236Y-101434127D01*
X103796089Y-101412578D01*
X103739924Y-101385384D01*
X103678577Y-101354524D01*
X103615879Y-101321974D01*
X103555666Y-101289710D01*
X103501772Y-101259711D01*
X103475798Y-101244649D01*
X103433265Y-101221663D01*
X103400057Y-101208892D01*
X103374818Y-101206107D01*
X103356189Y-101213078D01*
X103346865Y-101222897D01*
X103340442Y-101234119D01*
X103336667Y-101246852D01*
X103335966Y-101262269D01*
X103338767Y-101281544D01*
X103345494Y-101305852D01*
X103356575Y-101336366D01*
X103372435Y-101374261D01*
X103393501Y-101420711D01*
X103420198Y-101476890D01*
X103452954Y-101543971D01*
X103492072Y-101622884D01*
X103587827Y-101808799D01*
X103685049Y-101984347D01*
X103786434Y-102154051D01*
X103894674Y-102322435D01*
X104002597Y-102480029D01*
X104095726Y-102611901D01*
X104181554Y-102732341D01*
X104260931Y-102842440D01*
X104334704Y-102943289D01*
X104403723Y-103035979D01*
X104468836Y-103121603D01*
X104530891Y-103201250D01*
X104590737Y-103276013D01*
X104649223Y-103346982D01*
X104707197Y-103415248D01*
X104765508Y-103481904D01*
X104825004Y-103548039D01*
X104877370Y-103604905D01*
X104979767Y-103710412D01*
X105095137Y-103820820D01*
X105222599Y-103935436D01*
X105361272Y-104053568D01*
X105510275Y-104174522D01*
X105668726Y-104297606D01*
X105835744Y-104422128D01*
X106010448Y-104547394D01*
X106191956Y-104672712D01*
X106379387Y-104797389D01*
X106465412Y-104853090D01*
X106550426Y-104907315D01*
X106624361Y-104953659D01*
X106688386Y-104992800D01*
X106743671Y-105025413D01*
X106791383Y-105052176D01*
X106832693Y-105073766D01*
X106868768Y-105090860D01*
X106894971Y-105101882D01*
X106925248Y-105114109D01*
X106963133Y-105129823D01*
X107002558Y-105146492D01*
X107021971Y-105154836D01*
X107152592Y-105206614D01*
X107290722Y-105252577D01*
X107407994Y-105285102D01*
X107456523Y-105296968D01*
X107495296Y-105305419D01*
X107528930Y-105311120D01*
X107562043Y-105314737D01*
X107599251Y-105316936D01*
X107637464Y-105318185D01*
X107679520Y-105319023D01*
X107719148Y-105319326D01*
X107752545Y-105319098D01*
X107775907Y-105318343D01*
X107780236Y-105318029D01*
X107847822Y-105310238D01*
X107911764Y-105298973D01*
X107975248Y-105283324D01*
X108041460Y-105262384D01*
X108113586Y-105235244D01*
X108194810Y-105200996D01*
X108202324Y-105197690D01*
X108442157Y-105085525D01*
X108682557Y-104960769D01*
X108920284Y-104825275D01*
X109152095Y-104680899D01*
X109374750Y-104529497D01*
X109394608Y-104515317D01*
X109612828Y-104351334D01*
X109830617Y-104172667D01*
X110047702Y-103979573D01*
X110115733Y-103914325D01*
X107877353Y-103914325D01*
X107874953Y-103937041D01*
X107865554Y-103955006D01*
X107852211Y-103969437D01*
X107825960Y-103989491D01*
X107793878Y-104003177D01*
X107753273Y-104011246D01*
X107701449Y-104014452D01*
X107690589Y-104014571D01*
X107650106Y-104013781D01*
X107620424Y-104010610D01*
X107597516Y-104004526D01*
X107589427Y-104001193D01*
X107554161Y-103979309D01*
X107531169Y-103952667D01*
X107520665Y-103923459D01*
X107522861Y-103893875D01*
X107537970Y-103866107D01*
X107566205Y-103842345D01*
X107573586Y-103838193D01*
X107594013Y-103831932D01*
X107625313Y-103827532D01*
X107663646Y-103824997D01*
X107705169Y-103824328D01*
X107746044Y-103825528D01*
X107782428Y-103828599D01*
X107810481Y-103833543D01*
X107822975Y-103838050D01*
X107853462Y-103858635D01*
X107870917Y-103881531D01*
X107877246Y-103909409D01*
X107877353Y-103914325D01*
X110115733Y-103914325D01*
X110263809Y-103772309D01*
X110469943Y-103560108D01*
X108791992Y-103560108D01*
X108790760Y-103596783D01*
X108775959Y-103631785D01*
X108756227Y-103655600D01*
X108730498Y-103676574D01*
X108702329Y-103690868D01*
X108670000Y-103698472D01*
X108631790Y-103699378D01*
X108585980Y-103693576D01*
X108530851Y-103681056D01*
X108464681Y-103661809D01*
X108439804Y-103653874D01*
X108392807Y-103638876D01*
X108354254Y-103627428D01*
X108320062Y-103618664D01*
X108286146Y-103611717D01*
X108248422Y-103605719D01*
X108202807Y-103599803D01*
X108163392Y-103595177D01*
X108129309Y-103591373D01*
X108097836Y-103588182D01*
X108067275Y-103585552D01*
X108035930Y-103583429D01*
X108002106Y-103581762D01*
X107964106Y-103580499D01*
X107920235Y-103579586D01*
X107868794Y-103578973D01*
X107808090Y-103578607D01*
X107736424Y-103578435D01*
X107652102Y-103578405D01*
X107619618Y-103578418D01*
X107527560Y-103578538D01*
X107448933Y-103578817D01*
X107382231Y-103579297D01*
X107325945Y-103580015D01*
X107278565Y-103581014D01*
X107238585Y-103582331D01*
X107204494Y-103584008D01*
X107174786Y-103586083D01*
X107147952Y-103588597D01*
X107122824Y-103591547D01*
X107077409Y-103596787D01*
X107023107Y-103602163D01*
X106965960Y-103607123D01*
X106912006Y-103611117D01*
X106898706Y-103611963D01*
X106852874Y-103615019D01*
X106808165Y-103618477D01*
X106768506Y-103622000D01*
X106737829Y-103625250D01*
X106726883Y-103626698D01*
X106667485Y-103633187D01*
X106617806Y-103633687D01*
X106579278Y-103628258D01*
X106556927Y-103619376D01*
X106540477Y-103606866D01*
X106533719Y-103592153D01*
X106532647Y-103575354D01*
X106536387Y-103553809D01*
X106548610Y-103533572D01*
X106570818Y-103513236D01*
X106604515Y-103491391D01*
X106645830Y-103469317D01*
X106697447Y-103445743D01*
X106754389Y-103424464D01*
X106817556Y-103405354D01*
X106887847Y-103388285D01*
X106966162Y-103373129D01*
X107053401Y-103359759D01*
X107150463Y-103348046D01*
X107258249Y-103337864D01*
X107377658Y-103329085D01*
X107509589Y-103321582D01*
X107654944Y-103315225D01*
X107757824Y-103311624D01*
X107848676Y-103309003D01*
X107927336Y-103307513D01*
X107996523Y-103307316D01*
X108058953Y-103308574D01*
X108117345Y-103311450D01*
X108174418Y-103316105D01*
X108232888Y-103322702D01*
X108295474Y-103331403D01*
X108364893Y-103342370D01*
X108415236Y-103350836D01*
X108474451Y-103361279D01*
X108521714Y-103370530D01*
X108559879Y-103379393D01*
X108591798Y-103388675D01*
X108620326Y-103399183D01*
X108648317Y-103411722D01*
X108670912Y-103423068D01*
X108719115Y-103453241D01*
X108755686Y-103487018D01*
X108780139Y-103523080D01*
X108791992Y-103560108D01*
X110469943Y-103560108D01*
X110478663Y-103551132D01*
X110691991Y-103316298D01*
X110772754Y-103223353D01*
X110834083Y-103150816D01*
X110899275Y-103071684D01*
X110967401Y-102987209D01*
X111037530Y-102898645D01*
X111108731Y-102807245D01*
X111180074Y-102714261D01*
X111250628Y-102620947D01*
X111319463Y-102528555D01*
X111385649Y-102438340D01*
X111448254Y-102351552D01*
X111506348Y-102269446D01*
X111559001Y-102193275D01*
X111605282Y-102124291D01*
X111644261Y-102063748D01*
X111675007Y-102012898D01*
X111685401Y-101994441D01*
X111749130Y-101877133D01*
X111806056Y-101770514D01*
X111857218Y-101672556D01*
X111903657Y-101581232D01*
X111946411Y-101494512D01*
X111986520Y-101410369D01*
X112003919Y-101372945D01*
X112026810Y-101319760D01*
X112040955Y-101277855D01*
X112046358Y-101246399D01*
X112043025Y-101224562D01*
X112030963Y-101211516D01*
X112010178Y-101206429D01*
X112005075Y-101206294D01*
X111985211Y-101211124D01*
X111954461Y-101225662D01*
X111912676Y-101249983D01*
X111903849Y-101255483D01*
X111871114Y-101275033D01*
X111828784Y-101298811D01*
X111780785Y-101324693D01*
X111731047Y-101350553D01*
X111690269Y-101370964D01*
X111630245Y-101401217D01*
X111582603Y-101427902D01*
X111545845Y-101452983D01*
X111518471Y-101478419D01*
X111498983Y-101506175D01*
X111485883Y-101538211D01*
X111477672Y-101576491D01*
X111472852Y-101622975D01*
X111470839Y-101658264D01*
X111468375Y-101702561D01*
X111464727Y-101736470D01*
X111458408Y-101763896D01*
X111447930Y-101788745D01*
X111431805Y-101814923D01*
X111408544Y-101846336D01*
X111390325Y-101869598D01*
X111352345Y-101913281D01*
X111311472Y-101952603D01*
X111270855Y-101984856D01*
X111233643Y-102007330D01*
X111226356Y-102010639D01*
X111205756Y-102016455D01*
X111173927Y-102021918D01*
X111134578Y-102026464D01*
X111108383Y-102028552D01*
X111063915Y-102032118D01*
X111016038Y-102036948D01*
X110971655Y-102042303D01*
X110947765Y-102045745D01*
X110885617Y-102054092D01*
X110814678Y-102060761D01*
X110734009Y-102065781D01*
X110642672Y-102069184D01*
X110539729Y-102070999D01*
X110424243Y-102071256D01*
X110295273Y-102069986D01*
X110228845Y-102068853D01*
X110145811Y-102067372D01*
X110056143Y-102065961D01*
X109963376Y-102064664D01*
X109871042Y-102063523D01*
X109782677Y-102062581D01*
X109701812Y-102061884D01*
X109631982Y-102061473D01*
X109625471Y-102061448D01*
X109537829Y-102060846D01*
X109463264Y-102059525D01*
X109399918Y-102057201D01*
X109345933Y-102053591D01*
X109299450Y-102048413D01*
X109258613Y-102041383D01*
X109221563Y-102032218D01*
X109186441Y-102020636D01*
X109151391Y-102006354D01*
X109114554Y-101989087D01*
X109098794Y-101981227D01*
X109064841Y-101964814D01*
X109025301Y-101946782D01*
X108988515Y-101930931D01*
X108987212Y-101930393D01*
X108931256Y-101902308D01*
X108889013Y-101869364D01*
X108859784Y-101830637D01*
X108842866Y-101785203D01*
X108837557Y-101732970D01*
X108841792Y-101679809D01*
X108853483Y-101629350D01*
X108871404Y-101585361D01*
X108894332Y-101551608D01*
X108897651Y-101548133D01*
X108919609Y-101528387D01*
X108943260Y-101512395D01*
X108970920Y-101499378D01*
X109004904Y-101488555D01*
X109047529Y-101479147D01*
X109101110Y-101470375D01*
X109147353Y-101464069D01*
X109193296Y-101457442D01*
X109243488Y-101449076D01*
X109290891Y-101440193D01*
X109319177Y-101434203D01*
X109356928Y-101426628D01*
X109403940Y-101418685D01*
X109454586Y-101411251D01*
X109503237Y-101405204D01*
X109509677Y-101404507D01*
X109549712Y-101400051D01*
X109584973Y-101395727D01*
X109612542Y-101391924D01*
X109629502Y-101389029D01*
X109632941Y-101388108D01*
X109645053Y-101386138D01*
X109671928Y-101384006D01*
X109713387Y-101381717D01*
X109741388Y-101380495D01*
X108233943Y-101380495D01*
X108222299Y-101413291D01*
X108196241Y-101449657D01*
X108164245Y-101482069D01*
X108089747Y-101542868D01*
X108012724Y-101590649D01*
X107930830Y-101626428D01*
X107841721Y-101651223D01*
X107743054Y-101666050D01*
X107739147Y-101666425D01*
X107706669Y-101669637D01*
X107668892Y-101673595D01*
X107642030Y-101676545D01*
X107564714Y-101682612D01*
X107492136Y-101683126D01*
X107427504Y-101678172D01*
X107379887Y-101669394D01*
X107303076Y-101644439D01*
X107233059Y-101610870D01*
X107172812Y-101570234D01*
X107148545Y-101548969D01*
X107118561Y-101516688D01*
X107093187Y-101482716D01*
X107074430Y-101450267D01*
X107064299Y-101422554D01*
X107063087Y-101412136D01*
X107069811Y-101386324D01*
X107087724Y-101360748D01*
X107113569Y-101339463D01*
X107127261Y-101332214D01*
X107140550Y-101326637D01*
X107152830Y-101322902D01*
X107166278Y-101321234D01*
X107183071Y-101321857D01*
X107205384Y-101324996D01*
X107235396Y-101330876D01*
X107275282Y-101339722D01*
X107327218Y-101351759D01*
X107335736Y-101353749D01*
X107389381Y-101366200D01*
X107431819Y-101375624D01*
X107466381Y-101382449D01*
X107496394Y-101387105D01*
X107525190Y-101390020D01*
X107556097Y-101391624D01*
X107592444Y-101392346D01*
X107637403Y-101392613D01*
X107719793Y-101391243D01*
X107792426Y-101385996D01*
X107860155Y-101376142D01*
X107927828Y-101360947D01*
X108000298Y-101339680D01*
X108010889Y-101336246D01*
X108067341Y-101318875D01*
X108112223Y-101307857D01*
X108147438Y-101303091D01*
X108174891Y-101304473D01*
X108196485Y-101311900D01*
X108214104Y-101325249D01*
X108231202Y-101351178D01*
X108233943Y-101380495D01*
X109741388Y-101380495D01*
X109769252Y-101379279D01*
X109839346Y-101376697D01*
X109923491Y-101373977D01*
X110021509Y-101371127D01*
X110133222Y-101368152D01*
X110258452Y-101365059D01*
X110312765Y-101363779D01*
X110392713Y-101361762D01*
X110475821Y-101359382D01*
X110559263Y-101356739D01*
X110640212Y-101353931D01*
X110715842Y-101351059D01*
X110783325Y-101348223D01*
X110839835Y-101345522D01*
X110858866Y-101344495D01*
X110919716Y-101341327D01*
X110982795Y-101338507D01*
X111044383Y-101336167D01*
X111100757Y-101334442D01*
X111148195Y-101333465D01*
X111171003Y-101333294D01*
X111223648Y-101332746D01*
X111263768Y-101330664D01*
X111293750Y-101326389D01*
X111315985Y-101319265D01*
X111332862Y-101308633D01*
X111346770Y-101293836D01*
X111354650Y-101282736D01*
X111364477Y-101264083D01*
X111378060Y-101232661D01*
X111394883Y-101190020D01*
X111414430Y-101137707D01*
X111436185Y-101077273D01*
X111459632Y-101010265D01*
X111484254Y-100938233D01*
X111509536Y-100862726D01*
X111534963Y-100785292D01*
X111560017Y-100707481D01*
X111584183Y-100630840D01*
X111606944Y-100556920D01*
X111627786Y-100487269D01*
X111646192Y-100423435D01*
X111661645Y-100366968D01*
X111668250Y-100341399D01*
X111679574Y-100297177D01*
X111693533Y-100243805D01*
X111708739Y-100186525D01*
X111723805Y-100130576D01*
X111732038Y-100100414D01*
X111778740Y-99918304D01*
X111815928Y-99746263D01*
X111827051Y-99681116D01*
X110370740Y-99681116D01*
X110370311Y-99764043D01*
X110369104Y-99844762D01*
X110367076Y-99921556D01*
X110366310Y-99943345D01*
X110362284Y-100046746D01*
X110358381Y-100136609D01*
X110354462Y-100214337D01*
X110350389Y-100281331D01*
X110346025Y-100338993D01*
X110341229Y-100388725D01*
X110335866Y-100431927D01*
X110329795Y-100470003D01*
X110322880Y-100504354D01*
X110314982Y-100536381D01*
X110305962Y-100567485D01*
X110304227Y-100573037D01*
X110280258Y-100634152D01*
X110249932Y-100683584D01*
X110211913Y-100722311D01*
X110164864Y-100751315D01*
X110107452Y-100771575D01*
X110038339Y-100784071D01*
X110013122Y-100786625D01*
X109952354Y-100789914D01*
X109899082Y-100788106D01*
X109846595Y-100780737D01*
X109808500Y-100772451D01*
X109757753Y-100756724D01*
X109718778Y-100736067D01*
X109688707Y-100708521D01*
X109666559Y-100675630D01*
X109644147Y-100634794D01*
X109640090Y-100047928D01*
X105514880Y-100047928D01*
X105514513Y-100097420D01*
X105513508Y-100143863D01*
X105511846Y-100189633D01*
X105509511Y-100237106D01*
X105506563Y-100287411D01*
X105503063Y-100344580D01*
X105499649Y-100401640D01*
X105496505Y-100455372D01*
X105493820Y-100502557D01*
X105491780Y-100539975D01*
X105490946Y-100556353D01*
X105488142Y-100593531D01*
X105483729Y-100629178D01*
X105478430Y-100658087D01*
X105475263Y-100669628D01*
X105453018Y-100712561D01*
X105418963Y-100748493D01*
X105375058Y-100776220D01*
X105323264Y-100794540D01*
X105265541Y-100802250D01*
X105258912Y-100802399D01*
X105235455Y-100801301D01*
X105201241Y-100797933D01*
X105160200Y-100792761D01*
X105116264Y-100786253D01*
X105098294Y-100783302D01*
X105028796Y-100770296D01*
X104972287Y-100756641D01*
X104926818Y-100741434D01*
X104890439Y-100723771D01*
X104861201Y-100702751D01*
X104837153Y-100677471D01*
X104821262Y-100655031D01*
X104808043Y-100632475D01*
X104797548Y-100609714D01*
X104789345Y-100584474D01*
X104783004Y-100554479D01*
X104778093Y-100517456D01*
X104774182Y-100471128D01*
X104770839Y-100413221D01*
X104769317Y-100380794D01*
X104767603Y-100330231D01*
X104766468Y-100269784D01*
X104765878Y-100200891D01*
X104765798Y-100124990D01*
X104766193Y-100043519D01*
X104767028Y-99957916D01*
X104768268Y-99869619D01*
X104769880Y-99780066D01*
X104771827Y-99690696D01*
X104774075Y-99602945D01*
X104776590Y-99518254D01*
X104779336Y-99438058D01*
X104782278Y-99363797D01*
X104785383Y-99296909D01*
X104788615Y-99238831D01*
X104791939Y-99191001D01*
X104795321Y-99154859D01*
X104798726Y-99131841D01*
X104799621Y-99128146D01*
X104816019Y-99089894D01*
X104841804Y-99052073D01*
X104872700Y-99020382D01*
X104889795Y-99007952D01*
X104925798Y-98991301D01*
X104974964Y-98977097D01*
X105035670Y-98965661D01*
X105106291Y-98957311D01*
X105169348Y-98953043D01*
X105214648Y-98951249D01*
X105248598Y-98950939D01*
X105274733Y-98952299D01*
X105296590Y-98955517D01*
X105317703Y-98960778D01*
X105318122Y-98960899D01*
X105370954Y-98981875D01*
X105411760Y-99011056D01*
X105441611Y-99049460D01*
X105461113Y-99096489D01*
X105468337Y-99128920D01*
X105475323Y-99175197D01*
X105481991Y-99234227D01*
X105488260Y-99304914D01*
X105494053Y-99386166D01*
X105499288Y-99476886D01*
X105503886Y-99575982D01*
X105507768Y-99682360D01*
X105510303Y-99771941D01*
X105512319Y-99857393D01*
X105513766Y-99930291D01*
X105514625Y-99993011D01*
X105514880Y-100047928D01*
X109640090Y-100047928D01*
X109639524Y-99966176D01*
X109638544Y-99837522D01*
X109637470Y-99720790D01*
X109636307Y-99616333D01*
X109635061Y-99524502D01*
X109633740Y-99445649D01*
X109632349Y-99380127D01*
X109630895Y-99328286D01*
X109629384Y-99290478D01*
X109627821Y-99267056D01*
X109626896Y-99260206D01*
X109619406Y-99198537D01*
X109624748Y-99143868D01*
X109642815Y-99096557D01*
X109673502Y-99056964D01*
X109691168Y-99041934D01*
X109717549Y-99025401D01*
X109749631Y-99011776D01*
X109788839Y-99000832D01*
X109836595Y-98992341D01*
X109894323Y-98986074D01*
X109963447Y-98981803D01*
X110045391Y-98979301D01*
X110085990Y-98978700D01*
X110132680Y-98978277D01*
X110167219Y-98978383D01*
X110192396Y-98979327D01*
X110210999Y-98981419D01*
X110225816Y-98984969D01*
X110239637Y-98990286D01*
X110254759Y-98997441D01*
X110291658Y-99021045D01*
X110319006Y-99052208D01*
X110338848Y-99093624D01*
X110346392Y-99118264D01*
X110351108Y-99143918D01*
X110355418Y-99182793D01*
X110359281Y-99233176D01*
X110362654Y-99293352D01*
X110365497Y-99361606D01*
X110367769Y-99436225D01*
X110369428Y-99515492D01*
X110370432Y-99597694D01*
X110370740Y-99681116D01*
X111827051Y-99681116D01*
X111843802Y-99583008D01*
X111862560Y-99427253D01*
X111872404Y-99277716D01*
X111874118Y-99186100D01*
X111873934Y-99143368D01*
X111873159Y-99112838D01*
X111871458Y-99091776D01*
X111868497Y-99077444D01*
X111863942Y-99067108D01*
X111858635Y-99059507D01*
X111837198Y-99043813D01*
X111807410Y-99039961D01*
X111770066Y-99047978D01*
X111750703Y-99055601D01*
X111711129Y-99067236D01*
X111674482Y-99065339D01*
X111639903Y-99049544D01*
X111606529Y-99019487D01*
X111578571Y-98982610D01*
X111563936Y-98958681D01*
X111544119Y-98923535D01*
X111520295Y-98879472D01*
X111493642Y-98828794D01*
X111465338Y-98773803D01*
X111436559Y-98716801D01*
X111408484Y-98660089D01*
X111382288Y-98605970D01*
X111359150Y-98556744D01*
X111346447Y-98528773D01*
X111320987Y-98473154D01*
X111298667Y-98429217D01*
X111277307Y-98394681D01*
X111254722Y-98367266D01*
X111228732Y-98344694D01*
X111197154Y-98324685D01*
X111157806Y-98304958D01*
X111113402Y-98285330D01*
X111089150Y-98274438D01*
X111053763Y-98257858D01*
X111009437Y-98236651D01*
X110958364Y-98211879D01*
X110902741Y-98184604D01*
X110844761Y-98155889D01*
X110807394Y-98137228D01*
X110573641Y-98020088D01*
X110489894Y-98020335D01*
X110463290Y-98020693D01*
X110438757Y-98021855D01*
X110413909Y-98024210D01*
X110386362Y-98028146D01*
X110353729Y-98034052D01*
X110313626Y-98042315D01*
X110263666Y-98053325D01*
X110204441Y-98066786D01*
X110063484Y-98099083D01*
X109936356Y-98128220D01*
X109822321Y-98154352D01*
X109720637Y-98177633D01*
X109630568Y-98198217D01*
X109551375Y-98216258D01*
X109482317Y-98231911D01*
X109422658Y-98245330D01*
X109371657Y-98256669D01*
X109328577Y-98266083D01*
X109292678Y-98273726D01*
X109263222Y-98279751D01*
X109239469Y-98284313D01*
X109220682Y-98287567D01*
X109206122Y-98289667D01*
X109195049Y-98290766D01*
X109186725Y-98291020D01*
X109180411Y-98290582D01*
X109175369Y-98289607D01*
X109170859Y-98288249D01*
X109166143Y-98286662D01*
X109160483Y-98285000D01*
X109159971Y-98284870D01*
X109128191Y-98273256D01*
X109101013Y-98254501D01*
X109076324Y-98226453D01*
X109052009Y-98186962D01*
X109039240Y-98162067D01*
X109016600Y-98119702D01*
X109012545Y-98113655D01*
X106062993Y-98113655D01*
X106057556Y-98172548D01*
X106042433Y-98223766D01*
X106018512Y-98265934D01*
X105986682Y-98297678D01*
X105947830Y-98317621D01*
X105928153Y-98322403D01*
X105916195Y-98323938D01*
X105902933Y-98324426D01*
X105886887Y-98323607D01*
X105866578Y-98321217D01*
X105840525Y-98316995D01*
X105807248Y-98310680D01*
X105765268Y-98302010D01*
X105713104Y-98290722D01*
X105649275Y-98276554D01*
X105576412Y-98260173D01*
X105523018Y-98248128D01*
X105457240Y-98233291D01*
X105381268Y-98216158D01*
X105297296Y-98197222D01*
X105207513Y-98176977D01*
X105114111Y-98155918D01*
X105019283Y-98134538D01*
X104925217Y-98113331D01*
X104844294Y-98095089D01*
X104740761Y-98071711D01*
X104650778Y-98051244D01*
X104573306Y-98033360D01*
X104507311Y-98017729D01*
X104451756Y-98004025D01*
X104405603Y-97991919D01*
X104367816Y-97981082D01*
X104337359Y-97971186D01*
X104313196Y-97961902D01*
X104294289Y-97952903D01*
X104279601Y-97943859D01*
X104268097Y-97934443D01*
X104258740Y-97924327D01*
X104250493Y-97913181D01*
X104245324Y-97905363D01*
X104234133Y-97886979D01*
X104227772Y-97871653D01*
X104225250Y-97854370D01*
X104225579Y-97830120D01*
X104226684Y-97810911D01*
X104233274Y-97758621D01*
X104245988Y-97700229D01*
X104263130Y-97642053D01*
X104282999Y-97590409D01*
X104289865Y-97575877D01*
X104317225Y-97535183D01*
X104342663Y-97512377D01*
X104355959Y-97503563D01*
X104369101Y-97496619D01*
X104383321Y-97491760D01*
X104399847Y-97489200D01*
X104419911Y-97489153D01*
X104444743Y-97491835D01*
X104475574Y-97497458D01*
X104513633Y-97506238D01*
X104560151Y-97518389D01*
X104616359Y-97534125D01*
X104683486Y-97553660D01*
X104762764Y-97577209D01*
X104829353Y-97597159D01*
X104915969Y-97623148D01*
X105013045Y-97652262D01*
X105116725Y-97683345D01*
X105223155Y-97715242D01*
X105328479Y-97746797D01*
X105428843Y-97776855D01*
X105520390Y-97804261D01*
X105546345Y-97812028D01*
X105618413Y-97833721D01*
X105687205Y-97854675D01*
X105751180Y-97874402D01*
X105808794Y-97892416D01*
X105858503Y-97908228D01*
X105898765Y-97921353D01*
X105928037Y-97931304D01*
X105944774Y-97937592D01*
X105946217Y-97938240D01*
X105994509Y-97968023D01*
X106030270Y-98005497D01*
X106053126Y-98050101D01*
X106062705Y-98101279D01*
X106062993Y-98113655D01*
X109012545Y-98113655D01*
X108996118Y-98089160D01*
X108980676Y-98073220D01*
X108967892Y-98065229D01*
X108943706Y-98051617D01*
X108910086Y-98033432D01*
X108869000Y-98011724D01*
X108822414Y-97987543D01*
X108772296Y-97961937D01*
X108766353Y-97958927D01*
X108621704Y-97882766D01*
X108471954Y-97798361D01*
X108320718Y-97707958D01*
X108171610Y-97613801D01*
X108028245Y-97518136D01*
X107894236Y-97423210D01*
X107843736Y-97385703D01*
X107781142Y-97337068D01*
X107710322Y-97279532D01*
X107633386Y-97214981D01*
X107552445Y-97145302D01*
X107469609Y-97072382D01*
X107386987Y-96998108D01*
X107306690Y-96924369D01*
X107230829Y-96853050D01*
X107161512Y-96786038D01*
X107100851Y-96725222D01*
X107074265Y-96697557D01*
X107021665Y-96641971D01*
X106978316Y-96596256D01*
X106943183Y-96559447D01*
X106915228Y-96530581D01*
X106893414Y-96508694D01*
X106876706Y-96492821D01*
X106864067Y-96481998D01*
X106854461Y-96475261D01*
X106846850Y-96471646D01*
X106840199Y-96470189D01*
X106833471Y-96469926D01*
X106829566Y-96469941D01*
X106808273Y-96472903D01*
X106792410Y-96483068D01*
X106780839Y-96502354D01*
X106772419Y-96532679D01*
X106766011Y-96575959D01*
X106765880Y-96577100D01*
X106757700Y-96628834D01*
X106745578Y-96668929D01*
X106728187Y-96700457D01*
X106704197Y-96726492D01*
X106699508Y-96730476D01*
X106681624Y-96743684D01*
X106662770Y-96753645D01*
X106640904Y-96760569D01*
X106613987Y-96764665D01*
X106579979Y-96766143D01*
X106536839Y-96765213D01*
X106482529Y-96762085D01*
X106430149Y-96758179D01*
X106285190Y-96745311D01*
X106151830Y-96730340D01*
X106026807Y-96712704D01*
X105906858Y-96691837D01*
X105788721Y-96667177D01*
X105669132Y-96638161D01*
X105554000Y-96606842D01*
X105404575Y-96557124D01*
X105260727Y-96494474D01*
X105121886Y-96418546D01*
X104987488Y-96328994D01*
X104856963Y-96225471D01*
X104729746Y-96107629D01*
X104717822Y-96095687D01*
X104681693Y-96059590D01*
X104653909Y-96032921D01*
X104632522Y-96014278D01*
X104615589Y-96002254D01*
X104601162Y-95995447D01*
X104587298Y-95992450D01*
X104573977Y-95991851D01*
X104555656Y-95993830D01*
G36*
X102228927Y-99511571D02*
G01*
X102187708Y-99512829D01*
X102157783Y-99514525D01*
X102135508Y-99517322D01*
X102117238Y-99521883D01*
X102099326Y-99528872D01*
X102078129Y-99538952D01*
X102077956Y-99539037D01*
X102014267Y-99578435D01*
X101956514Y-99630176D01*
X101906189Y-99692335D01*
X101864787Y-99762988D01*
X101833801Y-99840212D01*
X101827510Y-99861588D01*
X101814087Y-99912401D01*
X101803827Y-99955906D01*
X101796313Y-99995579D01*
X101791127Y-100034895D01*
X101787852Y-100077328D01*
X101786068Y-100126353D01*
X101785359Y-100185445D01*
X101785283Y-100212706D01*
X101785546Y-100278345D01*
X101786885Y-100332688D01*
X101789875Y-100379281D01*
X101795091Y-100421672D01*
X101803108Y-100463408D01*
X101814498Y-100508035D01*
X101829839Y-100559100D01*
X101849703Y-100620152D01*
X101852790Y-100629436D01*
X101882927Y-100714782D01*
X101914413Y-100792700D01*
X101948911Y-100866336D01*
X101988081Y-100938836D01*
X102033584Y-101013348D01*
X102087082Y-101093017D01*
X102127495Y-101149840D01*
X102171270Y-101208881D01*
X102210768Y-101258572D01*
X102249227Y-101302473D01*
X102289890Y-101344144D01*
X102335996Y-101387148D01*
X102373620Y-101420274D01*
X102472943Y-101502850D01*
X102571352Y-101577410D01*
X102672175Y-101646136D01*
X102778740Y-101711208D01*
X102894377Y-101774808D01*
X102984069Y-101820396D01*
X103052494Y-101853986D01*
X103109198Y-101881331D01*
X103155716Y-101903078D01*
X103193585Y-101919870D01*
X103224341Y-101932354D01*
X103249521Y-101941174D01*
X103270660Y-101946976D01*
X103289294Y-101950405D01*
X103295375Y-101951150D01*
X103319457Y-101952779D01*
X103334870Y-101950057D01*
X103347624Y-101941410D01*
X103353273Y-101935995D01*
X103366363Y-101918017D01*
X103372520Y-101899940D01*
X103372589Y-101898328D01*
X103369352Y-101886380D01*
X103360303Y-101863377D01*
X103346432Y-101831568D01*
X103328732Y-101793199D01*
X103308194Y-101750519D01*
X103300779Y-101735503D01*
X103274493Y-101681484D01*
X103246096Y-101621203D01*
X103217921Y-101559740D01*
X103192302Y-101502174D01*
X103174358Y-101460294D01*
X103152998Y-101409773D01*
X103129501Y-101355215D01*
X103106030Y-101301576D01*
X103084746Y-101253813D01*
X103073853Y-101229882D01*
X103052861Y-101183029D01*
X103029491Y-101128836D01*
X103006570Y-101073970D01*
X102986929Y-101025096D01*
X102986673Y-101024441D01*
X102958510Y-100952016D01*
X102927501Y-100871772D01*
X102894196Y-100785161D01*
X102859142Y-100693637D01*
X102822888Y-100598651D01*
X102785983Y-100501657D01*
X102748975Y-100404106D01*
X102712414Y-100307451D01*
X102676847Y-100213145D01*
X102642824Y-100122640D01*
X102610892Y-100037388D01*
X102581601Y-99958842D01*
X102555500Y-99888454D01*
X102533136Y-99827677D01*
X102515059Y-99777964D01*
X102502014Y-99741330D01*
X102482078Y-99685876D01*
X102465099Y-99642573D01*
X102449986Y-99609192D01*
X102435645Y-99583502D01*
X102420986Y-99563273D01*
X102407921Y-99549156D01*
X102390030Y-99533934D01*
X102370530Y-99523067D01*
X102346710Y-99515984D01*
X102315859Y-99512117D01*
X102275265Y-99510897D01*
X102228927Y-99511571D01*
G37*
X102228927Y-99511571D02*
X102187708Y-99512829D01*
X102157783Y-99514525D01*
X102135508Y-99517322D01*
X102117238Y-99521883D01*
X102099326Y-99528872D01*
X102078129Y-99538952D01*
X102077956Y-99539037D01*
X102014267Y-99578435D01*
X101956514Y-99630176D01*
X101906189Y-99692335D01*
X101864787Y-99762988D01*
X101833801Y-99840212D01*
X101827510Y-99861588D01*
X101814087Y-99912401D01*
X101803827Y-99955906D01*
X101796313Y-99995579D01*
X101791127Y-100034895D01*
X101787852Y-100077328D01*
X101786068Y-100126353D01*
X101785359Y-100185445D01*
X101785283Y-100212706D01*
X101785546Y-100278345D01*
X101786885Y-100332688D01*
X101789875Y-100379281D01*
X101795091Y-100421672D01*
X101803108Y-100463408D01*
X101814498Y-100508035D01*
X101829839Y-100559100D01*
X101849703Y-100620152D01*
X101852790Y-100629436D01*
X101882927Y-100714782D01*
X101914413Y-100792700D01*
X101948911Y-100866336D01*
X101988081Y-100938836D01*
X102033584Y-101013348D01*
X102087082Y-101093017D01*
X102127495Y-101149840D01*
X102171270Y-101208881D01*
X102210768Y-101258572D01*
X102249227Y-101302473D01*
X102289890Y-101344144D01*
X102335996Y-101387148D01*
X102373620Y-101420274D01*
X102472943Y-101502850D01*
X102571352Y-101577410D01*
X102672175Y-101646136D01*
X102778740Y-101711208D01*
X102894377Y-101774808D01*
X102984069Y-101820396D01*
X103052494Y-101853986D01*
X103109198Y-101881331D01*
X103155716Y-101903078D01*
X103193585Y-101919870D01*
X103224341Y-101932354D01*
X103249521Y-101941174D01*
X103270660Y-101946976D01*
X103289294Y-101950405D01*
X103295375Y-101951150D01*
X103319457Y-101952779D01*
X103334870Y-101950057D01*
X103347624Y-101941410D01*
X103353273Y-101935995D01*
X103366363Y-101918017D01*
X103372520Y-101899940D01*
X103372589Y-101898328D01*
X103369352Y-101886380D01*
X103360303Y-101863377D01*
X103346432Y-101831568D01*
X103328732Y-101793199D01*
X103308194Y-101750519D01*
X103300779Y-101735503D01*
X103274493Y-101681484D01*
X103246096Y-101621203D01*
X103217921Y-101559740D01*
X103192302Y-101502174D01*
X103174358Y-101460294D01*
X103152998Y-101409773D01*
X103129501Y-101355215D01*
X103106030Y-101301576D01*
X103084746Y-101253813D01*
X103073853Y-101229882D01*
X103052861Y-101183029D01*
X103029491Y-101128836D01*
X103006570Y-101073970D01*
X102986929Y-101025096D01*
X102986673Y-101024441D01*
X102958510Y-100952016D01*
X102927501Y-100871772D01*
X102894196Y-100785161D01*
X102859142Y-100693637D01*
X102822888Y-100598651D01*
X102785983Y-100501657D01*
X102748975Y-100404106D01*
X102712414Y-100307451D01*
X102676847Y-100213145D01*
X102642824Y-100122640D01*
X102610892Y-100037388D01*
X102581601Y-99958842D01*
X102555500Y-99888454D01*
X102533136Y-99827677D01*
X102515059Y-99777964D01*
X102502014Y-99741330D01*
X102482078Y-99685876D01*
X102465099Y-99642573D01*
X102449986Y-99609192D01*
X102435645Y-99583502D01*
X102420986Y-99563273D01*
X102407921Y-99549156D01*
X102390030Y-99533934D01*
X102370530Y-99523067D01*
X102346710Y-99515984D01*
X102315859Y-99512117D01*
X102275265Y-99510897D01*
X102228927Y-99511571D01*
G36*
X112938082Y-99511787D02*
G01*
X112896743Y-99516814D01*
X112864110Y-99527172D01*
X112838366Y-99544479D01*
X112817695Y-99570352D01*
X112800279Y-99606411D01*
X112784303Y-99654275D01*
X112770327Y-99706117D01*
X112742281Y-99813318D01*
X112710363Y-99929439D01*
X112675177Y-100052602D01*
X112637322Y-100180928D01*
X112597402Y-100312540D01*
X112556018Y-100445560D01*
X112513773Y-100578110D01*
X112471268Y-100708311D01*
X112429104Y-100834286D01*
X112387885Y-100954156D01*
X112348211Y-101066044D01*
X112310685Y-101168071D01*
X112275909Y-101258359D01*
X112260794Y-101295941D01*
X112242202Y-101340492D01*
X112219425Y-101393601D01*
X112193740Y-101452418D01*
X112166426Y-101514090D01*
X112138758Y-101575769D01*
X112112015Y-101634603D01*
X112087473Y-101687742D01*
X112066411Y-101732336D01*
X112052485Y-101760819D01*
X112032796Y-101806423D01*
X112024342Y-101842431D01*
X112027091Y-101869060D01*
X112035269Y-101881848D01*
X112048110Y-101890528D01*
X112064884Y-101893335D01*
X112087365Y-101889825D01*
X112117326Y-101879551D01*
X112156542Y-101862066D01*
X112200058Y-101840390D01*
X112303580Y-101785341D01*
X112397897Y-101730837D01*
X112486455Y-101674542D01*
X112572704Y-101614119D01*
X112660090Y-101547232D01*
X112752061Y-101471544D01*
X112781783Y-101446152D01*
X112833491Y-101400771D01*
X112876935Y-101360313D01*
X112915244Y-101321404D01*
X112951544Y-101280673D01*
X112988962Y-101234750D01*
X113030626Y-101180261D01*
X113039826Y-101167928D01*
X113121968Y-101052121D01*
X113192516Y-100940703D01*
X113252969Y-100830874D01*
X113304831Y-100719832D01*
X113349601Y-100604775D01*
X113363614Y-100563823D01*
X113389151Y-100482211D01*
X113408277Y-100409434D01*
X113421644Y-100341162D01*
X113429903Y-100273063D01*
X113433704Y-100200806D01*
X113433700Y-100120060D01*
X113433251Y-100100647D01*
X113430548Y-100030039D01*
X113426110Y-99971143D01*
X113419273Y-99920764D01*
X113409373Y-99875712D01*
X113395744Y-99832793D01*
X113377722Y-99788817D01*
X113360946Y-99753264D01*
X113328036Y-99693138D01*
X113293183Y-99644211D01*
X113253420Y-99602780D01*
X113216507Y-99572854D01*
X113174589Y-99546224D01*
X113130726Y-99527692D01*
X113081418Y-99516295D01*
X113023169Y-99511070D01*
X112989944Y-99510470D01*
X112938082Y-99511787D01*
G37*
X112938082Y-99511787D02*
X112896743Y-99516814D01*
X112864110Y-99527172D01*
X112838366Y-99544479D01*
X112817695Y-99570352D01*
X112800279Y-99606411D01*
X112784303Y-99654275D01*
X112770327Y-99706117D01*
X112742281Y-99813318D01*
X112710363Y-99929439D01*
X112675177Y-100052602D01*
X112637322Y-100180928D01*
X112597402Y-100312540D01*
X112556018Y-100445560D01*
X112513773Y-100578110D01*
X112471268Y-100708311D01*
X112429104Y-100834286D01*
X112387885Y-100954156D01*
X112348211Y-101066044D01*
X112310685Y-101168071D01*
X112275909Y-101258359D01*
X112260794Y-101295941D01*
X112242202Y-101340492D01*
X112219425Y-101393601D01*
X112193740Y-101452418D01*
X112166426Y-101514090D01*
X112138758Y-101575769D01*
X112112015Y-101634603D01*
X112087473Y-101687742D01*
X112066411Y-101732336D01*
X112052485Y-101760819D01*
X112032796Y-101806423D01*
X112024342Y-101842431D01*
X112027091Y-101869060D01*
X112035269Y-101881848D01*
X112048110Y-101890528D01*
X112064884Y-101893335D01*
X112087365Y-101889825D01*
X112117326Y-101879551D01*
X112156542Y-101862066D01*
X112200058Y-101840390D01*
X112303580Y-101785341D01*
X112397897Y-101730837D01*
X112486455Y-101674542D01*
X112572704Y-101614119D01*
X112660090Y-101547232D01*
X112752061Y-101471544D01*
X112781783Y-101446152D01*
X112833491Y-101400771D01*
X112876935Y-101360313D01*
X112915244Y-101321404D01*
X112951544Y-101280673D01*
X112988962Y-101234750D01*
X113030626Y-101180261D01*
X113039826Y-101167928D01*
X113121968Y-101052121D01*
X113192516Y-100940703D01*
X113252969Y-100830874D01*
X113304831Y-100719832D01*
X113349601Y-100604775D01*
X113363614Y-100563823D01*
X113389151Y-100482211D01*
X113408277Y-100409434D01*
X113421644Y-100341162D01*
X113429903Y-100273063D01*
X113433704Y-100200806D01*
X113433700Y-100120060D01*
X113433251Y-100100647D01*
X113430548Y-100030039D01*
X113426110Y-99971143D01*
X113419273Y-99920764D01*
X113409373Y-99875712D01*
X113395744Y-99832793D01*
X113377722Y-99788817D01*
X113360946Y-99753264D01*
X113328036Y-99693138D01*
X113293183Y-99644211D01*
X113253420Y-99602780D01*
X113216507Y-99572854D01*
X113174589Y-99546224D01*
X113130726Y-99527692D01*
X113081418Y-99516295D01*
X113023169Y-99511070D01*
X112989944Y-99510470D01*
X112938082Y-99511787D01*
G36*
X101088941Y-89381139D02*
G01*
X101051179Y-89384607D01*
X101022578Y-89392422D01*
X101001687Y-89406248D01*
X100987055Y-89427750D01*
X100977231Y-89458592D01*
X100970763Y-89500439D01*
X100966201Y-89554955D01*
X100964727Y-89578323D01*
X100962941Y-89617607D01*
X100961450Y-89670213D01*
X100960251Y-89734522D01*
X100959341Y-89808919D01*
X100958718Y-89891787D01*
X100958378Y-89981507D01*
X100958318Y-90076464D01*
X100958537Y-90175041D01*
X100959031Y-90275620D01*
X100959798Y-90376584D01*
X100960834Y-90476317D01*
X100962136Y-90573201D01*
X100963703Y-90665620D01*
X100965531Y-90751957D01*
X100966843Y-90803500D01*
X100971994Y-90967425D01*
X100978101Y-91117460D01*
X100985222Y-91254627D01*
X100993418Y-91379949D01*
X101002747Y-91494451D01*
X101012031Y-91587911D01*
X101017262Y-91636662D01*
X101023490Y-91695735D01*
X101030241Y-91760584D01*
X101037045Y-91826662D01*
X101043427Y-91889424D01*
X101045037Y-91905411D01*
X101065644Y-92087357D01*
X101090994Y-92271679D01*
X101120599Y-92455859D01*
X101153970Y-92637377D01*
X101190620Y-92813712D01*
X101230059Y-92982346D01*
X101271800Y-93140758D01*
X101308589Y-93265059D01*
X101322159Y-93308742D01*
X101338496Y-93361890D01*
X101356114Y-93419640D01*
X101373531Y-93477134D01*
X101386137Y-93519059D01*
X101402505Y-93572591D01*
X101420586Y-93629835D01*
X101438839Y-93686033D01*
X101455723Y-93736430D01*
X101467191Y-93769323D01*
X101479582Y-93804249D01*
X101495760Y-93850316D01*
X101514682Y-93904526D01*
X101535304Y-93963880D01*
X101556582Y-94025381D01*
X101577472Y-94086031D01*
X101579211Y-94091093D01*
X101653901Y-94295454D01*
X101733927Y-94488266D01*
X101820706Y-94672400D01*
X101915654Y-94850725D01*
X102020187Y-95026110D01*
X102105269Y-95156763D01*
X102144208Y-95215367D01*
X102174656Y-95263432D01*
X102197159Y-95302316D01*
X102212265Y-95333373D01*
X102220523Y-95357963D01*
X102222481Y-95377440D01*
X102218686Y-95393163D01*
X102209686Y-95406488D01*
X102207177Y-95409117D01*
X102191077Y-95420449D01*
X102172390Y-95423249D01*
X102149292Y-95416957D01*
X102119964Y-95401017D01*
X102082582Y-95374871D01*
X102073864Y-95368280D01*
X102030779Y-95340395D01*
X101991198Y-95324719D01*
X101956246Y-95321399D01*
X101927046Y-95330579D01*
X101908677Y-95346903D01*
X101898102Y-95363122D01*
X101893153Y-95379608D01*
X101894485Y-95398326D01*
X101902751Y-95421243D01*
X101918608Y-95450326D01*
X101942708Y-95487540D01*
X101967277Y-95522948D01*
X102004662Y-95577727D01*
X102036477Y-95628894D01*
X102063846Y-95679087D01*
X102087893Y-95730946D01*
X102109743Y-95787108D01*
X102130520Y-95850212D01*
X102151347Y-95922894D01*
X102172598Y-96004788D01*
X102187378Y-96065101D01*
X102200088Y-96120385D01*
X102210986Y-96172660D01*
X102220330Y-96223944D01*
X102228379Y-96276257D01*
X102235392Y-96331617D01*
X102241628Y-96392042D01*
X102247345Y-96459552D01*
X102252802Y-96536166D01*
X102258257Y-96623901D01*
X102263307Y-96712735D01*
X102272401Y-96866644D01*
X102282798Y-97023192D01*
X102294289Y-97179869D01*
X102306665Y-97334168D01*
X102319714Y-97483578D01*
X102333226Y-97625592D01*
X102346993Y-97757699D01*
X102360803Y-97877393D01*
X102360895Y-97878147D01*
X102366976Y-97924439D01*
X102375341Y-97983061D01*
X102385601Y-98051642D01*
X102397369Y-98127809D01*
X102410255Y-98209193D01*
X102423872Y-98293422D01*
X102437831Y-98378126D01*
X102451744Y-98460933D01*
X102465223Y-98539472D01*
X102477878Y-98611373D01*
X102489322Y-98674264D01*
X102499166Y-98725775D01*
X102502228Y-98741000D01*
X102508849Y-98774767D01*
X102517289Y-98819994D01*
X102526957Y-98873392D01*
X102537264Y-98931676D01*
X102547620Y-98991557D01*
X102554764Y-99033753D01*
X102567013Y-99106392D01*
X102577391Y-99166684D01*
X102586389Y-99217037D01*
X102594497Y-99259859D01*
X102602203Y-99297556D01*
X102609997Y-99332536D01*
X102618369Y-99367206D01*
X102627807Y-99403974D01*
X102637257Y-99439500D01*
X102676223Y-99577306D01*
X102717480Y-99709674D01*
X102759902Y-99833110D01*
X102790294Y-99913882D01*
X102839127Y-100038168D01*
X102884394Y-100152882D01*
X102925890Y-100257520D01*
X102963413Y-100351579D01*
X102996759Y-100434554D01*
X103025725Y-100505941D01*
X103050109Y-100565236D01*
X103069705Y-100611934D01*
X103084313Y-100645532D01*
X103091438Y-100660941D01*
X103121144Y-100711950D01*
X103161723Y-100764405D01*
X103213804Y-100818895D01*
X103278018Y-100876010D01*
X103354992Y-100936338D01*
X103445358Y-101000468D01*
X103477177Y-101021870D01*
X103542286Y-101063843D01*
X103596723Y-101096054D01*
X103640931Y-101118722D01*
X103675356Y-101132065D01*
X103700443Y-101136304D01*
X103707909Y-101135511D01*
X103725802Y-101129623D01*
X103738362Y-101120037D01*
X103745508Y-101105347D01*
X103747160Y-101084142D01*
X103743238Y-101055016D01*
X103733660Y-101016559D01*
X103718347Y-100967363D01*
X103697217Y-100906020D01*
X103694300Y-100897814D01*
X103621219Y-100680053D01*
X103554389Y-100454272D01*
X103493640Y-100219635D01*
X103438801Y-99975305D01*
X103389701Y-99720447D01*
X103346169Y-99454224D01*
X103308035Y-99175800D01*
X103275126Y-98884340D01*
X103267950Y-98811970D01*
X103261692Y-98747690D01*
X103256215Y-98695875D01*
X103250797Y-98654124D01*
X103244716Y-98620035D01*
X103237252Y-98591208D01*
X103227682Y-98565241D01*
X103215286Y-98539735D01*
X103199341Y-98512288D01*
X103179127Y-98480499D01*
X103159169Y-98449982D01*
X103132914Y-98407532D01*
X103106030Y-98359898D01*
X103080132Y-98310343D01*
X103056832Y-98262129D01*
X103037746Y-98218518D01*
X103024485Y-98182772D01*
X103020970Y-98170607D01*
X103016125Y-98147878D01*
X103016524Y-98133178D01*
X103022812Y-98120322D01*
X103026782Y-98114765D01*
X103047135Y-98096821D01*
X103070312Y-98093458D01*
X103095737Y-98104713D01*
X103102924Y-98110272D01*
X103116088Y-98123475D01*
X103135772Y-98145872D01*
X103159605Y-98174649D01*
X103185215Y-98206993D01*
X103193006Y-98217124D01*
X103225472Y-98257560D01*
X103264045Y-98302410D01*
X103303760Y-98346053D01*
X103337747Y-98381003D01*
X103368269Y-98410835D01*
X103390433Y-98431702D01*
X103406514Y-98445137D01*
X103418786Y-98452673D01*
X103429523Y-98455843D01*
X103440998Y-98456182D01*
X103448546Y-98455709D01*
X103469372Y-98453045D01*
X103480607Y-98446499D01*
X103487604Y-98432333D01*
X103489295Y-98427235D01*
X103493514Y-98402321D01*
X103493900Y-98365111D01*
X103491525Y-98326382D01*
X103488065Y-98269473D01*
X103486003Y-98202975D01*
X103485330Y-98131643D01*
X103486039Y-98060232D01*
X103488121Y-97993495D01*
X103491569Y-97936188D01*
X103492188Y-97928877D01*
X103496351Y-97894349D01*
X103503613Y-97847696D01*
X103513483Y-97791293D01*
X103525471Y-97727519D01*
X103539085Y-97658751D01*
X103553835Y-97587367D01*
X103569231Y-97515744D01*
X103584780Y-97446260D01*
X103599993Y-97381291D01*
X103614379Y-97323216D01*
X103626897Y-97276364D01*
X103646156Y-97209713D01*
X103665173Y-97148468D01*
X103684966Y-97090005D01*
X103706551Y-97031700D01*
X103730945Y-96970929D01*
X103759166Y-96905069D01*
X103792230Y-96831496D01*
X103831155Y-96747585D01*
X103835241Y-96738882D01*
X103882658Y-96640410D01*
X103929374Y-96548802D01*
X103976861Y-96461653D01*
X104026594Y-96376560D01*
X104080047Y-96291119D01*
X104138693Y-96202926D01*
X104204008Y-96109577D01*
X104277465Y-96008669D01*
X104309190Y-95966009D01*
X104338140Y-95926482D01*
X104365161Y-95888113D01*
X104388461Y-95853561D01*
X104406247Y-95825483D01*
X104416729Y-95806539D01*
X104416820Y-95806340D01*
X104426794Y-95779341D01*
X104431430Y-95751384D01*
X104430572Y-95719520D01*
X104424063Y-95680800D01*
X104411747Y-95632276D01*
X104406660Y-95614559D01*
X104393194Y-95562406D01*
X104386978Y-95521617D01*
X104387977Y-95490510D01*
X104396156Y-95467403D01*
X104403407Y-95457807D01*
X104426247Y-95441269D01*
X104450208Y-95439250D01*
X104475445Y-95451828D01*
X104502113Y-95479083D01*
X104530366Y-95521092D01*
X104531815Y-95523569D01*
X104572621Y-95593228D01*
X104607746Y-95651881D01*
X104638684Y-95701629D01*
X104666930Y-95744571D01*
X104693976Y-95782807D01*
X104721318Y-95818438D01*
X104750449Y-95853563D01*
X104782864Y-95890283D01*
X104820055Y-95930698D01*
X104825902Y-95936956D01*
X104932764Y-96042371D01*
X105046239Y-96137658D01*
X105164660Y-96221647D01*
X105286362Y-96293170D01*
X105409678Y-96351055D01*
X105423716Y-96356717D01*
X105469787Y-96373784D01*
X105526277Y-96392850D01*
X105589024Y-96412659D01*
X105653865Y-96431956D01*
X105716635Y-96449489D01*
X105773173Y-96464002D01*
X105801621Y-96470575D01*
X105854293Y-96481071D01*
X105916948Y-96491918D01*
X105986916Y-96502788D01*
X106061527Y-96513354D01*
X106138110Y-96523287D01*
X106213994Y-96532262D01*
X106286509Y-96539949D01*
X106352984Y-96546023D01*
X106410750Y-96550154D01*
X106457134Y-96552017D01*
X106466373Y-96552089D01*
X106510993Y-96547429D01*
X106544470Y-96533275D01*
X106567476Y-96509278D01*
X106574185Y-96496164D01*
X106578383Y-96477643D01*
X106581483Y-96446177D01*
X106583529Y-96403719D01*
X106584567Y-96352224D01*
X106584643Y-96293642D01*
X106583802Y-96229929D01*
X106582089Y-96163035D01*
X106579550Y-96094916D01*
X106576230Y-96027522D01*
X106572175Y-95962808D01*
X106567429Y-95902726D01*
X106562039Y-95849230D01*
X106558486Y-95820901D01*
X106548203Y-95752691D01*
X106534831Y-95674319D01*
X106519143Y-95590056D01*
X106501915Y-95504173D01*
X106495666Y-95474529D01*
X106488646Y-95440192D01*
X106484969Y-95416615D01*
X106484456Y-95400040D01*
X106486927Y-95386707D01*
X106490948Y-95375809D01*
X106506296Y-95352774D01*
X106526371Y-95342980D01*
X106549509Y-95346167D01*
X106574041Y-95362073D01*
X106598302Y-95390437D01*
X106599970Y-95392916D01*
X106625308Y-95438073D01*
X106648654Y-95494324D01*
X106670218Y-95562428D01*
X106690213Y-95643143D01*
X106708850Y-95737229D01*
X106726338Y-95845445D01*
X106726864Y-95849027D01*
X106736630Y-95912288D01*
X106745906Y-95963102D01*
X106755489Y-96003909D01*
X106766176Y-96037149D01*
X106778764Y-96065259D01*
X106794048Y-96090680D01*
X106812826Y-96115851D01*
X106814806Y-96118301D01*
X106827188Y-96133283D01*
X106841036Y-96149475D01*
X106857227Y-96167812D01*
X106876639Y-96189229D01*
X106900150Y-96214659D01*
X106928637Y-96245039D01*
X106962976Y-96281301D01*
X107004046Y-96324382D01*
X107052723Y-96375216D01*
X107109886Y-96434737D01*
X107176410Y-96503880D01*
X107189657Y-96517637D01*
X107334695Y-96665476D01*
X107473794Y-96801477D01*
X107608267Y-96926865D01*
X107739433Y-97042865D01*
X107868607Y-97150699D01*
X107882949Y-97162274D01*
X107930243Y-97199042D01*
X107988016Y-97241885D01*
X108053928Y-97289206D01*
X108125639Y-97339405D01*
X108200809Y-97390884D01*
X108277097Y-97442044D01*
X108352163Y-97491286D01*
X108423667Y-97537011D01*
X108489269Y-97577622D01*
X108503530Y-97586223D01*
X108542728Y-97608865D01*
X108587018Y-97633024D01*
X108633969Y-97657515D01*
X108681149Y-97681156D01*
X108726127Y-97702765D01*
X108766470Y-97721159D01*
X108799746Y-97735156D01*
X108823523Y-97743572D01*
X108830536Y-97745234D01*
X108864680Y-97744160D01*
X108893063Y-97729859D01*
X108913373Y-97703766D01*
X108916384Y-97696833D01*
X108918936Y-97688281D01*
X108921075Y-97676848D01*
X108922850Y-97661269D01*
X108924308Y-97640283D01*
X108925498Y-97612624D01*
X108926468Y-97577031D01*
X108927264Y-97532238D01*
X108927936Y-97476984D01*
X108928530Y-97410005D01*
X108929096Y-97330037D01*
X108929409Y-97280500D01*
X108929908Y-97183632D01*
X108930095Y-97099399D01*
X108929924Y-97025501D01*
X108929349Y-96959632D01*
X108928325Y-96899492D01*
X108926804Y-96842777D01*
X108924741Y-96787183D01*
X108922091Y-96730410D01*
X108918808Y-96670153D01*
X108916445Y-96630222D01*
X108912305Y-96564964D01*
X108907841Y-96500027D01*
X108903258Y-96438063D01*
X108898765Y-96381726D01*
X108894570Y-96333668D01*
X108890879Y-96296542D01*
X108889279Y-96282839D01*
X108879385Y-96213920D01*
X108866546Y-96138651D01*
X108851600Y-96061125D01*
X108835389Y-95985433D01*
X108818751Y-95915664D01*
X108802529Y-95855912D01*
X108799599Y-95846147D01*
X108788201Y-95808331D01*
X108774089Y-95760706D01*
X108758605Y-95707845D01*
X108743089Y-95654319D01*
X108732754Y-95618294D01*
X108702529Y-95516972D01*
X108672716Y-95427205D01*
X108641972Y-95345711D01*
X108608956Y-95269205D01*
X108572325Y-95194406D01*
X108530736Y-95118030D01*
X108522021Y-95102823D01*
X108501626Y-95067135D01*
X108476815Y-95023173D01*
X108450311Y-94975787D01*
X108424834Y-94929831D01*
X108417255Y-94916059D01*
X108372217Y-94835179D01*
X108331256Y-94764459D01*
X108292232Y-94700695D01*
X108253006Y-94640681D01*
X108211439Y-94581210D01*
X108165390Y-94519077D01*
X108112721Y-94451077D01*
X108076267Y-94405145D01*
X108015512Y-94329777D01*
X107961222Y-94263965D01*
X107911155Y-94205126D01*
X107863071Y-94150674D01*
X107814727Y-94098025D01*
X107763883Y-94044593D01*
X107761375Y-94042000D01*
X107717707Y-93996598D01*
X107683547Y-93960317D01*
X107657784Y-93931764D01*
X107639309Y-93909546D01*
X107627013Y-93892271D01*
X107619787Y-93878545D01*
X107616521Y-93866977D01*
X107615997Y-93859493D01*
X107618911Y-93835364D01*
X107629613Y-93820448D01*
X107648659Y-93810731D01*
X107663459Y-93807091D01*
X107679275Y-93808911D01*
X107701208Y-93817065D01*
X107710779Y-93821350D01*
X107746950Y-93841383D01*
X107789394Y-93870537D01*
X107834979Y-93906328D01*
X107880568Y-93946270D01*
X107923026Y-93987879D01*
X107929463Y-93994678D01*
X107958637Y-94026625D01*
X107994790Y-94067446D01*
X108036545Y-94115487D01*
X108082524Y-94169096D01*
X108131349Y-94226622D01*
X108181643Y-94286410D01*
X108232029Y-94346810D01*
X108281130Y-94406168D01*
X108327568Y-94462832D01*
X108369965Y-94515150D01*
X108406945Y-94561469D01*
X108437129Y-94600137D01*
X108459141Y-94629501D01*
X108462276Y-94633878D01*
X108503517Y-94694782D01*
X108548513Y-94766010D01*
X108595245Y-94844106D01*
X108641696Y-94925613D01*
X108685845Y-95007075D01*
X108725237Y-95084147D01*
X108750655Y-95136968D01*
X108779133Y-95198370D01*
X108809434Y-95265498D01*
X108840323Y-95335496D01*
X108870561Y-95405510D01*
X108898913Y-95472685D01*
X108924140Y-95534164D01*
X108945008Y-95587095D01*
X108956633Y-95618294D01*
X108973903Y-95669872D01*
X108993114Y-95733308D01*
X109013556Y-95805754D01*
X109034518Y-95884364D01*
X109055288Y-95966292D01*
X109075156Y-96048690D01*
X109093410Y-96128714D01*
X109109341Y-96203514D01*
X109122237Y-96270246D01*
X109128279Y-96305588D01*
X109132874Y-96337948D01*
X109138112Y-96380752D01*
X109143492Y-96429546D01*
X109148512Y-96479876D01*
X109150999Y-96507294D01*
X109155163Y-96554125D01*
X109159436Y-96593040D01*
X109164892Y-96625934D01*
X109172608Y-96654699D01*
X109183658Y-96681229D01*
X109199119Y-96707418D01*
X109220067Y-96735160D01*
X109247576Y-96766347D01*
X109282722Y-96802875D01*
X109326581Y-96846635D01*
X109365610Y-96885114D01*
X109471874Y-96987664D01*
X109582496Y-97090445D01*
X109693105Y-97189474D01*
X109799327Y-97280765D01*
X109804765Y-97285323D01*
X109836585Y-97311411D01*
X109876343Y-97343161D01*
X109921746Y-97378817D01*
X109970498Y-97416625D01*
X110020307Y-97454830D01*
X110068877Y-97491678D01*
X110113915Y-97525415D01*
X110153126Y-97554285D01*
X110184216Y-97576534D01*
X110196941Y-97585259D01*
X110230003Y-97607683D01*
X110270053Y-97635354D01*
X110311999Y-97664729D01*
X110350118Y-97691815D01*
X110389887Y-97719552D01*
X110437011Y-97751200D01*
X110485959Y-97783107D01*
X110531198Y-97811623D01*
X110536883Y-97815113D01*
X110581976Y-97841531D01*
X110637740Y-97872324D01*
X110702269Y-97906575D01*
X110773657Y-97943367D01*
X110849999Y-97981785D01*
X110929390Y-98020911D01*
X111009924Y-98059829D01*
X111089696Y-98097624D01*
X111166799Y-98133378D01*
X111239329Y-98166176D01*
X111305380Y-98195101D01*
X111363047Y-98219237D01*
X111410424Y-98237667D01*
X111429791Y-98244501D01*
X111471830Y-98256183D01*
X111504332Y-98259165D01*
X111529951Y-98253379D01*
X111548311Y-98241506D01*
X111558017Y-98232020D01*
X111565722Y-98221113D01*
X111571652Y-98207043D01*
X111576034Y-98188064D01*
X111579097Y-98162432D01*
X111581066Y-98128400D01*
X111582170Y-98084225D01*
X111582635Y-98028162D01*
X111582701Y-97977372D01*
X111581631Y-97863369D01*
X111578224Y-97760105D01*
X111572078Y-97663501D01*
X111562787Y-97569480D01*
X111549947Y-97473965D01*
X111533152Y-97372877D01*
X111511997Y-97262140D01*
X111511423Y-97259280D01*
X111466024Y-97060860D01*
X111411152Y-96871516D01*
X111345652Y-96687915D01*
X111268372Y-96506723D01*
X111207727Y-96381660D01*
X111187295Y-96340774D01*
X111169451Y-96303791D01*
X111155252Y-96273006D01*
X111145756Y-96250716D01*
X111142019Y-96239216D01*
X111142000Y-96238858D01*
X111147346Y-96221125D01*
X111160336Y-96202971D01*
X111176398Y-96189672D01*
X111187737Y-96186059D01*
X111215877Y-96193124D01*
X111247059Y-96213606D01*
X111280678Y-96246430D01*
X111316129Y-96290523D01*
X111352809Y-96344810D01*
X111390113Y-96408219D01*
X111427437Y-96479675D01*
X111464177Y-96558104D01*
X111499728Y-96642434D01*
X111533487Y-96731591D01*
X111564848Y-96824500D01*
X111585537Y-96892881D01*
X111635423Y-97079396D01*
X111678267Y-97267122D01*
X111713562Y-97453228D01*
X111740802Y-97634884D01*
X111759481Y-97809260D01*
X111765895Y-97900559D01*
X111767419Y-97957781D01*
X111766257Y-98021553D01*
X111762710Y-98088728D01*
X111757082Y-98156164D01*
X111749674Y-98220713D01*
X111740789Y-98279231D01*
X111730729Y-98328573D01*
X111721715Y-98360270D01*
X111705986Y-98396851D01*
X111685340Y-98425551D01*
X111656477Y-98449942D01*
X111617841Y-98472688D01*
X111583267Y-98492560D01*
X111561113Y-98510669D01*
X111549507Y-98529604D01*
X111546576Y-98551951D01*
X111548303Y-98568723D01*
X111554181Y-98588670D01*
X111566231Y-98618216D01*
X111582829Y-98654213D01*
X111602348Y-98693515D01*
X111623164Y-98732977D01*
X111643651Y-98769451D01*
X111662184Y-98799791D01*
X111677136Y-98820851D01*
X111680594Y-98824798D01*
X111699117Y-98842223D01*
X111715328Y-98850609D01*
X111735673Y-98853022D01*
X111739992Y-98853059D01*
X111757362Y-98852118D01*
X111771302Y-98847769D01*
X111785758Y-98837721D01*
X111804676Y-98819685D01*
X111814007Y-98810103D01*
X111833265Y-98787630D01*
X111858489Y-98754401D01*
X111888233Y-98712632D01*
X111921052Y-98664539D01*
X111955499Y-98612337D01*
X111990127Y-98558242D01*
X112023490Y-98504471D01*
X112054142Y-98453240D01*
X112080636Y-98406765D01*
X112096199Y-98377738D01*
X112167324Y-98229903D01*
X112226508Y-98083644D01*
X112275461Y-97934476D01*
X112300270Y-97843165D01*
X112310447Y-97805588D01*
X112321031Y-97771160D01*
X112330774Y-97743676D01*
X112338431Y-97726930D01*
X112338477Y-97726855D01*
X112356611Y-97706941D01*
X112378307Y-97696709D01*
X112399258Y-97697918D01*
X112403818Y-97700180D01*
X112419673Y-97716918D01*
X112432580Y-97743446D01*
X112440444Y-97774634D01*
X112441871Y-97793360D01*
X112439353Y-97832666D01*
X112432246Y-97883078D01*
X112421256Y-97941730D01*
X112407087Y-98005755D01*
X112390444Y-98072289D01*
X112372031Y-98138464D01*
X112352554Y-98201414D01*
X112332718Y-98258274D01*
X112319068Y-98292746D01*
X112297113Y-98340912D01*
X112268397Y-98397991D01*
X112234744Y-98460668D01*
X112197974Y-98525626D01*
X112159911Y-98589548D01*
X112128187Y-98640147D01*
X112106448Y-98674824D01*
X112087123Y-98707367D01*
X112072014Y-98734620D01*
X112062920Y-98753430D01*
X112061751Y-98756586D01*
X112058971Y-98772089D01*
X112056834Y-98799827D01*
X112055323Y-98840361D01*
X112054423Y-98894257D01*
X112054117Y-98962076D01*
X112054285Y-99025527D01*
X112053829Y-99142090D01*
X112050979Y-99249265D01*
X112045361Y-99349942D01*
X112036606Y-99447009D01*
X112024340Y-99543357D01*
X112008193Y-99641874D01*
X111987792Y-99745450D01*
X111962766Y-99856973D01*
X111932744Y-99979334D01*
X111930392Y-99988588D01*
X111882826Y-100172493D01*
X111837203Y-100342804D01*
X111793184Y-100500692D01*
X111750428Y-100647330D01*
X111708595Y-100783889D01*
X111667344Y-100911539D01*
X111631827Y-101015794D01*
X111615040Y-101066302D01*
X111604266Y-101105385D01*
X111599219Y-101135165D01*
X111599613Y-101157764D01*
X111605159Y-101175303D01*
X111609336Y-101182220D01*
X111620464Y-101193041D01*
X111637157Y-101197935D01*
X111656427Y-101198823D01*
X111674443Y-101197643D01*
X111692419Y-101193194D01*
X111713754Y-101184115D01*
X111741846Y-101169047D01*
X111766286Y-101154837D01*
X111829563Y-101115531D01*
X111888908Y-101074356D01*
X111947726Y-101028696D01*
X112009421Y-100975934D01*
X112064626Y-100925457D01*
X112122857Y-100869711D01*
X112170820Y-100820595D01*
X112210207Y-100775788D01*
X112242716Y-100732971D01*
X112270040Y-100689824D01*
X112293874Y-100644027D01*
X112315914Y-100593260D01*
X112325734Y-100568082D01*
X112363458Y-100462244D01*
X112401607Y-100342817D01*
X112439868Y-100211132D01*
X112477928Y-100068524D01*
X112515477Y-99916325D01*
X112552201Y-99755869D01*
X112587787Y-99588487D01*
X112621925Y-99415514D01*
X112654300Y-99238283D01*
X112684602Y-99058126D01*
X112695183Y-98991264D01*
X112705555Y-98924193D01*
X112713912Y-98868864D01*
X112720626Y-98822268D01*
X112726065Y-98781398D01*
X112730600Y-98743244D01*
X112734602Y-98704801D01*
X112738439Y-98663058D01*
X112742483Y-98615008D01*
X112744439Y-98590887D01*
X112763614Y-98373389D01*
X112785255Y-98167894D01*
X112809770Y-97971606D01*
X112837565Y-97781731D01*
X112869051Y-97595473D01*
X112904635Y-97410035D01*
X112943210Y-97229385D01*
X112976046Y-97089182D01*
X113009057Y-96962232D01*
X113042875Y-96846851D01*
X113078134Y-96741359D01*
X113115470Y-96644073D01*
X113155515Y-96553311D01*
X113198904Y-96467392D01*
X113246272Y-96384634D01*
X113284539Y-96324009D01*
X113306306Y-96292273D01*
X113335415Y-96251974D01*
X113369663Y-96206045D01*
X113406848Y-96157417D01*
X113444765Y-96109023D01*
X113465886Y-96082637D01*
X113500365Y-96039937D01*
X113533028Y-95999475D01*
X113562303Y-95963203D01*
X113586613Y-95933071D01*
X113604384Y-95911033D01*
X113612897Y-95900462D01*
X113631291Y-95871476D01*
X113637176Y-95844856D01*
X113637177Y-95844642D01*
X113636038Y-95825360D01*
X113631459Y-95809533D01*
X113621694Y-95795899D01*
X113604997Y-95783196D01*
X113579621Y-95770159D01*
X113543823Y-95755528D01*
X113495855Y-95738038D01*
X113484030Y-95733869D01*
X113427338Y-95711911D01*
X113361933Y-95683174D01*
X113291342Y-95649448D01*
X113219091Y-95612523D01*
X113148707Y-95574188D01*
X113083716Y-95536235D01*
X113038656Y-95507798D01*
X113002077Y-95484265D01*
X112967695Y-95463153D01*
X112938356Y-95446134D01*
X112916907Y-95434885D01*
X112909302Y-95431697D01*
X112881681Y-95426170D01*
X112853840Y-95428992D01*
X112822732Y-95441018D01*
X112785313Y-95463107D01*
X112776305Y-95469147D01*
X112740057Y-95491638D01*
X112712267Y-95503419D01*
X112691306Y-95504805D01*
X112675546Y-95496110D01*
X112670159Y-95489632D01*
X112664197Y-95480402D01*
X112660456Y-95471350D01*
X112659619Y-95461115D01*
X112662368Y-95448334D01*
X112669386Y-95431645D01*
X112681356Y-95409688D01*
X112698959Y-95381100D01*
X112722879Y-95344519D01*
X112753797Y-95298583D01*
X112792398Y-95241931D01*
X112799576Y-95231425D01*
X112889708Y-95095876D01*
X112970076Y-94966859D01*
X113042335Y-94841270D01*
X113108136Y-94716004D01*
X113169132Y-94587954D01*
X113226977Y-94454015D01*
X113267665Y-94352029D01*
X113283301Y-94310494D01*
X113302705Y-94257181D01*
X113325040Y-94194525D01*
X113349469Y-94124963D01*
X113375155Y-94050930D01*
X113401263Y-93974863D01*
X113426955Y-93899198D01*
X113451396Y-93826369D01*
X113473749Y-93758814D01*
X113493176Y-93698969D01*
X113507526Y-93653529D01*
X113546143Y-93528453D01*
X113580507Y-93416018D01*
X113610995Y-93314656D01*
X113637980Y-93222800D01*
X113661839Y-93138885D01*
X113682945Y-93061344D01*
X113687025Y-93045496D01*
X112622802Y-93045496D01*
X112617295Y-93142931D01*
X112605065Y-93248119D01*
X112586171Y-93359694D01*
X112571599Y-93429411D01*
X112553521Y-93503721D01*
X112533429Y-93572150D01*
X112509825Y-93638784D01*
X112481206Y-93707706D01*
X112446072Y-93783000D01*
X112428903Y-93817723D01*
X112355971Y-93963241D01*
X112356265Y-94019429D01*
X112357463Y-94049459D01*
X112361430Y-94077096D01*
X112369238Y-94107339D01*
X112381959Y-94145183D01*
X112385171Y-94154059D01*
X112413421Y-94232158D01*
X112436488Y-94297654D01*
X112454678Y-94351840D01*
X112468295Y-94396009D01*
X112477646Y-94431455D01*
X112483034Y-94459472D01*
X112484766Y-94481353D01*
X112483146Y-94498390D01*
X112478480Y-94511878D01*
X112471981Y-94521985D01*
X112451361Y-94538813D01*
X112428082Y-94540984D01*
X112405992Y-94530759D01*
X112398784Y-94524110D01*
X112390209Y-94512922D01*
X112379872Y-94496349D01*
X112367380Y-94473549D01*
X112352339Y-94443675D01*
X112334355Y-94405885D01*
X112313035Y-94359334D01*
X112287986Y-94303177D01*
X112258814Y-94236570D01*
X112225124Y-94158668D01*
X112186525Y-94068628D01*
X112143339Y-93967294D01*
X112124251Y-93922722D01*
X112106938Y-93883300D01*
X112090454Y-93847321D01*
X112073853Y-93813080D01*
X112056191Y-93778868D01*
X112036522Y-93742980D01*
X112013901Y-93703708D01*
X111987381Y-93659346D01*
X111956018Y-93608186D01*
X111918866Y-93548523D01*
X111874980Y-93478650D01*
X111855724Y-93448088D01*
X111818313Y-93391349D01*
X111773468Y-93327550D01*
X111723756Y-93260049D01*
X111671748Y-93192203D01*
X111620012Y-93127370D01*
X111571118Y-93068907D01*
X111531320Y-93024138D01*
X111507886Y-92999926D01*
X111475227Y-92967770D01*
X111435372Y-92929552D01*
X111390354Y-92887153D01*
X111342204Y-92842451D01*
X111292954Y-92797328D01*
X111244636Y-92753665D01*
X111199280Y-92713341D01*
X111158918Y-92678238D01*
X111143268Y-92664934D01*
X110996937Y-92546459D01*
X110837444Y-92426389D01*
X110666326Y-92305830D01*
X110485115Y-92185890D01*
X110436030Y-92154623D01*
X110389631Y-92125142D01*
X110340514Y-92093660D01*
X110292731Y-92062793D01*
X110250332Y-92035156D01*
X110223118Y-92017199D01*
X110180666Y-91989652D01*
X110131966Y-91959144D01*
X110083596Y-91929746D01*
X110048898Y-91909383D01*
X110002943Y-91882559D01*
X109968693Y-91861257D01*
X109944562Y-91844174D01*
X109928962Y-91830009D01*
X109920306Y-91817462D01*
X109917007Y-91805229D01*
X109916824Y-91801074D01*
X109922664Y-91778309D01*
X109939984Y-91764800D01*
X109968486Y-91760612D01*
X110007871Y-91765809D01*
X110040089Y-91774538D01*
X110058795Y-91781697D01*
X110088488Y-91794646D01*
X110126880Y-91812313D01*
X110171685Y-91833628D01*
X110220617Y-91857522D01*
X110268335Y-91881378D01*
X110333466Y-91914121D01*
X110387200Y-91940098D01*
X110431434Y-91959363D01*
X110468064Y-91971972D01*
X110498987Y-91977980D01*
X110526099Y-91977440D01*
X110551297Y-91970407D01*
X110576478Y-91956938D01*
X110603538Y-91937085D01*
X110634373Y-91910904D01*
X110655077Y-91892536D01*
X110701471Y-91851979D01*
X110742735Y-91818039D01*
X110782937Y-91787721D01*
X110826142Y-91758035D01*
X110876416Y-91725989D01*
X110906677Y-91707414D01*
X111013157Y-91646579D01*
X111131213Y-91586225D01*
X111221523Y-91544491D01*
X105926625Y-91544491D01*
X105919822Y-91562207D01*
X105919809Y-91562231D01*
X105912264Y-91572132D01*
X105899647Y-91581595D01*
X105880447Y-91591165D01*
X105853153Y-91601388D01*
X105816254Y-91612810D01*
X105768238Y-91625975D01*
X105707594Y-91641429D01*
X105684736Y-91647080D01*
X105615944Y-91664319D01*
X105544869Y-91682731D01*
X105473716Y-91701700D01*
X105404693Y-91720606D01*
X105340004Y-91738832D01*
X105281855Y-91755759D01*
X105232454Y-91770770D01*
X105194006Y-91783246D01*
X105176736Y-91789400D01*
X105140816Y-91803839D01*
X105094674Y-91823754D01*
X105041359Y-91847752D01*
X104983917Y-91874440D01*
X104925396Y-91902425D01*
X104873393Y-91928035D01*
X104805645Y-91963984D01*
X104728182Y-92008749D01*
X104642549Y-92061326D01*
X104550294Y-92120713D01*
X104452963Y-92185907D01*
X104352102Y-92255905D01*
X104249257Y-92329703D01*
X104213030Y-92356282D01*
X104131529Y-92419938D01*
X104044180Y-92494582D01*
X103952770Y-92578359D01*
X103859085Y-92669414D01*
X103764911Y-92765892D01*
X103672036Y-92865937D01*
X103582244Y-92967694D01*
X103497324Y-93069308D01*
X103419060Y-93168923D01*
X103380337Y-93221037D01*
X103330640Y-93291471D01*
X103275855Y-93372806D01*
X103217527Y-93462557D01*
X103157204Y-93558238D01*
X103096430Y-93657362D01*
X103036751Y-93757443D01*
X102979714Y-93855996D01*
X102927914Y-93948617D01*
X102904361Y-93990769D01*
X102881844Y-94029599D01*
X102861805Y-94062736D01*
X102845684Y-94087805D01*
X102834921Y-94102435D01*
X102833809Y-94103632D01*
X102809999Y-94120385D01*
X102786948Y-94122720D01*
X102765981Y-94110621D01*
X102760543Y-94104492D01*
X102751376Y-94090681D01*
X102746756Y-94076158D01*
X102746798Y-94057803D01*
X102751616Y-94032496D01*
X102761326Y-93997120D01*
X102764951Y-93984938D01*
X102778476Y-93929739D01*
X102784560Y-93880238D01*
X102783090Y-93838759D01*
X102773958Y-93807625D01*
X102773458Y-93806676D01*
X102764136Y-93792813D01*
X102747105Y-93770629D01*
X102724611Y-93742944D01*
X102698901Y-93712575D01*
X102693045Y-93705823D01*
X102612629Y-93605449D01*
X102538185Y-93496541D01*
X102472169Y-93383095D01*
X102417040Y-93269108D01*
X102401622Y-93231970D01*
X102378922Y-93168566D01*
X102355991Y-93092730D01*
X102333417Y-93006949D01*
X102311788Y-92913708D01*
X102291694Y-92815496D01*
X102273722Y-92714797D01*
X102263066Y-92646524D01*
X102245972Y-92519119D01*
X102232869Y-92397899D01*
X102223746Y-92283748D01*
X102218587Y-92177550D01*
X102217380Y-92080188D01*
X102220109Y-91992548D01*
X102226763Y-91915512D01*
X102237326Y-91849964D01*
X102251786Y-91796789D01*
X102270128Y-91756870D01*
X102277054Y-91746725D01*
X102304281Y-91716886D01*
X102333805Y-91697379D01*
X102367792Y-91687804D01*
X102408406Y-91687764D01*
X102457815Y-91696859D01*
X102493576Y-91706837D01*
X102549786Y-91725520D01*
X102615831Y-91749998D01*
X102688438Y-91778895D01*
X102764331Y-91810837D01*
X102840238Y-91844449D01*
X102912885Y-91878355D01*
X102973869Y-91908547D01*
X103016571Y-91930009D01*
X103055651Y-91948899D01*
X103088859Y-91964190D01*
X103113948Y-91974854D01*
X103128671Y-91979866D01*
X103130579Y-91980117D01*
X103155666Y-91977472D01*
X103174278Y-91968408D01*
X103187254Y-91951230D01*
X103195433Y-91924248D01*
X103199655Y-91885766D01*
X103200765Y-91838528D01*
X103201157Y-91801196D01*
X103202804Y-91774524D01*
X103206408Y-91754237D01*
X103212674Y-91736066D01*
X103220360Y-91719612D01*
X103247000Y-91680333D01*
X103281472Y-91653772D01*
X103323854Y-91639874D01*
X103337553Y-91638211D01*
X103369766Y-91638912D01*
X103415002Y-91645225D01*
X103473419Y-91657184D01*
X103545176Y-91674824D01*
X103630432Y-91698181D01*
X103704730Y-91719891D01*
X103825888Y-91758454D01*
X103941334Y-91800376D01*
X104056111Y-91847652D01*
X104175262Y-91902276D01*
X104216765Y-91922433D01*
X104263311Y-91945251D01*
X104298876Y-91962294D01*
X104325869Y-91974407D01*
X104346702Y-91982439D01*
X104363787Y-91987235D01*
X104379534Y-91989643D01*
X104396355Y-91990510D01*
X104411000Y-91990658D01*
X104438093Y-91989635D01*
X104464638Y-91985761D01*
X104492802Y-91978209D01*
X104524747Y-91966151D01*
X104562638Y-91948757D01*
X104608638Y-91925201D01*
X104664912Y-91894652D01*
X104671810Y-91890836D01*
X104830364Y-91809273D01*
X105000090Y-91733689D01*
X105178050Y-91665143D01*
X105361308Y-91604695D01*
X105546926Y-91553406D01*
X105707147Y-91517239D01*
X105764401Y-91506213D01*
X105809159Y-91498961D01*
X105843371Y-91495441D01*
X105868985Y-91495610D01*
X105887953Y-91499427D01*
X105902223Y-91506848D01*
X105909193Y-91512866D01*
X105923494Y-91529963D01*
X105926625Y-91544491D01*
X111221523Y-91544491D01*
X111257515Y-91527859D01*
X111388734Y-91472989D01*
X111521539Y-91423121D01*
X111576942Y-91404046D01*
X111659974Y-91377136D01*
X111738224Y-91353808D01*
X111814554Y-91333434D01*
X111891829Y-91315387D01*
X111972909Y-91299041D01*
X112060657Y-91283768D01*
X112157937Y-91268942D01*
X112254120Y-91255710D01*
X112318374Y-91247802D01*
X112370070Y-91243039D01*
X112411293Y-91241608D01*
X112444129Y-91243694D01*
X112470666Y-91249482D01*
X112492987Y-91259159D01*
X112513181Y-91272910D01*
X112520968Y-91279450D01*
X112539417Y-91298047D01*
X112554635Y-91319413D01*
X112566817Y-91344933D01*
X112576160Y-91375992D01*
X112582860Y-91413975D01*
X112587111Y-91460266D01*
X112589112Y-91516251D01*
X112589056Y-91583315D01*
X112587140Y-91662843D01*
X112584668Y-91729853D01*
X112579001Y-91849285D01*
X112572161Y-91955786D01*
X112563895Y-92051339D01*
X112553953Y-92137926D01*
X112542080Y-92217530D01*
X112528027Y-92292131D01*
X112511540Y-92363713D01*
X112497274Y-92417147D01*
X112486061Y-92456949D01*
X112475330Y-92495138D01*
X112466244Y-92527577D01*
X112459961Y-92550126D01*
X112459595Y-92551452D01*
X112453085Y-92581011D01*
X112452642Y-92605680D01*
X112459511Y-92628514D01*
X112474934Y-92652569D01*
X112500158Y-92680900D01*
X112520616Y-92701322D01*
X112548099Y-92728661D01*
X112567002Y-92749524D01*
X112579801Y-92767482D01*
X112588977Y-92786108D01*
X112597006Y-92808972D01*
X112598387Y-92813381D01*
X112613407Y-92879355D01*
X112621526Y-92957182D01*
X112622802Y-93045496D01*
X113687025Y-93045496D01*
X113701674Y-92988610D01*
X113718401Y-92919116D01*
X113733500Y-92851297D01*
X113747347Y-92783584D01*
X113760317Y-92714413D01*
X113772784Y-92642215D01*
X113785124Y-92565425D01*
X113797711Y-92482476D01*
X113810920Y-92391801D01*
X113813029Y-92377086D01*
X113826381Y-92282607D01*
X113837971Y-92197757D01*
X113848150Y-92119439D01*
X113857267Y-92044559D01*
X113865674Y-91970022D01*
X113873719Y-91892732D01*
X113881753Y-91809593D01*
X113890126Y-91717511D01*
X113898490Y-91621529D01*
X113905709Y-91534162D01*
X113912027Y-91450058D01*
X113917468Y-91367854D01*
X113922058Y-91286186D01*
X113925821Y-91203690D01*
X113928783Y-91119004D01*
X113930968Y-91030765D01*
X113932402Y-90937607D01*
X113933110Y-90838169D01*
X113933116Y-90731087D01*
X113932446Y-90614998D01*
X113931125Y-90488537D01*
X113929178Y-90350342D01*
X113926629Y-90199050D01*
X113925617Y-90143690D01*
X113923439Y-90026697D01*
X113921485Y-89923703D01*
X113919693Y-89833772D01*
X113917997Y-89755964D01*
X113916335Y-89689341D01*
X113914642Y-89632965D01*
X113912855Y-89585899D01*
X113910909Y-89547202D01*
X113908741Y-89515938D01*
X113906287Y-89491168D01*
X113903482Y-89471953D01*
X113900264Y-89457356D01*
X113896568Y-89446438D01*
X113892331Y-89438261D01*
X113887488Y-89431887D01*
X113881976Y-89426376D01*
X113876458Y-89421441D01*
X113872147Y-89417993D01*
X113866774Y-89415123D01*
X113859030Y-89412779D01*
X113847603Y-89410911D01*
X113831186Y-89409468D01*
X113808467Y-89408397D01*
X113778137Y-89407650D01*
X113738887Y-89407173D01*
X113689406Y-89406917D01*
X113628385Y-89406831D01*
X113554515Y-89406862D01*
X113503765Y-89406916D01*
X113312421Y-89408219D01*
X113134194Y-89411746D01*
X112967410Y-89417622D01*
X112810394Y-89425973D01*
X112661468Y-89436923D01*
X112518960Y-89450598D01*
X112381192Y-89467123D01*
X112246490Y-89486623D01*
X112113178Y-89509224D01*
X112098733Y-89511866D01*
X111994438Y-89532341D01*
X111879721Y-89557113D01*
X111758175Y-89585303D01*
X111633394Y-89616032D01*
X111508973Y-89648421D01*
X111388505Y-89681593D01*
X111303079Y-89706406D01*
X111180945Y-89745296D01*
X111053976Y-89790743D01*
X110921466Y-89843085D01*
X110782710Y-89902661D01*
X110637000Y-89969808D01*
X110483631Y-90044865D01*
X110321896Y-90128170D01*
X110151090Y-90220062D01*
X109970506Y-90320880D01*
X109779438Y-90430961D01*
X109728110Y-90461050D01*
X109635536Y-90516015D01*
X109554494Y-90565298D01*
X109483227Y-90610046D01*
X109419977Y-90651405D01*
X109362985Y-90690522D01*
X109310495Y-90728542D01*
X109266890Y-90761801D01*
X109223789Y-90795799D01*
X109175929Y-90834143D01*
X109125039Y-90875397D01*
X109072847Y-90918122D01*
X109021080Y-90960881D01*
X108971469Y-91002237D01*
X108925742Y-91040752D01*
X108885626Y-91074988D01*
X108852851Y-91103508D01*
X108829145Y-91124873D01*
X108821126Y-91132531D01*
X108797093Y-91157483D01*
X108781137Y-91178125D01*
X108769938Y-91199812D01*
X108760175Y-91227896D01*
X108758439Y-91233624D01*
X108748834Y-91263857D01*
X108739141Y-91291356D01*
X108731347Y-91310517D01*
X108730875Y-91311500D01*
X108710714Y-91340264D01*
X108685886Y-91356457D01*
X108658727Y-91359523D01*
X108631577Y-91348905D01*
X108618641Y-91338197D01*
X108606467Y-91323666D01*
X108596579Y-91305560D01*
X108588219Y-91281405D01*
X108580630Y-91248727D01*
X108573056Y-91205050D01*
X108568417Y-91174023D01*
X108556596Y-91110702D01*
X108540943Y-91061524D01*
X108520705Y-91026011D01*
X108495127Y-91003686D01*
X108463456Y-90994072D01*
X108424938Y-90996691D01*
X108378819Y-91011065D01*
X108339421Y-91028955D01*
X108307428Y-91045889D01*
X108279956Y-91063029D01*
X108253287Y-91083159D01*
X108223705Y-91109062D01*
X108191118Y-91139999D01*
X108155622Y-91174018D01*
X108128528Y-91198727D01*
X108107846Y-91215554D01*
X108091590Y-91225926D01*
X108077769Y-91231271D01*
X108064395Y-91233016D01*
X108061485Y-91233059D01*
X108034750Y-91229393D01*
X108016778Y-91216613D01*
X108007812Y-91202642D01*
X108000768Y-91186429D01*
X107997768Y-91170577D01*
X107999561Y-91153120D01*
X108006899Y-91132093D01*
X108020532Y-91105530D01*
X108041210Y-91071467D01*
X108069683Y-91027939D01*
X108080918Y-91011161D01*
X108110453Y-90964745D01*
X108142029Y-90910875D01*
X108173793Y-90853088D01*
X108203896Y-90794916D01*
X108230487Y-90739896D01*
X108251714Y-90691559D01*
X108261292Y-90666716D01*
X108276284Y-90615570D01*
X108280800Y-90574910D01*
X108274613Y-90544349D01*
X108257499Y-90523502D01*
X108229229Y-90511983D01*
X108189578Y-90509407D01*
X108169858Y-90510858D01*
X108139693Y-90515225D01*
X108097812Y-90523009D01*
X108046886Y-90533592D01*
X107989586Y-90546356D01*
X107928582Y-90560685D01*
X107866545Y-90575959D01*
X107806145Y-90591563D01*
X107750053Y-90606878D01*
X107730888Y-90612359D01*
X107674762Y-90629359D01*
X107613367Y-90649208D01*
X107548627Y-90671174D01*
X107482467Y-90694527D01*
X107416812Y-90718536D01*
X107353586Y-90742472D01*
X107294715Y-90765605D01*
X107242124Y-90787202D01*
X107197736Y-90806535D01*
X107163478Y-90822872D01*
X107141273Y-90835484D01*
X107139358Y-90836822D01*
X107109864Y-90866910D01*
X107096308Y-90893073D01*
X107090783Y-90908610D01*
X107087635Y-90922432D01*
X107086869Y-90938064D01*
X107088492Y-90959033D01*
X107092511Y-90988865D01*
X107096536Y-91015495D01*
X107103587Y-91069476D01*
X107105940Y-91111715D01*
X107103324Y-91144739D01*
X107095466Y-91171075D01*
X107082096Y-91193253D01*
X107076721Y-91199756D01*
X107057387Y-91217747D01*
X107038506Y-91225013D01*
X107029675Y-91225588D01*
X107004451Y-91221601D01*
X106983667Y-91208794D01*
X106966589Y-91185896D01*
X106952479Y-91151637D01*
X106940601Y-91104747D01*
X106932244Y-91057500D01*
X106905843Y-90930318D01*
X106865612Y-90801990D01*
X106811251Y-90671625D01*
X106781963Y-90611794D01*
X106759545Y-90570062D01*
X106740605Y-90540477D01*
X106723326Y-90521217D01*
X106705889Y-90510460D01*
X106686475Y-90506382D01*
X106676643Y-90506239D01*
X106656862Y-90510002D01*
X106637880Y-90521073D01*
X106618497Y-90540875D01*
X106597513Y-90570833D01*
X106573729Y-90612371D01*
X106552644Y-90653357D01*
X106492393Y-90783851D01*
X106443453Y-90910467D01*
X106412489Y-91009394D01*
X106402091Y-91045413D01*
X106391899Y-91078161D01*
X106383165Y-91103757D01*
X106377689Y-91117264D01*
X106356721Y-91149442D01*
X106331141Y-91173081D01*
X106304316Y-91185081D01*
X106303933Y-91185154D01*
X106287479Y-91186343D01*
X106269987Y-91183156D01*
X106250159Y-91174670D01*
X106226696Y-91159964D01*
X106198302Y-91138116D01*
X106163679Y-91108204D01*
X106121528Y-91069307D01*
X106070551Y-91020503D01*
X106066311Y-91016393D01*
X105974527Y-90929174D01*
X105888549Y-90851128D01*
X105809214Y-90782977D01*
X105737356Y-90725444D01*
X105684736Y-90686791D01*
X105647247Y-90661536D01*
X105598587Y-90630229D01*
X105540682Y-90594005D01*
X105475459Y-90553998D01*
X105404844Y-90511344D01*
X105330764Y-90467178D01*
X105255146Y-90422636D01*
X105179916Y-90378853D01*
X105107002Y-90336964D01*
X105038330Y-90298105D01*
X104975826Y-90263410D01*
X104921418Y-90234015D01*
X104879110Y-90212097D01*
X104774254Y-90161230D01*
X104665637Y-90112155D01*
X104552130Y-90064486D01*
X104432603Y-90017838D01*
X104305928Y-89971825D01*
X104170974Y-89926060D01*
X104026613Y-89880159D01*
X103871715Y-89833735D01*
X103705151Y-89786403D01*
X103525790Y-89737777D01*
X103375748Y-89698564D01*
X103266200Y-89670483D01*
X103169181Y-89645946D01*
X103082813Y-89624548D01*
X103005216Y-89605883D01*
X102934509Y-89589544D01*
X102868814Y-89575126D01*
X102806251Y-89562222D01*
X102744941Y-89550428D01*
X102683003Y-89539336D01*
X102618558Y-89528541D01*
X102549728Y-89517637D01*
X102509736Y-89511509D01*
X102383657Y-89493121D01*
X102253384Y-89475525D01*
X102120695Y-89458892D01*
X101987371Y-89443390D01*
X101855190Y-89429191D01*
X101725930Y-89416463D01*
X101601372Y-89405378D01*
X101483294Y-89396105D01*
X101373474Y-89388814D01*
X101273692Y-89383675D01*
X101185728Y-89380858D01*
X101137315Y-89380353D01*
X101088941Y-89381139D01*
G37*
X101088941Y-89381139D02*
X101051179Y-89384607D01*
X101022578Y-89392422D01*
X101001687Y-89406248D01*
X100987055Y-89427750D01*
X100977231Y-89458592D01*
X100970763Y-89500439D01*
X100966201Y-89554955D01*
X100964727Y-89578323D01*
X100962941Y-89617607D01*
X100961450Y-89670213D01*
X100960251Y-89734522D01*
X100959341Y-89808919D01*
X100958718Y-89891787D01*
X100958378Y-89981507D01*
X100958318Y-90076464D01*
X100958537Y-90175041D01*
X100959031Y-90275620D01*
X100959798Y-90376584D01*
X100960834Y-90476317D01*
X100962136Y-90573201D01*
X100963703Y-90665620D01*
X100965531Y-90751957D01*
X100966843Y-90803500D01*
X100971994Y-90967425D01*
X100978101Y-91117460D01*
X100985222Y-91254627D01*
X100993418Y-91379949D01*
X101002747Y-91494451D01*
X101012031Y-91587911D01*
X101017262Y-91636662D01*
X101023490Y-91695735D01*
X101030241Y-91760584D01*
X101037045Y-91826662D01*
X101043427Y-91889424D01*
X101045037Y-91905411D01*
X101065644Y-92087357D01*
X101090994Y-92271679D01*
X101120599Y-92455859D01*
X101153970Y-92637377D01*
X101190620Y-92813712D01*
X101230059Y-92982346D01*
X101271800Y-93140758D01*
X101308589Y-93265059D01*
X101322159Y-93308742D01*
X101338496Y-93361890D01*
X101356114Y-93419640D01*
X101373531Y-93477134D01*
X101386137Y-93519059D01*
X101402505Y-93572591D01*
X101420586Y-93629835D01*
X101438839Y-93686033D01*
X101455723Y-93736430D01*
X101467191Y-93769323D01*
X101479582Y-93804249D01*
X101495760Y-93850316D01*
X101514682Y-93904526D01*
X101535304Y-93963880D01*
X101556582Y-94025381D01*
X101577472Y-94086031D01*
X101579211Y-94091093D01*
X101653901Y-94295454D01*
X101733927Y-94488266D01*
X101820706Y-94672400D01*
X101915654Y-94850725D01*
X102020187Y-95026110D01*
X102105269Y-95156763D01*
X102144208Y-95215367D01*
X102174656Y-95263432D01*
X102197159Y-95302316D01*
X102212265Y-95333373D01*
X102220523Y-95357963D01*
X102222481Y-95377440D01*
X102218686Y-95393163D01*
X102209686Y-95406488D01*
X102207177Y-95409117D01*
X102191077Y-95420449D01*
X102172390Y-95423249D01*
X102149292Y-95416957D01*
X102119964Y-95401017D01*
X102082582Y-95374871D01*
X102073864Y-95368280D01*
X102030779Y-95340395D01*
X101991198Y-95324719D01*
X101956246Y-95321399D01*
X101927046Y-95330579D01*
X101908677Y-95346903D01*
X101898102Y-95363122D01*
X101893153Y-95379608D01*
X101894485Y-95398326D01*
X101902751Y-95421243D01*
X101918608Y-95450326D01*
X101942708Y-95487540D01*
X101967277Y-95522948D01*
X102004662Y-95577727D01*
X102036477Y-95628894D01*
X102063846Y-95679087D01*
X102087893Y-95730946D01*
X102109743Y-95787108D01*
X102130520Y-95850212D01*
X102151347Y-95922894D01*
X102172598Y-96004788D01*
X102187378Y-96065101D01*
X102200088Y-96120385D01*
X102210986Y-96172660D01*
X102220330Y-96223944D01*
X102228379Y-96276257D01*
X102235392Y-96331617D01*
X102241628Y-96392042D01*
X102247345Y-96459552D01*
X102252802Y-96536166D01*
X102258257Y-96623901D01*
X102263307Y-96712735D01*
X102272401Y-96866644D01*
X102282798Y-97023192D01*
X102294289Y-97179869D01*
X102306665Y-97334168D01*
X102319714Y-97483578D01*
X102333226Y-97625592D01*
X102346993Y-97757699D01*
X102360803Y-97877393D01*
X102360895Y-97878147D01*
X102366976Y-97924439D01*
X102375341Y-97983061D01*
X102385601Y-98051642D01*
X102397369Y-98127809D01*
X102410255Y-98209193D01*
X102423872Y-98293422D01*
X102437831Y-98378126D01*
X102451744Y-98460933D01*
X102465223Y-98539472D01*
X102477878Y-98611373D01*
X102489322Y-98674264D01*
X102499166Y-98725775D01*
X102502228Y-98741000D01*
X102508849Y-98774767D01*
X102517289Y-98819994D01*
X102526957Y-98873392D01*
X102537264Y-98931676D01*
X102547620Y-98991557D01*
X102554764Y-99033753D01*
X102567013Y-99106392D01*
X102577391Y-99166684D01*
X102586389Y-99217037D01*
X102594497Y-99259859D01*
X102602203Y-99297556D01*
X102609997Y-99332536D01*
X102618369Y-99367206D01*
X102627807Y-99403974D01*
X102637257Y-99439500D01*
X102676223Y-99577306D01*
X102717480Y-99709674D01*
X102759902Y-99833110D01*
X102790294Y-99913882D01*
X102839127Y-100038168D01*
X102884394Y-100152882D01*
X102925890Y-100257520D01*
X102963413Y-100351579D01*
X102996759Y-100434554D01*
X103025725Y-100505941D01*
X103050109Y-100565236D01*
X103069705Y-100611934D01*
X103084313Y-100645532D01*
X103091438Y-100660941D01*
X103121144Y-100711950D01*
X103161723Y-100764405D01*
X103213804Y-100818895D01*
X103278018Y-100876010D01*
X103354992Y-100936338D01*
X103445358Y-101000468D01*
X103477177Y-101021870D01*
X103542286Y-101063843D01*
X103596723Y-101096054D01*
X103640931Y-101118722D01*
X103675356Y-101132065D01*
X103700443Y-101136304D01*
X103707909Y-101135511D01*
X103725802Y-101129623D01*
X103738362Y-101120037D01*
X103745508Y-101105347D01*
X103747160Y-101084142D01*
X103743238Y-101055016D01*
X103733660Y-101016559D01*
X103718347Y-100967363D01*
X103697217Y-100906020D01*
X103694300Y-100897814D01*
X103621219Y-100680053D01*
X103554389Y-100454272D01*
X103493640Y-100219635D01*
X103438801Y-99975305D01*
X103389701Y-99720447D01*
X103346169Y-99454224D01*
X103308035Y-99175800D01*
X103275126Y-98884340D01*
X103267950Y-98811970D01*
X103261692Y-98747690D01*
X103256215Y-98695875D01*
X103250797Y-98654124D01*
X103244716Y-98620035D01*
X103237252Y-98591208D01*
X103227682Y-98565241D01*
X103215286Y-98539735D01*
X103199341Y-98512288D01*
X103179127Y-98480499D01*
X103159169Y-98449982D01*
X103132914Y-98407532D01*
X103106030Y-98359898D01*
X103080132Y-98310343D01*
X103056832Y-98262129D01*
X103037746Y-98218518D01*
X103024485Y-98182772D01*
X103020970Y-98170607D01*
X103016125Y-98147878D01*
X103016524Y-98133178D01*
X103022812Y-98120322D01*
X103026782Y-98114765D01*
X103047135Y-98096821D01*
X103070312Y-98093458D01*
X103095737Y-98104713D01*
X103102924Y-98110272D01*
X103116088Y-98123475D01*
X103135772Y-98145872D01*
X103159605Y-98174649D01*
X103185215Y-98206993D01*
X103193006Y-98217124D01*
X103225472Y-98257560D01*
X103264045Y-98302410D01*
X103303760Y-98346053D01*
X103337747Y-98381003D01*
X103368269Y-98410835D01*
X103390433Y-98431702D01*
X103406514Y-98445137D01*
X103418786Y-98452673D01*
X103429523Y-98455843D01*
X103440998Y-98456182D01*
X103448546Y-98455709D01*
X103469372Y-98453045D01*
X103480607Y-98446499D01*
X103487604Y-98432333D01*
X103489295Y-98427235D01*
X103493514Y-98402321D01*
X103493900Y-98365111D01*
X103491525Y-98326382D01*
X103488065Y-98269473D01*
X103486003Y-98202975D01*
X103485330Y-98131643D01*
X103486039Y-98060232D01*
X103488121Y-97993495D01*
X103491569Y-97936188D01*
X103492188Y-97928877D01*
X103496351Y-97894349D01*
X103503613Y-97847696D01*
X103513483Y-97791293D01*
X103525471Y-97727519D01*
X103539085Y-97658751D01*
X103553835Y-97587367D01*
X103569231Y-97515744D01*
X103584780Y-97446260D01*
X103599993Y-97381291D01*
X103614379Y-97323216D01*
X103626897Y-97276364D01*
X103646156Y-97209713D01*
X103665173Y-97148468D01*
X103684966Y-97090005D01*
X103706551Y-97031700D01*
X103730945Y-96970929D01*
X103759166Y-96905069D01*
X103792230Y-96831496D01*
X103831155Y-96747585D01*
X103835241Y-96738882D01*
X103882658Y-96640410D01*
X103929374Y-96548802D01*
X103976861Y-96461653D01*
X104026594Y-96376560D01*
X104080047Y-96291119D01*
X104138693Y-96202926D01*
X104204008Y-96109577D01*
X104277465Y-96008669D01*
X104309190Y-95966009D01*
X104338140Y-95926482D01*
X104365161Y-95888113D01*
X104388461Y-95853561D01*
X104406247Y-95825483D01*
X104416729Y-95806539D01*
X104416820Y-95806340D01*
X104426794Y-95779341D01*
X104431430Y-95751384D01*
X104430572Y-95719520D01*
X104424063Y-95680800D01*
X104411747Y-95632276D01*
X104406660Y-95614559D01*
X104393194Y-95562406D01*
X104386978Y-95521617D01*
X104387977Y-95490510D01*
X104396156Y-95467403D01*
X104403407Y-95457807D01*
X104426247Y-95441269D01*
X104450208Y-95439250D01*
X104475445Y-95451828D01*
X104502113Y-95479083D01*
X104530366Y-95521092D01*
X104531815Y-95523569D01*
X104572621Y-95593228D01*
X104607746Y-95651881D01*
X104638684Y-95701629D01*
X104666930Y-95744571D01*
X104693976Y-95782807D01*
X104721318Y-95818438D01*
X104750449Y-95853563D01*
X104782864Y-95890283D01*
X104820055Y-95930698D01*
X104825902Y-95936956D01*
X104932764Y-96042371D01*
X105046239Y-96137658D01*
X105164660Y-96221647D01*
X105286362Y-96293170D01*
X105409678Y-96351055D01*
X105423716Y-96356717D01*
X105469787Y-96373784D01*
X105526277Y-96392850D01*
X105589024Y-96412659D01*
X105653865Y-96431956D01*
X105716635Y-96449489D01*
X105773173Y-96464002D01*
X105801621Y-96470575D01*
X105854293Y-96481071D01*
X105916948Y-96491918D01*
X105986916Y-96502788D01*
X106061527Y-96513354D01*
X106138110Y-96523287D01*
X106213994Y-96532262D01*
X106286509Y-96539949D01*
X106352984Y-96546023D01*
X106410750Y-96550154D01*
X106457134Y-96552017D01*
X106466373Y-96552089D01*
X106510993Y-96547429D01*
X106544470Y-96533275D01*
X106567476Y-96509278D01*
X106574185Y-96496164D01*
X106578383Y-96477643D01*
X106581483Y-96446177D01*
X106583529Y-96403719D01*
X106584567Y-96352224D01*
X106584643Y-96293642D01*
X106583802Y-96229929D01*
X106582089Y-96163035D01*
X106579550Y-96094916D01*
X106576230Y-96027522D01*
X106572175Y-95962808D01*
X106567429Y-95902726D01*
X106562039Y-95849230D01*
X106558486Y-95820901D01*
X106548203Y-95752691D01*
X106534831Y-95674319D01*
X106519143Y-95590056D01*
X106501915Y-95504173D01*
X106495666Y-95474529D01*
X106488646Y-95440192D01*
X106484969Y-95416615D01*
X106484456Y-95400040D01*
X106486927Y-95386707D01*
X106490948Y-95375809D01*
X106506296Y-95352774D01*
X106526371Y-95342980D01*
X106549509Y-95346167D01*
X106574041Y-95362073D01*
X106598302Y-95390437D01*
X106599970Y-95392916D01*
X106625308Y-95438073D01*
X106648654Y-95494324D01*
X106670218Y-95562428D01*
X106690213Y-95643143D01*
X106708850Y-95737229D01*
X106726338Y-95845445D01*
X106726864Y-95849027D01*
X106736630Y-95912288D01*
X106745906Y-95963102D01*
X106755489Y-96003909D01*
X106766176Y-96037149D01*
X106778764Y-96065259D01*
X106794048Y-96090680D01*
X106812826Y-96115851D01*
X106814806Y-96118301D01*
X106827188Y-96133283D01*
X106841036Y-96149475D01*
X106857227Y-96167812D01*
X106876639Y-96189229D01*
X106900150Y-96214659D01*
X106928637Y-96245039D01*
X106962976Y-96281301D01*
X107004046Y-96324382D01*
X107052723Y-96375216D01*
X107109886Y-96434737D01*
X107176410Y-96503880D01*
X107189657Y-96517637D01*
X107334695Y-96665476D01*
X107473794Y-96801477D01*
X107608267Y-96926865D01*
X107739433Y-97042865D01*
X107868607Y-97150699D01*
X107882949Y-97162274D01*
X107930243Y-97199042D01*
X107988016Y-97241885D01*
X108053928Y-97289206D01*
X108125639Y-97339405D01*
X108200809Y-97390884D01*
X108277097Y-97442044D01*
X108352163Y-97491286D01*
X108423667Y-97537011D01*
X108489269Y-97577622D01*
X108503530Y-97586223D01*
X108542728Y-97608865D01*
X108587018Y-97633024D01*
X108633969Y-97657515D01*
X108681149Y-97681156D01*
X108726127Y-97702765D01*
X108766470Y-97721159D01*
X108799746Y-97735156D01*
X108823523Y-97743572D01*
X108830536Y-97745234D01*
X108864680Y-97744160D01*
X108893063Y-97729859D01*
X108913373Y-97703766D01*
X108916384Y-97696833D01*
X108918936Y-97688281D01*
X108921075Y-97676848D01*
X108922850Y-97661269D01*
X108924308Y-97640283D01*
X108925498Y-97612624D01*
X108926468Y-97577031D01*
X108927264Y-97532238D01*
X108927936Y-97476984D01*
X108928530Y-97410005D01*
X108929096Y-97330037D01*
X108929409Y-97280500D01*
X108929908Y-97183632D01*
X108930095Y-97099399D01*
X108929924Y-97025501D01*
X108929349Y-96959632D01*
X108928325Y-96899492D01*
X108926804Y-96842777D01*
X108924741Y-96787183D01*
X108922091Y-96730410D01*
X108918808Y-96670153D01*
X108916445Y-96630222D01*
X108912305Y-96564964D01*
X108907841Y-96500027D01*
X108903258Y-96438063D01*
X108898765Y-96381726D01*
X108894570Y-96333668D01*
X108890879Y-96296542D01*
X108889279Y-96282839D01*
X108879385Y-96213920D01*
X108866546Y-96138651D01*
X108851600Y-96061125D01*
X108835389Y-95985433D01*
X108818751Y-95915664D01*
X108802529Y-95855912D01*
X108799599Y-95846147D01*
X108788201Y-95808331D01*
X108774089Y-95760706D01*
X108758605Y-95707845D01*
X108743089Y-95654319D01*
X108732754Y-95618294D01*
X108702529Y-95516972D01*
X108672716Y-95427205D01*
X108641972Y-95345711D01*
X108608956Y-95269205D01*
X108572325Y-95194406D01*
X108530736Y-95118030D01*
X108522021Y-95102823D01*
X108501626Y-95067135D01*
X108476815Y-95023173D01*
X108450311Y-94975787D01*
X108424834Y-94929831D01*
X108417255Y-94916059D01*
X108372217Y-94835179D01*
X108331256Y-94764459D01*
X108292232Y-94700695D01*
X108253006Y-94640681D01*
X108211439Y-94581210D01*
X108165390Y-94519077D01*
X108112721Y-94451077D01*
X108076267Y-94405145D01*
X108015512Y-94329777D01*
X107961222Y-94263965D01*
X107911155Y-94205126D01*
X107863071Y-94150674D01*
X107814727Y-94098025D01*
X107763883Y-94044593D01*
X107761375Y-94042000D01*
X107717707Y-93996598D01*
X107683547Y-93960317D01*
X107657784Y-93931764D01*
X107639309Y-93909546D01*
X107627013Y-93892271D01*
X107619787Y-93878545D01*
X107616521Y-93866977D01*
X107615997Y-93859493D01*
X107618911Y-93835364D01*
X107629613Y-93820448D01*
X107648659Y-93810731D01*
X107663459Y-93807091D01*
X107679275Y-93808911D01*
X107701208Y-93817065D01*
X107710779Y-93821350D01*
X107746950Y-93841383D01*
X107789394Y-93870537D01*
X107834979Y-93906328D01*
X107880568Y-93946270D01*
X107923026Y-93987879D01*
X107929463Y-93994678D01*
X107958637Y-94026625D01*
X107994790Y-94067446D01*
X108036545Y-94115487D01*
X108082524Y-94169096D01*
X108131349Y-94226622D01*
X108181643Y-94286410D01*
X108232029Y-94346810D01*
X108281130Y-94406168D01*
X108327568Y-94462832D01*
X108369965Y-94515150D01*
X108406945Y-94561469D01*
X108437129Y-94600137D01*
X108459141Y-94629501D01*
X108462276Y-94633878D01*
X108503517Y-94694782D01*
X108548513Y-94766010D01*
X108595245Y-94844106D01*
X108641696Y-94925613D01*
X108685845Y-95007075D01*
X108725237Y-95084147D01*
X108750655Y-95136968D01*
X108779133Y-95198370D01*
X108809434Y-95265498D01*
X108840323Y-95335496D01*
X108870561Y-95405510D01*
X108898913Y-95472685D01*
X108924140Y-95534164D01*
X108945008Y-95587095D01*
X108956633Y-95618294D01*
X108973903Y-95669872D01*
X108993114Y-95733308D01*
X109013556Y-95805754D01*
X109034518Y-95884364D01*
X109055288Y-95966292D01*
X109075156Y-96048690D01*
X109093410Y-96128714D01*
X109109341Y-96203514D01*
X109122237Y-96270246D01*
X109128279Y-96305588D01*
X109132874Y-96337948D01*
X109138112Y-96380752D01*
X109143492Y-96429546D01*
X109148512Y-96479876D01*
X109150999Y-96507294D01*
X109155163Y-96554125D01*
X109159436Y-96593040D01*
X109164892Y-96625934D01*
X109172608Y-96654699D01*
X109183658Y-96681229D01*
X109199119Y-96707418D01*
X109220067Y-96735160D01*
X109247576Y-96766347D01*
X109282722Y-96802875D01*
X109326581Y-96846635D01*
X109365610Y-96885114D01*
X109471874Y-96987664D01*
X109582496Y-97090445D01*
X109693105Y-97189474D01*
X109799327Y-97280765D01*
X109804765Y-97285323D01*
X109836585Y-97311411D01*
X109876343Y-97343161D01*
X109921746Y-97378817D01*
X109970498Y-97416625D01*
X110020307Y-97454830D01*
X110068877Y-97491678D01*
X110113915Y-97525415D01*
X110153126Y-97554285D01*
X110184216Y-97576534D01*
X110196941Y-97585259D01*
X110230003Y-97607683D01*
X110270053Y-97635354D01*
X110311999Y-97664729D01*
X110350118Y-97691815D01*
X110389887Y-97719552D01*
X110437011Y-97751200D01*
X110485959Y-97783107D01*
X110531198Y-97811623D01*
X110536883Y-97815113D01*
X110581976Y-97841531D01*
X110637740Y-97872324D01*
X110702269Y-97906575D01*
X110773657Y-97943367D01*
X110849999Y-97981785D01*
X110929390Y-98020911D01*
X111009924Y-98059829D01*
X111089696Y-98097624D01*
X111166799Y-98133378D01*
X111239329Y-98166176D01*
X111305380Y-98195101D01*
X111363047Y-98219237D01*
X111410424Y-98237667D01*
X111429791Y-98244501D01*
X111471830Y-98256183D01*
X111504332Y-98259165D01*
X111529951Y-98253379D01*
X111548311Y-98241506D01*
X111558017Y-98232020D01*
X111565722Y-98221113D01*
X111571652Y-98207043D01*
X111576034Y-98188064D01*
X111579097Y-98162432D01*
X111581066Y-98128400D01*
X111582170Y-98084225D01*
X111582635Y-98028162D01*
X111582701Y-97977372D01*
X111581631Y-97863369D01*
X111578224Y-97760105D01*
X111572078Y-97663501D01*
X111562787Y-97569480D01*
X111549947Y-97473965D01*
X111533152Y-97372877D01*
X111511997Y-97262140D01*
X111511423Y-97259280D01*
X111466024Y-97060860D01*
X111411152Y-96871516D01*
X111345652Y-96687915D01*
X111268372Y-96506723D01*
X111207727Y-96381660D01*
X111187295Y-96340774D01*
X111169451Y-96303791D01*
X111155252Y-96273006D01*
X111145756Y-96250716D01*
X111142019Y-96239216D01*
X111142000Y-96238858D01*
X111147346Y-96221125D01*
X111160336Y-96202971D01*
X111176398Y-96189672D01*
X111187737Y-96186059D01*
X111215877Y-96193124D01*
X111247059Y-96213606D01*
X111280678Y-96246430D01*
X111316129Y-96290523D01*
X111352809Y-96344810D01*
X111390113Y-96408219D01*
X111427437Y-96479675D01*
X111464177Y-96558104D01*
X111499728Y-96642434D01*
X111533487Y-96731591D01*
X111564848Y-96824500D01*
X111585537Y-96892881D01*
X111635423Y-97079396D01*
X111678267Y-97267122D01*
X111713562Y-97453228D01*
X111740802Y-97634884D01*
X111759481Y-97809260D01*
X111765895Y-97900559D01*
X111767419Y-97957781D01*
X111766257Y-98021553D01*
X111762710Y-98088728D01*
X111757082Y-98156164D01*
X111749674Y-98220713D01*
X111740789Y-98279231D01*
X111730729Y-98328573D01*
X111721715Y-98360270D01*
X111705986Y-98396851D01*
X111685340Y-98425551D01*
X111656477Y-98449942D01*
X111617841Y-98472688D01*
X111583267Y-98492560D01*
X111561113Y-98510669D01*
X111549507Y-98529604D01*
X111546576Y-98551951D01*
X111548303Y-98568723D01*
X111554181Y-98588670D01*
X111566231Y-98618216D01*
X111582829Y-98654213D01*
X111602348Y-98693515D01*
X111623164Y-98732977D01*
X111643651Y-98769451D01*
X111662184Y-98799791D01*
X111677136Y-98820851D01*
X111680594Y-98824798D01*
X111699117Y-98842223D01*
X111715328Y-98850609D01*
X111735673Y-98853022D01*
X111739992Y-98853059D01*
X111757362Y-98852118D01*
X111771302Y-98847769D01*
X111785758Y-98837721D01*
X111804676Y-98819685D01*
X111814007Y-98810103D01*
X111833265Y-98787630D01*
X111858489Y-98754401D01*
X111888233Y-98712632D01*
X111921052Y-98664539D01*
X111955499Y-98612337D01*
X111990127Y-98558242D01*
X112023490Y-98504471D01*
X112054142Y-98453240D01*
X112080636Y-98406765D01*
X112096199Y-98377738D01*
X112167324Y-98229903D01*
X112226508Y-98083644D01*
X112275461Y-97934476D01*
X112300270Y-97843165D01*
X112310447Y-97805588D01*
X112321031Y-97771160D01*
X112330774Y-97743676D01*
X112338431Y-97726930D01*
X112338477Y-97726855D01*
X112356611Y-97706941D01*
X112378307Y-97696709D01*
X112399258Y-97697918D01*
X112403818Y-97700180D01*
X112419673Y-97716918D01*
X112432580Y-97743446D01*
X112440444Y-97774634D01*
X112441871Y-97793360D01*
X112439353Y-97832666D01*
X112432246Y-97883078D01*
X112421256Y-97941730D01*
X112407087Y-98005755D01*
X112390444Y-98072289D01*
X112372031Y-98138464D01*
X112352554Y-98201414D01*
X112332718Y-98258274D01*
X112319068Y-98292746D01*
X112297113Y-98340912D01*
X112268397Y-98397991D01*
X112234744Y-98460668D01*
X112197974Y-98525626D01*
X112159911Y-98589548D01*
X112128187Y-98640147D01*
X112106448Y-98674824D01*
X112087123Y-98707367D01*
X112072014Y-98734620D01*
X112062920Y-98753430D01*
X112061751Y-98756586D01*
X112058971Y-98772089D01*
X112056834Y-98799827D01*
X112055323Y-98840361D01*
X112054423Y-98894257D01*
X112054117Y-98962076D01*
X112054285Y-99025527D01*
X112053829Y-99142090D01*
X112050979Y-99249265D01*
X112045361Y-99349942D01*
X112036606Y-99447009D01*
X112024340Y-99543357D01*
X112008193Y-99641874D01*
X111987792Y-99745450D01*
X111962766Y-99856973D01*
X111932744Y-99979334D01*
X111930392Y-99988588D01*
X111882826Y-100172493D01*
X111837203Y-100342804D01*
X111793184Y-100500692D01*
X111750428Y-100647330D01*
X111708595Y-100783889D01*
X111667344Y-100911539D01*
X111631827Y-101015794D01*
X111615040Y-101066302D01*
X111604266Y-101105385D01*
X111599219Y-101135165D01*
X111599613Y-101157764D01*
X111605159Y-101175303D01*
X111609336Y-101182220D01*
X111620464Y-101193041D01*
X111637157Y-101197935D01*
X111656427Y-101198823D01*
X111674443Y-101197643D01*
X111692419Y-101193194D01*
X111713754Y-101184115D01*
X111741846Y-101169047D01*
X111766286Y-101154837D01*
X111829563Y-101115531D01*
X111888908Y-101074356D01*
X111947726Y-101028696D01*
X112009421Y-100975934D01*
X112064626Y-100925457D01*
X112122857Y-100869711D01*
X112170820Y-100820595D01*
X112210207Y-100775788D01*
X112242716Y-100732971D01*
X112270040Y-100689824D01*
X112293874Y-100644027D01*
X112315914Y-100593260D01*
X112325734Y-100568082D01*
X112363458Y-100462244D01*
X112401607Y-100342817D01*
X112439868Y-100211132D01*
X112477928Y-100068524D01*
X112515477Y-99916325D01*
X112552201Y-99755869D01*
X112587787Y-99588487D01*
X112621925Y-99415514D01*
X112654300Y-99238283D01*
X112684602Y-99058126D01*
X112695183Y-98991264D01*
X112705555Y-98924193D01*
X112713912Y-98868864D01*
X112720626Y-98822268D01*
X112726065Y-98781398D01*
X112730600Y-98743244D01*
X112734602Y-98704801D01*
X112738439Y-98663058D01*
X112742483Y-98615008D01*
X112744439Y-98590887D01*
X112763614Y-98373389D01*
X112785255Y-98167894D01*
X112809770Y-97971606D01*
X112837565Y-97781731D01*
X112869051Y-97595473D01*
X112904635Y-97410035D01*
X112943210Y-97229385D01*
X112976046Y-97089182D01*
X113009057Y-96962232D01*
X113042875Y-96846851D01*
X113078134Y-96741359D01*
X113115470Y-96644073D01*
X113155515Y-96553311D01*
X113198904Y-96467392D01*
X113246272Y-96384634D01*
X113284539Y-96324009D01*
X113306306Y-96292273D01*
X113335415Y-96251974D01*
X113369663Y-96206045D01*
X113406848Y-96157417D01*
X113444765Y-96109023D01*
X113465886Y-96082637D01*
X113500365Y-96039937D01*
X113533028Y-95999475D01*
X113562303Y-95963203D01*
X113586613Y-95933071D01*
X113604384Y-95911033D01*
X113612897Y-95900462D01*
X113631291Y-95871476D01*
X113637176Y-95844856D01*
X113637177Y-95844642D01*
X113636038Y-95825360D01*
X113631459Y-95809533D01*
X113621694Y-95795899D01*
X113604997Y-95783196D01*
X113579621Y-95770159D01*
X113543823Y-95755528D01*
X113495855Y-95738038D01*
X113484030Y-95733869D01*
X113427338Y-95711911D01*
X113361933Y-95683174D01*
X113291342Y-95649448D01*
X113219091Y-95612523D01*
X113148707Y-95574188D01*
X113083716Y-95536235D01*
X113038656Y-95507798D01*
X113002077Y-95484265D01*
X112967695Y-95463153D01*
X112938356Y-95446134D01*
X112916907Y-95434885D01*
X112909302Y-95431697D01*
X112881681Y-95426170D01*
X112853840Y-95428992D01*
X112822732Y-95441018D01*
X112785313Y-95463107D01*
X112776305Y-95469147D01*
X112740057Y-95491638D01*
X112712267Y-95503419D01*
X112691306Y-95504805D01*
X112675546Y-95496110D01*
X112670159Y-95489632D01*
X112664197Y-95480402D01*
X112660456Y-95471350D01*
X112659619Y-95461115D01*
X112662368Y-95448334D01*
X112669386Y-95431645D01*
X112681356Y-95409688D01*
X112698959Y-95381100D01*
X112722879Y-95344519D01*
X112753797Y-95298583D01*
X112792398Y-95241931D01*
X112799576Y-95231425D01*
X112889708Y-95095876D01*
X112970076Y-94966859D01*
X113042335Y-94841270D01*
X113108136Y-94716004D01*
X113169132Y-94587954D01*
X113226977Y-94454015D01*
X113267665Y-94352029D01*
X113283301Y-94310494D01*
X113302705Y-94257181D01*
X113325040Y-94194525D01*
X113349469Y-94124963D01*
X113375155Y-94050930D01*
X113401263Y-93974863D01*
X113426955Y-93899198D01*
X113451396Y-93826369D01*
X113473749Y-93758814D01*
X113493176Y-93698969D01*
X113507526Y-93653529D01*
X113546143Y-93528453D01*
X113580507Y-93416018D01*
X113610995Y-93314656D01*
X113637980Y-93222800D01*
X113661839Y-93138885D01*
X113682945Y-93061344D01*
X113687025Y-93045496D01*
X112622802Y-93045496D01*
X112617295Y-93142931D01*
X112605065Y-93248119D01*
X112586171Y-93359694D01*
X112571599Y-93429411D01*
X112553521Y-93503721D01*
X112533429Y-93572150D01*
X112509825Y-93638784D01*
X112481206Y-93707706D01*
X112446072Y-93783000D01*
X112428903Y-93817723D01*
X112355971Y-93963241D01*
X112356265Y-94019429D01*
X112357463Y-94049459D01*
X112361430Y-94077096D01*
X112369238Y-94107339D01*
X112381959Y-94145183D01*
X112385171Y-94154059D01*
X112413421Y-94232158D01*
X112436488Y-94297654D01*
X112454678Y-94351840D01*
X112468295Y-94396009D01*
X112477646Y-94431455D01*
X112483034Y-94459472D01*
X112484766Y-94481353D01*
X112483146Y-94498390D01*
X112478480Y-94511878D01*
X112471981Y-94521985D01*
X112451361Y-94538813D01*
X112428082Y-94540984D01*
X112405992Y-94530759D01*
X112398784Y-94524110D01*
X112390209Y-94512922D01*
X112379872Y-94496349D01*
X112367380Y-94473549D01*
X112352339Y-94443675D01*
X112334355Y-94405885D01*
X112313035Y-94359334D01*
X112287986Y-94303177D01*
X112258814Y-94236570D01*
X112225124Y-94158668D01*
X112186525Y-94068628D01*
X112143339Y-93967294D01*
X112124251Y-93922722D01*
X112106938Y-93883300D01*
X112090454Y-93847321D01*
X112073853Y-93813080D01*
X112056191Y-93778868D01*
X112036522Y-93742980D01*
X112013901Y-93703708D01*
X111987381Y-93659346D01*
X111956018Y-93608186D01*
X111918866Y-93548523D01*
X111874980Y-93478650D01*
X111855724Y-93448088D01*
X111818313Y-93391349D01*
X111773468Y-93327550D01*
X111723756Y-93260049D01*
X111671748Y-93192203D01*
X111620012Y-93127370D01*
X111571118Y-93068907D01*
X111531320Y-93024138D01*
X111507886Y-92999926D01*
X111475227Y-92967770D01*
X111435372Y-92929552D01*
X111390354Y-92887153D01*
X111342204Y-92842451D01*
X111292954Y-92797328D01*
X111244636Y-92753665D01*
X111199280Y-92713341D01*
X111158918Y-92678238D01*
X111143268Y-92664934D01*
X110996937Y-92546459D01*
X110837444Y-92426389D01*
X110666326Y-92305830D01*
X110485115Y-92185890D01*
X110436030Y-92154623D01*
X110389631Y-92125142D01*
X110340514Y-92093660D01*
X110292731Y-92062793D01*
X110250332Y-92035156D01*
X110223118Y-92017199D01*
X110180666Y-91989652D01*
X110131966Y-91959144D01*
X110083596Y-91929746D01*
X110048898Y-91909383D01*
X110002943Y-91882559D01*
X109968693Y-91861257D01*
X109944562Y-91844174D01*
X109928962Y-91830009D01*
X109920306Y-91817462D01*
X109917007Y-91805229D01*
X109916824Y-91801074D01*
X109922664Y-91778309D01*
X109939984Y-91764800D01*
X109968486Y-91760612D01*
X110007871Y-91765809D01*
X110040089Y-91774538D01*
X110058795Y-91781697D01*
X110088488Y-91794646D01*
X110126880Y-91812313D01*
X110171685Y-91833628D01*
X110220617Y-91857522D01*
X110268335Y-91881378D01*
X110333466Y-91914121D01*
X110387200Y-91940098D01*
X110431434Y-91959363D01*
X110468064Y-91971972D01*
X110498987Y-91977980D01*
X110526099Y-91977440D01*
X110551297Y-91970407D01*
X110576478Y-91956938D01*
X110603538Y-91937085D01*
X110634373Y-91910904D01*
X110655077Y-91892536D01*
X110701471Y-91851979D01*
X110742735Y-91818039D01*
X110782937Y-91787721D01*
X110826142Y-91758035D01*
X110876416Y-91725989D01*
X110906677Y-91707414D01*
X111013157Y-91646579D01*
X111131213Y-91586225D01*
X111221523Y-91544491D01*
X105926625Y-91544491D01*
X105919822Y-91562207D01*
X105919809Y-91562231D01*
X105912264Y-91572132D01*
X105899647Y-91581595D01*
X105880447Y-91591165D01*
X105853153Y-91601388D01*
X105816254Y-91612810D01*
X105768238Y-91625975D01*
X105707594Y-91641429D01*
X105684736Y-91647080D01*
X105615944Y-91664319D01*
X105544869Y-91682731D01*
X105473716Y-91701700D01*
X105404693Y-91720606D01*
X105340004Y-91738832D01*
X105281855Y-91755759D01*
X105232454Y-91770770D01*
X105194006Y-91783246D01*
X105176736Y-91789400D01*
X105140816Y-91803839D01*
X105094674Y-91823754D01*
X105041359Y-91847752D01*
X104983917Y-91874440D01*
X104925396Y-91902425D01*
X104873393Y-91928035D01*
X104805645Y-91963984D01*
X104728182Y-92008749D01*
X104642549Y-92061326D01*
X104550294Y-92120713D01*
X104452963Y-92185907D01*
X104352102Y-92255905D01*
X104249257Y-92329703D01*
X104213030Y-92356282D01*
X104131529Y-92419938D01*
X104044180Y-92494582D01*
X103952770Y-92578359D01*
X103859085Y-92669414D01*
X103764911Y-92765892D01*
X103672036Y-92865937D01*
X103582244Y-92967694D01*
X103497324Y-93069308D01*
X103419060Y-93168923D01*
X103380337Y-93221037D01*
X103330640Y-93291471D01*
X103275855Y-93372806D01*
X103217527Y-93462557D01*
X103157204Y-93558238D01*
X103096430Y-93657362D01*
X103036751Y-93757443D01*
X102979714Y-93855996D01*
X102927914Y-93948617D01*
X102904361Y-93990769D01*
X102881844Y-94029599D01*
X102861805Y-94062736D01*
X102845684Y-94087805D01*
X102834921Y-94102435D01*
X102833809Y-94103632D01*
X102809999Y-94120385D01*
X102786948Y-94122720D01*
X102765981Y-94110621D01*
X102760543Y-94104492D01*
X102751376Y-94090681D01*
X102746756Y-94076158D01*
X102746798Y-94057803D01*
X102751616Y-94032496D01*
X102761326Y-93997120D01*
X102764951Y-93984938D01*
X102778476Y-93929739D01*
X102784560Y-93880238D01*
X102783090Y-93838759D01*
X102773958Y-93807625D01*
X102773458Y-93806676D01*
X102764136Y-93792813D01*
X102747105Y-93770629D01*
X102724611Y-93742944D01*
X102698901Y-93712575D01*
X102693045Y-93705823D01*
X102612629Y-93605449D01*
X102538185Y-93496541D01*
X102472169Y-93383095D01*
X102417040Y-93269108D01*
X102401622Y-93231970D01*
X102378922Y-93168566D01*
X102355991Y-93092730D01*
X102333417Y-93006949D01*
X102311788Y-92913708D01*
X102291694Y-92815496D01*
X102273722Y-92714797D01*
X102263066Y-92646524D01*
X102245972Y-92519119D01*
X102232869Y-92397899D01*
X102223746Y-92283748D01*
X102218587Y-92177550D01*
X102217380Y-92080188D01*
X102220109Y-91992548D01*
X102226763Y-91915512D01*
X102237326Y-91849964D01*
X102251786Y-91796789D01*
X102270128Y-91756870D01*
X102277054Y-91746725D01*
X102304281Y-91716886D01*
X102333805Y-91697379D01*
X102367792Y-91687804D01*
X102408406Y-91687764D01*
X102457815Y-91696859D01*
X102493576Y-91706837D01*
X102549786Y-91725520D01*
X102615831Y-91749998D01*
X102688438Y-91778895D01*
X102764331Y-91810837D01*
X102840238Y-91844449D01*
X102912885Y-91878355D01*
X102973869Y-91908547D01*
X103016571Y-91930009D01*
X103055651Y-91948899D01*
X103088859Y-91964190D01*
X103113948Y-91974854D01*
X103128671Y-91979866D01*
X103130579Y-91980117D01*
X103155666Y-91977472D01*
X103174278Y-91968408D01*
X103187254Y-91951230D01*
X103195433Y-91924248D01*
X103199655Y-91885766D01*
X103200765Y-91838528D01*
X103201157Y-91801196D01*
X103202804Y-91774524D01*
X103206408Y-91754237D01*
X103212674Y-91736066D01*
X103220360Y-91719612D01*
X103247000Y-91680333D01*
X103281472Y-91653772D01*
X103323854Y-91639874D01*
X103337553Y-91638211D01*
X103369766Y-91638912D01*
X103415002Y-91645225D01*
X103473419Y-91657184D01*
X103545176Y-91674824D01*
X103630432Y-91698181D01*
X103704730Y-91719891D01*
X103825888Y-91758454D01*
X103941334Y-91800376D01*
X104056111Y-91847652D01*
X104175262Y-91902276D01*
X104216765Y-91922433D01*
X104263311Y-91945251D01*
X104298876Y-91962294D01*
X104325869Y-91974407D01*
X104346702Y-91982439D01*
X104363787Y-91987235D01*
X104379534Y-91989643D01*
X104396355Y-91990510D01*
X104411000Y-91990658D01*
X104438093Y-91989635D01*
X104464638Y-91985761D01*
X104492802Y-91978209D01*
X104524747Y-91966151D01*
X104562638Y-91948757D01*
X104608638Y-91925201D01*
X104664912Y-91894652D01*
X104671810Y-91890836D01*
X104830364Y-91809273D01*
X105000090Y-91733689D01*
X105178050Y-91665143D01*
X105361308Y-91604695D01*
X105546926Y-91553406D01*
X105707147Y-91517239D01*
X105764401Y-91506213D01*
X105809159Y-91498961D01*
X105843371Y-91495441D01*
X105868985Y-91495610D01*
X105887953Y-91499427D01*
X105902223Y-91506848D01*
X105909193Y-91512866D01*
X105923494Y-91529963D01*
X105926625Y-91544491D01*
X111221523Y-91544491D01*
X111257515Y-91527859D01*
X111388734Y-91472989D01*
X111521539Y-91423121D01*
X111576942Y-91404046D01*
X111659974Y-91377136D01*
X111738224Y-91353808D01*
X111814554Y-91333434D01*
X111891829Y-91315387D01*
X111972909Y-91299041D01*
X112060657Y-91283768D01*
X112157937Y-91268942D01*
X112254120Y-91255710D01*
X112318374Y-91247802D01*
X112370070Y-91243039D01*
X112411293Y-91241608D01*
X112444129Y-91243694D01*
X112470666Y-91249482D01*
X112492987Y-91259159D01*
X112513181Y-91272910D01*
X112520968Y-91279450D01*
X112539417Y-91298047D01*
X112554635Y-91319413D01*
X112566817Y-91344933D01*
X112576160Y-91375992D01*
X112582860Y-91413975D01*
X112587111Y-91460266D01*
X112589112Y-91516251D01*
X112589056Y-91583315D01*
X112587140Y-91662843D01*
X112584668Y-91729853D01*
X112579001Y-91849285D01*
X112572161Y-91955786D01*
X112563895Y-92051339D01*
X112553953Y-92137926D01*
X112542080Y-92217530D01*
X112528027Y-92292131D01*
X112511540Y-92363713D01*
X112497274Y-92417147D01*
X112486061Y-92456949D01*
X112475330Y-92495138D01*
X112466244Y-92527577D01*
X112459961Y-92550126D01*
X112459595Y-92551452D01*
X112453085Y-92581011D01*
X112452642Y-92605680D01*
X112459511Y-92628514D01*
X112474934Y-92652569D01*
X112500158Y-92680900D01*
X112520616Y-92701322D01*
X112548099Y-92728661D01*
X112567002Y-92749524D01*
X112579801Y-92767482D01*
X112588977Y-92786108D01*
X112597006Y-92808972D01*
X112598387Y-92813381D01*
X112613407Y-92879355D01*
X112621526Y-92957182D01*
X112622802Y-93045496D01*
X113687025Y-93045496D01*
X113701674Y-92988610D01*
X113718401Y-92919116D01*
X113733500Y-92851297D01*
X113747347Y-92783584D01*
X113760317Y-92714413D01*
X113772784Y-92642215D01*
X113785124Y-92565425D01*
X113797711Y-92482476D01*
X113810920Y-92391801D01*
X113813029Y-92377086D01*
X113826381Y-92282607D01*
X113837971Y-92197757D01*
X113848150Y-92119439D01*
X113857267Y-92044559D01*
X113865674Y-91970022D01*
X113873719Y-91892732D01*
X113881753Y-91809593D01*
X113890126Y-91717511D01*
X113898490Y-91621529D01*
X113905709Y-91534162D01*
X113912027Y-91450058D01*
X113917468Y-91367854D01*
X113922058Y-91286186D01*
X113925821Y-91203690D01*
X113928783Y-91119004D01*
X113930968Y-91030765D01*
X113932402Y-90937607D01*
X113933110Y-90838169D01*
X113933116Y-90731087D01*
X113932446Y-90614998D01*
X113931125Y-90488537D01*
X113929178Y-90350342D01*
X113926629Y-90199050D01*
X113925617Y-90143690D01*
X113923439Y-90026697D01*
X113921485Y-89923703D01*
X113919693Y-89833772D01*
X113917997Y-89755964D01*
X113916335Y-89689341D01*
X113914642Y-89632965D01*
X113912855Y-89585899D01*
X113910909Y-89547202D01*
X113908741Y-89515938D01*
X113906287Y-89491168D01*
X113903482Y-89471953D01*
X113900264Y-89457356D01*
X113896568Y-89446438D01*
X113892331Y-89438261D01*
X113887488Y-89431887D01*
X113881976Y-89426376D01*
X113876458Y-89421441D01*
X113872147Y-89417993D01*
X113866774Y-89415123D01*
X113859030Y-89412779D01*
X113847603Y-89410911D01*
X113831186Y-89409468D01*
X113808467Y-89408397D01*
X113778137Y-89407650D01*
X113738887Y-89407173D01*
X113689406Y-89406917D01*
X113628385Y-89406831D01*
X113554515Y-89406862D01*
X113503765Y-89406916D01*
X113312421Y-89408219D01*
X113134194Y-89411746D01*
X112967410Y-89417622D01*
X112810394Y-89425973D01*
X112661468Y-89436923D01*
X112518960Y-89450598D01*
X112381192Y-89467123D01*
X112246490Y-89486623D01*
X112113178Y-89509224D01*
X112098733Y-89511866D01*
X111994438Y-89532341D01*
X111879721Y-89557113D01*
X111758175Y-89585303D01*
X111633394Y-89616032D01*
X111508973Y-89648421D01*
X111388505Y-89681593D01*
X111303079Y-89706406D01*
X111180945Y-89745296D01*
X111053976Y-89790743D01*
X110921466Y-89843085D01*
X110782710Y-89902661D01*
X110637000Y-89969808D01*
X110483631Y-90044865D01*
X110321896Y-90128170D01*
X110151090Y-90220062D01*
X109970506Y-90320880D01*
X109779438Y-90430961D01*
X109728110Y-90461050D01*
X109635536Y-90516015D01*
X109554494Y-90565298D01*
X109483227Y-90610046D01*
X109419977Y-90651405D01*
X109362985Y-90690522D01*
X109310495Y-90728542D01*
X109266890Y-90761801D01*
X109223789Y-90795799D01*
X109175929Y-90834143D01*
X109125039Y-90875397D01*
X109072847Y-90918122D01*
X109021080Y-90960881D01*
X108971469Y-91002237D01*
X108925742Y-91040752D01*
X108885626Y-91074988D01*
X108852851Y-91103508D01*
X108829145Y-91124873D01*
X108821126Y-91132531D01*
X108797093Y-91157483D01*
X108781137Y-91178125D01*
X108769938Y-91199812D01*
X108760175Y-91227896D01*
X108758439Y-91233624D01*
X108748834Y-91263857D01*
X108739141Y-91291356D01*
X108731347Y-91310517D01*
X108730875Y-91311500D01*
X108710714Y-91340264D01*
X108685886Y-91356457D01*
X108658727Y-91359523D01*
X108631577Y-91348905D01*
X108618641Y-91338197D01*
X108606467Y-91323666D01*
X108596579Y-91305560D01*
X108588219Y-91281405D01*
X108580630Y-91248727D01*
X108573056Y-91205050D01*
X108568417Y-91174023D01*
X108556596Y-91110702D01*
X108540943Y-91061524D01*
X108520705Y-91026011D01*
X108495127Y-91003686D01*
X108463456Y-90994072D01*
X108424938Y-90996691D01*
X108378819Y-91011065D01*
X108339421Y-91028955D01*
X108307428Y-91045889D01*
X108279956Y-91063029D01*
X108253287Y-91083159D01*
X108223705Y-91109062D01*
X108191118Y-91139999D01*
X108155622Y-91174018D01*
X108128528Y-91198727D01*
X108107846Y-91215554D01*
X108091590Y-91225926D01*
X108077769Y-91231271D01*
X108064395Y-91233016D01*
X108061485Y-91233059D01*
X108034750Y-91229393D01*
X108016778Y-91216613D01*
X108007812Y-91202642D01*
X108000768Y-91186429D01*
X107997768Y-91170577D01*
X107999561Y-91153120D01*
X108006899Y-91132093D01*
X108020532Y-91105530D01*
X108041210Y-91071467D01*
X108069683Y-91027939D01*
X108080918Y-91011161D01*
X108110453Y-90964745D01*
X108142029Y-90910875D01*
X108173793Y-90853088D01*
X108203896Y-90794916D01*
X108230487Y-90739896D01*
X108251714Y-90691559D01*
X108261292Y-90666716D01*
X108276284Y-90615570D01*
X108280800Y-90574910D01*
X108274613Y-90544349D01*
X108257499Y-90523502D01*
X108229229Y-90511983D01*
X108189578Y-90509407D01*
X108169858Y-90510858D01*
X108139693Y-90515225D01*
X108097812Y-90523009D01*
X108046886Y-90533592D01*
X107989586Y-90546356D01*
X107928582Y-90560685D01*
X107866545Y-90575959D01*
X107806145Y-90591563D01*
X107750053Y-90606878D01*
X107730888Y-90612359D01*
X107674762Y-90629359D01*
X107613367Y-90649208D01*
X107548627Y-90671174D01*
X107482467Y-90694527D01*
X107416812Y-90718536D01*
X107353586Y-90742472D01*
X107294715Y-90765605D01*
X107242124Y-90787202D01*
X107197736Y-90806535D01*
X107163478Y-90822872D01*
X107141273Y-90835484D01*
X107139358Y-90836822D01*
X107109864Y-90866910D01*
X107096308Y-90893073D01*
X107090783Y-90908610D01*
X107087635Y-90922432D01*
X107086869Y-90938064D01*
X107088492Y-90959033D01*
X107092511Y-90988865D01*
X107096536Y-91015495D01*
X107103587Y-91069476D01*
X107105940Y-91111715D01*
X107103324Y-91144739D01*
X107095466Y-91171075D01*
X107082096Y-91193253D01*
X107076721Y-91199756D01*
X107057387Y-91217747D01*
X107038506Y-91225013D01*
X107029675Y-91225588D01*
X107004451Y-91221601D01*
X106983667Y-91208794D01*
X106966589Y-91185896D01*
X106952479Y-91151637D01*
X106940601Y-91104747D01*
X106932244Y-91057500D01*
X106905843Y-90930318D01*
X106865612Y-90801990D01*
X106811251Y-90671625D01*
X106781963Y-90611794D01*
X106759545Y-90570062D01*
X106740605Y-90540477D01*
X106723326Y-90521217D01*
X106705889Y-90510460D01*
X106686475Y-90506382D01*
X106676643Y-90506239D01*
X106656862Y-90510002D01*
X106637880Y-90521073D01*
X106618497Y-90540875D01*
X106597513Y-90570833D01*
X106573729Y-90612371D01*
X106552644Y-90653357D01*
X106492393Y-90783851D01*
X106443453Y-90910467D01*
X106412489Y-91009394D01*
X106402091Y-91045413D01*
X106391899Y-91078161D01*
X106383165Y-91103757D01*
X106377689Y-91117264D01*
X106356721Y-91149442D01*
X106331141Y-91173081D01*
X106304316Y-91185081D01*
X106303933Y-91185154D01*
X106287479Y-91186343D01*
X106269987Y-91183156D01*
X106250159Y-91174670D01*
X106226696Y-91159964D01*
X106198302Y-91138116D01*
X106163679Y-91108204D01*
X106121528Y-91069307D01*
X106070551Y-91020503D01*
X106066311Y-91016393D01*
X105974527Y-90929174D01*
X105888549Y-90851128D01*
X105809214Y-90782977D01*
X105737356Y-90725444D01*
X105684736Y-90686791D01*
X105647247Y-90661536D01*
X105598587Y-90630229D01*
X105540682Y-90594005D01*
X105475459Y-90553998D01*
X105404844Y-90511344D01*
X105330764Y-90467178D01*
X105255146Y-90422636D01*
X105179916Y-90378853D01*
X105107002Y-90336964D01*
X105038330Y-90298105D01*
X104975826Y-90263410D01*
X104921418Y-90234015D01*
X104879110Y-90212097D01*
X104774254Y-90161230D01*
X104665637Y-90112155D01*
X104552130Y-90064486D01*
X104432603Y-90017838D01*
X104305928Y-89971825D01*
X104170974Y-89926060D01*
X104026613Y-89880159D01*
X103871715Y-89833735D01*
X103705151Y-89786403D01*
X103525790Y-89737777D01*
X103375748Y-89698564D01*
X103266200Y-89670483D01*
X103169181Y-89645946D01*
X103082813Y-89624548D01*
X103005216Y-89605883D01*
X102934509Y-89589544D01*
X102868814Y-89575126D01*
X102806251Y-89562222D01*
X102744941Y-89550428D01*
X102683003Y-89539336D01*
X102618558Y-89528541D01*
X102549728Y-89517637D01*
X102509736Y-89511509D01*
X102383657Y-89493121D01*
X102253384Y-89475525D01*
X102120695Y-89458892D01*
X101987371Y-89443390D01*
X101855190Y-89429191D01*
X101725930Y-89416463D01*
X101601372Y-89405378D01*
X101483294Y-89396105D01*
X101373474Y-89388814D01*
X101273692Y-89383675D01*
X101185728Y-89380858D01*
X101137315Y-89380353D01*
X101088941Y-89381139D01*
G36*
X109200373Y-97027094D02*
G01*
X109192719Y-97034978D01*
X109186713Y-97043815D01*
X109182482Y-97054294D01*
X109179718Y-97069049D01*
X109178109Y-97090717D01*
X109177345Y-97121936D01*
X109177117Y-97165342D01*
X109177114Y-97167581D01*
X109176533Y-97206086D01*
X109174958Y-97256106D01*
X109172543Y-97314256D01*
X109169440Y-97377154D01*
X109165803Y-97441416D01*
X109162230Y-97497147D01*
X109158340Y-97556651D01*
X109154830Y-97614976D01*
X109151841Y-97669397D01*
X109149514Y-97717194D01*
X109147990Y-97755642D01*
X109147412Y-97782020D01*
X109147411Y-97782779D01*
X109147688Y-97815828D01*
X109149165Y-97837831D01*
X109152708Y-97852682D01*
X109159183Y-97864273D01*
X109167897Y-97874755D01*
X109193817Y-97893358D01*
X109226948Y-97902125D01*
X109262228Y-97899741D01*
X109263147Y-97899514D01*
X109297983Y-97890537D01*
X109341794Y-97878957D01*
X109392832Y-97865260D01*
X109449345Y-97849934D01*
X109509585Y-97833464D01*
X109571802Y-97816338D01*
X109634245Y-97799042D01*
X109695164Y-97782063D01*
X109752810Y-97765889D01*
X109805432Y-97751004D01*
X109851282Y-97737898D01*
X109888608Y-97727055D01*
X109915661Y-97718963D01*
X109930691Y-97714109D01*
X109932857Y-97713229D01*
X109957139Y-97693773D01*
X109968119Y-97668265D01*
X109965372Y-97638224D01*
X109958399Y-97621352D01*
X109949425Y-97610649D01*
X109930484Y-97592604D01*
X109903515Y-97568906D01*
X109870455Y-97541242D01*
X109833240Y-97511302D01*
X109822060Y-97502522D01*
X109761175Y-97454027D01*
X109694149Y-97398999D01*
X109623961Y-97339995D01*
X109553585Y-97279572D01*
X109485999Y-97220289D01*
X109424180Y-97164701D01*
X109371103Y-97115368D01*
X109367736Y-97112162D01*
X109339681Y-97085732D01*
X109313483Y-97061655D01*
X109292136Y-97042644D01*
X109278949Y-97031653D01*
X109251264Y-97017678D01*
X109223919Y-97016203D01*
X109200373Y-97027094D01*
G37*
X109200373Y-97027094D02*
X109192719Y-97034978D01*
X109186713Y-97043815D01*
X109182482Y-97054294D01*
X109179718Y-97069049D01*
X109178109Y-97090717D01*
X109177345Y-97121936D01*
X109177117Y-97165342D01*
X109177114Y-97167581D01*
X109176533Y-97206086D01*
X109174958Y-97256106D01*
X109172543Y-97314256D01*
X109169440Y-97377154D01*
X109165803Y-97441416D01*
X109162230Y-97497147D01*
X109158340Y-97556651D01*
X109154830Y-97614976D01*
X109151841Y-97669397D01*
X109149514Y-97717194D01*
X109147990Y-97755642D01*
X109147412Y-97782020D01*
X109147411Y-97782779D01*
X109147688Y-97815828D01*
X109149165Y-97837831D01*
X109152708Y-97852682D01*
X109159183Y-97864273D01*
X109167897Y-97874755D01*
X109193817Y-97893358D01*
X109226948Y-97902125D01*
X109262228Y-97899741D01*
X109263147Y-97899514D01*
X109297983Y-97890537D01*
X109341794Y-97878957D01*
X109392832Y-97865260D01*
X109449345Y-97849934D01*
X109509585Y-97833464D01*
X109571802Y-97816338D01*
X109634245Y-97799042D01*
X109695164Y-97782063D01*
X109752810Y-97765889D01*
X109805432Y-97751004D01*
X109851282Y-97737898D01*
X109888608Y-97727055D01*
X109915661Y-97718963D01*
X109930691Y-97714109D01*
X109932857Y-97713229D01*
X109957139Y-97693773D01*
X109968119Y-97668265D01*
X109965372Y-97638224D01*
X109958399Y-97621352D01*
X109949425Y-97610649D01*
X109930484Y-97592604D01*
X109903515Y-97568906D01*
X109870455Y-97541242D01*
X109833240Y-97511302D01*
X109822060Y-97502522D01*
X109761175Y-97454027D01*
X109694149Y-97398999D01*
X109623961Y-97339995D01*
X109553585Y-97279572D01*
X109485999Y-97220289D01*
X109424180Y-97164701D01*
X109371103Y-97115368D01*
X109367736Y-97112162D01*
X109339681Y-97085732D01*
X109313483Y-97061655D01*
X109292136Y-97042644D01*
X109278949Y-97031653D01*
X109251264Y-97017678D01*
X109223919Y-97016203D01*
X109200373Y-97027094D01*
G36*
X112277462Y-91428574D02*
G01*
X112242349Y-91432143D01*
X112197889Y-91437595D01*
X112146758Y-91444526D01*
X112091629Y-91452529D01*
X112035179Y-91461198D01*
X111980081Y-91470129D01*
X111929011Y-91478914D01*
X111884643Y-91487150D01*
X111849652Y-91494430D01*
X111835733Y-91497785D01*
X111772443Y-91515514D01*
X111700160Y-91537888D01*
X111621704Y-91563872D01*
X111539895Y-91592426D01*
X111457553Y-91622513D01*
X111377500Y-91653098D01*
X111302555Y-91683140D01*
X111235539Y-91711605D01*
X111179272Y-91737454D01*
X111165061Y-91744467D01*
X111100814Y-91778387D01*
X111035200Y-91815876D01*
X110970783Y-91855269D01*
X110910130Y-91894898D01*
X110855804Y-91933096D01*
X110810369Y-91968197D01*
X110780958Y-91994064D01*
X110752272Y-92024189D01*
X110734469Y-92050181D01*
X110725607Y-92075569D01*
X110723647Y-92098171D01*
X110725666Y-92118488D01*
X110732693Y-92137607D01*
X110746183Y-92157108D01*
X110767591Y-92178571D01*
X110798372Y-92203574D01*
X110839981Y-92233696D01*
X110863451Y-92249907D01*
X110927124Y-92294706D01*
X110997997Y-92346742D01*
X111072301Y-92403110D01*
X111146264Y-92460904D01*
X111216115Y-92517220D01*
X111278083Y-92569152D01*
X111280206Y-92570978D01*
X111323123Y-92608471D01*
X111370102Y-92650450D01*
X111419129Y-92695033D01*
X111468188Y-92740337D01*
X111515267Y-92784479D01*
X111558350Y-92825576D01*
X111595423Y-92861746D01*
X111624472Y-92891104D01*
X111637262Y-92904722D01*
X111706414Y-92981861D01*
X111765319Y-93049916D01*
X111814785Y-93109849D01*
X111855624Y-93162625D01*
X111866230Y-93177089D01*
X111892893Y-93215331D01*
X111925058Y-93263649D01*
X111960888Y-93319102D01*
X111998550Y-93378750D01*
X112036206Y-93439652D01*
X112072023Y-93498868D01*
X112104164Y-93553459D01*
X112130795Y-93600482D01*
X112132933Y-93604379D01*
X112151791Y-93637879D01*
X112170043Y-93668589D01*
X112185504Y-93692934D01*
X112195353Y-93706595D01*
X112218750Y-93725392D01*
X112245940Y-93733606D01*
X112272335Y-93730308D01*
X112283270Y-93724438D01*
X112299981Y-93706598D01*
X112318159Y-93675797D01*
X112338113Y-93631432D01*
X112359378Y-93575088D01*
X112386144Y-93490883D01*
X112406958Y-93405355D01*
X112422355Y-93315304D01*
X112432870Y-93217528D01*
X112439039Y-93108827D01*
X112439456Y-93096659D01*
X112440957Y-93046195D01*
X112441652Y-93008247D01*
X112441413Y-92980406D01*
X112440114Y-92960261D01*
X112437629Y-92945403D01*
X112433831Y-92933422D01*
X112430479Y-92925784D01*
X112409992Y-92898230D01*
X112380723Y-92882494D01*
X112343502Y-92878956D01*
X112331008Y-92880315D01*
X112289127Y-92889919D01*
X112239058Y-92906669D01*
X112184677Y-92928889D01*
X112129855Y-92954905D01*
X112078467Y-92983043D01*
X112045941Y-93003559D01*
X111999273Y-93033196D01*
X111961469Y-93052496D01*
X111930983Y-93061839D01*
X111906269Y-93061604D01*
X111885782Y-93052174D01*
X111877514Y-93045016D01*
X111861414Y-93019964D01*
X111859582Y-92991643D01*
X111871780Y-92960363D01*
X111897770Y-92926436D01*
X111937313Y-92890171D01*
X111990173Y-92851881D01*
X112055906Y-92811990D01*
X112103092Y-92784735D01*
X112139292Y-92761945D01*
X112167011Y-92741666D01*
X112188755Y-92721942D01*
X112207028Y-92700818D01*
X112218410Y-92685150D01*
X112235569Y-92655611D01*
X112255018Y-92614487D01*
X112275687Y-92564750D01*
X112296506Y-92509374D01*
X112316403Y-92451332D01*
X112334310Y-92393596D01*
X112349154Y-92339140D01*
X112359304Y-92293882D01*
X112371445Y-92219378D01*
X112381798Y-92131397D01*
X112390256Y-92031309D01*
X112396713Y-91920484D01*
X112401061Y-91800291D01*
X112402350Y-91740756D01*
X112403446Y-91673078D01*
X112404124Y-91618688D01*
X112404334Y-91575936D01*
X112404025Y-91543173D01*
X112403148Y-91518750D01*
X112401651Y-91501019D01*
X112399484Y-91488329D01*
X112396598Y-91479032D01*
X112394199Y-91473809D01*
X112372748Y-91447656D01*
X112340916Y-91432168D01*
X112300554Y-91427294D01*
X112277462Y-91428574D01*
G37*
X112277462Y-91428574D02*
X112242349Y-91432143D01*
X112197889Y-91437595D01*
X112146758Y-91444526D01*
X112091629Y-91452529D01*
X112035179Y-91461198D01*
X111980081Y-91470129D01*
X111929011Y-91478914D01*
X111884643Y-91487150D01*
X111849652Y-91494430D01*
X111835733Y-91497785D01*
X111772443Y-91515514D01*
X111700160Y-91537888D01*
X111621704Y-91563872D01*
X111539895Y-91592426D01*
X111457553Y-91622513D01*
X111377500Y-91653098D01*
X111302555Y-91683140D01*
X111235539Y-91711605D01*
X111179272Y-91737454D01*
X111165061Y-91744467D01*
X111100814Y-91778387D01*
X111035200Y-91815876D01*
X110970783Y-91855269D01*
X110910130Y-91894898D01*
X110855804Y-91933096D01*
X110810369Y-91968197D01*
X110780958Y-91994064D01*
X110752272Y-92024189D01*
X110734469Y-92050181D01*
X110725607Y-92075569D01*
X110723647Y-92098171D01*
X110725666Y-92118488D01*
X110732693Y-92137607D01*
X110746183Y-92157108D01*
X110767591Y-92178571D01*
X110798372Y-92203574D01*
X110839981Y-92233696D01*
X110863451Y-92249907D01*
X110927124Y-92294706D01*
X110997997Y-92346742D01*
X111072301Y-92403110D01*
X111146264Y-92460904D01*
X111216115Y-92517220D01*
X111278083Y-92569152D01*
X111280206Y-92570978D01*
X111323123Y-92608471D01*
X111370102Y-92650450D01*
X111419129Y-92695033D01*
X111468188Y-92740337D01*
X111515267Y-92784479D01*
X111558350Y-92825576D01*
X111595423Y-92861746D01*
X111624472Y-92891104D01*
X111637262Y-92904722D01*
X111706414Y-92981861D01*
X111765319Y-93049916D01*
X111814785Y-93109849D01*
X111855624Y-93162625D01*
X111866230Y-93177089D01*
X111892893Y-93215331D01*
X111925058Y-93263649D01*
X111960888Y-93319102D01*
X111998550Y-93378750D01*
X112036206Y-93439652D01*
X112072023Y-93498868D01*
X112104164Y-93553459D01*
X112130795Y-93600482D01*
X112132933Y-93604379D01*
X112151791Y-93637879D01*
X112170043Y-93668589D01*
X112185504Y-93692934D01*
X112195353Y-93706595D01*
X112218750Y-93725392D01*
X112245940Y-93733606D01*
X112272335Y-93730308D01*
X112283270Y-93724438D01*
X112299981Y-93706598D01*
X112318159Y-93675797D01*
X112338113Y-93631432D01*
X112359378Y-93575088D01*
X112386144Y-93490883D01*
X112406958Y-93405355D01*
X112422355Y-93315304D01*
X112432870Y-93217528D01*
X112439039Y-93108827D01*
X112439456Y-93096659D01*
X112440957Y-93046195D01*
X112441652Y-93008247D01*
X112441413Y-92980406D01*
X112440114Y-92960261D01*
X112437629Y-92945403D01*
X112433831Y-92933422D01*
X112430479Y-92925784D01*
X112409992Y-92898230D01*
X112380723Y-92882494D01*
X112343502Y-92878956D01*
X112331008Y-92880315D01*
X112289127Y-92889919D01*
X112239058Y-92906669D01*
X112184677Y-92928889D01*
X112129855Y-92954905D01*
X112078467Y-92983043D01*
X112045941Y-93003559D01*
X111999273Y-93033196D01*
X111961469Y-93052496D01*
X111930983Y-93061839D01*
X111906269Y-93061604D01*
X111885782Y-93052174D01*
X111877514Y-93045016D01*
X111861414Y-93019964D01*
X111859582Y-92991643D01*
X111871780Y-92960363D01*
X111897770Y-92926436D01*
X111937313Y-92890171D01*
X111990173Y-92851881D01*
X112055906Y-92811990D01*
X112103092Y-92784735D01*
X112139292Y-92761945D01*
X112167011Y-92741666D01*
X112188755Y-92721942D01*
X112207028Y-92700818D01*
X112218410Y-92685150D01*
X112235569Y-92655611D01*
X112255018Y-92614487D01*
X112275687Y-92564750D01*
X112296506Y-92509374D01*
X112316403Y-92451332D01*
X112334310Y-92393596D01*
X112349154Y-92339140D01*
X112359304Y-92293882D01*
X112371445Y-92219378D01*
X112381798Y-92131397D01*
X112390256Y-92031309D01*
X112396713Y-91920484D01*
X112401061Y-91800291D01*
X112402350Y-91740756D01*
X112403446Y-91673078D01*
X112404124Y-91618688D01*
X112404334Y-91575936D01*
X112404025Y-91543173D01*
X112403148Y-91518750D01*
X112401651Y-91501019D01*
X112399484Y-91488329D01*
X112396598Y-91479032D01*
X112394199Y-91473809D01*
X112372748Y-91447656D01*
X112340916Y-91432168D01*
X112300554Y-91427294D01*
X112277462Y-91428574D01*
G36*
X102465225Y-91895583D02*
G01*
X102453126Y-91899734D01*
X102437406Y-91907576D01*
X102425207Y-91917425D01*
X102416092Y-91931140D01*
X102409624Y-91950582D01*
X102405367Y-91977610D01*
X102402881Y-92014083D01*
X102401731Y-92061863D01*
X102401478Y-92119452D01*
X102402565Y-92224307D01*
X102405978Y-92321040D01*
X102412082Y-92415138D01*
X102421242Y-92512086D01*
X102433823Y-92617371D01*
X102435479Y-92630059D01*
X102458716Y-92783852D01*
X102486247Y-92924699D01*
X102517983Y-93052257D01*
X102553837Y-93166184D01*
X102593719Y-93266138D01*
X102606746Y-93293945D01*
X102633575Y-93345041D01*
X102664492Y-93397278D01*
X102697910Y-93448514D01*
X102732245Y-93496607D01*
X102765911Y-93539414D01*
X102797322Y-93574795D01*
X102824894Y-93600607D01*
X102842658Y-93612690D01*
X102876107Y-93622932D01*
X102907758Y-93618433D01*
X102931653Y-93603967D01*
X102944340Y-93591985D01*
X102958336Y-93575863D01*
X102974658Y-93554110D01*
X102994325Y-93525236D01*
X103018354Y-93487749D01*
X103047764Y-93440158D01*
X103081397Y-93384588D01*
X103153159Y-93269681D01*
X103227869Y-93159221D01*
X103307774Y-93050166D01*
X103395121Y-92939473D01*
X103492159Y-92824100D01*
X103513332Y-92799732D01*
X103554432Y-92752332D01*
X103586493Y-92714408D01*
X103610584Y-92684431D01*
X103627772Y-92660873D01*
X103639125Y-92642203D01*
X103645712Y-92626895D01*
X103648599Y-92613418D01*
X103649000Y-92605525D01*
X103646720Y-92586209D01*
X103638885Y-92567202D01*
X103624006Y-92546688D01*
X103600593Y-92522848D01*
X103567156Y-92493865D01*
X103538540Y-92470773D01*
X103379461Y-92349523D01*
X103225175Y-92241758D01*
X103074995Y-92147065D01*
X102928233Y-92065030D01*
X102784201Y-91995239D01*
X102667624Y-91946847D01*
X102611377Y-91925737D01*
X102566797Y-91910238D01*
X102531887Y-91899912D01*
X102504652Y-91894319D01*
X102483097Y-91893022D01*
X102465225Y-91895583D01*
G37*
X102465225Y-91895583D02*
X102453126Y-91899734D01*
X102437406Y-91907576D01*
X102425207Y-91917425D01*
X102416092Y-91931140D01*
X102409624Y-91950582D01*
X102405367Y-91977610D01*
X102402881Y-92014083D01*
X102401731Y-92061863D01*
X102401478Y-92119452D01*
X102402565Y-92224307D01*
X102405978Y-92321040D01*
X102412082Y-92415138D01*
X102421242Y-92512086D01*
X102433823Y-92617371D01*
X102435479Y-92630059D01*
X102458716Y-92783852D01*
X102486247Y-92924699D01*
X102517983Y-93052257D01*
X102553837Y-93166184D01*
X102593719Y-93266138D01*
X102606746Y-93293945D01*
X102633575Y-93345041D01*
X102664492Y-93397278D01*
X102697910Y-93448514D01*
X102732245Y-93496607D01*
X102765911Y-93539414D01*
X102797322Y-93574795D01*
X102824894Y-93600607D01*
X102842658Y-93612690D01*
X102876107Y-93622932D01*
X102907758Y-93618433D01*
X102931653Y-93603967D01*
X102944340Y-93591985D01*
X102958336Y-93575863D01*
X102974658Y-93554110D01*
X102994325Y-93525236D01*
X103018354Y-93487749D01*
X103047764Y-93440158D01*
X103081397Y-93384588D01*
X103153159Y-93269681D01*
X103227869Y-93159221D01*
X103307774Y-93050166D01*
X103395121Y-92939473D01*
X103492159Y-92824100D01*
X103513332Y-92799732D01*
X103554432Y-92752332D01*
X103586493Y-92714408D01*
X103610584Y-92684431D01*
X103627772Y-92660873D01*
X103639125Y-92642203D01*
X103645712Y-92626895D01*
X103648599Y-92613418D01*
X103649000Y-92605525D01*
X103646720Y-92586209D01*
X103638885Y-92567202D01*
X103624006Y-92546688D01*
X103600593Y-92522848D01*
X103567156Y-92493865D01*
X103538540Y-92470773D01*
X103379461Y-92349523D01*
X103225175Y-92241758D01*
X103074995Y-92147065D01*
X102928233Y-92065030D01*
X102784201Y-91995239D01*
X102667624Y-91946847D01*
X102611377Y-91925737D01*
X102566797Y-91910238D01*
X102531887Y-91899912D01*
X102504652Y-91894319D01*
X102483097Y-91893022D01*
X102465225Y-91895583D01*
G36*
X103448131Y-91835671D02*
G01*
X103431235Y-91840955D01*
X103417345Y-91849935D01*
X103408828Y-91858038D01*
X103395555Y-91881980D01*
X103388778Y-91916987D01*
X103388357Y-91960740D01*
X103394152Y-92010916D01*
X103406024Y-92065194D01*
X103423833Y-92121254D01*
X103424830Y-92123939D01*
X103432112Y-92141919D01*
X103440543Y-92158765D01*
X103451222Y-92175548D01*
X103465249Y-92193338D01*
X103483723Y-92213207D01*
X103507742Y-92236223D01*
X103538405Y-92263459D01*
X103576812Y-92295984D01*
X103624060Y-92334869D01*
X103681250Y-92381185D01*
X103725030Y-92416388D01*
X103763246Y-92439897D01*
X103801511Y-92449853D01*
X103838080Y-92445965D01*
X103856252Y-92438151D01*
X103871131Y-92428039D01*
X103894030Y-92410340D01*
X103921896Y-92387497D01*
X103951674Y-92361952D01*
X103953370Y-92360461D01*
X103988709Y-92329970D01*
X104027680Y-92297324D01*
X104065007Y-92266898D01*
X104089765Y-92247383D01*
X104124695Y-92220055D01*
X104149406Y-92199343D01*
X104165808Y-92183140D01*
X104175810Y-92169335D01*
X104181322Y-92155820D01*
X104183824Y-92143529D01*
X104182429Y-92115125D01*
X104168571Y-92089807D01*
X104141362Y-92066437D01*
X104109874Y-92048615D01*
X104064425Y-92027583D01*
X104008130Y-92003643D01*
X103944467Y-91978131D01*
X103876916Y-91952382D01*
X103808956Y-91927732D01*
X103744067Y-91905515D01*
X103701294Y-91891805D01*
X103633114Y-91871078D01*
X103577440Y-91855144D01*
X103532687Y-91843819D01*
X103497274Y-91836920D01*
X103469616Y-91834265D01*
X103448131Y-91835671D01*
G37*
X103448131Y-91835671D02*
X103431235Y-91840955D01*
X103417345Y-91849935D01*
X103408828Y-91858038D01*
X103395555Y-91881980D01*
X103388778Y-91916987D01*
X103388357Y-91960740D01*
X103394152Y-92010916D01*
X103406024Y-92065194D01*
X103423833Y-92121254D01*
X103424830Y-92123939D01*
X103432112Y-92141919D01*
X103440543Y-92158765D01*
X103451222Y-92175548D01*
X103465249Y-92193338D01*
X103483723Y-92213207D01*
X103507742Y-92236223D01*
X103538405Y-92263459D01*
X103576812Y-92295984D01*
X103624060Y-92334869D01*
X103681250Y-92381185D01*
X103725030Y-92416388D01*
X103763246Y-92439897D01*
X103801511Y-92449853D01*
X103838080Y-92445965D01*
X103856252Y-92438151D01*
X103871131Y-92428039D01*
X103894030Y-92410340D01*
X103921896Y-92387497D01*
X103951674Y-92361952D01*
X103953370Y-92360461D01*
X103988709Y-92329970D01*
X104027680Y-92297324D01*
X104065007Y-92266898D01*
X104089765Y-92247383D01*
X104124695Y-92220055D01*
X104149406Y-92199343D01*
X104165808Y-92183140D01*
X104175810Y-92169335D01*
X104181322Y-92155820D01*
X104183824Y-92143529D01*
X104182429Y-92115125D01*
X104168571Y-92089807D01*
X104141362Y-92066437D01*
X104109874Y-92048615D01*
X104064425Y-92027583D01*
X104008130Y-92003643D01*
X103944467Y-91978131D01*
X103876916Y-91952382D01*
X103808956Y-91927732D01*
X103744067Y-91905515D01*
X103701294Y-91891805D01*
X103633114Y-91871078D01*
X103577440Y-91855144D01*
X103532687Y-91843819D01*
X103497274Y-91836920D01*
X103469616Y-91834265D01*
X103448131Y-91835671D01*
M02*
