M48
INCH,TZ
T1C0.0118
T2C0.0315
T3C0.0394
T4C0.0433
T5C0.1260
T6C0.1260
%
G90
G05
T1
X44141Y-33506
X44433Y-34506
X44720Y-32911
X44968Y-32513
X45244Y-31502
X45515Y-30507
X45799Y-23965
X46015Y-24557
X48889Y-22506
X50124Y-33021
X50283Y-25683
X50574Y-23702
X51025Y-23009
X51637Y-30726
X51874Y-30166
X53057Y-24466
X53986Y-18506
X55622Y-19596
X55756Y-37045
X55952Y-26100
X56108Y-19356
X56108Y-36002
X58074Y-25891
X58230Y-11340
X58303Y-18596
X58843Y-28506
X59051Y-30506
X59307Y-31506
X61326Y-18006
X61534Y-20006
X61737Y-33508
X61757Y-19006
X61964Y-21006
X62004Y-42569
X62549Y-40728
X63078Y-42320
X63358Y-20006
X63639Y-41021
X63641Y-15445
X64181Y-42045
X64586Y-18383
X64897Y-17387
X64913Y-16392
X65283Y-41769
X66193Y-17592
X66425Y-19654
X66669Y-23698
X66909Y-35506
X69043Y-32517
X69263Y-33584
X69488Y-33856
X69602Y-15446
X69771Y-25273
X71157Y-11344
X71157Y-15588
X71307Y-25891
X71523Y-29179
X71673Y-16206
X71673Y-19006
X71756Y-29711
X72015Y-30903
X73204Y-34892
X73342Y-15380
X73412Y-31970
X73602Y-28494
X73630Y-33041
X74452Y-29065
X74454Y-13006
X74834Y-17623
X74850Y-31021
X75500Y-42569
X76045Y-41297
X76193Y-36157
X76202Y-16995
X76267Y-23962
X76425Y-29958
X76434Y-27093
X76437Y-35138
X76543Y-24226
X76582Y-42320
X76630Y-26604
X76913Y-28120
X76960Y-14419
X77133Y-41533
X77685Y-42045
X78082Y-25738
X78752Y-17513
X78772Y-41783
X78776Y-30504
X79181Y-42569
X79385Y-42320
X79614Y-42045
X81106Y-30185
X81322Y-31191
X81421Y-19191
X82902Y-15513
X82929Y-13246
X83106Y-17454
X83110Y-13817
X83112Y-26135
X83118Y-33884
X83320Y-28305
X83320Y-33659
X83334Y-17002
X83354Y-27099
X83551Y-33423
X83752Y-38902
X83787Y-34092
X83787Y-27104
X83868Y-38472
X84023Y-29919
X84023Y-35588
X84092Y-24466
X84098Y-28112
X84259Y-29722
X84468Y-30194
X84484Y-38472
X84921Y-38358
X84952Y-16502
X86011Y-27517
X86242Y-30943
X86281Y-22994
X86289Y-19009
X86366Y-27754
X86464Y-32006
X86689Y-28372
X86748Y-34415
X86886Y-30498
X87043Y-34919
X87055Y-33069
X87271Y-32801
X87271Y-34080
X87273Y-31190
X87448Y-30706
X87482Y-33423
X87488Y-35155
X87543Y-36154
X87748Y-33659
X87797Y-29931
X87939Y-19009
T2
X35527Y-17006
X35527Y-18506
X35527Y-20006
X35527Y-22006
X35527Y-23006
X35527Y-24006
X35527Y-27506
X35527Y-28506
X35527Y-29506
X35527Y-30506
X35527Y-31506
X35527Y-32506
X35527Y-33506
X35527Y-34506
X38527Y-17006
X38527Y-18506
X38527Y-20006
X38527Y-22006
X38527Y-23006
X38527Y-24006
X38527Y-27506
X38527Y-28506
X38527Y-29506
X38527Y-30506
X38527Y-31506
X38527Y-32506
X38527Y-33506
X38527Y-34506
X43521Y-18506
X43521Y-21506
X46521Y-18506
X46521Y-21506
X46543Y-26506
X46543Y-27506
X46543Y-28506
X46543Y-29506
X46543Y-30506
X46543Y-31506
X46543Y-32506
X46543Y-33506
X46543Y-34506
X46543Y-35506
X46543Y-36506
X46543Y-37506
X46543Y-38506
X46543Y-39506
X47889Y-20006
X48889Y-20006
X49543Y-26506
X49543Y-27506
X49543Y-28506
X49543Y-29506
X49543Y-30506
X49543Y-31506
X49543Y-32506
X49543Y-33506
X49543Y-34506
X49543Y-35506
X49543Y-36506
X49543Y-37506
X49543Y-38506
X49543Y-39506
X49889Y-20006
X52521Y-21006
X52521Y-22506
X52527Y-12006
X52527Y-13006
X52527Y-14006
X52527Y-15006
X52527Y-16006
X52527Y-17006
X52527Y-18006
X52543Y-26506
X52543Y-27506
X52543Y-28506
X52543Y-29506
X52543Y-30506
X52543Y-31506
X52543Y-32506
X52543Y-33506
X52543Y-34506
X52543Y-35506
X52543Y-36506
X52543Y-37506
X52543Y-38506
X52543Y-39506
X55521Y-21006
X55521Y-22506
X55527Y-12006
X55527Y-13006
X55527Y-14006
X55527Y-15006
X55527Y-16006
X55527Y-17006
X55527Y-18006
X57500Y-26506
X57500Y-27506
X57500Y-28506
X57500Y-29506
X57500Y-30506
X57500Y-31506
X57500Y-32506
X57500Y-33506
X57500Y-34506
X57500Y-35506
X57527Y-12006
X57527Y-13006
X57527Y-14006
X57527Y-15006
X57527Y-16006
X57527Y-17006
X57527Y-18006
X57527Y-19006
X57527Y-20006
X57527Y-21006
X60500Y-26506
X60500Y-27506
X60500Y-28506
X60500Y-29506
X60500Y-30506
X60500Y-31506
X60500Y-32506
X60500Y-33506
X60500Y-34506
X60500Y-35506
X60527Y-12006
X60527Y-13006
X60527Y-14006
X60527Y-15006
X60527Y-16006
X60527Y-17006
X60527Y-18006
X60527Y-19006
X60527Y-20006
X60527Y-21006
X62527Y-12006
X62527Y-13006
X62527Y-14006
X62527Y-15006
X62527Y-16006
X62527Y-17006
X62527Y-18006
X62527Y-19006
X62527Y-26506
X62527Y-27506
X62527Y-28506
X62527Y-29506
X62527Y-30506
X62527Y-31506
X62527Y-32506
X62527Y-33506
X62527Y-34506
X62527Y-35506
X65527Y-12006
X65527Y-13006
X65527Y-14006
X65527Y-15006
X65527Y-16006
X65527Y-17006
X65527Y-18006
X65527Y-19006
X65527Y-26506
X65527Y-27506
X65527Y-28506
X65527Y-29506
X65527Y-30506
X65527Y-31506
X65527Y-32506
X65527Y-33506
X65527Y-34506
X65527Y-35506
X67527Y-12006
X67527Y-13006
X67527Y-14006
X67527Y-15006
X67527Y-16006
X67527Y-17006
X67527Y-18006
X67527Y-19006
X67527Y-20006
X67527Y-21006
X67606Y-26506
X67606Y-27506
X67606Y-28506
X67606Y-29506
X67606Y-30506
X67606Y-31506
X67606Y-32506
X67606Y-33506
X67606Y-34506
X67606Y-35506
X70527Y-12006
X70527Y-13006
X70527Y-14006
X70527Y-15006
X70527Y-16006
X70527Y-17006
X70527Y-18006
X70527Y-19006
X70527Y-20006
X70527Y-21006
X70606Y-26506
X70606Y-27506
X70606Y-28506
X70606Y-29506
X70606Y-30506
X70606Y-31506
X70606Y-32506
X70606Y-33506
X70606Y-34506
X70606Y-35506
X72521Y-22006
X72521Y-23506
X72527Y-12006
X72527Y-13006
X72527Y-14006
X72527Y-15006
X72527Y-16006
X72527Y-17006
X72527Y-18006
X72527Y-19006
X72527Y-25006
X72606Y-26506
X72606Y-27506
X72606Y-28506
X72606Y-29506
X72606Y-30506
X72606Y-31506
X72606Y-32506
X72606Y-33506
X72606Y-34506
X72606Y-35506
X75521Y-22006
X75521Y-23506
X75527Y-12006
X75527Y-13006
X75527Y-14006
X75527Y-15006
X75527Y-16006
X75527Y-17006
X75527Y-18006
X75527Y-19006
X75527Y-25006
X75606Y-26506
X75606Y-27506
X75606Y-28506
X75606Y-29506
X75606Y-30506
X75606Y-31506
X75606Y-32506
X75606Y-33506
X75606Y-34506
X75606Y-35506
X77527Y-12006
X77527Y-13006
X77527Y-14006
X77527Y-15006
X77527Y-16006
X77527Y-17006
X77527Y-18006
X77527Y-26506
X77527Y-27506
X77527Y-28506
X77527Y-29506
X77527Y-30506
X77527Y-31506
X77527Y-32506
X77527Y-33506
X77527Y-34506
X77527Y-35506
X80527Y-12006
X80527Y-13006
X80527Y-14006
X80527Y-15006
X80527Y-16006
X80527Y-17006
X80527Y-18006
X80527Y-26506
X80527Y-27506
X80527Y-28506
X80527Y-29506
X80527Y-30506
X80527Y-31506
X80527Y-32506
X80527Y-33506
X80527Y-34506
X80527Y-35506
X82527Y-15006
X82527Y-16006
X82527Y-17006
X82527Y-18006
X82527Y-19006
X82527Y-20006
X82527Y-21006
X85527Y-15006
X85527Y-16006
X85527Y-17006
X85527Y-18006
X85527Y-19006
X85527Y-20006
X85527Y-21006
T3
X36037Y-36006
X36037Y-37506
X36059Y-25506
X38006Y-36006
X38006Y-37506
X38027Y-25506
X44037Y-17006
X44037Y-20006
X46006Y-17006
X46006Y-20006
X50043Y-41006
X51021Y-20006
X51021Y-21006
X52011Y-41006
X53037Y-19506
X55006Y-19506
X58010Y-37006
X58037Y-22506
X59978Y-37006
X60006Y-22506
X60913Y-38974
X61458Y-40092
X62004Y-38974
X62549Y-40092
X63037Y-20537
X63037Y-37006
X63094Y-38974
X63639Y-40092
X64185Y-38974
X64730Y-40092
X65006Y-20537
X65006Y-37006
X65275Y-38974
X68027Y-22506
X68116Y-37006
X69996Y-22506
X70084Y-37006
X73037Y-20506
X73116Y-37006
X74409Y-38974
X74955Y-40092
X75006Y-20506
X75084Y-37006
X75500Y-38974
X76045Y-40092
X76591Y-38974
X77136Y-40092
X77681Y-38974
X78059Y-19506
X78059Y-22006
X78059Y-23506
X78059Y-25006
X78106Y-37006
X78226Y-40092
X78772Y-38974
X80027Y-19506
X80027Y-22006
X80027Y-23506
X80027Y-25006
X80074Y-37006
X82527Y-29006
X82527Y-32006
X82527Y-35006
X83027Y-22506
X83043Y-37006
X84996Y-22506
X85011Y-37006
X85527Y-29006
X85527Y-32006
X85527Y-35006
T4
X42368Y-13974
X42819Y-12974
X42819Y-14974
X43269Y-13974
X43720Y-12974
X43720Y-14974
X44171Y-13974
X44622Y-12974
X44622Y-14974
X45072Y-13974
X45523Y-12974
X45523Y-14974
X45974Y-13974
X46425Y-12974
X46425Y-14974
T5
X39588Y-13974
X49427Y-13974
X58173Y-39533
X68015Y-39533
X71669Y-39533
X81512Y-39533
T6
X36464Y-12006
X36464Y-40746
X84889Y-12006
X84889Y-40746
T0
M30
