G04 #@! TF.GenerationSoftware,KiCad,Pcbnew,5.1.10*
G04 #@! TF.CreationDate,2022-05-12T12:00:03-07:00*
G04 #@! TF.ProjectId,zf_vga,7a665f76-6761-42e6-9b69-6361645f7063,rev?*
G04 #@! TF.SameCoordinates,Original*
G04 #@! TF.FileFunction,Soldermask,Top*
G04 #@! TF.FilePolarity,Negative*
%FSLAX46Y46*%
G04 Gerber Fmt 4.6, Leading zero omitted, Abs format (unit mm)*
G04 Created by KiCad (PCBNEW 5.1.10) date 2022-05-12 12:00:03*
%MOMM*%
%LPD*%
G01*
G04 APERTURE LIST*
%ADD10C,0.100000*%
%ADD11R,1.650000X1.650000*%
%ADD12C,1.650000*%
%ADD13C,4.800000*%
%ADD14R,2.400000X1.600000*%
%ADD15O,2.400000X1.600000*%
%ADD16R,1.600000X1.600000*%
%ADD17C,1.600000*%
%ADD18C,4.000000*%
%ADD19C,2.500000*%
%ADD20R,2.500000X2.500000*%
%ADD21C,2.000000*%
%ADD22C,6.400000*%
%ADD23O,1.600000X1.600000*%
%ADD24R,1.700000X1.700000*%
%ADD25O,1.700000X1.700000*%
%ADD26C,1.500000*%
%ADD27R,1.500000X1.500000*%
G04 APERTURE END LIST*
D10*
G36*
X229618999Y-95994000D02*
G01*
X225118999Y-95994000D01*
X225118999Y-41494000D01*
X229618999Y-41494000D01*
X229618999Y-95994000D01*
G37*
D11*
X108759058Y-38034000D03*
D12*
X111049058Y-38034000D03*
X113339058Y-38034000D03*
X115629058Y-38034000D03*
X117919058Y-38034000D03*
X107614058Y-35494000D03*
X109904058Y-35494000D03*
X112194058Y-35494000D03*
X114484058Y-35494000D03*
X116774058Y-35494000D03*
X108759058Y-32954000D03*
X111049058Y-32954000D03*
X113339058Y-32954000D03*
X115629058Y-32954000D03*
X117919058Y-32954000D03*
D13*
X100554058Y-35494000D03*
X125544058Y-35494000D03*
D14*
X192039000Y-90184000D03*
D15*
X184419000Y-67324000D03*
X192039000Y-87644000D03*
X184419000Y-69864000D03*
X192039000Y-85104000D03*
X184419000Y-72404000D03*
X192039000Y-82564000D03*
X184419000Y-74944000D03*
X192039000Y-80024000D03*
X184419000Y-77484000D03*
X192039000Y-77484000D03*
X184419000Y-80024000D03*
X192039000Y-74944000D03*
X184419000Y-82564000D03*
X192039000Y-72404000D03*
X184419000Y-85104000D03*
X192039000Y-69864000D03*
X184419000Y-87644000D03*
X192039000Y-67324000D03*
X184419000Y-90184000D03*
X125839000Y-100344000D03*
X133459000Y-67324000D03*
X125839000Y-97804000D03*
X133459000Y-69864000D03*
X125839000Y-95264000D03*
X133459000Y-72404000D03*
X125839000Y-92724000D03*
X133459000Y-74944000D03*
X125839000Y-90184000D03*
X133459000Y-77484000D03*
X125839000Y-87644000D03*
X133459000Y-80024000D03*
X125839000Y-85104000D03*
X133459000Y-82564000D03*
X125839000Y-82564000D03*
X133459000Y-85104000D03*
X125839000Y-80024000D03*
X133459000Y-87644000D03*
X125839000Y-77484000D03*
X133459000Y-90184000D03*
X125839000Y-74944000D03*
X133459000Y-92724000D03*
X125839000Y-72404000D03*
X133459000Y-95264000D03*
X125839000Y-69864000D03*
X133459000Y-97804000D03*
X125839000Y-67324000D03*
D14*
X133459000Y-100344000D03*
D15*
X118219000Y-67324000D03*
X118219000Y-72404000D03*
X118219000Y-85104000D03*
X118219000Y-80024000D03*
X118219000Y-82564000D03*
X118219000Y-92724000D03*
X118219000Y-90184000D03*
X118219000Y-95264000D03*
X118219000Y-77484000D03*
X118219000Y-87644000D03*
X118219000Y-100344000D03*
X118219000Y-69864000D03*
X118219000Y-74944000D03*
X118219000Y-97804000D03*
D16*
X189000000Y-98994000D03*
D17*
X191770000Y-98994000D03*
X194540000Y-98994000D03*
X197310000Y-98994000D03*
X200080000Y-98994000D03*
X190385000Y-101834000D03*
X193155000Y-101834000D03*
X195925000Y-101834000D03*
X198695000Y-101834000D03*
D18*
X182040000Y-100414000D03*
X207040000Y-100414000D03*
D16*
X154719000Y-98994000D03*
D17*
X157489000Y-98994000D03*
X160259000Y-98994000D03*
X163029000Y-98994000D03*
X165799000Y-98994000D03*
X156104000Y-101834000D03*
X158874000Y-101834000D03*
X161644000Y-101834000D03*
X164414000Y-101834000D03*
D18*
X147759000Y-100414000D03*
X172759000Y-100414000D03*
D19*
X217239000Y-81294000D03*
X209619000Y-81294000D03*
X217239000Y-73674000D03*
X209619000Y-73674000D03*
X209619000Y-88914000D03*
D20*
X217239000Y-88914000D03*
D21*
X147414000Y-57164000D03*
X152414000Y-57164000D03*
D14*
X179139000Y-53354000D03*
D15*
X171519000Y-30494000D03*
X179139000Y-50814000D03*
X171519000Y-33034000D03*
X179139000Y-48274000D03*
X171519000Y-35574000D03*
X179139000Y-45734000D03*
X171519000Y-38114000D03*
X179139000Y-43194000D03*
X171519000Y-40654000D03*
X179139000Y-40654000D03*
X171519000Y-43194000D03*
X179139000Y-38114000D03*
X171519000Y-45734000D03*
X179139000Y-35574000D03*
X171519000Y-48274000D03*
X179139000Y-33034000D03*
X171519000Y-50814000D03*
X179139000Y-30494000D03*
X171519000Y-53354000D03*
D22*
X92619000Y-30494000D03*
X215619000Y-103494000D03*
X215619000Y-30494000D03*
X92619000Y-103494000D03*
D14*
X204539000Y-90184000D03*
D15*
X196919000Y-67324000D03*
X204539000Y-87644000D03*
X196919000Y-69864000D03*
X204539000Y-85104000D03*
X196919000Y-72404000D03*
X204539000Y-82564000D03*
X196919000Y-74944000D03*
X204539000Y-80024000D03*
X196919000Y-77484000D03*
X204539000Y-77484000D03*
X196919000Y-80024000D03*
X204539000Y-74944000D03*
X196919000Y-82564000D03*
X204539000Y-72404000D03*
X196919000Y-85104000D03*
X204539000Y-69864000D03*
X196919000Y-87644000D03*
X204539000Y-67324000D03*
X196919000Y-90184000D03*
D14*
X191839000Y-48274000D03*
D15*
X184219000Y-30494000D03*
X191839000Y-45734000D03*
X184219000Y-33034000D03*
X191839000Y-43194000D03*
X184219000Y-35574000D03*
X191839000Y-40654000D03*
X184219000Y-38114000D03*
X191839000Y-38114000D03*
X184219000Y-40654000D03*
X191839000Y-35574000D03*
X184219000Y-43194000D03*
X191839000Y-33034000D03*
X184219000Y-45734000D03*
X191839000Y-30494000D03*
X184219000Y-48274000D03*
D14*
X179339000Y-90184000D03*
D15*
X171719000Y-67324000D03*
X179339000Y-87644000D03*
X171719000Y-69864000D03*
X179339000Y-85104000D03*
X171719000Y-72404000D03*
X179339000Y-82564000D03*
X171719000Y-74944000D03*
X179339000Y-80024000D03*
X171719000Y-77484000D03*
X179339000Y-77484000D03*
X171719000Y-80024000D03*
X179339000Y-74944000D03*
X171719000Y-82564000D03*
X179339000Y-72404000D03*
X171719000Y-85104000D03*
X179339000Y-69864000D03*
X171719000Y-87644000D03*
X179339000Y-67324000D03*
X171719000Y-90184000D03*
D14*
X166439000Y-48274000D03*
D15*
X158819000Y-30494000D03*
X166439000Y-45734000D03*
X158819000Y-33034000D03*
X166439000Y-43194000D03*
X158819000Y-35574000D03*
X166439000Y-40654000D03*
X158819000Y-38114000D03*
X166439000Y-38114000D03*
X158819000Y-40654000D03*
X166439000Y-35574000D03*
X158819000Y-43194000D03*
X166439000Y-33034000D03*
X158819000Y-45734000D03*
X166439000Y-30494000D03*
X158819000Y-48274000D03*
D14*
X166439000Y-90184000D03*
D15*
X158819000Y-67324000D03*
X166439000Y-87644000D03*
X158819000Y-69864000D03*
X166439000Y-85104000D03*
X158819000Y-72404000D03*
X166439000Y-82564000D03*
X158819000Y-74944000D03*
X166439000Y-80024000D03*
X158819000Y-77484000D03*
X166439000Y-77484000D03*
X158819000Y-80024000D03*
X166439000Y-74944000D03*
X158819000Y-82564000D03*
X166439000Y-72404000D03*
X158819000Y-85104000D03*
X166439000Y-69864000D03*
X158819000Y-87644000D03*
X166439000Y-67324000D03*
X158819000Y-90184000D03*
X146050000Y-90184000D03*
X153670000Y-67324000D03*
X146050000Y-87644000D03*
X153670000Y-69864000D03*
X146050000Y-85104000D03*
X153670000Y-72404000D03*
X146050000Y-82564000D03*
X153670000Y-74944000D03*
X146050000Y-80024000D03*
X153670000Y-77484000D03*
X146050000Y-77484000D03*
X153670000Y-80024000D03*
X146050000Y-74944000D03*
X153670000Y-82564000D03*
X146050000Y-72404000D03*
X153670000Y-85104000D03*
X146050000Y-69864000D03*
X153670000Y-87644000D03*
X146050000Y-67324000D03*
D14*
X153670000Y-90184000D03*
X153739000Y-53354000D03*
D15*
X146119000Y-30494000D03*
X153739000Y-50814000D03*
X146119000Y-33034000D03*
X153739000Y-48274000D03*
X146119000Y-35574000D03*
X153739000Y-45734000D03*
X146119000Y-38114000D03*
X153739000Y-43194000D03*
X146119000Y-40654000D03*
X153739000Y-40654000D03*
X146119000Y-43194000D03*
X153739000Y-38114000D03*
X146119000Y-45734000D03*
X153739000Y-35574000D03*
X146119000Y-48274000D03*
X153739000Y-33034000D03*
X146119000Y-50814000D03*
X153739000Y-30494000D03*
X146119000Y-53354000D03*
X209619000Y-53354000D03*
X217239000Y-38114000D03*
X209619000Y-50814000D03*
X217239000Y-40654000D03*
X209619000Y-48274000D03*
X217239000Y-43194000D03*
X209619000Y-45734000D03*
X217239000Y-45734000D03*
X209619000Y-43194000D03*
X217239000Y-48274000D03*
X209619000Y-40654000D03*
X217239000Y-50814000D03*
X209619000Y-38114000D03*
D14*
X217239000Y-53354000D03*
X141039000Y-45734000D03*
D15*
X133419000Y-30494000D03*
X141039000Y-43194000D03*
X133419000Y-33034000D03*
X141039000Y-40654000D03*
X133419000Y-35574000D03*
X141039000Y-38114000D03*
X133419000Y-38114000D03*
X141039000Y-35574000D03*
X133419000Y-40654000D03*
X141039000Y-33034000D03*
X133419000Y-43194000D03*
X141039000Y-30494000D03*
X133419000Y-45734000D03*
D14*
X204539000Y-45734000D03*
D15*
X196919000Y-30494000D03*
X204539000Y-43194000D03*
X196919000Y-33034000D03*
X204539000Y-40654000D03*
X196919000Y-35574000D03*
X204539000Y-38114000D03*
X196919000Y-38114000D03*
X204539000Y-35574000D03*
X196919000Y-40654000D03*
X204539000Y-33034000D03*
X196919000Y-43194000D03*
X204539000Y-30494000D03*
X196919000Y-45734000D03*
X90239000Y-87644000D03*
X97859000Y-69864000D03*
X90239000Y-85104000D03*
X97859000Y-72404000D03*
X90239000Y-82564000D03*
X97859000Y-74944000D03*
X90239000Y-80024000D03*
X97859000Y-77484000D03*
X90239000Y-77484000D03*
X97859000Y-80024000D03*
X90239000Y-74944000D03*
X97859000Y-82564000D03*
X90239000Y-72404000D03*
X97859000Y-85104000D03*
X90239000Y-69864000D03*
D14*
X97859000Y-87644000D03*
D21*
X203269000Y-63514000D03*
X198269000Y-63514000D03*
X198269000Y-59704000D03*
X203269000Y-59704000D03*
X203269000Y-55894000D03*
X198269000Y-55894000D03*
X111854000Y-50814000D03*
X116854000Y-50814000D03*
D23*
X184219000Y-63514000D03*
D17*
X191839000Y-63514000D03*
X191824000Y-59704000D03*
D23*
X184204000Y-59704000D03*
X184204000Y-55894000D03*
D17*
X191824000Y-55894000D03*
D23*
X97859000Y-43194000D03*
D17*
X90239000Y-43194000D03*
D23*
X97859000Y-47004000D03*
D17*
X90239000Y-47004000D03*
D23*
X97859000Y-50814000D03*
D17*
X90239000Y-50814000D03*
D23*
X110544000Y-47004000D03*
D17*
X118164000Y-47004000D03*
D23*
X110544000Y-54624000D03*
D17*
X118164000Y-54624000D03*
D21*
X215929000Y-93994000D03*
X210929000Y-93994000D03*
X185514000Y-52084000D03*
X190514000Y-52084000D03*
X165114000Y-52164000D03*
X160114000Y-52164000D03*
X172789000Y-57164000D03*
X177789000Y-57164000D03*
X165114000Y-93994000D03*
X160114000Y-93994000D03*
X147345000Y-93994000D03*
X152345000Y-93994000D03*
X215889000Y-57164000D03*
X210889000Y-57164000D03*
X198269000Y-49544000D03*
X203269000Y-49544000D03*
X139714000Y-49544000D03*
X134714000Y-49544000D03*
X96534000Y-91454000D03*
X91534000Y-91454000D03*
X127109000Y-104154000D03*
X132109000Y-104154000D03*
X203389000Y-93994000D03*
X198389000Y-93994000D03*
X185714000Y-93994000D03*
X190714000Y-93994000D03*
X173014000Y-93994000D03*
X178014000Y-93994000D03*
D14*
X97859000Y-60974000D03*
D15*
X90239000Y-55894000D03*
X97859000Y-58434000D03*
X90239000Y-58434000D03*
X97859000Y-55894000D03*
X90239000Y-60974000D03*
D21*
X96534000Y-95264000D03*
X91534000Y-95264000D03*
X96589000Y-66010000D03*
X91589000Y-66010000D03*
D17*
X141024000Y-53354000D03*
D23*
X133404000Y-53354000D03*
D21*
X116854000Y-43194000D03*
X111854000Y-43194000D03*
D17*
X141024000Y-57164000D03*
D23*
X133404000Y-57164000D03*
D24*
X129594000Y-50814000D03*
D25*
X129594000Y-53354000D03*
D26*
X124179000Y-50814000D03*
X121639000Y-50814000D03*
D27*
X126719000Y-50814000D03*
M02*
