G04 #@! TF.GenerationSoftware,KiCad,Pcbnew,5.1.10*
G04 #@! TF.CreationDate,2022-04-10T18:43:58-07:00*
G04 #@! TF.ProjectId,zf_vga,7a665f76-6761-42e6-9b69-6361645f7063,rev?*
G04 #@! TF.SameCoordinates,Original*
G04 #@! TF.FileFunction,Legend,Top*
G04 #@! TF.FilePolarity,Positive*
%FSLAX46Y46*%
G04 Gerber Fmt 4.6, Leading zero omitted, Abs format (unit mm)*
G04 Created by KiCad (PCBNEW 5.1.10) date 2022-04-10 18:43:58*
%MOMM*%
%LPD*%
G01*
G04 APERTURE LIST*
%ADD10C,0.200000*%
%ADD11C,0.120000*%
%ADD12C,0.010000*%
%ADD13C,0.150000*%
G04 APERTURE END LIST*
D10*
X99049058Y-18264000D02*
X99049058Y-24064000D01*
X102049058Y-18264000D02*
X99049058Y-18264000D01*
X102049058Y-24064000D02*
X102049058Y-18264000D01*
X104919058Y-18264000D02*
X104919058Y-24064000D01*
X121179058Y-18264000D02*
X104919058Y-18264000D01*
X121179058Y-24064000D02*
X121179058Y-18264000D01*
X124049058Y-18264000D02*
X124049058Y-24064000D01*
X127049058Y-18264000D02*
X124049058Y-18264000D01*
X127049058Y-24064000D02*
X127049058Y-18264000D01*
D11*
X128454058Y-24064000D02*
X128454058Y-40484000D01*
X97644058Y-24064000D02*
X128454058Y-24064000D01*
X97644058Y-40484000D02*
X97644058Y-24064000D01*
X128454058Y-40484000D02*
X97644058Y-40484000D01*
X185979000Y-91514000D02*
X187229000Y-91514000D01*
X185979000Y-65994000D02*
X185979000Y-91514000D01*
X190479000Y-65994000D02*
X185979000Y-65994000D01*
X190479000Y-91514000D02*
X190479000Y-65994000D01*
X189229000Y-91514000D02*
X190479000Y-91514000D01*
X187229000Y-91514000D02*
G75*
G02*
X189229000Y-91514000I1000000J0D01*
G01*
X127399000Y-65994000D02*
X119743000Y-65994000D01*
X127399000Y-101674000D02*
X119743000Y-101674000D01*
X119743000Y-65994000D02*
X119743000Y-101674000D01*
X127399000Y-101674000D02*
X128649000Y-101674000D01*
X127399000Y-65994000D02*
X127399000Y-101674000D01*
X131899000Y-65994000D02*
X127399000Y-65994000D01*
X131899000Y-101674000D02*
X131899000Y-65994000D01*
X130649000Y-101674000D02*
X131899000Y-101674000D01*
X128649000Y-101674000D02*
G75*
G02*
X130649000Y-101674000I1000000J0D01*
G01*
D12*
G36*
X102376267Y-102072667D02*
G01*
X101292534Y-102072667D01*
X101292534Y-102343600D01*
X101834400Y-102343600D01*
X101834400Y-102614533D01*
X101292534Y-102614533D01*
X101292534Y-103156400D01*
X101021600Y-103156400D01*
X101021600Y-101801733D01*
X102376267Y-101801733D01*
X102376267Y-102072667D01*
G37*
X102376267Y-102072667D02*
X101292534Y-102072667D01*
X101292534Y-102343600D01*
X101834400Y-102343600D01*
X101834400Y-102614533D01*
X101292534Y-102614533D01*
X101292534Y-103156400D01*
X101021600Y-103156400D01*
X101021600Y-101801733D01*
X102376267Y-101801733D01*
X102376267Y-102072667D01*
G36*
X103189067Y-103156400D02*
G01*
X102918133Y-103156400D01*
X102918133Y-101801733D01*
X103189067Y-101801733D01*
X103189067Y-103156400D01*
G37*
X103189067Y-103156400D02*
X102918133Y-103156400D01*
X102918133Y-101801733D01*
X103189067Y-101801733D01*
X103189067Y-103156400D01*
G36*
X105085600Y-102072667D02*
G01*
X104272800Y-102072667D01*
X104272800Y-102885467D01*
X105085600Y-102885467D01*
X105085600Y-102614533D01*
X104814667Y-102614533D01*
X104814667Y-102343600D01*
X105356534Y-102343600D01*
X105356534Y-102636346D01*
X105356221Y-102744288D01*
X105354864Y-102824425D01*
X105351837Y-102882813D01*
X105346513Y-102925512D01*
X105338265Y-102958580D01*
X105326466Y-102988074D01*
X105318434Y-103004576D01*
X105262877Y-103080653D01*
X105212600Y-103117952D01*
X105191339Y-103129171D01*
X105169571Y-103137924D01*
X105143001Y-103144517D01*
X105107333Y-103149252D01*
X105058271Y-103152435D01*
X104991520Y-103154369D01*
X104902785Y-103155360D01*
X104787770Y-103155710D01*
X104679200Y-103155736D01*
X104537265Y-103155450D01*
X104425106Y-103154521D01*
X104338635Y-103152729D01*
X104273765Y-103149858D01*
X104226406Y-103145690D01*
X104192471Y-103140006D01*
X104167873Y-103132589D01*
X104157309Y-103127922D01*
X104110098Y-103095787D01*
X104064227Y-103051226D01*
X104055709Y-103040726D01*
X104010334Y-102981236D01*
X104010334Y-101976897D01*
X104055944Y-101917098D01*
X104082530Y-101884163D01*
X104109155Y-101858165D01*
X104140047Y-101838287D01*
X104179431Y-101823711D01*
X104231535Y-101813619D01*
X104300585Y-101807193D01*
X104390808Y-101803615D01*
X104506430Y-101802068D01*
X104651678Y-101801734D01*
X104652126Y-101801733D01*
X105085600Y-101801733D01*
X105085600Y-102072667D01*
G37*
X105085600Y-102072667D02*
X104272800Y-102072667D01*
X104272800Y-102885467D01*
X105085600Y-102885467D01*
X105085600Y-102614533D01*
X104814667Y-102614533D01*
X104814667Y-102343600D01*
X105356534Y-102343600D01*
X105356534Y-102636346D01*
X105356221Y-102744288D01*
X105354864Y-102824425D01*
X105351837Y-102882813D01*
X105346513Y-102925512D01*
X105338265Y-102958580D01*
X105326466Y-102988074D01*
X105318434Y-103004576D01*
X105262877Y-103080653D01*
X105212600Y-103117952D01*
X105191339Y-103129171D01*
X105169571Y-103137924D01*
X105143001Y-103144517D01*
X105107333Y-103149252D01*
X105058271Y-103152435D01*
X104991520Y-103154369D01*
X104902785Y-103155360D01*
X104787770Y-103155710D01*
X104679200Y-103155736D01*
X104537265Y-103155450D01*
X104425106Y-103154521D01*
X104338635Y-103152729D01*
X104273765Y-103149858D01*
X104226406Y-103145690D01*
X104192471Y-103140006D01*
X104167873Y-103132589D01*
X104157309Y-103127922D01*
X104110098Y-103095787D01*
X104064227Y-103051226D01*
X104055709Y-103040726D01*
X104010334Y-102981236D01*
X104010334Y-101976897D01*
X104055944Y-101917098D01*
X104082530Y-101884163D01*
X104109155Y-101858165D01*
X104140047Y-101838287D01*
X104179431Y-101823711D01*
X104231535Y-101813619D01*
X104300585Y-101807193D01*
X104390808Y-101803615D01*
X104506430Y-101802068D01*
X104651678Y-101801734D01*
X104652126Y-101801733D01*
X105085600Y-101801733D01*
X105085600Y-102072667D01*
G36*
X106440267Y-102343600D02*
G01*
X107253067Y-102343600D01*
X107253067Y-101801733D01*
X107524000Y-101801733D01*
X107524000Y-103156400D01*
X107253067Y-103156400D01*
X107253067Y-102614533D01*
X106440267Y-102614533D01*
X106440267Y-103156400D01*
X106169333Y-103156400D01*
X106169333Y-101801733D01*
X106440267Y-101801733D01*
X106440267Y-102343600D01*
G37*
X106440267Y-102343600D02*
X107253067Y-102343600D01*
X107253067Y-101801733D01*
X107524000Y-101801733D01*
X107524000Y-103156400D01*
X107253067Y-103156400D01*
X107253067Y-102614533D01*
X106440267Y-102614533D01*
X106440267Y-103156400D01*
X106169333Y-103156400D01*
X106169333Y-101801733D01*
X106440267Y-101801733D01*
X106440267Y-102343600D01*
G36*
X109691467Y-102072667D02*
G01*
X109149600Y-102072667D01*
X109149600Y-103156400D01*
X108878667Y-103156400D01*
X108878667Y-102072667D01*
X108336800Y-102072667D01*
X108336800Y-101801733D01*
X109691467Y-101801733D01*
X109691467Y-102072667D01*
G37*
X109691467Y-102072667D02*
X109149600Y-102072667D01*
X109149600Y-103156400D01*
X108878667Y-103156400D01*
X108878667Y-102072667D01*
X108336800Y-102072667D01*
X108336800Y-101801733D01*
X109691467Y-101801733D01*
X109691467Y-102072667D01*
G36*
X111858934Y-102072667D02*
G01*
X110775200Y-102072667D01*
X110775200Y-102343600D01*
X111317067Y-102343600D01*
X111317067Y-102614533D01*
X110775200Y-102614533D01*
X110775200Y-102885467D01*
X111858934Y-102885467D01*
X111858934Y-103156400D01*
X110504267Y-103156400D01*
X110504267Y-101801733D01*
X111858934Y-101801733D01*
X111858934Y-102072667D01*
G37*
X111858934Y-102072667D02*
X110775200Y-102072667D01*
X110775200Y-102343600D01*
X111317067Y-102343600D01*
X111317067Y-102614533D01*
X110775200Y-102614533D01*
X110775200Y-102885467D01*
X111858934Y-102885467D01*
X111858934Y-103156400D01*
X110504267Y-103156400D01*
X110504267Y-101801733D01*
X111858934Y-101801733D01*
X111858934Y-102072667D01*
G36*
X113405374Y-101801874D02*
G01*
X113539819Y-101802673D01*
X113647625Y-101804699D01*
X113732404Y-101808520D01*
X113797769Y-101814703D01*
X113847334Y-101823816D01*
X113884711Y-101836428D01*
X113913514Y-101853105D01*
X113937357Y-101874416D01*
X113959852Y-101900928D01*
X113971986Y-101916658D01*
X113992737Y-101946787D01*
X114006467Y-101977556D01*
X114015023Y-102017377D01*
X114020249Y-102074660D01*
X114023810Y-102152917D01*
X114030358Y-102329819D01*
X113883882Y-102479067D01*
X113955141Y-102551674D01*
X114026400Y-102624282D01*
X114026400Y-103156400D01*
X113755467Y-103156400D01*
X113755467Y-102614533D01*
X112942667Y-102614533D01*
X112942667Y-103156400D01*
X112671733Y-103156400D01*
X112671733Y-102072667D01*
X112942667Y-102072667D01*
X112942667Y-102343600D01*
X113755467Y-102343600D01*
X113755467Y-102072667D01*
X112942667Y-102072667D01*
X112671733Y-102072667D01*
X112671733Y-101801733D01*
X113240674Y-101801733D01*
X113405374Y-101801874D01*
G37*
X113405374Y-101801874D02*
X113539819Y-101802673D01*
X113647625Y-101804699D01*
X113732404Y-101808520D01*
X113797769Y-101814703D01*
X113847334Y-101823816D01*
X113884711Y-101836428D01*
X113913514Y-101853105D01*
X113937357Y-101874416D01*
X113959852Y-101900928D01*
X113971986Y-101916658D01*
X113992737Y-101946787D01*
X114006467Y-101977556D01*
X114015023Y-102017377D01*
X114020249Y-102074660D01*
X114023810Y-102152917D01*
X114030358Y-102329819D01*
X113883882Y-102479067D01*
X113955141Y-102551674D01*
X114026400Y-102624282D01*
X114026400Y-103156400D01*
X113755467Y-103156400D01*
X113755467Y-102614533D01*
X112942667Y-102614533D01*
X112942667Y-103156400D01*
X112671733Y-103156400D01*
X112671733Y-102072667D01*
X112942667Y-102072667D01*
X112942667Y-102343600D01*
X113755467Y-102343600D01*
X113755467Y-102072667D01*
X112942667Y-102072667D01*
X112671733Y-102072667D01*
X112671733Y-101801733D01*
X113240674Y-101801733D01*
X113405374Y-101801874D01*
G36*
X101825953Y-100988934D02*
G01*
X101021600Y-100988934D01*
X101021600Y-99913692D01*
X105360754Y-95574513D01*
X109699909Y-91235334D01*
X103722368Y-91235334D01*
X102638733Y-92319067D01*
X101555099Y-93402800D01*
X101021600Y-93402800D01*
X101021600Y-90151600D01*
X112663247Y-90151600D01*
X101825953Y-100988934D01*
G37*
X101825953Y-100988934D02*
X101021600Y-100988934D01*
X101021600Y-99913692D01*
X105360754Y-95574513D01*
X109699909Y-91235334D01*
X103722368Y-91235334D01*
X102638733Y-92319067D01*
X101555099Y-93402800D01*
X101021600Y-93402800D01*
X101021600Y-90151600D01*
X112663247Y-90151600D01*
X101825953Y-100988934D01*
G36*
X114026400Y-91091376D02*
G01*
X109619512Y-95498288D01*
X105212625Y-99905200D01*
X111325633Y-99905200D01*
X113492901Y-97737734D01*
X114026400Y-97737734D01*
X114026400Y-100988934D01*
X102249287Y-100988934D01*
X107667934Y-95570267D01*
X113086580Y-90151600D01*
X114026400Y-90151600D01*
X114026400Y-91091376D01*
G37*
X114026400Y-91091376D02*
X109619512Y-95498288D01*
X105212625Y-99905200D01*
X111325633Y-99905200D01*
X113492901Y-97737734D01*
X114026400Y-97737734D01*
X114026400Y-100988934D01*
X102249287Y-100988934D01*
X107667934Y-95570267D01*
X113086580Y-90151600D01*
X114026400Y-90151600D01*
X114026400Y-91091376D01*
D11*
X179055000Y-109474000D02*
X179055000Y-97134000D01*
X179055000Y-97134000D02*
X210025000Y-97134000D01*
X210025000Y-97134000D02*
X210025000Y-109474000D01*
X144774000Y-109474000D02*
X144774000Y-97134000D01*
X144774000Y-97134000D02*
X175744000Y-97134000D01*
X175744000Y-97134000D02*
X175744000Y-109474000D01*
X219129000Y-78654000D02*
X207729000Y-78654000D01*
X207729000Y-78654000D02*
G75*
G03*
X206979000Y-79404000I0J-750000D01*
G01*
X219879000Y-79404000D02*
G75*
G03*
X219129000Y-78654000I-750000J0D01*
G01*
X207729000Y-91744000D02*
X219879000Y-91744000D01*
X206979000Y-71594000D02*
X206979000Y-90994000D01*
X219129000Y-70844000D02*
X207729000Y-70844000D01*
X219879000Y-91744000D02*
X219879000Y-71594000D01*
X206979000Y-90994000D02*
G75*
G03*
X207729000Y-91744000I750000J0D01*
G01*
X207729000Y-70844000D02*
G75*
G03*
X206979000Y-71594000I0J-750000D01*
G01*
X219879000Y-71594000D02*
G75*
G03*
X219129000Y-70844000I-750000J0D01*
G01*
X153784000Y-55794000D02*
X153784000Y-58534000D01*
X146044000Y-55794000D02*
X146044000Y-58534000D01*
X146044000Y-58534000D02*
X153784000Y-58534000D01*
X146044000Y-55794000D02*
X153784000Y-55794000D01*
X173079000Y-54684000D02*
X174329000Y-54684000D01*
X173079000Y-29164000D02*
X173079000Y-54684000D01*
X177579000Y-29164000D02*
X173079000Y-29164000D01*
X177579000Y-54684000D02*
X177579000Y-29164000D01*
X176329000Y-54684000D02*
X177579000Y-54684000D01*
X174329000Y-54684000D02*
G75*
G02*
X176329000Y-54684000I1000000J0D01*
G01*
X198479000Y-91514000D02*
X199729000Y-91514000D01*
X198479000Y-65994000D02*
X198479000Y-91514000D01*
X202979000Y-65994000D02*
X198479000Y-65994000D01*
X202979000Y-91514000D02*
X202979000Y-65994000D01*
X201729000Y-91514000D02*
X202979000Y-91514000D01*
X199729000Y-91514000D02*
G75*
G02*
X201729000Y-91514000I1000000J0D01*
G01*
X185779000Y-49604000D02*
X187029000Y-49604000D01*
X185779000Y-29164000D02*
X185779000Y-49604000D01*
X190279000Y-29164000D02*
X185779000Y-29164000D01*
X190279000Y-49604000D02*
X190279000Y-29164000D01*
X189029000Y-49604000D02*
X190279000Y-49604000D01*
X187029000Y-49604000D02*
G75*
G02*
X189029000Y-49604000I1000000J0D01*
G01*
X173279000Y-91514000D02*
X174529000Y-91514000D01*
X173279000Y-65994000D02*
X173279000Y-91514000D01*
X177779000Y-65994000D02*
X173279000Y-65994000D01*
X177779000Y-91514000D02*
X177779000Y-65994000D01*
X176529000Y-91514000D02*
X177779000Y-91514000D01*
X174529000Y-91514000D02*
G75*
G02*
X176529000Y-91514000I1000000J0D01*
G01*
X160379000Y-49604000D02*
X161629000Y-49604000D01*
X160379000Y-29164000D02*
X160379000Y-49604000D01*
X164879000Y-29164000D02*
X160379000Y-29164000D01*
X164879000Y-49604000D02*
X164879000Y-29164000D01*
X163629000Y-49604000D02*
X164879000Y-49604000D01*
X161629000Y-49604000D02*
G75*
G02*
X163629000Y-49604000I1000000J0D01*
G01*
X160379000Y-91514000D02*
X161629000Y-91514000D01*
X160379000Y-65994000D02*
X160379000Y-91514000D01*
X164879000Y-65994000D02*
X160379000Y-65994000D01*
X164879000Y-91514000D02*
X164879000Y-65994000D01*
X163629000Y-91514000D02*
X164879000Y-91514000D01*
X161629000Y-91514000D02*
G75*
G02*
X163629000Y-91514000I1000000J0D01*
G01*
X150860000Y-91514000D02*
X152110000Y-91514000D01*
X152110000Y-91514000D02*
X152110000Y-65994000D01*
X152110000Y-65994000D02*
X147610000Y-65994000D01*
X147610000Y-65994000D02*
X147610000Y-91514000D01*
X147610000Y-91514000D02*
X148860000Y-91514000D01*
X148860000Y-91514000D02*
G75*
G02*
X150860000Y-91514000I1000000J0D01*
G01*
X147679000Y-54684000D02*
X148929000Y-54684000D01*
X147679000Y-29164000D02*
X147679000Y-54684000D01*
X152179000Y-29164000D02*
X147679000Y-29164000D01*
X152179000Y-54684000D02*
X152179000Y-29164000D01*
X150929000Y-54684000D02*
X152179000Y-54684000D01*
X148929000Y-54684000D02*
G75*
G02*
X150929000Y-54684000I1000000J0D01*
G01*
X214429000Y-54684000D02*
X215679000Y-54684000D01*
X215679000Y-54684000D02*
X215679000Y-36784000D01*
X215679000Y-36784000D02*
X211179000Y-36784000D01*
X211179000Y-36784000D02*
X211179000Y-54684000D01*
X211179000Y-54684000D02*
X212429000Y-54684000D01*
X212429000Y-54684000D02*
G75*
G02*
X214429000Y-54684000I1000000J0D01*
G01*
X134979000Y-47064000D02*
X136229000Y-47064000D01*
X134979000Y-29164000D02*
X134979000Y-47064000D01*
X139479000Y-29164000D02*
X134979000Y-29164000D01*
X139479000Y-47064000D02*
X139479000Y-29164000D01*
X138229000Y-47064000D02*
X139479000Y-47064000D01*
X136229000Y-47064000D02*
G75*
G02*
X138229000Y-47064000I1000000J0D01*
G01*
X198479000Y-47064000D02*
X199729000Y-47064000D01*
X198479000Y-29164000D02*
X198479000Y-47064000D01*
X202979000Y-29164000D02*
X198479000Y-29164000D01*
X202979000Y-47064000D02*
X202979000Y-29164000D01*
X201729000Y-47064000D02*
X202979000Y-47064000D01*
X199729000Y-47064000D02*
G75*
G02*
X201729000Y-47064000I1000000J0D01*
G01*
X95049000Y-88974000D02*
X96299000Y-88974000D01*
X96299000Y-88974000D02*
X96299000Y-68534000D01*
X96299000Y-68534000D02*
X91799000Y-68534000D01*
X91799000Y-68534000D02*
X91799000Y-88974000D01*
X91799000Y-88974000D02*
X93049000Y-88974000D01*
X93049000Y-88974000D02*
G75*
G02*
X95049000Y-88974000I1000000J0D01*
G01*
X204639000Y-64884000D02*
X196899000Y-64884000D01*
X204639000Y-62144000D02*
X196899000Y-62144000D01*
X204639000Y-64884000D02*
X204639000Y-62144000D01*
X196899000Y-64884000D02*
X196899000Y-62144000D01*
X196899000Y-61074000D02*
X196899000Y-58334000D01*
X204639000Y-61074000D02*
X204639000Y-58334000D01*
X204639000Y-58334000D02*
X196899000Y-58334000D01*
X204639000Y-61074000D02*
X196899000Y-61074000D01*
X204639000Y-57264000D02*
X196899000Y-57264000D01*
X204639000Y-54524000D02*
X196899000Y-54524000D01*
X204639000Y-57264000D02*
X204639000Y-54524000D01*
X196899000Y-57264000D02*
X196899000Y-54524000D01*
X110484000Y-49444000D02*
X118224000Y-49444000D01*
X110484000Y-52184000D02*
X118224000Y-52184000D01*
X110484000Y-49444000D02*
X110484000Y-52184000D01*
X118224000Y-49444000D02*
X118224000Y-52184000D01*
X184759000Y-62144000D02*
X184759000Y-62474000D01*
X191299000Y-62144000D02*
X184759000Y-62144000D01*
X191299000Y-62474000D02*
X191299000Y-62144000D01*
X184759000Y-64884000D02*
X184759000Y-64554000D01*
X191299000Y-64884000D02*
X184759000Y-64884000D01*
X191299000Y-64554000D02*
X191299000Y-64884000D01*
X191284000Y-60744000D02*
X191284000Y-61074000D01*
X191284000Y-61074000D02*
X184744000Y-61074000D01*
X184744000Y-61074000D02*
X184744000Y-60744000D01*
X191284000Y-58664000D02*
X191284000Y-58334000D01*
X191284000Y-58334000D02*
X184744000Y-58334000D01*
X184744000Y-58334000D02*
X184744000Y-58664000D01*
X184744000Y-54524000D02*
X184744000Y-54854000D01*
X191284000Y-54524000D02*
X184744000Y-54524000D01*
X191284000Y-54854000D02*
X191284000Y-54524000D01*
X184744000Y-57264000D02*
X184744000Y-56934000D01*
X191284000Y-57264000D02*
X184744000Y-57264000D01*
X191284000Y-56934000D02*
X191284000Y-57264000D01*
X97319000Y-44564000D02*
X97319000Y-44234000D01*
X90779000Y-44564000D02*
X97319000Y-44564000D01*
X90779000Y-44234000D02*
X90779000Y-44564000D01*
X97319000Y-41824000D02*
X97319000Y-42154000D01*
X90779000Y-41824000D02*
X97319000Y-41824000D01*
X90779000Y-42154000D02*
X90779000Y-41824000D01*
X97319000Y-48374000D02*
X97319000Y-48044000D01*
X90779000Y-48374000D02*
X97319000Y-48374000D01*
X90779000Y-48044000D02*
X90779000Y-48374000D01*
X97319000Y-45634000D02*
X97319000Y-45964000D01*
X90779000Y-45634000D02*
X97319000Y-45634000D01*
X90779000Y-45964000D02*
X90779000Y-45634000D01*
X97319000Y-52184000D02*
X97319000Y-51854000D01*
X90779000Y-52184000D02*
X97319000Y-52184000D01*
X90779000Y-51854000D02*
X90779000Y-52184000D01*
X97319000Y-49444000D02*
X97319000Y-49774000D01*
X90779000Y-49444000D02*
X97319000Y-49444000D01*
X90779000Y-49774000D02*
X90779000Y-49444000D01*
X111084000Y-45634000D02*
X111084000Y-45964000D01*
X117624000Y-45634000D02*
X111084000Y-45634000D01*
X117624000Y-45964000D02*
X117624000Y-45634000D01*
X111084000Y-48374000D02*
X111084000Y-48044000D01*
X117624000Y-48374000D02*
X111084000Y-48374000D01*
X117624000Y-48044000D02*
X117624000Y-48374000D01*
X111084000Y-53254000D02*
X111084000Y-53584000D01*
X117624000Y-53254000D02*
X111084000Y-53254000D01*
X117624000Y-53584000D02*
X117624000Y-53254000D01*
X111084000Y-55994000D02*
X111084000Y-55664000D01*
X117624000Y-55994000D02*
X111084000Y-55994000D01*
X117624000Y-55664000D02*
X117624000Y-55994000D01*
X209559000Y-92624000D02*
X217299000Y-92624000D01*
X209559000Y-95364000D02*
X217299000Y-95364000D01*
X209559000Y-92624000D02*
X209559000Y-95364000D01*
X217299000Y-92624000D02*
X217299000Y-95364000D01*
X191884000Y-50714000D02*
X191884000Y-53454000D01*
X184144000Y-50714000D02*
X184144000Y-53454000D01*
X184144000Y-53454000D02*
X191884000Y-53454000D01*
X184144000Y-50714000D02*
X191884000Y-50714000D01*
X158744000Y-50794000D02*
X166484000Y-50794000D01*
X158744000Y-53534000D02*
X166484000Y-53534000D01*
X158744000Y-50794000D02*
X158744000Y-53534000D01*
X166484000Y-50794000D02*
X166484000Y-53534000D01*
X179159000Y-55794000D02*
X179159000Y-58534000D01*
X171419000Y-55794000D02*
X171419000Y-58534000D01*
X171419000Y-58534000D02*
X179159000Y-58534000D01*
X171419000Y-55794000D02*
X179159000Y-55794000D01*
X158744000Y-92624000D02*
X166484000Y-92624000D01*
X158744000Y-95364000D02*
X166484000Y-95364000D01*
X158744000Y-92624000D02*
X158744000Y-95364000D01*
X166484000Y-92624000D02*
X166484000Y-95364000D01*
X153715000Y-92624000D02*
X153715000Y-95364000D01*
X145975000Y-92624000D02*
X145975000Y-95364000D01*
X145975000Y-95364000D02*
X153715000Y-95364000D01*
X145975000Y-92624000D02*
X153715000Y-92624000D01*
X209519000Y-55794000D02*
X217259000Y-55794000D01*
X209519000Y-58534000D02*
X217259000Y-58534000D01*
X209519000Y-55794000D02*
X209519000Y-58534000D01*
X217259000Y-55794000D02*
X217259000Y-58534000D01*
X204639000Y-48174000D02*
X204639000Y-50914000D01*
X196899000Y-48174000D02*
X196899000Y-50914000D01*
X196899000Y-50914000D02*
X204639000Y-50914000D01*
X196899000Y-48174000D02*
X204639000Y-48174000D01*
X133344000Y-48174000D02*
X141084000Y-48174000D01*
X133344000Y-50914000D02*
X141084000Y-50914000D01*
X133344000Y-48174000D02*
X133344000Y-50914000D01*
X141084000Y-48174000D02*
X141084000Y-50914000D01*
X90164000Y-90084000D02*
X97904000Y-90084000D01*
X90164000Y-92824000D02*
X97904000Y-92824000D01*
X90164000Y-90084000D02*
X90164000Y-92824000D01*
X97904000Y-90084000D02*
X97904000Y-92824000D01*
X133479000Y-102784000D02*
X133479000Y-105524000D01*
X125739000Y-102784000D02*
X125739000Y-105524000D01*
X125739000Y-105524000D02*
X133479000Y-105524000D01*
X125739000Y-102784000D02*
X133479000Y-102784000D01*
X197019000Y-92624000D02*
X204759000Y-92624000D01*
X197019000Y-95364000D02*
X204759000Y-95364000D01*
X197019000Y-92624000D02*
X197019000Y-95364000D01*
X204759000Y-92624000D02*
X204759000Y-95364000D01*
X192084000Y-92624000D02*
X192084000Y-95364000D01*
X184344000Y-92624000D02*
X184344000Y-95364000D01*
X184344000Y-95364000D02*
X192084000Y-95364000D01*
X184344000Y-92624000D02*
X192084000Y-92624000D01*
X179384000Y-92624000D02*
X179384000Y-95364000D01*
X171644000Y-92624000D02*
X171644000Y-95364000D01*
X171644000Y-95364000D02*
X179384000Y-95364000D01*
X171644000Y-92624000D02*
X179384000Y-92624000D01*
X91799000Y-62304000D02*
X93049000Y-62304000D01*
X91799000Y-54564000D02*
X91799000Y-62304000D01*
X96299000Y-54564000D02*
X91799000Y-54564000D01*
X96299000Y-62304000D02*
X96299000Y-54564000D01*
X95049000Y-62304000D02*
X96299000Y-62304000D01*
X93049000Y-62304000D02*
G75*
G02*
X95049000Y-62304000I1000000J0D01*
G01*
X90164000Y-93894000D02*
X97904000Y-93894000D01*
X90164000Y-96634000D02*
X97904000Y-96634000D01*
X90164000Y-93894000D02*
X90164000Y-96634000D01*
X97904000Y-93894000D02*
X97904000Y-96634000D01*
X90219000Y-66154000D02*
X90219000Y-63414000D01*
X97959000Y-66154000D02*
X97959000Y-63414000D01*
X97959000Y-63414000D02*
X90219000Y-63414000D01*
X97959000Y-66154000D02*
X90219000Y-66154000D01*
X133944000Y-51984000D02*
X133944000Y-52314000D01*
X140484000Y-51984000D02*
X133944000Y-51984000D01*
X140484000Y-52314000D02*
X140484000Y-51984000D01*
X133944000Y-54724000D02*
X133944000Y-54394000D01*
X140484000Y-54724000D02*
X133944000Y-54724000D01*
X140484000Y-54394000D02*
X140484000Y-54724000D01*
X110484000Y-44564000D02*
X110484000Y-41824000D01*
X118224000Y-44564000D02*
X118224000Y-41824000D01*
X118224000Y-41824000D02*
X110484000Y-41824000D01*
X118224000Y-44564000D02*
X110484000Y-44564000D01*
X133944000Y-55794000D02*
X133944000Y-56124000D01*
X140484000Y-55794000D02*
X133944000Y-55794000D01*
X140484000Y-56124000D02*
X140484000Y-55794000D01*
X133944000Y-58534000D02*
X133944000Y-58204000D01*
X140484000Y-58534000D02*
X133944000Y-58534000D01*
X140484000Y-58204000D02*
X140484000Y-58534000D01*
X126314000Y-48964000D02*
X122714000Y-48964000D01*
X122705555Y-48986316D02*
G75*
G03*
X123734000Y-53264000I1808445J-1827684D01*
G01*
X126325875Y-48972259D02*
G75*
G02*
X125334000Y-53264000I-1811875J-1841741D01*
G01*
X128264000Y-49484000D02*
X129594000Y-49484000D01*
X128264000Y-50814000D02*
X128264000Y-49484000D01*
X128264000Y-52084000D02*
X130924000Y-52084000D01*
X130924000Y-52084000D02*
X130924000Y-54684000D01*
X128264000Y-52084000D02*
X128264000Y-54684000D01*
X128264000Y-54684000D02*
X130924000Y-54684000D01*
D13*
X112715724Y-27051380D02*
X112715724Y-27765666D01*
X112668105Y-27908523D01*
X112572867Y-28003761D01*
X112430010Y-28051380D01*
X112334772Y-28051380D01*
X113096677Y-27051380D02*
X113715724Y-27051380D01*
X113382391Y-27432333D01*
X113525248Y-27432333D01*
X113620486Y-27479952D01*
X113668105Y-27527571D01*
X113715724Y-27622809D01*
X113715724Y-27860904D01*
X113668105Y-27956142D01*
X113620486Y-28003761D01*
X113525248Y-28051380D01*
X113239534Y-28051380D01*
X113144296Y-28003761D01*
X113096677Y-27956142D01*
X187681380Y-79992095D02*
X188490904Y-79992095D01*
X188586142Y-79944476D01*
X188633761Y-79896857D01*
X188681380Y-79801619D01*
X188681380Y-79611142D01*
X188633761Y-79515904D01*
X188586142Y-79468285D01*
X188490904Y-79420666D01*
X187681380Y-79420666D01*
X188681380Y-78420666D02*
X188681380Y-78992095D01*
X188681380Y-78706380D02*
X187681380Y-78706380D01*
X187824238Y-78801619D01*
X187919476Y-78896857D01*
X187967095Y-78992095D01*
X187681380Y-78087333D02*
X187681380Y-77468285D01*
X188062333Y-77801619D01*
X188062333Y-77658761D01*
X188109952Y-77563523D01*
X188157571Y-77515904D01*
X188252809Y-77468285D01*
X188490904Y-77468285D01*
X188586142Y-77515904D01*
X188633761Y-77563523D01*
X188681380Y-77658761D01*
X188681380Y-77944476D01*
X188633761Y-78039714D01*
X188586142Y-78087333D01*
X129101380Y-85072095D02*
X129910904Y-85072095D01*
X130006142Y-85024476D01*
X130053761Y-84976857D01*
X130101380Y-84881619D01*
X130101380Y-84691142D01*
X130053761Y-84595904D01*
X130006142Y-84548285D01*
X129910904Y-84500666D01*
X129101380Y-84500666D01*
X130101380Y-83500666D02*
X130101380Y-84072095D01*
X130101380Y-83786380D02*
X129101380Y-83786380D01*
X129244238Y-83881619D01*
X129339476Y-83976857D01*
X129387095Y-84072095D01*
X130101380Y-82548285D02*
X130101380Y-83119714D01*
X130101380Y-82834000D02*
X129101380Y-82834000D01*
X129244238Y-82929238D01*
X129339476Y-83024476D01*
X129387095Y-83119714D01*
X193956666Y-105491380D02*
X193956666Y-106205666D01*
X193909047Y-106348523D01*
X193813809Y-106443761D01*
X193670952Y-106491380D01*
X193575714Y-106491380D01*
X194909047Y-105491380D02*
X194432857Y-105491380D01*
X194385238Y-105967571D01*
X194432857Y-105919952D01*
X194528095Y-105872333D01*
X194766190Y-105872333D01*
X194861428Y-105919952D01*
X194909047Y-105967571D01*
X194956666Y-106062809D01*
X194956666Y-106300904D01*
X194909047Y-106396142D01*
X194861428Y-106443761D01*
X194766190Y-106491380D01*
X194528095Y-106491380D01*
X194432857Y-106443761D01*
X194385238Y-106396142D01*
X159675666Y-105364380D02*
X159675666Y-106078666D01*
X159628047Y-106221523D01*
X159532809Y-106316761D01*
X159389952Y-106364380D01*
X159294714Y-106364380D01*
X160580428Y-105697714D02*
X160580428Y-106364380D01*
X160342333Y-105316761D02*
X160104238Y-106031047D01*
X160723285Y-106031047D01*
X212813880Y-85850523D02*
X213813880Y-85183857D01*
X212813880Y-85183857D02*
X213813880Y-85850523D01*
X213813880Y-84279095D02*
X213813880Y-84850523D01*
X213813880Y-84564809D02*
X212813880Y-84564809D01*
X212956738Y-84660047D01*
X213051976Y-84755285D01*
X213099595Y-84850523D01*
X149271142Y-57585142D02*
X149223523Y-57632761D01*
X149080666Y-57680380D01*
X148985428Y-57680380D01*
X148842571Y-57632761D01*
X148747333Y-57537523D01*
X148699714Y-57442285D01*
X148652095Y-57251809D01*
X148652095Y-57108952D01*
X148699714Y-56918476D01*
X148747333Y-56823238D01*
X148842571Y-56728000D01*
X148985428Y-56680380D01*
X149080666Y-56680380D01*
X149223523Y-56728000D01*
X149271142Y-56775619D01*
X150223523Y-57680380D02*
X149652095Y-57680380D01*
X149937809Y-57680380D02*
X149937809Y-56680380D01*
X149842571Y-56823238D01*
X149747333Y-56918476D01*
X149652095Y-56966095D01*
X150842571Y-56680380D02*
X150937809Y-56680380D01*
X151033047Y-56728000D01*
X151080666Y-56775619D01*
X151128285Y-56870857D01*
X151175904Y-57061333D01*
X151175904Y-57299428D01*
X151128285Y-57489904D01*
X151080666Y-57585142D01*
X151033047Y-57632761D01*
X150937809Y-57680380D01*
X150842571Y-57680380D01*
X150747333Y-57632761D01*
X150699714Y-57585142D01*
X150652095Y-57489904D01*
X150604476Y-57299428D01*
X150604476Y-57061333D01*
X150652095Y-56870857D01*
X150699714Y-56775619D01*
X150747333Y-56728000D01*
X150842571Y-56680380D01*
X174781380Y-42685904D02*
X175590904Y-42685904D01*
X175686142Y-42638285D01*
X175733761Y-42590666D01*
X175781380Y-42495428D01*
X175781380Y-42304952D01*
X175733761Y-42209714D01*
X175686142Y-42162095D01*
X175590904Y-42114476D01*
X174781380Y-42114476D01*
X174781380Y-41733523D02*
X174781380Y-41114476D01*
X175162333Y-41447809D01*
X175162333Y-41304952D01*
X175209952Y-41209714D01*
X175257571Y-41162095D01*
X175352809Y-41114476D01*
X175590904Y-41114476D01*
X175686142Y-41162095D01*
X175733761Y-41209714D01*
X175781380Y-41304952D01*
X175781380Y-41590666D01*
X175733761Y-41685904D01*
X175686142Y-41733523D01*
X200181380Y-79992095D02*
X200990904Y-79992095D01*
X201086142Y-79944476D01*
X201133761Y-79896857D01*
X201181380Y-79801619D01*
X201181380Y-79611142D01*
X201133761Y-79515904D01*
X201086142Y-79468285D01*
X200990904Y-79420666D01*
X200181380Y-79420666D01*
X201181380Y-78420666D02*
X201181380Y-78992095D01*
X201181380Y-78706380D02*
X200181380Y-78706380D01*
X200324238Y-78801619D01*
X200419476Y-78896857D01*
X200467095Y-78992095D01*
X200276619Y-78039714D02*
X200229000Y-77992095D01*
X200181380Y-77896857D01*
X200181380Y-77658761D01*
X200229000Y-77563523D01*
X200276619Y-77515904D01*
X200371857Y-77468285D01*
X200467095Y-77468285D01*
X200609952Y-77515904D01*
X201181380Y-78087333D01*
X201181380Y-77468285D01*
X187481380Y-40145904D02*
X188290904Y-40145904D01*
X188386142Y-40098285D01*
X188433761Y-40050666D01*
X188481380Y-39955428D01*
X188481380Y-39764952D01*
X188433761Y-39669714D01*
X188386142Y-39622095D01*
X188290904Y-39574476D01*
X187481380Y-39574476D01*
X188481380Y-38574476D02*
X188481380Y-39145904D01*
X188481380Y-38860190D02*
X187481380Y-38860190D01*
X187624238Y-38955428D01*
X187719476Y-39050666D01*
X187767095Y-39145904D01*
X174981380Y-79992095D02*
X175790904Y-79992095D01*
X175886142Y-79944476D01*
X175933761Y-79896857D01*
X175981380Y-79801619D01*
X175981380Y-79611142D01*
X175933761Y-79515904D01*
X175886142Y-79468285D01*
X175790904Y-79420666D01*
X174981380Y-79420666D01*
X175981380Y-78420666D02*
X175981380Y-78992095D01*
X175981380Y-78706380D02*
X174981380Y-78706380D01*
X175124238Y-78801619D01*
X175219476Y-78896857D01*
X175267095Y-78992095D01*
X175314714Y-77563523D02*
X175981380Y-77563523D01*
X174933761Y-77801619D02*
X175648047Y-78039714D01*
X175648047Y-77420666D01*
X162081380Y-40145904D02*
X162890904Y-40145904D01*
X162986142Y-40098285D01*
X163033761Y-40050666D01*
X163081380Y-39955428D01*
X163081380Y-39764952D01*
X163033761Y-39669714D01*
X162986142Y-39622095D01*
X162890904Y-39574476D01*
X162081380Y-39574476D01*
X162176619Y-39145904D02*
X162129000Y-39098285D01*
X162081380Y-39003047D01*
X162081380Y-38764952D01*
X162129000Y-38669714D01*
X162176619Y-38622095D01*
X162271857Y-38574476D01*
X162367095Y-38574476D01*
X162509952Y-38622095D01*
X163081380Y-39193523D01*
X163081380Y-38574476D01*
X162081380Y-79515904D02*
X162890904Y-79515904D01*
X162986142Y-79468285D01*
X163033761Y-79420666D01*
X163081380Y-79325428D01*
X163081380Y-79134952D01*
X163033761Y-79039714D01*
X162986142Y-78992095D01*
X162890904Y-78944476D01*
X162081380Y-78944476D01*
X162081380Y-77992095D02*
X162081380Y-78468285D01*
X162557571Y-78515904D01*
X162509952Y-78468285D01*
X162462333Y-78373047D01*
X162462333Y-78134952D01*
X162509952Y-78039714D01*
X162557571Y-77992095D01*
X162652809Y-77944476D01*
X162890904Y-77944476D01*
X162986142Y-77992095D01*
X163033761Y-78039714D01*
X163081380Y-78134952D01*
X163081380Y-78373047D01*
X163033761Y-78468285D01*
X162986142Y-78515904D01*
X149312380Y-79515904D02*
X150121904Y-79515904D01*
X150217142Y-79468285D01*
X150264761Y-79420666D01*
X150312380Y-79325428D01*
X150312380Y-79134952D01*
X150264761Y-79039714D01*
X150217142Y-78992095D01*
X150121904Y-78944476D01*
X149312380Y-78944476D01*
X149312380Y-78039714D02*
X149312380Y-78230190D01*
X149360000Y-78325428D01*
X149407619Y-78373047D01*
X149550476Y-78468285D01*
X149740952Y-78515904D01*
X150121904Y-78515904D01*
X150217142Y-78468285D01*
X150264761Y-78420666D01*
X150312380Y-78325428D01*
X150312380Y-78134952D01*
X150264761Y-78039714D01*
X150217142Y-77992095D01*
X150121904Y-77944476D01*
X149883809Y-77944476D01*
X149788571Y-77992095D01*
X149740952Y-78039714D01*
X149693333Y-78134952D01*
X149693333Y-78325428D01*
X149740952Y-78420666D01*
X149788571Y-78468285D01*
X149883809Y-78515904D01*
X149381380Y-42685904D02*
X150190904Y-42685904D01*
X150286142Y-42638285D01*
X150333761Y-42590666D01*
X150381380Y-42495428D01*
X150381380Y-42304952D01*
X150333761Y-42209714D01*
X150286142Y-42162095D01*
X150190904Y-42114476D01*
X149381380Y-42114476D01*
X149714714Y-41209714D02*
X150381380Y-41209714D01*
X149333761Y-41447809D02*
X150048047Y-41685904D01*
X150048047Y-41066857D01*
X212881380Y-46495904D02*
X213690904Y-46495904D01*
X213786142Y-46448285D01*
X213833761Y-46400666D01*
X213881380Y-46305428D01*
X213881380Y-46114952D01*
X213833761Y-46019714D01*
X213786142Y-45972095D01*
X213690904Y-45924476D01*
X212881380Y-45924476D01*
X212881380Y-45543523D02*
X212881380Y-44876857D01*
X213881380Y-45305428D01*
X136681380Y-38875904D02*
X137490904Y-38875904D01*
X137586142Y-38828285D01*
X137633761Y-38780666D01*
X137681380Y-38685428D01*
X137681380Y-38494952D01*
X137633761Y-38399714D01*
X137586142Y-38352095D01*
X137490904Y-38304476D01*
X136681380Y-38304476D01*
X137681380Y-37780666D02*
X137681380Y-37590190D01*
X137633761Y-37494952D01*
X137586142Y-37447333D01*
X137443285Y-37352095D01*
X137252809Y-37304476D01*
X136871857Y-37304476D01*
X136776619Y-37352095D01*
X136729000Y-37399714D01*
X136681380Y-37494952D01*
X136681380Y-37685428D01*
X136729000Y-37780666D01*
X136776619Y-37828285D01*
X136871857Y-37875904D01*
X137109952Y-37875904D01*
X137205190Y-37828285D01*
X137252809Y-37780666D01*
X137300428Y-37685428D01*
X137300428Y-37494952D01*
X137252809Y-37399714D01*
X137205190Y-37352095D01*
X137109952Y-37304476D01*
X200181380Y-38875904D02*
X200990904Y-38875904D01*
X201086142Y-38828285D01*
X201133761Y-38780666D01*
X201181380Y-38685428D01*
X201181380Y-38494952D01*
X201133761Y-38399714D01*
X201086142Y-38352095D01*
X200990904Y-38304476D01*
X200181380Y-38304476D01*
X200609952Y-37685428D02*
X200562333Y-37780666D01*
X200514714Y-37828285D01*
X200419476Y-37875904D01*
X200371857Y-37875904D01*
X200276619Y-37828285D01*
X200229000Y-37780666D01*
X200181380Y-37685428D01*
X200181380Y-37494952D01*
X200229000Y-37399714D01*
X200276619Y-37352095D01*
X200371857Y-37304476D01*
X200419476Y-37304476D01*
X200514714Y-37352095D01*
X200562333Y-37399714D01*
X200609952Y-37494952D01*
X200609952Y-37685428D01*
X200657571Y-37780666D01*
X200705190Y-37828285D01*
X200800428Y-37875904D01*
X200990904Y-37875904D01*
X201086142Y-37828285D01*
X201133761Y-37780666D01*
X201181380Y-37685428D01*
X201181380Y-37494952D01*
X201133761Y-37399714D01*
X201086142Y-37352095D01*
X200990904Y-37304476D01*
X200800428Y-37304476D01*
X200705190Y-37352095D01*
X200657571Y-37399714D01*
X200609952Y-37494952D01*
X93501380Y-79992095D02*
X94310904Y-79992095D01*
X94406142Y-79944476D01*
X94453761Y-79896857D01*
X94501380Y-79801619D01*
X94501380Y-79611142D01*
X94453761Y-79515904D01*
X94406142Y-79468285D01*
X94310904Y-79420666D01*
X93501380Y-79420666D01*
X94501380Y-78420666D02*
X94501380Y-78992095D01*
X94501380Y-78706380D02*
X93501380Y-78706380D01*
X93644238Y-78801619D01*
X93739476Y-78896857D01*
X93787095Y-78992095D01*
X93501380Y-77801619D02*
X93501380Y-77706380D01*
X93549000Y-77611142D01*
X93596619Y-77563523D01*
X93691857Y-77515904D01*
X93882333Y-77468285D01*
X94120428Y-77468285D01*
X94310904Y-77515904D01*
X94406142Y-77563523D01*
X94453761Y-77611142D01*
X94501380Y-77706380D01*
X94501380Y-77801619D01*
X94453761Y-77896857D01*
X94406142Y-77944476D01*
X94310904Y-77992095D01*
X94120428Y-78039714D01*
X93882333Y-78039714D01*
X93691857Y-77992095D01*
X93596619Y-77944476D01*
X93549000Y-77896857D01*
X93501380Y-77801619D01*
X200602333Y-63935142D02*
X200554714Y-63982761D01*
X200411857Y-64030380D01*
X200316619Y-64030380D01*
X200173761Y-63982761D01*
X200078523Y-63887523D01*
X200030904Y-63792285D01*
X199983285Y-63601809D01*
X199983285Y-63458952D01*
X200030904Y-63268476D01*
X200078523Y-63173238D01*
X200173761Y-63078000D01*
X200316619Y-63030380D01*
X200411857Y-63030380D01*
X200554714Y-63078000D01*
X200602333Y-63125619D01*
X201554714Y-64030380D02*
X200983285Y-64030380D01*
X201269000Y-64030380D02*
X201269000Y-63030380D01*
X201173761Y-63173238D01*
X201078523Y-63268476D01*
X200983285Y-63316095D01*
X200602333Y-60125142D02*
X200554714Y-60172761D01*
X200411857Y-60220380D01*
X200316619Y-60220380D01*
X200173761Y-60172761D01*
X200078523Y-60077523D01*
X200030904Y-59982285D01*
X199983285Y-59791809D01*
X199983285Y-59648952D01*
X200030904Y-59458476D01*
X200078523Y-59363238D01*
X200173761Y-59268000D01*
X200316619Y-59220380D01*
X200411857Y-59220380D01*
X200554714Y-59268000D01*
X200602333Y-59315619D01*
X200983285Y-59315619D02*
X201030904Y-59268000D01*
X201126142Y-59220380D01*
X201364238Y-59220380D01*
X201459476Y-59268000D01*
X201507095Y-59315619D01*
X201554714Y-59410857D01*
X201554714Y-59506095D01*
X201507095Y-59648952D01*
X200935666Y-60220380D01*
X201554714Y-60220380D01*
X200625332Y-56251142D02*
X200577713Y-56298761D01*
X200434856Y-56346380D01*
X200339618Y-56346380D01*
X200196760Y-56298761D01*
X200101522Y-56203523D01*
X200053903Y-56108285D01*
X200006284Y-55917809D01*
X200006284Y-55774952D01*
X200053903Y-55584476D01*
X200101522Y-55489238D01*
X200196760Y-55394000D01*
X200339618Y-55346380D01*
X200434856Y-55346380D01*
X200577713Y-55394000D01*
X200625332Y-55441619D01*
X200958665Y-55346380D02*
X201577713Y-55346380D01*
X201244379Y-55727333D01*
X201387237Y-55727333D01*
X201482475Y-55774952D01*
X201530094Y-55822571D01*
X201577713Y-55917809D01*
X201577713Y-56155904D01*
X201530094Y-56251142D01*
X201482475Y-56298761D01*
X201387237Y-56346380D01*
X201101522Y-56346380D01*
X201006284Y-56298761D01*
X200958665Y-56251142D01*
X114227333Y-51235142D02*
X114179714Y-51282761D01*
X114036857Y-51330380D01*
X113941619Y-51330380D01*
X113798761Y-51282761D01*
X113703523Y-51187523D01*
X113655904Y-51092285D01*
X113608285Y-50901809D01*
X113608285Y-50758952D01*
X113655904Y-50568476D01*
X113703523Y-50473238D01*
X113798761Y-50378000D01*
X113941619Y-50330380D01*
X114036857Y-50330380D01*
X114179714Y-50378000D01*
X114227333Y-50425619D01*
X115132095Y-50330380D02*
X114655904Y-50330380D01*
X114608285Y-50806571D01*
X114655904Y-50758952D01*
X114751142Y-50711333D01*
X114989238Y-50711333D01*
X115084476Y-50758952D01*
X115132095Y-50806571D01*
X115179714Y-50901809D01*
X115179714Y-51139904D01*
X115132095Y-51235142D01*
X115084476Y-51282761D01*
X114989238Y-51330380D01*
X114751142Y-51330380D01*
X114655904Y-51282761D01*
X114608285Y-51235142D01*
X187862333Y-64030380D02*
X187529000Y-63554190D01*
X187290904Y-64030380D02*
X187290904Y-63030380D01*
X187671857Y-63030380D01*
X187767095Y-63078000D01*
X187814714Y-63125619D01*
X187862333Y-63220857D01*
X187862333Y-63363714D01*
X187814714Y-63458952D01*
X187767095Y-63506571D01*
X187671857Y-63554190D01*
X187290904Y-63554190D01*
X188814714Y-64030380D02*
X188243285Y-64030380D01*
X188529000Y-64030380D02*
X188529000Y-63030380D01*
X188433761Y-63173238D01*
X188338523Y-63268476D01*
X188243285Y-63316095D01*
X187847333Y-60220380D02*
X187514000Y-59744190D01*
X187275904Y-60220380D02*
X187275904Y-59220380D01*
X187656857Y-59220380D01*
X187752095Y-59268000D01*
X187799714Y-59315619D01*
X187847333Y-59410857D01*
X187847333Y-59553714D01*
X187799714Y-59648952D01*
X187752095Y-59696571D01*
X187656857Y-59744190D01*
X187275904Y-59744190D01*
X188228285Y-59315619D02*
X188275904Y-59268000D01*
X188371142Y-59220380D01*
X188609238Y-59220380D01*
X188704476Y-59268000D01*
X188752095Y-59315619D01*
X188799714Y-59410857D01*
X188799714Y-59506095D01*
X188752095Y-59648952D01*
X188180666Y-60220380D01*
X188799714Y-60220380D01*
X187847333Y-56410380D02*
X187514000Y-55934190D01*
X187275904Y-56410380D02*
X187275904Y-55410380D01*
X187656857Y-55410380D01*
X187752095Y-55458000D01*
X187799714Y-55505619D01*
X187847333Y-55600857D01*
X187847333Y-55743714D01*
X187799714Y-55838952D01*
X187752095Y-55886571D01*
X187656857Y-55934190D01*
X187275904Y-55934190D01*
X188180666Y-55410380D02*
X188799714Y-55410380D01*
X188466380Y-55791333D01*
X188609238Y-55791333D01*
X188704476Y-55838952D01*
X188752095Y-55886571D01*
X188799714Y-55981809D01*
X188799714Y-56219904D01*
X188752095Y-56315142D01*
X188704476Y-56362761D01*
X188609238Y-56410380D01*
X188323523Y-56410380D01*
X188228285Y-56362761D01*
X188180666Y-56315142D01*
X93882333Y-43710380D02*
X93549000Y-43234190D01*
X93310904Y-43710380D02*
X93310904Y-42710380D01*
X93691857Y-42710380D01*
X93787095Y-42758000D01*
X93834714Y-42805619D01*
X93882333Y-42900857D01*
X93882333Y-43043714D01*
X93834714Y-43138952D01*
X93787095Y-43186571D01*
X93691857Y-43234190D01*
X93310904Y-43234190D01*
X94739476Y-43043714D02*
X94739476Y-43710380D01*
X94501380Y-42662761D02*
X94263285Y-43377047D01*
X94882333Y-43377047D01*
X93882333Y-47520380D02*
X93549000Y-47044190D01*
X93310904Y-47520380D02*
X93310904Y-46520380D01*
X93691857Y-46520380D01*
X93787095Y-46568000D01*
X93834714Y-46615619D01*
X93882333Y-46710857D01*
X93882333Y-46853714D01*
X93834714Y-46948952D01*
X93787095Y-46996571D01*
X93691857Y-47044190D01*
X93310904Y-47044190D01*
X94787095Y-46520380D02*
X94310904Y-46520380D01*
X94263285Y-46996571D01*
X94310904Y-46948952D01*
X94406142Y-46901333D01*
X94644238Y-46901333D01*
X94739476Y-46948952D01*
X94787095Y-46996571D01*
X94834714Y-47091809D01*
X94834714Y-47329904D01*
X94787095Y-47425142D01*
X94739476Y-47472761D01*
X94644238Y-47520380D01*
X94406142Y-47520380D01*
X94310904Y-47472761D01*
X94263285Y-47425142D01*
X93882333Y-51330380D02*
X93549000Y-50854190D01*
X93310904Y-51330380D02*
X93310904Y-50330380D01*
X93691857Y-50330380D01*
X93787095Y-50378000D01*
X93834714Y-50425619D01*
X93882333Y-50520857D01*
X93882333Y-50663714D01*
X93834714Y-50758952D01*
X93787095Y-50806571D01*
X93691857Y-50854190D01*
X93310904Y-50854190D01*
X94739476Y-50330380D02*
X94549000Y-50330380D01*
X94453761Y-50378000D01*
X94406142Y-50425619D01*
X94310904Y-50568476D01*
X94263285Y-50758952D01*
X94263285Y-51139904D01*
X94310904Y-51235142D01*
X94358523Y-51282761D01*
X94453761Y-51330380D01*
X94644238Y-51330380D01*
X94739476Y-51282761D01*
X94787095Y-51235142D01*
X94834714Y-51139904D01*
X94834714Y-50901809D01*
X94787095Y-50806571D01*
X94739476Y-50758952D01*
X94644238Y-50711333D01*
X94453761Y-50711333D01*
X94358523Y-50758952D01*
X94310904Y-50806571D01*
X94263285Y-50901809D01*
X114187333Y-47520380D02*
X113854000Y-47044190D01*
X113615904Y-47520380D02*
X113615904Y-46520380D01*
X113996857Y-46520380D01*
X114092095Y-46568000D01*
X114139714Y-46615619D01*
X114187333Y-46710857D01*
X114187333Y-46853714D01*
X114139714Y-46948952D01*
X114092095Y-46996571D01*
X113996857Y-47044190D01*
X113615904Y-47044190D01*
X114520666Y-46520380D02*
X115187333Y-46520380D01*
X114758761Y-47520380D01*
X114187333Y-55140380D02*
X113854000Y-54664190D01*
X113615904Y-55140380D02*
X113615904Y-54140380D01*
X113996857Y-54140380D01*
X114092095Y-54188000D01*
X114139714Y-54235619D01*
X114187333Y-54330857D01*
X114187333Y-54473714D01*
X114139714Y-54568952D01*
X114092095Y-54616571D01*
X113996857Y-54664190D01*
X113615904Y-54664190D01*
X114758761Y-54568952D02*
X114663523Y-54521333D01*
X114615904Y-54473714D01*
X114568285Y-54378476D01*
X114568285Y-54330857D01*
X114615904Y-54235619D01*
X114663523Y-54188000D01*
X114758761Y-54140380D01*
X114949238Y-54140380D01*
X115044476Y-54188000D01*
X115092095Y-54235619D01*
X115139714Y-54330857D01*
X115139714Y-54378476D01*
X115092095Y-54473714D01*
X115044476Y-54521333D01*
X114949238Y-54568952D01*
X114758761Y-54568952D01*
X114663523Y-54616571D01*
X114615904Y-54664190D01*
X114568285Y-54759428D01*
X114568285Y-54949904D01*
X114615904Y-55045142D01*
X114663523Y-55092761D01*
X114758761Y-55140380D01*
X114949238Y-55140380D01*
X115044476Y-55092761D01*
X115092095Y-55045142D01*
X115139714Y-54949904D01*
X115139714Y-54759428D01*
X115092095Y-54664190D01*
X115044476Y-54616571D01*
X114949238Y-54568952D01*
X212786142Y-94351142D02*
X212738523Y-94398761D01*
X212595666Y-94446380D01*
X212500428Y-94446380D01*
X212357571Y-94398761D01*
X212262333Y-94303523D01*
X212214714Y-94208285D01*
X212167095Y-94017809D01*
X212167095Y-93874952D01*
X212214714Y-93684476D01*
X212262333Y-93589238D01*
X212357571Y-93494000D01*
X212500428Y-93446380D01*
X212595666Y-93446380D01*
X212738523Y-93494000D01*
X212786142Y-93541619D01*
X213167095Y-93541619D02*
X213214714Y-93494000D01*
X213309952Y-93446380D01*
X213548047Y-93446380D01*
X213643285Y-93494000D01*
X213690904Y-93541619D01*
X213738523Y-93636857D01*
X213738523Y-93732095D01*
X213690904Y-93874952D01*
X213119476Y-94446380D01*
X213738523Y-94446380D01*
X214690904Y-94446380D02*
X214119476Y-94446380D01*
X214405190Y-94446380D02*
X214405190Y-93446380D01*
X214309952Y-93589238D01*
X214214714Y-93684476D01*
X214119476Y-93732095D01*
X187371142Y-52505142D02*
X187323523Y-52552761D01*
X187180666Y-52600380D01*
X187085428Y-52600380D01*
X186942571Y-52552761D01*
X186847333Y-52457523D01*
X186799714Y-52362285D01*
X186752095Y-52171809D01*
X186752095Y-52028952D01*
X186799714Y-51838476D01*
X186847333Y-51743238D01*
X186942571Y-51648000D01*
X187085428Y-51600380D01*
X187180666Y-51600380D01*
X187323523Y-51648000D01*
X187371142Y-51695619D01*
X187752095Y-51695619D02*
X187799714Y-51648000D01*
X187894952Y-51600380D01*
X188133047Y-51600380D01*
X188228285Y-51648000D01*
X188275904Y-51695619D01*
X188323523Y-51790857D01*
X188323523Y-51886095D01*
X188275904Y-52028952D01*
X187704476Y-52600380D01*
X188323523Y-52600380D01*
X188704476Y-51695619D02*
X188752095Y-51648000D01*
X188847333Y-51600380D01*
X189085428Y-51600380D01*
X189180666Y-51648000D01*
X189228285Y-51695619D01*
X189275904Y-51790857D01*
X189275904Y-51886095D01*
X189228285Y-52028952D01*
X188656857Y-52600380D01*
X189275904Y-52600380D01*
X162447333Y-52505142D02*
X162399714Y-52552761D01*
X162256857Y-52600380D01*
X162161619Y-52600380D01*
X162018761Y-52552761D01*
X161923523Y-52457523D01*
X161875904Y-52362285D01*
X161828285Y-52171809D01*
X161828285Y-52028952D01*
X161875904Y-51838476D01*
X161923523Y-51743238D01*
X162018761Y-51648000D01*
X162161619Y-51600380D01*
X162256857Y-51600380D01*
X162399714Y-51648000D01*
X162447333Y-51695619D01*
X163018761Y-52028952D02*
X162923523Y-51981333D01*
X162875904Y-51933714D01*
X162828285Y-51838476D01*
X162828285Y-51790857D01*
X162875904Y-51695619D01*
X162923523Y-51648000D01*
X163018761Y-51600380D01*
X163209238Y-51600380D01*
X163304476Y-51648000D01*
X163352095Y-51695619D01*
X163399714Y-51790857D01*
X163399714Y-51838476D01*
X163352095Y-51933714D01*
X163304476Y-51981333D01*
X163209238Y-52028952D01*
X163018761Y-52028952D01*
X162923523Y-52076571D01*
X162875904Y-52124190D01*
X162828285Y-52219428D01*
X162828285Y-52409904D01*
X162875904Y-52505142D01*
X162923523Y-52552761D01*
X163018761Y-52600380D01*
X163209238Y-52600380D01*
X163304476Y-52552761D01*
X163352095Y-52505142D01*
X163399714Y-52409904D01*
X163399714Y-52219428D01*
X163352095Y-52124190D01*
X163304476Y-52076571D01*
X163209238Y-52028952D01*
X175122333Y-57585142D02*
X175074714Y-57632761D01*
X174931857Y-57680380D01*
X174836619Y-57680380D01*
X174693761Y-57632761D01*
X174598523Y-57537523D01*
X174550904Y-57442285D01*
X174503285Y-57251809D01*
X174503285Y-57108952D01*
X174550904Y-56918476D01*
X174598523Y-56823238D01*
X174693761Y-56728000D01*
X174836619Y-56680380D01*
X174931857Y-56680380D01*
X175074714Y-56728000D01*
X175122333Y-56775619D01*
X175598523Y-57680380D02*
X175789000Y-57680380D01*
X175884238Y-57632761D01*
X175931857Y-57585142D01*
X176027095Y-57442285D01*
X176074714Y-57251809D01*
X176074714Y-56870857D01*
X176027095Y-56775619D01*
X175979476Y-56728000D01*
X175884238Y-56680380D01*
X175693761Y-56680380D01*
X175598523Y-56728000D01*
X175550904Y-56775619D01*
X175503285Y-56870857D01*
X175503285Y-57108952D01*
X175550904Y-57204190D01*
X175598523Y-57251809D01*
X175693761Y-57299428D01*
X175884238Y-57299428D01*
X175979476Y-57251809D01*
X176027095Y-57204190D01*
X176074714Y-57108952D01*
X161971142Y-94351142D02*
X161923523Y-94398761D01*
X161780666Y-94446380D01*
X161685428Y-94446380D01*
X161542571Y-94398761D01*
X161447333Y-94303523D01*
X161399714Y-94208285D01*
X161352095Y-94017809D01*
X161352095Y-93874952D01*
X161399714Y-93684476D01*
X161447333Y-93589238D01*
X161542571Y-93494000D01*
X161685428Y-93446380D01*
X161780666Y-93446380D01*
X161923523Y-93494000D01*
X161971142Y-93541619D01*
X162923523Y-94446380D02*
X162352095Y-94446380D01*
X162637809Y-94446380D02*
X162637809Y-93446380D01*
X162542571Y-93589238D01*
X162447333Y-93684476D01*
X162352095Y-93732095D01*
X163875904Y-94446380D02*
X163304476Y-94446380D01*
X163590190Y-94446380D02*
X163590190Y-93446380D01*
X163494952Y-93589238D01*
X163399714Y-93684476D01*
X163304476Y-93732095D01*
X149202142Y-94351142D02*
X149154523Y-94398761D01*
X149011666Y-94446380D01*
X148916428Y-94446380D01*
X148773571Y-94398761D01*
X148678333Y-94303523D01*
X148630714Y-94208285D01*
X148583095Y-94017809D01*
X148583095Y-93874952D01*
X148630714Y-93684476D01*
X148678333Y-93589238D01*
X148773571Y-93494000D01*
X148916428Y-93446380D01*
X149011666Y-93446380D01*
X149154523Y-93494000D01*
X149202142Y-93541619D01*
X150154523Y-94446380D02*
X149583095Y-94446380D01*
X149868809Y-94446380D02*
X149868809Y-93446380D01*
X149773571Y-93589238D01*
X149678333Y-93684476D01*
X149583095Y-93732095D01*
X150535476Y-93541619D02*
X150583095Y-93494000D01*
X150678333Y-93446380D01*
X150916428Y-93446380D01*
X151011666Y-93494000D01*
X151059285Y-93541619D01*
X151106904Y-93636857D01*
X151106904Y-93732095D01*
X151059285Y-93874952D01*
X150487857Y-94446380D01*
X151106904Y-94446380D01*
X212746142Y-57585142D02*
X212698523Y-57632761D01*
X212555666Y-57680380D01*
X212460428Y-57680380D01*
X212317571Y-57632761D01*
X212222333Y-57537523D01*
X212174714Y-57442285D01*
X212127095Y-57251809D01*
X212127095Y-57108952D01*
X212174714Y-56918476D01*
X212222333Y-56823238D01*
X212317571Y-56728000D01*
X212460428Y-56680380D01*
X212555666Y-56680380D01*
X212698523Y-56728000D01*
X212746142Y-56775619D01*
X213698523Y-57680380D02*
X213127095Y-57680380D01*
X213412809Y-57680380D02*
X213412809Y-56680380D01*
X213317571Y-56823238D01*
X213222333Y-56918476D01*
X213127095Y-56966095D01*
X214031857Y-56680380D02*
X214650904Y-56680380D01*
X214317571Y-57061333D01*
X214460428Y-57061333D01*
X214555666Y-57108952D01*
X214603285Y-57156571D01*
X214650904Y-57251809D01*
X214650904Y-57489904D01*
X214603285Y-57585142D01*
X214555666Y-57632761D01*
X214460428Y-57680380D01*
X214174714Y-57680380D01*
X214079476Y-57632761D01*
X214031857Y-57585142D01*
X200126142Y-49965142D02*
X200078523Y-50012761D01*
X199935666Y-50060380D01*
X199840428Y-50060380D01*
X199697571Y-50012761D01*
X199602333Y-49917523D01*
X199554714Y-49822285D01*
X199507095Y-49631809D01*
X199507095Y-49488952D01*
X199554714Y-49298476D01*
X199602333Y-49203238D01*
X199697571Y-49108000D01*
X199840428Y-49060380D01*
X199935666Y-49060380D01*
X200078523Y-49108000D01*
X200126142Y-49155619D01*
X201078523Y-50060380D02*
X200507095Y-50060380D01*
X200792809Y-50060380D02*
X200792809Y-49060380D01*
X200697571Y-49203238D01*
X200602333Y-49298476D01*
X200507095Y-49346095D01*
X201935666Y-49393714D02*
X201935666Y-50060380D01*
X201697571Y-49012761D02*
X201459476Y-49727047D01*
X202078523Y-49727047D01*
X136571142Y-49901142D02*
X136523523Y-49948761D01*
X136380666Y-49996380D01*
X136285428Y-49996380D01*
X136142571Y-49948761D01*
X136047333Y-49853523D01*
X135999714Y-49758285D01*
X135952095Y-49567809D01*
X135952095Y-49424952D01*
X135999714Y-49234476D01*
X136047333Y-49139238D01*
X136142571Y-49044000D01*
X136285428Y-48996380D01*
X136380666Y-48996380D01*
X136523523Y-49044000D01*
X136571142Y-49091619D01*
X137523523Y-49996380D02*
X136952095Y-49996380D01*
X137237809Y-49996380D02*
X137237809Y-48996380D01*
X137142571Y-49139238D01*
X137047333Y-49234476D01*
X136952095Y-49282095D01*
X138428285Y-48996380D02*
X137952095Y-48996380D01*
X137904476Y-49472571D01*
X137952095Y-49424952D01*
X138047333Y-49377333D01*
X138285428Y-49377333D01*
X138380666Y-49424952D01*
X138428285Y-49472571D01*
X138475904Y-49567809D01*
X138475904Y-49805904D01*
X138428285Y-49901142D01*
X138380666Y-49948761D01*
X138285428Y-49996380D01*
X138047333Y-49996380D01*
X137952095Y-49948761D01*
X137904476Y-49901142D01*
X93391142Y-91748142D02*
X93343523Y-91795761D01*
X93200666Y-91843380D01*
X93105428Y-91843380D01*
X92962571Y-91795761D01*
X92867333Y-91700523D01*
X92819714Y-91605285D01*
X92772095Y-91414809D01*
X92772095Y-91271952D01*
X92819714Y-91081476D01*
X92867333Y-90986238D01*
X92962571Y-90891000D01*
X93105428Y-90843380D01*
X93200666Y-90843380D01*
X93343523Y-90891000D01*
X93391142Y-90938619D01*
X94343523Y-91843380D02*
X93772095Y-91843380D01*
X94057809Y-91843380D02*
X94057809Y-90843380D01*
X93962571Y-90986238D01*
X93867333Y-91081476D01*
X93772095Y-91129095D01*
X95200666Y-90843380D02*
X95010190Y-90843380D01*
X94914952Y-90891000D01*
X94867333Y-90938619D01*
X94772095Y-91081476D01*
X94724476Y-91271952D01*
X94724476Y-91652904D01*
X94772095Y-91748142D01*
X94819714Y-91795761D01*
X94914952Y-91843380D01*
X95105428Y-91843380D01*
X95200666Y-91795761D01*
X95248285Y-91748142D01*
X95295904Y-91652904D01*
X95295904Y-91414809D01*
X95248285Y-91319571D01*
X95200666Y-91271952D01*
X95105428Y-91224333D01*
X94914952Y-91224333D01*
X94819714Y-91271952D01*
X94772095Y-91319571D01*
X94724476Y-91414809D01*
X128966142Y-104511142D02*
X128918523Y-104558761D01*
X128775666Y-104606380D01*
X128680428Y-104606380D01*
X128537571Y-104558761D01*
X128442333Y-104463523D01*
X128394714Y-104368285D01*
X128347095Y-104177809D01*
X128347095Y-104034952D01*
X128394714Y-103844476D01*
X128442333Y-103749238D01*
X128537571Y-103654000D01*
X128680428Y-103606380D01*
X128775666Y-103606380D01*
X128918523Y-103654000D01*
X128966142Y-103701619D01*
X129918523Y-104606380D02*
X129347095Y-104606380D01*
X129632809Y-104606380D02*
X129632809Y-103606380D01*
X129537571Y-103749238D01*
X129442333Y-103844476D01*
X129347095Y-103892095D01*
X130251857Y-103606380D02*
X130918523Y-103606380D01*
X130489952Y-104606380D01*
X200246142Y-94351142D02*
X200198523Y-94398761D01*
X200055666Y-94446380D01*
X199960428Y-94446380D01*
X199817571Y-94398761D01*
X199722333Y-94303523D01*
X199674714Y-94208285D01*
X199627095Y-94017809D01*
X199627095Y-93874952D01*
X199674714Y-93684476D01*
X199722333Y-93589238D01*
X199817571Y-93494000D01*
X199960428Y-93446380D01*
X200055666Y-93446380D01*
X200198523Y-93494000D01*
X200246142Y-93541619D01*
X201198523Y-94446380D02*
X200627095Y-94446380D01*
X200912809Y-94446380D02*
X200912809Y-93446380D01*
X200817571Y-93589238D01*
X200722333Y-93684476D01*
X200627095Y-93732095D01*
X201769952Y-93874952D02*
X201674714Y-93827333D01*
X201627095Y-93779714D01*
X201579476Y-93684476D01*
X201579476Y-93636857D01*
X201627095Y-93541619D01*
X201674714Y-93494000D01*
X201769952Y-93446380D01*
X201960428Y-93446380D01*
X202055666Y-93494000D01*
X202103285Y-93541619D01*
X202150904Y-93636857D01*
X202150904Y-93684476D01*
X202103285Y-93779714D01*
X202055666Y-93827333D01*
X201960428Y-93874952D01*
X201769952Y-93874952D01*
X201674714Y-93922571D01*
X201627095Y-93970190D01*
X201579476Y-94065428D01*
X201579476Y-94255904D01*
X201627095Y-94351142D01*
X201674714Y-94398761D01*
X201769952Y-94446380D01*
X201960428Y-94446380D01*
X202055666Y-94398761D01*
X202103285Y-94351142D01*
X202150904Y-94255904D01*
X202150904Y-94065428D01*
X202103285Y-93970190D01*
X202055666Y-93922571D01*
X201960428Y-93874952D01*
X187571142Y-94351142D02*
X187523523Y-94398761D01*
X187380666Y-94446380D01*
X187285428Y-94446380D01*
X187142571Y-94398761D01*
X187047333Y-94303523D01*
X186999714Y-94208285D01*
X186952095Y-94017809D01*
X186952095Y-93874952D01*
X186999714Y-93684476D01*
X187047333Y-93589238D01*
X187142571Y-93494000D01*
X187285428Y-93446380D01*
X187380666Y-93446380D01*
X187523523Y-93494000D01*
X187571142Y-93541619D01*
X188523523Y-94446380D02*
X187952095Y-94446380D01*
X188237809Y-94446380D02*
X188237809Y-93446380D01*
X188142571Y-93589238D01*
X188047333Y-93684476D01*
X187952095Y-93732095D01*
X188999714Y-94446380D02*
X189190190Y-94446380D01*
X189285428Y-94398761D01*
X189333047Y-94351142D01*
X189428285Y-94208285D01*
X189475904Y-94017809D01*
X189475904Y-93636857D01*
X189428285Y-93541619D01*
X189380666Y-93494000D01*
X189285428Y-93446380D01*
X189094952Y-93446380D01*
X188999714Y-93494000D01*
X188952095Y-93541619D01*
X188904476Y-93636857D01*
X188904476Y-93874952D01*
X188952095Y-93970190D01*
X188999714Y-94017809D01*
X189094952Y-94065428D01*
X189285428Y-94065428D01*
X189380666Y-94017809D01*
X189428285Y-93970190D01*
X189475904Y-93874952D01*
X174911142Y-94351142D02*
X174863523Y-94398761D01*
X174720666Y-94446380D01*
X174625428Y-94446380D01*
X174482571Y-94398761D01*
X174387333Y-94303523D01*
X174339714Y-94208285D01*
X174292095Y-94017809D01*
X174292095Y-93874952D01*
X174339714Y-93684476D01*
X174387333Y-93589238D01*
X174482571Y-93494000D01*
X174625428Y-93446380D01*
X174720666Y-93446380D01*
X174863523Y-93494000D01*
X174911142Y-93541619D01*
X175292095Y-93541619D02*
X175339714Y-93494000D01*
X175434952Y-93446380D01*
X175673047Y-93446380D01*
X175768285Y-93494000D01*
X175815904Y-93541619D01*
X175863523Y-93636857D01*
X175863523Y-93732095D01*
X175815904Y-93874952D01*
X175244476Y-94446380D01*
X175863523Y-94446380D01*
X176482571Y-93446380D02*
X176577809Y-93446380D01*
X176673047Y-93494000D01*
X176720666Y-93541619D01*
X176768285Y-93636857D01*
X176815904Y-93827333D01*
X176815904Y-94065428D01*
X176768285Y-94255904D01*
X176720666Y-94351142D01*
X176673047Y-94398761D01*
X176577809Y-94446380D01*
X176482571Y-94446380D01*
X176387333Y-94398761D01*
X176339714Y-94351142D01*
X176292095Y-94255904D01*
X176244476Y-94065428D01*
X176244476Y-93827333D01*
X176292095Y-93636857D01*
X176339714Y-93541619D01*
X176387333Y-93494000D01*
X176482571Y-93446380D01*
X94453761Y-59577333D02*
X94501380Y-59434476D01*
X94501380Y-59196380D01*
X94453761Y-59101142D01*
X94406142Y-59053523D01*
X94310904Y-59005904D01*
X94215666Y-59005904D01*
X94120428Y-59053523D01*
X94072809Y-59101142D01*
X94025190Y-59196380D01*
X93977571Y-59386857D01*
X93929952Y-59482095D01*
X93882333Y-59529714D01*
X93787095Y-59577333D01*
X93691857Y-59577333D01*
X93596619Y-59529714D01*
X93549000Y-59482095D01*
X93501380Y-59386857D01*
X93501380Y-59148761D01*
X93549000Y-59005904D01*
X93501380Y-58672571D02*
X94501380Y-58434476D01*
X93787095Y-58244000D01*
X94501380Y-58053523D01*
X93501380Y-57815428D01*
X94501380Y-56910666D02*
X94501380Y-57482095D01*
X94501380Y-57196380D02*
X93501380Y-57196380D01*
X93644238Y-57291619D01*
X93739476Y-57386857D01*
X93787095Y-57482095D01*
X93867333Y-95553642D02*
X93819714Y-95601261D01*
X93676857Y-95648880D01*
X93581619Y-95648880D01*
X93438761Y-95601261D01*
X93343523Y-95506023D01*
X93295904Y-95410785D01*
X93248285Y-95220309D01*
X93248285Y-95077452D01*
X93295904Y-94886976D01*
X93343523Y-94791738D01*
X93438761Y-94696500D01*
X93581619Y-94648880D01*
X93676857Y-94648880D01*
X93819714Y-94696500D01*
X93867333Y-94744119D01*
X94724476Y-94648880D02*
X94534000Y-94648880D01*
X94438761Y-94696500D01*
X94391142Y-94744119D01*
X94295904Y-94886976D01*
X94248285Y-95077452D01*
X94248285Y-95458404D01*
X94295904Y-95553642D01*
X94343523Y-95601261D01*
X94438761Y-95648880D01*
X94629238Y-95648880D01*
X94724476Y-95601261D01*
X94772095Y-95553642D01*
X94819714Y-95458404D01*
X94819714Y-95220309D01*
X94772095Y-95125071D01*
X94724476Y-95077452D01*
X94629238Y-95029833D01*
X94438761Y-95029833D01*
X94343523Y-95077452D01*
X94295904Y-95125071D01*
X94248285Y-95220309D01*
X93922333Y-65073642D02*
X93874714Y-65121261D01*
X93731857Y-65168880D01*
X93636619Y-65168880D01*
X93493761Y-65121261D01*
X93398523Y-65026023D01*
X93350904Y-64930785D01*
X93303285Y-64740309D01*
X93303285Y-64597452D01*
X93350904Y-64406976D01*
X93398523Y-64311738D01*
X93493761Y-64216500D01*
X93636619Y-64168880D01*
X93731857Y-64168880D01*
X93874714Y-64216500D01*
X93922333Y-64264119D01*
X94255666Y-64168880D02*
X94922333Y-64168880D01*
X94493761Y-65168880D01*
X137047333Y-53738880D02*
X136714000Y-53262690D01*
X136475904Y-53738880D02*
X136475904Y-52738880D01*
X136856857Y-52738880D01*
X136952095Y-52786500D01*
X136999714Y-52834119D01*
X137047333Y-52929357D01*
X137047333Y-53072214D01*
X136999714Y-53167452D01*
X136952095Y-53215071D01*
X136856857Y-53262690D01*
X136475904Y-53262690D01*
X137523523Y-53738880D02*
X137714000Y-53738880D01*
X137809238Y-53691261D01*
X137856857Y-53643642D01*
X137952095Y-53500785D01*
X137999714Y-53310309D01*
X137999714Y-52929357D01*
X137952095Y-52834119D01*
X137904476Y-52786500D01*
X137809238Y-52738880D01*
X137618761Y-52738880D01*
X137523523Y-52786500D01*
X137475904Y-52834119D01*
X137428285Y-52929357D01*
X137428285Y-53167452D01*
X137475904Y-53262690D01*
X137523523Y-53310309D01*
X137618761Y-53357928D01*
X137809238Y-53357928D01*
X137904476Y-53310309D01*
X137952095Y-53262690D01*
X137999714Y-53167452D01*
X114187333Y-43541142D02*
X114139714Y-43588761D01*
X113996857Y-43636380D01*
X113901619Y-43636380D01*
X113758761Y-43588761D01*
X113663523Y-43493523D01*
X113615904Y-43398285D01*
X113568285Y-43207809D01*
X113568285Y-43064952D01*
X113615904Y-42874476D01*
X113663523Y-42779238D01*
X113758761Y-42684000D01*
X113901619Y-42636380D01*
X113996857Y-42636380D01*
X114139714Y-42684000D01*
X114187333Y-42731619D01*
X115044476Y-42969714D02*
X115044476Y-43636380D01*
X114806380Y-42588761D02*
X114568285Y-43303047D01*
X115187333Y-43303047D01*
X136571142Y-57616380D02*
X136237809Y-57140190D01*
X135999714Y-57616380D02*
X135999714Y-56616380D01*
X136380666Y-56616380D01*
X136475904Y-56664000D01*
X136523523Y-56711619D01*
X136571142Y-56806857D01*
X136571142Y-56949714D01*
X136523523Y-57044952D01*
X136475904Y-57092571D01*
X136380666Y-57140190D01*
X135999714Y-57140190D01*
X137523523Y-57616380D02*
X136952095Y-57616380D01*
X137237809Y-57616380D02*
X137237809Y-56616380D01*
X137142571Y-56759238D01*
X137047333Y-56854476D01*
X136952095Y-56902095D01*
X138142571Y-56616380D02*
X138237809Y-56616380D01*
X138333047Y-56664000D01*
X138380666Y-56711619D01*
X138428285Y-56806857D01*
X138475904Y-56997333D01*
X138475904Y-57235428D01*
X138428285Y-57425904D01*
X138380666Y-57521142D01*
X138333047Y-57568761D01*
X138237809Y-57616380D01*
X138142571Y-57616380D01*
X138047333Y-57568761D01*
X137999714Y-57521142D01*
X137952095Y-57425904D01*
X137904476Y-57235428D01*
X137904476Y-56997333D01*
X137952095Y-56806857D01*
X137999714Y-56711619D01*
X138047333Y-56664000D01*
X138142571Y-56616380D01*
X124418761Y-47615619D02*
X124323523Y-47568000D01*
X124228285Y-47472761D01*
X124085428Y-47329904D01*
X123990190Y-47282285D01*
X123894952Y-47282285D01*
X123942571Y-47520380D02*
X123847333Y-47472761D01*
X123752095Y-47377523D01*
X123704476Y-47187047D01*
X123704476Y-46853714D01*
X123752095Y-46663238D01*
X123847333Y-46568000D01*
X123942571Y-46520380D01*
X124133047Y-46520380D01*
X124228285Y-46568000D01*
X124323523Y-46663238D01*
X124371142Y-46853714D01*
X124371142Y-47187047D01*
X124323523Y-47377523D01*
X124228285Y-47472761D01*
X124133047Y-47520380D01*
X123942571Y-47520380D01*
X125323523Y-47520380D02*
X124752095Y-47520380D01*
X125037809Y-47520380D02*
X125037809Y-46520380D01*
X124942571Y-46663238D01*
X124847333Y-46758476D01*
X124752095Y-46806095D01*
X128760666Y-46520380D02*
X128760666Y-47234666D01*
X128713047Y-47377523D01*
X128617809Y-47472761D01*
X128474952Y-47520380D01*
X128379714Y-47520380D01*
X129236857Y-47520380D02*
X129236857Y-46520380D01*
X129617809Y-46520380D01*
X129713047Y-46568000D01*
X129760666Y-46615619D01*
X129808285Y-46710857D01*
X129808285Y-46853714D01*
X129760666Y-46948952D01*
X129713047Y-46996571D01*
X129617809Y-47044190D01*
X129236857Y-47044190D01*
X130760666Y-47520380D02*
X130189238Y-47520380D01*
X130474952Y-47520380D02*
X130474952Y-46520380D01*
X130379714Y-46663238D01*
X130284476Y-46758476D01*
X130189238Y-46806095D01*
M02*
