G04 #@! TF.GenerationSoftware,KiCad,Pcbnew,5.1.10*
G04 #@! TF.CreationDate,2022-01-21T18:07:56-08:00*
G04 #@! TF.ProjectId,Z-FIGHTER_Accessory_Board,5a2d4649-4748-4544-9552-5f4163636573,rev?*
G04 #@! TF.SameCoordinates,Original*
G04 #@! TF.FileFunction,Soldermask,Top*
G04 #@! TF.FilePolarity,Negative*
%FSLAX46Y46*%
G04 Gerber Fmt 4.6, Leading zero omitted, Abs format (unit mm)*
G04 Created by KiCad (PCBNEW 5.1.10) date 2022-01-21 18:07:56*
%MOMM*%
%LPD*%
G01*
G04 APERTURE LIST*
%ADD10R,1.700000X1.700000*%
%ADD11O,1.700000X1.700000*%
%ADD12C,2.200000*%
%ADD13C,4.000000*%
%ADD14C,1.700000*%
%ADD15C,3.050000*%
%ADD16R,1.600000X1.600000*%
%ADD17O,1.600000X1.600000*%
%ADD18C,6.400000*%
%ADD19C,1.600000*%
%ADD20R,1.500000X1.500000*%
%ADD21C,1.500000*%
G04 APERTURE END LIST*
D10*
X81500000Y-91000000D03*
D11*
X84040000Y-91000000D03*
X86580000Y-91000000D03*
X89120000Y-91000000D03*
X91660000Y-91000000D03*
X94200000Y-91000000D03*
X96740000Y-91000000D03*
X99280000Y-91000000D03*
X101820000Y-91000000D03*
X104360000Y-91000000D03*
X106900000Y-91000000D03*
X109440000Y-91000000D03*
X111980000Y-91000000D03*
X114520000Y-91000000D03*
X117060000Y-91000000D03*
X119600000Y-91000000D03*
X122140000Y-91000000D03*
X124680000Y-91000000D03*
X127220000Y-91000000D03*
X129760000Y-91000000D03*
X106780000Y-166649000D03*
X106780000Y-164109000D03*
X109320000Y-166649000D03*
X109320000Y-164109000D03*
X111860000Y-166649000D03*
X111860000Y-164109000D03*
X114400000Y-166649000D03*
X114400000Y-164109000D03*
X116940000Y-166649000D03*
X116940000Y-164109000D03*
X119480000Y-166649000D03*
X119480000Y-164109000D03*
X122020000Y-166649000D03*
X122020000Y-164109000D03*
X124560000Y-166649000D03*
X124560000Y-164109000D03*
X127100000Y-166649000D03*
X127100000Y-164109000D03*
X129640000Y-166649000D03*
X129640000Y-164109000D03*
X132180000Y-166649000D03*
X132180000Y-164109000D03*
X134720000Y-166649000D03*
X134720000Y-164109000D03*
X137260000Y-166649000D03*
D10*
X137260000Y-164109000D03*
X81500000Y-105224000D03*
D11*
X84040000Y-105224000D03*
X86580000Y-105224000D03*
X89120000Y-105224000D03*
X91660000Y-105224000D03*
X94200000Y-105224000D03*
X96740000Y-105224000D03*
X99280000Y-105224000D03*
X101820000Y-105224000D03*
X104360000Y-105224000D03*
X106900000Y-105224000D03*
X109440000Y-105224000D03*
X111980000Y-105224000D03*
X114520000Y-105224000D03*
X117060000Y-105224000D03*
X119600000Y-105224000D03*
X122140000Y-105224000D03*
X124680000Y-105224000D03*
X127220000Y-105224000D03*
X129760000Y-105224000D03*
D12*
X116540000Y-127420000D03*
X110190000Y-129960000D03*
D13*
X114000000Y-132500000D03*
D14*
X108920000Y-132500000D03*
X119080000Y-132500000D03*
D13*
X122240000Y-120600000D03*
X122240000Y-144400000D03*
D15*
X107000000Y-144400000D03*
X107000000Y-120600000D03*
D12*
X154640000Y-136945000D03*
X148290000Y-139485000D03*
D13*
X152100000Y-142025000D03*
D14*
X147020000Y-142025000D03*
X157180000Y-142025000D03*
D12*
X135590000Y-136945000D03*
X129240000Y-139485000D03*
D13*
X133050000Y-142025000D03*
D14*
X127970000Y-142025000D03*
X138130000Y-142025000D03*
D12*
X154640000Y-117895000D03*
X148290000Y-120435000D03*
D13*
X152100000Y-122975000D03*
D14*
X147020000Y-122975000D03*
X157180000Y-122975000D03*
D12*
X135590000Y-117895000D03*
X129240000Y-120435000D03*
D13*
X133050000Y-122975000D03*
D14*
X127970000Y-122975000D03*
X138130000Y-122975000D03*
X100030000Y-142025000D03*
X89870000Y-142025000D03*
D13*
X94950000Y-142025000D03*
D12*
X91140000Y-139485000D03*
X97490000Y-136945000D03*
X97490000Y-117895000D03*
X91140000Y-120435000D03*
D13*
X94950000Y-122975000D03*
D14*
X89870000Y-122975000D03*
X100030000Y-122975000D03*
D12*
X78440000Y-127420000D03*
X72090000Y-129960000D03*
D13*
X75900000Y-132500000D03*
D14*
X70820000Y-132500000D03*
X80980000Y-132500000D03*
D13*
X84140000Y-120600000D03*
X84140000Y-144400000D03*
D15*
X68900000Y-144400000D03*
X68900000Y-120600000D03*
D16*
X145825000Y-108780000D03*
D17*
X138205000Y-108780000D03*
D18*
X158000000Y-101000000D03*
D16*
X127100000Y-160261000D03*
D17*
X124560000Y-160261000D03*
X122020000Y-160261000D03*
X119480000Y-160261000D03*
X116940000Y-160261000D03*
X114400000Y-160261000D03*
X111860000Y-160261000D03*
X109320000Y-160261000D03*
X106780000Y-160261000D03*
D18*
X158000000Y-164000000D03*
X70000000Y-101000000D03*
X70000000Y-164000000D03*
D19*
X138205000Y-113860000D03*
D17*
X145825000Y-113860000D03*
X94200000Y-111320000D03*
D19*
X86580000Y-111320000D03*
D16*
X139325000Y-101000000D03*
D19*
X145825000Y-101000000D03*
D20*
X81500000Y-108780000D03*
D21*
X81500000Y-113860000D03*
X81500000Y-111320000D03*
D20*
X129760000Y-108780000D03*
D21*
X129760000Y-113860000D03*
X129760000Y-111320000D03*
M02*
