M48
INCH,TZ
T1C0.0669
T2C0.1201
T3C0.1575
%
G90
G05
T1
X27882Y-52165
X31882Y-52165
X35382Y-48415
X35382Y-55915
X39382Y-48415
X39382Y-55915
X42882Y-52165
X46882Y-52165
X50382Y-48415
X50382Y-55915
X54382Y-48415
X54382Y-55915
X57882Y-48415
X57882Y-55915
X61882Y-48415
X61882Y-55915
T2
X27126Y-47480
X27126Y-56850
X42126Y-47480
X42126Y-56850
T3
X29882Y-52165
X33126Y-47480
X33126Y-56850
X37382Y-48415
X37382Y-55915
X44882Y-52165
X48126Y-47480
X48126Y-56850
X52382Y-48415
X52382Y-55915
X59882Y-48415
X59882Y-55915
T0
M30
