M48
; DRILL file {KiCad 5.1.10} date 01/21/22 18:07:59
; FORMAT={-:-/ absolute / inch / decimal}
; #@! TF.CreationDate,2022-01-21T18:07:59-08:00
; #@! TF.GenerationSoftware,Kicad,Pcbnew,5.1.10
; #@! TF.FileFunction,NonPlated,1,2,NPTH
FMAT,2
INCH
T1C0.0669
T2C0.1201
T3C0.1575
%
G90
G05
T1
X2.7882Y-5.2165
X3.1882Y-5.2165
X3.5382Y-4.8415
X3.5382Y-5.5915
X3.9382Y-4.8415
X3.9382Y-5.5915
X4.2882Y-5.2165
X4.6882Y-5.2165
X5.0382Y-4.8415
X5.0382Y-5.5915
X5.4382Y-4.8415
X5.4382Y-5.5915
X5.7882Y-4.8415
X5.7882Y-5.5915
X6.1882Y-4.8415
X6.1882Y-5.5915
T2
X2.7126Y-4.748
X2.7126Y-5.685
X4.2126Y-4.748
X4.2126Y-5.685
T3
X2.9882Y-5.2165
X3.3126Y-4.748
X3.3126Y-5.685
X3.7382Y-4.8415
X3.7382Y-5.5915
X4.4882Y-5.2165
X4.8126Y-4.748
X4.8126Y-5.685
X5.2382Y-4.8415
X5.2382Y-5.5915
X5.9882Y-4.8415
X5.9882Y-5.5915
T0
M30
