M48
; DRILL file {KiCad 5.1.10} date 01/21/22 18:07:59
; FORMAT={-:-/ absolute / inch / decimal}
; #@! TF.CreationDate,2022-01-21T18:07:59-08:00
; #@! TF.GenerationSoftware,Kicad,Pcbnew,5.1.10
; #@! TF.FileFunction,Plated,1,2,PTH
FMAT,2
INCH
T1C0.0315
T2C0.0394
T3C0.0591
T4C0.1260
%
G90
G05
T1
X3.2087Y-4.2827
X3.2087Y-4.3827
X3.2087Y-4.4827
X3.4087Y-4.3827
X3.7087Y-4.3827
X4.2039Y-6.3095
X4.3039Y-6.3095
X4.4039Y-6.3095
X4.5039Y-6.3095
X4.6039Y-6.3095
X4.7039Y-6.3095
X4.8039Y-6.3095
X4.9039Y-6.3095
X5.0039Y-6.3095
X5.1087Y-4.2827
X5.1087Y-4.3827
X5.1087Y-4.4827
X5.4411Y-4.2827
X5.4411Y-4.4827
X5.7411Y-4.2827
X5.7411Y-4.4827
T2
X3.2087Y-3.5827
X3.2087Y-4.1427
X3.3087Y-3.5827
X3.3087Y-4.1427
X3.4087Y-3.5827
X3.4087Y-4.1427
X3.5087Y-3.5827
X3.5087Y-4.1427
X3.6087Y-3.5827
X3.6087Y-4.1427
X3.7087Y-3.5827
X3.7087Y-4.1427
X3.8087Y-3.5827
X3.8087Y-4.1427
X3.9087Y-3.5827
X3.9087Y-4.1427
X4.0087Y-3.5827
X4.0087Y-4.1427
X4.1087Y-3.5827
X4.1087Y-4.1427
X4.2039Y-6.461
X4.2039Y-6.561
X4.2087Y-3.5827
X4.2087Y-4.1427
X4.3039Y-6.461
X4.3039Y-6.561
X4.3087Y-3.5827
X4.3087Y-4.1427
X4.4039Y-6.461
X4.4039Y-6.561
X4.4087Y-3.5827
X4.4087Y-4.1427
X4.5039Y-6.461
X4.5039Y-6.561
X4.5087Y-3.5827
X4.5087Y-4.1427
X4.6039Y-6.461
X4.6039Y-6.561
X4.6087Y-3.5827
X4.6087Y-4.1427
X4.7039Y-6.461
X4.7039Y-6.561
X4.7087Y-3.5827
X4.7087Y-4.1427
X4.8039Y-6.461
X4.8039Y-6.561
X4.8087Y-3.5827
X4.8087Y-4.1427
X4.9039Y-6.461
X4.9039Y-6.561
X4.9087Y-3.5827
X4.9087Y-4.1427
X5.0039Y-6.461
X5.0039Y-6.561
X5.0087Y-3.5827
X5.0087Y-4.1427
X5.1039Y-6.461
X5.1039Y-6.561
X5.1087Y-3.5827
X5.1087Y-4.1427
X5.2039Y-6.461
X5.2039Y-6.561
X5.3039Y-6.461
X5.3039Y-6.561
X5.4039Y-6.461
X5.4039Y-6.561
X5.4852Y-3.9764
X5.7411Y-3.9764
T3
X2.8382Y-5.1165
X3.0882Y-5.0165
X3.5882Y-4.7415
X3.5882Y-5.4915
X3.8382Y-4.6415
X3.8382Y-5.3915
X4.3382Y-5.1165
X4.5882Y-5.0165
X5.0882Y-4.7415
X5.0882Y-5.4915
X5.3382Y-4.6415
X5.3382Y-5.3915
X5.8382Y-4.7415
X5.8382Y-5.4915
X6.0882Y-4.6415
X6.0882Y-5.3915
T4
X2.7559Y-3.9764
X2.7559Y-6.4567
X6.2205Y-3.9764
X6.2205Y-6.4567
T0
M30
