G04 #@! TF.GenerationSoftware,KiCad,Pcbnew,5.1.10*
G04 #@! TF.CreationDate,2022-01-21T18:07:56-08:00*
G04 #@! TF.ProjectId,Z-FIGHTER_Accessory_Board,5a2d4649-4748-4544-9552-5f4163636573,rev?*
G04 #@! TF.SameCoordinates,Original*
G04 #@! TF.FileFunction,Copper,L1,Top*
G04 #@! TF.FilePolarity,Positive*
%FSLAX46Y46*%
G04 Gerber Fmt 4.6, Leading zero omitted, Abs format (unit mm)*
G04 Created by KiCad (PCBNEW 5.1.10) date 2022-01-21 18:07:56*
%MOMM*%
%LPD*%
G01*
G04 APERTURE LIST*
G04 #@! TA.AperFunction,ComponentPad*
%ADD10R,1.700000X1.700000*%
G04 #@! TD*
G04 #@! TA.AperFunction,ComponentPad*
%ADD11O,1.700000X1.700000*%
G04 #@! TD*
G04 #@! TA.AperFunction,ComponentPad*
%ADD12C,2.200000*%
G04 #@! TD*
G04 #@! TA.AperFunction,ComponentPad*
%ADD13R,1.600000X1.600000*%
G04 #@! TD*
G04 #@! TA.AperFunction,ComponentPad*
%ADD14O,1.600000X1.600000*%
G04 #@! TD*
G04 #@! TA.AperFunction,ComponentPad*
%ADD15C,6.400000*%
G04 #@! TD*
G04 #@! TA.AperFunction,ComponentPad*
%ADD16C,1.600000*%
G04 #@! TD*
G04 #@! TA.AperFunction,ComponentPad*
%ADD17R,1.500000X1.500000*%
G04 #@! TD*
G04 #@! TA.AperFunction,ComponentPad*
%ADD18C,1.500000*%
G04 #@! TD*
G04 #@! TA.AperFunction,Conductor*
%ADD19C,0.203200*%
G04 #@! TD*
G04 #@! TA.AperFunction,Conductor*
%ADD20C,0.762000*%
G04 #@! TD*
G04 #@! TA.AperFunction,Conductor*
%ADD21C,0.254000*%
G04 #@! TD*
G04 #@! TA.AperFunction,Conductor*
%ADD22C,0.100000*%
G04 #@! TD*
G04 APERTURE END LIST*
D10*
X81500000Y-91000000D03*
D11*
X84040000Y-91000000D03*
X86580000Y-91000000D03*
X89120000Y-91000000D03*
X91660000Y-91000000D03*
X94200000Y-91000000D03*
X96740000Y-91000000D03*
X99280000Y-91000000D03*
X101820000Y-91000000D03*
X104360000Y-91000000D03*
X106900000Y-91000000D03*
X109440000Y-91000000D03*
X111980000Y-91000000D03*
X114520000Y-91000000D03*
X117060000Y-91000000D03*
X119600000Y-91000000D03*
X122140000Y-91000000D03*
X124680000Y-91000000D03*
X127220000Y-91000000D03*
X129760000Y-91000000D03*
X106780000Y-166649000D03*
X106780000Y-164109000D03*
X109320000Y-166649000D03*
X109320000Y-164109000D03*
X111860000Y-166649000D03*
X111860000Y-164109000D03*
X114400000Y-166649000D03*
X114400000Y-164109000D03*
X116940000Y-166649000D03*
X116940000Y-164109000D03*
X119480000Y-166649000D03*
X119480000Y-164109000D03*
X122020000Y-166649000D03*
X122020000Y-164109000D03*
X124560000Y-166649000D03*
X124560000Y-164109000D03*
X127100000Y-166649000D03*
X127100000Y-164109000D03*
X129640000Y-166649000D03*
X129640000Y-164109000D03*
X132180000Y-166649000D03*
X132180000Y-164109000D03*
X134720000Y-166649000D03*
X134720000Y-164109000D03*
X137260000Y-166649000D03*
D10*
X137260000Y-164109000D03*
X81500000Y-105224000D03*
D11*
X84040000Y-105224000D03*
X86580000Y-105224000D03*
X89120000Y-105224000D03*
X91660000Y-105224000D03*
X94200000Y-105224000D03*
X96740000Y-105224000D03*
X99280000Y-105224000D03*
X101820000Y-105224000D03*
X104360000Y-105224000D03*
X106900000Y-105224000D03*
X109440000Y-105224000D03*
X111980000Y-105224000D03*
X114520000Y-105224000D03*
X117060000Y-105224000D03*
X119600000Y-105224000D03*
X122140000Y-105224000D03*
X124680000Y-105224000D03*
X127220000Y-105224000D03*
X129760000Y-105224000D03*
D12*
X116540000Y-127420000D03*
X110190000Y-129960000D03*
X154640000Y-136945000D03*
X148290000Y-139485000D03*
X135590000Y-136945000D03*
X129240000Y-139485000D03*
X154640000Y-117895000D03*
X148290000Y-120435000D03*
X135590000Y-117895000D03*
X129240000Y-120435000D03*
X91140000Y-139485000D03*
X97490000Y-136945000D03*
X97490000Y-117895000D03*
X91140000Y-120435000D03*
X78440000Y-127420000D03*
X72090000Y-129960000D03*
D13*
X145825000Y-108780000D03*
D14*
X138205000Y-108780000D03*
D15*
X158000000Y-101000000D03*
D13*
X127100000Y-160261000D03*
D14*
X124560000Y-160261000D03*
X122020000Y-160261000D03*
X119480000Y-160261000D03*
X116940000Y-160261000D03*
X114400000Y-160261000D03*
X111860000Y-160261000D03*
X109320000Y-160261000D03*
X106780000Y-160261000D03*
D15*
X158000000Y-164000000D03*
X70000000Y-101000000D03*
X70000000Y-164000000D03*
D16*
X138205000Y-113860000D03*
D14*
X145825000Y-113860000D03*
X94200000Y-111320000D03*
D16*
X86580000Y-111320000D03*
D13*
X139325000Y-101000000D03*
D16*
X145825000Y-101000000D03*
D17*
X81500000Y-108780000D03*
D18*
X81500000Y-113860000D03*
X81500000Y-111320000D03*
D17*
X129760000Y-108780000D03*
D18*
X129760000Y-113860000D03*
X129760000Y-111320000D03*
D19*
X114520000Y-105605000D02*
X102110767Y-118014233D01*
X102110767Y-118014233D02*
X102110767Y-163805518D01*
X102110767Y-163805518D02*
X106215249Y-167910000D01*
X112390000Y-167910000D02*
X113120000Y-167180000D01*
X106215249Y-167910000D02*
X112390000Y-167910000D01*
X113120000Y-167180000D02*
X113120000Y-166200000D01*
X113120000Y-166200000D02*
X113940000Y-165380000D01*
X113940000Y-165380000D02*
X125829000Y-165380000D01*
X125829000Y-165380000D02*
X127100000Y-164109000D01*
X147876000Y-136945000D02*
X154640000Y-136945000D01*
X124560000Y-160261000D02*
X147876000Y-136945000D01*
X160440000Y-118220000D02*
X155640000Y-113420000D01*
X140040000Y-167940000D02*
X160440000Y-147540000D01*
X160440000Y-147540000D02*
X160440000Y-118220000D01*
X125851000Y-167940000D02*
X140040000Y-167940000D01*
X124560000Y-166649000D02*
X125851000Y-167940000D01*
X155640000Y-113420000D02*
X146385000Y-113420000D01*
X135590000Y-146691000D02*
X122020000Y-160261000D01*
X135590000Y-136945000D02*
X135590000Y-146691000D01*
X145333894Y-117895000D02*
X154640000Y-117895000D01*
X119480000Y-143748894D02*
X145333894Y-117895000D01*
X119480000Y-160261000D02*
X119480000Y-143748894D01*
X135590000Y-124082800D02*
X135590000Y-117895000D01*
X116940000Y-142732800D02*
X135590000Y-124082800D01*
X116940000Y-160261000D02*
X116940000Y-142732800D01*
X114400000Y-141370000D02*
X114400000Y-160261000D01*
X116540000Y-139230000D02*
X114400000Y-141370000D01*
X116540000Y-127420000D02*
X116540000Y-139230000D01*
X109960000Y-162890000D02*
X105480000Y-162890000D01*
X110570000Y-163500000D02*
X109960000Y-162890000D01*
X105480000Y-162890000D02*
X103330000Y-160740000D01*
X110570000Y-165359000D02*
X110570000Y-163500000D01*
X111860000Y-166649000D02*
X110570000Y-165359000D01*
X103353106Y-126955000D02*
X103330000Y-126955000D01*
X122140000Y-108168106D02*
X103353106Y-126955000D01*
X122140000Y-105605000D02*
X122140000Y-108168106D01*
X103330000Y-160740000D02*
X103330000Y-126955000D01*
X119346000Y-105605000D02*
X119600000Y-105605000D01*
X102923589Y-122027411D02*
X119346000Y-105605000D01*
X104960000Y-165490000D02*
X102923589Y-163453589D01*
X102923589Y-163453589D02*
X102923589Y-122027411D01*
X108161000Y-165490000D02*
X104960000Y-165490000D01*
X109320000Y-166649000D02*
X108161000Y-165490000D01*
X117060000Y-105605000D02*
X102517178Y-120147822D01*
X102517178Y-120147822D02*
X102517178Y-163637178D01*
X102517178Y-163637178D02*
X105529000Y-166649000D01*
X105529000Y-166649000D02*
X106780000Y-166649000D01*
D20*
X145825000Y-108780000D02*
X145825000Y-101000000D01*
X143465000Y-111140000D02*
X145825000Y-108780000D01*
X132120000Y-111140000D02*
X143465000Y-111140000D01*
X129760000Y-108780000D02*
X132120000Y-111140000D01*
X81500000Y-111420000D02*
X81840000Y-111420000D01*
X110190000Y-129960000D02*
X110190000Y-123778000D01*
X110190000Y-123778000D02*
X116653600Y-117314400D01*
X126119400Y-117314400D02*
X129240000Y-120435000D01*
X116653600Y-117314400D02*
X126119400Y-117314400D01*
X81500000Y-108780000D02*
X81500000Y-105605000D01*
D21*
X65966353Y-95685000D02*
X162033647Y-95685000D01*
X162127955Y-95675711D01*
X162259659Y-95688625D01*
X162509429Y-95764035D01*
X162739792Y-95886522D01*
X162941980Y-96051422D01*
X163108286Y-96252450D01*
X163232378Y-96481954D01*
X163309531Y-96731195D01*
X163324311Y-96871819D01*
X163315000Y-96966354D01*
X163315001Y-168033647D01*
X163324289Y-168127950D01*
X163311375Y-168259660D01*
X163235965Y-168509429D01*
X163113477Y-168739794D01*
X162948579Y-168941979D01*
X162747546Y-169108288D01*
X162518046Y-169232378D01*
X162268805Y-169309531D01*
X162128181Y-169324311D01*
X162033647Y-169315000D01*
X65966353Y-169315000D01*
X65872045Y-169324289D01*
X65740340Y-169311375D01*
X65490571Y-169235965D01*
X65260206Y-169113477D01*
X65058021Y-168948579D01*
X64891712Y-168747546D01*
X64767622Y-168518046D01*
X64690469Y-168268805D01*
X64675689Y-168128181D01*
X64685000Y-168033647D01*
X64685000Y-163622285D01*
X66165000Y-163622285D01*
X66165000Y-164377715D01*
X66312377Y-165118628D01*
X66601467Y-165816554D01*
X67021161Y-166444670D01*
X67555330Y-166978839D01*
X68183446Y-167398533D01*
X68881372Y-167687623D01*
X69622285Y-167835000D01*
X70377715Y-167835000D01*
X71118628Y-167687623D01*
X71816554Y-167398533D01*
X72444670Y-166978839D01*
X72978839Y-166444670D01*
X73398533Y-165816554D01*
X73687623Y-165118628D01*
X73835000Y-164377715D01*
X73835000Y-163622285D01*
X73687623Y-162881372D01*
X73398533Y-162183446D01*
X72978839Y-161555330D01*
X72444670Y-161021161D01*
X71816554Y-160601467D01*
X71118628Y-160312377D01*
X70377715Y-160165000D01*
X69622285Y-160165000D01*
X68881372Y-160312377D01*
X68183446Y-160601467D01*
X67555330Y-161021161D01*
X67021161Y-161555330D01*
X66601467Y-162183446D01*
X66312377Y-162881372D01*
X66165000Y-163622285D01*
X64685000Y-163622285D01*
X64685000Y-144187259D01*
X66740000Y-144187259D01*
X66740000Y-144612741D01*
X66823008Y-145030049D01*
X66985833Y-145423144D01*
X67222219Y-145776920D01*
X67523080Y-146077781D01*
X67876856Y-146314167D01*
X68269951Y-146476992D01*
X68687259Y-146560000D01*
X69112741Y-146560000D01*
X69530049Y-146476992D01*
X69923144Y-146314167D01*
X70276920Y-146077781D01*
X70577781Y-145776920D01*
X70814167Y-145423144D01*
X70976992Y-145030049D01*
X71060000Y-144612741D01*
X71060000Y-144187259D01*
X71050695Y-144140475D01*
X81505000Y-144140475D01*
X81505000Y-144659525D01*
X81606261Y-145168601D01*
X81804893Y-145648141D01*
X82093262Y-146079715D01*
X82460285Y-146446738D01*
X82891859Y-146735107D01*
X83371399Y-146933739D01*
X83880475Y-147035000D01*
X84399525Y-147035000D01*
X84908601Y-146933739D01*
X85388141Y-146735107D01*
X85819715Y-146446738D01*
X86186738Y-146079715D01*
X86475107Y-145648141D01*
X86673739Y-145168601D01*
X86775000Y-144659525D01*
X86775000Y-144140475D01*
X86673739Y-143631399D01*
X86475107Y-143151859D01*
X86186738Y-142720285D01*
X85819715Y-142353262D01*
X85388141Y-142064893D01*
X84938728Y-141878740D01*
X88385000Y-141878740D01*
X88385000Y-142171260D01*
X88442068Y-142458158D01*
X88554010Y-142728411D01*
X88716525Y-142971632D01*
X88923368Y-143178475D01*
X89166589Y-143340990D01*
X89436842Y-143452932D01*
X89723740Y-143510000D01*
X90016260Y-143510000D01*
X90303158Y-143452932D01*
X90573411Y-143340990D01*
X90816632Y-143178475D01*
X91023475Y-142971632D01*
X91185990Y-142728411D01*
X91297932Y-142458158D01*
X91355000Y-142171260D01*
X91355000Y-141878740D01*
X91332471Y-141765475D01*
X92315000Y-141765475D01*
X92315000Y-142284525D01*
X92416261Y-142793601D01*
X92614893Y-143273141D01*
X92903262Y-143704715D01*
X93270285Y-144071738D01*
X93701859Y-144360107D01*
X94181399Y-144558739D01*
X94690475Y-144660000D01*
X95209525Y-144660000D01*
X95718601Y-144558739D01*
X96198141Y-144360107D01*
X96629715Y-144071738D01*
X96996738Y-143704715D01*
X97285107Y-143273141D01*
X97483739Y-142793601D01*
X97585000Y-142284525D01*
X97585000Y-141765475D01*
X97483739Y-141256399D01*
X97285107Y-140776859D01*
X96996738Y-140345285D01*
X96629715Y-139978262D01*
X96198141Y-139689893D01*
X95718601Y-139491261D01*
X95209525Y-139390000D01*
X94690475Y-139390000D01*
X94181399Y-139491261D01*
X93701859Y-139689893D01*
X93270285Y-139978262D01*
X92903262Y-140345285D01*
X92614893Y-140776859D01*
X92416261Y-141256399D01*
X92315000Y-141765475D01*
X91332471Y-141765475D01*
X91297932Y-141591842D01*
X91185990Y-141321589D01*
X91118110Y-141220000D01*
X91310883Y-141220000D01*
X91646081Y-141153325D01*
X91961831Y-141022537D01*
X92245998Y-140832663D01*
X92487663Y-140590998D01*
X92677537Y-140306831D01*
X92808325Y-139991081D01*
X92875000Y-139655883D01*
X92875000Y-139314117D01*
X92808325Y-138978919D01*
X92677537Y-138663169D01*
X92487663Y-138379002D01*
X92245998Y-138137337D01*
X91961831Y-137947463D01*
X91646081Y-137816675D01*
X91310883Y-137750000D01*
X90969117Y-137750000D01*
X90633919Y-137816675D01*
X90318169Y-137947463D01*
X90034002Y-138137337D01*
X89792337Y-138379002D01*
X89602463Y-138663169D01*
X89471675Y-138978919D01*
X89405000Y-139314117D01*
X89405000Y-139655883D01*
X89471675Y-139991081D01*
X89602463Y-140306831D01*
X89758261Y-140540000D01*
X89723740Y-140540000D01*
X89436842Y-140597068D01*
X89166589Y-140709010D01*
X88923368Y-140871525D01*
X88716525Y-141078368D01*
X88554010Y-141321589D01*
X88442068Y-141591842D01*
X88385000Y-141878740D01*
X84938728Y-141878740D01*
X84908601Y-141866261D01*
X84399525Y-141765000D01*
X83880475Y-141765000D01*
X83371399Y-141866261D01*
X82891859Y-142064893D01*
X82460285Y-142353262D01*
X82093262Y-142720285D01*
X81804893Y-143151859D01*
X81606261Y-143631399D01*
X81505000Y-144140475D01*
X71050695Y-144140475D01*
X70976992Y-143769951D01*
X70814167Y-143376856D01*
X70577781Y-143023080D01*
X70276920Y-142722219D01*
X69923144Y-142485833D01*
X69530049Y-142323008D01*
X69112741Y-142240000D01*
X68687259Y-142240000D01*
X68269951Y-142323008D01*
X67876856Y-142485833D01*
X67523080Y-142722219D01*
X67222219Y-143023080D01*
X66985833Y-143376856D01*
X66823008Y-143769951D01*
X66740000Y-144187259D01*
X64685000Y-144187259D01*
X64685000Y-136774117D01*
X95755000Y-136774117D01*
X95755000Y-137115883D01*
X95821675Y-137451081D01*
X95952463Y-137766831D01*
X96142337Y-138050998D01*
X96384002Y-138292663D01*
X96668169Y-138482537D01*
X96983919Y-138613325D01*
X97319117Y-138680000D01*
X97660883Y-138680000D01*
X97996081Y-138613325D01*
X98311831Y-138482537D01*
X98595998Y-138292663D01*
X98837663Y-138050998D01*
X99027537Y-137766831D01*
X99158325Y-137451081D01*
X99225000Y-137115883D01*
X99225000Y-136774117D01*
X99158325Y-136438919D01*
X99027537Y-136123169D01*
X98837663Y-135839002D01*
X98595998Y-135597337D01*
X98311831Y-135407463D01*
X97996081Y-135276675D01*
X97660883Y-135210000D01*
X97319117Y-135210000D01*
X96983919Y-135276675D01*
X96668169Y-135407463D01*
X96384002Y-135597337D01*
X96142337Y-135839002D01*
X95952463Y-136123169D01*
X95821675Y-136438919D01*
X95755000Y-136774117D01*
X64685000Y-136774117D01*
X64685000Y-132353740D01*
X69335000Y-132353740D01*
X69335000Y-132646260D01*
X69392068Y-132933158D01*
X69504010Y-133203411D01*
X69666525Y-133446632D01*
X69873368Y-133653475D01*
X70116589Y-133815990D01*
X70386842Y-133927932D01*
X70673740Y-133985000D01*
X70966260Y-133985000D01*
X71253158Y-133927932D01*
X71523411Y-133815990D01*
X71766632Y-133653475D01*
X71973475Y-133446632D01*
X72135990Y-133203411D01*
X72247932Y-132933158D01*
X72305000Y-132646260D01*
X72305000Y-132353740D01*
X72282471Y-132240475D01*
X73265000Y-132240475D01*
X73265000Y-132759525D01*
X73366261Y-133268601D01*
X73564893Y-133748141D01*
X73853262Y-134179715D01*
X74220285Y-134546738D01*
X74651859Y-134835107D01*
X75131399Y-135033739D01*
X75640475Y-135135000D01*
X76159525Y-135135000D01*
X76668601Y-135033739D01*
X77148141Y-134835107D01*
X77579715Y-134546738D01*
X77946738Y-134179715D01*
X78235107Y-133748141D01*
X78433739Y-133268601D01*
X78535000Y-132759525D01*
X78535000Y-132353740D01*
X79495000Y-132353740D01*
X79495000Y-132646260D01*
X79552068Y-132933158D01*
X79664010Y-133203411D01*
X79826525Y-133446632D01*
X80033368Y-133653475D01*
X80276589Y-133815990D01*
X80546842Y-133927932D01*
X80833740Y-133985000D01*
X81126260Y-133985000D01*
X81413158Y-133927932D01*
X81683411Y-133815990D01*
X81926632Y-133653475D01*
X82133475Y-133446632D01*
X82295990Y-133203411D01*
X82407932Y-132933158D01*
X82465000Y-132646260D01*
X82465000Y-132353740D01*
X82407932Y-132066842D01*
X82295990Y-131796589D01*
X82133475Y-131553368D01*
X81926632Y-131346525D01*
X81683411Y-131184010D01*
X81413158Y-131072068D01*
X81126260Y-131015000D01*
X80833740Y-131015000D01*
X80546842Y-131072068D01*
X80276589Y-131184010D01*
X80033368Y-131346525D01*
X79826525Y-131553368D01*
X79664010Y-131796589D01*
X79552068Y-132066842D01*
X79495000Y-132353740D01*
X78535000Y-132353740D01*
X78535000Y-132240475D01*
X78433739Y-131731399D01*
X78235107Y-131251859D01*
X77946738Y-130820285D01*
X77579715Y-130453262D01*
X77148141Y-130164893D01*
X76668601Y-129966261D01*
X76159525Y-129865000D01*
X75640475Y-129865000D01*
X75131399Y-129966261D01*
X74651859Y-130164893D01*
X74220285Y-130453262D01*
X73853262Y-130820285D01*
X73564893Y-131251859D01*
X73366261Y-131731399D01*
X73265000Y-132240475D01*
X72282471Y-132240475D01*
X72247932Y-132066842D01*
X72135990Y-131796589D01*
X72068110Y-131695000D01*
X72260883Y-131695000D01*
X72596081Y-131628325D01*
X72911831Y-131497537D01*
X73195998Y-131307663D01*
X73437663Y-131065998D01*
X73627537Y-130781831D01*
X73758325Y-130466081D01*
X73825000Y-130130883D01*
X73825000Y-129789117D01*
X73758325Y-129453919D01*
X73627537Y-129138169D01*
X73437663Y-128854002D01*
X73195998Y-128612337D01*
X72911831Y-128422463D01*
X72596081Y-128291675D01*
X72260883Y-128225000D01*
X71919117Y-128225000D01*
X71583919Y-128291675D01*
X71268169Y-128422463D01*
X70984002Y-128612337D01*
X70742337Y-128854002D01*
X70552463Y-129138169D01*
X70421675Y-129453919D01*
X70355000Y-129789117D01*
X70355000Y-130130883D01*
X70421675Y-130466081D01*
X70552463Y-130781831D01*
X70708261Y-131015000D01*
X70673740Y-131015000D01*
X70386842Y-131072068D01*
X70116589Y-131184010D01*
X69873368Y-131346525D01*
X69666525Y-131553368D01*
X69504010Y-131796589D01*
X69392068Y-132066842D01*
X69335000Y-132353740D01*
X64685000Y-132353740D01*
X64685000Y-127249117D01*
X76705000Y-127249117D01*
X76705000Y-127590883D01*
X76771675Y-127926081D01*
X76902463Y-128241831D01*
X77092337Y-128525998D01*
X77334002Y-128767663D01*
X77618169Y-128957537D01*
X77933919Y-129088325D01*
X78269117Y-129155000D01*
X78610883Y-129155000D01*
X78946081Y-129088325D01*
X79261831Y-128957537D01*
X79545998Y-128767663D01*
X79787663Y-128525998D01*
X79977537Y-128241831D01*
X80108325Y-127926081D01*
X80175000Y-127590883D01*
X80175000Y-127249117D01*
X80108325Y-126913919D01*
X79977537Y-126598169D01*
X79787663Y-126314002D01*
X79545998Y-126072337D01*
X79261831Y-125882463D01*
X78946081Y-125751675D01*
X78610883Y-125685000D01*
X78269117Y-125685000D01*
X77933919Y-125751675D01*
X77618169Y-125882463D01*
X77334002Y-126072337D01*
X77092337Y-126314002D01*
X76902463Y-126598169D01*
X76771675Y-126913919D01*
X76705000Y-127249117D01*
X64685000Y-127249117D01*
X64685000Y-120387259D01*
X66740000Y-120387259D01*
X66740000Y-120812741D01*
X66823008Y-121230049D01*
X66985833Y-121623144D01*
X67222219Y-121976920D01*
X67523080Y-122277781D01*
X67876856Y-122514167D01*
X68269951Y-122676992D01*
X68687259Y-122760000D01*
X69112741Y-122760000D01*
X69530049Y-122676992D01*
X69923144Y-122514167D01*
X70276920Y-122277781D01*
X70577781Y-121976920D01*
X70814167Y-121623144D01*
X70976992Y-121230049D01*
X71060000Y-120812741D01*
X71060000Y-120387259D01*
X71050695Y-120340475D01*
X81505000Y-120340475D01*
X81505000Y-120859525D01*
X81606261Y-121368601D01*
X81804893Y-121848141D01*
X82093262Y-122279715D01*
X82460285Y-122646738D01*
X82891859Y-122935107D01*
X83371399Y-123133739D01*
X83880475Y-123235000D01*
X84399525Y-123235000D01*
X84908601Y-123133739D01*
X85388141Y-122935107D01*
X85547330Y-122828740D01*
X88385000Y-122828740D01*
X88385000Y-123121260D01*
X88442068Y-123408158D01*
X88554010Y-123678411D01*
X88716525Y-123921632D01*
X88923368Y-124128475D01*
X89166589Y-124290990D01*
X89436842Y-124402932D01*
X89723740Y-124460000D01*
X90016260Y-124460000D01*
X90303158Y-124402932D01*
X90573411Y-124290990D01*
X90816632Y-124128475D01*
X91023475Y-123921632D01*
X91185990Y-123678411D01*
X91297932Y-123408158D01*
X91355000Y-123121260D01*
X91355000Y-122828740D01*
X91332471Y-122715475D01*
X92315000Y-122715475D01*
X92315000Y-123234525D01*
X92416261Y-123743601D01*
X92614893Y-124223141D01*
X92903262Y-124654715D01*
X93270285Y-125021738D01*
X93701859Y-125310107D01*
X94181399Y-125508739D01*
X94690475Y-125610000D01*
X95209525Y-125610000D01*
X95718601Y-125508739D01*
X96198141Y-125310107D01*
X96629715Y-125021738D01*
X96996738Y-124654715D01*
X97285107Y-124223141D01*
X97483739Y-123743601D01*
X97585000Y-123234525D01*
X97585000Y-122715475D01*
X97483739Y-122206399D01*
X97285107Y-121726859D01*
X96996738Y-121295285D01*
X96629715Y-120928262D01*
X96198141Y-120639893D01*
X95718601Y-120441261D01*
X95209525Y-120340000D01*
X94690475Y-120340000D01*
X94181399Y-120441261D01*
X93701859Y-120639893D01*
X93270285Y-120928262D01*
X92903262Y-121295285D01*
X92614893Y-121726859D01*
X92416261Y-122206399D01*
X92315000Y-122715475D01*
X91332471Y-122715475D01*
X91297932Y-122541842D01*
X91185990Y-122271589D01*
X91118110Y-122170000D01*
X91310883Y-122170000D01*
X91646081Y-122103325D01*
X91961831Y-121972537D01*
X92245998Y-121782663D01*
X92487663Y-121540998D01*
X92677537Y-121256831D01*
X92808325Y-120941081D01*
X92875000Y-120605883D01*
X92875000Y-120264117D01*
X92808325Y-119928919D01*
X92677537Y-119613169D01*
X92487663Y-119329002D01*
X92245998Y-119087337D01*
X91961831Y-118897463D01*
X91646081Y-118766675D01*
X91310883Y-118700000D01*
X90969117Y-118700000D01*
X90633919Y-118766675D01*
X90318169Y-118897463D01*
X90034002Y-119087337D01*
X89792337Y-119329002D01*
X89602463Y-119613169D01*
X89471675Y-119928919D01*
X89405000Y-120264117D01*
X89405000Y-120605883D01*
X89471675Y-120941081D01*
X89602463Y-121256831D01*
X89758261Y-121490000D01*
X89723740Y-121490000D01*
X89436842Y-121547068D01*
X89166589Y-121659010D01*
X88923368Y-121821525D01*
X88716525Y-122028368D01*
X88554010Y-122271589D01*
X88442068Y-122541842D01*
X88385000Y-122828740D01*
X85547330Y-122828740D01*
X85819715Y-122646738D01*
X86186738Y-122279715D01*
X86475107Y-121848141D01*
X86673739Y-121368601D01*
X86775000Y-120859525D01*
X86775000Y-120340475D01*
X86673739Y-119831399D01*
X86475107Y-119351859D01*
X86186738Y-118920285D01*
X85819715Y-118553262D01*
X85388141Y-118264893D01*
X84908601Y-118066261D01*
X84399525Y-117965000D01*
X83880475Y-117965000D01*
X83371399Y-118066261D01*
X82891859Y-118264893D01*
X82460285Y-118553262D01*
X82093262Y-118920285D01*
X81804893Y-119351859D01*
X81606261Y-119831399D01*
X81505000Y-120340475D01*
X71050695Y-120340475D01*
X70976992Y-119969951D01*
X70814167Y-119576856D01*
X70577781Y-119223080D01*
X70276920Y-118922219D01*
X69923144Y-118685833D01*
X69530049Y-118523008D01*
X69112741Y-118440000D01*
X68687259Y-118440000D01*
X68269951Y-118523008D01*
X67876856Y-118685833D01*
X67523080Y-118922219D01*
X67222219Y-119223080D01*
X66985833Y-119576856D01*
X66823008Y-119969951D01*
X66740000Y-120387259D01*
X64685000Y-120387259D01*
X64685000Y-117724117D01*
X95755000Y-117724117D01*
X95755000Y-118065883D01*
X95821675Y-118401081D01*
X95952463Y-118716831D01*
X96142337Y-119000998D01*
X96384002Y-119242663D01*
X96668169Y-119432537D01*
X96983919Y-119563325D01*
X97319117Y-119630000D01*
X97660883Y-119630000D01*
X97996081Y-119563325D01*
X98311831Y-119432537D01*
X98595998Y-119242663D01*
X98837663Y-119000998D01*
X99027537Y-118716831D01*
X99158325Y-118401081D01*
X99225000Y-118065883D01*
X99225000Y-117724117D01*
X99158325Y-117388919D01*
X99027537Y-117073169D01*
X98837663Y-116789002D01*
X98595998Y-116547337D01*
X98311831Y-116357463D01*
X97996081Y-116226675D01*
X97660883Y-116160000D01*
X97319117Y-116160000D01*
X96983919Y-116226675D01*
X96668169Y-116357463D01*
X96384002Y-116547337D01*
X96142337Y-116789002D01*
X95952463Y-117073169D01*
X95821675Y-117388919D01*
X95755000Y-117724117D01*
X64685000Y-117724117D01*
X64685000Y-100622285D01*
X66165000Y-100622285D01*
X66165000Y-101377715D01*
X66312377Y-102118628D01*
X66601467Y-102816554D01*
X67021161Y-103444670D01*
X67555330Y-103978839D01*
X68183446Y-104398533D01*
X68881372Y-104687623D01*
X69622285Y-104835000D01*
X70377715Y-104835000D01*
X71118628Y-104687623D01*
X71816554Y-104398533D01*
X71853270Y-104374000D01*
X80011928Y-104374000D01*
X80011928Y-106074000D01*
X80024188Y-106198482D01*
X80060498Y-106318180D01*
X80119463Y-106428494D01*
X80198815Y-106525185D01*
X80295506Y-106604537D01*
X80405820Y-106663502D01*
X80484001Y-106687218D01*
X80484000Y-107452161D01*
X80395506Y-107499463D01*
X80298815Y-107578815D01*
X80219463Y-107675506D01*
X80160498Y-107785820D01*
X80124188Y-107905518D01*
X80111928Y-108030000D01*
X80111928Y-109530000D01*
X80124188Y-109654482D01*
X80160498Y-109774180D01*
X80219463Y-109884494D01*
X80298815Y-109981185D01*
X80395506Y-110060537D01*
X80505820Y-110119502D01*
X80625518Y-110155812D01*
X80733483Y-110166445D01*
X80617114Y-110244201D01*
X80424201Y-110437114D01*
X80272629Y-110663957D01*
X80168225Y-110916011D01*
X80115000Y-111183589D01*
X80115000Y-111456411D01*
X80168225Y-111723989D01*
X80272629Y-111976043D01*
X80424201Y-112202886D01*
X80617114Y-112395799D01*
X80843957Y-112547371D01*
X80946873Y-112590000D01*
X80843957Y-112632629D01*
X80617114Y-112784201D01*
X80424201Y-112977114D01*
X80272629Y-113203957D01*
X80168225Y-113456011D01*
X80115000Y-113723589D01*
X80115000Y-113996411D01*
X80168225Y-114263989D01*
X80272629Y-114516043D01*
X80424201Y-114742886D01*
X80617114Y-114935799D01*
X80843957Y-115087371D01*
X81096011Y-115191775D01*
X81363589Y-115245000D01*
X81636411Y-115245000D01*
X81903989Y-115191775D01*
X82156043Y-115087371D01*
X82382886Y-114935799D01*
X82575799Y-114742886D01*
X82727371Y-114516043D01*
X82831775Y-114263989D01*
X82885000Y-113996411D01*
X82885000Y-113723589D01*
X82831775Y-113456011D01*
X82727371Y-113203957D01*
X82575799Y-112977114D01*
X82382886Y-112784201D01*
X82156043Y-112632629D01*
X82053127Y-112590000D01*
X82156043Y-112547371D01*
X82382886Y-112395799D01*
X82575799Y-112202886D01*
X82727371Y-111976043D01*
X82831775Y-111723989D01*
X82885000Y-111456411D01*
X82885000Y-111183589D01*
X82884021Y-111178665D01*
X85145000Y-111178665D01*
X85145000Y-111461335D01*
X85200147Y-111738574D01*
X85308320Y-111999727D01*
X85465363Y-112234759D01*
X85665241Y-112434637D01*
X85900273Y-112591680D01*
X86161426Y-112699853D01*
X86438665Y-112755000D01*
X86721335Y-112755000D01*
X86998574Y-112699853D01*
X87259727Y-112591680D01*
X87494759Y-112434637D01*
X87694637Y-112234759D01*
X87851680Y-111999727D01*
X87959853Y-111738574D01*
X88015000Y-111461335D01*
X88015000Y-111178665D01*
X92765000Y-111178665D01*
X92765000Y-111461335D01*
X92820147Y-111738574D01*
X92928320Y-111999727D01*
X93085363Y-112234759D01*
X93285241Y-112434637D01*
X93520273Y-112591680D01*
X93781426Y-112699853D01*
X94058665Y-112755000D01*
X94341335Y-112755000D01*
X94618574Y-112699853D01*
X94879727Y-112591680D01*
X95114759Y-112434637D01*
X95314637Y-112234759D01*
X95471680Y-111999727D01*
X95579853Y-111738574D01*
X95635000Y-111461335D01*
X95635000Y-111178665D01*
X95579853Y-110901426D01*
X95471680Y-110640273D01*
X95314637Y-110405241D01*
X95114759Y-110205363D01*
X94879727Y-110048320D01*
X94618574Y-109940147D01*
X94341335Y-109885000D01*
X94058665Y-109885000D01*
X93781426Y-109940147D01*
X93520273Y-110048320D01*
X93285241Y-110205363D01*
X93085363Y-110405241D01*
X92928320Y-110640273D01*
X92820147Y-110901426D01*
X92765000Y-111178665D01*
X88015000Y-111178665D01*
X87959853Y-110901426D01*
X87851680Y-110640273D01*
X87694637Y-110405241D01*
X87494759Y-110205363D01*
X87259727Y-110048320D01*
X86998574Y-109940147D01*
X86721335Y-109885000D01*
X86438665Y-109885000D01*
X86161426Y-109940147D01*
X85900273Y-110048320D01*
X85665241Y-110205363D01*
X85465363Y-110405241D01*
X85308320Y-110640273D01*
X85200147Y-110901426D01*
X85145000Y-111178665D01*
X82884021Y-111178665D01*
X82831775Y-110916011D01*
X82727371Y-110663957D01*
X82575799Y-110437114D01*
X82382886Y-110244201D01*
X82266517Y-110166445D01*
X82374482Y-110155812D01*
X82494180Y-110119502D01*
X82604494Y-110060537D01*
X82701185Y-109981185D01*
X82780537Y-109884494D01*
X82839502Y-109774180D01*
X82875812Y-109654482D01*
X82888072Y-109530000D01*
X82888072Y-108030000D01*
X82875812Y-107905518D01*
X82839502Y-107785820D01*
X82780537Y-107675506D01*
X82701185Y-107578815D01*
X82604494Y-107499463D01*
X82516000Y-107452161D01*
X82516000Y-106687218D01*
X82594180Y-106663502D01*
X82704494Y-106604537D01*
X82801185Y-106525185D01*
X82880537Y-106428494D01*
X82939502Y-106318180D01*
X82963966Y-106237534D01*
X83039731Y-106321588D01*
X83273080Y-106495641D01*
X83535901Y-106620825D01*
X83683110Y-106665476D01*
X83913000Y-106544155D01*
X83913000Y-105351000D01*
X83893000Y-105351000D01*
X83893000Y-105097000D01*
X83913000Y-105097000D01*
X83913000Y-103903845D01*
X84167000Y-103903845D01*
X84167000Y-105097000D01*
X84187000Y-105097000D01*
X84187000Y-105351000D01*
X84167000Y-105351000D01*
X84167000Y-106544155D01*
X84396890Y-106665476D01*
X84544099Y-106620825D01*
X84806920Y-106495641D01*
X85040269Y-106321588D01*
X85235178Y-106105355D01*
X85304805Y-105988466D01*
X85426525Y-106170632D01*
X85633368Y-106377475D01*
X85876589Y-106539990D01*
X86146842Y-106651932D01*
X86433740Y-106709000D01*
X86726260Y-106709000D01*
X87013158Y-106651932D01*
X87283411Y-106539990D01*
X87526632Y-106377475D01*
X87733475Y-106170632D01*
X87850000Y-105996240D01*
X87966525Y-106170632D01*
X88173368Y-106377475D01*
X88416589Y-106539990D01*
X88686842Y-106651932D01*
X88973740Y-106709000D01*
X89266260Y-106709000D01*
X89553158Y-106651932D01*
X89823411Y-106539990D01*
X90066632Y-106377475D01*
X90273475Y-106170632D01*
X90390000Y-105996240D01*
X90506525Y-106170632D01*
X90713368Y-106377475D01*
X90956589Y-106539990D01*
X91226842Y-106651932D01*
X91513740Y-106709000D01*
X91806260Y-106709000D01*
X92093158Y-106651932D01*
X92363411Y-106539990D01*
X92606632Y-106377475D01*
X92813475Y-106170632D01*
X92935195Y-105988466D01*
X93004822Y-106105355D01*
X93199731Y-106321588D01*
X93433080Y-106495641D01*
X93695901Y-106620825D01*
X93843110Y-106665476D01*
X94073000Y-106544155D01*
X94073000Y-105351000D01*
X94053000Y-105351000D01*
X94053000Y-105097000D01*
X94073000Y-105097000D01*
X94073000Y-103903845D01*
X94327000Y-103903845D01*
X94327000Y-105097000D01*
X94347000Y-105097000D01*
X94347000Y-105351000D01*
X94327000Y-105351000D01*
X94327000Y-106544155D01*
X94556890Y-106665476D01*
X94704099Y-106620825D01*
X94966920Y-106495641D01*
X95200269Y-106321588D01*
X95395178Y-106105355D01*
X95464805Y-105988466D01*
X95586525Y-106170632D01*
X95793368Y-106377475D01*
X96036589Y-106539990D01*
X96306842Y-106651932D01*
X96593740Y-106709000D01*
X96886260Y-106709000D01*
X97173158Y-106651932D01*
X97443411Y-106539990D01*
X97686632Y-106377475D01*
X97893475Y-106170632D01*
X98010000Y-105996240D01*
X98126525Y-106170632D01*
X98333368Y-106377475D01*
X98576589Y-106539990D01*
X98846842Y-106651932D01*
X99133740Y-106709000D01*
X99426260Y-106709000D01*
X99713158Y-106651932D01*
X99983411Y-106539990D01*
X100226632Y-106377475D01*
X100433475Y-106170632D01*
X100550000Y-105996240D01*
X100666525Y-106170632D01*
X100873368Y-106377475D01*
X101116589Y-106539990D01*
X101386842Y-106651932D01*
X101673740Y-106709000D01*
X101966260Y-106709000D01*
X102253158Y-106651932D01*
X102523411Y-106539990D01*
X102766632Y-106377475D01*
X102973475Y-106170632D01*
X103090000Y-105996240D01*
X103206525Y-106170632D01*
X103413368Y-106377475D01*
X103656589Y-106539990D01*
X103926842Y-106651932D01*
X104213740Y-106709000D01*
X104506260Y-106709000D01*
X104793158Y-106651932D01*
X105063411Y-106539990D01*
X105306632Y-106377475D01*
X105513475Y-106170632D01*
X105630000Y-105996240D01*
X105746525Y-106170632D01*
X105953368Y-106377475D01*
X106196589Y-106539990D01*
X106466842Y-106651932D01*
X106753740Y-106709000D01*
X107046260Y-106709000D01*
X107333158Y-106651932D01*
X107603411Y-106539990D01*
X107846632Y-106377475D01*
X108053475Y-106170632D01*
X108170000Y-105996240D01*
X108286525Y-106170632D01*
X108493368Y-106377475D01*
X108736589Y-106539990D01*
X109006842Y-106651932D01*
X109293740Y-106709000D01*
X109586260Y-106709000D01*
X109873158Y-106651932D01*
X110143411Y-106539990D01*
X110386632Y-106377475D01*
X110593475Y-106170632D01*
X110710000Y-105996240D01*
X110826525Y-106170632D01*
X111033368Y-106377475D01*
X111276589Y-106539990D01*
X111546842Y-106651932D01*
X111833740Y-106709000D01*
X112126260Y-106709000D01*
X112413158Y-106651932D01*
X112444227Y-106639063D01*
X101615499Y-117467792D01*
X101587392Y-117490859D01*
X101495343Y-117603021D01*
X101426945Y-117730985D01*
X101384825Y-117869835D01*
X101375452Y-117965000D01*
X101370603Y-118014233D01*
X101374167Y-118050416D01*
X101374167Y-122339615D01*
X101345990Y-122271589D01*
X101183475Y-122028368D01*
X100976632Y-121821525D01*
X100733411Y-121659010D01*
X100463158Y-121547068D01*
X100176260Y-121490000D01*
X99883740Y-121490000D01*
X99596842Y-121547068D01*
X99326589Y-121659010D01*
X99083368Y-121821525D01*
X98876525Y-122028368D01*
X98714010Y-122271589D01*
X98602068Y-122541842D01*
X98545000Y-122828740D01*
X98545000Y-123121260D01*
X98602068Y-123408158D01*
X98714010Y-123678411D01*
X98876525Y-123921632D01*
X99083368Y-124128475D01*
X99326589Y-124290990D01*
X99596842Y-124402932D01*
X99883740Y-124460000D01*
X100176260Y-124460000D01*
X100463158Y-124402932D01*
X100733411Y-124290990D01*
X100976632Y-124128475D01*
X101183475Y-123921632D01*
X101345990Y-123678411D01*
X101374167Y-123610385D01*
X101374168Y-141389616D01*
X101345990Y-141321589D01*
X101183475Y-141078368D01*
X100976632Y-140871525D01*
X100733411Y-140709010D01*
X100463158Y-140597068D01*
X100176260Y-140540000D01*
X99883740Y-140540000D01*
X99596842Y-140597068D01*
X99326589Y-140709010D01*
X99083368Y-140871525D01*
X98876525Y-141078368D01*
X98714010Y-141321589D01*
X98602068Y-141591842D01*
X98545000Y-141878740D01*
X98545000Y-142171260D01*
X98602068Y-142458158D01*
X98714010Y-142728411D01*
X98876525Y-142971632D01*
X99083368Y-143178475D01*
X99326589Y-143340990D01*
X99596842Y-143452932D01*
X99883740Y-143510000D01*
X100176260Y-143510000D01*
X100463158Y-143452932D01*
X100733411Y-143340990D01*
X100976632Y-143178475D01*
X101183475Y-142971632D01*
X101345990Y-142728411D01*
X101374168Y-142660384D01*
X101374168Y-163769325D01*
X101370603Y-163805518D01*
X101383559Y-163937050D01*
X101384826Y-163949917D01*
X101393031Y-163976964D01*
X101426945Y-164088765D01*
X101495343Y-164216730D01*
X101524783Y-164252602D01*
X101587393Y-164328893D01*
X101615499Y-164351959D01*
X105668808Y-168405269D01*
X105691874Y-168433375D01*
X105804036Y-168525424D01*
X105932000Y-168593822D01*
X106070850Y-168635942D01*
X106179063Y-168646600D01*
X106179072Y-168646600D01*
X106215248Y-168650163D01*
X106251424Y-168646600D01*
X112353817Y-168646600D01*
X112390000Y-168650164D01*
X112426183Y-168646600D01*
X112426186Y-168646600D01*
X112534399Y-168635942D01*
X112673249Y-168593822D01*
X112801213Y-168525424D01*
X112913375Y-168433375D01*
X112936445Y-168405264D01*
X113504841Y-167836868D01*
X113696589Y-167964990D01*
X113966842Y-168076932D01*
X114253740Y-168134000D01*
X114546260Y-168134000D01*
X114833158Y-168076932D01*
X115103411Y-167964990D01*
X115346632Y-167802475D01*
X115553475Y-167595632D01*
X115670000Y-167421240D01*
X115786525Y-167595632D01*
X115993368Y-167802475D01*
X116236589Y-167964990D01*
X116506842Y-168076932D01*
X116793740Y-168134000D01*
X117086260Y-168134000D01*
X117373158Y-168076932D01*
X117643411Y-167964990D01*
X117886632Y-167802475D01*
X118093475Y-167595632D01*
X118210000Y-167421240D01*
X118326525Y-167595632D01*
X118533368Y-167802475D01*
X118776589Y-167964990D01*
X119046842Y-168076932D01*
X119333740Y-168134000D01*
X119626260Y-168134000D01*
X119913158Y-168076932D01*
X120183411Y-167964990D01*
X120426632Y-167802475D01*
X120633475Y-167595632D01*
X120750000Y-167421240D01*
X120866525Y-167595632D01*
X121073368Y-167802475D01*
X121316589Y-167964990D01*
X121586842Y-168076932D01*
X121873740Y-168134000D01*
X122166260Y-168134000D01*
X122453158Y-168076932D01*
X122723411Y-167964990D01*
X122966632Y-167802475D01*
X123173475Y-167595632D01*
X123290000Y-167421240D01*
X123406525Y-167595632D01*
X123613368Y-167802475D01*
X123856589Y-167964990D01*
X124126842Y-168076932D01*
X124413740Y-168134000D01*
X124706260Y-168134000D01*
X124954009Y-168084719D01*
X125304559Y-168435269D01*
X125327625Y-168463375D01*
X125439787Y-168555424D01*
X125567751Y-168623822D01*
X125690128Y-168660945D01*
X125706601Y-168665942D01*
X125851000Y-168680164D01*
X125887186Y-168676600D01*
X140003817Y-168676600D01*
X140040000Y-168680164D01*
X140076183Y-168676600D01*
X140076186Y-168676600D01*
X140184399Y-168665942D01*
X140323249Y-168623822D01*
X140451213Y-168555424D01*
X140563375Y-168463375D01*
X140586446Y-168435263D01*
X145399424Y-163622285D01*
X154165000Y-163622285D01*
X154165000Y-164377715D01*
X154312377Y-165118628D01*
X154601467Y-165816554D01*
X155021161Y-166444670D01*
X155555330Y-166978839D01*
X156183446Y-167398533D01*
X156881372Y-167687623D01*
X157622285Y-167835000D01*
X158377715Y-167835000D01*
X159118628Y-167687623D01*
X159816554Y-167398533D01*
X160444670Y-166978839D01*
X160978839Y-166444670D01*
X161398533Y-165816554D01*
X161687623Y-165118628D01*
X161835000Y-164377715D01*
X161835000Y-163622285D01*
X161687623Y-162881372D01*
X161398533Y-162183446D01*
X160978839Y-161555330D01*
X160444670Y-161021161D01*
X159816554Y-160601467D01*
X159118628Y-160312377D01*
X158377715Y-160165000D01*
X157622285Y-160165000D01*
X156881372Y-160312377D01*
X156183446Y-160601467D01*
X155555330Y-161021161D01*
X155021161Y-161555330D01*
X154601467Y-162183446D01*
X154312377Y-162881372D01*
X154165000Y-163622285D01*
X145399424Y-163622285D01*
X160935274Y-148086436D01*
X160963374Y-148063375D01*
X160986437Y-148035273D01*
X160986442Y-148035268D01*
X161055424Y-147951213D01*
X161055425Y-147951212D01*
X161123822Y-147823249D01*
X161165942Y-147684399D01*
X161176600Y-147576186D01*
X161176600Y-147576185D01*
X161180164Y-147540000D01*
X161176600Y-147503814D01*
X161176600Y-118256175D01*
X161180163Y-118219999D01*
X161176600Y-118183823D01*
X161176600Y-118183814D01*
X161165942Y-118075601D01*
X161123822Y-117936751D01*
X161055424Y-117808787D01*
X161007672Y-117750601D01*
X160986442Y-117724732D01*
X160986441Y-117724731D01*
X160963375Y-117696625D01*
X160935269Y-117673559D01*
X156186446Y-112924737D01*
X156163375Y-112896625D01*
X156051213Y-112804576D01*
X155923249Y-112736178D01*
X155784399Y-112694058D01*
X155676186Y-112683400D01*
X155676183Y-112683400D01*
X155640000Y-112679836D01*
X155603817Y-112683400D01*
X146647025Y-112683400D01*
X146504727Y-112588320D01*
X146243574Y-112480147D01*
X145966335Y-112425000D01*
X145683665Y-112425000D01*
X145406426Y-112480147D01*
X145145273Y-112588320D01*
X144910241Y-112745363D01*
X144710363Y-112945241D01*
X144553320Y-113180273D01*
X144445147Y-113441426D01*
X144390000Y-113718665D01*
X144390000Y-114001335D01*
X144445147Y-114278574D01*
X144553320Y-114539727D01*
X144710363Y-114774759D01*
X144910241Y-114974637D01*
X145145273Y-115131680D01*
X145406426Y-115239853D01*
X145683665Y-115295000D01*
X145966335Y-115295000D01*
X146243574Y-115239853D01*
X146504727Y-115131680D01*
X146739759Y-114974637D01*
X146939637Y-114774759D01*
X147096680Y-114539727D01*
X147204853Y-114278574D01*
X147229115Y-114156600D01*
X155334891Y-114156600D01*
X159703401Y-118525111D01*
X159703400Y-147234890D01*
X139734891Y-167203400D01*
X138631419Y-167203400D01*
X138701481Y-167005891D01*
X138580814Y-166776000D01*
X137387000Y-166776000D01*
X137387000Y-166796000D01*
X137133000Y-166796000D01*
X137133000Y-166776000D01*
X137113000Y-166776000D01*
X137113000Y-166522000D01*
X137133000Y-166522000D01*
X137133000Y-166502000D01*
X137387000Y-166502000D01*
X137387000Y-166522000D01*
X138580814Y-166522000D01*
X138701481Y-166292109D01*
X138604157Y-166017748D01*
X138455178Y-165767645D01*
X138278374Y-165571498D01*
X138354180Y-165548502D01*
X138464494Y-165489537D01*
X138561185Y-165410185D01*
X138640537Y-165313494D01*
X138699502Y-165203180D01*
X138735812Y-165083482D01*
X138748072Y-164959000D01*
X138748072Y-163259000D01*
X138735812Y-163134518D01*
X138699502Y-163014820D01*
X138640537Y-162904506D01*
X138561185Y-162807815D01*
X138464494Y-162728463D01*
X138354180Y-162669498D01*
X138234482Y-162633188D01*
X138110000Y-162620928D01*
X136410000Y-162620928D01*
X136285518Y-162633188D01*
X136165820Y-162669498D01*
X136055506Y-162728463D01*
X135958815Y-162807815D01*
X135879463Y-162904506D01*
X135820498Y-163014820D01*
X135798487Y-163087380D01*
X135666632Y-162955525D01*
X135423411Y-162793010D01*
X135153158Y-162681068D01*
X134866260Y-162624000D01*
X134573740Y-162624000D01*
X134286842Y-162681068D01*
X134016589Y-162793010D01*
X133773368Y-162955525D01*
X133566525Y-163162368D01*
X133450000Y-163336760D01*
X133333475Y-163162368D01*
X133126632Y-162955525D01*
X132883411Y-162793010D01*
X132613158Y-162681068D01*
X132326260Y-162624000D01*
X132033740Y-162624000D01*
X131746842Y-162681068D01*
X131476589Y-162793010D01*
X131233368Y-162955525D01*
X131026525Y-163162368D01*
X130910000Y-163336760D01*
X130793475Y-163162368D01*
X130586632Y-162955525D01*
X130343411Y-162793010D01*
X130073158Y-162681068D01*
X129786260Y-162624000D01*
X129493740Y-162624000D01*
X129206842Y-162681068D01*
X128936589Y-162793010D01*
X128693368Y-162955525D01*
X128486525Y-163162368D01*
X128370000Y-163336760D01*
X128253475Y-163162368D01*
X128046632Y-162955525D01*
X127803411Y-162793010D01*
X127533158Y-162681068D01*
X127246260Y-162624000D01*
X126953740Y-162624000D01*
X126666842Y-162681068D01*
X126396589Y-162793010D01*
X126153368Y-162955525D01*
X125946525Y-163162368D01*
X125830000Y-163336760D01*
X125713475Y-163162368D01*
X125506632Y-162955525D01*
X125263411Y-162793010D01*
X124993158Y-162681068D01*
X124706260Y-162624000D01*
X124413740Y-162624000D01*
X124126842Y-162681068D01*
X123856589Y-162793010D01*
X123613368Y-162955525D01*
X123406525Y-163162368D01*
X123290000Y-163336760D01*
X123173475Y-163162368D01*
X122966632Y-162955525D01*
X122723411Y-162793010D01*
X122453158Y-162681068D01*
X122166260Y-162624000D01*
X121873740Y-162624000D01*
X121586842Y-162681068D01*
X121316589Y-162793010D01*
X121073368Y-162955525D01*
X120866525Y-163162368D01*
X120750000Y-163336760D01*
X120633475Y-163162368D01*
X120426632Y-162955525D01*
X120183411Y-162793010D01*
X119913158Y-162681068D01*
X119626260Y-162624000D01*
X119333740Y-162624000D01*
X119046842Y-162681068D01*
X118776589Y-162793010D01*
X118533368Y-162955525D01*
X118326525Y-163162368D01*
X118210000Y-163336760D01*
X118093475Y-163162368D01*
X117886632Y-162955525D01*
X117643411Y-162793010D01*
X117373158Y-162681068D01*
X117086260Y-162624000D01*
X116793740Y-162624000D01*
X116506842Y-162681068D01*
X116236589Y-162793010D01*
X115993368Y-162955525D01*
X115786525Y-163162368D01*
X115670000Y-163336760D01*
X115553475Y-163162368D01*
X115346632Y-162955525D01*
X115103411Y-162793010D01*
X114833158Y-162681068D01*
X114546260Y-162624000D01*
X114253740Y-162624000D01*
X113966842Y-162681068D01*
X113696589Y-162793010D01*
X113453368Y-162955525D01*
X113246525Y-163162368D01*
X113130000Y-163336760D01*
X113013475Y-163162368D01*
X112806632Y-162955525D01*
X112563411Y-162793010D01*
X112293158Y-162681068D01*
X112006260Y-162624000D01*
X111713740Y-162624000D01*
X111426842Y-162681068D01*
X111156589Y-162793010D01*
X111005604Y-162893895D01*
X110506445Y-162394736D01*
X110483375Y-162366625D01*
X110371213Y-162274576D01*
X110243249Y-162206178D01*
X110104399Y-162164058D01*
X109996186Y-162153400D01*
X109996183Y-162153400D01*
X109960000Y-162149836D01*
X109923817Y-162153400D01*
X105785110Y-162153400D01*
X104066600Y-160434891D01*
X104066600Y-160119665D01*
X105345000Y-160119665D01*
X105345000Y-160402335D01*
X105400147Y-160679574D01*
X105508320Y-160940727D01*
X105665363Y-161175759D01*
X105865241Y-161375637D01*
X106100273Y-161532680D01*
X106361426Y-161640853D01*
X106638665Y-161696000D01*
X106921335Y-161696000D01*
X107198574Y-161640853D01*
X107459727Y-161532680D01*
X107694759Y-161375637D01*
X107894637Y-161175759D01*
X108050000Y-160943241D01*
X108205363Y-161175759D01*
X108405241Y-161375637D01*
X108640273Y-161532680D01*
X108901426Y-161640853D01*
X109178665Y-161696000D01*
X109461335Y-161696000D01*
X109738574Y-161640853D01*
X109999727Y-161532680D01*
X110234759Y-161375637D01*
X110434637Y-161175759D01*
X110590000Y-160943241D01*
X110745363Y-161175759D01*
X110945241Y-161375637D01*
X111180273Y-161532680D01*
X111441426Y-161640853D01*
X111718665Y-161696000D01*
X112001335Y-161696000D01*
X112278574Y-161640853D01*
X112539727Y-161532680D01*
X112774759Y-161375637D01*
X112974637Y-161175759D01*
X113130000Y-160943241D01*
X113285363Y-161175759D01*
X113485241Y-161375637D01*
X113720273Y-161532680D01*
X113981426Y-161640853D01*
X114258665Y-161696000D01*
X114541335Y-161696000D01*
X114818574Y-161640853D01*
X115079727Y-161532680D01*
X115314759Y-161375637D01*
X115514637Y-161175759D01*
X115670000Y-160943241D01*
X115825363Y-161175759D01*
X116025241Y-161375637D01*
X116260273Y-161532680D01*
X116521426Y-161640853D01*
X116798665Y-161696000D01*
X117081335Y-161696000D01*
X117358574Y-161640853D01*
X117619727Y-161532680D01*
X117854759Y-161375637D01*
X118054637Y-161175759D01*
X118210000Y-160943241D01*
X118365363Y-161175759D01*
X118565241Y-161375637D01*
X118800273Y-161532680D01*
X119061426Y-161640853D01*
X119338665Y-161696000D01*
X119621335Y-161696000D01*
X119898574Y-161640853D01*
X120159727Y-161532680D01*
X120394759Y-161375637D01*
X120594637Y-161175759D01*
X120750000Y-160943241D01*
X120905363Y-161175759D01*
X121105241Y-161375637D01*
X121340273Y-161532680D01*
X121601426Y-161640853D01*
X121878665Y-161696000D01*
X122161335Y-161696000D01*
X122438574Y-161640853D01*
X122699727Y-161532680D01*
X122934759Y-161375637D01*
X123134637Y-161175759D01*
X123290000Y-160943241D01*
X123445363Y-161175759D01*
X123645241Y-161375637D01*
X123880273Y-161532680D01*
X124141426Y-161640853D01*
X124418665Y-161696000D01*
X124701335Y-161696000D01*
X124978574Y-161640853D01*
X125239727Y-161532680D01*
X125474759Y-161375637D01*
X125673357Y-161177039D01*
X125674188Y-161185482D01*
X125710498Y-161305180D01*
X125769463Y-161415494D01*
X125848815Y-161512185D01*
X125945506Y-161591537D01*
X126055820Y-161650502D01*
X126175518Y-161686812D01*
X126300000Y-161699072D01*
X126814250Y-161696000D01*
X126973000Y-161537250D01*
X126973000Y-160388000D01*
X127227000Y-160388000D01*
X127227000Y-161537250D01*
X127385750Y-161696000D01*
X127900000Y-161699072D01*
X128024482Y-161686812D01*
X128144180Y-161650502D01*
X128254494Y-161591537D01*
X128351185Y-161512185D01*
X128430537Y-161415494D01*
X128489502Y-161305180D01*
X128525812Y-161185482D01*
X128538072Y-161061000D01*
X128535000Y-160546750D01*
X128376250Y-160388000D01*
X127227000Y-160388000D01*
X126973000Y-160388000D01*
X126953000Y-160388000D01*
X126953000Y-160134000D01*
X126973000Y-160134000D01*
X126973000Y-158984750D01*
X127227000Y-158984750D01*
X127227000Y-160134000D01*
X128376250Y-160134000D01*
X128535000Y-159975250D01*
X128538072Y-159461000D01*
X128525812Y-159336518D01*
X128489502Y-159216820D01*
X128430537Y-159106506D01*
X128351185Y-159009815D01*
X128254494Y-158930463D01*
X128144180Y-158871498D01*
X128024482Y-158835188D01*
X127900000Y-158822928D01*
X127385750Y-158826000D01*
X127227000Y-158984750D01*
X126973000Y-158984750D01*
X126925480Y-158937230D01*
X146556591Y-139306118D01*
X146555000Y-139314117D01*
X146555000Y-139655883D01*
X146621675Y-139991081D01*
X146752463Y-140306831D01*
X146908261Y-140540000D01*
X146873740Y-140540000D01*
X146586842Y-140597068D01*
X146316589Y-140709010D01*
X146073368Y-140871525D01*
X145866525Y-141078368D01*
X145704010Y-141321589D01*
X145592068Y-141591842D01*
X145535000Y-141878740D01*
X145535000Y-142171260D01*
X145592068Y-142458158D01*
X145704010Y-142728411D01*
X145866525Y-142971632D01*
X146073368Y-143178475D01*
X146316589Y-143340990D01*
X146586842Y-143452932D01*
X146873740Y-143510000D01*
X147166260Y-143510000D01*
X147453158Y-143452932D01*
X147723411Y-143340990D01*
X147966632Y-143178475D01*
X148173475Y-142971632D01*
X148335990Y-142728411D01*
X148447932Y-142458158D01*
X148505000Y-142171260D01*
X148505000Y-141878740D01*
X148482471Y-141765475D01*
X149465000Y-141765475D01*
X149465000Y-142284525D01*
X149566261Y-142793601D01*
X149764893Y-143273141D01*
X150053262Y-143704715D01*
X150420285Y-144071738D01*
X150851859Y-144360107D01*
X151331399Y-144558739D01*
X151840475Y-144660000D01*
X152359525Y-144660000D01*
X152868601Y-144558739D01*
X153348141Y-144360107D01*
X153779715Y-144071738D01*
X154146738Y-143704715D01*
X154435107Y-143273141D01*
X154633739Y-142793601D01*
X154735000Y-142284525D01*
X154735000Y-141878740D01*
X155695000Y-141878740D01*
X155695000Y-142171260D01*
X155752068Y-142458158D01*
X155864010Y-142728411D01*
X156026525Y-142971632D01*
X156233368Y-143178475D01*
X156476589Y-143340990D01*
X156746842Y-143452932D01*
X157033740Y-143510000D01*
X157326260Y-143510000D01*
X157613158Y-143452932D01*
X157883411Y-143340990D01*
X158126632Y-143178475D01*
X158333475Y-142971632D01*
X158495990Y-142728411D01*
X158607932Y-142458158D01*
X158665000Y-142171260D01*
X158665000Y-141878740D01*
X158607932Y-141591842D01*
X158495990Y-141321589D01*
X158333475Y-141078368D01*
X158126632Y-140871525D01*
X157883411Y-140709010D01*
X157613158Y-140597068D01*
X157326260Y-140540000D01*
X157033740Y-140540000D01*
X156746842Y-140597068D01*
X156476589Y-140709010D01*
X156233368Y-140871525D01*
X156026525Y-141078368D01*
X155864010Y-141321589D01*
X155752068Y-141591842D01*
X155695000Y-141878740D01*
X154735000Y-141878740D01*
X154735000Y-141765475D01*
X154633739Y-141256399D01*
X154435107Y-140776859D01*
X154146738Y-140345285D01*
X153779715Y-139978262D01*
X153348141Y-139689893D01*
X152868601Y-139491261D01*
X152359525Y-139390000D01*
X151840475Y-139390000D01*
X151331399Y-139491261D01*
X150851859Y-139689893D01*
X150420285Y-139978262D01*
X150053262Y-140345285D01*
X149764893Y-140776859D01*
X149566261Y-141256399D01*
X149465000Y-141765475D01*
X148482471Y-141765475D01*
X148447932Y-141591842D01*
X148335990Y-141321589D01*
X148268110Y-141220000D01*
X148460883Y-141220000D01*
X148796081Y-141153325D01*
X149111831Y-141022537D01*
X149395998Y-140832663D01*
X149637663Y-140590998D01*
X149827537Y-140306831D01*
X149958325Y-139991081D01*
X150025000Y-139655883D01*
X150025000Y-139314117D01*
X149958325Y-138978919D01*
X149827537Y-138663169D01*
X149637663Y-138379002D01*
X149395998Y-138137337D01*
X149111831Y-137947463D01*
X148796081Y-137816675D01*
X148460883Y-137750000D01*
X148119117Y-137750000D01*
X148111118Y-137751591D01*
X148181109Y-137681600D01*
X153067159Y-137681600D01*
X153102463Y-137766831D01*
X153292337Y-138050998D01*
X153534002Y-138292663D01*
X153818169Y-138482537D01*
X154133919Y-138613325D01*
X154469117Y-138680000D01*
X154810883Y-138680000D01*
X155146081Y-138613325D01*
X155461831Y-138482537D01*
X155745998Y-138292663D01*
X155987663Y-138050998D01*
X156177537Y-137766831D01*
X156308325Y-137451081D01*
X156375000Y-137115883D01*
X156375000Y-136774117D01*
X156308325Y-136438919D01*
X156177537Y-136123169D01*
X155987663Y-135839002D01*
X155745998Y-135597337D01*
X155461831Y-135407463D01*
X155146081Y-135276675D01*
X154810883Y-135210000D01*
X154469117Y-135210000D01*
X154133919Y-135276675D01*
X153818169Y-135407463D01*
X153534002Y-135597337D01*
X153292337Y-135839002D01*
X153102463Y-136123169D01*
X153067159Y-136208400D01*
X147912175Y-136208400D01*
X147875999Y-136204837D01*
X147839823Y-136208400D01*
X147839814Y-136208400D01*
X147731601Y-136219058D01*
X147592751Y-136261178D01*
X147464787Y-136329576D01*
X147352625Y-136421625D01*
X147329554Y-136449737D01*
X124911488Y-158867803D01*
X124701335Y-158826000D01*
X124496709Y-158826000D01*
X136085269Y-147237441D01*
X136113375Y-147214375D01*
X136205424Y-147102213D01*
X136273822Y-146974249D01*
X136315942Y-146835399D01*
X136326600Y-146727186D01*
X136326600Y-146727177D01*
X136330163Y-146691001D01*
X136326600Y-146654825D01*
X136326600Y-141878740D01*
X136645000Y-141878740D01*
X136645000Y-142171260D01*
X136702068Y-142458158D01*
X136814010Y-142728411D01*
X136976525Y-142971632D01*
X137183368Y-143178475D01*
X137426589Y-143340990D01*
X137696842Y-143452932D01*
X137983740Y-143510000D01*
X138276260Y-143510000D01*
X138563158Y-143452932D01*
X138833411Y-143340990D01*
X139076632Y-143178475D01*
X139283475Y-142971632D01*
X139445990Y-142728411D01*
X139557932Y-142458158D01*
X139615000Y-142171260D01*
X139615000Y-141878740D01*
X139557932Y-141591842D01*
X139445990Y-141321589D01*
X139283475Y-141078368D01*
X139076632Y-140871525D01*
X138833411Y-140709010D01*
X138563158Y-140597068D01*
X138276260Y-140540000D01*
X137983740Y-140540000D01*
X137696842Y-140597068D01*
X137426589Y-140709010D01*
X137183368Y-140871525D01*
X136976525Y-141078368D01*
X136814010Y-141321589D01*
X136702068Y-141591842D01*
X136645000Y-141878740D01*
X136326600Y-141878740D01*
X136326600Y-138517841D01*
X136411831Y-138482537D01*
X136695998Y-138292663D01*
X136937663Y-138050998D01*
X137127537Y-137766831D01*
X137258325Y-137451081D01*
X137325000Y-137115883D01*
X137325000Y-136774117D01*
X137258325Y-136438919D01*
X137127537Y-136123169D01*
X136937663Y-135839002D01*
X136695998Y-135597337D01*
X136411831Y-135407463D01*
X136096081Y-135276675D01*
X135760883Y-135210000D01*
X135419117Y-135210000D01*
X135083919Y-135276675D01*
X134768169Y-135407463D01*
X134484002Y-135597337D01*
X134242337Y-135839002D01*
X134052463Y-136123169D01*
X133921675Y-136438919D01*
X133855000Y-136774117D01*
X133855000Y-137115883D01*
X133921675Y-137451081D01*
X134052463Y-137766831D01*
X134242337Y-138050998D01*
X134484002Y-138292663D01*
X134768169Y-138482537D01*
X134853400Y-138517841D01*
X134853400Y-140101947D01*
X134729715Y-139978262D01*
X134298141Y-139689893D01*
X133818601Y-139491261D01*
X133309525Y-139390000D01*
X132790475Y-139390000D01*
X132281399Y-139491261D01*
X131801859Y-139689893D01*
X131370285Y-139978262D01*
X131003262Y-140345285D01*
X130714893Y-140776859D01*
X130516261Y-141256399D01*
X130415000Y-141765475D01*
X130415000Y-142284525D01*
X130516261Y-142793601D01*
X130714893Y-143273141D01*
X131003262Y-143704715D01*
X131370285Y-144071738D01*
X131801859Y-144360107D01*
X132281399Y-144558739D01*
X132790475Y-144660000D01*
X133309525Y-144660000D01*
X133818601Y-144558739D01*
X134298141Y-144360107D01*
X134729715Y-144071738D01*
X134853401Y-143948052D01*
X134853401Y-146385889D01*
X122371488Y-158867803D01*
X122161335Y-158826000D01*
X121878665Y-158826000D01*
X121601426Y-158881147D01*
X121340273Y-158989320D01*
X121105241Y-159146363D01*
X120905363Y-159346241D01*
X120750000Y-159578759D01*
X120594637Y-159346241D01*
X120394759Y-159146363D01*
X120216600Y-159027321D01*
X120216600Y-146103053D01*
X120560285Y-146446738D01*
X120991859Y-146735107D01*
X121471399Y-146933739D01*
X121980475Y-147035000D01*
X122499525Y-147035000D01*
X123008601Y-146933739D01*
X123488141Y-146735107D01*
X123919715Y-146446738D01*
X124286738Y-146079715D01*
X124575107Y-145648141D01*
X124773739Y-145168601D01*
X124875000Y-144659525D01*
X124875000Y-144140475D01*
X124773739Y-143631399D01*
X124575107Y-143151859D01*
X124286738Y-142720285D01*
X123919715Y-142353262D01*
X123488141Y-142064893D01*
X123038728Y-141878740D01*
X126485000Y-141878740D01*
X126485000Y-142171260D01*
X126542068Y-142458158D01*
X126654010Y-142728411D01*
X126816525Y-142971632D01*
X127023368Y-143178475D01*
X127266589Y-143340990D01*
X127536842Y-143452932D01*
X127823740Y-143510000D01*
X128116260Y-143510000D01*
X128403158Y-143452932D01*
X128673411Y-143340990D01*
X128916632Y-143178475D01*
X129123475Y-142971632D01*
X129285990Y-142728411D01*
X129397932Y-142458158D01*
X129455000Y-142171260D01*
X129455000Y-141878740D01*
X129397932Y-141591842D01*
X129285990Y-141321589D01*
X129218110Y-141220000D01*
X129410883Y-141220000D01*
X129746081Y-141153325D01*
X130061831Y-141022537D01*
X130345998Y-140832663D01*
X130587663Y-140590998D01*
X130777537Y-140306831D01*
X130908325Y-139991081D01*
X130975000Y-139655883D01*
X130975000Y-139314117D01*
X130908325Y-138978919D01*
X130777537Y-138663169D01*
X130587663Y-138379002D01*
X130345998Y-138137337D01*
X130061831Y-137947463D01*
X129746081Y-137816675D01*
X129410883Y-137750000D01*
X129069117Y-137750000D01*
X128733919Y-137816675D01*
X128418169Y-137947463D01*
X128134002Y-138137337D01*
X127892337Y-138379002D01*
X127702463Y-138663169D01*
X127571675Y-138978919D01*
X127505000Y-139314117D01*
X127505000Y-139655883D01*
X127571675Y-139991081D01*
X127702463Y-140306831D01*
X127858261Y-140540000D01*
X127823740Y-140540000D01*
X127536842Y-140597068D01*
X127266589Y-140709010D01*
X127023368Y-140871525D01*
X126816525Y-141078368D01*
X126654010Y-141321589D01*
X126542068Y-141591842D01*
X126485000Y-141878740D01*
X123038728Y-141878740D01*
X123008601Y-141866261D01*
X122504595Y-141766008D01*
X141441863Y-122828740D01*
X145535000Y-122828740D01*
X145535000Y-123121260D01*
X145592068Y-123408158D01*
X145704010Y-123678411D01*
X145866525Y-123921632D01*
X146073368Y-124128475D01*
X146316589Y-124290990D01*
X146586842Y-124402932D01*
X146873740Y-124460000D01*
X147166260Y-124460000D01*
X147453158Y-124402932D01*
X147723411Y-124290990D01*
X147966632Y-124128475D01*
X148173475Y-123921632D01*
X148335990Y-123678411D01*
X148447932Y-123408158D01*
X148505000Y-123121260D01*
X148505000Y-122828740D01*
X148482471Y-122715475D01*
X149465000Y-122715475D01*
X149465000Y-123234525D01*
X149566261Y-123743601D01*
X149764893Y-124223141D01*
X150053262Y-124654715D01*
X150420285Y-125021738D01*
X150851859Y-125310107D01*
X151331399Y-125508739D01*
X151840475Y-125610000D01*
X152359525Y-125610000D01*
X152868601Y-125508739D01*
X153348141Y-125310107D01*
X153779715Y-125021738D01*
X154146738Y-124654715D01*
X154435107Y-124223141D01*
X154633739Y-123743601D01*
X154735000Y-123234525D01*
X154735000Y-122828740D01*
X155695000Y-122828740D01*
X155695000Y-123121260D01*
X155752068Y-123408158D01*
X155864010Y-123678411D01*
X156026525Y-123921632D01*
X156233368Y-124128475D01*
X156476589Y-124290990D01*
X156746842Y-124402932D01*
X157033740Y-124460000D01*
X157326260Y-124460000D01*
X157613158Y-124402932D01*
X157883411Y-124290990D01*
X158126632Y-124128475D01*
X158333475Y-123921632D01*
X158495990Y-123678411D01*
X158607932Y-123408158D01*
X158665000Y-123121260D01*
X158665000Y-122828740D01*
X158607932Y-122541842D01*
X158495990Y-122271589D01*
X158333475Y-122028368D01*
X158126632Y-121821525D01*
X157883411Y-121659010D01*
X157613158Y-121547068D01*
X157326260Y-121490000D01*
X157033740Y-121490000D01*
X156746842Y-121547068D01*
X156476589Y-121659010D01*
X156233368Y-121821525D01*
X156026525Y-122028368D01*
X155864010Y-122271589D01*
X155752068Y-122541842D01*
X155695000Y-122828740D01*
X154735000Y-122828740D01*
X154735000Y-122715475D01*
X154633739Y-122206399D01*
X154435107Y-121726859D01*
X154146738Y-121295285D01*
X153779715Y-120928262D01*
X153348141Y-120639893D01*
X152868601Y-120441261D01*
X152359525Y-120340000D01*
X151840475Y-120340000D01*
X151331399Y-120441261D01*
X150851859Y-120639893D01*
X150420285Y-120928262D01*
X150053262Y-121295285D01*
X149764893Y-121726859D01*
X149566261Y-122206399D01*
X149465000Y-122715475D01*
X148482471Y-122715475D01*
X148447932Y-122541842D01*
X148335990Y-122271589D01*
X148268110Y-122170000D01*
X148460883Y-122170000D01*
X148796081Y-122103325D01*
X149111831Y-121972537D01*
X149395998Y-121782663D01*
X149637663Y-121540998D01*
X149827537Y-121256831D01*
X149958325Y-120941081D01*
X150025000Y-120605883D01*
X150025000Y-120264117D01*
X149958325Y-119928919D01*
X149827537Y-119613169D01*
X149637663Y-119329002D01*
X149395998Y-119087337D01*
X149111831Y-118897463D01*
X148796081Y-118766675D01*
X148460883Y-118700000D01*
X148119117Y-118700000D01*
X147783919Y-118766675D01*
X147468169Y-118897463D01*
X147184002Y-119087337D01*
X146942337Y-119329002D01*
X146752463Y-119613169D01*
X146621675Y-119928919D01*
X146555000Y-120264117D01*
X146555000Y-120605883D01*
X146621675Y-120941081D01*
X146752463Y-121256831D01*
X146908261Y-121490000D01*
X146873740Y-121490000D01*
X146586842Y-121547068D01*
X146316589Y-121659010D01*
X146073368Y-121821525D01*
X145866525Y-122028368D01*
X145704010Y-122271589D01*
X145592068Y-122541842D01*
X145535000Y-122828740D01*
X141441863Y-122828740D01*
X145639004Y-118631600D01*
X153067159Y-118631600D01*
X153102463Y-118716831D01*
X153292337Y-119000998D01*
X153534002Y-119242663D01*
X153818169Y-119432537D01*
X154133919Y-119563325D01*
X154469117Y-119630000D01*
X154810883Y-119630000D01*
X155146081Y-119563325D01*
X155461831Y-119432537D01*
X155745998Y-119242663D01*
X155987663Y-119000998D01*
X156177537Y-118716831D01*
X156308325Y-118401081D01*
X156375000Y-118065883D01*
X156375000Y-117724117D01*
X156308325Y-117388919D01*
X156177537Y-117073169D01*
X155987663Y-116789002D01*
X155745998Y-116547337D01*
X155461831Y-116357463D01*
X155146081Y-116226675D01*
X154810883Y-116160000D01*
X154469117Y-116160000D01*
X154133919Y-116226675D01*
X153818169Y-116357463D01*
X153534002Y-116547337D01*
X153292337Y-116789002D01*
X153102463Y-117073169D01*
X153067159Y-117158400D01*
X145370080Y-117158400D01*
X145333894Y-117154836D01*
X145297708Y-117158400D01*
X145189495Y-117169058D01*
X145050645Y-117211178D01*
X144922681Y-117279576D01*
X144810519Y-117371625D01*
X144787453Y-117399731D01*
X139572434Y-122614750D01*
X139557932Y-122541842D01*
X139445990Y-122271589D01*
X139283475Y-122028368D01*
X139076632Y-121821525D01*
X138833411Y-121659010D01*
X138563158Y-121547068D01*
X138276260Y-121490000D01*
X137983740Y-121490000D01*
X137696842Y-121547068D01*
X137426589Y-121659010D01*
X137183368Y-121821525D01*
X136976525Y-122028368D01*
X136814010Y-122271589D01*
X136702068Y-122541842D01*
X136645000Y-122828740D01*
X136645000Y-123121260D01*
X136702068Y-123408158D01*
X136814010Y-123678411D01*
X136976525Y-123921632D01*
X137183368Y-124128475D01*
X137426589Y-124290990D01*
X137696842Y-124402932D01*
X137769750Y-124417434D01*
X118984732Y-143202453D01*
X118956626Y-143225519D01*
X118933560Y-143253625D01*
X118933558Y-143253627D01*
X118864576Y-143337682D01*
X118796178Y-143465647D01*
X118754059Y-143604496D01*
X118739836Y-143748894D01*
X118743401Y-143785087D01*
X118743400Y-159027321D01*
X118565241Y-159146363D01*
X118365363Y-159346241D01*
X118210000Y-159578759D01*
X118054637Y-159346241D01*
X117854759Y-159146363D01*
X117676600Y-159027321D01*
X117676600Y-143037909D01*
X136085274Y-124629236D01*
X136113374Y-124606175D01*
X136136437Y-124578073D01*
X136136442Y-124578068D01*
X136205424Y-124494013D01*
X136223604Y-124460000D01*
X136273822Y-124366049D01*
X136315942Y-124227199D01*
X136326600Y-124118986D01*
X136326600Y-124118985D01*
X136330164Y-124082800D01*
X136326600Y-124046614D01*
X136326600Y-119467841D01*
X136411831Y-119432537D01*
X136695998Y-119242663D01*
X136937663Y-119000998D01*
X137127537Y-118716831D01*
X137258325Y-118401081D01*
X137325000Y-118065883D01*
X137325000Y-117724117D01*
X137258325Y-117388919D01*
X137127537Y-117073169D01*
X136937663Y-116789002D01*
X136695998Y-116547337D01*
X136411831Y-116357463D01*
X136096081Y-116226675D01*
X135760883Y-116160000D01*
X135419117Y-116160000D01*
X135083919Y-116226675D01*
X134768169Y-116357463D01*
X134484002Y-116547337D01*
X134242337Y-116789002D01*
X134052463Y-117073169D01*
X133921675Y-117388919D01*
X133855000Y-117724117D01*
X133855000Y-118065883D01*
X133921675Y-118401081D01*
X134052463Y-118716831D01*
X134242337Y-119000998D01*
X134484002Y-119242663D01*
X134768169Y-119432537D01*
X134853401Y-119467841D01*
X134853400Y-121051947D01*
X134729715Y-120928262D01*
X134298141Y-120639893D01*
X133818601Y-120441261D01*
X133309525Y-120340000D01*
X132790475Y-120340000D01*
X132281399Y-120441261D01*
X131801859Y-120639893D01*
X131370285Y-120928262D01*
X131003262Y-121295285D01*
X130714893Y-121726859D01*
X130516261Y-122206399D01*
X130415000Y-122715475D01*
X130415000Y-123234525D01*
X130516261Y-123743601D01*
X130714893Y-124223141D01*
X131003262Y-124654715D01*
X131370285Y-125021738D01*
X131801859Y-125310107D01*
X132281399Y-125508739D01*
X132790475Y-125610000D01*
X133021090Y-125610000D01*
X116444732Y-142186359D01*
X116416626Y-142209425D01*
X116393560Y-142237531D01*
X116393558Y-142237533D01*
X116324576Y-142321588D01*
X116256178Y-142449553D01*
X116214059Y-142588402D01*
X116199836Y-142732800D01*
X116203401Y-142768993D01*
X116203400Y-159027321D01*
X116025241Y-159146363D01*
X115825363Y-159346241D01*
X115670000Y-159578759D01*
X115514637Y-159346241D01*
X115314759Y-159146363D01*
X115136600Y-159027321D01*
X115136600Y-141675109D01*
X117035269Y-139776441D01*
X117063375Y-139753375D01*
X117086442Y-139725268D01*
X117155424Y-139641214D01*
X117189623Y-139577231D01*
X117223822Y-139513249D01*
X117265942Y-139374399D01*
X117276600Y-139266186D01*
X117276600Y-139266184D01*
X117280164Y-139230001D01*
X117276600Y-139193817D01*
X117276600Y-132353740D01*
X117595000Y-132353740D01*
X117595000Y-132646260D01*
X117652068Y-132933158D01*
X117764010Y-133203411D01*
X117926525Y-133446632D01*
X118133368Y-133653475D01*
X118376589Y-133815990D01*
X118646842Y-133927932D01*
X118933740Y-133985000D01*
X119226260Y-133985000D01*
X119513158Y-133927932D01*
X119783411Y-133815990D01*
X120026632Y-133653475D01*
X120233475Y-133446632D01*
X120395990Y-133203411D01*
X120507932Y-132933158D01*
X120565000Y-132646260D01*
X120565000Y-132353740D01*
X120507932Y-132066842D01*
X120395990Y-131796589D01*
X120233475Y-131553368D01*
X120026632Y-131346525D01*
X119783411Y-131184010D01*
X119513158Y-131072068D01*
X119226260Y-131015000D01*
X118933740Y-131015000D01*
X118646842Y-131072068D01*
X118376589Y-131184010D01*
X118133368Y-131346525D01*
X117926525Y-131553368D01*
X117764010Y-131796589D01*
X117652068Y-132066842D01*
X117595000Y-132353740D01*
X117276600Y-132353740D01*
X117276600Y-128992841D01*
X117361831Y-128957537D01*
X117645998Y-128767663D01*
X117887663Y-128525998D01*
X118077537Y-128241831D01*
X118208325Y-127926081D01*
X118275000Y-127590883D01*
X118275000Y-127249117D01*
X118208325Y-126913919D01*
X118077537Y-126598169D01*
X117887663Y-126314002D01*
X117645998Y-126072337D01*
X117361831Y-125882463D01*
X117046081Y-125751675D01*
X116710883Y-125685000D01*
X116369117Y-125685000D01*
X116033919Y-125751675D01*
X115718169Y-125882463D01*
X115434002Y-126072337D01*
X115192337Y-126314002D01*
X115002463Y-126598169D01*
X114871675Y-126913919D01*
X114805000Y-127249117D01*
X114805000Y-127590883D01*
X114871675Y-127926081D01*
X115002463Y-128241831D01*
X115192337Y-128525998D01*
X115434002Y-128767663D01*
X115718169Y-128957537D01*
X115803400Y-128992841D01*
X115803400Y-130576947D01*
X115679715Y-130453262D01*
X115248141Y-130164893D01*
X114768601Y-129966261D01*
X114259525Y-129865000D01*
X113740475Y-129865000D01*
X113231399Y-129966261D01*
X112751859Y-130164893D01*
X112320285Y-130453262D01*
X111953262Y-130820285D01*
X111664893Y-131251859D01*
X111466261Y-131731399D01*
X111365000Y-132240475D01*
X111365000Y-132759525D01*
X111466261Y-133268601D01*
X111664893Y-133748141D01*
X111953262Y-134179715D01*
X112320285Y-134546738D01*
X112751859Y-134835107D01*
X113231399Y-135033739D01*
X113740475Y-135135000D01*
X114259525Y-135135000D01*
X114768601Y-135033739D01*
X115248141Y-134835107D01*
X115679715Y-134546738D01*
X115803401Y-134423052D01*
X115803401Y-138924889D01*
X113904732Y-140823559D01*
X113876625Y-140846626D01*
X113784576Y-140958788D01*
X113716178Y-141086752D01*
X113674058Y-141225602D01*
X113664604Y-141321589D01*
X113659836Y-141370000D01*
X113663400Y-141406183D01*
X113663401Y-159027321D01*
X113485241Y-159146363D01*
X113285363Y-159346241D01*
X113130000Y-159578759D01*
X112974637Y-159346241D01*
X112774759Y-159146363D01*
X112539727Y-158989320D01*
X112278574Y-158881147D01*
X112001335Y-158826000D01*
X111718665Y-158826000D01*
X111441426Y-158881147D01*
X111180273Y-158989320D01*
X110945241Y-159146363D01*
X110745363Y-159346241D01*
X110590000Y-159578759D01*
X110434637Y-159346241D01*
X110234759Y-159146363D01*
X109999727Y-158989320D01*
X109738574Y-158881147D01*
X109461335Y-158826000D01*
X109178665Y-158826000D01*
X108901426Y-158881147D01*
X108640273Y-158989320D01*
X108405241Y-159146363D01*
X108205363Y-159346241D01*
X108050000Y-159578759D01*
X107894637Y-159346241D01*
X107694759Y-159146363D01*
X107459727Y-158989320D01*
X107198574Y-158881147D01*
X106921335Y-158826000D01*
X106638665Y-158826000D01*
X106361426Y-158881147D01*
X106100273Y-158989320D01*
X105865241Y-159146363D01*
X105665363Y-159346241D01*
X105508320Y-159581273D01*
X105400147Y-159842426D01*
X105345000Y-160119665D01*
X104066600Y-160119665D01*
X104066600Y-144187259D01*
X104840000Y-144187259D01*
X104840000Y-144612741D01*
X104923008Y-145030049D01*
X105085833Y-145423144D01*
X105322219Y-145776920D01*
X105623080Y-146077781D01*
X105976856Y-146314167D01*
X106369951Y-146476992D01*
X106787259Y-146560000D01*
X107212741Y-146560000D01*
X107630049Y-146476992D01*
X108023144Y-146314167D01*
X108376920Y-146077781D01*
X108677781Y-145776920D01*
X108914167Y-145423144D01*
X109076992Y-145030049D01*
X109160000Y-144612741D01*
X109160000Y-144187259D01*
X109076992Y-143769951D01*
X108914167Y-143376856D01*
X108677781Y-143023080D01*
X108376920Y-142722219D01*
X108023144Y-142485833D01*
X107630049Y-142323008D01*
X107212741Y-142240000D01*
X106787259Y-142240000D01*
X106369951Y-142323008D01*
X105976856Y-142485833D01*
X105623080Y-142722219D01*
X105322219Y-143023080D01*
X105085833Y-143376856D01*
X104923008Y-143769951D01*
X104840000Y-144187259D01*
X104066600Y-144187259D01*
X104066600Y-132353740D01*
X107435000Y-132353740D01*
X107435000Y-132646260D01*
X107492068Y-132933158D01*
X107604010Y-133203411D01*
X107766525Y-133446632D01*
X107973368Y-133653475D01*
X108216589Y-133815990D01*
X108486842Y-133927932D01*
X108773740Y-133985000D01*
X109066260Y-133985000D01*
X109353158Y-133927932D01*
X109623411Y-133815990D01*
X109866632Y-133653475D01*
X110073475Y-133446632D01*
X110235990Y-133203411D01*
X110347932Y-132933158D01*
X110405000Y-132646260D01*
X110405000Y-132353740D01*
X110347932Y-132066842D01*
X110235990Y-131796589D01*
X110168110Y-131695000D01*
X110360883Y-131695000D01*
X110696081Y-131628325D01*
X111011831Y-131497537D01*
X111295998Y-131307663D01*
X111537663Y-131065998D01*
X111727537Y-130781831D01*
X111858325Y-130466081D01*
X111925000Y-130130883D01*
X111925000Y-129789117D01*
X111858325Y-129453919D01*
X111727537Y-129138169D01*
X111537663Y-128854002D01*
X111295998Y-128612337D01*
X111206000Y-128552202D01*
X111206000Y-124198840D01*
X117074441Y-118330400D01*
X120893821Y-118330400D01*
X120560285Y-118553262D01*
X120193262Y-118920285D01*
X119904893Y-119351859D01*
X119706261Y-119831399D01*
X119605000Y-120340475D01*
X119605000Y-120859525D01*
X119706261Y-121368601D01*
X119904893Y-121848141D01*
X120193262Y-122279715D01*
X120560285Y-122646738D01*
X120991859Y-122935107D01*
X121471399Y-123133739D01*
X121980475Y-123235000D01*
X122499525Y-123235000D01*
X123008601Y-123133739D01*
X123488141Y-122935107D01*
X123919715Y-122646738D01*
X124286738Y-122279715D01*
X124575107Y-121848141D01*
X124773739Y-121368601D01*
X124875000Y-120859525D01*
X124875000Y-120340475D01*
X124773739Y-119831399D01*
X124575107Y-119351859D01*
X124286738Y-118920285D01*
X123919715Y-118553262D01*
X123586179Y-118330400D01*
X125698560Y-118330400D01*
X127526116Y-120157957D01*
X127505000Y-120264117D01*
X127505000Y-120605883D01*
X127571675Y-120941081D01*
X127702463Y-121256831D01*
X127858261Y-121490000D01*
X127823740Y-121490000D01*
X127536842Y-121547068D01*
X127266589Y-121659010D01*
X127023368Y-121821525D01*
X126816525Y-122028368D01*
X126654010Y-122271589D01*
X126542068Y-122541842D01*
X126485000Y-122828740D01*
X126485000Y-123121260D01*
X126542068Y-123408158D01*
X126654010Y-123678411D01*
X126816525Y-123921632D01*
X127023368Y-124128475D01*
X127266589Y-124290990D01*
X127536842Y-124402932D01*
X127823740Y-124460000D01*
X128116260Y-124460000D01*
X128403158Y-124402932D01*
X128673411Y-124290990D01*
X128916632Y-124128475D01*
X129123475Y-123921632D01*
X129285990Y-123678411D01*
X129397932Y-123408158D01*
X129455000Y-123121260D01*
X129455000Y-122828740D01*
X129397932Y-122541842D01*
X129285990Y-122271589D01*
X129218110Y-122170000D01*
X129410883Y-122170000D01*
X129746081Y-122103325D01*
X130061831Y-121972537D01*
X130345998Y-121782663D01*
X130587663Y-121540998D01*
X130777537Y-121256831D01*
X130908325Y-120941081D01*
X130975000Y-120605883D01*
X130975000Y-120264117D01*
X130908325Y-119928919D01*
X130777537Y-119613169D01*
X130587663Y-119329002D01*
X130345998Y-119087337D01*
X130061831Y-118897463D01*
X129746081Y-118766675D01*
X129410883Y-118700000D01*
X129069117Y-118700000D01*
X128962957Y-118721116D01*
X126873112Y-116631272D01*
X126841296Y-116592504D01*
X126686590Y-116465540D01*
X126510087Y-116371198D01*
X126318571Y-116313102D01*
X126169302Y-116298400D01*
X126119400Y-116293485D01*
X126069498Y-116298400D01*
X116703502Y-116298400D01*
X116653600Y-116293485D01*
X116603698Y-116298400D01*
X116454429Y-116313102D01*
X116262913Y-116371198D01*
X116086410Y-116465540D01*
X115931704Y-116592504D01*
X115899892Y-116631267D01*
X109506868Y-123024292D01*
X109468105Y-123056104D01*
X109341141Y-123210810D01*
X109270679Y-123342636D01*
X109246799Y-123387313D01*
X109188702Y-123578830D01*
X109169085Y-123778000D01*
X109174001Y-123827912D01*
X109174000Y-128552202D01*
X109084002Y-128612337D01*
X108842337Y-128854002D01*
X108652463Y-129138169D01*
X108521675Y-129453919D01*
X108455000Y-129789117D01*
X108455000Y-130130883D01*
X108521675Y-130466081D01*
X108652463Y-130781831D01*
X108808261Y-131015000D01*
X108773740Y-131015000D01*
X108486842Y-131072068D01*
X108216589Y-131184010D01*
X107973368Y-131346525D01*
X107766525Y-131553368D01*
X107604010Y-131796589D01*
X107492068Y-132066842D01*
X107435000Y-132353740D01*
X104066600Y-132353740D01*
X104066600Y-127283215D01*
X122635269Y-108714547D01*
X122663375Y-108691481D01*
X122755424Y-108579319D01*
X122823822Y-108451355D01*
X122865942Y-108312505D01*
X122876600Y-108204292D01*
X122876600Y-108204283D01*
X122880163Y-108168107D01*
X122876600Y-108131931D01*
X122876600Y-108030000D01*
X128371928Y-108030000D01*
X128371928Y-109530000D01*
X128384188Y-109654482D01*
X128420498Y-109774180D01*
X128479463Y-109884494D01*
X128558815Y-109981185D01*
X128655506Y-110060537D01*
X128765820Y-110119502D01*
X128885518Y-110155812D01*
X128993483Y-110166445D01*
X128877114Y-110244201D01*
X128684201Y-110437114D01*
X128532629Y-110663957D01*
X128428225Y-110916011D01*
X128375000Y-111183589D01*
X128375000Y-111456411D01*
X128428225Y-111723989D01*
X128532629Y-111976043D01*
X128684201Y-112202886D01*
X128877114Y-112395799D01*
X129103957Y-112547371D01*
X129206873Y-112590000D01*
X129103957Y-112632629D01*
X128877114Y-112784201D01*
X128684201Y-112977114D01*
X128532629Y-113203957D01*
X128428225Y-113456011D01*
X128375000Y-113723589D01*
X128375000Y-113996411D01*
X128428225Y-114263989D01*
X128532629Y-114516043D01*
X128684201Y-114742886D01*
X128877114Y-114935799D01*
X129103957Y-115087371D01*
X129356011Y-115191775D01*
X129623589Y-115245000D01*
X129896411Y-115245000D01*
X130163989Y-115191775D01*
X130416043Y-115087371D01*
X130642886Y-114935799D01*
X130835799Y-114742886D01*
X130987371Y-114516043D01*
X131091775Y-114263989D01*
X131145000Y-113996411D01*
X131145000Y-113723589D01*
X131144021Y-113718665D01*
X136770000Y-113718665D01*
X136770000Y-114001335D01*
X136825147Y-114278574D01*
X136933320Y-114539727D01*
X137090363Y-114774759D01*
X137290241Y-114974637D01*
X137525273Y-115131680D01*
X137786426Y-115239853D01*
X138063665Y-115295000D01*
X138346335Y-115295000D01*
X138623574Y-115239853D01*
X138884727Y-115131680D01*
X139119759Y-114974637D01*
X139319637Y-114774759D01*
X139476680Y-114539727D01*
X139584853Y-114278574D01*
X139640000Y-114001335D01*
X139640000Y-113718665D01*
X139584853Y-113441426D01*
X139476680Y-113180273D01*
X139319637Y-112945241D01*
X139119759Y-112745363D01*
X138884727Y-112588320D01*
X138623574Y-112480147D01*
X138346335Y-112425000D01*
X138063665Y-112425000D01*
X137786426Y-112480147D01*
X137525273Y-112588320D01*
X137290241Y-112745363D01*
X137090363Y-112945241D01*
X136933320Y-113180273D01*
X136825147Y-113441426D01*
X136770000Y-113718665D01*
X131144021Y-113718665D01*
X131091775Y-113456011D01*
X130987371Y-113203957D01*
X130835799Y-112977114D01*
X130642886Y-112784201D01*
X130416043Y-112632629D01*
X130313127Y-112590000D01*
X130416043Y-112547371D01*
X130642886Y-112395799D01*
X130835799Y-112202886D01*
X130987371Y-111976043D01*
X131091775Y-111723989D01*
X131120871Y-111577712D01*
X131366292Y-111823133D01*
X131398104Y-111861896D01*
X131552810Y-111988860D01*
X131729313Y-112083202D01*
X131920829Y-112141298D01*
X132119999Y-112160915D01*
X132169901Y-112156000D01*
X143415098Y-112156000D01*
X143465000Y-112160915D01*
X143514902Y-112156000D01*
X143664171Y-112141298D01*
X143855687Y-112083202D01*
X144032190Y-111988860D01*
X144186896Y-111861896D01*
X144218712Y-111823128D01*
X145823769Y-110218072D01*
X146625000Y-110218072D01*
X146749482Y-110205812D01*
X146869180Y-110169502D01*
X146979494Y-110110537D01*
X147076185Y-110031185D01*
X147155537Y-109934494D01*
X147214502Y-109824180D01*
X147250812Y-109704482D01*
X147263072Y-109580000D01*
X147263072Y-107980000D01*
X147250812Y-107855518D01*
X147214502Y-107735820D01*
X147155537Y-107625506D01*
X147076185Y-107528815D01*
X146979494Y-107449463D01*
X146869180Y-107390498D01*
X146841000Y-107381950D01*
X146841000Y-102013396D01*
X146939637Y-101914759D01*
X147096680Y-101679727D01*
X147204853Y-101418574D01*
X147260000Y-101141335D01*
X147260000Y-100858665D01*
X147212981Y-100622285D01*
X154165000Y-100622285D01*
X154165000Y-101377715D01*
X154312377Y-102118628D01*
X154601467Y-102816554D01*
X155021161Y-103444670D01*
X155555330Y-103978839D01*
X156183446Y-104398533D01*
X156881372Y-104687623D01*
X157622285Y-104835000D01*
X158377715Y-104835000D01*
X159118628Y-104687623D01*
X159816554Y-104398533D01*
X160444670Y-103978839D01*
X160978839Y-103444670D01*
X161398533Y-102816554D01*
X161687623Y-102118628D01*
X161835000Y-101377715D01*
X161835000Y-100622285D01*
X161687623Y-99881372D01*
X161398533Y-99183446D01*
X160978839Y-98555330D01*
X160444670Y-98021161D01*
X159816554Y-97601467D01*
X159118628Y-97312377D01*
X158377715Y-97165000D01*
X157622285Y-97165000D01*
X156881372Y-97312377D01*
X156183446Y-97601467D01*
X155555330Y-98021161D01*
X155021161Y-98555330D01*
X154601467Y-99183446D01*
X154312377Y-99881372D01*
X154165000Y-100622285D01*
X147212981Y-100622285D01*
X147204853Y-100581426D01*
X147096680Y-100320273D01*
X146939637Y-100085241D01*
X146739759Y-99885363D01*
X146504727Y-99728320D01*
X146243574Y-99620147D01*
X145966335Y-99565000D01*
X145683665Y-99565000D01*
X145406426Y-99620147D01*
X145145273Y-99728320D01*
X144910241Y-99885363D01*
X144710363Y-100085241D01*
X144553320Y-100320273D01*
X144445147Y-100581426D01*
X144390000Y-100858665D01*
X144390000Y-101141335D01*
X144445147Y-101418574D01*
X144553320Y-101679727D01*
X144710363Y-101914759D01*
X144809001Y-102013397D01*
X144809000Y-107381950D01*
X144780820Y-107390498D01*
X144670506Y-107449463D01*
X144573815Y-107528815D01*
X144494463Y-107625506D01*
X144435498Y-107735820D01*
X144399188Y-107855518D01*
X144386928Y-107980000D01*
X144386928Y-108781231D01*
X143044160Y-110124000D01*
X138687827Y-110124000D01*
X138818881Y-110077070D01*
X139060131Y-109932385D01*
X139268519Y-109743414D01*
X139436037Y-109517420D01*
X139556246Y-109263087D01*
X139596904Y-109129039D01*
X139474915Y-108907000D01*
X138332000Y-108907000D01*
X138332000Y-108927000D01*
X138078000Y-108927000D01*
X138078000Y-108907000D01*
X136935085Y-108907000D01*
X136813096Y-109129039D01*
X136853754Y-109263087D01*
X136973963Y-109517420D01*
X137141481Y-109743414D01*
X137349869Y-109932385D01*
X137591119Y-110077070D01*
X137722173Y-110124000D01*
X132540841Y-110124000D01*
X131148072Y-108731232D01*
X131148072Y-108430961D01*
X136813096Y-108430961D01*
X136935085Y-108653000D01*
X138078000Y-108653000D01*
X138078000Y-107509376D01*
X138332000Y-107509376D01*
X138332000Y-108653000D01*
X139474915Y-108653000D01*
X139596904Y-108430961D01*
X139556246Y-108296913D01*
X139436037Y-108042580D01*
X139268519Y-107816586D01*
X139060131Y-107627615D01*
X138818881Y-107482930D01*
X138554040Y-107388091D01*
X138332000Y-107509376D01*
X138078000Y-107509376D01*
X137855960Y-107388091D01*
X137591119Y-107482930D01*
X137349869Y-107627615D01*
X137141481Y-107816586D01*
X136973963Y-108042580D01*
X136853754Y-108296913D01*
X136813096Y-108430961D01*
X131148072Y-108430961D01*
X131148072Y-108030000D01*
X131135812Y-107905518D01*
X131099502Y-107785820D01*
X131040537Y-107675506D01*
X130961185Y-107578815D01*
X130864494Y-107499463D01*
X130754180Y-107440498D01*
X130634482Y-107404188D01*
X130510000Y-107391928D01*
X129010000Y-107391928D01*
X128885518Y-107404188D01*
X128765820Y-107440498D01*
X128655506Y-107499463D01*
X128558815Y-107578815D01*
X128479463Y-107675506D01*
X128420498Y-107785820D01*
X128384188Y-107905518D01*
X128371928Y-108030000D01*
X122876600Y-108030000D01*
X122876600Y-106517814D01*
X123086632Y-106377475D01*
X123293475Y-106170632D01*
X123410000Y-105996240D01*
X123526525Y-106170632D01*
X123733368Y-106377475D01*
X123976589Y-106539990D01*
X124246842Y-106651932D01*
X124533740Y-106709000D01*
X124826260Y-106709000D01*
X125113158Y-106651932D01*
X125383411Y-106539990D01*
X125626632Y-106377475D01*
X125833475Y-106170632D01*
X125955195Y-105988466D01*
X126024822Y-106105355D01*
X126219731Y-106321588D01*
X126453080Y-106495641D01*
X126715901Y-106620825D01*
X126863110Y-106665476D01*
X127093000Y-106544155D01*
X127093000Y-105351000D01*
X127073000Y-105351000D01*
X127073000Y-105097000D01*
X127093000Y-105097000D01*
X127093000Y-103903845D01*
X127347000Y-103903845D01*
X127347000Y-105097000D01*
X127367000Y-105097000D01*
X127367000Y-105351000D01*
X127347000Y-105351000D01*
X127347000Y-106544155D01*
X127576890Y-106665476D01*
X127724099Y-106620825D01*
X127986920Y-106495641D01*
X128220269Y-106321588D01*
X128415178Y-106105355D01*
X128484805Y-105988466D01*
X128606525Y-106170632D01*
X128813368Y-106377475D01*
X129056589Y-106539990D01*
X129326842Y-106651932D01*
X129613740Y-106709000D01*
X129906260Y-106709000D01*
X130193158Y-106651932D01*
X130463411Y-106539990D01*
X130706632Y-106377475D01*
X130913475Y-106170632D01*
X131075990Y-105927411D01*
X131187932Y-105657158D01*
X131245000Y-105370260D01*
X131245000Y-105077740D01*
X131187932Y-104790842D01*
X131075990Y-104520589D01*
X130913475Y-104277368D01*
X130706632Y-104070525D01*
X130463411Y-103908010D01*
X130193158Y-103796068D01*
X129906260Y-103739000D01*
X129613740Y-103739000D01*
X129326842Y-103796068D01*
X129056589Y-103908010D01*
X128813368Y-104070525D01*
X128606525Y-104277368D01*
X128484805Y-104459534D01*
X128415178Y-104342645D01*
X128220269Y-104126412D01*
X127986920Y-103952359D01*
X127724099Y-103827175D01*
X127576890Y-103782524D01*
X127347000Y-103903845D01*
X127093000Y-103903845D01*
X126863110Y-103782524D01*
X126715901Y-103827175D01*
X126453080Y-103952359D01*
X126219731Y-104126412D01*
X126024822Y-104342645D01*
X125955195Y-104459534D01*
X125833475Y-104277368D01*
X125626632Y-104070525D01*
X125383411Y-103908010D01*
X125113158Y-103796068D01*
X124826260Y-103739000D01*
X124533740Y-103739000D01*
X124246842Y-103796068D01*
X123976589Y-103908010D01*
X123733368Y-104070525D01*
X123526525Y-104277368D01*
X123410000Y-104451760D01*
X123293475Y-104277368D01*
X123086632Y-104070525D01*
X122843411Y-103908010D01*
X122573158Y-103796068D01*
X122286260Y-103739000D01*
X121993740Y-103739000D01*
X121706842Y-103796068D01*
X121436589Y-103908010D01*
X121193368Y-104070525D01*
X120986525Y-104277368D01*
X120870000Y-104451760D01*
X120753475Y-104277368D01*
X120546632Y-104070525D01*
X120303411Y-103908010D01*
X120033158Y-103796068D01*
X119746260Y-103739000D01*
X119453740Y-103739000D01*
X119166842Y-103796068D01*
X118896589Y-103908010D01*
X118653368Y-104070525D01*
X118446525Y-104277368D01*
X118330000Y-104451760D01*
X118213475Y-104277368D01*
X118006632Y-104070525D01*
X117763411Y-103908010D01*
X117493158Y-103796068D01*
X117206260Y-103739000D01*
X116913740Y-103739000D01*
X116626842Y-103796068D01*
X116356589Y-103908010D01*
X116113368Y-104070525D01*
X115906525Y-104277368D01*
X115790000Y-104451760D01*
X115673475Y-104277368D01*
X115466632Y-104070525D01*
X115223411Y-103908010D01*
X114953158Y-103796068D01*
X114666260Y-103739000D01*
X114373740Y-103739000D01*
X114086842Y-103796068D01*
X113816589Y-103908010D01*
X113573368Y-104070525D01*
X113366525Y-104277368D01*
X113250000Y-104451760D01*
X113133475Y-104277368D01*
X112926632Y-104070525D01*
X112683411Y-103908010D01*
X112413158Y-103796068D01*
X112126260Y-103739000D01*
X111833740Y-103739000D01*
X111546842Y-103796068D01*
X111276589Y-103908010D01*
X111033368Y-104070525D01*
X110826525Y-104277368D01*
X110710000Y-104451760D01*
X110593475Y-104277368D01*
X110386632Y-104070525D01*
X110143411Y-103908010D01*
X109873158Y-103796068D01*
X109586260Y-103739000D01*
X109293740Y-103739000D01*
X109006842Y-103796068D01*
X108736589Y-103908010D01*
X108493368Y-104070525D01*
X108286525Y-104277368D01*
X108170000Y-104451760D01*
X108053475Y-104277368D01*
X107846632Y-104070525D01*
X107603411Y-103908010D01*
X107333158Y-103796068D01*
X107046260Y-103739000D01*
X106753740Y-103739000D01*
X106466842Y-103796068D01*
X106196589Y-103908010D01*
X105953368Y-104070525D01*
X105746525Y-104277368D01*
X105630000Y-104451760D01*
X105513475Y-104277368D01*
X105306632Y-104070525D01*
X105063411Y-103908010D01*
X104793158Y-103796068D01*
X104506260Y-103739000D01*
X104213740Y-103739000D01*
X103926842Y-103796068D01*
X103656589Y-103908010D01*
X103413368Y-104070525D01*
X103206525Y-104277368D01*
X103090000Y-104451760D01*
X102973475Y-104277368D01*
X102766632Y-104070525D01*
X102523411Y-103908010D01*
X102253158Y-103796068D01*
X101966260Y-103739000D01*
X101673740Y-103739000D01*
X101386842Y-103796068D01*
X101116589Y-103908010D01*
X100873368Y-104070525D01*
X100666525Y-104277368D01*
X100550000Y-104451760D01*
X100433475Y-104277368D01*
X100226632Y-104070525D01*
X99983411Y-103908010D01*
X99713158Y-103796068D01*
X99426260Y-103739000D01*
X99133740Y-103739000D01*
X98846842Y-103796068D01*
X98576589Y-103908010D01*
X98333368Y-104070525D01*
X98126525Y-104277368D01*
X98010000Y-104451760D01*
X97893475Y-104277368D01*
X97686632Y-104070525D01*
X97443411Y-103908010D01*
X97173158Y-103796068D01*
X96886260Y-103739000D01*
X96593740Y-103739000D01*
X96306842Y-103796068D01*
X96036589Y-103908010D01*
X95793368Y-104070525D01*
X95586525Y-104277368D01*
X95464805Y-104459534D01*
X95395178Y-104342645D01*
X95200269Y-104126412D01*
X94966920Y-103952359D01*
X94704099Y-103827175D01*
X94556890Y-103782524D01*
X94327000Y-103903845D01*
X94073000Y-103903845D01*
X93843110Y-103782524D01*
X93695901Y-103827175D01*
X93433080Y-103952359D01*
X93199731Y-104126412D01*
X93004822Y-104342645D01*
X92935195Y-104459534D01*
X92813475Y-104277368D01*
X92606632Y-104070525D01*
X92363411Y-103908010D01*
X92093158Y-103796068D01*
X91806260Y-103739000D01*
X91513740Y-103739000D01*
X91226842Y-103796068D01*
X90956589Y-103908010D01*
X90713368Y-104070525D01*
X90506525Y-104277368D01*
X90390000Y-104451760D01*
X90273475Y-104277368D01*
X90066632Y-104070525D01*
X89823411Y-103908010D01*
X89553158Y-103796068D01*
X89266260Y-103739000D01*
X88973740Y-103739000D01*
X88686842Y-103796068D01*
X88416589Y-103908010D01*
X88173368Y-104070525D01*
X87966525Y-104277368D01*
X87850000Y-104451760D01*
X87733475Y-104277368D01*
X87526632Y-104070525D01*
X87283411Y-103908010D01*
X87013158Y-103796068D01*
X86726260Y-103739000D01*
X86433740Y-103739000D01*
X86146842Y-103796068D01*
X85876589Y-103908010D01*
X85633368Y-104070525D01*
X85426525Y-104277368D01*
X85304805Y-104459534D01*
X85235178Y-104342645D01*
X85040269Y-104126412D01*
X84806920Y-103952359D01*
X84544099Y-103827175D01*
X84396890Y-103782524D01*
X84167000Y-103903845D01*
X83913000Y-103903845D01*
X83683110Y-103782524D01*
X83535901Y-103827175D01*
X83273080Y-103952359D01*
X83039731Y-104126412D01*
X82963966Y-104210466D01*
X82939502Y-104129820D01*
X82880537Y-104019506D01*
X82801185Y-103922815D01*
X82704494Y-103843463D01*
X82594180Y-103784498D01*
X82474482Y-103748188D01*
X82350000Y-103735928D01*
X80650000Y-103735928D01*
X80525518Y-103748188D01*
X80405820Y-103784498D01*
X80295506Y-103843463D01*
X80198815Y-103922815D01*
X80119463Y-104019506D01*
X80060498Y-104129820D01*
X80024188Y-104249518D01*
X80011928Y-104374000D01*
X71853270Y-104374000D01*
X72444670Y-103978839D01*
X72978839Y-103444670D01*
X73398533Y-102816554D01*
X73687623Y-102118628D01*
X73751002Y-101800000D01*
X137886928Y-101800000D01*
X137899188Y-101924482D01*
X137935498Y-102044180D01*
X137994463Y-102154494D01*
X138073815Y-102251185D01*
X138170506Y-102330537D01*
X138280820Y-102389502D01*
X138400518Y-102425812D01*
X138525000Y-102438072D01*
X139039250Y-102435000D01*
X139198000Y-102276250D01*
X139198000Y-101127000D01*
X139452000Y-101127000D01*
X139452000Y-102276250D01*
X139610750Y-102435000D01*
X140125000Y-102438072D01*
X140249482Y-102425812D01*
X140369180Y-102389502D01*
X140479494Y-102330537D01*
X140576185Y-102251185D01*
X140655537Y-102154494D01*
X140714502Y-102044180D01*
X140750812Y-101924482D01*
X140763072Y-101800000D01*
X140760000Y-101285750D01*
X140601250Y-101127000D01*
X139452000Y-101127000D01*
X139198000Y-101127000D01*
X138048750Y-101127000D01*
X137890000Y-101285750D01*
X137886928Y-101800000D01*
X73751002Y-101800000D01*
X73835000Y-101377715D01*
X73835000Y-100622285D01*
X73751003Y-100200000D01*
X137886928Y-100200000D01*
X137890000Y-100714250D01*
X138048750Y-100873000D01*
X139198000Y-100873000D01*
X139198000Y-99723750D01*
X139452000Y-99723750D01*
X139452000Y-100873000D01*
X140601250Y-100873000D01*
X140760000Y-100714250D01*
X140763072Y-100200000D01*
X140750812Y-100075518D01*
X140714502Y-99955820D01*
X140655537Y-99845506D01*
X140576185Y-99748815D01*
X140479494Y-99669463D01*
X140369180Y-99610498D01*
X140249482Y-99574188D01*
X140125000Y-99561928D01*
X139610750Y-99565000D01*
X139452000Y-99723750D01*
X139198000Y-99723750D01*
X139039250Y-99565000D01*
X138525000Y-99561928D01*
X138400518Y-99574188D01*
X138280820Y-99610498D01*
X138170506Y-99669463D01*
X138073815Y-99748815D01*
X137994463Y-99845506D01*
X137935498Y-99955820D01*
X137899188Y-100075518D01*
X137886928Y-100200000D01*
X73751003Y-100200000D01*
X73687623Y-99881372D01*
X73398533Y-99183446D01*
X72978839Y-98555330D01*
X72444670Y-98021161D01*
X71816554Y-97601467D01*
X71118628Y-97312377D01*
X70377715Y-97165000D01*
X69622285Y-97165000D01*
X68881372Y-97312377D01*
X68183446Y-97601467D01*
X67555330Y-98021161D01*
X67021161Y-98555330D01*
X66601467Y-99183446D01*
X66312377Y-99881372D01*
X66165000Y-100622285D01*
X64685000Y-100622285D01*
X64685000Y-96966353D01*
X64675711Y-96872045D01*
X64688625Y-96740341D01*
X64764035Y-96490571D01*
X64886522Y-96260208D01*
X65051422Y-96058020D01*
X65252450Y-95891714D01*
X65481954Y-95767622D01*
X65731195Y-95690469D01*
X65871819Y-95675689D01*
X65966353Y-95685000D01*
G04 #@! TA.AperFunction,Conductor*
D22*
G36*
X65966353Y-95685000D02*
G01*
X162033647Y-95685000D01*
X162127955Y-95675711D01*
X162259659Y-95688625D01*
X162509429Y-95764035D01*
X162739792Y-95886522D01*
X162941980Y-96051422D01*
X163108286Y-96252450D01*
X163232378Y-96481954D01*
X163309531Y-96731195D01*
X163324311Y-96871819D01*
X163315000Y-96966354D01*
X163315001Y-168033647D01*
X163324289Y-168127950D01*
X163311375Y-168259660D01*
X163235965Y-168509429D01*
X163113477Y-168739794D01*
X162948579Y-168941979D01*
X162747546Y-169108288D01*
X162518046Y-169232378D01*
X162268805Y-169309531D01*
X162128181Y-169324311D01*
X162033647Y-169315000D01*
X65966353Y-169315000D01*
X65872045Y-169324289D01*
X65740340Y-169311375D01*
X65490571Y-169235965D01*
X65260206Y-169113477D01*
X65058021Y-168948579D01*
X64891712Y-168747546D01*
X64767622Y-168518046D01*
X64690469Y-168268805D01*
X64675689Y-168128181D01*
X64685000Y-168033647D01*
X64685000Y-163622285D01*
X66165000Y-163622285D01*
X66165000Y-164377715D01*
X66312377Y-165118628D01*
X66601467Y-165816554D01*
X67021161Y-166444670D01*
X67555330Y-166978839D01*
X68183446Y-167398533D01*
X68881372Y-167687623D01*
X69622285Y-167835000D01*
X70377715Y-167835000D01*
X71118628Y-167687623D01*
X71816554Y-167398533D01*
X72444670Y-166978839D01*
X72978839Y-166444670D01*
X73398533Y-165816554D01*
X73687623Y-165118628D01*
X73835000Y-164377715D01*
X73835000Y-163622285D01*
X73687623Y-162881372D01*
X73398533Y-162183446D01*
X72978839Y-161555330D01*
X72444670Y-161021161D01*
X71816554Y-160601467D01*
X71118628Y-160312377D01*
X70377715Y-160165000D01*
X69622285Y-160165000D01*
X68881372Y-160312377D01*
X68183446Y-160601467D01*
X67555330Y-161021161D01*
X67021161Y-161555330D01*
X66601467Y-162183446D01*
X66312377Y-162881372D01*
X66165000Y-163622285D01*
X64685000Y-163622285D01*
X64685000Y-144187259D01*
X66740000Y-144187259D01*
X66740000Y-144612741D01*
X66823008Y-145030049D01*
X66985833Y-145423144D01*
X67222219Y-145776920D01*
X67523080Y-146077781D01*
X67876856Y-146314167D01*
X68269951Y-146476992D01*
X68687259Y-146560000D01*
X69112741Y-146560000D01*
X69530049Y-146476992D01*
X69923144Y-146314167D01*
X70276920Y-146077781D01*
X70577781Y-145776920D01*
X70814167Y-145423144D01*
X70976992Y-145030049D01*
X71060000Y-144612741D01*
X71060000Y-144187259D01*
X71050695Y-144140475D01*
X81505000Y-144140475D01*
X81505000Y-144659525D01*
X81606261Y-145168601D01*
X81804893Y-145648141D01*
X82093262Y-146079715D01*
X82460285Y-146446738D01*
X82891859Y-146735107D01*
X83371399Y-146933739D01*
X83880475Y-147035000D01*
X84399525Y-147035000D01*
X84908601Y-146933739D01*
X85388141Y-146735107D01*
X85819715Y-146446738D01*
X86186738Y-146079715D01*
X86475107Y-145648141D01*
X86673739Y-145168601D01*
X86775000Y-144659525D01*
X86775000Y-144140475D01*
X86673739Y-143631399D01*
X86475107Y-143151859D01*
X86186738Y-142720285D01*
X85819715Y-142353262D01*
X85388141Y-142064893D01*
X84938728Y-141878740D01*
X88385000Y-141878740D01*
X88385000Y-142171260D01*
X88442068Y-142458158D01*
X88554010Y-142728411D01*
X88716525Y-142971632D01*
X88923368Y-143178475D01*
X89166589Y-143340990D01*
X89436842Y-143452932D01*
X89723740Y-143510000D01*
X90016260Y-143510000D01*
X90303158Y-143452932D01*
X90573411Y-143340990D01*
X90816632Y-143178475D01*
X91023475Y-142971632D01*
X91185990Y-142728411D01*
X91297932Y-142458158D01*
X91355000Y-142171260D01*
X91355000Y-141878740D01*
X91332471Y-141765475D01*
X92315000Y-141765475D01*
X92315000Y-142284525D01*
X92416261Y-142793601D01*
X92614893Y-143273141D01*
X92903262Y-143704715D01*
X93270285Y-144071738D01*
X93701859Y-144360107D01*
X94181399Y-144558739D01*
X94690475Y-144660000D01*
X95209525Y-144660000D01*
X95718601Y-144558739D01*
X96198141Y-144360107D01*
X96629715Y-144071738D01*
X96996738Y-143704715D01*
X97285107Y-143273141D01*
X97483739Y-142793601D01*
X97585000Y-142284525D01*
X97585000Y-141765475D01*
X97483739Y-141256399D01*
X97285107Y-140776859D01*
X96996738Y-140345285D01*
X96629715Y-139978262D01*
X96198141Y-139689893D01*
X95718601Y-139491261D01*
X95209525Y-139390000D01*
X94690475Y-139390000D01*
X94181399Y-139491261D01*
X93701859Y-139689893D01*
X93270285Y-139978262D01*
X92903262Y-140345285D01*
X92614893Y-140776859D01*
X92416261Y-141256399D01*
X92315000Y-141765475D01*
X91332471Y-141765475D01*
X91297932Y-141591842D01*
X91185990Y-141321589D01*
X91118110Y-141220000D01*
X91310883Y-141220000D01*
X91646081Y-141153325D01*
X91961831Y-141022537D01*
X92245998Y-140832663D01*
X92487663Y-140590998D01*
X92677537Y-140306831D01*
X92808325Y-139991081D01*
X92875000Y-139655883D01*
X92875000Y-139314117D01*
X92808325Y-138978919D01*
X92677537Y-138663169D01*
X92487663Y-138379002D01*
X92245998Y-138137337D01*
X91961831Y-137947463D01*
X91646081Y-137816675D01*
X91310883Y-137750000D01*
X90969117Y-137750000D01*
X90633919Y-137816675D01*
X90318169Y-137947463D01*
X90034002Y-138137337D01*
X89792337Y-138379002D01*
X89602463Y-138663169D01*
X89471675Y-138978919D01*
X89405000Y-139314117D01*
X89405000Y-139655883D01*
X89471675Y-139991081D01*
X89602463Y-140306831D01*
X89758261Y-140540000D01*
X89723740Y-140540000D01*
X89436842Y-140597068D01*
X89166589Y-140709010D01*
X88923368Y-140871525D01*
X88716525Y-141078368D01*
X88554010Y-141321589D01*
X88442068Y-141591842D01*
X88385000Y-141878740D01*
X84938728Y-141878740D01*
X84908601Y-141866261D01*
X84399525Y-141765000D01*
X83880475Y-141765000D01*
X83371399Y-141866261D01*
X82891859Y-142064893D01*
X82460285Y-142353262D01*
X82093262Y-142720285D01*
X81804893Y-143151859D01*
X81606261Y-143631399D01*
X81505000Y-144140475D01*
X71050695Y-144140475D01*
X70976992Y-143769951D01*
X70814167Y-143376856D01*
X70577781Y-143023080D01*
X70276920Y-142722219D01*
X69923144Y-142485833D01*
X69530049Y-142323008D01*
X69112741Y-142240000D01*
X68687259Y-142240000D01*
X68269951Y-142323008D01*
X67876856Y-142485833D01*
X67523080Y-142722219D01*
X67222219Y-143023080D01*
X66985833Y-143376856D01*
X66823008Y-143769951D01*
X66740000Y-144187259D01*
X64685000Y-144187259D01*
X64685000Y-136774117D01*
X95755000Y-136774117D01*
X95755000Y-137115883D01*
X95821675Y-137451081D01*
X95952463Y-137766831D01*
X96142337Y-138050998D01*
X96384002Y-138292663D01*
X96668169Y-138482537D01*
X96983919Y-138613325D01*
X97319117Y-138680000D01*
X97660883Y-138680000D01*
X97996081Y-138613325D01*
X98311831Y-138482537D01*
X98595998Y-138292663D01*
X98837663Y-138050998D01*
X99027537Y-137766831D01*
X99158325Y-137451081D01*
X99225000Y-137115883D01*
X99225000Y-136774117D01*
X99158325Y-136438919D01*
X99027537Y-136123169D01*
X98837663Y-135839002D01*
X98595998Y-135597337D01*
X98311831Y-135407463D01*
X97996081Y-135276675D01*
X97660883Y-135210000D01*
X97319117Y-135210000D01*
X96983919Y-135276675D01*
X96668169Y-135407463D01*
X96384002Y-135597337D01*
X96142337Y-135839002D01*
X95952463Y-136123169D01*
X95821675Y-136438919D01*
X95755000Y-136774117D01*
X64685000Y-136774117D01*
X64685000Y-132353740D01*
X69335000Y-132353740D01*
X69335000Y-132646260D01*
X69392068Y-132933158D01*
X69504010Y-133203411D01*
X69666525Y-133446632D01*
X69873368Y-133653475D01*
X70116589Y-133815990D01*
X70386842Y-133927932D01*
X70673740Y-133985000D01*
X70966260Y-133985000D01*
X71253158Y-133927932D01*
X71523411Y-133815990D01*
X71766632Y-133653475D01*
X71973475Y-133446632D01*
X72135990Y-133203411D01*
X72247932Y-132933158D01*
X72305000Y-132646260D01*
X72305000Y-132353740D01*
X72282471Y-132240475D01*
X73265000Y-132240475D01*
X73265000Y-132759525D01*
X73366261Y-133268601D01*
X73564893Y-133748141D01*
X73853262Y-134179715D01*
X74220285Y-134546738D01*
X74651859Y-134835107D01*
X75131399Y-135033739D01*
X75640475Y-135135000D01*
X76159525Y-135135000D01*
X76668601Y-135033739D01*
X77148141Y-134835107D01*
X77579715Y-134546738D01*
X77946738Y-134179715D01*
X78235107Y-133748141D01*
X78433739Y-133268601D01*
X78535000Y-132759525D01*
X78535000Y-132353740D01*
X79495000Y-132353740D01*
X79495000Y-132646260D01*
X79552068Y-132933158D01*
X79664010Y-133203411D01*
X79826525Y-133446632D01*
X80033368Y-133653475D01*
X80276589Y-133815990D01*
X80546842Y-133927932D01*
X80833740Y-133985000D01*
X81126260Y-133985000D01*
X81413158Y-133927932D01*
X81683411Y-133815990D01*
X81926632Y-133653475D01*
X82133475Y-133446632D01*
X82295990Y-133203411D01*
X82407932Y-132933158D01*
X82465000Y-132646260D01*
X82465000Y-132353740D01*
X82407932Y-132066842D01*
X82295990Y-131796589D01*
X82133475Y-131553368D01*
X81926632Y-131346525D01*
X81683411Y-131184010D01*
X81413158Y-131072068D01*
X81126260Y-131015000D01*
X80833740Y-131015000D01*
X80546842Y-131072068D01*
X80276589Y-131184010D01*
X80033368Y-131346525D01*
X79826525Y-131553368D01*
X79664010Y-131796589D01*
X79552068Y-132066842D01*
X79495000Y-132353740D01*
X78535000Y-132353740D01*
X78535000Y-132240475D01*
X78433739Y-131731399D01*
X78235107Y-131251859D01*
X77946738Y-130820285D01*
X77579715Y-130453262D01*
X77148141Y-130164893D01*
X76668601Y-129966261D01*
X76159525Y-129865000D01*
X75640475Y-129865000D01*
X75131399Y-129966261D01*
X74651859Y-130164893D01*
X74220285Y-130453262D01*
X73853262Y-130820285D01*
X73564893Y-131251859D01*
X73366261Y-131731399D01*
X73265000Y-132240475D01*
X72282471Y-132240475D01*
X72247932Y-132066842D01*
X72135990Y-131796589D01*
X72068110Y-131695000D01*
X72260883Y-131695000D01*
X72596081Y-131628325D01*
X72911831Y-131497537D01*
X73195998Y-131307663D01*
X73437663Y-131065998D01*
X73627537Y-130781831D01*
X73758325Y-130466081D01*
X73825000Y-130130883D01*
X73825000Y-129789117D01*
X73758325Y-129453919D01*
X73627537Y-129138169D01*
X73437663Y-128854002D01*
X73195998Y-128612337D01*
X72911831Y-128422463D01*
X72596081Y-128291675D01*
X72260883Y-128225000D01*
X71919117Y-128225000D01*
X71583919Y-128291675D01*
X71268169Y-128422463D01*
X70984002Y-128612337D01*
X70742337Y-128854002D01*
X70552463Y-129138169D01*
X70421675Y-129453919D01*
X70355000Y-129789117D01*
X70355000Y-130130883D01*
X70421675Y-130466081D01*
X70552463Y-130781831D01*
X70708261Y-131015000D01*
X70673740Y-131015000D01*
X70386842Y-131072068D01*
X70116589Y-131184010D01*
X69873368Y-131346525D01*
X69666525Y-131553368D01*
X69504010Y-131796589D01*
X69392068Y-132066842D01*
X69335000Y-132353740D01*
X64685000Y-132353740D01*
X64685000Y-127249117D01*
X76705000Y-127249117D01*
X76705000Y-127590883D01*
X76771675Y-127926081D01*
X76902463Y-128241831D01*
X77092337Y-128525998D01*
X77334002Y-128767663D01*
X77618169Y-128957537D01*
X77933919Y-129088325D01*
X78269117Y-129155000D01*
X78610883Y-129155000D01*
X78946081Y-129088325D01*
X79261831Y-128957537D01*
X79545998Y-128767663D01*
X79787663Y-128525998D01*
X79977537Y-128241831D01*
X80108325Y-127926081D01*
X80175000Y-127590883D01*
X80175000Y-127249117D01*
X80108325Y-126913919D01*
X79977537Y-126598169D01*
X79787663Y-126314002D01*
X79545998Y-126072337D01*
X79261831Y-125882463D01*
X78946081Y-125751675D01*
X78610883Y-125685000D01*
X78269117Y-125685000D01*
X77933919Y-125751675D01*
X77618169Y-125882463D01*
X77334002Y-126072337D01*
X77092337Y-126314002D01*
X76902463Y-126598169D01*
X76771675Y-126913919D01*
X76705000Y-127249117D01*
X64685000Y-127249117D01*
X64685000Y-120387259D01*
X66740000Y-120387259D01*
X66740000Y-120812741D01*
X66823008Y-121230049D01*
X66985833Y-121623144D01*
X67222219Y-121976920D01*
X67523080Y-122277781D01*
X67876856Y-122514167D01*
X68269951Y-122676992D01*
X68687259Y-122760000D01*
X69112741Y-122760000D01*
X69530049Y-122676992D01*
X69923144Y-122514167D01*
X70276920Y-122277781D01*
X70577781Y-121976920D01*
X70814167Y-121623144D01*
X70976992Y-121230049D01*
X71060000Y-120812741D01*
X71060000Y-120387259D01*
X71050695Y-120340475D01*
X81505000Y-120340475D01*
X81505000Y-120859525D01*
X81606261Y-121368601D01*
X81804893Y-121848141D01*
X82093262Y-122279715D01*
X82460285Y-122646738D01*
X82891859Y-122935107D01*
X83371399Y-123133739D01*
X83880475Y-123235000D01*
X84399525Y-123235000D01*
X84908601Y-123133739D01*
X85388141Y-122935107D01*
X85547330Y-122828740D01*
X88385000Y-122828740D01*
X88385000Y-123121260D01*
X88442068Y-123408158D01*
X88554010Y-123678411D01*
X88716525Y-123921632D01*
X88923368Y-124128475D01*
X89166589Y-124290990D01*
X89436842Y-124402932D01*
X89723740Y-124460000D01*
X90016260Y-124460000D01*
X90303158Y-124402932D01*
X90573411Y-124290990D01*
X90816632Y-124128475D01*
X91023475Y-123921632D01*
X91185990Y-123678411D01*
X91297932Y-123408158D01*
X91355000Y-123121260D01*
X91355000Y-122828740D01*
X91332471Y-122715475D01*
X92315000Y-122715475D01*
X92315000Y-123234525D01*
X92416261Y-123743601D01*
X92614893Y-124223141D01*
X92903262Y-124654715D01*
X93270285Y-125021738D01*
X93701859Y-125310107D01*
X94181399Y-125508739D01*
X94690475Y-125610000D01*
X95209525Y-125610000D01*
X95718601Y-125508739D01*
X96198141Y-125310107D01*
X96629715Y-125021738D01*
X96996738Y-124654715D01*
X97285107Y-124223141D01*
X97483739Y-123743601D01*
X97585000Y-123234525D01*
X97585000Y-122715475D01*
X97483739Y-122206399D01*
X97285107Y-121726859D01*
X96996738Y-121295285D01*
X96629715Y-120928262D01*
X96198141Y-120639893D01*
X95718601Y-120441261D01*
X95209525Y-120340000D01*
X94690475Y-120340000D01*
X94181399Y-120441261D01*
X93701859Y-120639893D01*
X93270285Y-120928262D01*
X92903262Y-121295285D01*
X92614893Y-121726859D01*
X92416261Y-122206399D01*
X92315000Y-122715475D01*
X91332471Y-122715475D01*
X91297932Y-122541842D01*
X91185990Y-122271589D01*
X91118110Y-122170000D01*
X91310883Y-122170000D01*
X91646081Y-122103325D01*
X91961831Y-121972537D01*
X92245998Y-121782663D01*
X92487663Y-121540998D01*
X92677537Y-121256831D01*
X92808325Y-120941081D01*
X92875000Y-120605883D01*
X92875000Y-120264117D01*
X92808325Y-119928919D01*
X92677537Y-119613169D01*
X92487663Y-119329002D01*
X92245998Y-119087337D01*
X91961831Y-118897463D01*
X91646081Y-118766675D01*
X91310883Y-118700000D01*
X90969117Y-118700000D01*
X90633919Y-118766675D01*
X90318169Y-118897463D01*
X90034002Y-119087337D01*
X89792337Y-119329002D01*
X89602463Y-119613169D01*
X89471675Y-119928919D01*
X89405000Y-120264117D01*
X89405000Y-120605883D01*
X89471675Y-120941081D01*
X89602463Y-121256831D01*
X89758261Y-121490000D01*
X89723740Y-121490000D01*
X89436842Y-121547068D01*
X89166589Y-121659010D01*
X88923368Y-121821525D01*
X88716525Y-122028368D01*
X88554010Y-122271589D01*
X88442068Y-122541842D01*
X88385000Y-122828740D01*
X85547330Y-122828740D01*
X85819715Y-122646738D01*
X86186738Y-122279715D01*
X86475107Y-121848141D01*
X86673739Y-121368601D01*
X86775000Y-120859525D01*
X86775000Y-120340475D01*
X86673739Y-119831399D01*
X86475107Y-119351859D01*
X86186738Y-118920285D01*
X85819715Y-118553262D01*
X85388141Y-118264893D01*
X84908601Y-118066261D01*
X84399525Y-117965000D01*
X83880475Y-117965000D01*
X83371399Y-118066261D01*
X82891859Y-118264893D01*
X82460285Y-118553262D01*
X82093262Y-118920285D01*
X81804893Y-119351859D01*
X81606261Y-119831399D01*
X81505000Y-120340475D01*
X71050695Y-120340475D01*
X70976992Y-119969951D01*
X70814167Y-119576856D01*
X70577781Y-119223080D01*
X70276920Y-118922219D01*
X69923144Y-118685833D01*
X69530049Y-118523008D01*
X69112741Y-118440000D01*
X68687259Y-118440000D01*
X68269951Y-118523008D01*
X67876856Y-118685833D01*
X67523080Y-118922219D01*
X67222219Y-119223080D01*
X66985833Y-119576856D01*
X66823008Y-119969951D01*
X66740000Y-120387259D01*
X64685000Y-120387259D01*
X64685000Y-117724117D01*
X95755000Y-117724117D01*
X95755000Y-118065883D01*
X95821675Y-118401081D01*
X95952463Y-118716831D01*
X96142337Y-119000998D01*
X96384002Y-119242663D01*
X96668169Y-119432537D01*
X96983919Y-119563325D01*
X97319117Y-119630000D01*
X97660883Y-119630000D01*
X97996081Y-119563325D01*
X98311831Y-119432537D01*
X98595998Y-119242663D01*
X98837663Y-119000998D01*
X99027537Y-118716831D01*
X99158325Y-118401081D01*
X99225000Y-118065883D01*
X99225000Y-117724117D01*
X99158325Y-117388919D01*
X99027537Y-117073169D01*
X98837663Y-116789002D01*
X98595998Y-116547337D01*
X98311831Y-116357463D01*
X97996081Y-116226675D01*
X97660883Y-116160000D01*
X97319117Y-116160000D01*
X96983919Y-116226675D01*
X96668169Y-116357463D01*
X96384002Y-116547337D01*
X96142337Y-116789002D01*
X95952463Y-117073169D01*
X95821675Y-117388919D01*
X95755000Y-117724117D01*
X64685000Y-117724117D01*
X64685000Y-100622285D01*
X66165000Y-100622285D01*
X66165000Y-101377715D01*
X66312377Y-102118628D01*
X66601467Y-102816554D01*
X67021161Y-103444670D01*
X67555330Y-103978839D01*
X68183446Y-104398533D01*
X68881372Y-104687623D01*
X69622285Y-104835000D01*
X70377715Y-104835000D01*
X71118628Y-104687623D01*
X71816554Y-104398533D01*
X71853270Y-104374000D01*
X80011928Y-104374000D01*
X80011928Y-106074000D01*
X80024188Y-106198482D01*
X80060498Y-106318180D01*
X80119463Y-106428494D01*
X80198815Y-106525185D01*
X80295506Y-106604537D01*
X80405820Y-106663502D01*
X80484001Y-106687218D01*
X80484000Y-107452161D01*
X80395506Y-107499463D01*
X80298815Y-107578815D01*
X80219463Y-107675506D01*
X80160498Y-107785820D01*
X80124188Y-107905518D01*
X80111928Y-108030000D01*
X80111928Y-109530000D01*
X80124188Y-109654482D01*
X80160498Y-109774180D01*
X80219463Y-109884494D01*
X80298815Y-109981185D01*
X80395506Y-110060537D01*
X80505820Y-110119502D01*
X80625518Y-110155812D01*
X80733483Y-110166445D01*
X80617114Y-110244201D01*
X80424201Y-110437114D01*
X80272629Y-110663957D01*
X80168225Y-110916011D01*
X80115000Y-111183589D01*
X80115000Y-111456411D01*
X80168225Y-111723989D01*
X80272629Y-111976043D01*
X80424201Y-112202886D01*
X80617114Y-112395799D01*
X80843957Y-112547371D01*
X80946873Y-112590000D01*
X80843957Y-112632629D01*
X80617114Y-112784201D01*
X80424201Y-112977114D01*
X80272629Y-113203957D01*
X80168225Y-113456011D01*
X80115000Y-113723589D01*
X80115000Y-113996411D01*
X80168225Y-114263989D01*
X80272629Y-114516043D01*
X80424201Y-114742886D01*
X80617114Y-114935799D01*
X80843957Y-115087371D01*
X81096011Y-115191775D01*
X81363589Y-115245000D01*
X81636411Y-115245000D01*
X81903989Y-115191775D01*
X82156043Y-115087371D01*
X82382886Y-114935799D01*
X82575799Y-114742886D01*
X82727371Y-114516043D01*
X82831775Y-114263989D01*
X82885000Y-113996411D01*
X82885000Y-113723589D01*
X82831775Y-113456011D01*
X82727371Y-113203957D01*
X82575799Y-112977114D01*
X82382886Y-112784201D01*
X82156043Y-112632629D01*
X82053127Y-112590000D01*
X82156043Y-112547371D01*
X82382886Y-112395799D01*
X82575799Y-112202886D01*
X82727371Y-111976043D01*
X82831775Y-111723989D01*
X82885000Y-111456411D01*
X82885000Y-111183589D01*
X82884021Y-111178665D01*
X85145000Y-111178665D01*
X85145000Y-111461335D01*
X85200147Y-111738574D01*
X85308320Y-111999727D01*
X85465363Y-112234759D01*
X85665241Y-112434637D01*
X85900273Y-112591680D01*
X86161426Y-112699853D01*
X86438665Y-112755000D01*
X86721335Y-112755000D01*
X86998574Y-112699853D01*
X87259727Y-112591680D01*
X87494759Y-112434637D01*
X87694637Y-112234759D01*
X87851680Y-111999727D01*
X87959853Y-111738574D01*
X88015000Y-111461335D01*
X88015000Y-111178665D01*
X92765000Y-111178665D01*
X92765000Y-111461335D01*
X92820147Y-111738574D01*
X92928320Y-111999727D01*
X93085363Y-112234759D01*
X93285241Y-112434637D01*
X93520273Y-112591680D01*
X93781426Y-112699853D01*
X94058665Y-112755000D01*
X94341335Y-112755000D01*
X94618574Y-112699853D01*
X94879727Y-112591680D01*
X95114759Y-112434637D01*
X95314637Y-112234759D01*
X95471680Y-111999727D01*
X95579853Y-111738574D01*
X95635000Y-111461335D01*
X95635000Y-111178665D01*
X95579853Y-110901426D01*
X95471680Y-110640273D01*
X95314637Y-110405241D01*
X95114759Y-110205363D01*
X94879727Y-110048320D01*
X94618574Y-109940147D01*
X94341335Y-109885000D01*
X94058665Y-109885000D01*
X93781426Y-109940147D01*
X93520273Y-110048320D01*
X93285241Y-110205363D01*
X93085363Y-110405241D01*
X92928320Y-110640273D01*
X92820147Y-110901426D01*
X92765000Y-111178665D01*
X88015000Y-111178665D01*
X87959853Y-110901426D01*
X87851680Y-110640273D01*
X87694637Y-110405241D01*
X87494759Y-110205363D01*
X87259727Y-110048320D01*
X86998574Y-109940147D01*
X86721335Y-109885000D01*
X86438665Y-109885000D01*
X86161426Y-109940147D01*
X85900273Y-110048320D01*
X85665241Y-110205363D01*
X85465363Y-110405241D01*
X85308320Y-110640273D01*
X85200147Y-110901426D01*
X85145000Y-111178665D01*
X82884021Y-111178665D01*
X82831775Y-110916011D01*
X82727371Y-110663957D01*
X82575799Y-110437114D01*
X82382886Y-110244201D01*
X82266517Y-110166445D01*
X82374482Y-110155812D01*
X82494180Y-110119502D01*
X82604494Y-110060537D01*
X82701185Y-109981185D01*
X82780537Y-109884494D01*
X82839502Y-109774180D01*
X82875812Y-109654482D01*
X82888072Y-109530000D01*
X82888072Y-108030000D01*
X82875812Y-107905518D01*
X82839502Y-107785820D01*
X82780537Y-107675506D01*
X82701185Y-107578815D01*
X82604494Y-107499463D01*
X82516000Y-107452161D01*
X82516000Y-106687218D01*
X82594180Y-106663502D01*
X82704494Y-106604537D01*
X82801185Y-106525185D01*
X82880537Y-106428494D01*
X82939502Y-106318180D01*
X82963966Y-106237534D01*
X83039731Y-106321588D01*
X83273080Y-106495641D01*
X83535901Y-106620825D01*
X83683110Y-106665476D01*
X83913000Y-106544155D01*
X83913000Y-105351000D01*
X83893000Y-105351000D01*
X83893000Y-105097000D01*
X83913000Y-105097000D01*
X83913000Y-103903845D01*
X84167000Y-103903845D01*
X84167000Y-105097000D01*
X84187000Y-105097000D01*
X84187000Y-105351000D01*
X84167000Y-105351000D01*
X84167000Y-106544155D01*
X84396890Y-106665476D01*
X84544099Y-106620825D01*
X84806920Y-106495641D01*
X85040269Y-106321588D01*
X85235178Y-106105355D01*
X85304805Y-105988466D01*
X85426525Y-106170632D01*
X85633368Y-106377475D01*
X85876589Y-106539990D01*
X86146842Y-106651932D01*
X86433740Y-106709000D01*
X86726260Y-106709000D01*
X87013158Y-106651932D01*
X87283411Y-106539990D01*
X87526632Y-106377475D01*
X87733475Y-106170632D01*
X87850000Y-105996240D01*
X87966525Y-106170632D01*
X88173368Y-106377475D01*
X88416589Y-106539990D01*
X88686842Y-106651932D01*
X88973740Y-106709000D01*
X89266260Y-106709000D01*
X89553158Y-106651932D01*
X89823411Y-106539990D01*
X90066632Y-106377475D01*
X90273475Y-106170632D01*
X90390000Y-105996240D01*
X90506525Y-106170632D01*
X90713368Y-106377475D01*
X90956589Y-106539990D01*
X91226842Y-106651932D01*
X91513740Y-106709000D01*
X91806260Y-106709000D01*
X92093158Y-106651932D01*
X92363411Y-106539990D01*
X92606632Y-106377475D01*
X92813475Y-106170632D01*
X92935195Y-105988466D01*
X93004822Y-106105355D01*
X93199731Y-106321588D01*
X93433080Y-106495641D01*
X93695901Y-106620825D01*
X93843110Y-106665476D01*
X94073000Y-106544155D01*
X94073000Y-105351000D01*
X94053000Y-105351000D01*
X94053000Y-105097000D01*
X94073000Y-105097000D01*
X94073000Y-103903845D01*
X94327000Y-103903845D01*
X94327000Y-105097000D01*
X94347000Y-105097000D01*
X94347000Y-105351000D01*
X94327000Y-105351000D01*
X94327000Y-106544155D01*
X94556890Y-106665476D01*
X94704099Y-106620825D01*
X94966920Y-106495641D01*
X95200269Y-106321588D01*
X95395178Y-106105355D01*
X95464805Y-105988466D01*
X95586525Y-106170632D01*
X95793368Y-106377475D01*
X96036589Y-106539990D01*
X96306842Y-106651932D01*
X96593740Y-106709000D01*
X96886260Y-106709000D01*
X97173158Y-106651932D01*
X97443411Y-106539990D01*
X97686632Y-106377475D01*
X97893475Y-106170632D01*
X98010000Y-105996240D01*
X98126525Y-106170632D01*
X98333368Y-106377475D01*
X98576589Y-106539990D01*
X98846842Y-106651932D01*
X99133740Y-106709000D01*
X99426260Y-106709000D01*
X99713158Y-106651932D01*
X99983411Y-106539990D01*
X100226632Y-106377475D01*
X100433475Y-106170632D01*
X100550000Y-105996240D01*
X100666525Y-106170632D01*
X100873368Y-106377475D01*
X101116589Y-106539990D01*
X101386842Y-106651932D01*
X101673740Y-106709000D01*
X101966260Y-106709000D01*
X102253158Y-106651932D01*
X102523411Y-106539990D01*
X102766632Y-106377475D01*
X102973475Y-106170632D01*
X103090000Y-105996240D01*
X103206525Y-106170632D01*
X103413368Y-106377475D01*
X103656589Y-106539990D01*
X103926842Y-106651932D01*
X104213740Y-106709000D01*
X104506260Y-106709000D01*
X104793158Y-106651932D01*
X105063411Y-106539990D01*
X105306632Y-106377475D01*
X105513475Y-106170632D01*
X105630000Y-105996240D01*
X105746525Y-106170632D01*
X105953368Y-106377475D01*
X106196589Y-106539990D01*
X106466842Y-106651932D01*
X106753740Y-106709000D01*
X107046260Y-106709000D01*
X107333158Y-106651932D01*
X107603411Y-106539990D01*
X107846632Y-106377475D01*
X108053475Y-106170632D01*
X108170000Y-105996240D01*
X108286525Y-106170632D01*
X108493368Y-106377475D01*
X108736589Y-106539990D01*
X109006842Y-106651932D01*
X109293740Y-106709000D01*
X109586260Y-106709000D01*
X109873158Y-106651932D01*
X110143411Y-106539990D01*
X110386632Y-106377475D01*
X110593475Y-106170632D01*
X110710000Y-105996240D01*
X110826525Y-106170632D01*
X111033368Y-106377475D01*
X111276589Y-106539990D01*
X111546842Y-106651932D01*
X111833740Y-106709000D01*
X112126260Y-106709000D01*
X112413158Y-106651932D01*
X112444227Y-106639063D01*
X101615499Y-117467792D01*
X101587392Y-117490859D01*
X101495343Y-117603021D01*
X101426945Y-117730985D01*
X101384825Y-117869835D01*
X101375452Y-117965000D01*
X101370603Y-118014233D01*
X101374167Y-118050416D01*
X101374167Y-122339615D01*
X101345990Y-122271589D01*
X101183475Y-122028368D01*
X100976632Y-121821525D01*
X100733411Y-121659010D01*
X100463158Y-121547068D01*
X100176260Y-121490000D01*
X99883740Y-121490000D01*
X99596842Y-121547068D01*
X99326589Y-121659010D01*
X99083368Y-121821525D01*
X98876525Y-122028368D01*
X98714010Y-122271589D01*
X98602068Y-122541842D01*
X98545000Y-122828740D01*
X98545000Y-123121260D01*
X98602068Y-123408158D01*
X98714010Y-123678411D01*
X98876525Y-123921632D01*
X99083368Y-124128475D01*
X99326589Y-124290990D01*
X99596842Y-124402932D01*
X99883740Y-124460000D01*
X100176260Y-124460000D01*
X100463158Y-124402932D01*
X100733411Y-124290990D01*
X100976632Y-124128475D01*
X101183475Y-123921632D01*
X101345990Y-123678411D01*
X101374167Y-123610385D01*
X101374168Y-141389616D01*
X101345990Y-141321589D01*
X101183475Y-141078368D01*
X100976632Y-140871525D01*
X100733411Y-140709010D01*
X100463158Y-140597068D01*
X100176260Y-140540000D01*
X99883740Y-140540000D01*
X99596842Y-140597068D01*
X99326589Y-140709010D01*
X99083368Y-140871525D01*
X98876525Y-141078368D01*
X98714010Y-141321589D01*
X98602068Y-141591842D01*
X98545000Y-141878740D01*
X98545000Y-142171260D01*
X98602068Y-142458158D01*
X98714010Y-142728411D01*
X98876525Y-142971632D01*
X99083368Y-143178475D01*
X99326589Y-143340990D01*
X99596842Y-143452932D01*
X99883740Y-143510000D01*
X100176260Y-143510000D01*
X100463158Y-143452932D01*
X100733411Y-143340990D01*
X100976632Y-143178475D01*
X101183475Y-142971632D01*
X101345990Y-142728411D01*
X101374168Y-142660384D01*
X101374168Y-163769325D01*
X101370603Y-163805518D01*
X101383559Y-163937050D01*
X101384826Y-163949917D01*
X101393031Y-163976964D01*
X101426945Y-164088765D01*
X101495343Y-164216730D01*
X101524783Y-164252602D01*
X101587393Y-164328893D01*
X101615499Y-164351959D01*
X105668808Y-168405269D01*
X105691874Y-168433375D01*
X105804036Y-168525424D01*
X105932000Y-168593822D01*
X106070850Y-168635942D01*
X106179063Y-168646600D01*
X106179072Y-168646600D01*
X106215248Y-168650163D01*
X106251424Y-168646600D01*
X112353817Y-168646600D01*
X112390000Y-168650164D01*
X112426183Y-168646600D01*
X112426186Y-168646600D01*
X112534399Y-168635942D01*
X112673249Y-168593822D01*
X112801213Y-168525424D01*
X112913375Y-168433375D01*
X112936445Y-168405264D01*
X113504841Y-167836868D01*
X113696589Y-167964990D01*
X113966842Y-168076932D01*
X114253740Y-168134000D01*
X114546260Y-168134000D01*
X114833158Y-168076932D01*
X115103411Y-167964990D01*
X115346632Y-167802475D01*
X115553475Y-167595632D01*
X115670000Y-167421240D01*
X115786525Y-167595632D01*
X115993368Y-167802475D01*
X116236589Y-167964990D01*
X116506842Y-168076932D01*
X116793740Y-168134000D01*
X117086260Y-168134000D01*
X117373158Y-168076932D01*
X117643411Y-167964990D01*
X117886632Y-167802475D01*
X118093475Y-167595632D01*
X118210000Y-167421240D01*
X118326525Y-167595632D01*
X118533368Y-167802475D01*
X118776589Y-167964990D01*
X119046842Y-168076932D01*
X119333740Y-168134000D01*
X119626260Y-168134000D01*
X119913158Y-168076932D01*
X120183411Y-167964990D01*
X120426632Y-167802475D01*
X120633475Y-167595632D01*
X120750000Y-167421240D01*
X120866525Y-167595632D01*
X121073368Y-167802475D01*
X121316589Y-167964990D01*
X121586842Y-168076932D01*
X121873740Y-168134000D01*
X122166260Y-168134000D01*
X122453158Y-168076932D01*
X122723411Y-167964990D01*
X122966632Y-167802475D01*
X123173475Y-167595632D01*
X123290000Y-167421240D01*
X123406525Y-167595632D01*
X123613368Y-167802475D01*
X123856589Y-167964990D01*
X124126842Y-168076932D01*
X124413740Y-168134000D01*
X124706260Y-168134000D01*
X124954009Y-168084719D01*
X125304559Y-168435269D01*
X125327625Y-168463375D01*
X125439787Y-168555424D01*
X125567751Y-168623822D01*
X125690128Y-168660945D01*
X125706601Y-168665942D01*
X125851000Y-168680164D01*
X125887186Y-168676600D01*
X140003817Y-168676600D01*
X140040000Y-168680164D01*
X140076183Y-168676600D01*
X140076186Y-168676600D01*
X140184399Y-168665942D01*
X140323249Y-168623822D01*
X140451213Y-168555424D01*
X140563375Y-168463375D01*
X140586446Y-168435263D01*
X145399424Y-163622285D01*
X154165000Y-163622285D01*
X154165000Y-164377715D01*
X154312377Y-165118628D01*
X154601467Y-165816554D01*
X155021161Y-166444670D01*
X155555330Y-166978839D01*
X156183446Y-167398533D01*
X156881372Y-167687623D01*
X157622285Y-167835000D01*
X158377715Y-167835000D01*
X159118628Y-167687623D01*
X159816554Y-167398533D01*
X160444670Y-166978839D01*
X160978839Y-166444670D01*
X161398533Y-165816554D01*
X161687623Y-165118628D01*
X161835000Y-164377715D01*
X161835000Y-163622285D01*
X161687623Y-162881372D01*
X161398533Y-162183446D01*
X160978839Y-161555330D01*
X160444670Y-161021161D01*
X159816554Y-160601467D01*
X159118628Y-160312377D01*
X158377715Y-160165000D01*
X157622285Y-160165000D01*
X156881372Y-160312377D01*
X156183446Y-160601467D01*
X155555330Y-161021161D01*
X155021161Y-161555330D01*
X154601467Y-162183446D01*
X154312377Y-162881372D01*
X154165000Y-163622285D01*
X145399424Y-163622285D01*
X160935274Y-148086436D01*
X160963374Y-148063375D01*
X160986437Y-148035273D01*
X160986442Y-148035268D01*
X161055424Y-147951213D01*
X161055425Y-147951212D01*
X161123822Y-147823249D01*
X161165942Y-147684399D01*
X161176600Y-147576186D01*
X161176600Y-147576185D01*
X161180164Y-147540000D01*
X161176600Y-147503814D01*
X161176600Y-118256175D01*
X161180163Y-118219999D01*
X161176600Y-118183823D01*
X161176600Y-118183814D01*
X161165942Y-118075601D01*
X161123822Y-117936751D01*
X161055424Y-117808787D01*
X161007672Y-117750601D01*
X160986442Y-117724732D01*
X160986441Y-117724731D01*
X160963375Y-117696625D01*
X160935269Y-117673559D01*
X156186446Y-112924737D01*
X156163375Y-112896625D01*
X156051213Y-112804576D01*
X155923249Y-112736178D01*
X155784399Y-112694058D01*
X155676186Y-112683400D01*
X155676183Y-112683400D01*
X155640000Y-112679836D01*
X155603817Y-112683400D01*
X146647025Y-112683400D01*
X146504727Y-112588320D01*
X146243574Y-112480147D01*
X145966335Y-112425000D01*
X145683665Y-112425000D01*
X145406426Y-112480147D01*
X145145273Y-112588320D01*
X144910241Y-112745363D01*
X144710363Y-112945241D01*
X144553320Y-113180273D01*
X144445147Y-113441426D01*
X144390000Y-113718665D01*
X144390000Y-114001335D01*
X144445147Y-114278574D01*
X144553320Y-114539727D01*
X144710363Y-114774759D01*
X144910241Y-114974637D01*
X145145273Y-115131680D01*
X145406426Y-115239853D01*
X145683665Y-115295000D01*
X145966335Y-115295000D01*
X146243574Y-115239853D01*
X146504727Y-115131680D01*
X146739759Y-114974637D01*
X146939637Y-114774759D01*
X147096680Y-114539727D01*
X147204853Y-114278574D01*
X147229115Y-114156600D01*
X155334891Y-114156600D01*
X159703401Y-118525111D01*
X159703400Y-147234890D01*
X139734891Y-167203400D01*
X138631419Y-167203400D01*
X138701481Y-167005891D01*
X138580814Y-166776000D01*
X137387000Y-166776000D01*
X137387000Y-166796000D01*
X137133000Y-166796000D01*
X137133000Y-166776000D01*
X137113000Y-166776000D01*
X137113000Y-166522000D01*
X137133000Y-166522000D01*
X137133000Y-166502000D01*
X137387000Y-166502000D01*
X137387000Y-166522000D01*
X138580814Y-166522000D01*
X138701481Y-166292109D01*
X138604157Y-166017748D01*
X138455178Y-165767645D01*
X138278374Y-165571498D01*
X138354180Y-165548502D01*
X138464494Y-165489537D01*
X138561185Y-165410185D01*
X138640537Y-165313494D01*
X138699502Y-165203180D01*
X138735812Y-165083482D01*
X138748072Y-164959000D01*
X138748072Y-163259000D01*
X138735812Y-163134518D01*
X138699502Y-163014820D01*
X138640537Y-162904506D01*
X138561185Y-162807815D01*
X138464494Y-162728463D01*
X138354180Y-162669498D01*
X138234482Y-162633188D01*
X138110000Y-162620928D01*
X136410000Y-162620928D01*
X136285518Y-162633188D01*
X136165820Y-162669498D01*
X136055506Y-162728463D01*
X135958815Y-162807815D01*
X135879463Y-162904506D01*
X135820498Y-163014820D01*
X135798487Y-163087380D01*
X135666632Y-162955525D01*
X135423411Y-162793010D01*
X135153158Y-162681068D01*
X134866260Y-162624000D01*
X134573740Y-162624000D01*
X134286842Y-162681068D01*
X134016589Y-162793010D01*
X133773368Y-162955525D01*
X133566525Y-163162368D01*
X133450000Y-163336760D01*
X133333475Y-163162368D01*
X133126632Y-162955525D01*
X132883411Y-162793010D01*
X132613158Y-162681068D01*
X132326260Y-162624000D01*
X132033740Y-162624000D01*
X131746842Y-162681068D01*
X131476589Y-162793010D01*
X131233368Y-162955525D01*
X131026525Y-163162368D01*
X130910000Y-163336760D01*
X130793475Y-163162368D01*
X130586632Y-162955525D01*
X130343411Y-162793010D01*
X130073158Y-162681068D01*
X129786260Y-162624000D01*
X129493740Y-162624000D01*
X129206842Y-162681068D01*
X128936589Y-162793010D01*
X128693368Y-162955525D01*
X128486525Y-163162368D01*
X128370000Y-163336760D01*
X128253475Y-163162368D01*
X128046632Y-162955525D01*
X127803411Y-162793010D01*
X127533158Y-162681068D01*
X127246260Y-162624000D01*
X126953740Y-162624000D01*
X126666842Y-162681068D01*
X126396589Y-162793010D01*
X126153368Y-162955525D01*
X125946525Y-163162368D01*
X125830000Y-163336760D01*
X125713475Y-163162368D01*
X125506632Y-162955525D01*
X125263411Y-162793010D01*
X124993158Y-162681068D01*
X124706260Y-162624000D01*
X124413740Y-162624000D01*
X124126842Y-162681068D01*
X123856589Y-162793010D01*
X123613368Y-162955525D01*
X123406525Y-163162368D01*
X123290000Y-163336760D01*
X123173475Y-163162368D01*
X122966632Y-162955525D01*
X122723411Y-162793010D01*
X122453158Y-162681068D01*
X122166260Y-162624000D01*
X121873740Y-162624000D01*
X121586842Y-162681068D01*
X121316589Y-162793010D01*
X121073368Y-162955525D01*
X120866525Y-163162368D01*
X120750000Y-163336760D01*
X120633475Y-163162368D01*
X120426632Y-162955525D01*
X120183411Y-162793010D01*
X119913158Y-162681068D01*
X119626260Y-162624000D01*
X119333740Y-162624000D01*
X119046842Y-162681068D01*
X118776589Y-162793010D01*
X118533368Y-162955525D01*
X118326525Y-163162368D01*
X118210000Y-163336760D01*
X118093475Y-163162368D01*
X117886632Y-162955525D01*
X117643411Y-162793010D01*
X117373158Y-162681068D01*
X117086260Y-162624000D01*
X116793740Y-162624000D01*
X116506842Y-162681068D01*
X116236589Y-162793010D01*
X115993368Y-162955525D01*
X115786525Y-163162368D01*
X115670000Y-163336760D01*
X115553475Y-163162368D01*
X115346632Y-162955525D01*
X115103411Y-162793010D01*
X114833158Y-162681068D01*
X114546260Y-162624000D01*
X114253740Y-162624000D01*
X113966842Y-162681068D01*
X113696589Y-162793010D01*
X113453368Y-162955525D01*
X113246525Y-163162368D01*
X113130000Y-163336760D01*
X113013475Y-163162368D01*
X112806632Y-162955525D01*
X112563411Y-162793010D01*
X112293158Y-162681068D01*
X112006260Y-162624000D01*
X111713740Y-162624000D01*
X111426842Y-162681068D01*
X111156589Y-162793010D01*
X111005604Y-162893895D01*
X110506445Y-162394736D01*
X110483375Y-162366625D01*
X110371213Y-162274576D01*
X110243249Y-162206178D01*
X110104399Y-162164058D01*
X109996186Y-162153400D01*
X109996183Y-162153400D01*
X109960000Y-162149836D01*
X109923817Y-162153400D01*
X105785110Y-162153400D01*
X104066600Y-160434891D01*
X104066600Y-160119665D01*
X105345000Y-160119665D01*
X105345000Y-160402335D01*
X105400147Y-160679574D01*
X105508320Y-160940727D01*
X105665363Y-161175759D01*
X105865241Y-161375637D01*
X106100273Y-161532680D01*
X106361426Y-161640853D01*
X106638665Y-161696000D01*
X106921335Y-161696000D01*
X107198574Y-161640853D01*
X107459727Y-161532680D01*
X107694759Y-161375637D01*
X107894637Y-161175759D01*
X108050000Y-160943241D01*
X108205363Y-161175759D01*
X108405241Y-161375637D01*
X108640273Y-161532680D01*
X108901426Y-161640853D01*
X109178665Y-161696000D01*
X109461335Y-161696000D01*
X109738574Y-161640853D01*
X109999727Y-161532680D01*
X110234759Y-161375637D01*
X110434637Y-161175759D01*
X110590000Y-160943241D01*
X110745363Y-161175759D01*
X110945241Y-161375637D01*
X111180273Y-161532680D01*
X111441426Y-161640853D01*
X111718665Y-161696000D01*
X112001335Y-161696000D01*
X112278574Y-161640853D01*
X112539727Y-161532680D01*
X112774759Y-161375637D01*
X112974637Y-161175759D01*
X113130000Y-160943241D01*
X113285363Y-161175759D01*
X113485241Y-161375637D01*
X113720273Y-161532680D01*
X113981426Y-161640853D01*
X114258665Y-161696000D01*
X114541335Y-161696000D01*
X114818574Y-161640853D01*
X115079727Y-161532680D01*
X115314759Y-161375637D01*
X115514637Y-161175759D01*
X115670000Y-160943241D01*
X115825363Y-161175759D01*
X116025241Y-161375637D01*
X116260273Y-161532680D01*
X116521426Y-161640853D01*
X116798665Y-161696000D01*
X117081335Y-161696000D01*
X117358574Y-161640853D01*
X117619727Y-161532680D01*
X117854759Y-161375637D01*
X118054637Y-161175759D01*
X118210000Y-160943241D01*
X118365363Y-161175759D01*
X118565241Y-161375637D01*
X118800273Y-161532680D01*
X119061426Y-161640853D01*
X119338665Y-161696000D01*
X119621335Y-161696000D01*
X119898574Y-161640853D01*
X120159727Y-161532680D01*
X120394759Y-161375637D01*
X120594637Y-161175759D01*
X120750000Y-160943241D01*
X120905363Y-161175759D01*
X121105241Y-161375637D01*
X121340273Y-161532680D01*
X121601426Y-161640853D01*
X121878665Y-161696000D01*
X122161335Y-161696000D01*
X122438574Y-161640853D01*
X122699727Y-161532680D01*
X122934759Y-161375637D01*
X123134637Y-161175759D01*
X123290000Y-160943241D01*
X123445363Y-161175759D01*
X123645241Y-161375637D01*
X123880273Y-161532680D01*
X124141426Y-161640853D01*
X124418665Y-161696000D01*
X124701335Y-161696000D01*
X124978574Y-161640853D01*
X125239727Y-161532680D01*
X125474759Y-161375637D01*
X125673357Y-161177039D01*
X125674188Y-161185482D01*
X125710498Y-161305180D01*
X125769463Y-161415494D01*
X125848815Y-161512185D01*
X125945506Y-161591537D01*
X126055820Y-161650502D01*
X126175518Y-161686812D01*
X126300000Y-161699072D01*
X126814250Y-161696000D01*
X126973000Y-161537250D01*
X126973000Y-160388000D01*
X127227000Y-160388000D01*
X127227000Y-161537250D01*
X127385750Y-161696000D01*
X127900000Y-161699072D01*
X128024482Y-161686812D01*
X128144180Y-161650502D01*
X128254494Y-161591537D01*
X128351185Y-161512185D01*
X128430537Y-161415494D01*
X128489502Y-161305180D01*
X128525812Y-161185482D01*
X128538072Y-161061000D01*
X128535000Y-160546750D01*
X128376250Y-160388000D01*
X127227000Y-160388000D01*
X126973000Y-160388000D01*
X126953000Y-160388000D01*
X126953000Y-160134000D01*
X126973000Y-160134000D01*
X126973000Y-158984750D01*
X127227000Y-158984750D01*
X127227000Y-160134000D01*
X128376250Y-160134000D01*
X128535000Y-159975250D01*
X128538072Y-159461000D01*
X128525812Y-159336518D01*
X128489502Y-159216820D01*
X128430537Y-159106506D01*
X128351185Y-159009815D01*
X128254494Y-158930463D01*
X128144180Y-158871498D01*
X128024482Y-158835188D01*
X127900000Y-158822928D01*
X127385750Y-158826000D01*
X127227000Y-158984750D01*
X126973000Y-158984750D01*
X126925480Y-158937230D01*
X146556591Y-139306118D01*
X146555000Y-139314117D01*
X146555000Y-139655883D01*
X146621675Y-139991081D01*
X146752463Y-140306831D01*
X146908261Y-140540000D01*
X146873740Y-140540000D01*
X146586842Y-140597068D01*
X146316589Y-140709010D01*
X146073368Y-140871525D01*
X145866525Y-141078368D01*
X145704010Y-141321589D01*
X145592068Y-141591842D01*
X145535000Y-141878740D01*
X145535000Y-142171260D01*
X145592068Y-142458158D01*
X145704010Y-142728411D01*
X145866525Y-142971632D01*
X146073368Y-143178475D01*
X146316589Y-143340990D01*
X146586842Y-143452932D01*
X146873740Y-143510000D01*
X147166260Y-143510000D01*
X147453158Y-143452932D01*
X147723411Y-143340990D01*
X147966632Y-143178475D01*
X148173475Y-142971632D01*
X148335990Y-142728411D01*
X148447932Y-142458158D01*
X148505000Y-142171260D01*
X148505000Y-141878740D01*
X148482471Y-141765475D01*
X149465000Y-141765475D01*
X149465000Y-142284525D01*
X149566261Y-142793601D01*
X149764893Y-143273141D01*
X150053262Y-143704715D01*
X150420285Y-144071738D01*
X150851859Y-144360107D01*
X151331399Y-144558739D01*
X151840475Y-144660000D01*
X152359525Y-144660000D01*
X152868601Y-144558739D01*
X153348141Y-144360107D01*
X153779715Y-144071738D01*
X154146738Y-143704715D01*
X154435107Y-143273141D01*
X154633739Y-142793601D01*
X154735000Y-142284525D01*
X154735000Y-141878740D01*
X155695000Y-141878740D01*
X155695000Y-142171260D01*
X155752068Y-142458158D01*
X155864010Y-142728411D01*
X156026525Y-142971632D01*
X156233368Y-143178475D01*
X156476589Y-143340990D01*
X156746842Y-143452932D01*
X157033740Y-143510000D01*
X157326260Y-143510000D01*
X157613158Y-143452932D01*
X157883411Y-143340990D01*
X158126632Y-143178475D01*
X158333475Y-142971632D01*
X158495990Y-142728411D01*
X158607932Y-142458158D01*
X158665000Y-142171260D01*
X158665000Y-141878740D01*
X158607932Y-141591842D01*
X158495990Y-141321589D01*
X158333475Y-141078368D01*
X158126632Y-140871525D01*
X157883411Y-140709010D01*
X157613158Y-140597068D01*
X157326260Y-140540000D01*
X157033740Y-140540000D01*
X156746842Y-140597068D01*
X156476589Y-140709010D01*
X156233368Y-140871525D01*
X156026525Y-141078368D01*
X155864010Y-141321589D01*
X155752068Y-141591842D01*
X155695000Y-141878740D01*
X154735000Y-141878740D01*
X154735000Y-141765475D01*
X154633739Y-141256399D01*
X154435107Y-140776859D01*
X154146738Y-140345285D01*
X153779715Y-139978262D01*
X153348141Y-139689893D01*
X152868601Y-139491261D01*
X152359525Y-139390000D01*
X151840475Y-139390000D01*
X151331399Y-139491261D01*
X150851859Y-139689893D01*
X150420285Y-139978262D01*
X150053262Y-140345285D01*
X149764893Y-140776859D01*
X149566261Y-141256399D01*
X149465000Y-141765475D01*
X148482471Y-141765475D01*
X148447932Y-141591842D01*
X148335990Y-141321589D01*
X148268110Y-141220000D01*
X148460883Y-141220000D01*
X148796081Y-141153325D01*
X149111831Y-141022537D01*
X149395998Y-140832663D01*
X149637663Y-140590998D01*
X149827537Y-140306831D01*
X149958325Y-139991081D01*
X150025000Y-139655883D01*
X150025000Y-139314117D01*
X149958325Y-138978919D01*
X149827537Y-138663169D01*
X149637663Y-138379002D01*
X149395998Y-138137337D01*
X149111831Y-137947463D01*
X148796081Y-137816675D01*
X148460883Y-137750000D01*
X148119117Y-137750000D01*
X148111118Y-137751591D01*
X148181109Y-137681600D01*
X153067159Y-137681600D01*
X153102463Y-137766831D01*
X153292337Y-138050998D01*
X153534002Y-138292663D01*
X153818169Y-138482537D01*
X154133919Y-138613325D01*
X154469117Y-138680000D01*
X154810883Y-138680000D01*
X155146081Y-138613325D01*
X155461831Y-138482537D01*
X155745998Y-138292663D01*
X155987663Y-138050998D01*
X156177537Y-137766831D01*
X156308325Y-137451081D01*
X156375000Y-137115883D01*
X156375000Y-136774117D01*
X156308325Y-136438919D01*
X156177537Y-136123169D01*
X155987663Y-135839002D01*
X155745998Y-135597337D01*
X155461831Y-135407463D01*
X155146081Y-135276675D01*
X154810883Y-135210000D01*
X154469117Y-135210000D01*
X154133919Y-135276675D01*
X153818169Y-135407463D01*
X153534002Y-135597337D01*
X153292337Y-135839002D01*
X153102463Y-136123169D01*
X153067159Y-136208400D01*
X147912175Y-136208400D01*
X147875999Y-136204837D01*
X147839823Y-136208400D01*
X147839814Y-136208400D01*
X147731601Y-136219058D01*
X147592751Y-136261178D01*
X147464787Y-136329576D01*
X147352625Y-136421625D01*
X147329554Y-136449737D01*
X124911488Y-158867803D01*
X124701335Y-158826000D01*
X124496709Y-158826000D01*
X136085269Y-147237441D01*
X136113375Y-147214375D01*
X136205424Y-147102213D01*
X136273822Y-146974249D01*
X136315942Y-146835399D01*
X136326600Y-146727186D01*
X136326600Y-146727177D01*
X136330163Y-146691001D01*
X136326600Y-146654825D01*
X136326600Y-141878740D01*
X136645000Y-141878740D01*
X136645000Y-142171260D01*
X136702068Y-142458158D01*
X136814010Y-142728411D01*
X136976525Y-142971632D01*
X137183368Y-143178475D01*
X137426589Y-143340990D01*
X137696842Y-143452932D01*
X137983740Y-143510000D01*
X138276260Y-143510000D01*
X138563158Y-143452932D01*
X138833411Y-143340990D01*
X139076632Y-143178475D01*
X139283475Y-142971632D01*
X139445990Y-142728411D01*
X139557932Y-142458158D01*
X139615000Y-142171260D01*
X139615000Y-141878740D01*
X139557932Y-141591842D01*
X139445990Y-141321589D01*
X139283475Y-141078368D01*
X139076632Y-140871525D01*
X138833411Y-140709010D01*
X138563158Y-140597068D01*
X138276260Y-140540000D01*
X137983740Y-140540000D01*
X137696842Y-140597068D01*
X137426589Y-140709010D01*
X137183368Y-140871525D01*
X136976525Y-141078368D01*
X136814010Y-141321589D01*
X136702068Y-141591842D01*
X136645000Y-141878740D01*
X136326600Y-141878740D01*
X136326600Y-138517841D01*
X136411831Y-138482537D01*
X136695998Y-138292663D01*
X136937663Y-138050998D01*
X137127537Y-137766831D01*
X137258325Y-137451081D01*
X137325000Y-137115883D01*
X137325000Y-136774117D01*
X137258325Y-136438919D01*
X137127537Y-136123169D01*
X136937663Y-135839002D01*
X136695998Y-135597337D01*
X136411831Y-135407463D01*
X136096081Y-135276675D01*
X135760883Y-135210000D01*
X135419117Y-135210000D01*
X135083919Y-135276675D01*
X134768169Y-135407463D01*
X134484002Y-135597337D01*
X134242337Y-135839002D01*
X134052463Y-136123169D01*
X133921675Y-136438919D01*
X133855000Y-136774117D01*
X133855000Y-137115883D01*
X133921675Y-137451081D01*
X134052463Y-137766831D01*
X134242337Y-138050998D01*
X134484002Y-138292663D01*
X134768169Y-138482537D01*
X134853400Y-138517841D01*
X134853400Y-140101947D01*
X134729715Y-139978262D01*
X134298141Y-139689893D01*
X133818601Y-139491261D01*
X133309525Y-139390000D01*
X132790475Y-139390000D01*
X132281399Y-139491261D01*
X131801859Y-139689893D01*
X131370285Y-139978262D01*
X131003262Y-140345285D01*
X130714893Y-140776859D01*
X130516261Y-141256399D01*
X130415000Y-141765475D01*
X130415000Y-142284525D01*
X130516261Y-142793601D01*
X130714893Y-143273141D01*
X131003262Y-143704715D01*
X131370285Y-144071738D01*
X131801859Y-144360107D01*
X132281399Y-144558739D01*
X132790475Y-144660000D01*
X133309525Y-144660000D01*
X133818601Y-144558739D01*
X134298141Y-144360107D01*
X134729715Y-144071738D01*
X134853401Y-143948052D01*
X134853401Y-146385889D01*
X122371488Y-158867803D01*
X122161335Y-158826000D01*
X121878665Y-158826000D01*
X121601426Y-158881147D01*
X121340273Y-158989320D01*
X121105241Y-159146363D01*
X120905363Y-159346241D01*
X120750000Y-159578759D01*
X120594637Y-159346241D01*
X120394759Y-159146363D01*
X120216600Y-159027321D01*
X120216600Y-146103053D01*
X120560285Y-146446738D01*
X120991859Y-146735107D01*
X121471399Y-146933739D01*
X121980475Y-147035000D01*
X122499525Y-147035000D01*
X123008601Y-146933739D01*
X123488141Y-146735107D01*
X123919715Y-146446738D01*
X124286738Y-146079715D01*
X124575107Y-145648141D01*
X124773739Y-145168601D01*
X124875000Y-144659525D01*
X124875000Y-144140475D01*
X124773739Y-143631399D01*
X124575107Y-143151859D01*
X124286738Y-142720285D01*
X123919715Y-142353262D01*
X123488141Y-142064893D01*
X123038728Y-141878740D01*
X126485000Y-141878740D01*
X126485000Y-142171260D01*
X126542068Y-142458158D01*
X126654010Y-142728411D01*
X126816525Y-142971632D01*
X127023368Y-143178475D01*
X127266589Y-143340990D01*
X127536842Y-143452932D01*
X127823740Y-143510000D01*
X128116260Y-143510000D01*
X128403158Y-143452932D01*
X128673411Y-143340990D01*
X128916632Y-143178475D01*
X129123475Y-142971632D01*
X129285990Y-142728411D01*
X129397932Y-142458158D01*
X129455000Y-142171260D01*
X129455000Y-141878740D01*
X129397932Y-141591842D01*
X129285990Y-141321589D01*
X129218110Y-141220000D01*
X129410883Y-141220000D01*
X129746081Y-141153325D01*
X130061831Y-141022537D01*
X130345998Y-140832663D01*
X130587663Y-140590998D01*
X130777537Y-140306831D01*
X130908325Y-139991081D01*
X130975000Y-139655883D01*
X130975000Y-139314117D01*
X130908325Y-138978919D01*
X130777537Y-138663169D01*
X130587663Y-138379002D01*
X130345998Y-138137337D01*
X130061831Y-137947463D01*
X129746081Y-137816675D01*
X129410883Y-137750000D01*
X129069117Y-137750000D01*
X128733919Y-137816675D01*
X128418169Y-137947463D01*
X128134002Y-138137337D01*
X127892337Y-138379002D01*
X127702463Y-138663169D01*
X127571675Y-138978919D01*
X127505000Y-139314117D01*
X127505000Y-139655883D01*
X127571675Y-139991081D01*
X127702463Y-140306831D01*
X127858261Y-140540000D01*
X127823740Y-140540000D01*
X127536842Y-140597068D01*
X127266589Y-140709010D01*
X127023368Y-140871525D01*
X126816525Y-141078368D01*
X126654010Y-141321589D01*
X126542068Y-141591842D01*
X126485000Y-141878740D01*
X123038728Y-141878740D01*
X123008601Y-141866261D01*
X122504595Y-141766008D01*
X141441863Y-122828740D01*
X145535000Y-122828740D01*
X145535000Y-123121260D01*
X145592068Y-123408158D01*
X145704010Y-123678411D01*
X145866525Y-123921632D01*
X146073368Y-124128475D01*
X146316589Y-124290990D01*
X146586842Y-124402932D01*
X146873740Y-124460000D01*
X147166260Y-124460000D01*
X147453158Y-124402932D01*
X147723411Y-124290990D01*
X147966632Y-124128475D01*
X148173475Y-123921632D01*
X148335990Y-123678411D01*
X148447932Y-123408158D01*
X148505000Y-123121260D01*
X148505000Y-122828740D01*
X148482471Y-122715475D01*
X149465000Y-122715475D01*
X149465000Y-123234525D01*
X149566261Y-123743601D01*
X149764893Y-124223141D01*
X150053262Y-124654715D01*
X150420285Y-125021738D01*
X150851859Y-125310107D01*
X151331399Y-125508739D01*
X151840475Y-125610000D01*
X152359525Y-125610000D01*
X152868601Y-125508739D01*
X153348141Y-125310107D01*
X153779715Y-125021738D01*
X154146738Y-124654715D01*
X154435107Y-124223141D01*
X154633739Y-123743601D01*
X154735000Y-123234525D01*
X154735000Y-122828740D01*
X155695000Y-122828740D01*
X155695000Y-123121260D01*
X155752068Y-123408158D01*
X155864010Y-123678411D01*
X156026525Y-123921632D01*
X156233368Y-124128475D01*
X156476589Y-124290990D01*
X156746842Y-124402932D01*
X157033740Y-124460000D01*
X157326260Y-124460000D01*
X157613158Y-124402932D01*
X157883411Y-124290990D01*
X158126632Y-124128475D01*
X158333475Y-123921632D01*
X158495990Y-123678411D01*
X158607932Y-123408158D01*
X158665000Y-123121260D01*
X158665000Y-122828740D01*
X158607932Y-122541842D01*
X158495990Y-122271589D01*
X158333475Y-122028368D01*
X158126632Y-121821525D01*
X157883411Y-121659010D01*
X157613158Y-121547068D01*
X157326260Y-121490000D01*
X157033740Y-121490000D01*
X156746842Y-121547068D01*
X156476589Y-121659010D01*
X156233368Y-121821525D01*
X156026525Y-122028368D01*
X155864010Y-122271589D01*
X155752068Y-122541842D01*
X155695000Y-122828740D01*
X154735000Y-122828740D01*
X154735000Y-122715475D01*
X154633739Y-122206399D01*
X154435107Y-121726859D01*
X154146738Y-121295285D01*
X153779715Y-120928262D01*
X153348141Y-120639893D01*
X152868601Y-120441261D01*
X152359525Y-120340000D01*
X151840475Y-120340000D01*
X151331399Y-120441261D01*
X150851859Y-120639893D01*
X150420285Y-120928262D01*
X150053262Y-121295285D01*
X149764893Y-121726859D01*
X149566261Y-122206399D01*
X149465000Y-122715475D01*
X148482471Y-122715475D01*
X148447932Y-122541842D01*
X148335990Y-122271589D01*
X148268110Y-122170000D01*
X148460883Y-122170000D01*
X148796081Y-122103325D01*
X149111831Y-121972537D01*
X149395998Y-121782663D01*
X149637663Y-121540998D01*
X149827537Y-121256831D01*
X149958325Y-120941081D01*
X150025000Y-120605883D01*
X150025000Y-120264117D01*
X149958325Y-119928919D01*
X149827537Y-119613169D01*
X149637663Y-119329002D01*
X149395998Y-119087337D01*
X149111831Y-118897463D01*
X148796081Y-118766675D01*
X148460883Y-118700000D01*
X148119117Y-118700000D01*
X147783919Y-118766675D01*
X147468169Y-118897463D01*
X147184002Y-119087337D01*
X146942337Y-119329002D01*
X146752463Y-119613169D01*
X146621675Y-119928919D01*
X146555000Y-120264117D01*
X146555000Y-120605883D01*
X146621675Y-120941081D01*
X146752463Y-121256831D01*
X146908261Y-121490000D01*
X146873740Y-121490000D01*
X146586842Y-121547068D01*
X146316589Y-121659010D01*
X146073368Y-121821525D01*
X145866525Y-122028368D01*
X145704010Y-122271589D01*
X145592068Y-122541842D01*
X145535000Y-122828740D01*
X141441863Y-122828740D01*
X145639004Y-118631600D01*
X153067159Y-118631600D01*
X153102463Y-118716831D01*
X153292337Y-119000998D01*
X153534002Y-119242663D01*
X153818169Y-119432537D01*
X154133919Y-119563325D01*
X154469117Y-119630000D01*
X154810883Y-119630000D01*
X155146081Y-119563325D01*
X155461831Y-119432537D01*
X155745998Y-119242663D01*
X155987663Y-119000998D01*
X156177537Y-118716831D01*
X156308325Y-118401081D01*
X156375000Y-118065883D01*
X156375000Y-117724117D01*
X156308325Y-117388919D01*
X156177537Y-117073169D01*
X155987663Y-116789002D01*
X155745998Y-116547337D01*
X155461831Y-116357463D01*
X155146081Y-116226675D01*
X154810883Y-116160000D01*
X154469117Y-116160000D01*
X154133919Y-116226675D01*
X153818169Y-116357463D01*
X153534002Y-116547337D01*
X153292337Y-116789002D01*
X153102463Y-117073169D01*
X153067159Y-117158400D01*
X145370080Y-117158400D01*
X145333894Y-117154836D01*
X145297708Y-117158400D01*
X145189495Y-117169058D01*
X145050645Y-117211178D01*
X144922681Y-117279576D01*
X144810519Y-117371625D01*
X144787453Y-117399731D01*
X139572434Y-122614750D01*
X139557932Y-122541842D01*
X139445990Y-122271589D01*
X139283475Y-122028368D01*
X139076632Y-121821525D01*
X138833411Y-121659010D01*
X138563158Y-121547068D01*
X138276260Y-121490000D01*
X137983740Y-121490000D01*
X137696842Y-121547068D01*
X137426589Y-121659010D01*
X137183368Y-121821525D01*
X136976525Y-122028368D01*
X136814010Y-122271589D01*
X136702068Y-122541842D01*
X136645000Y-122828740D01*
X136645000Y-123121260D01*
X136702068Y-123408158D01*
X136814010Y-123678411D01*
X136976525Y-123921632D01*
X137183368Y-124128475D01*
X137426589Y-124290990D01*
X137696842Y-124402932D01*
X137769750Y-124417434D01*
X118984732Y-143202453D01*
X118956626Y-143225519D01*
X118933560Y-143253625D01*
X118933558Y-143253627D01*
X118864576Y-143337682D01*
X118796178Y-143465647D01*
X118754059Y-143604496D01*
X118739836Y-143748894D01*
X118743401Y-143785087D01*
X118743400Y-159027321D01*
X118565241Y-159146363D01*
X118365363Y-159346241D01*
X118210000Y-159578759D01*
X118054637Y-159346241D01*
X117854759Y-159146363D01*
X117676600Y-159027321D01*
X117676600Y-143037909D01*
X136085274Y-124629236D01*
X136113374Y-124606175D01*
X136136437Y-124578073D01*
X136136442Y-124578068D01*
X136205424Y-124494013D01*
X136223604Y-124460000D01*
X136273822Y-124366049D01*
X136315942Y-124227199D01*
X136326600Y-124118986D01*
X136326600Y-124118985D01*
X136330164Y-124082800D01*
X136326600Y-124046614D01*
X136326600Y-119467841D01*
X136411831Y-119432537D01*
X136695998Y-119242663D01*
X136937663Y-119000998D01*
X137127537Y-118716831D01*
X137258325Y-118401081D01*
X137325000Y-118065883D01*
X137325000Y-117724117D01*
X137258325Y-117388919D01*
X137127537Y-117073169D01*
X136937663Y-116789002D01*
X136695998Y-116547337D01*
X136411831Y-116357463D01*
X136096081Y-116226675D01*
X135760883Y-116160000D01*
X135419117Y-116160000D01*
X135083919Y-116226675D01*
X134768169Y-116357463D01*
X134484002Y-116547337D01*
X134242337Y-116789002D01*
X134052463Y-117073169D01*
X133921675Y-117388919D01*
X133855000Y-117724117D01*
X133855000Y-118065883D01*
X133921675Y-118401081D01*
X134052463Y-118716831D01*
X134242337Y-119000998D01*
X134484002Y-119242663D01*
X134768169Y-119432537D01*
X134853401Y-119467841D01*
X134853400Y-121051947D01*
X134729715Y-120928262D01*
X134298141Y-120639893D01*
X133818601Y-120441261D01*
X133309525Y-120340000D01*
X132790475Y-120340000D01*
X132281399Y-120441261D01*
X131801859Y-120639893D01*
X131370285Y-120928262D01*
X131003262Y-121295285D01*
X130714893Y-121726859D01*
X130516261Y-122206399D01*
X130415000Y-122715475D01*
X130415000Y-123234525D01*
X130516261Y-123743601D01*
X130714893Y-124223141D01*
X131003262Y-124654715D01*
X131370285Y-125021738D01*
X131801859Y-125310107D01*
X132281399Y-125508739D01*
X132790475Y-125610000D01*
X133021090Y-125610000D01*
X116444732Y-142186359D01*
X116416626Y-142209425D01*
X116393560Y-142237531D01*
X116393558Y-142237533D01*
X116324576Y-142321588D01*
X116256178Y-142449553D01*
X116214059Y-142588402D01*
X116199836Y-142732800D01*
X116203401Y-142768993D01*
X116203400Y-159027321D01*
X116025241Y-159146363D01*
X115825363Y-159346241D01*
X115670000Y-159578759D01*
X115514637Y-159346241D01*
X115314759Y-159146363D01*
X115136600Y-159027321D01*
X115136600Y-141675109D01*
X117035269Y-139776441D01*
X117063375Y-139753375D01*
X117086442Y-139725268D01*
X117155424Y-139641214D01*
X117189623Y-139577231D01*
X117223822Y-139513249D01*
X117265942Y-139374399D01*
X117276600Y-139266186D01*
X117276600Y-139266184D01*
X117280164Y-139230001D01*
X117276600Y-139193817D01*
X117276600Y-132353740D01*
X117595000Y-132353740D01*
X117595000Y-132646260D01*
X117652068Y-132933158D01*
X117764010Y-133203411D01*
X117926525Y-133446632D01*
X118133368Y-133653475D01*
X118376589Y-133815990D01*
X118646842Y-133927932D01*
X118933740Y-133985000D01*
X119226260Y-133985000D01*
X119513158Y-133927932D01*
X119783411Y-133815990D01*
X120026632Y-133653475D01*
X120233475Y-133446632D01*
X120395990Y-133203411D01*
X120507932Y-132933158D01*
X120565000Y-132646260D01*
X120565000Y-132353740D01*
X120507932Y-132066842D01*
X120395990Y-131796589D01*
X120233475Y-131553368D01*
X120026632Y-131346525D01*
X119783411Y-131184010D01*
X119513158Y-131072068D01*
X119226260Y-131015000D01*
X118933740Y-131015000D01*
X118646842Y-131072068D01*
X118376589Y-131184010D01*
X118133368Y-131346525D01*
X117926525Y-131553368D01*
X117764010Y-131796589D01*
X117652068Y-132066842D01*
X117595000Y-132353740D01*
X117276600Y-132353740D01*
X117276600Y-128992841D01*
X117361831Y-128957537D01*
X117645998Y-128767663D01*
X117887663Y-128525998D01*
X118077537Y-128241831D01*
X118208325Y-127926081D01*
X118275000Y-127590883D01*
X118275000Y-127249117D01*
X118208325Y-126913919D01*
X118077537Y-126598169D01*
X117887663Y-126314002D01*
X117645998Y-126072337D01*
X117361831Y-125882463D01*
X117046081Y-125751675D01*
X116710883Y-125685000D01*
X116369117Y-125685000D01*
X116033919Y-125751675D01*
X115718169Y-125882463D01*
X115434002Y-126072337D01*
X115192337Y-126314002D01*
X115002463Y-126598169D01*
X114871675Y-126913919D01*
X114805000Y-127249117D01*
X114805000Y-127590883D01*
X114871675Y-127926081D01*
X115002463Y-128241831D01*
X115192337Y-128525998D01*
X115434002Y-128767663D01*
X115718169Y-128957537D01*
X115803400Y-128992841D01*
X115803400Y-130576947D01*
X115679715Y-130453262D01*
X115248141Y-130164893D01*
X114768601Y-129966261D01*
X114259525Y-129865000D01*
X113740475Y-129865000D01*
X113231399Y-129966261D01*
X112751859Y-130164893D01*
X112320285Y-130453262D01*
X111953262Y-130820285D01*
X111664893Y-131251859D01*
X111466261Y-131731399D01*
X111365000Y-132240475D01*
X111365000Y-132759525D01*
X111466261Y-133268601D01*
X111664893Y-133748141D01*
X111953262Y-134179715D01*
X112320285Y-134546738D01*
X112751859Y-134835107D01*
X113231399Y-135033739D01*
X113740475Y-135135000D01*
X114259525Y-135135000D01*
X114768601Y-135033739D01*
X115248141Y-134835107D01*
X115679715Y-134546738D01*
X115803401Y-134423052D01*
X115803401Y-138924889D01*
X113904732Y-140823559D01*
X113876625Y-140846626D01*
X113784576Y-140958788D01*
X113716178Y-141086752D01*
X113674058Y-141225602D01*
X113664604Y-141321589D01*
X113659836Y-141370000D01*
X113663400Y-141406183D01*
X113663401Y-159027321D01*
X113485241Y-159146363D01*
X113285363Y-159346241D01*
X113130000Y-159578759D01*
X112974637Y-159346241D01*
X112774759Y-159146363D01*
X112539727Y-158989320D01*
X112278574Y-158881147D01*
X112001335Y-158826000D01*
X111718665Y-158826000D01*
X111441426Y-158881147D01*
X111180273Y-158989320D01*
X110945241Y-159146363D01*
X110745363Y-159346241D01*
X110590000Y-159578759D01*
X110434637Y-159346241D01*
X110234759Y-159146363D01*
X109999727Y-158989320D01*
X109738574Y-158881147D01*
X109461335Y-158826000D01*
X109178665Y-158826000D01*
X108901426Y-158881147D01*
X108640273Y-158989320D01*
X108405241Y-159146363D01*
X108205363Y-159346241D01*
X108050000Y-159578759D01*
X107894637Y-159346241D01*
X107694759Y-159146363D01*
X107459727Y-158989320D01*
X107198574Y-158881147D01*
X106921335Y-158826000D01*
X106638665Y-158826000D01*
X106361426Y-158881147D01*
X106100273Y-158989320D01*
X105865241Y-159146363D01*
X105665363Y-159346241D01*
X105508320Y-159581273D01*
X105400147Y-159842426D01*
X105345000Y-160119665D01*
X104066600Y-160119665D01*
X104066600Y-144187259D01*
X104840000Y-144187259D01*
X104840000Y-144612741D01*
X104923008Y-145030049D01*
X105085833Y-145423144D01*
X105322219Y-145776920D01*
X105623080Y-146077781D01*
X105976856Y-146314167D01*
X106369951Y-146476992D01*
X106787259Y-146560000D01*
X107212741Y-146560000D01*
X107630049Y-146476992D01*
X108023144Y-146314167D01*
X108376920Y-146077781D01*
X108677781Y-145776920D01*
X108914167Y-145423144D01*
X109076992Y-145030049D01*
X109160000Y-144612741D01*
X109160000Y-144187259D01*
X109076992Y-143769951D01*
X108914167Y-143376856D01*
X108677781Y-143023080D01*
X108376920Y-142722219D01*
X108023144Y-142485833D01*
X107630049Y-142323008D01*
X107212741Y-142240000D01*
X106787259Y-142240000D01*
X106369951Y-142323008D01*
X105976856Y-142485833D01*
X105623080Y-142722219D01*
X105322219Y-143023080D01*
X105085833Y-143376856D01*
X104923008Y-143769951D01*
X104840000Y-144187259D01*
X104066600Y-144187259D01*
X104066600Y-132353740D01*
X107435000Y-132353740D01*
X107435000Y-132646260D01*
X107492068Y-132933158D01*
X107604010Y-133203411D01*
X107766525Y-133446632D01*
X107973368Y-133653475D01*
X108216589Y-133815990D01*
X108486842Y-133927932D01*
X108773740Y-133985000D01*
X109066260Y-133985000D01*
X109353158Y-133927932D01*
X109623411Y-133815990D01*
X109866632Y-133653475D01*
X110073475Y-133446632D01*
X110235990Y-133203411D01*
X110347932Y-132933158D01*
X110405000Y-132646260D01*
X110405000Y-132353740D01*
X110347932Y-132066842D01*
X110235990Y-131796589D01*
X110168110Y-131695000D01*
X110360883Y-131695000D01*
X110696081Y-131628325D01*
X111011831Y-131497537D01*
X111295998Y-131307663D01*
X111537663Y-131065998D01*
X111727537Y-130781831D01*
X111858325Y-130466081D01*
X111925000Y-130130883D01*
X111925000Y-129789117D01*
X111858325Y-129453919D01*
X111727537Y-129138169D01*
X111537663Y-128854002D01*
X111295998Y-128612337D01*
X111206000Y-128552202D01*
X111206000Y-124198840D01*
X117074441Y-118330400D01*
X120893821Y-118330400D01*
X120560285Y-118553262D01*
X120193262Y-118920285D01*
X119904893Y-119351859D01*
X119706261Y-119831399D01*
X119605000Y-120340475D01*
X119605000Y-120859525D01*
X119706261Y-121368601D01*
X119904893Y-121848141D01*
X120193262Y-122279715D01*
X120560285Y-122646738D01*
X120991859Y-122935107D01*
X121471399Y-123133739D01*
X121980475Y-123235000D01*
X122499525Y-123235000D01*
X123008601Y-123133739D01*
X123488141Y-122935107D01*
X123919715Y-122646738D01*
X124286738Y-122279715D01*
X124575107Y-121848141D01*
X124773739Y-121368601D01*
X124875000Y-120859525D01*
X124875000Y-120340475D01*
X124773739Y-119831399D01*
X124575107Y-119351859D01*
X124286738Y-118920285D01*
X123919715Y-118553262D01*
X123586179Y-118330400D01*
X125698560Y-118330400D01*
X127526116Y-120157957D01*
X127505000Y-120264117D01*
X127505000Y-120605883D01*
X127571675Y-120941081D01*
X127702463Y-121256831D01*
X127858261Y-121490000D01*
X127823740Y-121490000D01*
X127536842Y-121547068D01*
X127266589Y-121659010D01*
X127023368Y-121821525D01*
X126816525Y-122028368D01*
X126654010Y-122271589D01*
X126542068Y-122541842D01*
X126485000Y-122828740D01*
X126485000Y-123121260D01*
X126542068Y-123408158D01*
X126654010Y-123678411D01*
X126816525Y-123921632D01*
X127023368Y-124128475D01*
X127266589Y-124290990D01*
X127536842Y-124402932D01*
X127823740Y-124460000D01*
X128116260Y-124460000D01*
X128403158Y-124402932D01*
X128673411Y-124290990D01*
X128916632Y-124128475D01*
X129123475Y-123921632D01*
X129285990Y-123678411D01*
X129397932Y-123408158D01*
X129455000Y-123121260D01*
X129455000Y-122828740D01*
X129397932Y-122541842D01*
X129285990Y-122271589D01*
X129218110Y-122170000D01*
X129410883Y-122170000D01*
X129746081Y-122103325D01*
X130061831Y-121972537D01*
X130345998Y-121782663D01*
X130587663Y-121540998D01*
X130777537Y-121256831D01*
X130908325Y-120941081D01*
X130975000Y-120605883D01*
X130975000Y-120264117D01*
X130908325Y-119928919D01*
X130777537Y-119613169D01*
X130587663Y-119329002D01*
X130345998Y-119087337D01*
X130061831Y-118897463D01*
X129746081Y-118766675D01*
X129410883Y-118700000D01*
X129069117Y-118700000D01*
X128962957Y-118721116D01*
X126873112Y-116631272D01*
X126841296Y-116592504D01*
X126686590Y-116465540D01*
X126510087Y-116371198D01*
X126318571Y-116313102D01*
X126169302Y-116298400D01*
X126119400Y-116293485D01*
X126069498Y-116298400D01*
X116703502Y-116298400D01*
X116653600Y-116293485D01*
X116603698Y-116298400D01*
X116454429Y-116313102D01*
X116262913Y-116371198D01*
X116086410Y-116465540D01*
X115931704Y-116592504D01*
X115899892Y-116631267D01*
X109506868Y-123024292D01*
X109468105Y-123056104D01*
X109341141Y-123210810D01*
X109270679Y-123342636D01*
X109246799Y-123387313D01*
X109188702Y-123578830D01*
X109169085Y-123778000D01*
X109174001Y-123827912D01*
X109174000Y-128552202D01*
X109084002Y-128612337D01*
X108842337Y-128854002D01*
X108652463Y-129138169D01*
X108521675Y-129453919D01*
X108455000Y-129789117D01*
X108455000Y-130130883D01*
X108521675Y-130466081D01*
X108652463Y-130781831D01*
X108808261Y-131015000D01*
X108773740Y-131015000D01*
X108486842Y-131072068D01*
X108216589Y-131184010D01*
X107973368Y-131346525D01*
X107766525Y-131553368D01*
X107604010Y-131796589D01*
X107492068Y-132066842D01*
X107435000Y-132353740D01*
X104066600Y-132353740D01*
X104066600Y-127283215D01*
X122635269Y-108714547D01*
X122663375Y-108691481D01*
X122755424Y-108579319D01*
X122823822Y-108451355D01*
X122865942Y-108312505D01*
X122876600Y-108204292D01*
X122876600Y-108204283D01*
X122880163Y-108168107D01*
X122876600Y-108131931D01*
X122876600Y-108030000D01*
X128371928Y-108030000D01*
X128371928Y-109530000D01*
X128384188Y-109654482D01*
X128420498Y-109774180D01*
X128479463Y-109884494D01*
X128558815Y-109981185D01*
X128655506Y-110060537D01*
X128765820Y-110119502D01*
X128885518Y-110155812D01*
X128993483Y-110166445D01*
X128877114Y-110244201D01*
X128684201Y-110437114D01*
X128532629Y-110663957D01*
X128428225Y-110916011D01*
X128375000Y-111183589D01*
X128375000Y-111456411D01*
X128428225Y-111723989D01*
X128532629Y-111976043D01*
X128684201Y-112202886D01*
X128877114Y-112395799D01*
X129103957Y-112547371D01*
X129206873Y-112590000D01*
X129103957Y-112632629D01*
X128877114Y-112784201D01*
X128684201Y-112977114D01*
X128532629Y-113203957D01*
X128428225Y-113456011D01*
X128375000Y-113723589D01*
X128375000Y-113996411D01*
X128428225Y-114263989D01*
X128532629Y-114516043D01*
X128684201Y-114742886D01*
X128877114Y-114935799D01*
X129103957Y-115087371D01*
X129356011Y-115191775D01*
X129623589Y-115245000D01*
X129896411Y-115245000D01*
X130163989Y-115191775D01*
X130416043Y-115087371D01*
X130642886Y-114935799D01*
X130835799Y-114742886D01*
X130987371Y-114516043D01*
X131091775Y-114263989D01*
X131145000Y-113996411D01*
X131145000Y-113723589D01*
X131144021Y-113718665D01*
X136770000Y-113718665D01*
X136770000Y-114001335D01*
X136825147Y-114278574D01*
X136933320Y-114539727D01*
X137090363Y-114774759D01*
X137290241Y-114974637D01*
X137525273Y-115131680D01*
X137786426Y-115239853D01*
X138063665Y-115295000D01*
X138346335Y-115295000D01*
X138623574Y-115239853D01*
X138884727Y-115131680D01*
X139119759Y-114974637D01*
X139319637Y-114774759D01*
X139476680Y-114539727D01*
X139584853Y-114278574D01*
X139640000Y-114001335D01*
X139640000Y-113718665D01*
X139584853Y-113441426D01*
X139476680Y-113180273D01*
X139319637Y-112945241D01*
X139119759Y-112745363D01*
X138884727Y-112588320D01*
X138623574Y-112480147D01*
X138346335Y-112425000D01*
X138063665Y-112425000D01*
X137786426Y-112480147D01*
X137525273Y-112588320D01*
X137290241Y-112745363D01*
X137090363Y-112945241D01*
X136933320Y-113180273D01*
X136825147Y-113441426D01*
X136770000Y-113718665D01*
X131144021Y-113718665D01*
X131091775Y-113456011D01*
X130987371Y-113203957D01*
X130835799Y-112977114D01*
X130642886Y-112784201D01*
X130416043Y-112632629D01*
X130313127Y-112590000D01*
X130416043Y-112547371D01*
X130642886Y-112395799D01*
X130835799Y-112202886D01*
X130987371Y-111976043D01*
X131091775Y-111723989D01*
X131120871Y-111577712D01*
X131366292Y-111823133D01*
X131398104Y-111861896D01*
X131552810Y-111988860D01*
X131729313Y-112083202D01*
X131920829Y-112141298D01*
X132119999Y-112160915D01*
X132169901Y-112156000D01*
X143415098Y-112156000D01*
X143465000Y-112160915D01*
X143514902Y-112156000D01*
X143664171Y-112141298D01*
X143855687Y-112083202D01*
X144032190Y-111988860D01*
X144186896Y-111861896D01*
X144218712Y-111823128D01*
X145823769Y-110218072D01*
X146625000Y-110218072D01*
X146749482Y-110205812D01*
X146869180Y-110169502D01*
X146979494Y-110110537D01*
X147076185Y-110031185D01*
X147155537Y-109934494D01*
X147214502Y-109824180D01*
X147250812Y-109704482D01*
X147263072Y-109580000D01*
X147263072Y-107980000D01*
X147250812Y-107855518D01*
X147214502Y-107735820D01*
X147155537Y-107625506D01*
X147076185Y-107528815D01*
X146979494Y-107449463D01*
X146869180Y-107390498D01*
X146841000Y-107381950D01*
X146841000Y-102013396D01*
X146939637Y-101914759D01*
X147096680Y-101679727D01*
X147204853Y-101418574D01*
X147260000Y-101141335D01*
X147260000Y-100858665D01*
X147212981Y-100622285D01*
X154165000Y-100622285D01*
X154165000Y-101377715D01*
X154312377Y-102118628D01*
X154601467Y-102816554D01*
X155021161Y-103444670D01*
X155555330Y-103978839D01*
X156183446Y-104398533D01*
X156881372Y-104687623D01*
X157622285Y-104835000D01*
X158377715Y-104835000D01*
X159118628Y-104687623D01*
X159816554Y-104398533D01*
X160444670Y-103978839D01*
X160978839Y-103444670D01*
X161398533Y-102816554D01*
X161687623Y-102118628D01*
X161835000Y-101377715D01*
X161835000Y-100622285D01*
X161687623Y-99881372D01*
X161398533Y-99183446D01*
X160978839Y-98555330D01*
X160444670Y-98021161D01*
X159816554Y-97601467D01*
X159118628Y-97312377D01*
X158377715Y-97165000D01*
X157622285Y-97165000D01*
X156881372Y-97312377D01*
X156183446Y-97601467D01*
X155555330Y-98021161D01*
X155021161Y-98555330D01*
X154601467Y-99183446D01*
X154312377Y-99881372D01*
X154165000Y-100622285D01*
X147212981Y-100622285D01*
X147204853Y-100581426D01*
X147096680Y-100320273D01*
X146939637Y-100085241D01*
X146739759Y-99885363D01*
X146504727Y-99728320D01*
X146243574Y-99620147D01*
X145966335Y-99565000D01*
X145683665Y-99565000D01*
X145406426Y-99620147D01*
X145145273Y-99728320D01*
X144910241Y-99885363D01*
X144710363Y-100085241D01*
X144553320Y-100320273D01*
X144445147Y-100581426D01*
X144390000Y-100858665D01*
X144390000Y-101141335D01*
X144445147Y-101418574D01*
X144553320Y-101679727D01*
X144710363Y-101914759D01*
X144809001Y-102013397D01*
X144809000Y-107381950D01*
X144780820Y-107390498D01*
X144670506Y-107449463D01*
X144573815Y-107528815D01*
X144494463Y-107625506D01*
X144435498Y-107735820D01*
X144399188Y-107855518D01*
X144386928Y-107980000D01*
X144386928Y-108781231D01*
X143044160Y-110124000D01*
X138687827Y-110124000D01*
X138818881Y-110077070D01*
X139060131Y-109932385D01*
X139268519Y-109743414D01*
X139436037Y-109517420D01*
X139556246Y-109263087D01*
X139596904Y-109129039D01*
X139474915Y-108907000D01*
X138332000Y-108907000D01*
X138332000Y-108927000D01*
X138078000Y-108927000D01*
X138078000Y-108907000D01*
X136935085Y-108907000D01*
X136813096Y-109129039D01*
X136853754Y-109263087D01*
X136973963Y-109517420D01*
X137141481Y-109743414D01*
X137349869Y-109932385D01*
X137591119Y-110077070D01*
X137722173Y-110124000D01*
X132540841Y-110124000D01*
X131148072Y-108731232D01*
X131148072Y-108430961D01*
X136813096Y-108430961D01*
X136935085Y-108653000D01*
X138078000Y-108653000D01*
X138078000Y-107509376D01*
X138332000Y-107509376D01*
X138332000Y-108653000D01*
X139474915Y-108653000D01*
X139596904Y-108430961D01*
X139556246Y-108296913D01*
X139436037Y-108042580D01*
X139268519Y-107816586D01*
X139060131Y-107627615D01*
X138818881Y-107482930D01*
X138554040Y-107388091D01*
X138332000Y-107509376D01*
X138078000Y-107509376D01*
X137855960Y-107388091D01*
X137591119Y-107482930D01*
X137349869Y-107627615D01*
X137141481Y-107816586D01*
X136973963Y-108042580D01*
X136853754Y-108296913D01*
X136813096Y-108430961D01*
X131148072Y-108430961D01*
X131148072Y-108030000D01*
X131135812Y-107905518D01*
X131099502Y-107785820D01*
X131040537Y-107675506D01*
X130961185Y-107578815D01*
X130864494Y-107499463D01*
X130754180Y-107440498D01*
X130634482Y-107404188D01*
X130510000Y-107391928D01*
X129010000Y-107391928D01*
X128885518Y-107404188D01*
X128765820Y-107440498D01*
X128655506Y-107499463D01*
X128558815Y-107578815D01*
X128479463Y-107675506D01*
X128420498Y-107785820D01*
X128384188Y-107905518D01*
X128371928Y-108030000D01*
X122876600Y-108030000D01*
X122876600Y-106517814D01*
X123086632Y-106377475D01*
X123293475Y-106170632D01*
X123410000Y-105996240D01*
X123526525Y-106170632D01*
X123733368Y-106377475D01*
X123976589Y-106539990D01*
X124246842Y-106651932D01*
X124533740Y-106709000D01*
X124826260Y-106709000D01*
X125113158Y-106651932D01*
X125383411Y-106539990D01*
X125626632Y-106377475D01*
X125833475Y-106170632D01*
X125955195Y-105988466D01*
X126024822Y-106105355D01*
X126219731Y-106321588D01*
X126453080Y-106495641D01*
X126715901Y-106620825D01*
X126863110Y-106665476D01*
X127093000Y-106544155D01*
X127093000Y-105351000D01*
X127073000Y-105351000D01*
X127073000Y-105097000D01*
X127093000Y-105097000D01*
X127093000Y-103903845D01*
X127347000Y-103903845D01*
X127347000Y-105097000D01*
X127367000Y-105097000D01*
X127367000Y-105351000D01*
X127347000Y-105351000D01*
X127347000Y-106544155D01*
X127576890Y-106665476D01*
X127724099Y-106620825D01*
X127986920Y-106495641D01*
X128220269Y-106321588D01*
X128415178Y-106105355D01*
X128484805Y-105988466D01*
X128606525Y-106170632D01*
X128813368Y-106377475D01*
X129056589Y-106539990D01*
X129326842Y-106651932D01*
X129613740Y-106709000D01*
X129906260Y-106709000D01*
X130193158Y-106651932D01*
X130463411Y-106539990D01*
X130706632Y-106377475D01*
X130913475Y-106170632D01*
X131075990Y-105927411D01*
X131187932Y-105657158D01*
X131245000Y-105370260D01*
X131245000Y-105077740D01*
X131187932Y-104790842D01*
X131075990Y-104520589D01*
X130913475Y-104277368D01*
X130706632Y-104070525D01*
X130463411Y-103908010D01*
X130193158Y-103796068D01*
X129906260Y-103739000D01*
X129613740Y-103739000D01*
X129326842Y-103796068D01*
X129056589Y-103908010D01*
X128813368Y-104070525D01*
X128606525Y-104277368D01*
X128484805Y-104459534D01*
X128415178Y-104342645D01*
X128220269Y-104126412D01*
X127986920Y-103952359D01*
X127724099Y-103827175D01*
X127576890Y-103782524D01*
X127347000Y-103903845D01*
X127093000Y-103903845D01*
X126863110Y-103782524D01*
X126715901Y-103827175D01*
X126453080Y-103952359D01*
X126219731Y-104126412D01*
X126024822Y-104342645D01*
X125955195Y-104459534D01*
X125833475Y-104277368D01*
X125626632Y-104070525D01*
X125383411Y-103908010D01*
X125113158Y-103796068D01*
X124826260Y-103739000D01*
X124533740Y-103739000D01*
X124246842Y-103796068D01*
X123976589Y-103908010D01*
X123733368Y-104070525D01*
X123526525Y-104277368D01*
X123410000Y-104451760D01*
X123293475Y-104277368D01*
X123086632Y-104070525D01*
X122843411Y-103908010D01*
X122573158Y-103796068D01*
X122286260Y-103739000D01*
X121993740Y-103739000D01*
X121706842Y-103796068D01*
X121436589Y-103908010D01*
X121193368Y-104070525D01*
X120986525Y-104277368D01*
X120870000Y-104451760D01*
X120753475Y-104277368D01*
X120546632Y-104070525D01*
X120303411Y-103908010D01*
X120033158Y-103796068D01*
X119746260Y-103739000D01*
X119453740Y-103739000D01*
X119166842Y-103796068D01*
X118896589Y-103908010D01*
X118653368Y-104070525D01*
X118446525Y-104277368D01*
X118330000Y-104451760D01*
X118213475Y-104277368D01*
X118006632Y-104070525D01*
X117763411Y-103908010D01*
X117493158Y-103796068D01*
X117206260Y-103739000D01*
X116913740Y-103739000D01*
X116626842Y-103796068D01*
X116356589Y-103908010D01*
X116113368Y-104070525D01*
X115906525Y-104277368D01*
X115790000Y-104451760D01*
X115673475Y-104277368D01*
X115466632Y-104070525D01*
X115223411Y-103908010D01*
X114953158Y-103796068D01*
X114666260Y-103739000D01*
X114373740Y-103739000D01*
X114086842Y-103796068D01*
X113816589Y-103908010D01*
X113573368Y-104070525D01*
X113366525Y-104277368D01*
X113250000Y-104451760D01*
X113133475Y-104277368D01*
X112926632Y-104070525D01*
X112683411Y-103908010D01*
X112413158Y-103796068D01*
X112126260Y-103739000D01*
X111833740Y-103739000D01*
X111546842Y-103796068D01*
X111276589Y-103908010D01*
X111033368Y-104070525D01*
X110826525Y-104277368D01*
X110710000Y-104451760D01*
X110593475Y-104277368D01*
X110386632Y-104070525D01*
X110143411Y-103908010D01*
X109873158Y-103796068D01*
X109586260Y-103739000D01*
X109293740Y-103739000D01*
X109006842Y-103796068D01*
X108736589Y-103908010D01*
X108493368Y-104070525D01*
X108286525Y-104277368D01*
X108170000Y-104451760D01*
X108053475Y-104277368D01*
X107846632Y-104070525D01*
X107603411Y-103908010D01*
X107333158Y-103796068D01*
X107046260Y-103739000D01*
X106753740Y-103739000D01*
X106466842Y-103796068D01*
X106196589Y-103908010D01*
X105953368Y-104070525D01*
X105746525Y-104277368D01*
X105630000Y-104451760D01*
X105513475Y-104277368D01*
X105306632Y-104070525D01*
X105063411Y-103908010D01*
X104793158Y-103796068D01*
X104506260Y-103739000D01*
X104213740Y-103739000D01*
X103926842Y-103796068D01*
X103656589Y-103908010D01*
X103413368Y-104070525D01*
X103206525Y-104277368D01*
X103090000Y-104451760D01*
X102973475Y-104277368D01*
X102766632Y-104070525D01*
X102523411Y-103908010D01*
X102253158Y-103796068D01*
X101966260Y-103739000D01*
X101673740Y-103739000D01*
X101386842Y-103796068D01*
X101116589Y-103908010D01*
X100873368Y-104070525D01*
X100666525Y-104277368D01*
X100550000Y-104451760D01*
X100433475Y-104277368D01*
X100226632Y-104070525D01*
X99983411Y-103908010D01*
X99713158Y-103796068D01*
X99426260Y-103739000D01*
X99133740Y-103739000D01*
X98846842Y-103796068D01*
X98576589Y-103908010D01*
X98333368Y-104070525D01*
X98126525Y-104277368D01*
X98010000Y-104451760D01*
X97893475Y-104277368D01*
X97686632Y-104070525D01*
X97443411Y-103908010D01*
X97173158Y-103796068D01*
X96886260Y-103739000D01*
X96593740Y-103739000D01*
X96306842Y-103796068D01*
X96036589Y-103908010D01*
X95793368Y-104070525D01*
X95586525Y-104277368D01*
X95464805Y-104459534D01*
X95395178Y-104342645D01*
X95200269Y-104126412D01*
X94966920Y-103952359D01*
X94704099Y-103827175D01*
X94556890Y-103782524D01*
X94327000Y-103903845D01*
X94073000Y-103903845D01*
X93843110Y-103782524D01*
X93695901Y-103827175D01*
X93433080Y-103952359D01*
X93199731Y-104126412D01*
X93004822Y-104342645D01*
X92935195Y-104459534D01*
X92813475Y-104277368D01*
X92606632Y-104070525D01*
X92363411Y-103908010D01*
X92093158Y-103796068D01*
X91806260Y-103739000D01*
X91513740Y-103739000D01*
X91226842Y-103796068D01*
X90956589Y-103908010D01*
X90713368Y-104070525D01*
X90506525Y-104277368D01*
X90390000Y-104451760D01*
X90273475Y-104277368D01*
X90066632Y-104070525D01*
X89823411Y-103908010D01*
X89553158Y-103796068D01*
X89266260Y-103739000D01*
X88973740Y-103739000D01*
X88686842Y-103796068D01*
X88416589Y-103908010D01*
X88173368Y-104070525D01*
X87966525Y-104277368D01*
X87850000Y-104451760D01*
X87733475Y-104277368D01*
X87526632Y-104070525D01*
X87283411Y-103908010D01*
X87013158Y-103796068D01*
X86726260Y-103739000D01*
X86433740Y-103739000D01*
X86146842Y-103796068D01*
X85876589Y-103908010D01*
X85633368Y-104070525D01*
X85426525Y-104277368D01*
X85304805Y-104459534D01*
X85235178Y-104342645D01*
X85040269Y-104126412D01*
X84806920Y-103952359D01*
X84544099Y-103827175D01*
X84396890Y-103782524D01*
X84167000Y-103903845D01*
X83913000Y-103903845D01*
X83683110Y-103782524D01*
X83535901Y-103827175D01*
X83273080Y-103952359D01*
X83039731Y-104126412D01*
X82963966Y-104210466D01*
X82939502Y-104129820D01*
X82880537Y-104019506D01*
X82801185Y-103922815D01*
X82704494Y-103843463D01*
X82594180Y-103784498D01*
X82474482Y-103748188D01*
X82350000Y-103735928D01*
X80650000Y-103735928D01*
X80525518Y-103748188D01*
X80405820Y-103784498D01*
X80295506Y-103843463D01*
X80198815Y-103922815D01*
X80119463Y-104019506D01*
X80060498Y-104129820D01*
X80024188Y-104249518D01*
X80011928Y-104374000D01*
X71853270Y-104374000D01*
X72444670Y-103978839D01*
X72978839Y-103444670D01*
X73398533Y-102816554D01*
X73687623Y-102118628D01*
X73751002Y-101800000D01*
X137886928Y-101800000D01*
X137899188Y-101924482D01*
X137935498Y-102044180D01*
X137994463Y-102154494D01*
X138073815Y-102251185D01*
X138170506Y-102330537D01*
X138280820Y-102389502D01*
X138400518Y-102425812D01*
X138525000Y-102438072D01*
X139039250Y-102435000D01*
X139198000Y-102276250D01*
X139198000Y-101127000D01*
X139452000Y-101127000D01*
X139452000Y-102276250D01*
X139610750Y-102435000D01*
X140125000Y-102438072D01*
X140249482Y-102425812D01*
X140369180Y-102389502D01*
X140479494Y-102330537D01*
X140576185Y-102251185D01*
X140655537Y-102154494D01*
X140714502Y-102044180D01*
X140750812Y-101924482D01*
X140763072Y-101800000D01*
X140760000Y-101285750D01*
X140601250Y-101127000D01*
X139452000Y-101127000D01*
X139198000Y-101127000D01*
X138048750Y-101127000D01*
X137890000Y-101285750D01*
X137886928Y-101800000D01*
X73751002Y-101800000D01*
X73835000Y-101377715D01*
X73835000Y-100622285D01*
X73751003Y-100200000D01*
X137886928Y-100200000D01*
X137890000Y-100714250D01*
X138048750Y-100873000D01*
X139198000Y-100873000D01*
X139198000Y-99723750D01*
X139452000Y-99723750D01*
X139452000Y-100873000D01*
X140601250Y-100873000D01*
X140760000Y-100714250D01*
X140763072Y-100200000D01*
X140750812Y-100075518D01*
X140714502Y-99955820D01*
X140655537Y-99845506D01*
X140576185Y-99748815D01*
X140479494Y-99669463D01*
X140369180Y-99610498D01*
X140249482Y-99574188D01*
X140125000Y-99561928D01*
X139610750Y-99565000D01*
X139452000Y-99723750D01*
X139198000Y-99723750D01*
X139039250Y-99565000D01*
X138525000Y-99561928D01*
X138400518Y-99574188D01*
X138280820Y-99610498D01*
X138170506Y-99669463D01*
X138073815Y-99748815D01*
X137994463Y-99845506D01*
X137935498Y-99955820D01*
X137899188Y-100075518D01*
X137886928Y-100200000D01*
X73751003Y-100200000D01*
X73687623Y-99881372D01*
X73398533Y-99183446D01*
X72978839Y-98555330D01*
X72444670Y-98021161D01*
X71816554Y-97601467D01*
X71118628Y-97312377D01*
X70377715Y-97165000D01*
X69622285Y-97165000D01*
X68881372Y-97312377D01*
X68183446Y-97601467D01*
X67555330Y-98021161D01*
X67021161Y-98555330D01*
X66601467Y-99183446D01*
X66312377Y-99881372D01*
X66165000Y-100622285D01*
X64685000Y-100622285D01*
X64685000Y-96966353D01*
X64675711Y-96872045D01*
X64688625Y-96740341D01*
X64764035Y-96490571D01*
X64886522Y-96260208D01*
X65051422Y-96058020D01*
X65252450Y-95891714D01*
X65481954Y-95767622D01*
X65731195Y-95690469D01*
X65871819Y-95675689D01*
X65966353Y-95685000D01*
G37*
G04 #@! TD.AperFunction*
M02*
