M48
INCH,TZ
T1C0.0315
T2C0.0394
T3C0.0591
T4C0.1260
%
G90
G05
T1
X32087Y-42827
X32087Y-43827
X32087Y-44827
X34087Y-43827
X37087Y-43827
X42039Y-63095
X43039Y-63095
X44039Y-63095
X45039Y-63095
X46039Y-63095
X47039Y-63095
X48039Y-63095
X49039Y-63095
X50039Y-63095
X51087Y-42827
X51087Y-43827
X51087Y-44827
X54411Y-42827
X54411Y-44827
X57411Y-42827
X57411Y-44827
T2
X32087Y-41427
X33087Y-41427
X34087Y-41427
X35087Y-41427
X36087Y-41427
X37087Y-41427
X38087Y-41427
X39087Y-41427
X40087Y-41427
X41087Y-41427
X42039Y-64610
X42039Y-65610
X42087Y-41427
X43039Y-64610
X43039Y-65610
X43087Y-41427
X44039Y-64610
X44039Y-65610
X44087Y-41427
X45039Y-64610
X45039Y-65610
X45087Y-41427
X46039Y-64610
X46039Y-65610
X46087Y-41427
X47039Y-64610
X47039Y-65610
X47087Y-41427
X48039Y-64610
X48039Y-65610
X48087Y-41427
X49039Y-64610
X49039Y-65610
X49087Y-41427
X50039Y-64610
X50039Y-65610
X50087Y-41427
X51039Y-64610
X51039Y-65610
X51087Y-41427
X52039Y-64610
X52039Y-65610
X53039Y-64610
X53039Y-65610
X54039Y-64610
X54039Y-65610
X54852Y-39764
X57411Y-39764
T3
X28382Y-51165
X30882Y-50165
X35882Y-47415
X35882Y-54915
X38382Y-46415
X38382Y-53915
X43382Y-51165
X45882Y-50165
X50882Y-47415
X50882Y-54915
X53382Y-46415
X53382Y-53915
X58382Y-47415
X58382Y-54915
X60882Y-46415
X60882Y-53915
T4
X27559Y-39764
X27559Y-64567
X62205Y-39764
X62205Y-64567
T0
M30
