G04 #@! TF.GenerationSoftware,KiCad,Pcbnew,5.1.10*
G04 #@! TF.CreationDate,2022-01-21T18:07:56-08:00*
G04 #@! TF.ProjectId,Z-FIGHTER_Accessory_Board,5a2d4649-4748-4544-9552-5f4163636573,rev?*
G04 #@! TF.SameCoordinates,Original*
G04 #@! TF.FileFunction,Copper,L2,Bot*
G04 #@! TF.FilePolarity,Positive*
%FSLAX46Y46*%
G04 Gerber Fmt 4.6, Leading zero omitted, Abs format (unit mm)*
G04 Created by KiCad (PCBNEW 5.1.10) date 2022-01-21 18:07:56*
%MOMM*%
%LPD*%
G01*
G04 APERTURE LIST*
G04 #@! TA.AperFunction,ComponentPad*
%ADD10R,1.700000X1.700000*%
G04 #@! TD*
G04 #@! TA.AperFunction,ComponentPad*
%ADD11O,1.700000X1.700000*%
G04 #@! TD*
G04 #@! TA.AperFunction,ComponentPad*
%ADD12C,2.200000*%
G04 #@! TD*
G04 #@! TA.AperFunction,ComponentPad*
%ADD13R,1.600000X1.600000*%
G04 #@! TD*
G04 #@! TA.AperFunction,ComponentPad*
%ADD14O,1.600000X1.600000*%
G04 #@! TD*
G04 #@! TA.AperFunction,ComponentPad*
%ADD15C,6.400000*%
G04 #@! TD*
G04 #@! TA.AperFunction,ComponentPad*
%ADD16C,1.600000*%
G04 #@! TD*
G04 #@! TA.AperFunction,ComponentPad*
%ADD17R,1.500000X1.500000*%
G04 #@! TD*
G04 #@! TA.AperFunction,ComponentPad*
%ADD18C,1.500000*%
G04 #@! TD*
G04 #@! TA.AperFunction,Conductor*
%ADD19C,0.203200*%
G04 #@! TD*
G04 #@! TA.AperFunction,Conductor*
%ADD20C,0.254000*%
G04 #@! TD*
G04 #@! TA.AperFunction,Conductor*
%ADD21C,0.100000*%
G04 #@! TD*
G04 APERTURE END LIST*
D10*
X81500000Y-91000000D03*
D11*
X84040000Y-91000000D03*
X86580000Y-91000000D03*
X89120000Y-91000000D03*
X91660000Y-91000000D03*
X94200000Y-91000000D03*
X96740000Y-91000000D03*
X99280000Y-91000000D03*
X101820000Y-91000000D03*
X104360000Y-91000000D03*
X106900000Y-91000000D03*
X109440000Y-91000000D03*
X111980000Y-91000000D03*
X114520000Y-91000000D03*
X117060000Y-91000000D03*
X119600000Y-91000000D03*
X122140000Y-91000000D03*
X124680000Y-91000000D03*
X127220000Y-91000000D03*
X129760000Y-91000000D03*
X106780000Y-166649000D03*
X106780000Y-164109000D03*
X109320000Y-166649000D03*
X109320000Y-164109000D03*
X111860000Y-166649000D03*
X111860000Y-164109000D03*
X114400000Y-166649000D03*
X114400000Y-164109000D03*
X116940000Y-166649000D03*
X116940000Y-164109000D03*
X119480000Y-166649000D03*
X119480000Y-164109000D03*
X122020000Y-166649000D03*
X122020000Y-164109000D03*
X124560000Y-166649000D03*
X124560000Y-164109000D03*
X127100000Y-166649000D03*
X127100000Y-164109000D03*
X129640000Y-166649000D03*
X129640000Y-164109000D03*
X132180000Y-166649000D03*
X132180000Y-164109000D03*
X134720000Y-166649000D03*
X134720000Y-164109000D03*
X137260000Y-166649000D03*
D10*
X137260000Y-164109000D03*
X81500000Y-105224000D03*
D11*
X84040000Y-105224000D03*
X86580000Y-105224000D03*
X89120000Y-105224000D03*
X91660000Y-105224000D03*
X94200000Y-105224000D03*
X96740000Y-105224000D03*
X99280000Y-105224000D03*
X101820000Y-105224000D03*
X104360000Y-105224000D03*
X106900000Y-105224000D03*
X109440000Y-105224000D03*
X111980000Y-105224000D03*
X114520000Y-105224000D03*
X117060000Y-105224000D03*
X119600000Y-105224000D03*
X122140000Y-105224000D03*
X124680000Y-105224000D03*
X127220000Y-105224000D03*
X129760000Y-105224000D03*
D12*
X116540000Y-127420000D03*
X110190000Y-129960000D03*
X154640000Y-136945000D03*
X148290000Y-139485000D03*
X135590000Y-136945000D03*
X129240000Y-139485000D03*
X154640000Y-117895000D03*
X148290000Y-120435000D03*
X135590000Y-117895000D03*
X129240000Y-120435000D03*
X91140000Y-139485000D03*
X97490000Y-136945000D03*
X97490000Y-117895000D03*
X91140000Y-120435000D03*
X78440000Y-127420000D03*
X72090000Y-129960000D03*
D13*
X145825000Y-108780000D03*
D14*
X138205000Y-108780000D03*
D15*
X158000000Y-101000000D03*
D13*
X127100000Y-160261000D03*
D14*
X124560000Y-160261000D03*
X122020000Y-160261000D03*
X119480000Y-160261000D03*
X116940000Y-160261000D03*
X114400000Y-160261000D03*
X111860000Y-160261000D03*
X109320000Y-160261000D03*
X106780000Y-160261000D03*
D15*
X158000000Y-164000000D03*
X70000000Y-101000000D03*
X70000000Y-164000000D03*
D16*
X138205000Y-113860000D03*
D14*
X145825000Y-113860000D03*
X94200000Y-111320000D03*
D16*
X86580000Y-111320000D03*
D13*
X139325000Y-101000000D03*
D16*
X145825000Y-101000000D03*
D17*
X81500000Y-108780000D03*
D18*
X81500000Y-113860000D03*
X81500000Y-111320000D03*
D17*
X129760000Y-108780000D03*
D18*
X129760000Y-113860000D03*
X129760000Y-111320000D03*
D19*
X134720000Y-162874750D02*
X134720000Y-164109000D01*
X125423589Y-153578340D02*
X134720000Y-162874750D01*
X106900000Y-105605000D02*
X106900000Y-108900499D01*
X125423589Y-127424087D02*
X125423589Y-153578340D01*
X106900000Y-108900499D02*
X125423589Y-127424087D01*
X134720000Y-166649000D02*
X133450000Y-165379000D01*
X133450000Y-162179501D02*
X125017178Y-153746680D01*
X125017178Y-127592427D02*
X104360000Y-106935250D01*
X104360000Y-106935250D02*
X104360000Y-105605000D01*
X125017178Y-153746680D02*
X125017178Y-127592427D01*
X133450000Y-165379000D02*
X133450000Y-162179501D01*
X103670000Y-104400000D02*
X108235000Y-104400000D01*
X103120000Y-106270000D02*
X103120000Y-104950000D01*
X108235000Y-104400000D02*
X109440000Y-105605000D01*
X124610767Y-127760767D02*
X103120000Y-106270000D01*
X124610767Y-153915020D02*
X124610767Y-127760767D01*
X132180000Y-161484252D02*
X124610767Y-153915020D01*
X103120000Y-104950000D02*
X103670000Y-104400000D01*
X132180000Y-164109000D02*
X132180000Y-161484252D01*
X104969233Y-108754233D02*
X101820000Y-105605000D01*
X104969233Y-135299731D02*
X104969233Y-108754233D01*
X130910000Y-161240498D02*
X104969233Y-135299731D01*
X130910000Y-165130000D02*
X130910000Y-161240498D01*
X132180000Y-166400000D02*
X130910000Y-165130000D01*
X132180000Y-166649000D02*
X132180000Y-166400000D01*
X135954100Y-163534100D02*
X125830000Y-153410000D01*
X116768590Y-110393590D02*
X111980000Y-105605000D01*
X125830000Y-153410000D02*
X125830000Y-119455000D01*
X135954100Y-167285900D02*
X135954100Y-163534100D01*
X125830000Y-119455000D02*
X116768590Y-110393590D01*
X135300000Y-167940000D02*
X135954100Y-167285900D01*
X131610000Y-167940000D02*
X135300000Y-167940000D01*
X130910000Y-167240000D02*
X131610000Y-167940000D01*
X130910000Y-165704750D02*
X130910000Y-167240000D01*
X129640000Y-164434750D02*
X130910000Y-165704750D01*
X129640000Y-164109000D02*
X129640000Y-164434750D01*
X104562822Y-110887822D02*
X99280000Y-105605000D01*
X104562822Y-135468071D02*
X104562822Y-110887822D01*
X128485199Y-159390448D02*
X104562822Y-135468071D01*
X128485199Y-165494199D02*
X128485199Y-159390448D01*
X129640000Y-166649000D02*
X128485199Y-165494199D01*
X104156411Y-113021411D02*
X96740000Y-105605000D01*
X104156411Y-135636411D02*
X104156411Y-113021411D01*
X125840000Y-157320000D02*
X104156411Y-135636411D01*
X125840000Y-165389000D02*
X125840000Y-157320000D01*
X127100000Y-166649000D02*
X125840000Y-165389000D01*
X124560000Y-160261000D02*
X124560000Y-164109000D01*
X122020000Y-160261000D02*
X122020000Y-164109000D01*
X119480000Y-160261000D02*
X119480000Y-164109000D01*
X116940000Y-160261000D02*
X116940000Y-164109000D01*
X114400000Y-160261000D02*
X114400000Y-164109000D01*
X103750000Y-118430000D02*
X96640000Y-111320000D01*
X103750000Y-135804750D02*
X103750000Y-118430000D01*
X115554801Y-147609551D02*
X103750000Y-135804750D01*
X115554801Y-165494199D02*
X115554801Y-147609551D01*
X96640000Y-111320000D02*
X94200000Y-111320000D01*
X114400000Y-166649000D02*
X115554801Y-165494199D01*
X111860000Y-160261000D02*
X111860000Y-164109000D01*
X78440000Y-127420000D02*
X87710000Y-136690000D01*
X87710000Y-136690000D02*
X87710000Y-146830000D01*
X87710000Y-146830000D02*
X106143801Y-165263801D01*
X106143801Y-165263801D02*
X110705199Y-165263801D01*
X110705199Y-165263801D02*
X111860000Y-164109000D01*
X109320000Y-160261000D02*
X109320000Y-164109000D01*
X97490000Y-148431000D02*
X109320000Y-160261000D01*
X97490000Y-136945000D02*
X97490000Y-148431000D01*
X106780000Y-164109000D02*
X106780000Y-160261000D01*
X97490000Y-125729400D02*
X97490000Y-117895000D01*
X92596000Y-130623400D02*
X97490000Y-125729400D01*
X92596000Y-146077000D02*
X92596000Y-130623400D01*
X106780000Y-160261000D02*
X92596000Y-146077000D01*
X81500000Y-111320000D02*
X86580000Y-111320000D01*
X132300000Y-113860000D02*
X138205000Y-113860000D01*
X129760000Y-111320000D02*
X132300000Y-113860000D01*
X81500000Y-108780000D02*
X81600000Y-108880000D01*
D20*
X65966353Y-95685000D02*
X162033647Y-95685000D01*
X162127955Y-95675711D01*
X162259659Y-95688625D01*
X162509429Y-95764035D01*
X162739792Y-95886522D01*
X162941980Y-96051422D01*
X163108286Y-96252450D01*
X163232378Y-96481954D01*
X163309531Y-96731195D01*
X163324311Y-96871819D01*
X163315000Y-96966354D01*
X163315001Y-168033647D01*
X163324289Y-168127950D01*
X163311375Y-168259660D01*
X163235965Y-168509429D01*
X163113477Y-168739794D01*
X162948579Y-168941979D01*
X162747546Y-169108288D01*
X162518046Y-169232378D01*
X162268805Y-169309531D01*
X162128181Y-169324311D01*
X162033647Y-169315000D01*
X65966353Y-169315000D01*
X65872045Y-169324289D01*
X65740340Y-169311375D01*
X65490571Y-169235965D01*
X65260206Y-169113477D01*
X65058021Y-168948579D01*
X64891712Y-168747546D01*
X64767622Y-168518046D01*
X64690469Y-168268805D01*
X64675689Y-168128181D01*
X64685000Y-168033647D01*
X64685000Y-163622285D01*
X66165000Y-163622285D01*
X66165000Y-164377715D01*
X66312377Y-165118628D01*
X66601467Y-165816554D01*
X67021161Y-166444670D01*
X67555330Y-166978839D01*
X68183446Y-167398533D01*
X68881372Y-167687623D01*
X69622285Y-167835000D01*
X70377715Y-167835000D01*
X71118628Y-167687623D01*
X71816554Y-167398533D01*
X72444670Y-166978839D01*
X72978839Y-166444670D01*
X73398533Y-165816554D01*
X73687623Y-165118628D01*
X73835000Y-164377715D01*
X73835000Y-163622285D01*
X73687623Y-162881372D01*
X73398533Y-162183446D01*
X72978839Y-161555330D01*
X72444670Y-161021161D01*
X71816554Y-160601467D01*
X71118628Y-160312377D01*
X70377715Y-160165000D01*
X69622285Y-160165000D01*
X68881372Y-160312377D01*
X68183446Y-160601467D01*
X67555330Y-161021161D01*
X67021161Y-161555330D01*
X66601467Y-162183446D01*
X66312377Y-162881372D01*
X66165000Y-163622285D01*
X64685000Y-163622285D01*
X64685000Y-144187259D01*
X66740000Y-144187259D01*
X66740000Y-144612741D01*
X66823008Y-145030049D01*
X66985833Y-145423144D01*
X67222219Y-145776920D01*
X67523080Y-146077781D01*
X67876856Y-146314167D01*
X68269951Y-146476992D01*
X68687259Y-146560000D01*
X69112741Y-146560000D01*
X69530049Y-146476992D01*
X69923144Y-146314167D01*
X70276920Y-146077781D01*
X70577781Y-145776920D01*
X70814167Y-145423144D01*
X70976992Y-145030049D01*
X71060000Y-144612741D01*
X71060000Y-144187259D01*
X71050695Y-144140475D01*
X81505000Y-144140475D01*
X81505000Y-144659525D01*
X81606261Y-145168601D01*
X81804893Y-145648141D01*
X82093262Y-146079715D01*
X82460285Y-146446738D01*
X82891859Y-146735107D01*
X83371399Y-146933739D01*
X83880475Y-147035000D01*
X84399525Y-147035000D01*
X84908601Y-146933739D01*
X85388141Y-146735107D01*
X85819715Y-146446738D01*
X86186738Y-146079715D01*
X86475107Y-145648141D01*
X86673739Y-145168601D01*
X86775000Y-144659525D01*
X86775000Y-144140475D01*
X86673739Y-143631399D01*
X86475107Y-143151859D01*
X86186738Y-142720285D01*
X85819715Y-142353262D01*
X85388141Y-142064893D01*
X84908601Y-141866261D01*
X84399525Y-141765000D01*
X83880475Y-141765000D01*
X83371399Y-141866261D01*
X82891859Y-142064893D01*
X82460285Y-142353262D01*
X82093262Y-142720285D01*
X81804893Y-143151859D01*
X81606261Y-143631399D01*
X81505000Y-144140475D01*
X71050695Y-144140475D01*
X70976992Y-143769951D01*
X70814167Y-143376856D01*
X70577781Y-143023080D01*
X70276920Y-142722219D01*
X69923144Y-142485833D01*
X69530049Y-142323008D01*
X69112741Y-142240000D01*
X68687259Y-142240000D01*
X68269951Y-142323008D01*
X67876856Y-142485833D01*
X67523080Y-142722219D01*
X67222219Y-143023080D01*
X66985833Y-143376856D01*
X66823008Y-143769951D01*
X66740000Y-144187259D01*
X64685000Y-144187259D01*
X64685000Y-132353740D01*
X69335000Y-132353740D01*
X69335000Y-132646260D01*
X69392068Y-132933158D01*
X69504010Y-133203411D01*
X69666525Y-133446632D01*
X69873368Y-133653475D01*
X70116589Y-133815990D01*
X70386842Y-133927932D01*
X70673740Y-133985000D01*
X70966260Y-133985000D01*
X71253158Y-133927932D01*
X71523411Y-133815990D01*
X71766632Y-133653475D01*
X71973475Y-133446632D01*
X72135990Y-133203411D01*
X72247932Y-132933158D01*
X72305000Y-132646260D01*
X72305000Y-132353740D01*
X72282471Y-132240475D01*
X73265000Y-132240475D01*
X73265000Y-132759525D01*
X73366261Y-133268601D01*
X73564893Y-133748141D01*
X73853262Y-134179715D01*
X74220285Y-134546738D01*
X74651859Y-134835107D01*
X75131399Y-135033739D01*
X75640475Y-135135000D01*
X76159525Y-135135000D01*
X76668601Y-135033739D01*
X77148141Y-134835107D01*
X77579715Y-134546738D01*
X77946738Y-134179715D01*
X78235107Y-133748141D01*
X78433739Y-133268601D01*
X78535000Y-132759525D01*
X78535000Y-132240475D01*
X78433739Y-131731399D01*
X78235107Y-131251859D01*
X77946738Y-130820285D01*
X77579715Y-130453262D01*
X77148141Y-130164893D01*
X76668601Y-129966261D01*
X76159525Y-129865000D01*
X75640475Y-129865000D01*
X75131399Y-129966261D01*
X74651859Y-130164893D01*
X74220285Y-130453262D01*
X73853262Y-130820285D01*
X73564893Y-131251859D01*
X73366261Y-131731399D01*
X73265000Y-132240475D01*
X72282471Y-132240475D01*
X72247932Y-132066842D01*
X72135990Y-131796589D01*
X72069650Y-131697304D01*
X72148639Y-131702409D01*
X72487439Y-131657489D01*
X72810966Y-131547336D01*
X73009274Y-131441338D01*
X73117107Y-131166712D01*
X72090000Y-130139605D01*
X72075858Y-130153748D01*
X71896253Y-129974143D01*
X71910395Y-129960000D01*
X72269605Y-129960000D01*
X73296712Y-130987107D01*
X73571338Y-130879274D01*
X73722216Y-130572616D01*
X73810369Y-130242415D01*
X73832409Y-129901361D01*
X73787489Y-129562561D01*
X73677336Y-129239034D01*
X73571338Y-129040726D01*
X73296712Y-128932893D01*
X72269605Y-129960000D01*
X71910395Y-129960000D01*
X70883288Y-128932893D01*
X70608662Y-129040726D01*
X70457784Y-129347384D01*
X70369631Y-129677585D01*
X70347591Y-130018639D01*
X70392511Y-130357439D01*
X70502664Y-130680966D01*
X70608662Y-130879274D01*
X70883286Y-130987106D01*
X70855392Y-131015000D01*
X70673740Y-131015000D01*
X70386842Y-131072068D01*
X70116589Y-131184010D01*
X69873368Y-131346525D01*
X69666525Y-131553368D01*
X69504010Y-131796589D01*
X69392068Y-132066842D01*
X69335000Y-132353740D01*
X64685000Y-132353740D01*
X64685000Y-128753288D01*
X71062893Y-128753288D01*
X72090000Y-129780395D01*
X73117107Y-128753288D01*
X73009274Y-128478662D01*
X72702616Y-128327784D01*
X72372415Y-128239631D01*
X72031361Y-128217591D01*
X71692561Y-128262511D01*
X71369034Y-128372664D01*
X71170726Y-128478662D01*
X71062893Y-128753288D01*
X64685000Y-128753288D01*
X64685000Y-127249117D01*
X76705000Y-127249117D01*
X76705000Y-127590883D01*
X76771675Y-127926081D01*
X76902463Y-128241831D01*
X77092337Y-128525998D01*
X77334002Y-128767663D01*
X77618169Y-128957537D01*
X77933919Y-129088325D01*
X78269117Y-129155000D01*
X78610883Y-129155000D01*
X78946081Y-129088325D01*
X79031312Y-129053021D01*
X80993291Y-131015000D01*
X80833740Y-131015000D01*
X80546842Y-131072068D01*
X80276589Y-131184010D01*
X80033368Y-131346525D01*
X79826525Y-131553368D01*
X79664010Y-131796589D01*
X79552068Y-132066842D01*
X79495000Y-132353740D01*
X79495000Y-132646260D01*
X79552068Y-132933158D01*
X79664010Y-133203411D01*
X79826525Y-133446632D01*
X80033368Y-133653475D01*
X80276589Y-133815990D01*
X80546842Y-133927932D01*
X80833740Y-133985000D01*
X81126260Y-133985000D01*
X81413158Y-133927932D01*
X81683411Y-133815990D01*
X81926632Y-133653475D01*
X82133475Y-133446632D01*
X82295990Y-133203411D01*
X82407932Y-132933158D01*
X82465000Y-132646260D01*
X82465000Y-132486709D01*
X86973400Y-136995110D01*
X86973401Y-146793807D01*
X86969836Y-146830000D01*
X86979265Y-146925729D01*
X86984059Y-146974399D01*
X87026179Y-147113249D01*
X87094577Y-147241213D01*
X87186626Y-147353375D01*
X87214732Y-147376441D01*
X105592132Y-165753841D01*
X105464010Y-165945589D01*
X105352068Y-166215842D01*
X105295000Y-166502740D01*
X105295000Y-166795260D01*
X105352068Y-167082158D01*
X105464010Y-167352411D01*
X105626525Y-167595632D01*
X105833368Y-167802475D01*
X106076589Y-167964990D01*
X106346842Y-168076932D01*
X106633740Y-168134000D01*
X106926260Y-168134000D01*
X107213158Y-168076932D01*
X107483411Y-167964990D01*
X107726632Y-167802475D01*
X107933475Y-167595632D01*
X108050000Y-167421240D01*
X108166525Y-167595632D01*
X108373368Y-167802475D01*
X108616589Y-167964990D01*
X108886842Y-168076932D01*
X109173740Y-168134000D01*
X109466260Y-168134000D01*
X109753158Y-168076932D01*
X110023411Y-167964990D01*
X110266632Y-167802475D01*
X110473475Y-167595632D01*
X110590000Y-167421240D01*
X110706525Y-167595632D01*
X110913368Y-167802475D01*
X111156589Y-167964990D01*
X111426842Y-168076932D01*
X111713740Y-168134000D01*
X112006260Y-168134000D01*
X112293158Y-168076932D01*
X112563411Y-167964990D01*
X112806632Y-167802475D01*
X113013475Y-167595632D01*
X113130000Y-167421240D01*
X113246525Y-167595632D01*
X113453368Y-167802475D01*
X113696589Y-167964990D01*
X113966842Y-168076932D01*
X114253740Y-168134000D01*
X114546260Y-168134000D01*
X114833158Y-168076932D01*
X115103411Y-167964990D01*
X115346632Y-167802475D01*
X115553475Y-167595632D01*
X115670000Y-167421240D01*
X115786525Y-167595632D01*
X115993368Y-167802475D01*
X116236589Y-167964990D01*
X116506842Y-168076932D01*
X116793740Y-168134000D01*
X117086260Y-168134000D01*
X117373158Y-168076932D01*
X117643411Y-167964990D01*
X117886632Y-167802475D01*
X118093475Y-167595632D01*
X118210000Y-167421240D01*
X118326525Y-167595632D01*
X118533368Y-167802475D01*
X118776589Y-167964990D01*
X119046842Y-168076932D01*
X119333740Y-168134000D01*
X119626260Y-168134000D01*
X119913158Y-168076932D01*
X120183411Y-167964990D01*
X120426632Y-167802475D01*
X120633475Y-167595632D01*
X120750000Y-167421240D01*
X120866525Y-167595632D01*
X121073368Y-167802475D01*
X121316589Y-167964990D01*
X121586842Y-168076932D01*
X121873740Y-168134000D01*
X122166260Y-168134000D01*
X122453158Y-168076932D01*
X122723411Y-167964990D01*
X122966632Y-167802475D01*
X123173475Y-167595632D01*
X123290000Y-167421240D01*
X123406525Y-167595632D01*
X123613368Y-167802475D01*
X123856589Y-167964990D01*
X124126842Y-168076932D01*
X124413740Y-168134000D01*
X124706260Y-168134000D01*
X124993158Y-168076932D01*
X125263411Y-167964990D01*
X125506632Y-167802475D01*
X125713475Y-167595632D01*
X125830000Y-167421240D01*
X125946525Y-167595632D01*
X126153368Y-167802475D01*
X126396589Y-167964990D01*
X126666842Y-168076932D01*
X126953740Y-168134000D01*
X127246260Y-168134000D01*
X127533158Y-168076932D01*
X127803411Y-167964990D01*
X128046632Y-167802475D01*
X128253475Y-167595632D01*
X128370000Y-167421240D01*
X128486525Y-167595632D01*
X128693368Y-167802475D01*
X128936589Y-167964990D01*
X129206842Y-168076932D01*
X129493740Y-168134000D01*
X129786260Y-168134000D01*
X130073158Y-168076932D01*
X130343411Y-167964990D01*
X130493197Y-167864906D01*
X131063554Y-168435263D01*
X131086625Y-168463375D01*
X131198787Y-168555424D01*
X131326751Y-168623822D01*
X131465601Y-168665942D01*
X131573814Y-168676600D01*
X131573823Y-168676600D01*
X131609999Y-168680163D01*
X131646175Y-168676600D01*
X135263817Y-168676600D01*
X135300000Y-168680164D01*
X135336183Y-168676600D01*
X135336186Y-168676600D01*
X135444399Y-168665942D01*
X135583249Y-168623822D01*
X135711213Y-168555424D01*
X135823375Y-168463375D01*
X135846445Y-168435264D01*
X136412798Y-167868912D01*
X136556589Y-167964990D01*
X136826842Y-168076932D01*
X137113740Y-168134000D01*
X137406260Y-168134000D01*
X137693158Y-168076932D01*
X137963411Y-167964990D01*
X138206632Y-167802475D01*
X138413475Y-167595632D01*
X138575990Y-167352411D01*
X138687932Y-167082158D01*
X138745000Y-166795260D01*
X138745000Y-166502740D01*
X138687932Y-166215842D01*
X138575990Y-165945589D01*
X138413475Y-165702368D01*
X138281620Y-165570513D01*
X138354180Y-165548502D01*
X138464494Y-165489537D01*
X138561185Y-165410185D01*
X138640537Y-165313494D01*
X138699502Y-165203180D01*
X138735812Y-165083482D01*
X138748072Y-164959000D01*
X138745000Y-164394750D01*
X138586250Y-164236000D01*
X137387000Y-164236000D01*
X137387000Y-164256000D01*
X137133000Y-164256000D01*
X137133000Y-164236000D01*
X137113000Y-164236000D01*
X137113000Y-163982000D01*
X137133000Y-163982000D01*
X137133000Y-162782750D01*
X137387000Y-162782750D01*
X137387000Y-163982000D01*
X138586250Y-163982000D01*
X138745000Y-163823250D01*
X138746094Y-163622285D01*
X154165000Y-163622285D01*
X154165000Y-164377715D01*
X154312377Y-165118628D01*
X154601467Y-165816554D01*
X155021161Y-166444670D01*
X155555330Y-166978839D01*
X156183446Y-167398533D01*
X156881372Y-167687623D01*
X157622285Y-167835000D01*
X158377715Y-167835000D01*
X159118628Y-167687623D01*
X159816554Y-167398533D01*
X160444670Y-166978839D01*
X160978839Y-166444670D01*
X161398533Y-165816554D01*
X161687623Y-165118628D01*
X161835000Y-164377715D01*
X161835000Y-163622285D01*
X161687623Y-162881372D01*
X161398533Y-162183446D01*
X160978839Y-161555330D01*
X160444670Y-161021161D01*
X159816554Y-160601467D01*
X159118628Y-160312377D01*
X158377715Y-160165000D01*
X157622285Y-160165000D01*
X156881372Y-160312377D01*
X156183446Y-160601467D01*
X155555330Y-161021161D01*
X155021161Y-161555330D01*
X154601467Y-162183446D01*
X154312377Y-162881372D01*
X154165000Y-163622285D01*
X138746094Y-163622285D01*
X138748072Y-163259000D01*
X138735812Y-163134518D01*
X138699502Y-163014820D01*
X138640537Y-162904506D01*
X138561185Y-162807815D01*
X138464494Y-162728463D01*
X138354180Y-162669498D01*
X138234482Y-162633188D01*
X138110000Y-162620928D01*
X137545750Y-162624000D01*
X137387000Y-162782750D01*
X137133000Y-162782750D01*
X136974250Y-162624000D01*
X136410000Y-162620928D01*
X136285518Y-162633188D01*
X136165820Y-162669498D01*
X136143264Y-162681554D01*
X126566600Y-153104891D01*
X126566600Y-142517384D01*
X126654010Y-142728411D01*
X126816525Y-142971632D01*
X127023368Y-143178475D01*
X127266589Y-143340990D01*
X127536842Y-143452932D01*
X127823740Y-143510000D01*
X128116260Y-143510000D01*
X128403158Y-143452932D01*
X128673411Y-143340990D01*
X128916632Y-143178475D01*
X129123475Y-142971632D01*
X129285990Y-142728411D01*
X129397932Y-142458158D01*
X129455000Y-142171260D01*
X129455000Y-141878740D01*
X129432471Y-141765475D01*
X130415000Y-141765475D01*
X130415000Y-142284525D01*
X130516261Y-142793601D01*
X130714893Y-143273141D01*
X131003262Y-143704715D01*
X131370285Y-144071738D01*
X131801859Y-144360107D01*
X132281399Y-144558739D01*
X132790475Y-144660000D01*
X133309525Y-144660000D01*
X133818601Y-144558739D01*
X134298141Y-144360107D01*
X134729715Y-144071738D01*
X135096738Y-143704715D01*
X135385107Y-143273141D01*
X135583739Y-142793601D01*
X135685000Y-142284525D01*
X135685000Y-141878740D01*
X136645000Y-141878740D01*
X136645000Y-142171260D01*
X136702068Y-142458158D01*
X136814010Y-142728411D01*
X136976525Y-142971632D01*
X137183368Y-143178475D01*
X137426589Y-143340990D01*
X137696842Y-143452932D01*
X137983740Y-143510000D01*
X138276260Y-143510000D01*
X138563158Y-143452932D01*
X138833411Y-143340990D01*
X139076632Y-143178475D01*
X139283475Y-142971632D01*
X139445990Y-142728411D01*
X139557932Y-142458158D01*
X139615000Y-142171260D01*
X139615000Y-141878740D01*
X145535000Y-141878740D01*
X145535000Y-142171260D01*
X145592068Y-142458158D01*
X145704010Y-142728411D01*
X145866525Y-142971632D01*
X146073368Y-143178475D01*
X146316589Y-143340990D01*
X146586842Y-143452932D01*
X146873740Y-143510000D01*
X147166260Y-143510000D01*
X147453158Y-143452932D01*
X147723411Y-143340990D01*
X147966632Y-143178475D01*
X148173475Y-142971632D01*
X148335990Y-142728411D01*
X148447932Y-142458158D01*
X148505000Y-142171260D01*
X148505000Y-141878740D01*
X148482471Y-141765475D01*
X149465000Y-141765475D01*
X149465000Y-142284525D01*
X149566261Y-142793601D01*
X149764893Y-143273141D01*
X150053262Y-143704715D01*
X150420285Y-144071738D01*
X150851859Y-144360107D01*
X151331399Y-144558739D01*
X151840475Y-144660000D01*
X152359525Y-144660000D01*
X152868601Y-144558739D01*
X153348141Y-144360107D01*
X153779715Y-144071738D01*
X154146738Y-143704715D01*
X154435107Y-143273141D01*
X154633739Y-142793601D01*
X154735000Y-142284525D01*
X154735000Y-141878740D01*
X155695000Y-141878740D01*
X155695000Y-142171260D01*
X155752068Y-142458158D01*
X155864010Y-142728411D01*
X156026525Y-142971632D01*
X156233368Y-143178475D01*
X156476589Y-143340990D01*
X156746842Y-143452932D01*
X157033740Y-143510000D01*
X157326260Y-143510000D01*
X157613158Y-143452932D01*
X157883411Y-143340990D01*
X158126632Y-143178475D01*
X158333475Y-142971632D01*
X158495990Y-142728411D01*
X158607932Y-142458158D01*
X158665000Y-142171260D01*
X158665000Y-141878740D01*
X158607932Y-141591842D01*
X158495990Y-141321589D01*
X158333475Y-141078368D01*
X158126632Y-140871525D01*
X157883411Y-140709010D01*
X157613158Y-140597068D01*
X157326260Y-140540000D01*
X157033740Y-140540000D01*
X156746842Y-140597068D01*
X156476589Y-140709010D01*
X156233368Y-140871525D01*
X156026525Y-141078368D01*
X155864010Y-141321589D01*
X155752068Y-141591842D01*
X155695000Y-141878740D01*
X154735000Y-141878740D01*
X154735000Y-141765475D01*
X154633739Y-141256399D01*
X154435107Y-140776859D01*
X154146738Y-140345285D01*
X153779715Y-139978262D01*
X153348141Y-139689893D01*
X152868601Y-139491261D01*
X152359525Y-139390000D01*
X151840475Y-139390000D01*
X151331399Y-139491261D01*
X150851859Y-139689893D01*
X150420285Y-139978262D01*
X150053262Y-140345285D01*
X149764893Y-140776859D01*
X149566261Y-141256399D01*
X149465000Y-141765475D01*
X148482471Y-141765475D01*
X148447932Y-141591842D01*
X148335990Y-141321589D01*
X148269650Y-141222304D01*
X148348639Y-141227409D01*
X148687439Y-141182489D01*
X149010966Y-141072336D01*
X149209274Y-140966338D01*
X149317107Y-140691712D01*
X148290000Y-139664605D01*
X148275858Y-139678748D01*
X148096253Y-139499143D01*
X148110395Y-139485000D01*
X148469605Y-139485000D01*
X149496712Y-140512107D01*
X149771338Y-140404274D01*
X149922216Y-140097616D01*
X150010369Y-139767415D01*
X150032409Y-139426361D01*
X149987489Y-139087561D01*
X149877336Y-138764034D01*
X149771338Y-138565726D01*
X149496712Y-138457893D01*
X148469605Y-139485000D01*
X148110395Y-139485000D01*
X147083288Y-138457893D01*
X146808662Y-138565726D01*
X146657784Y-138872384D01*
X146569631Y-139202585D01*
X146547591Y-139543639D01*
X146592511Y-139882439D01*
X146702664Y-140205966D01*
X146808662Y-140404274D01*
X147083286Y-140512106D01*
X147055392Y-140540000D01*
X146873740Y-140540000D01*
X146586842Y-140597068D01*
X146316589Y-140709010D01*
X146073368Y-140871525D01*
X145866525Y-141078368D01*
X145704010Y-141321589D01*
X145592068Y-141591842D01*
X145535000Y-141878740D01*
X139615000Y-141878740D01*
X139557932Y-141591842D01*
X139445990Y-141321589D01*
X139283475Y-141078368D01*
X139076632Y-140871525D01*
X138833411Y-140709010D01*
X138563158Y-140597068D01*
X138276260Y-140540000D01*
X137983740Y-140540000D01*
X137696842Y-140597068D01*
X137426589Y-140709010D01*
X137183368Y-140871525D01*
X136976525Y-141078368D01*
X136814010Y-141321589D01*
X136702068Y-141591842D01*
X136645000Y-141878740D01*
X135685000Y-141878740D01*
X135685000Y-141765475D01*
X135583739Y-141256399D01*
X135385107Y-140776859D01*
X135096738Y-140345285D01*
X134729715Y-139978262D01*
X134298141Y-139689893D01*
X133818601Y-139491261D01*
X133309525Y-139390000D01*
X132790475Y-139390000D01*
X132281399Y-139491261D01*
X131801859Y-139689893D01*
X131370285Y-139978262D01*
X131003262Y-140345285D01*
X130714893Y-140776859D01*
X130516261Y-141256399D01*
X130415000Y-141765475D01*
X129432471Y-141765475D01*
X129397932Y-141591842D01*
X129285990Y-141321589D01*
X129219650Y-141222304D01*
X129298639Y-141227409D01*
X129637439Y-141182489D01*
X129960966Y-141072336D01*
X130159274Y-140966338D01*
X130267107Y-140691712D01*
X129240000Y-139664605D01*
X129225858Y-139678748D01*
X129046253Y-139499143D01*
X129060395Y-139485000D01*
X129419605Y-139485000D01*
X130446712Y-140512107D01*
X130721338Y-140404274D01*
X130872216Y-140097616D01*
X130960369Y-139767415D01*
X130982409Y-139426361D01*
X130937489Y-139087561D01*
X130827336Y-138764034D01*
X130721338Y-138565726D01*
X130446712Y-138457893D01*
X129419605Y-139485000D01*
X129060395Y-139485000D01*
X128033288Y-138457893D01*
X127758662Y-138565726D01*
X127607784Y-138872384D01*
X127519631Y-139202585D01*
X127497591Y-139543639D01*
X127542511Y-139882439D01*
X127652664Y-140205966D01*
X127758662Y-140404274D01*
X128033286Y-140512106D01*
X128005392Y-140540000D01*
X127823740Y-140540000D01*
X127536842Y-140597068D01*
X127266589Y-140709010D01*
X127023368Y-140871525D01*
X126816525Y-141078368D01*
X126654010Y-141321589D01*
X126566600Y-141532616D01*
X126566600Y-138278288D01*
X128212893Y-138278288D01*
X129240000Y-139305395D01*
X130267107Y-138278288D01*
X130159274Y-138003662D01*
X129852616Y-137852784D01*
X129522415Y-137764631D01*
X129181361Y-137742591D01*
X128842561Y-137787511D01*
X128519034Y-137897664D01*
X128320726Y-138003662D01*
X128212893Y-138278288D01*
X126566600Y-138278288D01*
X126566600Y-136774117D01*
X133855000Y-136774117D01*
X133855000Y-137115883D01*
X133921675Y-137451081D01*
X134052463Y-137766831D01*
X134242337Y-138050998D01*
X134484002Y-138292663D01*
X134768169Y-138482537D01*
X135083919Y-138613325D01*
X135419117Y-138680000D01*
X135760883Y-138680000D01*
X136096081Y-138613325D01*
X136411831Y-138482537D01*
X136695998Y-138292663D01*
X136710373Y-138278288D01*
X147262893Y-138278288D01*
X148290000Y-139305395D01*
X149317107Y-138278288D01*
X149209274Y-138003662D01*
X148902616Y-137852784D01*
X148572415Y-137764631D01*
X148231361Y-137742591D01*
X147892561Y-137787511D01*
X147569034Y-137897664D01*
X147370726Y-138003662D01*
X147262893Y-138278288D01*
X136710373Y-138278288D01*
X136937663Y-138050998D01*
X137127537Y-137766831D01*
X137258325Y-137451081D01*
X137325000Y-137115883D01*
X137325000Y-136774117D01*
X152905000Y-136774117D01*
X152905000Y-137115883D01*
X152971675Y-137451081D01*
X153102463Y-137766831D01*
X153292337Y-138050998D01*
X153534002Y-138292663D01*
X153818169Y-138482537D01*
X154133919Y-138613325D01*
X154469117Y-138680000D01*
X154810883Y-138680000D01*
X155146081Y-138613325D01*
X155461831Y-138482537D01*
X155745998Y-138292663D01*
X155987663Y-138050998D01*
X156177537Y-137766831D01*
X156308325Y-137451081D01*
X156375000Y-137115883D01*
X156375000Y-136774117D01*
X156308325Y-136438919D01*
X156177537Y-136123169D01*
X155987663Y-135839002D01*
X155745998Y-135597337D01*
X155461831Y-135407463D01*
X155146081Y-135276675D01*
X154810883Y-135210000D01*
X154469117Y-135210000D01*
X154133919Y-135276675D01*
X153818169Y-135407463D01*
X153534002Y-135597337D01*
X153292337Y-135839002D01*
X153102463Y-136123169D01*
X152971675Y-136438919D01*
X152905000Y-136774117D01*
X137325000Y-136774117D01*
X137258325Y-136438919D01*
X137127537Y-136123169D01*
X136937663Y-135839002D01*
X136695998Y-135597337D01*
X136411831Y-135407463D01*
X136096081Y-135276675D01*
X135760883Y-135210000D01*
X135419117Y-135210000D01*
X135083919Y-135276675D01*
X134768169Y-135407463D01*
X134484002Y-135597337D01*
X134242337Y-135839002D01*
X134052463Y-136123169D01*
X133921675Y-136438919D01*
X133855000Y-136774117D01*
X126566600Y-136774117D01*
X126566600Y-123467384D01*
X126654010Y-123678411D01*
X126816525Y-123921632D01*
X127023368Y-124128475D01*
X127266589Y-124290990D01*
X127536842Y-124402932D01*
X127823740Y-124460000D01*
X128116260Y-124460000D01*
X128403158Y-124402932D01*
X128673411Y-124290990D01*
X128916632Y-124128475D01*
X129123475Y-123921632D01*
X129285990Y-123678411D01*
X129397932Y-123408158D01*
X129455000Y-123121260D01*
X129455000Y-122828740D01*
X129432471Y-122715475D01*
X130415000Y-122715475D01*
X130415000Y-123234525D01*
X130516261Y-123743601D01*
X130714893Y-124223141D01*
X131003262Y-124654715D01*
X131370285Y-125021738D01*
X131801859Y-125310107D01*
X132281399Y-125508739D01*
X132790475Y-125610000D01*
X133309525Y-125610000D01*
X133818601Y-125508739D01*
X134298141Y-125310107D01*
X134729715Y-125021738D01*
X135096738Y-124654715D01*
X135385107Y-124223141D01*
X135583739Y-123743601D01*
X135685000Y-123234525D01*
X135685000Y-122828740D01*
X136645000Y-122828740D01*
X136645000Y-123121260D01*
X136702068Y-123408158D01*
X136814010Y-123678411D01*
X136976525Y-123921632D01*
X137183368Y-124128475D01*
X137426589Y-124290990D01*
X137696842Y-124402932D01*
X137983740Y-124460000D01*
X138276260Y-124460000D01*
X138563158Y-124402932D01*
X138833411Y-124290990D01*
X139076632Y-124128475D01*
X139283475Y-123921632D01*
X139445990Y-123678411D01*
X139557932Y-123408158D01*
X139615000Y-123121260D01*
X139615000Y-122828740D01*
X145535000Y-122828740D01*
X145535000Y-123121260D01*
X145592068Y-123408158D01*
X145704010Y-123678411D01*
X145866525Y-123921632D01*
X146073368Y-124128475D01*
X146316589Y-124290990D01*
X146586842Y-124402932D01*
X146873740Y-124460000D01*
X147166260Y-124460000D01*
X147453158Y-124402932D01*
X147723411Y-124290990D01*
X147966632Y-124128475D01*
X148173475Y-123921632D01*
X148335990Y-123678411D01*
X148447932Y-123408158D01*
X148505000Y-123121260D01*
X148505000Y-122828740D01*
X148482471Y-122715475D01*
X149465000Y-122715475D01*
X149465000Y-123234525D01*
X149566261Y-123743601D01*
X149764893Y-124223141D01*
X150053262Y-124654715D01*
X150420285Y-125021738D01*
X150851859Y-125310107D01*
X151331399Y-125508739D01*
X151840475Y-125610000D01*
X152359525Y-125610000D01*
X152868601Y-125508739D01*
X153348141Y-125310107D01*
X153779715Y-125021738D01*
X154146738Y-124654715D01*
X154435107Y-124223141D01*
X154633739Y-123743601D01*
X154735000Y-123234525D01*
X154735000Y-122828740D01*
X155695000Y-122828740D01*
X155695000Y-123121260D01*
X155752068Y-123408158D01*
X155864010Y-123678411D01*
X156026525Y-123921632D01*
X156233368Y-124128475D01*
X156476589Y-124290990D01*
X156746842Y-124402932D01*
X157033740Y-124460000D01*
X157326260Y-124460000D01*
X157613158Y-124402932D01*
X157883411Y-124290990D01*
X158126632Y-124128475D01*
X158333475Y-123921632D01*
X158495990Y-123678411D01*
X158607932Y-123408158D01*
X158665000Y-123121260D01*
X158665000Y-122828740D01*
X158607932Y-122541842D01*
X158495990Y-122271589D01*
X158333475Y-122028368D01*
X158126632Y-121821525D01*
X157883411Y-121659010D01*
X157613158Y-121547068D01*
X157326260Y-121490000D01*
X157033740Y-121490000D01*
X156746842Y-121547068D01*
X156476589Y-121659010D01*
X156233368Y-121821525D01*
X156026525Y-122028368D01*
X155864010Y-122271589D01*
X155752068Y-122541842D01*
X155695000Y-122828740D01*
X154735000Y-122828740D01*
X154735000Y-122715475D01*
X154633739Y-122206399D01*
X154435107Y-121726859D01*
X154146738Y-121295285D01*
X153779715Y-120928262D01*
X153348141Y-120639893D01*
X152868601Y-120441261D01*
X152359525Y-120340000D01*
X151840475Y-120340000D01*
X151331399Y-120441261D01*
X150851859Y-120639893D01*
X150420285Y-120928262D01*
X150053262Y-121295285D01*
X149764893Y-121726859D01*
X149566261Y-122206399D01*
X149465000Y-122715475D01*
X148482471Y-122715475D01*
X148447932Y-122541842D01*
X148335990Y-122271589D01*
X148269650Y-122172304D01*
X148348639Y-122177409D01*
X148687439Y-122132489D01*
X149010966Y-122022336D01*
X149209274Y-121916338D01*
X149317107Y-121641712D01*
X148290000Y-120614605D01*
X148275858Y-120628748D01*
X148096253Y-120449143D01*
X148110395Y-120435000D01*
X148469605Y-120435000D01*
X149496712Y-121462107D01*
X149771338Y-121354274D01*
X149922216Y-121047616D01*
X150010369Y-120717415D01*
X150032409Y-120376361D01*
X149987489Y-120037561D01*
X149877336Y-119714034D01*
X149771338Y-119515726D01*
X149496712Y-119407893D01*
X148469605Y-120435000D01*
X148110395Y-120435000D01*
X147083288Y-119407893D01*
X146808662Y-119515726D01*
X146657784Y-119822384D01*
X146569631Y-120152585D01*
X146547591Y-120493639D01*
X146592511Y-120832439D01*
X146702664Y-121155966D01*
X146808662Y-121354274D01*
X147083286Y-121462106D01*
X147055392Y-121490000D01*
X146873740Y-121490000D01*
X146586842Y-121547068D01*
X146316589Y-121659010D01*
X146073368Y-121821525D01*
X145866525Y-122028368D01*
X145704010Y-122271589D01*
X145592068Y-122541842D01*
X145535000Y-122828740D01*
X139615000Y-122828740D01*
X139557932Y-122541842D01*
X139445990Y-122271589D01*
X139283475Y-122028368D01*
X139076632Y-121821525D01*
X138833411Y-121659010D01*
X138563158Y-121547068D01*
X138276260Y-121490000D01*
X137983740Y-121490000D01*
X137696842Y-121547068D01*
X137426589Y-121659010D01*
X137183368Y-121821525D01*
X136976525Y-122028368D01*
X136814010Y-122271589D01*
X136702068Y-122541842D01*
X136645000Y-122828740D01*
X135685000Y-122828740D01*
X135685000Y-122715475D01*
X135583739Y-122206399D01*
X135385107Y-121726859D01*
X135096738Y-121295285D01*
X134729715Y-120928262D01*
X134298141Y-120639893D01*
X133818601Y-120441261D01*
X133309525Y-120340000D01*
X132790475Y-120340000D01*
X132281399Y-120441261D01*
X131801859Y-120639893D01*
X131370285Y-120928262D01*
X131003262Y-121295285D01*
X130714893Y-121726859D01*
X130516261Y-122206399D01*
X130415000Y-122715475D01*
X129432471Y-122715475D01*
X129397932Y-122541842D01*
X129285990Y-122271589D01*
X129219650Y-122172304D01*
X129298639Y-122177409D01*
X129637439Y-122132489D01*
X129960966Y-122022336D01*
X130159274Y-121916338D01*
X130267107Y-121641712D01*
X129240000Y-120614605D01*
X129225858Y-120628748D01*
X129046253Y-120449143D01*
X129060395Y-120435000D01*
X129419605Y-120435000D01*
X130446712Y-121462107D01*
X130721338Y-121354274D01*
X130872216Y-121047616D01*
X130960369Y-120717415D01*
X130982409Y-120376361D01*
X130937489Y-120037561D01*
X130827336Y-119714034D01*
X130721338Y-119515726D01*
X130446712Y-119407893D01*
X129419605Y-120435000D01*
X129060395Y-120435000D01*
X128033288Y-119407893D01*
X127758662Y-119515726D01*
X127607784Y-119822384D01*
X127519631Y-120152585D01*
X127497591Y-120493639D01*
X127542511Y-120832439D01*
X127652664Y-121155966D01*
X127758662Y-121354274D01*
X128033286Y-121462106D01*
X128005392Y-121490000D01*
X127823740Y-121490000D01*
X127536842Y-121547068D01*
X127266589Y-121659010D01*
X127023368Y-121821525D01*
X126816525Y-122028368D01*
X126654010Y-122271589D01*
X126566600Y-122482616D01*
X126566600Y-119491186D01*
X126570164Y-119455000D01*
X126555942Y-119310601D01*
X126530972Y-119228288D01*
X128212893Y-119228288D01*
X129240000Y-120255395D01*
X130267107Y-119228288D01*
X130159274Y-118953662D01*
X129852616Y-118802784D01*
X129522415Y-118714631D01*
X129181361Y-118692591D01*
X128842561Y-118737511D01*
X128519034Y-118847664D01*
X128320726Y-118953662D01*
X128212893Y-119228288D01*
X126530972Y-119228288D01*
X126513822Y-119171751D01*
X126445424Y-119043787D01*
X126353375Y-118931625D01*
X126325269Y-118908559D01*
X125140827Y-117724117D01*
X133855000Y-117724117D01*
X133855000Y-118065883D01*
X133921675Y-118401081D01*
X134052463Y-118716831D01*
X134242337Y-119000998D01*
X134484002Y-119242663D01*
X134768169Y-119432537D01*
X135083919Y-119563325D01*
X135419117Y-119630000D01*
X135760883Y-119630000D01*
X136096081Y-119563325D01*
X136411831Y-119432537D01*
X136695998Y-119242663D01*
X136710373Y-119228288D01*
X147262893Y-119228288D01*
X148290000Y-120255395D01*
X149317107Y-119228288D01*
X149209274Y-118953662D01*
X148902616Y-118802784D01*
X148572415Y-118714631D01*
X148231361Y-118692591D01*
X147892561Y-118737511D01*
X147569034Y-118847664D01*
X147370726Y-118953662D01*
X147262893Y-119228288D01*
X136710373Y-119228288D01*
X136937663Y-119000998D01*
X137127537Y-118716831D01*
X137258325Y-118401081D01*
X137325000Y-118065883D01*
X137325000Y-117724117D01*
X152905000Y-117724117D01*
X152905000Y-118065883D01*
X152971675Y-118401081D01*
X153102463Y-118716831D01*
X153292337Y-119000998D01*
X153534002Y-119242663D01*
X153818169Y-119432537D01*
X154133919Y-119563325D01*
X154469117Y-119630000D01*
X154810883Y-119630000D01*
X155146081Y-119563325D01*
X155461831Y-119432537D01*
X155745998Y-119242663D01*
X155987663Y-119000998D01*
X156177537Y-118716831D01*
X156308325Y-118401081D01*
X156375000Y-118065883D01*
X156375000Y-117724117D01*
X156308325Y-117388919D01*
X156177537Y-117073169D01*
X155987663Y-116789002D01*
X155745998Y-116547337D01*
X155461831Y-116357463D01*
X155146081Y-116226675D01*
X154810883Y-116160000D01*
X154469117Y-116160000D01*
X154133919Y-116226675D01*
X153818169Y-116357463D01*
X153534002Y-116547337D01*
X153292337Y-116789002D01*
X153102463Y-117073169D01*
X152971675Y-117388919D01*
X152905000Y-117724117D01*
X137325000Y-117724117D01*
X137258325Y-117388919D01*
X137127537Y-117073169D01*
X136937663Y-116789002D01*
X136695998Y-116547337D01*
X136411831Y-116357463D01*
X136096081Y-116226675D01*
X135760883Y-116160000D01*
X135419117Y-116160000D01*
X135083919Y-116226675D01*
X134768169Y-116357463D01*
X134484002Y-116547337D01*
X134242337Y-116789002D01*
X134052463Y-117073169D01*
X133921675Y-117388919D01*
X133855000Y-117724117D01*
X125140827Y-117724117D01*
X122233703Y-114816993D01*
X128982612Y-114816993D01*
X129048137Y-115055860D01*
X129295116Y-115171760D01*
X129559960Y-115237250D01*
X129832492Y-115249812D01*
X130102238Y-115208965D01*
X130358832Y-115116277D01*
X130471863Y-115055860D01*
X130537388Y-114816993D01*
X129760000Y-114039605D01*
X128982612Y-114816993D01*
X122233703Y-114816993D01*
X121349202Y-113932492D01*
X128370188Y-113932492D01*
X128411035Y-114202238D01*
X128503723Y-114458832D01*
X128564140Y-114571863D01*
X128803007Y-114637388D01*
X129580395Y-113860000D01*
X128803007Y-113082612D01*
X128564140Y-113148137D01*
X128448240Y-113395116D01*
X128382750Y-113659960D01*
X128370188Y-113932492D01*
X121349202Y-113932492D01*
X117315037Y-109898328D01*
X117315032Y-109898322D01*
X115446710Y-108030000D01*
X128371928Y-108030000D01*
X128371928Y-109530000D01*
X128384188Y-109654482D01*
X128420498Y-109774180D01*
X128479463Y-109884494D01*
X128558815Y-109981185D01*
X128655506Y-110060537D01*
X128765820Y-110119502D01*
X128885518Y-110155812D01*
X128993483Y-110166445D01*
X128877114Y-110244201D01*
X128684201Y-110437114D01*
X128532629Y-110663957D01*
X128428225Y-110916011D01*
X128375000Y-111183589D01*
X128375000Y-111456411D01*
X128428225Y-111723989D01*
X128532629Y-111976043D01*
X128684201Y-112202886D01*
X128877114Y-112395799D01*
X129103957Y-112547371D01*
X129203279Y-112588511D01*
X129161168Y-112603723D01*
X129048137Y-112664140D01*
X128982612Y-112903007D01*
X129760000Y-113680395D01*
X129774143Y-113666253D01*
X129953748Y-113845858D01*
X129939605Y-113860000D01*
X130716993Y-114637388D01*
X130955860Y-114571863D01*
X131071760Y-114324884D01*
X131137250Y-114060040D01*
X131149812Y-113787508D01*
X131143390Y-113745099D01*
X131753554Y-114355263D01*
X131776625Y-114383375D01*
X131888787Y-114475424D01*
X132016751Y-114543822D01*
X132155601Y-114585942D01*
X132263814Y-114596600D01*
X132263823Y-114596600D01*
X132299999Y-114600163D01*
X132336175Y-114596600D01*
X136971321Y-114596600D01*
X137090363Y-114774759D01*
X137290241Y-114974637D01*
X137525273Y-115131680D01*
X137786426Y-115239853D01*
X138063665Y-115295000D01*
X138346335Y-115295000D01*
X138623574Y-115239853D01*
X138884727Y-115131680D01*
X139119759Y-114974637D01*
X139319637Y-114774759D01*
X139476680Y-114539727D01*
X139584853Y-114278574D01*
X139640000Y-114001335D01*
X139640000Y-113718665D01*
X144390000Y-113718665D01*
X144390000Y-114001335D01*
X144445147Y-114278574D01*
X144553320Y-114539727D01*
X144710363Y-114774759D01*
X144910241Y-114974637D01*
X145145273Y-115131680D01*
X145406426Y-115239853D01*
X145683665Y-115295000D01*
X145966335Y-115295000D01*
X146243574Y-115239853D01*
X146504727Y-115131680D01*
X146739759Y-114974637D01*
X146939637Y-114774759D01*
X147096680Y-114539727D01*
X147204853Y-114278574D01*
X147260000Y-114001335D01*
X147260000Y-113718665D01*
X147204853Y-113441426D01*
X147096680Y-113180273D01*
X146939637Y-112945241D01*
X146739759Y-112745363D01*
X146504727Y-112588320D01*
X146243574Y-112480147D01*
X145966335Y-112425000D01*
X145683665Y-112425000D01*
X145406426Y-112480147D01*
X145145273Y-112588320D01*
X144910241Y-112745363D01*
X144710363Y-112945241D01*
X144553320Y-113180273D01*
X144445147Y-113441426D01*
X144390000Y-113718665D01*
X139640000Y-113718665D01*
X139584853Y-113441426D01*
X139476680Y-113180273D01*
X139319637Y-112945241D01*
X139119759Y-112745363D01*
X138884727Y-112588320D01*
X138623574Y-112480147D01*
X138346335Y-112425000D01*
X138063665Y-112425000D01*
X137786426Y-112480147D01*
X137525273Y-112588320D01*
X137290241Y-112745363D01*
X137090363Y-112945241D01*
X136971321Y-113123400D01*
X132605109Y-113123400D01*
X131110676Y-111628967D01*
X131145000Y-111456411D01*
X131145000Y-111183589D01*
X131091775Y-110916011D01*
X130987371Y-110663957D01*
X130835799Y-110437114D01*
X130642886Y-110244201D01*
X130526517Y-110166445D01*
X130634482Y-110155812D01*
X130754180Y-110119502D01*
X130864494Y-110060537D01*
X130961185Y-109981185D01*
X131040537Y-109884494D01*
X131099502Y-109774180D01*
X131135812Y-109654482D01*
X131148072Y-109530000D01*
X131148072Y-108638665D01*
X136770000Y-108638665D01*
X136770000Y-108921335D01*
X136825147Y-109198574D01*
X136933320Y-109459727D01*
X137090363Y-109694759D01*
X137290241Y-109894637D01*
X137525273Y-110051680D01*
X137786426Y-110159853D01*
X138063665Y-110215000D01*
X138346335Y-110215000D01*
X138623574Y-110159853D01*
X138884727Y-110051680D01*
X139119759Y-109894637D01*
X139319637Y-109694759D01*
X139476680Y-109459727D01*
X139584853Y-109198574D01*
X139640000Y-108921335D01*
X139640000Y-108638665D01*
X139584853Y-108361426D01*
X139476680Y-108100273D01*
X139396317Y-107980000D01*
X144386928Y-107980000D01*
X144386928Y-109580000D01*
X144399188Y-109704482D01*
X144435498Y-109824180D01*
X144494463Y-109934494D01*
X144573815Y-110031185D01*
X144670506Y-110110537D01*
X144780820Y-110169502D01*
X144900518Y-110205812D01*
X145025000Y-110218072D01*
X146625000Y-110218072D01*
X146749482Y-110205812D01*
X146869180Y-110169502D01*
X146979494Y-110110537D01*
X147076185Y-110031185D01*
X147155537Y-109934494D01*
X147214502Y-109824180D01*
X147250812Y-109704482D01*
X147263072Y-109580000D01*
X147263072Y-107980000D01*
X147250812Y-107855518D01*
X147214502Y-107735820D01*
X147155537Y-107625506D01*
X147076185Y-107528815D01*
X146979494Y-107449463D01*
X146869180Y-107390498D01*
X146749482Y-107354188D01*
X146625000Y-107341928D01*
X145025000Y-107341928D01*
X144900518Y-107354188D01*
X144780820Y-107390498D01*
X144670506Y-107449463D01*
X144573815Y-107528815D01*
X144494463Y-107625506D01*
X144435498Y-107735820D01*
X144399188Y-107855518D01*
X144386928Y-107980000D01*
X139396317Y-107980000D01*
X139319637Y-107865241D01*
X139119759Y-107665363D01*
X138884727Y-107508320D01*
X138623574Y-107400147D01*
X138346335Y-107345000D01*
X138063665Y-107345000D01*
X137786426Y-107400147D01*
X137525273Y-107508320D01*
X137290241Y-107665363D01*
X137090363Y-107865241D01*
X136933320Y-108100273D01*
X136825147Y-108361426D01*
X136770000Y-108638665D01*
X131148072Y-108638665D01*
X131148072Y-108030000D01*
X131135812Y-107905518D01*
X131099502Y-107785820D01*
X131040537Y-107675506D01*
X130961185Y-107578815D01*
X130864494Y-107499463D01*
X130754180Y-107440498D01*
X130634482Y-107404188D01*
X130510000Y-107391928D01*
X129010000Y-107391928D01*
X128885518Y-107404188D01*
X128765820Y-107440498D01*
X128655506Y-107499463D01*
X128558815Y-107578815D01*
X128479463Y-107675506D01*
X128420498Y-107785820D01*
X128384188Y-107905518D01*
X128371928Y-108030000D01*
X115446710Y-108030000D01*
X114055772Y-106639062D01*
X114086842Y-106651932D01*
X114373740Y-106709000D01*
X114666260Y-106709000D01*
X114953158Y-106651932D01*
X115223411Y-106539990D01*
X115466632Y-106377475D01*
X115673475Y-106170632D01*
X115790000Y-105996240D01*
X115906525Y-106170632D01*
X116113368Y-106377475D01*
X116356589Y-106539990D01*
X116626842Y-106651932D01*
X116913740Y-106709000D01*
X117206260Y-106709000D01*
X117493158Y-106651932D01*
X117763411Y-106539990D01*
X118006632Y-106377475D01*
X118213475Y-106170632D01*
X118330000Y-105996240D01*
X118446525Y-106170632D01*
X118653368Y-106377475D01*
X118896589Y-106539990D01*
X119166842Y-106651932D01*
X119453740Y-106709000D01*
X119746260Y-106709000D01*
X120033158Y-106651932D01*
X120303411Y-106539990D01*
X120546632Y-106377475D01*
X120753475Y-106170632D01*
X120870000Y-105996240D01*
X120986525Y-106170632D01*
X121193368Y-106377475D01*
X121436589Y-106539990D01*
X121706842Y-106651932D01*
X121993740Y-106709000D01*
X122286260Y-106709000D01*
X122573158Y-106651932D01*
X122843411Y-106539990D01*
X123086632Y-106377475D01*
X123293475Y-106170632D01*
X123410000Y-105996240D01*
X123526525Y-106170632D01*
X123733368Y-106377475D01*
X123976589Y-106539990D01*
X124246842Y-106651932D01*
X124533740Y-106709000D01*
X124826260Y-106709000D01*
X125113158Y-106651932D01*
X125383411Y-106539990D01*
X125626632Y-106377475D01*
X125833475Y-106170632D01*
X125950000Y-105996240D01*
X126066525Y-106170632D01*
X126273368Y-106377475D01*
X126516589Y-106539990D01*
X126786842Y-106651932D01*
X127073740Y-106709000D01*
X127366260Y-106709000D01*
X127653158Y-106651932D01*
X127923411Y-106539990D01*
X128166632Y-106377475D01*
X128373475Y-106170632D01*
X128495195Y-105988466D01*
X128564822Y-106105355D01*
X128759731Y-106321588D01*
X128993080Y-106495641D01*
X129255901Y-106620825D01*
X129403110Y-106665476D01*
X129633000Y-106544155D01*
X129633000Y-105351000D01*
X129887000Y-105351000D01*
X129887000Y-106544155D01*
X130116890Y-106665476D01*
X130264099Y-106620825D01*
X130526920Y-106495641D01*
X130760269Y-106321588D01*
X130955178Y-106105355D01*
X131104157Y-105855252D01*
X131201481Y-105580891D01*
X131080814Y-105351000D01*
X129887000Y-105351000D01*
X129633000Y-105351000D01*
X129613000Y-105351000D01*
X129613000Y-105097000D01*
X129633000Y-105097000D01*
X129633000Y-103903845D01*
X129887000Y-103903845D01*
X129887000Y-105097000D01*
X131080814Y-105097000D01*
X131201481Y-104867109D01*
X131104157Y-104592748D01*
X130955178Y-104342645D01*
X130760269Y-104126412D01*
X130526920Y-103952359D01*
X130264099Y-103827175D01*
X130116890Y-103782524D01*
X129887000Y-103903845D01*
X129633000Y-103903845D01*
X129403110Y-103782524D01*
X129255901Y-103827175D01*
X128993080Y-103952359D01*
X128759731Y-104126412D01*
X128564822Y-104342645D01*
X128495195Y-104459534D01*
X128373475Y-104277368D01*
X128166632Y-104070525D01*
X127923411Y-103908010D01*
X127653158Y-103796068D01*
X127366260Y-103739000D01*
X127073740Y-103739000D01*
X126786842Y-103796068D01*
X126516589Y-103908010D01*
X126273368Y-104070525D01*
X126066525Y-104277368D01*
X125950000Y-104451760D01*
X125833475Y-104277368D01*
X125626632Y-104070525D01*
X125383411Y-103908010D01*
X125113158Y-103796068D01*
X124826260Y-103739000D01*
X124533740Y-103739000D01*
X124246842Y-103796068D01*
X123976589Y-103908010D01*
X123733368Y-104070525D01*
X123526525Y-104277368D01*
X123410000Y-104451760D01*
X123293475Y-104277368D01*
X123086632Y-104070525D01*
X122843411Y-103908010D01*
X122573158Y-103796068D01*
X122286260Y-103739000D01*
X121993740Y-103739000D01*
X121706842Y-103796068D01*
X121436589Y-103908010D01*
X121193368Y-104070525D01*
X120986525Y-104277368D01*
X120870000Y-104451760D01*
X120753475Y-104277368D01*
X120546632Y-104070525D01*
X120303411Y-103908010D01*
X120033158Y-103796068D01*
X119746260Y-103739000D01*
X119453740Y-103739000D01*
X119166842Y-103796068D01*
X118896589Y-103908010D01*
X118653368Y-104070525D01*
X118446525Y-104277368D01*
X118330000Y-104451760D01*
X118213475Y-104277368D01*
X118006632Y-104070525D01*
X117763411Y-103908010D01*
X117493158Y-103796068D01*
X117206260Y-103739000D01*
X116913740Y-103739000D01*
X116626842Y-103796068D01*
X116356589Y-103908010D01*
X116113368Y-104070525D01*
X115906525Y-104277368D01*
X115790000Y-104451760D01*
X115673475Y-104277368D01*
X115466632Y-104070525D01*
X115223411Y-103908010D01*
X114953158Y-103796068D01*
X114666260Y-103739000D01*
X114373740Y-103739000D01*
X114086842Y-103796068D01*
X113816589Y-103908010D01*
X113573368Y-104070525D01*
X113366525Y-104277368D01*
X113250000Y-104451760D01*
X113133475Y-104277368D01*
X112926632Y-104070525D01*
X112683411Y-103908010D01*
X112413158Y-103796068D01*
X112126260Y-103739000D01*
X111833740Y-103739000D01*
X111546842Y-103796068D01*
X111276589Y-103908010D01*
X111033368Y-104070525D01*
X110826525Y-104277368D01*
X110710000Y-104451760D01*
X110593475Y-104277368D01*
X110386632Y-104070525D01*
X110143411Y-103908010D01*
X109873158Y-103796068D01*
X109586260Y-103739000D01*
X109293740Y-103739000D01*
X109006842Y-103796068D01*
X108772071Y-103893313D01*
X108758375Y-103876625D01*
X108646213Y-103784576D01*
X108518249Y-103716178D01*
X108379399Y-103674058D01*
X108271186Y-103663400D01*
X108271183Y-103663400D01*
X108235000Y-103659836D01*
X108198817Y-103663400D01*
X103706175Y-103663400D01*
X103669999Y-103659837D01*
X103633823Y-103663400D01*
X103633814Y-103663400D01*
X103525601Y-103674058D01*
X103386751Y-103716178D01*
X103258787Y-103784576D01*
X103146625Y-103876625D01*
X103123554Y-103904737D01*
X102862199Y-104166092D01*
X102766632Y-104070525D01*
X102523411Y-103908010D01*
X102253158Y-103796068D01*
X101966260Y-103739000D01*
X101673740Y-103739000D01*
X101386842Y-103796068D01*
X101116589Y-103908010D01*
X100873368Y-104070525D01*
X100666525Y-104277368D01*
X100550000Y-104451760D01*
X100433475Y-104277368D01*
X100226632Y-104070525D01*
X99983411Y-103908010D01*
X99713158Y-103796068D01*
X99426260Y-103739000D01*
X99133740Y-103739000D01*
X98846842Y-103796068D01*
X98576589Y-103908010D01*
X98333368Y-104070525D01*
X98126525Y-104277368D01*
X98010000Y-104451760D01*
X97893475Y-104277368D01*
X97686632Y-104070525D01*
X97443411Y-103908010D01*
X97173158Y-103796068D01*
X96886260Y-103739000D01*
X96593740Y-103739000D01*
X96306842Y-103796068D01*
X96036589Y-103908010D01*
X95793368Y-104070525D01*
X95586525Y-104277368D01*
X95470000Y-104451760D01*
X95353475Y-104277368D01*
X95146632Y-104070525D01*
X94903411Y-103908010D01*
X94633158Y-103796068D01*
X94346260Y-103739000D01*
X94053740Y-103739000D01*
X93766842Y-103796068D01*
X93496589Y-103908010D01*
X93253368Y-104070525D01*
X93046525Y-104277368D01*
X92930000Y-104451760D01*
X92813475Y-104277368D01*
X92606632Y-104070525D01*
X92363411Y-103908010D01*
X92093158Y-103796068D01*
X91806260Y-103739000D01*
X91513740Y-103739000D01*
X91226842Y-103796068D01*
X90956589Y-103908010D01*
X90713368Y-104070525D01*
X90506525Y-104277368D01*
X90390000Y-104451760D01*
X90273475Y-104277368D01*
X90066632Y-104070525D01*
X89823411Y-103908010D01*
X89553158Y-103796068D01*
X89266260Y-103739000D01*
X88973740Y-103739000D01*
X88686842Y-103796068D01*
X88416589Y-103908010D01*
X88173368Y-104070525D01*
X87966525Y-104277368D01*
X87850000Y-104451760D01*
X87733475Y-104277368D01*
X87526632Y-104070525D01*
X87283411Y-103908010D01*
X87013158Y-103796068D01*
X86726260Y-103739000D01*
X86433740Y-103739000D01*
X86146842Y-103796068D01*
X85876589Y-103908010D01*
X85633368Y-104070525D01*
X85426525Y-104277368D01*
X85310000Y-104451760D01*
X85193475Y-104277368D01*
X84986632Y-104070525D01*
X84743411Y-103908010D01*
X84473158Y-103796068D01*
X84186260Y-103739000D01*
X83893740Y-103739000D01*
X83606842Y-103796068D01*
X83336589Y-103908010D01*
X83093368Y-104070525D01*
X82961513Y-104202380D01*
X82939502Y-104129820D01*
X82880537Y-104019506D01*
X82801185Y-103922815D01*
X82704494Y-103843463D01*
X82594180Y-103784498D01*
X82474482Y-103748188D01*
X82350000Y-103735928D01*
X80650000Y-103735928D01*
X80525518Y-103748188D01*
X80405820Y-103784498D01*
X80295506Y-103843463D01*
X80198815Y-103922815D01*
X80119463Y-104019506D01*
X80060498Y-104129820D01*
X80024188Y-104249518D01*
X80011928Y-104374000D01*
X80011928Y-106074000D01*
X80024188Y-106198482D01*
X80060498Y-106318180D01*
X80119463Y-106428494D01*
X80198815Y-106525185D01*
X80295506Y-106604537D01*
X80405820Y-106663502D01*
X80525518Y-106699812D01*
X80650000Y-106712072D01*
X82350000Y-106712072D01*
X82474482Y-106699812D01*
X82594180Y-106663502D01*
X82704494Y-106604537D01*
X82801185Y-106525185D01*
X82880537Y-106428494D01*
X82939502Y-106318180D01*
X82961513Y-106245620D01*
X83093368Y-106377475D01*
X83336589Y-106539990D01*
X83606842Y-106651932D01*
X83893740Y-106709000D01*
X84186260Y-106709000D01*
X84473158Y-106651932D01*
X84743411Y-106539990D01*
X84986632Y-106377475D01*
X85193475Y-106170632D01*
X85310000Y-105996240D01*
X85426525Y-106170632D01*
X85633368Y-106377475D01*
X85876589Y-106539990D01*
X86146842Y-106651932D01*
X86433740Y-106709000D01*
X86726260Y-106709000D01*
X87013158Y-106651932D01*
X87283411Y-106539990D01*
X87526632Y-106377475D01*
X87733475Y-106170632D01*
X87850000Y-105996240D01*
X87966525Y-106170632D01*
X88173368Y-106377475D01*
X88416589Y-106539990D01*
X88686842Y-106651932D01*
X88973740Y-106709000D01*
X89266260Y-106709000D01*
X89553158Y-106651932D01*
X89823411Y-106539990D01*
X90066632Y-106377475D01*
X90273475Y-106170632D01*
X90390000Y-105996240D01*
X90506525Y-106170632D01*
X90713368Y-106377475D01*
X90956589Y-106539990D01*
X91226842Y-106651932D01*
X91513740Y-106709000D01*
X91806260Y-106709000D01*
X92093158Y-106651932D01*
X92363411Y-106539990D01*
X92606632Y-106377475D01*
X92813475Y-106170632D01*
X92930000Y-105996240D01*
X93046525Y-106170632D01*
X93253368Y-106377475D01*
X93496589Y-106539990D01*
X93766842Y-106651932D01*
X94053740Y-106709000D01*
X94346260Y-106709000D01*
X94633158Y-106651932D01*
X94903411Y-106539990D01*
X95146632Y-106377475D01*
X95353475Y-106170632D01*
X95470000Y-105996240D01*
X95586525Y-106170632D01*
X95793368Y-106377475D01*
X96036589Y-106539990D01*
X96306842Y-106651932D01*
X96593740Y-106709000D01*
X96802291Y-106709000D01*
X103419812Y-113326522D01*
X103419812Y-117058103D01*
X97186446Y-110824737D01*
X97163375Y-110796625D01*
X97051213Y-110704576D01*
X96923249Y-110636178D01*
X96784399Y-110594058D01*
X96676186Y-110583400D01*
X96676183Y-110583400D01*
X96640000Y-110579836D01*
X96603817Y-110583400D01*
X95433679Y-110583400D01*
X95314637Y-110405241D01*
X95114759Y-110205363D01*
X94879727Y-110048320D01*
X94618574Y-109940147D01*
X94341335Y-109885000D01*
X94058665Y-109885000D01*
X93781426Y-109940147D01*
X93520273Y-110048320D01*
X93285241Y-110205363D01*
X93085363Y-110405241D01*
X92928320Y-110640273D01*
X92820147Y-110901426D01*
X92765000Y-111178665D01*
X92765000Y-111461335D01*
X92820147Y-111738574D01*
X92928320Y-111999727D01*
X93085363Y-112234759D01*
X93285241Y-112434637D01*
X93520273Y-112591680D01*
X93781426Y-112699853D01*
X94058665Y-112755000D01*
X94341335Y-112755000D01*
X94618574Y-112699853D01*
X94879727Y-112591680D01*
X95114759Y-112434637D01*
X95314637Y-112234759D01*
X95433679Y-112056600D01*
X96334891Y-112056600D01*
X103013401Y-118735110D01*
X103013400Y-135768567D01*
X103009836Y-135804750D01*
X103013400Y-135840933D01*
X103013400Y-135840935D01*
X103024058Y-135949148D01*
X103066178Y-136087998D01*
X103134576Y-136215962D01*
X103226625Y-136328124D01*
X103254732Y-136351191D01*
X114818202Y-147914662D01*
X114818201Y-158881073D01*
X114541335Y-158826000D01*
X114258665Y-158826000D01*
X113981426Y-158881147D01*
X113720273Y-158989320D01*
X113485241Y-159146363D01*
X113285363Y-159346241D01*
X113130000Y-159578759D01*
X112974637Y-159346241D01*
X112774759Y-159146363D01*
X112539727Y-158989320D01*
X112278574Y-158881147D01*
X112001335Y-158826000D01*
X111718665Y-158826000D01*
X111441426Y-158881147D01*
X111180273Y-158989320D01*
X110945241Y-159146363D01*
X110745363Y-159346241D01*
X110590000Y-159578759D01*
X110434637Y-159346241D01*
X110234759Y-159146363D01*
X109999727Y-158989320D01*
X109738574Y-158881147D01*
X109461335Y-158826000D01*
X109178665Y-158826000D01*
X108968512Y-158867803D01*
X98226600Y-148125891D01*
X98226600Y-144187259D01*
X104840000Y-144187259D01*
X104840000Y-144612741D01*
X104923008Y-145030049D01*
X105085833Y-145423144D01*
X105322219Y-145776920D01*
X105623080Y-146077781D01*
X105976856Y-146314167D01*
X106369951Y-146476992D01*
X106787259Y-146560000D01*
X107212741Y-146560000D01*
X107630049Y-146476992D01*
X108023144Y-146314167D01*
X108376920Y-146077781D01*
X108677781Y-145776920D01*
X108914167Y-145423144D01*
X109076992Y-145030049D01*
X109160000Y-144612741D01*
X109160000Y-144187259D01*
X109076992Y-143769951D01*
X108914167Y-143376856D01*
X108677781Y-143023080D01*
X108376920Y-142722219D01*
X108023144Y-142485833D01*
X107630049Y-142323008D01*
X107212741Y-142240000D01*
X106787259Y-142240000D01*
X106369951Y-142323008D01*
X105976856Y-142485833D01*
X105623080Y-142722219D01*
X105322219Y-143023080D01*
X105085833Y-143376856D01*
X104923008Y-143769951D01*
X104840000Y-144187259D01*
X98226600Y-144187259D01*
X98226600Y-141878740D01*
X98545000Y-141878740D01*
X98545000Y-142171260D01*
X98602068Y-142458158D01*
X98714010Y-142728411D01*
X98876525Y-142971632D01*
X99083368Y-143178475D01*
X99326589Y-143340990D01*
X99596842Y-143452932D01*
X99883740Y-143510000D01*
X100176260Y-143510000D01*
X100463158Y-143452932D01*
X100733411Y-143340990D01*
X100976632Y-143178475D01*
X101183475Y-142971632D01*
X101345990Y-142728411D01*
X101457932Y-142458158D01*
X101515000Y-142171260D01*
X101515000Y-141878740D01*
X101457932Y-141591842D01*
X101345990Y-141321589D01*
X101183475Y-141078368D01*
X100976632Y-140871525D01*
X100733411Y-140709010D01*
X100463158Y-140597068D01*
X100176260Y-140540000D01*
X99883740Y-140540000D01*
X99596842Y-140597068D01*
X99326589Y-140709010D01*
X99083368Y-140871525D01*
X98876525Y-141078368D01*
X98714010Y-141321589D01*
X98602068Y-141591842D01*
X98545000Y-141878740D01*
X98226600Y-141878740D01*
X98226600Y-138517841D01*
X98311831Y-138482537D01*
X98595998Y-138292663D01*
X98837663Y-138050998D01*
X99027537Y-137766831D01*
X99158325Y-137451081D01*
X99225000Y-137115883D01*
X99225000Y-136774117D01*
X99158325Y-136438919D01*
X99027537Y-136123169D01*
X98837663Y-135839002D01*
X98595998Y-135597337D01*
X98311831Y-135407463D01*
X97996081Y-135276675D01*
X97660883Y-135210000D01*
X97319117Y-135210000D01*
X96983919Y-135276675D01*
X96668169Y-135407463D01*
X96384002Y-135597337D01*
X96142337Y-135839002D01*
X95952463Y-136123169D01*
X95821675Y-136438919D01*
X95755000Y-136774117D01*
X95755000Y-137115883D01*
X95821675Y-137451081D01*
X95952463Y-137766831D01*
X96142337Y-138050998D01*
X96384002Y-138292663D01*
X96668169Y-138482537D01*
X96753400Y-138517841D01*
X96753400Y-140101947D01*
X96629715Y-139978262D01*
X96198141Y-139689893D01*
X95718601Y-139491261D01*
X95209525Y-139390000D01*
X94690475Y-139390000D01*
X94181399Y-139491261D01*
X93701859Y-139689893D01*
X93332600Y-139936624D01*
X93332600Y-130928509D01*
X97985273Y-126275836D01*
X98013374Y-126252775D01*
X98036437Y-126224673D01*
X98036442Y-126224668D01*
X98105423Y-126140614D01*
X98105425Y-126140612D01*
X98173822Y-126012649D01*
X98215942Y-125873799D01*
X98226600Y-125765586D01*
X98226600Y-125765577D01*
X98230163Y-125729401D01*
X98226600Y-125693225D01*
X98226600Y-122828740D01*
X98545000Y-122828740D01*
X98545000Y-123121260D01*
X98602068Y-123408158D01*
X98714010Y-123678411D01*
X98876525Y-123921632D01*
X99083368Y-124128475D01*
X99326589Y-124290990D01*
X99596842Y-124402932D01*
X99883740Y-124460000D01*
X100176260Y-124460000D01*
X100463158Y-124402932D01*
X100733411Y-124290990D01*
X100976632Y-124128475D01*
X101183475Y-123921632D01*
X101345990Y-123678411D01*
X101457932Y-123408158D01*
X101515000Y-123121260D01*
X101515000Y-122828740D01*
X101457932Y-122541842D01*
X101345990Y-122271589D01*
X101183475Y-122028368D01*
X100976632Y-121821525D01*
X100733411Y-121659010D01*
X100463158Y-121547068D01*
X100176260Y-121490000D01*
X99883740Y-121490000D01*
X99596842Y-121547068D01*
X99326589Y-121659010D01*
X99083368Y-121821525D01*
X98876525Y-122028368D01*
X98714010Y-122271589D01*
X98602068Y-122541842D01*
X98545000Y-122828740D01*
X98226600Y-122828740D01*
X98226600Y-119467841D01*
X98311831Y-119432537D01*
X98595998Y-119242663D01*
X98837663Y-119000998D01*
X99027537Y-118716831D01*
X99158325Y-118401081D01*
X99225000Y-118065883D01*
X99225000Y-117724117D01*
X99158325Y-117388919D01*
X99027537Y-117073169D01*
X98837663Y-116789002D01*
X98595998Y-116547337D01*
X98311831Y-116357463D01*
X97996081Y-116226675D01*
X97660883Y-116160000D01*
X97319117Y-116160000D01*
X96983919Y-116226675D01*
X96668169Y-116357463D01*
X96384002Y-116547337D01*
X96142337Y-116789002D01*
X95952463Y-117073169D01*
X95821675Y-117388919D01*
X95755000Y-117724117D01*
X95755000Y-118065883D01*
X95821675Y-118401081D01*
X95952463Y-118716831D01*
X96142337Y-119000998D01*
X96384002Y-119242663D01*
X96668169Y-119432537D01*
X96753401Y-119467841D01*
X96753401Y-121051948D01*
X96629715Y-120928262D01*
X96198141Y-120639893D01*
X95718601Y-120441261D01*
X95209525Y-120340000D01*
X94690475Y-120340000D01*
X94181399Y-120441261D01*
X93701859Y-120639893D01*
X93270285Y-120928262D01*
X92903262Y-121295285D01*
X92614893Y-121726859D01*
X92416261Y-122206399D01*
X92315000Y-122715475D01*
X92315000Y-123234525D01*
X92416261Y-123743601D01*
X92614893Y-124223141D01*
X92903262Y-124654715D01*
X93270285Y-125021738D01*
X93701859Y-125310107D01*
X94181399Y-125508739D01*
X94690475Y-125610000D01*
X95209525Y-125610000D01*
X95718601Y-125508739D01*
X96198141Y-125310107D01*
X96629715Y-125021738D01*
X96753400Y-124898053D01*
X96753400Y-125424290D01*
X92100732Y-130076959D01*
X92072626Y-130100025D01*
X92049560Y-130128131D01*
X92049558Y-130128133D01*
X91980576Y-130212188D01*
X91912178Y-130340153D01*
X91870059Y-130479002D01*
X91855836Y-130623400D01*
X91859401Y-130659593D01*
X91859401Y-137905323D01*
X91752616Y-137852784D01*
X91422415Y-137764631D01*
X91081361Y-137742591D01*
X90742561Y-137787511D01*
X90419034Y-137897664D01*
X90220726Y-138003662D01*
X90112893Y-138278288D01*
X91140000Y-139305395D01*
X91154143Y-139291253D01*
X91333748Y-139470858D01*
X91319605Y-139485000D01*
X91333748Y-139499143D01*
X91154143Y-139678748D01*
X91140000Y-139664605D01*
X91125858Y-139678748D01*
X90946253Y-139499143D01*
X90960395Y-139485000D01*
X89933288Y-138457893D01*
X89658662Y-138565726D01*
X89507784Y-138872384D01*
X89419631Y-139202585D01*
X89397591Y-139543639D01*
X89442511Y-139882439D01*
X89552664Y-140205966D01*
X89658662Y-140404274D01*
X89933286Y-140512106D01*
X89905392Y-140540000D01*
X89723740Y-140540000D01*
X89436842Y-140597068D01*
X89166589Y-140709010D01*
X88923368Y-140871525D01*
X88716525Y-141078368D01*
X88554010Y-141321589D01*
X88446600Y-141580901D01*
X88446600Y-136726186D01*
X88450164Y-136690000D01*
X88435942Y-136545601D01*
X88393822Y-136406752D01*
X88393822Y-136406751D01*
X88325424Y-136278787D01*
X88303305Y-136251835D01*
X88256442Y-136194732D01*
X88256437Y-136194727D01*
X88233374Y-136166625D01*
X88205274Y-136143564D01*
X80073021Y-128011312D01*
X80108325Y-127926081D01*
X80175000Y-127590883D01*
X80175000Y-127249117D01*
X80108325Y-126913919D01*
X79977537Y-126598169D01*
X79787663Y-126314002D01*
X79545998Y-126072337D01*
X79261831Y-125882463D01*
X78946081Y-125751675D01*
X78610883Y-125685000D01*
X78269117Y-125685000D01*
X77933919Y-125751675D01*
X77618169Y-125882463D01*
X77334002Y-126072337D01*
X77092337Y-126314002D01*
X76902463Y-126598169D01*
X76771675Y-126913919D01*
X76705000Y-127249117D01*
X64685000Y-127249117D01*
X64685000Y-120387259D01*
X66740000Y-120387259D01*
X66740000Y-120812741D01*
X66823008Y-121230049D01*
X66985833Y-121623144D01*
X67222219Y-121976920D01*
X67523080Y-122277781D01*
X67876856Y-122514167D01*
X68269951Y-122676992D01*
X68687259Y-122760000D01*
X69112741Y-122760000D01*
X69530049Y-122676992D01*
X69923144Y-122514167D01*
X70276920Y-122277781D01*
X70577781Y-121976920D01*
X70814167Y-121623144D01*
X70976992Y-121230049D01*
X71060000Y-120812741D01*
X71060000Y-120387259D01*
X71050695Y-120340475D01*
X81505000Y-120340475D01*
X81505000Y-120859525D01*
X81606261Y-121368601D01*
X81804893Y-121848141D01*
X82093262Y-122279715D01*
X82460285Y-122646738D01*
X82891859Y-122935107D01*
X83371399Y-123133739D01*
X83880475Y-123235000D01*
X84399525Y-123235000D01*
X84908601Y-123133739D01*
X85388141Y-122935107D01*
X85547330Y-122828740D01*
X88385000Y-122828740D01*
X88385000Y-123121260D01*
X88442068Y-123408158D01*
X88554010Y-123678411D01*
X88716525Y-123921632D01*
X88923368Y-124128475D01*
X89166589Y-124290990D01*
X89436842Y-124402932D01*
X89723740Y-124460000D01*
X90016260Y-124460000D01*
X90303158Y-124402932D01*
X90573411Y-124290990D01*
X90816632Y-124128475D01*
X91023475Y-123921632D01*
X91185990Y-123678411D01*
X91297932Y-123408158D01*
X91355000Y-123121260D01*
X91355000Y-122828740D01*
X91297932Y-122541842D01*
X91185990Y-122271589D01*
X91119650Y-122172304D01*
X91198639Y-122177409D01*
X91537439Y-122132489D01*
X91860966Y-122022336D01*
X92059274Y-121916338D01*
X92167107Y-121641712D01*
X91140000Y-120614605D01*
X91125858Y-120628748D01*
X90946253Y-120449143D01*
X90960395Y-120435000D01*
X91319605Y-120435000D01*
X92346712Y-121462107D01*
X92621338Y-121354274D01*
X92772216Y-121047616D01*
X92860369Y-120717415D01*
X92882409Y-120376361D01*
X92837489Y-120037561D01*
X92727336Y-119714034D01*
X92621338Y-119515726D01*
X92346712Y-119407893D01*
X91319605Y-120435000D01*
X90960395Y-120435000D01*
X89933288Y-119407893D01*
X89658662Y-119515726D01*
X89507784Y-119822384D01*
X89419631Y-120152585D01*
X89397591Y-120493639D01*
X89442511Y-120832439D01*
X89552664Y-121155966D01*
X89658662Y-121354274D01*
X89933286Y-121462106D01*
X89905392Y-121490000D01*
X89723740Y-121490000D01*
X89436842Y-121547068D01*
X89166589Y-121659010D01*
X88923368Y-121821525D01*
X88716525Y-122028368D01*
X88554010Y-122271589D01*
X88442068Y-122541842D01*
X88385000Y-122828740D01*
X85547330Y-122828740D01*
X85819715Y-122646738D01*
X86186738Y-122279715D01*
X86475107Y-121848141D01*
X86673739Y-121368601D01*
X86775000Y-120859525D01*
X86775000Y-120340475D01*
X86673739Y-119831399D01*
X86475107Y-119351859D01*
X86392540Y-119228288D01*
X90112893Y-119228288D01*
X91140000Y-120255395D01*
X92167107Y-119228288D01*
X92059274Y-118953662D01*
X91752616Y-118802784D01*
X91422415Y-118714631D01*
X91081361Y-118692591D01*
X90742561Y-118737511D01*
X90419034Y-118847664D01*
X90220726Y-118953662D01*
X90112893Y-119228288D01*
X86392540Y-119228288D01*
X86186738Y-118920285D01*
X85819715Y-118553262D01*
X85388141Y-118264893D01*
X84908601Y-118066261D01*
X84399525Y-117965000D01*
X83880475Y-117965000D01*
X83371399Y-118066261D01*
X82891859Y-118264893D01*
X82460285Y-118553262D01*
X82093262Y-118920285D01*
X81804893Y-119351859D01*
X81606261Y-119831399D01*
X81505000Y-120340475D01*
X71050695Y-120340475D01*
X70976992Y-119969951D01*
X70814167Y-119576856D01*
X70577781Y-119223080D01*
X70276920Y-118922219D01*
X69923144Y-118685833D01*
X69530049Y-118523008D01*
X69112741Y-118440000D01*
X68687259Y-118440000D01*
X68269951Y-118523008D01*
X67876856Y-118685833D01*
X67523080Y-118922219D01*
X67222219Y-119223080D01*
X66985833Y-119576856D01*
X66823008Y-119969951D01*
X66740000Y-120387259D01*
X64685000Y-120387259D01*
X64685000Y-114816993D01*
X80722612Y-114816993D01*
X80788137Y-115055860D01*
X81035116Y-115171760D01*
X81299960Y-115237250D01*
X81572492Y-115249812D01*
X81842238Y-115208965D01*
X82098832Y-115116277D01*
X82211863Y-115055860D01*
X82277388Y-114816993D01*
X81500000Y-114039605D01*
X80722612Y-114816993D01*
X64685000Y-114816993D01*
X64685000Y-113932492D01*
X80110188Y-113932492D01*
X80151035Y-114202238D01*
X80243723Y-114458832D01*
X80304140Y-114571863D01*
X80543007Y-114637388D01*
X81320395Y-113860000D01*
X81679605Y-113860000D01*
X82456993Y-114637388D01*
X82695860Y-114571863D01*
X82811760Y-114324884D01*
X82877250Y-114060040D01*
X82889812Y-113787508D01*
X82848965Y-113517762D01*
X82756277Y-113261168D01*
X82695860Y-113148137D01*
X82456993Y-113082612D01*
X81679605Y-113860000D01*
X81320395Y-113860000D01*
X80543007Y-113082612D01*
X80304140Y-113148137D01*
X80188240Y-113395116D01*
X80122750Y-113659960D01*
X80110188Y-113932492D01*
X64685000Y-113932492D01*
X64685000Y-108030000D01*
X80111928Y-108030000D01*
X80111928Y-109530000D01*
X80124188Y-109654482D01*
X80160498Y-109774180D01*
X80219463Y-109884494D01*
X80298815Y-109981185D01*
X80395506Y-110060537D01*
X80505820Y-110119502D01*
X80625518Y-110155812D01*
X80733483Y-110166445D01*
X80617114Y-110244201D01*
X80424201Y-110437114D01*
X80272629Y-110663957D01*
X80168225Y-110916011D01*
X80115000Y-111183589D01*
X80115000Y-111456411D01*
X80168225Y-111723989D01*
X80272629Y-111976043D01*
X80424201Y-112202886D01*
X80617114Y-112395799D01*
X80843957Y-112547371D01*
X80943279Y-112588511D01*
X80901168Y-112603723D01*
X80788137Y-112664140D01*
X80722612Y-112903007D01*
X81500000Y-113680395D01*
X82277388Y-112903007D01*
X82211863Y-112664140D01*
X82053523Y-112589836D01*
X82156043Y-112547371D01*
X82382886Y-112395799D01*
X82575799Y-112202886D01*
X82673544Y-112056600D01*
X85346321Y-112056600D01*
X85465363Y-112234759D01*
X85665241Y-112434637D01*
X85900273Y-112591680D01*
X86161426Y-112699853D01*
X86438665Y-112755000D01*
X86721335Y-112755000D01*
X86998574Y-112699853D01*
X87259727Y-112591680D01*
X87494759Y-112434637D01*
X87694637Y-112234759D01*
X87851680Y-111999727D01*
X87959853Y-111738574D01*
X88015000Y-111461335D01*
X88015000Y-111178665D01*
X87959853Y-110901426D01*
X87851680Y-110640273D01*
X87694637Y-110405241D01*
X87494759Y-110205363D01*
X87259727Y-110048320D01*
X86998574Y-109940147D01*
X86721335Y-109885000D01*
X86438665Y-109885000D01*
X86161426Y-109940147D01*
X85900273Y-110048320D01*
X85665241Y-110205363D01*
X85465363Y-110405241D01*
X85346321Y-110583400D01*
X82673544Y-110583400D01*
X82575799Y-110437114D01*
X82382886Y-110244201D01*
X82266517Y-110166445D01*
X82374482Y-110155812D01*
X82494180Y-110119502D01*
X82604494Y-110060537D01*
X82701185Y-109981185D01*
X82780537Y-109884494D01*
X82839502Y-109774180D01*
X82875812Y-109654482D01*
X82888072Y-109530000D01*
X82888072Y-108030000D01*
X82875812Y-107905518D01*
X82839502Y-107785820D01*
X82780537Y-107675506D01*
X82701185Y-107578815D01*
X82604494Y-107499463D01*
X82494180Y-107440498D01*
X82374482Y-107404188D01*
X82250000Y-107391928D01*
X80750000Y-107391928D01*
X80625518Y-107404188D01*
X80505820Y-107440498D01*
X80395506Y-107499463D01*
X80298815Y-107578815D01*
X80219463Y-107675506D01*
X80160498Y-107785820D01*
X80124188Y-107905518D01*
X80111928Y-108030000D01*
X64685000Y-108030000D01*
X64685000Y-100622285D01*
X66165000Y-100622285D01*
X66165000Y-101377715D01*
X66312377Y-102118628D01*
X66601467Y-102816554D01*
X67021161Y-103444670D01*
X67555330Y-103978839D01*
X68183446Y-104398533D01*
X68881372Y-104687623D01*
X69622285Y-104835000D01*
X70377715Y-104835000D01*
X71118628Y-104687623D01*
X71816554Y-104398533D01*
X72444670Y-103978839D01*
X72978839Y-103444670D01*
X73398533Y-102816554D01*
X73687623Y-102118628D01*
X73835000Y-101377715D01*
X73835000Y-100622285D01*
X73751003Y-100200000D01*
X137886928Y-100200000D01*
X137886928Y-101800000D01*
X137899188Y-101924482D01*
X137935498Y-102044180D01*
X137994463Y-102154494D01*
X138073815Y-102251185D01*
X138170506Y-102330537D01*
X138280820Y-102389502D01*
X138400518Y-102425812D01*
X138525000Y-102438072D01*
X140125000Y-102438072D01*
X140249482Y-102425812D01*
X140369180Y-102389502D01*
X140479494Y-102330537D01*
X140576185Y-102251185D01*
X140655537Y-102154494D01*
X140714502Y-102044180D01*
X140750812Y-101924482D01*
X140763072Y-101800000D01*
X140763072Y-100858665D01*
X144390000Y-100858665D01*
X144390000Y-101141335D01*
X144445147Y-101418574D01*
X144553320Y-101679727D01*
X144710363Y-101914759D01*
X144910241Y-102114637D01*
X145145273Y-102271680D01*
X145406426Y-102379853D01*
X145683665Y-102435000D01*
X145966335Y-102435000D01*
X146243574Y-102379853D01*
X146504727Y-102271680D01*
X146739759Y-102114637D01*
X146939637Y-101914759D01*
X147096680Y-101679727D01*
X147204853Y-101418574D01*
X147260000Y-101141335D01*
X147260000Y-100858665D01*
X147212981Y-100622285D01*
X154165000Y-100622285D01*
X154165000Y-101377715D01*
X154312377Y-102118628D01*
X154601467Y-102816554D01*
X155021161Y-103444670D01*
X155555330Y-103978839D01*
X156183446Y-104398533D01*
X156881372Y-104687623D01*
X157622285Y-104835000D01*
X158377715Y-104835000D01*
X159118628Y-104687623D01*
X159816554Y-104398533D01*
X160444670Y-103978839D01*
X160978839Y-103444670D01*
X161398533Y-102816554D01*
X161687623Y-102118628D01*
X161835000Y-101377715D01*
X161835000Y-100622285D01*
X161687623Y-99881372D01*
X161398533Y-99183446D01*
X160978839Y-98555330D01*
X160444670Y-98021161D01*
X159816554Y-97601467D01*
X159118628Y-97312377D01*
X158377715Y-97165000D01*
X157622285Y-97165000D01*
X156881372Y-97312377D01*
X156183446Y-97601467D01*
X155555330Y-98021161D01*
X155021161Y-98555330D01*
X154601467Y-99183446D01*
X154312377Y-99881372D01*
X154165000Y-100622285D01*
X147212981Y-100622285D01*
X147204853Y-100581426D01*
X147096680Y-100320273D01*
X146939637Y-100085241D01*
X146739759Y-99885363D01*
X146504727Y-99728320D01*
X146243574Y-99620147D01*
X145966335Y-99565000D01*
X145683665Y-99565000D01*
X145406426Y-99620147D01*
X145145273Y-99728320D01*
X144910241Y-99885363D01*
X144710363Y-100085241D01*
X144553320Y-100320273D01*
X144445147Y-100581426D01*
X144390000Y-100858665D01*
X140763072Y-100858665D01*
X140763072Y-100200000D01*
X140750812Y-100075518D01*
X140714502Y-99955820D01*
X140655537Y-99845506D01*
X140576185Y-99748815D01*
X140479494Y-99669463D01*
X140369180Y-99610498D01*
X140249482Y-99574188D01*
X140125000Y-99561928D01*
X138525000Y-99561928D01*
X138400518Y-99574188D01*
X138280820Y-99610498D01*
X138170506Y-99669463D01*
X138073815Y-99748815D01*
X137994463Y-99845506D01*
X137935498Y-99955820D01*
X137899188Y-100075518D01*
X137886928Y-100200000D01*
X73751003Y-100200000D01*
X73687623Y-99881372D01*
X73398533Y-99183446D01*
X72978839Y-98555330D01*
X72444670Y-98021161D01*
X71816554Y-97601467D01*
X71118628Y-97312377D01*
X70377715Y-97165000D01*
X69622285Y-97165000D01*
X68881372Y-97312377D01*
X68183446Y-97601467D01*
X67555330Y-98021161D01*
X67021161Y-98555330D01*
X66601467Y-99183446D01*
X66312377Y-99881372D01*
X66165000Y-100622285D01*
X64685000Y-100622285D01*
X64685000Y-96966353D01*
X64675711Y-96872045D01*
X64688625Y-96740341D01*
X64764035Y-96490571D01*
X64886522Y-96260208D01*
X65051422Y-96058020D01*
X65252450Y-95891714D01*
X65481954Y-95767622D01*
X65731195Y-95690469D01*
X65871819Y-95675689D01*
X65966353Y-95685000D01*
G04 #@! TA.AperFunction,Conductor*
D21*
G36*
X65966353Y-95685000D02*
G01*
X162033647Y-95685000D01*
X162127955Y-95675711D01*
X162259659Y-95688625D01*
X162509429Y-95764035D01*
X162739792Y-95886522D01*
X162941980Y-96051422D01*
X163108286Y-96252450D01*
X163232378Y-96481954D01*
X163309531Y-96731195D01*
X163324311Y-96871819D01*
X163315000Y-96966354D01*
X163315001Y-168033647D01*
X163324289Y-168127950D01*
X163311375Y-168259660D01*
X163235965Y-168509429D01*
X163113477Y-168739794D01*
X162948579Y-168941979D01*
X162747546Y-169108288D01*
X162518046Y-169232378D01*
X162268805Y-169309531D01*
X162128181Y-169324311D01*
X162033647Y-169315000D01*
X65966353Y-169315000D01*
X65872045Y-169324289D01*
X65740340Y-169311375D01*
X65490571Y-169235965D01*
X65260206Y-169113477D01*
X65058021Y-168948579D01*
X64891712Y-168747546D01*
X64767622Y-168518046D01*
X64690469Y-168268805D01*
X64675689Y-168128181D01*
X64685000Y-168033647D01*
X64685000Y-163622285D01*
X66165000Y-163622285D01*
X66165000Y-164377715D01*
X66312377Y-165118628D01*
X66601467Y-165816554D01*
X67021161Y-166444670D01*
X67555330Y-166978839D01*
X68183446Y-167398533D01*
X68881372Y-167687623D01*
X69622285Y-167835000D01*
X70377715Y-167835000D01*
X71118628Y-167687623D01*
X71816554Y-167398533D01*
X72444670Y-166978839D01*
X72978839Y-166444670D01*
X73398533Y-165816554D01*
X73687623Y-165118628D01*
X73835000Y-164377715D01*
X73835000Y-163622285D01*
X73687623Y-162881372D01*
X73398533Y-162183446D01*
X72978839Y-161555330D01*
X72444670Y-161021161D01*
X71816554Y-160601467D01*
X71118628Y-160312377D01*
X70377715Y-160165000D01*
X69622285Y-160165000D01*
X68881372Y-160312377D01*
X68183446Y-160601467D01*
X67555330Y-161021161D01*
X67021161Y-161555330D01*
X66601467Y-162183446D01*
X66312377Y-162881372D01*
X66165000Y-163622285D01*
X64685000Y-163622285D01*
X64685000Y-144187259D01*
X66740000Y-144187259D01*
X66740000Y-144612741D01*
X66823008Y-145030049D01*
X66985833Y-145423144D01*
X67222219Y-145776920D01*
X67523080Y-146077781D01*
X67876856Y-146314167D01*
X68269951Y-146476992D01*
X68687259Y-146560000D01*
X69112741Y-146560000D01*
X69530049Y-146476992D01*
X69923144Y-146314167D01*
X70276920Y-146077781D01*
X70577781Y-145776920D01*
X70814167Y-145423144D01*
X70976992Y-145030049D01*
X71060000Y-144612741D01*
X71060000Y-144187259D01*
X71050695Y-144140475D01*
X81505000Y-144140475D01*
X81505000Y-144659525D01*
X81606261Y-145168601D01*
X81804893Y-145648141D01*
X82093262Y-146079715D01*
X82460285Y-146446738D01*
X82891859Y-146735107D01*
X83371399Y-146933739D01*
X83880475Y-147035000D01*
X84399525Y-147035000D01*
X84908601Y-146933739D01*
X85388141Y-146735107D01*
X85819715Y-146446738D01*
X86186738Y-146079715D01*
X86475107Y-145648141D01*
X86673739Y-145168601D01*
X86775000Y-144659525D01*
X86775000Y-144140475D01*
X86673739Y-143631399D01*
X86475107Y-143151859D01*
X86186738Y-142720285D01*
X85819715Y-142353262D01*
X85388141Y-142064893D01*
X84908601Y-141866261D01*
X84399525Y-141765000D01*
X83880475Y-141765000D01*
X83371399Y-141866261D01*
X82891859Y-142064893D01*
X82460285Y-142353262D01*
X82093262Y-142720285D01*
X81804893Y-143151859D01*
X81606261Y-143631399D01*
X81505000Y-144140475D01*
X71050695Y-144140475D01*
X70976992Y-143769951D01*
X70814167Y-143376856D01*
X70577781Y-143023080D01*
X70276920Y-142722219D01*
X69923144Y-142485833D01*
X69530049Y-142323008D01*
X69112741Y-142240000D01*
X68687259Y-142240000D01*
X68269951Y-142323008D01*
X67876856Y-142485833D01*
X67523080Y-142722219D01*
X67222219Y-143023080D01*
X66985833Y-143376856D01*
X66823008Y-143769951D01*
X66740000Y-144187259D01*
X64685000Y-144187259D01*
X64685000Y-132353740D01*
X69335000Y-132353740D01*
X69335000Y-132646260D01*
X69392068Y-132933158D01*
X69504010Y-133203411D01*
X69666525Y-133446632D01*
X69873368Y-133653475D01*
X70116589Y-133815990D01*
X70386842Y-133927932D01*
X70673740Y-133985000D01*
X70966260Y-133985000D01*
X71253158Y-133927932D01*
X71523411Y-133815990D01*
X71766632Y-133653475D01*
X71973475Y-133446632D01*
X72135990Y-133203411D01*
X72247932Y-132933158D01*
X72305000Y-132646260D01*
X72305000Y-132353740D01*
X72282471Y-132240475D01*
X73265000Y-132240475D01*
X73265000Y-132759525D01*
X73366261Y-133268601D01*
X73564893Y-133748141D01*
X73853262Y-134179715D01*
X74220285Y-134546738D01*
X74651859Y-134835107D01*
X75131399Y-135033739D01*
X75640475Y-135135000D01*
X76159525Y-135135000D01*
X76668601Y-135033739D01*
X77148141Y-134835107D01*
X77579715Y-134546738D01*
X77946738Y-134179715D01*
X78235107Y-133748141D01*
X78433739Y-133268601D01*
X78535000Y-132759525D01*
X78535000Y-132240475D01*
X78433739Y-131731399D01*
X78235107Y-131251859D01*
X77946738Y-130820285D01*
X77579715Y-130453262D01*
X77148141Y-130164893D01*
X76668601Y-129966261D01*
X76159525Y-129865000D01*
X75640475Y-129865000D01*
X75131399Y-129966261D01*
X74651859Y-130164893D01*
X74220285Y-130453262D01*
X73853262Y-130820285D01*
X73564893Y-131251859D01*
X73366261Y-131731399D01*
X73265000Y-132240475D01*
X72282471Y-132240475D01*
X72247932Y-132066842D01*
X72135990Y-131796589D01*
X72069650Y-131697304D01*
X72148639Y-131702409D01*
X72487439Y-131657489D01*
X72810966Y-131547336D01*
X73009274Y-131441338D01*
X73117107Y-131166712D01*
X72090000Y-130139605D01*
X72075858Y-130153748D01*
X71896253Y-129974143D01*
X71910395Y-129960000D01*
X72269605Y-129960000D01*
X73296712Y-130987107D01*
X73571338Y-130879274D01*
X73722216Y-130572616D01*
X73810369Y-130242415D01*
X73832409Y-129901361D01*
X73787489Y-129562561D01*
X73677336Y-129239034D01*
X73571338Y-129040726D01*
X73296712Y-128932893D01*
X72269605Y-129960000D01*
X71910395Y-129960000D01*
X70883288Y-128932893D01*
X70608662Y-129040726D01*
X70457784Y-129347384D01*
X70369631Y-129677585D01*
X70347591Y-130018639D01*
X70392511Y-130357439D01*
X70502664Y-130680966D01*
X70608662Y-130879274D01*
X70883286Y-130987106D01*
X70855392Y-131015000D01*
X70673740Y-131015000D01*
X70386842Y-131072068D01*
X70116589Y-131184010D01*
X69873368Y-131346525D01*
X69666525Y-131553368D01*
X69504010Y-131796589D01*
X69392068Y-132066842D01*
X69335000Y-132353740D01*
X64685000Y-132353740D01*
X64685000Y-128753288D01*
X71062893Y-128753288D01*
X72090000Y-129780395D01*
X73117107Y-128753288D01*
X73009274Y-128478662D01*
X72702616Y-128327784D01*
X72372415Y-128239631D01*
X72031361Y-128217591D01*
X71692561Y-128262511D01*
X71369034Y-128372664D01*
X71170726Y-128478662D01*
X71062893Y-128753288D01*
X64685000Y-128753288D01*
X64685000Y-127249117D01*
X76705000Y-127249117D01*
X76705000Y-127590883D01*
X76771675Y-127926081D01*
X76902463Y-128241831D01*
X77092337Y-128525998D01*
X77334002Y-128767663D01*
X77618169Y-128957537D01*
X77933919Y-129088325D01*
X78269117Y-129155000D01*
X78610883Y-129155000D01*
X78946081Y-129088325D01*
X79031312Y-129053021D01*
X80993291Y-131015000D01*
X80833740Y-131015000D01*
X80546842Y-131072068D01*
X80276589Y-131184010D01*
X80033368Y-131346525D01*
X79826525Y-131553368D01*
X79664010Y-131796589D01*
X79552068Y-132066842D01*
X79495000Y-132353740D01*
X79495000Y-132646260D01*
X79552068Y-132933158D01*
X79664010Y-133203411D01*
X79826525Y-133446632D01*
X80033368Y-133653475D01*
X80276589Y-133815990D01*
X80546842Y-133927932D01*
X80833740Y-133985000D01*
X81126260Y-133985000D01*
X81413158Y-133927932D01*
X81683411Y-133815990D01*
X81926632Y-133653475D01*
X82133475Y-133446632D01*
X82295990Y-133203411D01*
X82407932Y-132933158D01*
X82465000Y-132646260D01*
X82465000Y-132486709D01*
X86973400Y-136995110D01*
X86973401Y-146793807D01*
X86969836Y-146830000D01*
X86979265Y-146925729D01*
X86984059Y-146974399D01*
X87026179Y-147113249D01*
X87094577Y-147241213D01*
X87186626Y-147353375D01*
X87214732Y-147376441D01*
X105592132Y-165753841D01*
X105464010Y-165945589D01*
X105352068Y-166215842D01*
X105295000Y-166502740D01*
X105295000Y-166795260D01*
X105352068Y-167082158D01*
X105464010Y-167352411D01*
X105626525Y-167595632D01*
X105833368Y-167802475D01*
X106076589Y-167964990D01*
X106346842Y-168076932D01*
X106633740Y-168134000D01*
X106926260Y-168134000D01*
X107213158Y-168076932D01*
X107483411Y-167964990D01*
X107726632Y-167802475D01*
X107933475Y-167595632D01*
X108050000Y-167421240D01*
X108166525Y-167595632D01*
X108373368Y-167802475D01*
X108616589Y-167964990D01*
X108886842Y-168076932D01*
X109173740Y-168134000D01*
X109466260Y-168134000D01*
X109753158Y-168076932D01*
X110023411Y-167964990D01*
X110266632Y-167802475D01*
X110473475Y-167595632D01*
X110590000Y-167421240D01*
X110706525Y-167595632D01*
X110913368Y-167802475D01*
X111156589Y-167964990D01*
X111426842Y-168076932D01*
X111713740Y-168134000D01*
X112006260Y-168134000D01*
X112293158Y-168076932D01*
X112563411Y-167964990D01*
X112806632Y-167802475D01*
X113013475Y-167595632D01*
X113130000Y-167421240D01*
X113246525Y-167595632D01*
X113453368Y-167802475D01*
X113696589Y-167964990D01*
X113966842Y-168076932D01*
X114253740Y-168134000D01*
X114546260Y-168134000D01*
X114833158Y-168076932D01*
X115103411Y-167964990D01*
X115346632Y-167802475D01*
X115553475Y-167595632D01*
X115670000Y-167421240D01*
X115786525Y-167595632D01*
X115993368Y-167802475D01*
X116236589Y-167964990D01*
X116506842Y-168076932D01*
X116793740Y-168134000D01*
X117086260Y-168134000D01*
X117373158Y-168076932D01*
X117643411Y-167964990D01*
X117886632Y-167802475D01*
X118093475Y-167595632D01*
X118210000Y-167421240D01*
X118326525Y-167595632D01*
X118533368Y-167802475D01*
X118776589Y-167964990D01*
X119046842Y-168076932D01*
X119333740Y-168134000D01*
X119626260Y-168134000D01*
X119913158Y-168076932D01*
X120183411Y-167964990D01*
X120426632Y-167802475D01*
X120633475Y-167595632D01*
X120750000Y-167421240D01*
X120866525Y-167595632D01*
X121073368Y-167802475D01*
X121316589Y-167964990D01*
X121586842Y-168076932D01*
X121873740Y-168134000D01*
X122166260Y-168134000D01*
X122453158Y-168076932D01*
X122723411Y-167964990D01*
X122966632Y-167802475D01*
X123173475Y-167595632D01*
X123290000Y-167421240D01*
X123406525Y-167595632D01*
X123613368Y-167802475D01*
X123856589Y-167964990D01*
X124126842Y-168076932D01*
X124413740Y-168134000D01*
X124706260Y-168134000D01*
X124993158Y-168076932D01*
X125263411Y-167964990D01*
X125506632Y-167802475D01*
X125713475Y-167595632D01*
X125830000Y-167421240D01*
X125946525Y-167595632D01*
X126153368Y-167802475D01*
X126396589Y-167964990D01*
X126666842Y-168076932D01*
X126953740Y-168134000D01*
X127246260Y-168134000D01*
X127533158Y-168076932D01*
X127803411Y-167964990D01*
X128046632Y-167802475D01*
X128253475Y-167595632D01*
X128370000Y-167421240D01*
X128486525Y-167595632D01*
X128693368Y-167802475D01*
X128936589Y-167964990D01*
X129206842Y-168076932D01*
X129493740Y-168134000D01*
X129786260Y-168134000D01*
X130073158Y-168076932D01*
X130343411Y-167964990D01*
X130493197Y-167864906D01*
X131063554Y-168435263D01*
X131086625Y-168463375D01*
X131198787Y-168555424D01*
X131326751Y-168623822D01*
X131465601Y-168665942D01*
X131573814Y-168676600D01*
X131573823Y-168676600D01*
X131609999Y-168680163D01*
X131646175Y-168676600D01*
X135263817Y-168676600D01*
X135300000Y-168680164D01*
X135336183Y-168676600D01*
X135336186Y-168676600D01*
X135444399Y-168665942D01*
X135583249Y-168623822D01*
X135711213Y-168555424D01*
X135823375Y-168463375D01*
X135846445Y-168435264D01*
X136412798Y-167868912D01*
X136556589Y-167964990D01*
X136826842Y-168076932D01*
X137113740Y-168134000D01*
X137406260Y-168134000D01*
X137693158Y-168076932D01*
X137963411Y-167964990D01*
X138206632Y-167802475D01*
X138413475Y-167595632D01*
X138575990Y-167352411D01*
X138687932Y-167082158D01*
X138745000Y-166795260D01*
X138745000Y-166502740D01*
X138687932Y-166215842D01*
X138575990Y-165945589D01*
X138413475Y-165702368D01*
X138281620Y-165570513D01*
X138354180Y-165548502D01*
X138464494Y-165489537D01*
X138561185Y-165410185D01*
X138640537Y-165313494D01*
X138699502Y-165203180D01*
X138735812Y-165083482D01*
X138748072Y-164959000D01*
X138745000Y-164394750D01*
X138586250Y-164236000D01*
X137387000Y-164236000D01*
X137387000Y-164256000D01*
X137133000Y-164256000D01*
X137133000Y-164236000D01*
X137113000Y-164236000D01*
X137113000Y-163982000D01*
X137133000Y-163982000D01*
X137133000Y-162782750D01*
X137387000Y-162782750D01*
X137387000Y-163982000D01*
X138586250Y-163982000D01*
X138745000Y-163823250D01*
X138746094Y-163622285D01*
X154165000Y-163622285D01*
X154165000Y-164377715D01*
X154312377Y-165118628D01*
X154601467Y-165816554D01*
X155021161Y-166444670D01*
X155555330Y-166978839D01*
X156183446Y-167398533D01*
X156881372Y-167687623D01*
X157622285Y-167835000D01*
X158377715Y-167835000D01*
X159118628Y-167687623D01*
X159816554Y-167398533D01*
X160444670Y-166978839D01*
X160978839Y-166444670D01*
X161398533Y-165816554D01*
X161687623Y-165118628D01*
X161835000Y-164377715D01*
X161835000Y-163622285D01*
X161687623Y-162881372D01*
X161398533Y-162183446D01*
X160978839Y-161555330D01*
X160444670Y-161021161D01*
X159816554Y-160601467D01*
X159118628Y-160312377D01*
X158377715Y-160165000D01*
X157622285Y-160165000D01*
X156881372Y-160312377D01*
X156183446Y-160601467D01*
X155555330Y-161021161D01*
X155021161Y-161555330D01*
X154601467Y-162183446D01*
X154312377Y-162881372D01*
X154165000Y-163622285D01*
X138746094Y-163622285D01*
X138748072Y-163259000D01*
X138735812Y-163134518D01*
X138699502Y-163014820D01*
X138640537Y-162904506D01*
X138561185Y-162807815D01*
X138464494Y-162728463D01*
X138354180Y-162669498D01*
X138234482Y-162633188D01*
X138110000Y-162620928D01*
X137545750Y-162624000D01*
X137387000Y-162782750D01*
X137133000Y-162782750D01*
X136974250Y-162624000D01*
X136410000Y-162620928D01*
X136285518Y-162633188D01*
X136165820Y-162669498D01*
X136143264Y-162681554D01*
X126566600Y-153104891D01*
X126566600Y-142517384D01*
X126654010Y-142728411D01*
X126816525Y-142971632D01*
X127023368Y-143178475D01*
X127266589Y-143340990D01*
X127536842Y-143452932D01*
X127823740Y-143510000D01*
X128116260Y-143510000D01*
X128403158Y-143452932D01*
X128673411Y-143340990D01*
X128916632Y-143178475D01*
X129123475Y-142971632D01*
X129285990Y-142728411D01*
X129397932Y-142458158D01*
X129455000Y-142171260D01*
X129455000Y-141878740D01*
X129432471Y-141765475D01*
X130415000Y-141765475D01*
X130415000Y-142284525D01*
X130516261Y-142793601D01*
X130714893Y-143273141D01*
X131003262Y-143704715D01*
X131370285Y-144071738D01*
X131801859Y-144360107D01*
X132281399Y-144558739D01*
X132790475Y-144660000D01*
X133309525Y-144660000D01*
X133818601Y-144558739D01*
X134298141Y-144360107D01*
X134729715Y-144071738D01*
X135096738Y-143704715D01*
X135385107Y-143273141D01*
X135583739Y-142793601D01*
X135685000Y-142284525D01*
X135685000Y-141878740D01*
X136645000Y-141878740D01*
X136645000Y-142171260D01*
X136702068Y-142458158D01*
X136814010Y-142728411D01*
X136976525Y-142971632D01*
X137183368Y-143178475D01*
X137426589Y-143340990D01*
X137696842Y-143452932D01*
X137983740Y-143510000D01*
X138276260Y-143510000D01*
X138563158Y-143452932D01*
X138833411Y-143340990D01*
X139076632Y-143178475D01*
X139283475Y-142971632D01*
X139445990Y-142728411D01*
X139557932Y-142458158D01*
X139615000Y-142171260D01*
X139615000Y-141878740D01*
X145535000Y-141878740D01*
X145535000Y-142171260D01*
X145592068Y-142458158D01*
X145704010Y-142728411D01*
X145866525Y-142971632D01*
X146073368Y-143178475D01*
X146316589Y-143340990D01*
X146586842Y-143452932D01*
X146873740Y-143510000D01*
X147166260Y-143510000D01*
X147453158Y-143452932D01*
X147723411Y-143340990D01*
X147966632Y-143178475D01*
X148173475Y-142971632D01*
X148335990Y-142728411D01*
X148447932Y-142458158D01*
X148505000Y-142171260D01*
X148505000Y-141878740D01*
X148482471Y-141765475D01*
X149465000Y-141765475D01*
X149465000Y-142284525D01*
X149566261Y-142793601D01*
X149764893Y-143273141D01*
X150053262Y-143704715D01*
X150420285Y-144071738D01*
X150851859Y-144360107D01*
X151331399Y-144558739D01*
X151840475Y-144660000D01*
X152359525Y-144660000D01*
X152868601Y-144558739D01*
X153348141Y-144360107D01*
X153779715Y-144071738D01*
X154146738Y-143704715D01*
X154435107Y-143273141D01*
X154633739Y-142793601D01*
X154735000Y-142284525D01*
X154735000Y-141878740D01*
X155695000Y-141878740D01*
X155695000Y-142171260D01*
X155752068Y-142458158D01*
X155864010Y-142728411D01*
X156026525Y-142971632D01*
X156233368Y-143178475D01*
X156476589Y-143340990D01*
X156746842Y-143452932D01*
X157033740Y-143510000D01*
X157326260Y-143510000D01*
X157613158Y-143452932D01*
X157883411Y-143340990D01*
X158126632Y-143178475D01*
X158333475Y-142971632D01*
X158495990Y-142728411D01*
X158607932Y-142458158D01*
X158665000Y-142171260D01*
X158665000Y-141878740D01*
X158607932Y-141591842D01*
X158495990Y-141321589D01*
X158333475Y-141078368D01*
X158126632Y-140871525D01*
X157883411Y-140709010D01*
X157613158Y-140597068D01*
X157326260Y-140540000D01*
X157033740Y-140540000D01*
X156746842Y-140597068D01*
X156476589Y-140709010D01*
X156233368Y-140871525D01*
X156026525Y-141078368D01*
X155864010Y-141321589D01*
X155752068Y-141591842D01*
X155695000Y-141878740D01*
X154735000Y-141878740D01*
X154735000Y-141765475D01*
X154633739Y-141256399D01*
X154435107Y-140776859D01*
X154146738Y-140345285D01*
X153779715Y-139978262D01*
X153348141Y-139689893D01*
X152868601Y-139491261D01*
X152359525Y-139390000D01*
X151840475Y-139390000D01*
X151331399Y-139491261D01*
X150851859Y-139689893D01*
X150420285Y-139978262D01*
X150053262Y-140345285D01*
X149764893Y-140776859D01*
X149566261Y-141256399D01*
X149465000Y-141765475D01*
X148482471Y-141765475D01*
X148447932Y-141591842D01*
X148335990Y-141321589D01*
X148269650Y-141222304D01*
X148348639Y-141227409D01*
X148687439Y-141182489D01*
X149010966Y-141072336D01*
X149209274Y-140966338D01*
X149317107Y-140691712D01*
X148290000Y-139664605D01*
X148275858Y-139678748D01*
X148096253Y-139499143D01*
X148110395Y-139485000D01*
X148469605Y-139485000D01*
X149496712Y-140512107D01*
X149771338Y-140404274D01*
X149922216Y-140097616D01*
X150010369Y-139767415D01*
X150032409Y-139426361D01*
X149987489Y-139087561D01*
X149877336Y-138764034D01*
X149771338Y-138565726D01*
X149496712Y-138457893D01*
X148469605Y-139485000D01*
X148110395Y-139485000D01*
X147083288Y-138457893D01*
X146808662Y-138565726D01*
X146657784Y-138872384D01*
X146569631Y-139202585D01*
X146547591Y-139543639D01*
X146592511Y-139882439D01*
X146702664Y-140205966D01*
X146808662Y-140404274D01*
X147083286Y-140512106D01*
X147055392Y-140540000D01*
X146873740Y-140540000D01*
X146586842Y-140597068D01*
X146316589Y-140709010D01*
X146073368Y-140871525D01*
X145866525Y-141078368D01*
X145704010Y-141321589D01*
X145592068Y-141591842D01*
X145535000Y-141878740D01*
X139615000Y-141878740D01*
X139557932Y-141591842D01*
X139445990Y-141321589D01*
X139283475Y-141078368D01*
X139076632Y-140871525D01*
X138833411Y-140709010D01*
X138563158Y-140597068D01*
X138276260Y-140540000D01*
X137983740Y-140540000D01*
X137696842Y-140597068D01*
X137426589Y-140709010D01*
X137183368Y-140871525D01*
X136976525Y-141078368D01*
X136814010Y-141321589D01*
X136702068Y-141591842D01*
X136645000Y-141878740D01*
X135685000Y-141878740D01*
X135685000Y-141765475D01*
X135583739Y-141256399D01*
X135385107Y-140776859D01*
X135096738Y-140345285D01*
X134729715Y-139978262D01*
X134298141Y-139689893D01*
X133818601Y-139491261D01*
X133309525Y-139390000D01*
X132790475Y-139390000D01*
X132281399Y-139491261D01*
X131801859Y-139689893D01*
X131370285Y-139978262D01*
X131003262Y-140345285D01*
X130714893Y-140776859D01*
X130516261Y-141256399D01*
X130415000Y-141765475D01*
X129432471Y-141765475D01*
X129397932Y-141591842D01*
X129285990Y-141321589D01*
X129219650Y-141222304D01*
X129298639Y-141227409D01*
X129637439Y-141182489D01*
X129960966Y-141072336D01*
X130159274Y-140966338D01*
X130267107Y-140691712D01*
X129240000Y-139664605D01*
X129225858Y-139678748D01*
X129046253Y-139499143D01*
X129060395Y-139485000D01*
X129419605Y-139485000D01*
X130446712Y-140512107D01*
X130721338Y-140404274D01*
X130872216Y-140097616D01*
X130960369Y-139767415D01*
X130982409Y-139426361D01*
X130937489Y-139087561D01*
X130827336Y-138764034D01*
X130721338Y-138565726D01*
X130446712Y-138457893D01*
X129419605Y-139485000D01*
X129060395Y-139485000D01*
X128033288Y-138457893D01*
X127758662Y-138565726D01*
X127607784Y-138872384D01*
X127519631Y-139202585D01*
X127497591Y-139543639D01*
X127542511Y-139882439D01*
X127652664Y-140205966D01*
X127758662Y-140404274D01*
X128033286Y-140512106D01*
X128005392Y-140540000D01*
X127823740Y-140540000D01*
X127536842Y-140597068D01*
X127266589Y-140709010D01*
X127023368Y-140871525D01*
X126816525Y-141078368D01*
X126654010Y-141321589D01*
X126566600Y-141532616D01*
X126566600Y-138278288D01*
X128212893Y-138278288D01*
X129240000Y-139305395D01*
X130267107Y-138278288D01*
X130159274Y-138003662D01*
X129852616Y-137852784D01*
X129522415Y-137764631D01*
X129181361Y-137742591D01*
X128842561Y-137787511D01*
X128519034Y-137897664D01*
X128320726Y-138003662D01*
X128212893Y-138278288D01*
X126566600Y-138278288D01*
X126566600Y-136774117D01*
X133855000Y-136774117D01*
X133855000Y-137115883D01*
X133921675Y-137451081D01*
X134052463Y-137766831D01*
X134242337Y-138050998D01*
X134484002Y-138292663D01*
X134768169Y-138482537D01*
X135083919Y-138613325D01*
X135419117Y-138680000D01*
X135760883Y-138680000D01*
X136096081Y-138613325D01*
X136411831Y-138482537D01*
X136695998Y-138292663D01*
X136710373Y-138278288D01*
X147262893Y-138278288D01*
X148290000Y-139305395D01*
X149317107Y-138278288D01*
X149209274Y-138003662D01*
X148902616Y-137852784D01*
X148572415Y-137764631D01*
X148231361Y-137742591D01*
X147892561Y-137787511D01*
X147569034Y-137897664D01*
X147370726Y-138003662D01*
X147262893Y-138278288D01*
X136710373Y-138278288D01*
X136937663Y-138050998D01*
X137127537Y-137766831D01*
X137258325Y-137451081D01*
X137325000Y-137115883D01*
X137325000Y-136774117D01*
X152905000Y-136774117D01*
X152905000Y-137115883D01*
X152971675Y-137451081D01*
X153102463Y-137766831D01*
X153292337Y-138050998D01*
X153534002Y-138292663D01*
X153818169Y-138482537D01*
X154133919Y-138613325D01*
X154469117Y-138680000D01*
X154810883Y-138680000D01*
X155146081Y-138613325D01*
X155461831Y-138482537D01*
X155745998Y-138292663D01*
X155987663Y-138050998D01*
X156177537Y-137766831D01*
X156308325Y-137451081D01*
X156375000Y-137115883D01*
X156375000Y-136774117D01*
X156308325Y-136438919D01*
X156177537Y-136123169D01*
X155987663Y-135839002D01*
X155745998Y-135597337D01*
X155461831Y-135407463D01*
X155146081Y-135276675D01*
X154810883Y-135210000D01*
X154469117Y-135210000D01*
X154133919Y-135276675D01*
X153818169Y-135407463D01*
X153534002Y-135597337D01*
X153292337Y-135839002D01*
X153102463Y-136123169D01*
X152971675Y-136438919D01*
X152905000Y-136774117D01*
X137325000Y-136774117D01*
X137258325Y-136438919D01*
X137127537Y-136123169D01*
X136937663Y-135839002D01*
X136695998Y-135597337D01*
X136411831Y-135407463D01*
X136096081Y-135276675D01*
X135760883Y-135210000D01*
X135419117Y-135210000D01*
X135083919Y-135276675D01*
X134768169Y-135407463D01*
X134484002Y-135597337D01*
X134242337Y-135839002D01*
X134052463Y-136123169D01*
X133921675Y-136438919D01*
X133855000Y-136774117D01*
X126566600Y-136774117D01*
X126566600Y-123467384D01*
X126654010Y-123678411D01*
X126816525Y-123921632D01*
X127023368Y-124128475D01*
X127266589Y-124290990D01*
X127536842Y-124402932D01*
X127823740Y-124460000D01*
X128116260Y-124460000D01*
X128403158Y-124402932D01*
X128673411Y-124290990D01*
X128916632Y-124128475D01*
X129123475Y-123921632D01*
X129285990Y-123678411D01*
X129397932Y-123408158D01*
X129455000Y-123121260D01*
X129455000Y-122828740D01*
X129432471Y-122715475D01*
X130415000Y-122715475D01*
X130415000Y-123234525D01*
X130516261Y-123743601D01*
X130714893Y-124223141D01*
X131003262Y-124654715D01*
X131370285Y-125021738D01*
X131801859Y-125310107D01*
X132281399Y-125508739D01*
X132790475Y-125610000D01*
X133309525Y-125610000D01*
X133818601Y-125508739D01*
X134298141Y-125310107D01*
X134729715Y-125021738D01*
X135096738Y-124654715D01*
X135385107Y-124223141D01*
X135583739Y-123743601D01*
X135685000Y-123234525D01*
X135685000Y-122828740D01*
X136645000Y-122828740D01*
X136645000Y-123121260D01*
X136702068Y-123408158D01*
X136814010Y-123678411D01*
X136976525Y-123921632D01*
X137183368Y-124128475D01*
X137426589Y-124290990D01*
X137696842Y-124402932D01*
X137983740Y-124460000D01*
X138276260Y-124460000D01*
X138563158Y-124402932D01*
X138833411Y-124290990D01*
X139076632Y-124128475D01*
X139283475Y-123921632D01*
X139445990Y-123678411D01*
X139557932Y-123408158D01*
X139615000Y-123121260D01*
X139615000Y-122828740D01*
X145535000Y-122828740D01*
X145535000Y-123121260D01*
X145592068Y-123408158D01*
X145704010Y-123678411D01*
X145866525Y-123921632D01*
X146073368Y-124128475D01*
X146316589Y-124290990D01*
X146586842Y-124402932D01*
X146873740Y-124460000D01*
X147166260Y-124460000D01*
X147453158Y-124402932D01*
X147723411Y-124290990D01*
X147966632Y-124128475D01*
X148173475Y-123921632D01*
X148335990Y-123678411D01*
X148447932Y-123408158D01*
X148505000Y-123121260D01*
X148505000Y-122828740D01*
X148482471Y-122715475D01*
X149465000Y-122715475D01*
X149465000Y-123234525D01*
X149566261Y-123743601D01*
X149764893Y-124223141D01*
X150053262Y-124654715D01*
X150420285Y-125021738D01*
X150851859Y-125310107D01*
X151331399Y-125508739D01*
X151840475Y-125610000D01*
X152359525Y-125610000D01*
X152868601Y-125508739D01*
X153348141Y-125310107D01*
X153779715Y-125021738D01*
X154146738Y-124654715D01*
X154435107Y-124223141D01*
X154633739Y-123743601D01*
X154735000Y-123234525D01*
X154735000Y-122828740D01*
X155695000Y-122828740D01*
X155695000Y-123121260D01*
X155752068Y-123408158D01*
X155864010Y-123678411D01*
X156026525Y-123921632D01*
X156233368Y-124128475D01*
X156476589Y-124290990D01*
X156746842Y-124402932D01*
X157033740Y-124460000D01*
X157326260Y-124460000D01*
X157613158Y-124402932D01*
X157883411Y-124290990D01*
X158126632Y-124128475D01*
X158333475Y-123921632D01*
X158495990Y-123678411D01*
X158607932Y-123408158D01*
X158665000Y-123121260D01*
X158665000Y-122828740D01*
X158607932Y-122541842D01*
X158495990Y-122271589D01*
X158333475Y-122028368D01*
X158126632Y-121821525D01*
X157883411Y-121659010D01*
X157613158Y-121547068D01*
X157326260Y-121490000D01*
X157033740Y-121490000D01*
X156746842Y-121547068D01*
X156476589Y-121659010D01*
X156233368Y-121821525D01*
X156026525Y-122028368D01*
X155864010Y-122271589D01*
X155752068Y-122541842D01*
X155695000Y-122828740D01*
X154735000Y-122828740D01*
X154735000Y-122715475D01*
X154633739Y-122206399D01*
X154435107Y-121726859D01*
X154146738Y-121295285D01*
X153779715Y-120928262D01*
X153348141Y-120639893D01*
X152868601Y-120441261D01*
X152359525Y-120340000D01*
X151840475Y-120340000D01*
X151331399Y-120441261D01*
X150851859Y-120639893D01*
X150420285Y-120928262D01*
X150053262Y-121295285D01*
X149764893Y-121726859D01*
X149566261Y-122206399D01*
X149465000Y-122715475D01*
X148482471Y-122715475D01*
X148447932Y-122541842D01*
X148335990Y-122271589D01*
X148269650Y-122172304D01*
X148348639Y-122177409D01*
X148687439Y-122132489D01*
X149010966Y-122022336D01*
X149209274Y-121916338D01*
X149317107Y-121641712D01*
X148290000Y-120614605D01*
X148275858Y-120628748D01*
X148096253Y-120449143D01*
X148110395Y-120435000D01*
X148469605Y-120435000D01*
X149496712Y-121462107D01*
X149771338Y-121354274D01*
X149922216Y-121047616D01*
X150010369Y-120717415D01*
X150032409Y-120376361D01*
X149987489Y-120037561D01*
X149877336Y-119714034D01*
X149771338Y-119515726D01*
X149496712Y-119407893D01*
X148469605Y-120435000D01*
X148110395Y-120435000D01*
X147083288Y-119407893D01*
X146808662Y-119515726D01*
X146657784Y-119822384D01*
X146569631Y-120152585D01*
X146547591Y-120493639D01*
X146592511Y-120832439D01*
X146702664Y-121155966D01*
X146808662Y-121354274D01*
X147083286Y-121462106D01*
X147055392Y-121490000D01*
X146873740Y-121490000D01*
X146586842Y-121547068D01*
X146316589Y-121659010D01*
X146073368Y-121821525D01*
X145866525Y-122028368D01*
X145704010Y-122271589D01*
X145592068Y-122541842D01*
X145535000Y-122828740D01*
X139615000Y-122828740D01*
X139557932Y-122541842D01*
X139445990Y-122271589D01*
X139283475Y-122028368D01*
X139076632Y-121821525D01*
X138833411Y-121659010D01*
X138563158Y-121547068D01*
X138276260Y-121490000D01*
X137983740Y-121490000D01*
X137696842Y-121547068D01*
X137426589Y-121659010D01*
X137183368Y-121821525D01*
X136976525Y-122028368D01*
X136814010Y-122271589D01*
X136702068Y-122541842D01*
X136645000Y-122828740D01*
X135685000Y-122828740D01*
X135685000Y-122715475D01*
X135583739Y-122206399D01*
X135385107Y-121726859D01*
X135096738Y-121295285D01*
X134729715Y-120928262D01*
X134298141Y-120639893D01*
X133818601Y-120441261D01*
X133309525Y-120340000D01*
X132790475Y-120340000D01*
X132281399Y-120441261D01*
X131801859Y-120639893D01*
X131370285Y-120928262D01*
X131003262Y-121295285D01*
X130714893Y-121726859D01*
X130516261Y-122206399D01*
X130415000Y-122715475D01*
X129432471Y-122715475D01*
X129397932Y-122541842D01*
X129285990Y-122271589D01*
X129219650Y-122172304D01*
X129298639Y-122177409D01*
X129637439Y-122132489D01*
X129960966Y-122022336D01*
X130159274Y-121916338D01*
X130267107Y-121641712D01*
X129240000Y-120614605D01*
X129225858Y-120628748D01*
X129046253Y-120449143D01*
X129060395Y-120435000D01*
X129419605Y-120435000D01*
X130446712Y-121462107D01*
X130721338Y-121354274D01*
X130872216Y-121047616D01*
X130960369Y-120717415D01*
X130982409Y-120376361D01*
X130937489Y-120037561D01*
X130827336Y-119714034D01*
X130721338Y-119515726D01*
X130446712Y-119407893D01*
X129419605Y-120435000D01*
X129060395Y-120435000D01*
X128033288Y-119407893D01*
X127758662Y-119515726D01*
X127607784Y-119822384D01*
X127519631Y-120152585D01*
X127497591Y-120493639D01*
X127542511Y-120832439D01*
X127652664Y-121155966D01*
X127758662Y-121354274D01*
X128033286Y-121462106D01*
X128005392Y-121490000D01*
X127823740Y-121490000D01*
X127536842Y-121547068D01*
X127266589Y-121659010D01*
X127023368Y-121821525D01*
X126816525Y-122028368D01*
X126654010Y-122271589D01*
X126566600Y-122482616D01*
X126566600Y-119491186D01*
X126570164Y-119455000D01*
X126555942Y-119310601D01*
X126530972Y-119228288D01*
X128212893Y-119228288D01*
X129240000Y-120255395D01*
X130267107Y-119228288D01*
X130159274Y-118953662D01*
X129852616Y-118802784D01*
X129522415Y-118714631D01*
X129181361Y-118692591D01*
X128842561Y-118737511D01*
X128519034Y-118847664D01*
X128320726Y-118953662D01*
X128212893Y-119228288D01*
X126530972Y-119228288D01*
X126513822Y-119171751D01*
X126445424Y-119043787D01*
X126353375Y-118931625D01*
X126325269Y-118908559D01*
X125140827Y-117724117D01*
X133855000Y-117724117D01*
X133855000Y-118065883D01*
X133921675Y-118401081D01*
X134052463Y-118716831D01*
X134242337Y-119000998D01*
X134484002Y-119242663D01*
X134768169Y-119432537D01*
X135083919Y-119563325D01*
X135419117Y-119630000D01*
X135760883Y-119630000D01*
X136096081Y-119563325D01*
X136411831Y-119432537D01*
X136695998Y-119242663D01*
X136710373Y-119228288D01*
X147262893Y-119228288D01*
X148290000Y-120255395D01*
X149317107Y-119228288D01*
X149209274Y-118953662D01*
X148902616Y-118802784D01*
X148572415Y-118714631D01*
X148231361Y-118692591D01*
X147892561Y-118737511D01*
X147569034Y-118847664D01*
X147370726Y-118953662D01*
X147262893Y-119228288D01*
X136710373Y-119228288D01*
X136937663Y-119000998D01*
X137127537Y-118716831D01*
X137258325Y-118401081D01*
X137325000Y-118065883D01*
X137325000Y-117724117D01*
X152905000Y-117724117D01*
X152905000Y-118065883D01*
X152971675Y-118401081D01*
X153102463Y-118716831D01*
X153292337Y-119000998D01*
X153534002Y-119242663D01*
X153818169Y-119432537D01*
X154133919Y-119563325D01*
X154469117Y-119630000D01*
X154810883Y-119630000D01*
X155146081Y-119563325D01*
X155461831Y-119432537D01*
X155745998Y-119242663D01*
X155987663Y-119000998D01*
X156177537Y-118716831D01*
X156308325Y-118401081D01*
X156375000Y-118065883D01*
X156375000Y-117724117D01*
X156308325Y-117388919D01*
X156177537Y-117073169D01*
X155987663Y-116789002D01*
X155745998Y-116547337D01*
X155461831Y-116357463D01*
X155146081Y-116226675D01*
X154810883Y-116160000D01*
X154469117Y-116160000D01*
X154133919Y-116226675D01*
X153818169Y-116357463D01*
X153534002Y-116547337D01*
X153292337Y-116789002D01*
X153102463Y-117073169D01*
X152971675Y-117388919D01*
X152905000Y-117724117D01*
X137325000Y-117724117D01*
X137258325Y-117388919D01*
X137127537Y-117073169D01*
X136937663Y-116789002D01*
X136695998Y-116547337D01*
X136411831Y-116357463D01*
X136096081Y-116226675D01*
X135760883Y-116160000D01*
X135419117Y-116160000D01*
X135083919Y-116226675D01*
X134768169Y-116357463D01*
X134484002Y-116547337D01*
X134242337Y-116789002D01*
X134052463Y-117073169D01*
X133921675Y-117388919D01*
X133855000Y-117724117D01*
X125140827Y-117724117D01*
X122233703Y-114816993D01*
X128982612Y-114816993D01*
X129048137Y-115055860D01*
X129295116Y-115171760D01*
X129559960Y-115237250D01*
X129832492Y-115249812D01*
X130102238Y-115208965D01*
X130358832Y-115116277D01*
X130471863Y-115055860D01*
X130537388Y-114816993D01*
X129760000Y-114039605D01*
X128982612Y-114816993D01*
X122233703Y-114816993D01*
X121349202Y-113932492D01*
X128370188Y-113932492D01*
X128411035Y-114202238D01*
X128503723Y-114458832D01*
X128564140Y-114571863D01*
X128803007Y-114637388D01*
X129580395Y-113860000D01*
X128803007Y-113082612D01*
X128564140Y-113148137D01*
X128448240Y-113395116D01*
X128382750Y-113659960D01*
X128370188Y-113932492D01*
X121349202Y-113932492D01*
X117315037Y-109898328D01*
X117315032Y-109898322D01*
X115446710Y-108030000D01*
X128371928Y-108030000D01*
X128371928Y-109530000D01*
X128384188Y-109654482D01*
X128420498Y-109774180D01*
X128479463Y-109884494D01*
X128558815Y-109981185D01*
X128655506Y-110060537D01*
X128765820Y-110119502D01*
X128885518Y-110155812D01*
X128993483Y-110166445D01*
X128877114Y-110244201D01*
X128684201Y-110437114D01*
X128532629Y-110663957D01*
X128428225Y-110916011D01*
X128375000Y-111183589D01*
X128375000Y-111456411D01*
X128428225Y-111723989D01*
X128532629Y-111976043D01*
X128684201Y-112202886D01*
X128877114Y-112395799D01*
X129103957Y-112547371D01*
X129203279Y-112588511D01*
X129161168Y-112603723D01*
X129048137Y-112664140D01*
X128982612Y-112903007D01*
X129760000Y-113680395D01*
X129774143Y-113666253D01*
X129953748Y-113845858D01*
X129939605Y-113860000D01*
X130716993Y-114637388D01*
X130955860Y-114571863D01*
X131071760Y-114324884D01*
X131137250Y-114060040D01*
X131149812Y-113787508D01*
X131143390Y-113745099D01*
X131753554Y-114355263D01*
X131776625Y-114383375D01*
X131888787Y-114475424D01*
X132016751Y-114543822D01*
X132155601Y-114585942D01*
X132263814Y-114596600D01*
X132263823Y-114596600D01*
X132299999Y-114600163D01*
X132336175Y-114596600D01*
X136971321Y-114596600D01*
X137090363Y-114774759D01*
X137290241Y-114974637D01*
X137525273Y-115131680D01*
X137786426Y-115239853D01*
X138063665Y-115295000D01*
X138346335Y-115295000D01*
X138623574Y-115239853D01*
X138884727Y-115131680D01*
X139119759Y-114974637D01*
X139319637Y-114774759D01*
X139476680Y-114539727D01*
X139584853Y-114278574D01*
X139640000Y-114001335D01*
X139640000Y-113718665D01*
X144390000Y-113718665D01*
X144390000Y-114001335D01*
X144445147Y-114278574D01*
X144553320Y-114539727D01*
X144710363Y-114774759D01*
X144910241Y-114974637D01*
X145145273Y-115131680D01*
X145406426Y-115239853D01*
X145683665Y-115295000D01*
X145966335Y-115295000D01*
X146243574Y-115239853D01*
X146504727Y-115131680D01*
X146739759Y-114974637D01*
X146939637Y-114774759D01*
X147096680Y-114539727D01*
X147204853Y-114278574D01*
X147260000Y-114001335D01*
X147260000Y-113718665D01*
X147204853Y-113441426D01*
X147096680Y-113180273D01*
X146939637Y-112945241D01*
X146739759Y-112745363D01*
X146504727Y-112588320D01*
X146243574Y-112480147D01*
X145966335Y-112425000D01*
X145683665Y-112425000D01*
X145406426Y-112480147D01*
X145145273Y-112588320D01*
X144910241Y-112745363D01*
X144710363Y-112945241D01*
X144553320Y-113180273D01*
X144445147Y-113441426D01*
X144390000Y-113718665D01*
X139640000Y-113718665D01*
X139584853Y-113441426D01*
X139476680Y-113180273D01*
X139319637Y-112945241D01*
X139119759Y-112745363D01*
X138884727Y-112588320D01*
X138623574Y-112480147D01*
X138346335Y-112425000D01*
X138063665Y-112425000D01*
X137786426Y-112480147D01*
X137525273Y-112588320D01*
X137290241Y-112745363D01*
X137090363Y-112945241D01*
X136971321Y-113123400D01*
X132605109Y-113123400D01*
X131110676Y-111628967D01*
X131145000Y-111456411D01*
X131145000Y-111183589D01*
X131091775Y-110916011D01*
X130987371Y-110663957D01*
X130835799Y-110437114D01*
X130642886Y-110244201D01*
X130526517Y-110166445D01*
X130634482Y-110155812D01*
X130754180Y-110119502D01*
X130864494Y-110060537D01*
X130961185Y-109981185D01*
X131040537Y-109884494D01*
X131099502Y-109774180D01*
X131135812Y-109654482D01*
X131148072Y-109530000D01*
X131148072Y-108638665D01*
X136770000Y-108638665D01*
X136770000Y-108921335D01*
X136825147Y-109198574D01*
X136933320Y-109459727D01*
X137090363Y-109694759D01*
X137290241Y-109894637D01*
X137525273Y-110051680D01*
X137786426Y-110159853D01*
X138063665Y-110215000D01*
X138346335Y-110215000D01*
X138623574Y-110159853D01*
X138884727Y-110051680D01*
X139119759Y-109894637D01*
X139319637Y-109694759D01*
X139476680Y-109459727D01*
X139584853Y-109198574D01*
X139640000Y-108921335D01*
X139640000Y-108638665D01*
X139584853Y-108361426D01*
X139476680Y-108100273D01*
X139396317Y-107980000D01*
X144386928Y-107980000D01*
X144386928Y-109580000D01*
X144399188Y-109704482D01*
X144435498Y-109824180D01*
X144494463Y-109934494D01*
X144573815Y-110031185D01*
X144670506Y-110110537D01*
X144780820Y-110169502D01*
X144900518Y-110205812D01*
X145025000Y-110218072D01*
X146625000Y-110218072D01*
X146749482Y-110205812D01*
X146869180Y-110169502D01*
X146979494Y-110110537D01*
X147076185Y-110031185D01*
X147155537Y-109934494D01*
X147214502Y-109824180D01*
X147250812Y-109704482D01*
X147263072Y-109580000D01*
X147263072Y-107980000D01*
X147250812Y-107855518D01*
X147214502Y-107735820D01*
X147155537Y-107625506D01*
X147076185Y-107528815D01*
X146979494Y-107449463D01*
X146869180Y-107390498D01*
X146749482Y-107354188D01*
X146625000Y-107341928D01*
X145025000Y-107341928D01*
X144900518Y-107354188D01*
X144780820Y-107390498D01*
X144670506Y-107449463D01*
X144573815Y-107528815D01*
X144494463Y-107625506D01*
X144435498Y-107735820D01*
X144399188Y-107855518D01*
X144386928Y-107980000D01*
X139396317Y-107980000D01*
X139319637Y-107865241D01*
X139119759Y-107665363D01*
X138884727Y-107508320D01*
X138623574Y-107400147D01*
X138346335Y-107345000D01*
X138063665Y-107345000D01*
X137786426Y-107400147D01*
X137525273Y-107508320D01*
X137290241Y-107665363D01*
X137090363Y-107865241D01*
X136933320Y-108100273D01*
X136825147Y-108361426D01*
X136770000Y-108638665D01*
X131148072Y-108638665D01*
X131148072Y-108030000D01*
X131135812Y-107905518D01*
X131099502Y-107785820D01*
X131040537Y-107675506D01*
X130961185Y-107578815D01*
X130864494Y-107499463D01*
X130754180Y-107440498D01*
X130634482Y-107404188D01*
X130510000Y-107391928D01*
X129010000Y-107391928D01*
X128885518Y-107404188D01*
X128765820Y-107440498D01*
X128655506Y-107499463D01*
X128558815Y-107578815D01*
X128479463Y-107675506D01*
X128420498Y-107785820D01*
X128384188Y-107905518D01*
X128371928Y-108030000D01*
X115446710Y-108030000D01*
X114055772Y-106639062D01*
X114086842Y-106651932D01*
X114373740Y-106709000D01*
X114666260Y-106709000D01*
X114953158Y-106651932D01*
X115223411Y-106539990D01*
X115466632Y-106377475D01*
X115673475Y-106170632D01*
X115790000Y-105996240D01*
X115906525Y-106170632D01*
X116113368Y-106377475D01*
X116356589Y-106539990D01*
X116626842Y-106651932D01*
X116913740Y-106709000D01*
X117206260Y-106709000D01*
X117493158Y-106651932D01*
X117763411Y-106539990D01*
X118006632Y-106377475D01*
X118213475Y-106170632D01*
X118330000Y-105996240D01*
X118446525Y-106170632D01*
X118653368Y-106377475D01*
X118896589Y-106539990D01*
X119166842Y-106651932D01*
X119453740Y-106709000D01*
X119746260Y-106709000D01*
X120033158Y-106651932D01*
X120303411Y-106539990D01*
X120546632Y-106377475D01*
X120753475Y-106170632D01*
X120870000Y-105996240D01*
X120986525Y-106170632D01*
X121193368Y-106377475D01*
X121436589Y-106539990D01*
X121706842Y-106651932D01*
X121993740Y-106709000D01*
X122286260Y-106709000D01*
X122573158Y-106651932D01*
X122843411Y-106539990D01*
X123086632Y-106377475D01*
X123293475Y-106170632D01*
X123410000Y-105996240D01*
X123526525Y-106170632D01*
X123733368Y-106377475D01*
X123976589Y-106539990D01*
X124246842Y-106651932D01*
X124533740Y-106709000D01*
X124826260Y-106709000D01*
X125113158Y-106651932D01*
X125383411Y-106539990D01*
X125626632Y-106377475D01*
X125833475Y-106170632D01*
X125950000Y-105996240D01*
X126066525Y-106170632D01*
X126273368Y-106377475D01*
X126516589Y-106539990D01*
X126786842Y-106651932D01*
X127073740Y-106709000D01*
X127366260Y-106709000D01*
X127653158Y-106651932D01*
X127923411Y-106539990D01*
X128166632Y-106377475D01*
X128373475Y-106170632D01*
X128495195Y-105988466D01*
X128564822Y-106105355D01*
X128759731Y-106321588D01*
X128993080Y-106495641D01*
X129255901Y-106620825D01*
X129403110Y-106665476D01*
X129633000Y-106544155D01*
X129633000Y-105351000D01*
X129887000Y-105351000D01*
X129887000Y-106544155D01*
X130116890Y-106665476D01*
X130264099Y-106620825D01*
X130526920Y-106495641D01*
X130760269Y-106321588D01*
X130955178Y-106105355D01*
X131104157Y-105855252D01*
X131201481Y-105580891D01*
X131080814Y-105351000D01*
X129887000Y-105351000D01*
X129633000Y-105351000D01*
X129613000Y-105351000D01*
X129613000Y-105097000D01*
X129633000Y-105097000D01*
X129633000Y-103903845D01*
X129887000Y-103903845D01*
X129887000Y-105097000D01*
X131080814Y-105097000D01*
X131201481Y-104867109D01*
X131104157Y-104592748D01*
X130955178Y-104342645D01*
X130760269Y-104126412D01*
X130526920Y-103952359D01*
X130264099Y-103827175D01*
X130116890Y-103782524D01*
X129887000Y-103903845D01*
X129633000Y-103903845D01*
X129403110Y-103782524D01*
X129255901Y-103827175D01*
X128993080Y-103952359D01*
X128759731Y-104126412D01*
X128564822Y-104342645D01*
X128495195Y-104459534D01*
X128373475Y-104277368D01*
X128166632Y-104070525D01*
X127923411Y-103908010D01*
X127653158Y-103796068D01*
X127366260Y-103739000D01*
X127073740Y-103739000D01*
X126786842Y-103796068D01*
X126516589Y-103908010D01*
X126273368Y-104070525D01*
X126066525Y-104277368D01*
X125950000Y-104451760D01*
X125833475Y-104277368D01*
X125626632Y-104070525D01*
X125383411Y-103908010D01*
X125113158Y-103796068D01*
X124826260Y-103739000D01*
X124533740Y-103739000D01*
X124246842Y-103796068D01*
X123976589Y-103908010D01*
X123733368Y-104070525D01*
X123526525Y-104277368D01*
X123410000Y-104451760D01*
X123293475Y-104277368D01*
X123086632Y-104070525D01*
X122843411Y-103908010D01*
X122573158Y-103796068D01*
X122286260Y-103739000D01*
X121993740Y-103739000D01*
X121706842Y-103796068D01*
X121436589Y-103908010D01*
X121193368Y-104070525D01*
X120986525Y-104277368D01*
X120870000Y-104451760D01*
X120753475Y-104277368D01*
X120546632Y-104070525D01*
X120303411Y-103908010D01*
X120033158Y-103796068D01*
X119746260Y-103739000D01*
X119453740Y-103739000D01*
X119166842Y-103796068D01*
X118896589Y-103908010D01*
X118653368Y-104070525D01*
X118446525Y-104277368D01*
X118330000Y-104451760D01*
X118213475Y-104277368D01*
X118006632Y-104070525D01*
X117763411Y-103908010D01*
X117493158Y-103796068D01*
X117206260Y-103739000D01*
X116913740Y-103739000D01*
X116626842Y-103796068D01*
X116356589Y-103908010D01*
X116113368Y-104070525D01*
X115906525Y-104277368D01*
X115790000Y-104451760D01*
X115673475Y-104277368D01*
X115466632Y-104070525D01*
X115223411Y-103908010D01*
X114953158Y-103796068D01*
X114666260Y-103739000D01*
X114373740Y-103739000D01*
X114086842Y-103796068D01*
X113816589Y-103908010D01*
X113573368Y-104070525D01*
X113366525Y-104277368D01*
X113250000Y-104451760D01*
X113133475Y-104277368D01*
X112926632Y-104070525D01*
X112683411Y-103908010D01*
X112413158Y-103796068D01*
X112126260Y-103739000D01*
X111833740Y-103739000D01*
X111546842Y-103796068D01*
X111276589Y-103908010D01*
X111033368Y-104070525D01*
X110826525Y-104277368D01*
X110710000Y-104451760D01*
X110593475Y-104277368D01*
X110386632Y-104070525D01*
X110143411Y-103908010D01*
X109873158Y-103796068D01*
X109586260Y-103739000D01*
X109293740Y-103739000D01*
X109006842Y-103796068D01*
X108772071Y-103893313D01*
X108758375Y-103876625D01*
X108646213Y-103784576D01*
X108518249Y-103716178D01*
X108379399Y-103674058D01*
X108271186Y-103663400D01*
X108271183Y-103663400D01*
X108235000Y-103659836D01*
X108198817Y-103663400D01*
X103706175Y-103663400D01*
X103669999Y-103659837D01*
X103633823Y-103663400D01*
X103633814Y-103663400D01*
X103525601Y-103674058D01*
X103386751Y-103716178D01*
X103258787Y-103784576D01*
X103146625Y-103876625D01*
X103123554Y-103904737D01*
X102862199Y-104166092D01*
X102766632Y-104070525D01*
X102523411Y-103908010D01*
X102253158Y-103796068D01*
X101966260Y-103739000D01*
X101673740Y-103739000D01*
X101386842Y-103796068D01*
X101116589Y-103908010D01*
X100873368Y-104070525D01*
X100666525Y-104277368D01*
X100550000Y-104451760D01*
X100433475Y-104277368D01*
X100226632Y-104070525D01*
X99983411Y-103908010D01*
X99713158Y-103796068D01*
X99426260Y-103739000D01*
X99133740Y-103739000D01*
X98846842Y-103796068D01*
X98576589Y-103908010D01*
X98333368Y-104070525D01*
X98126525Y-104277368D01*
X98010000Y-104451760D01*
X97893475Y-104277368D01*
X97686632Y-104070525D01*
X97443411Y-103908010D01*
X97173158Y-103796068D01*
X96886260Y-103739000D01*
X96593740Y-103739000D01*
X96306842Y-103796068D01*
X96036589Y-103908010D01*
X95793368Y-104070525D01*
X95586525Y-104277368D01*
X95470000Y-104451760D01*
X95353475Y-104277368D01*
X95146632Y-104070525D01*
X94903411Y-103908010D01*
X94633158Y-103796068D01*
X94346260Y-103739000D01*
X94053740Y-103739000D01*
X93766842Y-103796068D01*
X93496589Y-103908010D01*
X93253368Y-104070525D01*
X93046525Y-104277368D01*
X92930000Y-104451760D01*
X92813475Y-104277368D01*
X92606632Y-104070525D01*
X92363411Y-103908010D01*
X92093158Y-103796068D01*
X91806260Y-103739000D01*
X91513740Y-103739000D01*
X91226842Y-103796068D01*
X90956589Y-103908010D01*
X90713368Y-104070525D01*
X90506525Y-104277368D01*
X90390000Y-104451760D01*
X90273475Y-104277368D01*
X90066632Y-104070525D01*
X89823411Y-103908010D01*
X89553158Y-103796068D01*
X89266260Y-103739000D01*
X88973740Y-103739000D01*
X88686842Y-103796068D01*
X88416589Y-103908010D01*
X88173368Y-104070525D01*
X87966525Y-104277368D01*
X87850000Y-104451760D01*
X87733475Y-104277368D01*
X87526632Y-104070525D01*
X87283411Y-103908010D01*
X87013158Y-103796068D01*
X86726260Y-103739000D01*
X86433740Y-103739000D01*
X86146842Y-103796068D01*
X85876589Y-103908010D01*
X85633368Y-104070525D01*
X85426525Y-104277368D01*
X85310000Y-104451760D01*
X85193475Y-104277368D01*
X84986632Y-104070525D01*
X84743411Y-103908010D01*
X84473158Y-103796068D01*
X84186260Y-103739000D01*
X83893740Y-103739000D01*
X83606842Y-103796068D01*
X83336589Y-103908010D01*
X83093368Y-104070525D01*
X82961513Y-104202380D01*
X82939502Y-104129820D01*
X82880537Y-104019506D01*
X82801185Y-103922815D01*
X82704494Y-103843463D01*
X82594180Y-103784498D01*
X82474482Y-103748188D01*
X82350000Y-103735928D01*
X80650000Y-103735928D01*
X80525518Y-103748188D01*
X80405820Y-103784498D01*
X80295506Y-103843463D01*
X80198815Y-103922815D01*
X80119463Y-104019506D01*
X80060498Y-104129820D01*
X80024188Y-104249518D01*
X80011928Y-104374000D01*
X80011928Y-106074000D01*
X80024188Y-106198482D01*
X80060498Y-106318180D01*
X80119463Y-106428494D01*
X80198815Y-106525185D01*
X80295506Y-106604537D01*
X80405820Y-106663502D01*
X80525518Y-106699812D01*
X80650000Y-106712072D01*
X82350000Y-106712072D01*
X82474482Y-106699812D01*
X82594180Y-106663502D01*
X82704494Y-106604537D01*
X82801185Y-106525185D01*
X82880537Y-106428494D01*
X82939502Y-106318180D01*
X82961513Y-106245620D01*
X83093368Y-106377475D01*
X83336589Y-106539990D01*
X83606842Y-106651932D01*
X83893740Y-106709000D01*
X84186260Y-106709000D01*
X84473158Y-106651932D01*
X84743411Y-106539990D01*
X84986632Y-106377475D01*
X85193475Y-106170632D01*
X85310000Y-105996240D01*
X85426525Y-106170632D01*
X85633368Y-106377475D01*
X85876589Y-106539990D01*
X86146842Y-106651932D01*
X86433740Y-106709000D01*
X86726260Y-106709000D01*
X87013158Y-106651932D01*
X87283411Y-106539990D01*
X87526632Y-106377475D01*
X87733475Y-106170632D01*
X87850000Y-105996240D01*
X87966525Y-106170632D01*
X88173368Y-106377475D01*
X88416589Y-106539990D01*
X88686842Y-106651932D01*
X88973740Y-106709000D01*
X89266260Y-106709000D01*
X89553158Y-106651932D01*
X89823411Y-106539990D01*
X90066632Y-106377475D01*
X90273475Y-106170632D01*
X90390000Y-105996240D01*
X90506525Y-106170632D01*
X90713368Y-106377475D01*
X90956589Y-106539990D01*
X91226842Y-106651932D01*
X91513740Y-106709000D01*
X91806260Y-106709000D01*
X92093158Y-106651932D01*
X92363411Y-106539990D01*
X92606632Y-106377475D01*
X92813475Y-106170632D01*
X92930000Y-105996240D01*
X93046525Y-106170632D01*
X93253368Y-106377475D01*
X93496589Y-106539990D01*
X93766842Y-106651932D01*
X94053740Y-106709000D01*
X94346260Y-106709000D01*
X94633158Y-106651932D01*
X94903411Y-106539990D01*
X95146632Y-106377475D01*
X95353475Y-106170632D01*
X95470000Y-105996240D01*
X95586525Y-106170632D01*
X95793368Y-106377475D01*
X96036589Y-106539990D01*
X96306842Y-106651932D01*
X96593740Y-106709000D01*
X96802291Y-106709000D01*
X103419812Y-113326522D01*
X103419812Y-117058103D01*
X97186446Y-110824737D01*
X97163375Y-110796625D01*
X97051213Y-110704576D01*
X96923249Y-110636178D01*
X96784399Y-110594058D01*
X96676186Y-110583400D01*
X96676183Y-110583400D01*
X96640000Y-110579836D01*
X96603817Y-110583400D01*
X95433679Y-110583400D01*
X95314637Y-110405241D01*
X95114759Y-110205363D01*
X94879727Y-110048320D01*
X94618574Y-109940147D01*
X94341335Y-109885000D01*
X94058665Y-109885000D01*
X93781426Y-109940147D01*
X93520273Y-110048320D01*
X93285241Y-110205363D01*
X93085363Y-110405241D01*
X92928320Y-110640273D01*
X92820147Y-110901426D01*
X92765000Y-111178665D01*
X92765000Y-111461335D01*
X92820147Y-111738574D01*
X92928320Y-111999727D01*
X93085363Y-112234759D01*
X93285241Y-112434637D01*
X93520273Y-112591680D01*
X93781426Y-112699853D01*
X94058665Y-112755000D01*
X94341335Y-112755000D01*
X94618574Y-112699853D01*
X94879727Y-112591680D01*
X95114759Y-112434637D01*
X95314637Y-112234759D01*
X95433679Y-112056600D01*
X96334891Y-112056600D01*
X103013401Y-118735110D01*
X103013400Y-135768567D01*
X103009836Y-135804750D01*
X103013400Y-135840933D01*
X103013400Y-135840935D01*
X103024058Y-135949148D01*
X103066178Y-136087998D01*
X103134576Y-136215962D01*
X103226625Y-136328124D01*
X103254732Y-136351191D01*
X114818202Y-147914662D01*
X114818201Y-158881073D01*
X114541335Y-158826000D01*
X114258665Y-158826000D01*
X113981426Y-158881147D01*
X113720273Y-158989320D01*
X113485241Y-159146363D01*
X113285363Y-159346241D01*
X113130000Y-159578759D01*
X112974637Y-159346241D01*
X112774759Y-159146363D01*
X112539727Y-158989320D01*
X112278574Y-158881147D01*
X112001335Y-158826000D01*
X111718665Y-158826000D01*
X111441426Y-158881147D01*
X111180273Y-158989320D01*
X110945241Y-159146363D01*
X110745363Y-159346241D01*
X110590000Y-159578759D01*
X110434637Y-159346241D01*
X110234759Y-159146363D01*
X109999727Y-158989320D01*
X109738574Y-158881147D01*
X109461335Y-158826000D01*
X109178665Y-158826000D01*
X108968512Y-158867803D01*
X98226600Y-148125891D01*
X98226600Y-144187259D01*
X104840000Y-144187259D01*
X104840000Y-144612741D01*
X104923008Y-145030049D01*
X105085833Y-145423144D01*
X105322219Y-145776920D01*
X105623080Y-146077781D01*
X105976856Y-146314167D01*
X106369951Y-146476992D01*
X106787259Y-146560000D01*
X107212741Y-146560000D01*
X107630049Y-146476992D01*
X108023144Y-146314167D01*
X108376920Y-146077781D01*
X108677781Y-145776920D01*
X108914167Y-145423144D01*
X109076992Y-145030049D01*
X109160000Y-144612741D01*
X109160000Y-144187259D01*
X109076992Y-143769951D01*
X108914167Y-143376856D01*
X108677781Y-143023080D01*
X108376920Y-142722219D01*
X108023144Y-142485833D01*
X107630049Y-142323008D01*
X107212741Y-142240000D01*
X106787259Y-142240000D01*
X106369951Y-142323008D01*
X105976856Y-142485833D01*
X105623080Y-142722219D01*
X105322219Y-143023080D01*
X105085833Y-143376856D01*
X104923008Y-143769951D01*
X104840000Y-144187259D01*
X98226600Y-144187259D01*
X98226600Y-141878740D01*
X98545000Y-141878740D01*
X98545000Y-142171260D01*
X98602068Y-142458158D01*
X98714010Y-142728411D01*
X98876525Y-142971632D01*
X99083368Y-143178475D01*
X99326589Y-143340990D01*
X99596842Y-143452932D01*
X99883740Y-143510000D01*
X100176260Y-143510000D01*
X100463158Y-143452932D01*
X100733411Y-143340990D01*
X100976632Y-143178475D01*
X101183475Y-142971632D01*
X101345990Y-142728411D01*
X101457932Y-142458158D01*
X101515000Y-142171260D01*
X101515000Y-141878740D01*
X101457932Y-141591842D01*
X101345990Y-141321589D01*
X101183475Y-141078368D01*
X100976632Y-140871525D01*
X100733411Y-140709010D01*
X100463158Y-140597068D01*
X100176260Y-140540000D01*
X99883740Y-140540000D01*
X99596842Y-140597068D01*
X99326589Y-140709010D01*
X99083368Y-140871525D01*
X98876525Y-141078368D01*
X98714010Y-141321589D01*
X98602068Y-141591842D01*
X98545000Y-141878740D01*
X98226600Y-141878740D01*
X98226600Y-138517841D01*
X98311831Y-138482537D01*
X98595998Y-138292663D01*
X98837663Y-138050998D01*
X99027537Y-137766831D01*
X99158325Y-137451081D01*
X99225000Y-137115883D01*
X99225000Y-136774117D01*
X99158325Y-136438919D01*
X99027537Y-136123169D01*
X98837663Y-135839002D01*
X98595998Y-135597337D01*
X98311831Y-135407463D01*
X97996081Y-135276675D01*
X97660883Y-135210000D01*
X97319117Y-135210000D01*
X96983919Y-135276675D01*
X96668169Y-135407463D01*
X96384002Y-135597337D01*
X96142337Y-135839002D01*
X95952463Y-136123169D01*
X95821675Y-136438919D01*
X95755000Y-136774117D01*
X95755000Y-137115883D01*
X95821675Y-137451081D01*
X95952463Y-137766831D01*
X96142337Y-138050998D01*
X96384002Y-138292663D01*
X96668169Y-138482537D01*
X96753400Y-138517841D01*
X96753400Y-140101947D01*
X96629715Y-139978262D01*
X96198141Y-139689893D01*
X95718601Y-139491261D01*
X95209525Y-139390000D01*
X94690475Y-139390000D01*
X94181399Y-139491261D01*
X93701859Y-139689893D01*
X93332600Y-139936624D01*
X93332600Y-130928509D01*
X97985273Y-126275836D01*
X98013374Y-126252775D01*
X98036437Y-126224673D01*
X98036442Y-126224668D01*
X98105423Y-126140614D01*
X98105425Y-126140612D01*
X98173822Y-126012649D01*
X98215942Y-125873799D01*
X98226600Y-125765586D01*
X98226600Y-125765577D01*
X98230163Y-125729401D01*
X98226600Y-125693225D01*
X98226600Y-122828740D01*
X98545000Y-122828740D01*
X98545000Y-123121260D01*
X98602068Y-123408158D01*
X98714010Y-123678411D01*
X98876525Y-123921632D01*
X99083368Y-124128475D01*
X99326589Y-124290990D01*
X99596842Y-124402932D01*
X99883740Y-124460000D01*
X100176260Y-124460000D01*
X100463158Y-124402932D01*
X100733411Y-124290990D01*
X100976632Y-124128475D01*
X101183475Y-123921632D01*
X101345990Y-123678411D01*
X101457932Y-123408158D01*
X101515000Y-123121260D01*
X101515000Y-122828740D01*
X101457932Y-122541842D01*
X101345990Y-122271589D01*
X101183475Y-122028368D01*
X100976632Y-121821525D01*
X100733411Y-121659010D01*
X100463158Y-121547068D01*
X100176260Y-121490000D01*
X99883740Y-121490000D01*
X99596842Y-121547068D01*
X99326589Y-121659010D01*
X99083368Y-121821525D01*
X98876525Y-122028368D01*
X98714010Y-122271589D01*
X98602068Y-122541842D01*
X98545000Y-122828740D01*
X98226600Y-122828740D01*
X98226600Y-119467841D01*
X98311831Y-119432537D01*
X98595998Y-119242663D01*
X98837663Y-119000998D01*
X99027537Y-118716831D01*
X99158325Y-118401081D01*
X99225000Y-118065883D01*
X99225000Y-117724117D01*
X99158325Y-117388919D01*
X99027537Y-117073169D01*
X98837663Y-116789002D01*
X98595998Y-116547337D01*
X98311831Y-116357463D01*
X97996081Y-116226675D01*
X97660883Y-116160000D01*
X97319117Y-116160000D01*
X96983919Y-116226675D01*
X96668169Y-116357463D01*
X96384002Y-116547337D01*
X96142337Y-116789002D01*
X95952463Y-117073169D01*
X95821675Y-117388919D01*
X95755000Y-117724117D01*
X95755000Y-118065883D01*
X95821675Y-118401081D01*
X95952463Y-118716831D01*
X96142337Y-119000998D01*
X96384002Y-119242663D01*
X96668169Y-119432537D01*
X96753401Y-119467841D01*
X96753401Y-121051948D01*
X96629715Y-120928262D01*
X96198141Y-120639893D01*
X95718601Y-120441261D01*
X95209525Y-120340000D01*
X94690475Y-120340000D01*
X94181399Y-120441261D01*
X93701859Y-120639893D01*
X93270285Y-120928262D01*
X92903262Y-121295285D01*
X92614893Y-121726859D01*
X92416261Y-122206399D01*
X92315000Y-122715475D01*
X92315000Y-123234525D01*
X92416261Y-123743601D01*
X92614893Y-124223141D01*
X92903262Y-124654715D01*
X93270285Y-125021738D01*
X93701859Y-125310107D01*
X94181399Y-125508739D01*
X94690475Y-125610000D01*
X95209525Y-125610000D01*
X95718601Y-125508739D01*
X96198141Y-125310107D01*
X96629715Y-125021738D01*
X96753400Y-124898053D01*
X96753400Y-125424290D01*
X92100732Y-130076959D01*
X92072626Y-130100025D01*
X92049560Y-130128131D01*
X92049558Y-130128133D01*
X91980576Y-130212188D01*
X91912178Y-130340153D01*
X91870059Y-130479002D01*
X91855836Y-130623400D01*
X91859401Y-130659593D01*
X91859401Y-137905323D01*
X91752616Y-137852784D01*
X91422415Y-137764631D01*
X91081361Y-137742591D01*
X90742561Y-137787511D01*
X90419034Y-137897664D01*
X90220726Y-138003662D01*
X90112893Y-138278288D01*
X91140000Y-139305395D01*
X91154143Y-139291253D01*
X91333748Y-139470858D01*
X91319605Y-139485000D01*
X91333748Y-139499143D01*
X91154143Y-139678748D01*
X91140000Y-139664605D01*
X91125858Y-139678748D01*
X90946253Y-139499143D01*
X90960395Y-139485000D01*
X89933288Y-138457893D01*
X89658662Y-138565726D01*
X89507784Y-138872384D01*
X89419631Y-139202585D01*
X89397591Y-139543639D01*
X89442511Y-139882439D01*
X89552664Y-140205966D01*
X89658662Y-140404274D01*
X89933286Y-140512106D01*
X89905392Y-140540000D01*
X89723740Y-140540000D01*
X89436842Y-140597068D01*
X89166589Y-140709010D01*
X88923368Y-140871525D01*
X88716525Y-141078368D01*
X88554010Y-141321589D01*
X88446600Y-141580901D01*
X88446600Y-136726186D01*
X88450164Y-136690000D01*
X88435942Y-136545601D01*
X88393822Y-136406752D01*
X88393822Y-136406751D01*
X88325424Y-136278787D01*
X88303305Y-136251835D01*
X88256442Y-136194732D01*
X88256437Y-136194727D01*
X88233374Y-136166625D01*
X88205274Y-136143564D01*
X80073021Y-128011312D01*
X80108325Y-127926081D01*
X80175000Y-127590883D01*
X80175000Y-127249117D01*
X80108325Y-126913919D01*
X79977537Y-126598169D01*
X79787663Y-126314002D01*
X79545998Y-126072337D01*
X79261831Y-125882463D01*
X78946081Y-125751675D01*
X78610883Y-125685000D01*
X78269117Y-125685000D01*
X77933919Y-125751675D01*
X77618169Y-125882463D01*
X77334002Y-126072337D01*
X77092337Y-126314002D01*
X76902463Y-126598169D01*
X76771675Y-126913919D01*
X76705000Y-127249117D01*
X64685000Y-127249117D01*
X64685000Y-120387259D01*
X66740000Y-120387259D01*
X66740000Y-120812741D01*
X66823008Y-121230049D01*
X66985833Y-121623144D01*
X67222219Y-121976920D01*
X67523080Y-122277781D01*
X67876856Y-122514167D01*
X68269951Y-122676992D01*
X68687259Y-122760000D01*
X69112741Y-122760000D01*
X69530049Y-122676992D01*
X69923144Y-122514167D01*
X70276920Y-122277781D01*
X70577781Y-121976920D01*
X70814167Y-121623144D01*
X70976992Y-121230049D01*
X71060000Y-120812741D01*
X71060000Y-120387259D01*
X71050695Y-120340475D01*
X81505000Y-120340475D01*
X81505000Y-120859525D01*
X81606261Y-121368601D01*
X81804893Y-121848141D01*
X82093262Y-122279715D01*
X82460285Y-122646738D01*
X82891859Y-122935107D01*
X83371399Y-123133739D01*
X83880475Y-123235000D01*
X84399525Y-123235000D01*
X84908601Y-123133739D01*
X85388141Y-122935107D01*
X85547330Y-122828740D01*
X88385000Y-122828740D01*
X88385000Y-123121260D01*
X88442068Y-123408158D01*
X88554010Y-123678411D01*
X88716525Y-123921632D01*
X88923368Y-124128475D01*
X89166589Y-124290990D01*
X89436842Y-124402932D01*
X89723740Y-124460000D01*
X90016260Y-124460000D01*
X90303158Y-124402932D01*
X90573411Y-124290990D01*
X90816632Y-124128475D01*
X91023475Y-123921632D01*
X91185990Y-123678411D01*
X91297932Y-123408158D01*
X91355000Y-123121260D01*
X91355000Y-122828740D01*
X91297932Y-122541842D01*
X91185990Y-122271589D01*
X91119650Y-122172304D01*
X91198639Y-122177409D01*
X91537439Y-122132489D01*
X91860966Y-122022336D01*
X92059274Y-121916338D01*
X92167107Y-121641712D01*
X91140000Y-120614605D01*
X91125858Y-120628748D01*
X90946253Y-120449143D01*
X90960395Y-120435000D01*
X91319605Y-120435000D01*
X92346712Y-121462107D01*
X92621338Y-121354274D01*
X92772216Y-121047616D01*
X92860369Y-120717415D01*
X92882409Y-120376361D01*
X92837489Y-120037561D01*
X92727336Y-119714034D01*
X92621338Y-119515726D01*
X92346712Y-119407893D01*
X91319605Y-120435000D01*
X90960395Y-120435000D01*
X89933288Y-119407893D01*
X89658662Y-119515726D01*
X89507784Y-119822384D01*
X89419631Y-120152585D01*
X89397591Y-120493639D01*
X89442511Y-120832439D01*
X89552664Y-121155966D01*
X89658662Y-121354274D01*
X89933286Y-121462106D01*
X89905392Y-121490000D01*
X89723740Y-121490000D01*
X89436842Y-121547068D01*
X89166589Y-121659010D01*
X88923368Y-121821525D01*
X88716525Y-122028368D01*
X88554010Y-122271589D01*
X88442068Y-122541842D01*
X88385000Y-122828740D01*
X85547330Y-122828740D01*
X85819715Y-122646738D01*
X86186738Y-122279715D01*
X86475107Y-121848141D01*
X86673739Y-121368601D01*
X86775000Y-120859525D01*
X86775000Y-120340475D01*
X86673739Y-119831399D01*
X86475107Y-119351859D01*
X86392540Y-119228288D01*
X90112893Y-119228288D01*
X91140000Y-120255395D01*
X92167107Y-119228288D01*
X92059274Y-118953662D01*
X91752616Y-118802784D01*
X91422415Y-118714631D01*
X91081361Y-118692591D01*
X90742561Y-118737511D01*
X90419034Y-118847664D01*
X90220726Y-118953662D01*
X90112893Y-119228288D01*
X86392540Y-119228288D01*
X86186738Y-118920285D01*
X85819715Y-118553262D01*
X85388141Y-118264893D01*
X84908601Y-118066261D01*
X84399525Y-117965000D01*
X83880475Y-117965000D01*
X83371399Y-118066261D01*
X82891859Y-118264893D01*
X82460285Y-118553262D01*
X82093262Y-118920285D01*
X81804893Y-119351859D01*
X81606261Y-119831399D01*
X81505000Y-120340475D01*
X71050695Y-120340475D01*
X70976992Y-119969951D01*
X70814167Y-119576856D01*
X70577781Y-119223080D01*
X70276920Y-118922219D01*
X69923144Y-118685833D01*
X69530049Y-118523008D01*
X69112741Y-118440000D01*
X68687259Y-118440000D01*
X68269951Y-118523008D01*
X67876856Y-118685833D01*
X67523080Y-118922219D01*
X67222219Y-119223080D01*
X66985833Y-119576856D01*
X66823008Y-119969951D01*
X66740000Y-120387259D01*
X64685000Y-120387259D01*
X64685000Y-114816993D01*
X80722612Y-114816993D01*
X80788137Y-115055860D01*
X81035116Y-115171760D01*
X81299960Y-115237250D01*
X81572492Y-115249812D01*
X81842238Y-115208965D01*
X82098832Y-115116277D01*
X82211863Y-115055860D01*
X82277388Y-114816993D01*
X81500000Y-114039605D01*
X80722612Y-114816993D01*
X64685000Y-114816993D01*
X64685000Y-113932492D01*
X80110188Y-113932492D01*
X80151035Y-114202238D01*
X80243723Y-114458832D01*
X80304140Y-114571863D01*
X80543007Y-114637388D01*
X81320395Y-113860000D01*
X81679605Y-113860000D01*
X82456993Y-114637388D01*
X82695860Y-114571863D01*
X82811760Y-114324884D01*
X82877250Y-114060040D01*
X82889812Y-113787508D01*
X82848965Y-113517762D01*
X82756277Y-113261168D01*
X82695860Y-113148137D01*
X82456993Y-113082612D01*
X81679605Y-113860000D01*
X81320395Y-113860000D01*
X80543007Y-113082612D01*
X80304140Y-113148137D01*
X80188240Y-113395116D01*
X80122750Y-113659960D01*
X80110188Y-113932492D01*
X64685000Y-113932492D01*
X64685000Y-108030000D01*
X80111928Y-108030000D01*
X80111928Y-109530000D01*
X80124188Y-109654482D01*
X80160498Y-109774180D01*
X80219463Y-109884494D01*
X80298815Y-109981185D01*
X80395506Y-110060537D01*
X80505820Y-110119502D01*
X80625518Y-110155812D01*
X80733483Y-110166445D01*
X80617114Y-110244201D01*
X80424201Y-110437114D01*
X80272629Y-110663957D01*
X80168225Y-110916011D01*
X80115000Y-111183589D01*
X80115000Y-111456411D01*
X80168225Y-111723989D01*
X80272629Y-111976043D01*
X80424201Y-112202886D01*
X80617114Y-112395799D01*
X80843957Y-112547371D01*
X80943279Y-112588511D01*
X80901168Y-112603723D01*
X80788137Y-112664140D01*
X80722612Y-112903007D01*
X81500000Y-113680395D01*
X82277388Y-112903007D01*
X82211863Y-112664140D01*
X82053523Y-112589836D01*
X82156043Y-112547371D01*
X82382886Y-112395799D01*
X82575799Y-112202886D01*
X82673544Y-112056600D01*
X85346321Y-112056600D01*
X85465363Y-112234759D01*
X85665241Y-112434637D01*
X85900273Y-112591680D01*
X86161426Y-112699853D01*
X86438665Y-112755000D01*
X86721335Y-112755000D01*
X86998574Y-112699853D01*
X87259727Y-112591680D01*
X87494759Y-112434637D01*
X87694637Y-112234759D01*
X87851680Y-111999727D01*
X87959853Y-111738574D01*
X88015000Y-111461335D01*
X88015000Y-111178665D01*
X87959853Y-110901426D01*
X87851680Y-110640273D01*
X87694637Y-110405241D01*
X87494759Y-110205363D01*
X87259727Y-110048320D01*
X86998574Y-109940147D01*
X86721335Y-109885000D01*
X86438665Y-109885000D01*
X86161426Y-109940147D01*
X85900273Y-110048320D01*
X85665241Y-110205363D01*
X85465363Y-110405241D01*
X85346321Y-110583400D01*
X82673544Y-110583400D01*
X82575799Y-110437114D01*
X82382886Y-110244201D01*
X82266517Y-110166445D01*
X82374482Y-110155812D01*
X82494180Y-110119502D01*
X82604494Y-110060537D01*
X82701185Y-109981185D01*
X82780537Y-109884494D01*
X82839502Y-109774180D01*
X82875812Y-109654482D01*
X82888072Y-109530000D01*
X82888072Y-108030000D01*
X82875812Y-107905518D01*
X82839502Y-107785820D01*
X82780537Y-107675506D01*
X82701185Y-107578815D01*
X82604494Y-107499463D01*
X82494180Y-107440498D01*
X82374482Y-107404188D01*
X82250000Y-107391928D01*
X80750000Y-107391928D01*
X80625518Y-107404188D01*
X80505820Y-107440498D01*
X80395506Y-107499463D01*
X80298815Y-107578815D01*
X80219463Y-107675506D01*
X80160498Y-107785820D01*
X80124188Y-107905518D01*
X80111928Y-108030000D01*
X64685000Y-108030000D01*
X64685000Y-100622285D01*
X66165000Y-100622285D01*
X66165000Y-101377715D01*
X66312377Y-102118628D01*
X66601467Y-102816554D01*
X67021161Y-103444670D01*
X67555330Y-103978839D01*
X68183446Y-104398533D01*
X68881372Y-104687623D01*
X69622285Y-104835000D01*
X70377715Y-104835000D01*
X71118628Y-104687623D01*
X71816554Y-104398533D01*
X72444670Y-103978839D01*
X72978839Y-103444670D01*
X73398533Y-102816554D01*
X73687623Y-102118628D01*
X73835000Y-101377715D01*
X73835000Y-100622285D01*
X73751003Y-100200000D01*
X137886928Y-100200000D01*
X137886928Y-101800000D01*
X137899188Y-101924482D01*
X137935498Y-102044180D01*
X137994463Y-102154494D01*
X138073815Y-102251185D01*
X138170506Y-102330537D01*
X138280820Y-102389502D01*
X138400518Y-102425812D01*
X138525000Y-102438072D01*
X140125000Y-102438072D01*
X140249482Y-102425812D01*
X140369180Y-102389502D01*
X140479494Y-102330537D01*
X140576185Y-102251185D01*
X140655537Y-102154494D01*
X140714502Y-102044180D01*
X140750812Y-101924482D01*
X140763072Y-101800000D01*
X140763072Y-100858665D01*
X144390000Y-100858665D01*
X144390000Y-101141335D01*
X144445147Y-101418574D01*
X144553320Y-101679727D01*
X144710363Y-101914759D01*
X144910241Y-102114637D01*
X145145273Y-102271680D01*
X145406426Y-102379853D01*
X145683665Y-102435000D01*
X145966335Y-102435000D01*
X146243574Y-102379853D01*
X146504727Y-102271680D01*
X146739759Y-102114637D01*
X146939637Y-101914759D01*
X147096680Y-101679727D01*
X147204853Y-101418574D01*
X147260000Y-101141335D01*
X147260000Y-100858665D01*
X147212981Y-100622285D01*
X154165000Y-100622285D01*
X154165000Y-101377715D01*
X154312377Y-102118628D01*
X154601467Y-102816554D01*
X155021161Y-103444670D01*
X155555330Y-103978839D01*
X156183446Y-104398533D01*
X156881372Y-104687623D01*
X157622285Y-104835000D01*
X158377715Y-104835000D01*
X159118628Y-104687623D01*
X159816554Y-104398533D01*
X160444670Y-103978839D01*
X160978839Y-103444670D01*
X161398533Y-102816554D01*
X161687623Y-102118628D01*
X161835000Y-101377715D01*
X161835000Y-100622285D01*
X161687623Y-99881372D01*
X161398533Y-99183446D01*
X160978839Y-98555330D01*
X160444670Y-98021161D01*
X159816554Y-97601467D01*
X159118628Y-97312377D01*
X158377715Y-97165000D01*
X157622285Y-97165000D01*
X156881372Y-97312377D01*
X156183446Y-97601467D01*
X155555330Y-98021161D01*
X155021161Y-98555330D01*
X154601467Y-99183446D01*
X154312377Y-99881372D01*
X154165000Y-100622285D01*
X147212981Y-100622285D01*
X147204853Y-100581426D01*
X147096680Y-100320273D01*
X146939637Y-100085241D01*
X146739759Y-99885363D01*
X146504727Y-99728320D01*
X146243574Y-99620147D01*
X145966335Y-99565000D01*
X145683665Y-99565000D01*
X145406426Y-99620147D01*
X145145273Y-99728320D01*
X144910241Y-99885363D01*
X144710363Y-100085241D01*
X144553320Y-100320273D01*
X144445147Y-100581426D01*
X144390000Y-100858665D01*
X140763072Y-100858665D01*
X140763072Y-100200000D01*
X140750812Y-100075518D01*
X140714502Y-99955820D01*
X140655537Y-99845506D01*
X140576185Y-99748815D01*
X140479494Y-99669463D01*
X140369180Y-99610498D01*
X140249482Y-99574188D01*
X140125000Y-99561928D01*
X138525000Y-99561928D01*
X138400518Y-99574188D01*
X138280820Y-99610498D01*
X138170506Y-99669463D01*
X138073815Y-99748815D01*
X137994463Y-99845506D01*
X137935498Y-99955820D01*
X137899188Y-100075518D01*
X137886928Y-100200000D01*
X73751003Y-100200000D01*
X73687623Y-99881372D01*
X73398533Y-99183446D01*
X72978839Y-98555330D01*
X72444670Y-98021161D01*
X71816554Y-97601467D01*
X71118628Y-97312377D01*
X70377715Y-97165000D01*
X69622285Y-97165000D01*
X68881372Y-97312377D01*
X68183446Y-97601467D01*
X67555330Y-98021161D01*
X67021161Y-98555330D01*
X66601467Y-99183446D01*
X66312377Y-99881372D01*
X66165000Y-100622285D01*
X64685000Y-100622285D01*
X64685000Y-96966353D01*
X64675711Y-96872045D01*
X64688625Y-96740341D01*
X64764035Y-96490571D01*
X64886522Y-96260208D01*
X65051422Y-96058020D01*
X65252450Y-95891714D01*
X65481954Y-95767622D01*
X65731195Y-95690469D01*
X65871819Y-95675689D01*
X65966353Y-95685000D01*
G37*
G04 #@! TD.AperFunction*
D20*
X123874168Y-128065878D02*
X123874167Y-142322828D01*
X123488141Y-142064893D01*
X123008601Y-141866261D01*
X122499525Y-141765000D01*
X121980475Y-141765000D01*
X121471399Y-141866261D01*
X120991859Y-142064893D01*
X120560285Y-142353262D01*
X120193262Y-142720285D01*
X119904893Y-143151859D01*
X119706261Y-143631399D01*
X119605000Y-144140475D01*
X119605000Y-144659525D01*
X119706261Y-145168601D01*
X119904893Y-145648141D01*
X120193262Y-146079715D01*
X120560285Y-146446738D01*
X120991859Y-146735107D01*
X121471399Y-146933739D01*
X121980475Y-147035000D01*
X122499525Y-147035000D01*
X123008601Y-146933739D01*
X123488141Y-146735107D01*
X123874167Y-146477172D01*
X123874167Y-153162955D01*
X105705833Y-134994622D01*
X105705833Y-132353740D01*
X107435000Y-132353740D01*
X107435000Y-132646260D01*
X107492068Y-132933158D01*
X107604010Y-133203411D01*
X107766525Y-133446632D01*
X107973368Y-133653475D01*
X108216589Y-133815990D01*
X108486842Y-133927932D01*
X108773740Y-133985000D01*
X109066260Y-133985000D01*
X109353158Y-133927932D01*
X109623411Y-133815990D01*
X109866632Y-133653475D01*
X110073475Y-133446632D01*
X110235990Y-133203411D01*
X110347932Y-132933158D01*
X110405000Y-132646260D01*
X110405000Y-132353740D01*
X110382471Y-132240475D01*
X111365000Y-132240475D01*
X111365000Y-132759525D01*
X111466261Y-133268601D01*
X111664893Y-133748141D01*
X111953262Y-134179715D01*
X112320285Y-134546738D01*
X112751859Y-134835107D01*
X113231399Y-135033739D01*
X113740475Y-135135000D01*
X114259525Y-135135000D01*
X114768601Y-135033739D01*
X115248141Y-134835107D01*
X115679715Y-134546738D01*
X116046738Y-134179715D01*
X116335107Y-133748141D01*
X116533739Y-133268601D01*
X116635000Y-132759525D01*
X116635000Y-132353740D01*
X117595000Y-132353740D01*
X117595000Y-132646260D01*
X117652068Y-132933158D01*
X117764010Y-133203411D01*
X117926525Y-133446632D01*
X118133368Y-133653475D01*
X118376589Y-133815990D01*
X118646842Y-133927932D01*
X118933740Y-133985000D01*
X119226260Y-133985000D01*
X119513158Y-133927932D01*
X119783411Y-133815990D01*
X120026632Y-133653475D01*
X120233475Y-133446632D01*
X120395990Y-133203411D01*
X120507932Y-132933158D01*
X120565000Y-132646260D01*
X120565000Y-132353740D01*
X120507932Y-132066842D01*
X120395990Y-131796589D01*
X120233475Y-131553368D01*
X120026632Y-131346525D01*
X119783411Y-131184010D01*
X119513158Y-131072068D01*
X119226260Y-131015000D01*
X118933740Y-131015000D01*
X118646842Y-131072068D01*
X118376589Y-131184010D01*
X118133368Y-131346525D01*
X117926525Y-131553368D01*
X117764010Y-131796589D01*
X117652068Y-132066842D01*
X117595000Y-132353740D01*
X116635000Y-132353740D01*
X116635000Y-132240475D01*
X116533739Y-131731399D01*
X116335107Y-131251859D01*
X116046738Y-130820285D01*
X115679715Y-130453262D01*
X115248141Y-130164893D01*
X114768601Y-129966261D01*
X114259525Y-129865000D01*
X113740475Y-129865000D01*
X113231399Y-129966261D01*
X112751859Y-130164893D01*
X112320285Y-130453262D01*
X111953262Y-130820285D01*
X111664893Y-131251859D01*
X111466261Y-131731399D01*
X111365000Y-132240475D01*
X110382471Y-132240475D01*
X110347932Y-132066842D01*
X110235990Y-131796589D01*
X110169650Y-131697304D01*
X110248639Y-131702409D01*
X110587439Y-131657489D01*
X110910966Y-131547336D01*
X111109274Y-131441338D01*
X111217107Y-131166712D01*
X110190000Y-130139605D01*
X110175858Y-130153748D01*
X109996253Y-129974143D01*
X110010395Y-129960000D01*
X110369605Y-129960000D01*
X111396712Y-130987107D01*
X111671338Y-130879274D01*
X111822216Y-130572616D01*
X111910369Y-130242415D01*
X111932409Y-129901361D01*
X111887489Y-129562561D01*
X111777336Y-129239034D01*
X111671338Y-129040726D01*
X111396712Y-128932893D01*
X110369605Y-129960000D01*
X110010395Y-129960000D01*
X108983288Y-128932893D01*
X108708662Y-129040726D01*
X108557784Y-129347384D01*
X108469631Y-129677585D01*
X108447591Y-130018639D01*
X108492511Y-130357439D01*
X108602664Y-130680966D01*
X108708662Y-130879274D01*
X108983286Y-130987106D01*
X108955392Y-131015000D01*
X108773740Y-131015000D01*
X108486842Y-131072068D01*
X108216589Y-131184010D01*
X107973368Y-131346525D01*
X107766525Y-131553368D01*
X107604010Y-131796589D01*
X107492068Y-132066842D01*
X107435000Y-132353740D01*
X105705833Y-132353740D01*
X105705833Y-128753288D01*
X109162893Y-128753288D01*
X110190000Y-129780395D01*
X111217107Y-128753288D01*
X111109274Y-128478662D01*
X110802616Y-128327784D01*
X110472415Y-128239631D01*
X110131361Y-128217591D01*
X109792561Y-128262511D01*
X109469034Y-128372664D01*
X109270726Y-128478662D01*
X109162893Y-128753288D01*
X105705833Y-128753288D01*
X105705833Y-127249117D01*
X114805000Y-127249117D01*
X114805000Y-127590883D01*
X114871675Y-127926081D01*
X115002463Y-128241831D01*
X115192337Y-128525998D01*
X115434002Y-128767663D01*
X115718169Y-128957537D01*
X116033919Y-129088325D01*
X116369117Y-129155000D01*
X116710883Y-129155000D01*
X117046081Y-129088325D01*
X117361831Y-128957537D01*
X117645998Y-128767663D01*
X117887663Y-128525998D01*
X118077537Y-128241831D01*
X118208325Y-127926081D01*
X118275000Y-127590883D01*
X118275000Y-127249117D01*
X118208325Y-126913919D01*
X118077537Y-126598169D01*
X117887663Y-126314002D01*
X117645998Y-126072337D01*
X117361831Y-125882463D01*
X117046081Y-125751675D01*
X116710883Y-125685000D01*
X116369117Y-125685000D01*
X116033919Y-125751675D01*
X115718169Y-125882463D01*
X115434002Y-126072337D01*
X115192337Y-126314002D01*
X115002463Y-126598169D01*
X114871675Y-126913919D01*
X114805000Y-127249117D01*
X105705833Y-127249117D01*
X105705833Y-122333075D01*
X105976856Y-122514167D01*
X106369951Y-122676992D01*
X106787259Y-122760000D01*
X107212741Y-122760000D01*
X107630049Y-122676992D01*
X108023144Y-122514167D01*
X108376920Y-122277781D01*
X108677781Y-121976920D01*
X108914167Y-121623144D01*
X109076992Y-121230049D01*
X109160000Y-120812741D01*
X109160000Y-120387259D01*
X109076992Y-119969951D01*
X108914167Y-119576856D01*
X108677781Y-119223080D01*
X108376920Y-118922219D01*
X108023144Y-118685833D01*
X107630049Y-118523008D01*
X107212741Y-118440000D01*
X106787259Y-118440000D01*
X106369951Y-118523008D01*
X105976856Y-118685833D01*
X105705833Y-118866925D01*
X105705833Y-109897542D01*
X123874168Y-128065878D01*
G04 #@! TA.AperFunction,Conductor*
D21*
G36*
X123874168Y-128065878D02*
G01*
X123874167Y-142322828D01*
X123488141Y-142064893D01*
X123008601Y-141866261D01*
X122499525Y-141765000D01*
X121980475Y-141765000D01*
X121471399Y-141866261D01*
X120991859Y-142064893D01*
X120560285Y-142353262D01*
X120193262Y-142720285D01*
X119904893Y-143151859D01*
X119706261Y-143631399D01*
X119605000Y-144140475D01*
X119605000Y-144659525D01*
X119706261Y-145168601D01*
X119904893Y-145648141D01*
X120193262Y-146079715D01*
X120560285Y-146446738D01*
X120991859Y-146735107D01*
X121471399Y-146933739D01*
X121980475Y-147035000D01*
X122499525Y-147035000D01*
X123008601Y-146933739D01*
X123488141Y-146735107D01*
X123874167Y-146477172D01*
X123874167Y-153162955D01*
X105705833Y-134994622D01*
X105705833Y-132353740D01*
X107435000Y-132353740D01*
X107435000Y-132646260D01*
X107492068Y-132933158D01*
X107604010Y-133203411D01*
X107766525Y-133446632D01*
X107973368Y-133653475D01*
X108216589Y-133815990D01*
X108486842Y-133927932D01*
X108773740Y-133985000D01*
X109066260Y-133985000D01*
X109353158Y-133927932D01*
X109623411Y-133815990D01*
X109866632Y-133653475D01*
X110073475Y-133446632D01*
X110235990Y-133203411D01*
X110347932Y-132933158D01*
X110405000Y-132646260D01*
X110405000Y-132353740D01*
X110382471Y-132240475D01*
X111365000Y-132240475D01*
X111365000Y-132759525D01*
X111466261Y-133268601D01*
X111664893Y-133748141D01*
X111953262Y-134179715D01*
X112320285Y-134546738D01*
X112751859Y-134835107D01*
X113231399Y-135033739D01*
X113740475Y-135135000D01*
X114259525Y-135135000D01*
X114768601Y-135033739D01*
X115248141Y-134835107D01*
X115679715Y-134546738D01*
X116046738Y-134179715D01*
X116335107Y-133748141D01*
X116533739Y-133268601D01*
X116635000Y-132759525D01*
X116635000Y-132353740D01*
X117595000Y-132353740D01*
X117595000Y-132646260D01*
X117652068Y-132933158D01*
X117764010Y-133203411D01*
X117926525Y-133446632D01*
X118133368Y-133653475D01*
X118376589Y-133815990D01*
X118646842Y-133927932D01*
X118933740Y-133985000D01*
X119226260Y-133985000D01*
X119513158Y-133927932D01*
X119783411Y-133815990D01*
X120026632Y-133653475D01*
X120233475Y-133446632D01*
X120395990Y-133203411D01*
X120507932Y-132933158D01*
X120565000Y-132646260D01*
X120565000Y-132353740D01*
X120507932Y-132066842D01*
X120395990Y-131796589D01*
X120233475Y-131553368D01*
X120026632Y-131346525D01*
X119783411Y-131184010D01*
X119513158Y-131072068D01*
X119226260Y-131015000D01*
X118933740Y-131015000D01*
X118646842Y-131072068D01*
X118376589Y-131184010D01*
X118133368Y-131346525D01*
X117926525Y-131553368D01*
X117764010Y-131796589D01*
X117652068Y-132066842D01*
X117595000Y-132353740D01*
X116635000Y-132353740D01*
X116635000Y-132240475D01*
X116533739Y-131731399D01*
X116335107Y-131251859D01*
X116046738Y-130820285D01*
X115679715Y-130453262D01*
X115248141Y-130164893D01*
X114768601Y-129966261D01*
X114259525Y-129865000D01*
X113740475Y-129865000D01*
X113231399Y-129966261D01*
X112751859Y-130164893D01*
X112320285Y-130453262D01*
X111953262Y-130820285D01*
X111664893Y-131251859D01*
X111466261Y-131731399D01*
X111365000Y-132240475D01*
X110382471Y-132240475D01*
X110347932Y-132066842D01*
X110235990Y-131796589D01*
X110169650Y-131697304D01*
X110248639Y-131702409D01*
X110587439Y-131657489D01*
X110910966Y-131547336D01*
X111109274Y-131441338D01*
X111217107Y-131166712D01*
X110190000Y-130139605D01*
X110175858Y-130153748D01*
X109996253Y-129974143D01*
X110010395Y-129960000D01*
X110369605Y-129960000D01*
X111396712Y-130987107D01*
X111671338Y-130879274D01*
X111822216Y-130572616D01*
X111910369Y-130242415D01*
X111932409Y-129901361D01*
X111887489Y-129562561D01*
X111777336Y-129239034D01*
X111671338Y-129040726D01*
X111396712Y-128932893D01*
X110369605Y-129960000D01*
X110010395Y-129960000D01*
X108983288Y-128932893D01*
X108708662Y-129040726D01*
X108557784Y-129347384D01*
X108469631Y-129677585D01*
X108447591Y-130018639D01*
X108492511Y-130357439D01*
X108602664Y-130680966D01*
X108708662Y-130879274D01*
X108983286Y-130987106D01*
X108955392Y-131015000D01*
X108773740Y-131015000D01*
X108486842Y-131072068D01*
X108216589Y-131184010D01*
X107973368Y-131346525D01*
X107766525Y-131553368D01*
X107604010Y-131796589D01*
X107492068Y-132066842D01*
X107435000Y-132353740D01*
X105705833Y-132353740D01*
X105705833Y-128753288D01*
X109162893Y-128753288D01*
X110190000Y-129780395D01*
X111217107Y-128753288D01*
X111109274Y-128478662D01*
X110802616Y-128327784D01*
X110472415Y-128239631D01*
X110131361Y-128217591D01*
X109792561Y-128262511D01*
X109469034Y-128372664D01*
X109270726Y-128478662D01*
X109162893Y-128753288D01*
X105705833Y-128753288D01*
X105705833Y-127249117D01*
X114805000Y-127249117D01*
X114805000Y-127590883D01*
X114871675Y-127926081D01*
X115002463Y-128241831D01*
X115192337Y-128525998D01*
X115434002Y-128767663D01*
X115718169Y-128957537D01*
X116033919Y-129088325D01*
X116369117Y-129155000D01*
X116710883Y-129155000D01*
X117046081Y-129088325D01*
X117361831Y-128957537D01*
X117645998Y-128767663D01*
X117887663Y-128525998D01*
X118077537Y-128241831D01*
X118208325Y-127926081D01*
X118275000Y-127590883D01*
X118275000Y-127249117D01*
X118208325Y-126913919D01*
X118077537Y-126598169D01*
X117887663Y-126314002D01*
X117645998Y-126072337D01*
X117361831Y-125882463D01*
X117046081Y-125751675D01*
X116710883Y-125685000D01*
X116369117Y-125685000D01*
X116033919Y-125751675D01*
X115718169Y-125882463D01*
X115434002Y-126072337D01*
X115192337Y-126314002D01*
X115002463Y-126598169D01*
X114871675Y-126913919D01*
X114805000Y-127249117D01*
X105705833Y-127249117D01*
X105705833Y-122333075D01*
X105976856Y-122514167D01*
X106369951Y-122676992D01*
X106787259Y-122760000D01*
X107212741Y-122760000D01*
X107630049Y-122676992D01*
X108023144Y-122514167D01*
X108376920Y-122277781D01*
X108677781Y-121976920D01*
X108914167Y-121623144D01*
X109076992Y-121230049D01*
X109160000Y-120812741D01*
X109160000Y-120387259D01*
X109076992Y-119969951D01*
X108914167Y-119576856D01*
X108677781Y-119223080D01*
X108376920Y-118922219D01*
X108023144Y-118685833D01*
X107630049Y-118523008D01*
X107212741Y-118440000D01*
X106787259Y-118440000D01*
X106369951Y-118523008D01*
X105976856Y-118685833D01*
X105705833Y-118866925D01*
X105705833Y-109897542D01*
X123874168Y-128065878D01*
G37*
G04 #@! TD.AperFunction*
M02*
