M48
INCH,TZ
T1C0.0130
T2C0.0210
T3C0.0315
T4C0.0362
T5C0.0390
T6C0.0394
T7C0.0512
T8C0.0917
T9C0.1260
T10C0.1260
%
G90
G05
T1
X30472Y-45059
X30498Y-41184
X31524Y-42721
X31558Y-44092
X32629Y-41727
X32629Y-49142
X33302Y-44587
X33842Y-29206
X33842Y-35821
X34028Y-61591
X34103Y-29426
X34103Y-36759
X35159Y-45053
X35244Y-30862
X35244Y-12445
X35472Y-16004
X35477Y-33358
X35480Y-50516
X35697Y-28114
X35697Y-35357
X35697Y-38976
X35705Y-60748
X35901Y-25067
X36122Y-24799
X36232Y-53792
X36576Y-48205
X36584Y-53346
X36592Y-46724
X37060Y-39711
X37087Y-24567
X37568Y-30657
X37576Y-35357
X37576Y-36767
X37576Y-52897
X37576Y-65719
X37583Y-48433
X37587Y-46272
X37587Y-27557
X37801Y-50958
X37947Y-54232
X38078Y-35126
X38078Y-40646
X38091Y-50736
X38268Y-52390
X38572Y-30657
X38572Y-65940
X38578Y-54799
X38579Y-48661
X38622Y-21299
X39033Y-30657
X39067Y-28579
X39068Y-66453
X39091Y-49385
X39154Y-51909
X39411Y-38185
X39576Y-56047
X39583Y-48882
X39678Y-40646
X40012Y-29426
X40080Y-14803
X40100Y-30657
X40112Y-50516
X40576Y-39711
X40580Y-54677
X40583Y-45053
X41017Y-54232
X41083Y-39711
X41092Y-47192
X41102Y-38976
X41575Y-60744
X41576Y-29206
X41579Y-54232
X42056Y-46724
X42116Y-38976
X42228Y-43125
X42354Y-50280
X42576Y-43125
X42576Y-46945
X42579Y-36761
X42598Y-28110
X43071Y-48433
X43088Y-38976
X43571Y-25067
X43576Y-39974
X44076Y-48661
X44076Y-50304
X44076Y-66215
X44094Y-40220
X44549Y-39457
X44572Y-65940
X44576Y-33358
X44576Y-50524
X44579Y-55587
X44583Y-25067
X44812Y-54677
X45075Y-43372
X45079Y-16004
X45079Y-38559
X45087Y-37906
X45114Y-64528
X45340Y-65725
X45576Y-40220
X45576Y-65906
X45579Y-56256
X46064Y-14803
X46067Y-43125
X46076Y-39711
X46076Y-50524
X46078Y-67878
X46079Y-46272
X46588Y-65495
X46594Y-55827
X46843Y-55583
X47060Y-65410
X47076Y-46945
X47087Y-12433
X47576Y-54453
X47576Y-28932
X47579Y-36980
X47580Y-65658
X48039Y-43372
X48039Y-38906
X48071Y-59921
X48576Y-28932
X48622Y-54012
X49079Y-48878
X49084Y-65658
X49134Y-59685
X49576Y-38189
X49576Y-46494
X49576Y-66217
X49588Y-52111
X49897Y-66867
X50016Y-46724
X50039Y-59449
X50576Y-39189
X50576Y-52671
X51067Y-48205
X51071Y-36760
X51576Y-53126
X51831Y-56713
X52031Y-45053
X52060Y-24547
X52060Y-39461
X52068Y-42111
X52075Y-57681
X52303Y-17721
X52303Y-30790
X52576Y-32260
X52576Y-53581
X53075Y-30555
X53075Y-57681
X53076Y-36980
X53091Y-38169
X53576Y-31010
X53579Y-48217
X53583Y-56476
X54051Y-33358
X54075Y-57681
X54091Y-22728
X54091Y-32260
X54094Y-35744
X54098Y-47191
X54579Y-37902
X55067Y-24772
X55068Y-38894
X55068Y-39209
X55071Y-57681
X55571Y-38559
X55576Y-34193
X55576Y-39711
X55579Y-44807
X56063Y-25067
X56280Y-24106
X56287Y-39974
X56504Y-43357
X56736Y-43137
T2
X41576Y-47587
X42579Y-55268
X44576Y-47587
X47053Y-41221
X51576Y-41221
T3
X34647Y-41182
X34647Y-42182
X34647Y-43182
X34647Y-44182
X36576Y-15055
X36576Y-16540
X36576Y-22540
X36576Y-24106
X36576Y-30106
X36576Y-31680
X36576Y-34680
X36576Y-36266
X36576Y-42266
X36576Y-43832
X36576Y-49832
X36576Y-51399
X36576Y-57399
X36576Y-58965
X36576Y-64965
X37576Y-15055
X37576Y-16540
X37576Y-22540
X37576Y-24106
X37576Y-30106
X37576Y-31680
X37576Y-34680
X37576Y-36266
X37576Y-42266
X37576Y-43832
X37576Y-49832
X37576Y-51399
X37576Y-57399
X37576Y-58965
X37576Y-64965
X38576Y-15055
X38576Y-16540
X38576Y-22540
X38576Y-24106
X38576Y-30106
X38576Y-31680
X38576Y-34680
X38576Y-36266
X38576Y-42266
X38576Y-43832
X38576Y-49832
X38576Y-51399
X38576Y-57399
X38576Y-58965
X38576Y-64965
X39576Y-15055
X39576Y-16540
X39576Y-22540
X39576Y-24106
X39576Y-30106
X39576Y-31680
X39576Y-34680
X39576Y-36266
X39576Y-42266
X39576Y-43832
X39576Y-49832
X39576Y-51399
X39576Y-57399
X39576Y-58965
X39576Y-64965
X40576Y-16540
X40576Y-22540
X40576Y-24106
X40576Y-30106
X40576Y-31680
X40576Y-34680
X40576Y-36266
X40576Y-42266
X40576Y-43832
X40576Y-49832
X40576Y-51399
X40576Y-57399
X40576Y-58965
X40576Y-64965
X41576Y-16540
X41576Y-22540
X41576Y-24106
X41576Y-30106
X41576Y-31680
X41576Y-34680
X41576Y-36266
X41576Y-42266
X41576Y-43832
X41576Y-49832
X41576Y-51399
X41576Y-57399
X41576Y-58965
X41576Y-64965
X42576Y-16540
X42576Y-22540
X42576Y-24106
X42576Y-30106
X42576Y-31680
X42576Y-34680
X42576Y-36266
X42576Y-42266
X42576Y-43832
X42576Y-49832
X42576Y-51399
X42576Y-57399
X42576Y-58965
X42576Y-64965
X43576Y-16540
X43576Y-22540
X43576Y-24106
X43576Y-30106
X43576Y-31680
X43576Y-34680
X43576Y-36266
X43576Y-42266
X43576Y-43832
X43576Y-49832
X43576Y-51399
X43576Y-57399
X43576Y-58965
X43576Y-64965
X44576Y-16540
X44576Y-22540
X44576Y-24106
X44576Y-30106
X44576Y-31680
X44576Y-34680
X44576Y-36266
X44576Y-42266
X44576Y-43832
X44576Y-49832
X44576Y-51399
X44576Y-57399
X44576Y-58965
X44576Y-64965
X45576Y-16540
X45576Y-22540
X45576Y-24106
X45576Y-30106
X45576Y-31680
X45576Y-34680
X45576Y-36266
X45576Y-42266
X45576Y-43832
X45576Y-49832
X45576Y-51399
X45576Y-57399
X45576Y-58965
X45576Y-64965
X46576Y-16540
X46576Y-22540
X46576Y-24106
X46576Y-30106
X46576Y-31680
X46576Y-34680
X46576Y-36266
X46576Y-42266
X46576Y-43832
X46576Y-49832
X46576Y-51399
X46576Y-57399
X46576Y-58965
X46576Y-64965
X47576Y-16540
X47576Y-22540
X47576Y-24106
X47576Y-30106
X47576Y-31680
X47576Y-34680
X47576Y-36266
X47576Y-42266
X47576Y-43832
X47576Y-49832
X47576Y-51399
X47576Y-57399
X47576Y-58965
X47576Y-64965
X48576Y-16540
X48576Y-22540
X48576Y-24106
X48576Y-30106
X48576Y-36266
X48576Y-42266
X48576Y-43832
X48576Y-49832
X48576Y-51399
X48576Y-57399
X48576Y-58965
X48576Y-64965
X49576Y-16540
X49576Y-22540
X49576Y-24106
X49576Y-30106
X49576Y-31712
X49576Y-34712
X49576Y-36266
X49576Y-42266
X49576Y-43832
X49576Y-49832
X49576Y-51399
X49576Y-57399
X49576Y-58965
X49576Y-64965
X50576Y-16540
X50576Y-22540
X50576Y-24106
X50576Y-30106
X50576Y-31712
X50576Y-34712
X50576Y-36266
X50576Y-42266
X50576Y-43832
X50576Y-49832
X50576Y-51399
X50576Y-57399
X50576Y-58965
X50576Y-64965
X51576Y-16540
X51576Y-22540
X51576Y-24106
X51576Y-30106
X51576Y-31712
X51576Y-34712
X51576Y-36266
X51576Y-42266
X51576Y-43832
X51576Y-49832
X51576Y-51399
X51576Y-57399
X51576Y-58965
X51576Y-64965
X52576Y-31712
X52576Y-34712
X52576Y-36266
X52576Y-42266
X52576Y-43832
X52576Y-49832
X52576Y-51399
X52576Y-57399
X52576Y-58965
X52576Y-64965
X53576Y-31712
X53576Y-34712
X53576Y-36266
X53576Y-42266
X53576Y-43832
X53576Y-49832
X53576Y-51399
X53576Y-57399
X53576Y-58965
X53576Y-64965
X54576Y-31712
X54576Y-34712
X54576Y-36266
X54576Y-42266
X54576Y-43832
X54576Y-49832
X54576Y-51399
X54576Y-57399
X54576Y-58965
X54576Y-64965
X55576Y-31712
X55576Y-34712
X55576Y-36266
X55576Y-42266
X55576Y-43832
X55576Y-49832
X55576Y-51399
X55576Y-57399
X55576Y-58965
X55576Y-64965
X57323Y-36537
X57323Y-37537
X57323Y-38537
X57323Y-39537
X57323Y-40537
X57323Y-41537
X57323Y-42537
X57323Y-43537
X57323Y-44537
X57323Y-45537
X57323Y-52695
X57323Y-53695
X57323Y-54695
X57323Y-55695
X57323Y-56695
X57323Y-57695
X57323Y-58695
X57323Y-59695
X57323Y-60695
X57323Y-61695
X59608Y-26579
X59608Y-27579
X59608Y-28579
X59608Y-29579
X60108Y-12992
X60323Y-36537
X60323Y-37537
X60323Y-38537
X60323Y-39537
X60323Y-40537
X60323Y-41537
X60323Y-42537
X60323Y-43537
X60323Y-44537
X60323Y-45537
X60323Y-52695
X60323Y-53695
X60323Y-54695
X60323Y-55695
X60323Y-56695
X60323Y-57695
X60323Y-58695
X60323Y-59695
X60323Y-60695
X60323Y-61695
X60895Y-12992
X61679Y-27579
X61679Y-28579
X61679Y-29579
X61962Y-22713
X61962Y-23713
X61962Y-24713
X64679Y-27579
X64679Y-28579
X64679Y-29579
T4
X60108Y-17721
X60108Y-18705
X60895Y-17721
X60895Y-18705
T5
X64997Y-22817
X64997Y-24589
T6
X28228Y-25356
X28228Y-28356
X28228Y-31356
X28228Y-33996
X28228Y-36996
X28228Y-39996
X31028Y-43587
X31028Y-44587
X31028Y-45587
X31028Y-46587
X31028Y-51587
X31028Y-52587
X31028Y-53587
X31028Y-54587
X31028Y-55587
X31028Y-56587
X31028Y-57587
X31028Y-58587
X31028Y-59587
X31028Y-60587
X31028Y-61587
X31028Y-62587
X31028Y-63587
X31228Y-25356
X31228Y-28356
X31228Y-31356
X31228Y-33996
X31228Y-36996
X31228Y-39996
X32028Y-43587
X32028Y-44587
X32028Y-45587
X32028Y-46587
X32028Y-51587
X32028Y-52587
X32028Y-53587
X32028Y-54587
X32028Y-55587
X32028Y-56587
X32028Y-57587
X32028Y-58587
X32028Y-59587
X32028Y-60587
X32028Y-61587
X32028Y-62587
X32028Y-63587
X33280Y-26120
X33280Y-28088
X33280Y-32200
X33280Y-34168
X33280Y-37780
X33280Y-39748
X33280Y-41182
X33280Y-42182
X33280Y-43182
X33280Y-45587
X33280Y-46587
X33280Y-47587
X34623Y-18553
X34623Y-20522
X34647Y-45618
X34647Y-47587
X34673Y-26120
X34673Y-28088
X34673Y-32200
X34673Y-34168
X34673Y-37780
X34673Y-39748
X36576Y-11957
X36576Y-12957
X37576Y-11957
X37576Y-12957
X38576Y-11957
X38576Y-12957
X39576Y-11957
X39576Y-12957
X40576Y-11957
X40576Y-12957
X41576Y-11957
X41576Y-12957
X42576Y-11957
X42576Y-12957
X43576Y-11957
X43576Y-12957
X43576Y-67370
X43576Y-68370
X44576Y-11957
X44576Y-12957
X44576Y-67370
X44576Y-68370
X45576Y-11957
X45576Y-12957
X45576Y-67370
X45576Y-68370
X46576Y-11957
X46576Y-12957
X46576Y-67370
X46576Y-68370
X47576Y-11957
X47576Y-12957
X47576Y-67370
X47576Y-68370
X48576Y-11957
X48576Y-12957
X48576Y-67370
X48576Y-68370
X49576Y-11957
X49576Y-12957
X49576Y-67370
X49576Y-68370
X50576Y-11957
X50576Y-12957
X50576Y-67370
X50576Y-68370
X51576Y-11957
X51576Y-12957
X51576Y-67370
X51576Y-68370
X52576Y-11957
X52576Y-12957
X52576Y-67370
X52576Y-68370
X53576Y-11957
X53576Y-12957
X53576Y-67370
X53576Y-68370
X54576Y-11957
X54576Y-12957
X54576Y-67370
X54576Y-68370
X55576Y-11957
X55576Y-12957
X55576Y-67370
X55576Y-68370
X57835Y-47587
X57835Y-50896
X57835Y-63760
X57835Y-65157
X59596Y-22729
X59596Y-24697
X59803Y-47587
X59803Y-50896
X59803Y-63760
X59803Y-65157
X61753Y-47242
X61753Y-48846
X61970Y-35811
X61970Y-36902
X61970Y-37992
X61970Y-39083
X61970Y-40173
X61970Y-54299
X61970Y-55390
X61970Y-56480
X61970Y-57571
X61970Y-58661
X62752Y-45646
X62753Y-47242
X62753Y-48846
X62816Y-63760
X63088Y-36356
X63088Y-37447
X63088Y-38537
X63088Y-39628
X63088Y-54844
X63088Y-55935
X63088Y-57026
X63088Y-58116
X63752Y-45646
X63753Y-47242
X63753Y-48846
X63816Y-63760
T7
X64017Y-22325
X64017Y-25085
T8
X61962Y-15843
X61962Y-20583
T9
X62529Y-33071
X62529Y-42913
X62529Y-51559
X62529Y-61402
T10
X29096Y-12996
X29096Y-67327
X63742Y-12996
X63742Y-67327
T0
M30
