M48
; DRILL file {KiCad 5.1.10} date 01/22/22 00:14:28
; FORMAT={-:-/ absolute / inch / decimal}
; #@! TF.CreationDate,2022-01-22T00:14:28-08:00
; #@! TF.GenerationSoftware,Kicad,Pcbnew,5.1.10
; #@! TF.FileFunction,Plated,1,2,PTH
FMAT,2
INCH
T1C0.0130
T2C0.0210
T3C0.0315
T4C0.0362
T5C0.0390
T6C0.0394
T7C0.0512
T8C0.0917
T9C0.1260
T10C0.1260
%
G90
G05
T1
X3.0472Y-4.5059
X3.0498Y-4.1184
X3.1524Y-4.2721
X3.1558Y-4.4092
X3.2629Y-4.1727
X3.2629Y-4.9142
X3.3302Y-4.4587
X3.3842Y-2.9206
X3.3842Y-3.5821
X3.4028Y-6.1591
X3.4103Y-2.9426
X3.4103Y-3.6759
X3.5159Y-4.5053
X3.5244Y-3.0862
X3.5244Y-1.2445
X3.5472Y-1.6004
X3.5477Y-3.3358
X3.548Y-5.0516
X3.5697Y-2.8114
X3.5697Y-3.5357
X3.5697Y-3.8976
X3.5705Y-6.0748
X3.5901Y-2.5067
X3.6122Y-2.4799
X3.6232Y-5.3792
X3.6576Y-4.8205
X3.6584Y-5.3346
X3.6592Y-4.6724
X3.706Y-3.9711
X3.7087Y-2.4567
X3.7568Y-3.0657
X3.7576Y-3.5357
X3.7576Y-3.6767
X3.7576Y-5.2897
X3.7576Y-6.5719
X3.7583Y-4.8433
X3.7587Y-4.6272
X3.7587Y-2.7557
X3.7801Y-5.0958
X3.7947Y-5.4232
X3.8078Y-3.5126
X3.8078Y-4.0646
X3.8091Y-5.0736
X3.8268Y-5.239
X3.8572Y-3.0657
X3.8572Y-6.594
X3.8578Y-5.4799
X3.8579Y-4.8661
X3.8622Y-2.1299
X3.9033Y-3.0657
X3.9067Y-2.8579
X3.9068Y-6.6453
X3.9091Y-4.9385
X3.9154Y-5.1909
X3.9411Y-3.8185
X3.9576Y-5.6047
X3.9583Y-4.8882
X3.9678Y-4.0646
X4.0012Y-2.9426
X4.008Y-1.4803
X4.01Y-3.0657
X4.0112Y-5.0516
X4.0576Y-3.9711
X4.058Y-5.4677
X4.0583Y-4.5053
X4.1017Y-5.4232
X4.1083Y-3.9711
X4.1092Y-4.7192
X4.1102Y-3.8976
X4.1575Y-6.0744
X4.1576Y-2.9206
X4.1579Y-5.4232
X4.2056Y-4.6724
X4.2116Y-3.8976
X4.2228Y-4.3125
X4.2354Y-5.028
X4.2576Y-4.3125
X4.2576Y-4.6945
X4.2579Y-3.6761
X4.2598Y-2.811
X4.3071Y-4.8433
X4.3088Y-3.8976
X4.3571Y-2.5067
X4.3576Y-3.9974
X4.4076Y-4.8661
X4.4076Y-5.0304
X4.4076Y-6.6215
X4.4094Y-4.022
X4.4549Y-3.9457
X4.4572Y-6.594
X4.4576Y-3.3358
X4.4576Y-5.0524
X4.4579Y-5.5587
X4.4583Y-2.5067
X4.4812Y-5.4677
X4.5075Y-4.3372
X4.5079Y-1.6004
X4.5079Y-3.8559
X4.5087Y-3.7906
X4.5114Y-6.4528
X4.534Y-6.5725
X4.5576Y-4.022
X4.5576Y-6.5906
X4.5579Y-5.6256
X4.6064Y-1.4803
X4.6067Y-4.3125
X4.6076Y-3.9711
X4.6076Y-5.0524
X4.6078Y-6.7878
X4.6079Y-4.6272
X4.6588Y-6.5495
X4.6594Y-5.5827
X4.6843Y-5.5583
X4.706Y-6.541
X4.7076Y-4.6945
X4.7087Y-1.2433
X4.7576Y-5.4453
X4.7576Y-2.8932
X4.7579Y-3.698
X4.758Y-6.5658
X4.8039Y-4.3372
X4.8039Y-3.8906
X4.8071Y-5.9921
X4.8576Y-2.8932
X4.8622Y-5.4012
X4.9079Y-4.8878
X4.9084Y-6.5658
X4.9134Y-5.9685
X4.9576Y-3.8189
X4.9576Y-4.6494
X4.9576Y-6.6217
X4.9588Y-5.2111
X4.9897Y-6.6867
X5.0016Y-4.6724
X5.0039Y-5.9449
X5.0576Y-3.9189
X5.0576Y-5.2671
X5.1067Y-4.8205
X5.1071Y-3.676
X5.1576Y-5.3126
X5.1831Y-5.6713
X5.2031Y-4.5053
X5.206Y-2.4547
X5.206Y-3.9461
X5.2068Y-4.2111
X5.2075Y-5.7681
X5.2303Y-1.7721
X5.2303Y-3.079
X5.2576Y-3.226
X5.2576Y-5.3581
X5.3075Y-3.0555
X5.3075Y-5.7681
X5.3076Y-3.698
X5.3091Y-3.8169
X5.3576Y-3.101
X5.3579Y-4.8217
X5.3583Y-5.6476
X5.4051Y-3.3358
X5.4075Y-5.7681
X5.4091Y-2.2728
X5.4091Y-3.226
X5.4094Y-3.5744
X5.4098Y-4.7191
X5.4579Y-3.7902
X5.5067Y-2.4772
X5.5068Y-3.8894
X5.5068Y-3.9209
X5.5071Y-5.7681
X5.5571Y-3.8559
X5.5576Y-3.4193
X5.5576Y-3.9711
X5.5579Y-4.4807
X5.6063Y-2.5067
X5.628Y-2.4106
X5.6287Y-3.9974
X5.6504Y-4.3357
X5.6736Y-4.3137
T2
X4.1576Y-4.7587
X4.2579Y-5.5268
X4.4576Y-4.7587
X4.7053Y-4.1221
X5.1576Y-4.1221
T3
X3.4647Y-4.1182
X3.4647Y-4.2182
X3.4647Y-4.3182
X3.4647Y-4.4182
X3.6576Y-1.5055
X3.6576Y-1.654
X3.6576Y-2.254
X3.6576Y-2.4106
X3.6576Y-3.0106
X3.6576Y-3.168
X3.6576Y-3.468
X3.6576Y-3.6266
X3.6576Y-4.2266
X3.6576Y-4.3832
X3.6576Y-4.9832
X3.6576Y-5.1399
X3.6576Y-5.7399
X3.6576Y-5.8965
X3.6576Y-6.4965
X3.7576Y-1.5055
X3.7576Y-1.654
X3.7576Y-2.254
X3.7576Y-2.4106
X3.7576Y-3.0106
X3.7576Y-3.168
X3.7576Y-3.468
X3.7576Y-3.6266
X3.7576Y-4.2266
X3.7576Y-4.3832
X3.7576Y-4.9832
X3.7576Y-5.1399
X3.7576Y-5.7399
X3.7576Y-5.8965
X3.7576Y-6.4965
X3.8576Y-1.5055
X3.8576Y-1.654
X3.8576Y-2.254
X3.8576Y-2.4106
X3.8576Y-3.0106
X3.8576Y-3.168
X3.8576Y-3.468
X3.8576Y-3.6266
X3.8576Y-4.2266
X3.8576Y-4.3832
X3.8576Y-4.9832
X3.8576Y-5.1399
X3.8576Y-5.7399
X3.8576Y-5.8965
X3.8576Y-6.4965
X3.9576Y-1.5055
X3.9576Y-1.654
X3.9576Y-2.254
X3.9576Y-2.4106
X3.9576Y-3.0106
X3.9576Y-3.168
X3.9576Y-3.468
X3.9576Y-3.6266
X3.9576Y-4.2266
X3.9576Y-4.3832
X3.9576Y-4.9832
X3.9576Y-5.1399
X3.9576Y-5.7399
X3.9576Y-5.8965
X3.9576Y-6.4965
X4.0576Y-1.654
X4.0576Y-2.254
X4.0576Y-2.4106
X4.0576Y-3.0106
X4.0576Y-3.168
X4.0576Y-3.468
X4.0576Y-3.6266
X4.0576Y-4.2266
X4.0576Y-4.3832
X4.0576Y-4.9832
X4.0576Y-5.1399
X4.0576Y-5.7399
X4.0576Y-5.8965
X4.0576Y-6.4965
X4.1576Y-1.654
X4.1576Y-2.254
X4.1576Y-2.4106
X4.1576Y-3.0106
X4.1576Y-3.168
X4.1576Y-3.468
X4.1576Y-3.6266
X4.1576Y-4.2266
X4.1576Y-4.3832
X4.1576Y-4.9832
X4.1576Y-5.1399
X4.1576Y-5.7399
X4.1576Y-5.8965
X4.1576Y-6.4965
X4.2576Y-1.654
X4.2576Y-2.254
X4.2576Y-2.4106
X4.2576Y-3.0106
X4.2576Y-3.168
X4.2576Y-3.468
X4.2576Y-3.6266
X4.2576Y-4.2266
X4.2576Y-4.3832
X4.2576Y-4.9832
X4.2576Y-5.1399
X4.2576Y-5.7399
X4.2576Y-5.8965
X4.2576Y-6.4965
X4.3576Y-1.654
X4.3576Y-2.254
X4.3576Y-2.4106
X4.3576Y-3.0106
X4.3576Y-3.168
X4.3576Y-3.468
X4.3576Y-3.6266
X4.3576Y-4.2266
X4.3576Y-4.3832
X4.3576Y-4.9832
X4.3576Y-5.1399
X4.3576Y-5.7399
X4.3576Y-5.8965
X4.3576Y-6.4965
X4.4576Y-1.654
X4.4576Y-2.254
X4.4576Y-2.4106
X4.4576Y-3.0106
X4.4576Y-3.168
X4.4576Y-3.468
X4.4576Y-3.6266
X4.4576Y-4.2266
X4.4576Y-4.3832
X4.4576Y-4.9832
X4.4576Y-5.1399
X4.4576Y-5.7399
X4.4576Y-5.8965
X4.4576Y-6.4965
X4.5576Y-1.654
X4.5576Y-2.254
X4.5576Y-2.4106
X4.5576Y-3.0106
X4.5576Y-3.168
X4.5576Y-3.468
X4.5576Y-3.6266
X4.5576Y-4.2266
X4.5576Y-4.3832
X4.5576Y-4.9832
X4.5576Y-5.1399
X4.5576Y-5.7399
X4.5576Y-5.8965
X4.5576Y-6.4965
X4.6576Y-1.654
X4.6576Y-2.254
X4.6576Y-2.4106
X4.6576Y-3.0106
X4.6576Y-3.168
X4.6576Y-3.468
X4.6576Y-3.6266
X4.6576Y-4.2266
X4.6576Y-4.3832
X4.6576Y-4.9832
X4.6576Y-5.1399
X4.6576Y-5.7399
X4.6576Y-5.8965
X4.6576Y-6.4965
X4.7576Y-1.654
X4.7576Y-2.254
X4.7576Y-2.4106
X4.7576Y-3.0106
X4.7576Y-3.168
X4.7576Y-3.468
X4.7576Y-3.6266
X4.7576Y-4.2266
X4.7576Y-4.3832
X4.7576Y-4.9832
X4.7576Y-5.1399
X4.7576Y-5.7399
X4.7576Y-5.8965
X4.7576Y-6.4965
X4.8576Y-1.654
X4.8576Y-2.254
X4.8576Y-2.4106
X4.8576Y-3.0106
X4.8576Y-3.6266
X4.8576Y-4.2266
X4.8576Y-4.3832
X4.8576Y-4.9832
X4.8576Y-5.1399
X4.8576Y-5.7399
X4.8576Y-5.8965
X4.8576Y-6.4965
X4.9576Y-1.654
X4.9576Y-2.254
X4.9576Y-2.4106
X4.9576Y-3.0106
X4.9576Y-3.1712
X4.9576Y-3.4712
X4.9576Y-3.6266
X4.9576Y-4.2266
X4.9576Y-4.3832
X4.9576Y-4.9832
X4.9576Y-5.1399
X4.9576Y-5.7399
X4.9576Y-5.8965
X4.9576Y-6.4965
X5.0576Y-1.654
X5.0576Y-2.254
X5.0576Y-2.4106
X5.0576Y-3.0106
X5.0576Y-3.1712
X5.0576Y-3.4712
X5.0576Y-3.6266
X5.0576Y-4.2266
X5.0576Y-4.3832
X5.0576Y-4.9832
X5.0576Y-5.1399
X5.0576Y-5.7399
X5.0576Y-5.8965
X5.0576Y-6.4965
X5.1576Y-1.654
X5.1576Y-2.254
X5.1576Y-2.4106
X5.1576Y-3.0106
X5.1576Y-3.1712
X5.1576Y-3.4712
X5.1576Y-3.6266
X5.1576Y-4.2266
X5.1576Y-4.3832
X5.1576Y-4.9832
X5.1576Y-5.1399
X5.1576Y-5.7399
X5.1576Y-5.8965
X5.1576Y-6.4965
X5.2576Y-3.1712
X5.2576Y-3.4712
X5.2576Y-3.6266
X5.2576Y-4.2266
X5.2576Y-4.3832
X5.2576Y-4.9832
X5.2576Y-5.1399
X5.2576Y-5.7399
X5.2576Y-5.8965
X5.2576Y-6.4965
X5.3576Y-3.1712
X5.3576Y-3.4712
X5.3576Y-3.6266
X5.3576Y-4.2266
X5.3576Y-4.3832
X5.3576Y-4.9832
X5.3576Y-5.1399
X5.3576Y-5.7399
X5.3576Y-5.8965
X5.3576Y-6.4965
X5.4576Y-3.1712
X5.4576Y-3.4712
X5.4576Y-3.6266
X5.4576Y-4.2266
X5.4576Y-4.3832
X5.4576Y-4.9832
X5.4576Y-5.1399
X5.4576Y-5.7399
X5.4576Y-5.8965
X5.4576Y-6.4965
X5.5576Y-3.1712
X5.5576Y-3.4712
X5.5576Y-3.6266
X5.5576Y-4.2266
X5.5576Y-4.3832
X5.5576Y-4.9832
X5.5576Y-5.1399
X5.5576Y-5.7399
X5.5576Y-5.8965
X5.5576Y-6.4965
X5.7323Y-3.6537
X5.7323Y-3.7537
X5.7323Y-3.8537
X5.7323Y-3.9537
X5.7323Y-4.0537
X5.7323Y-4.1537
X5.7323Y-4.2537
X5.7323Y-4.3537
X5.7323Y-4.4537
X5.7323Y-4.5537
X5.7323Y-5.2695
X5.7323Y-5.3695
X5.7323Y-5.4695
X5.7323Y-5.5695
X5.7323Y-5.6695
X5.7323Y-5.7695
X5.7323Y-5.8695
X5.7323Y-5.9695
X5.7323Y-6.0695
X5.7323Y-6.1695
X5.9608Y-2.6579
X5.9608Y-2.7579
X5.9608Y-2.8579
X5.9608Y-2.9579
X6.0108Y-1.2992
X6.0323Y-3.6537
X6.0323Y-3.7537
X6.0323Y-3.8537
X6.0323Y-3.9537
X6.0323Y-4.0537
X6.0323Y-4.1537
X6.0323Y-4.2537
X6.0323Y-4.3537
X6.0323Y-4.4537
X6.0323Y-4.5537
X6.0323Y-5.2695
X6.0323Y-5.3695
X6.0323Y-5.4695
X6.0323Y-5.5695
X6.0323Y-5.6695
X6.0323Y-5.7695
X6.0323Y-5.8695
X6.0323Y-5.9695
X6.0323Y-6.0695
X6.0323Y-6.1695
X6.0895Y-1.2992
X6.1679Y-2.7579
X6.1679Y-2.8579
X6.1679Y-2.9579
X6.1962Y-2.2713
X6.1962Y-2.3713
X6.1962Y-2.4713
X6.4679Y-2.7579
X6.4679Y-2.8579
X6.4679Y-2.9579
T4
X6.0108Y-1.7721
X6.0108Y-1.8705
X6.0895Y-1.7721
X6.0895Y-1.8705
T5
X6.4997Y-2.2817
X6.4997Y-2.4589
T6
X2.8228Y-2.5356
X2.8228Y-2.8356
X2.8228Y-3.1356
X2.8228Y-3.3996
X2.8228Y-3.6996
X2.8228Y-3.9996
X3.1028Y-4.3587
X3.1028Y-4.4587
X3.1028Y-4.5587
X3.1028Y-4.6587
X3.1028Y-5.1587
X3.1028Y-5.2587
X3.1028Y-5.3587
X3.1028Y-5.4587
X3.1028Y-5.5587
X3.1028Y-5.6587
X3.1028Y-5.7587
X3.1028Y-5.8587
X3.1028Y-5.9587
X3.1028Y-6.0587
X3.1028Y-6.1587
X3.1028Y-6.2587
X3.1028Y-6.3587
X3.1228Y-2.5356
X3.1228Y-2.8356
X3.1228Y-3.1356
X3.1228Y-3.3996
X3.1228Y-3.6996
X3.1228Y-3.9996
X3.2028Y-4.3587
X3.2028Y-4.4587
X3.2028Y-4.5587
X3.2028Y-4.6587
X3.2028Y-5.1587
X3.2028Y-5.2587
X3.2028Y-5.3587
X3.2028Y-5.4587
X3.2028Y-5.5587
X3.2028Y-5.6587
X3.2028Y-5.7587
X3.2028Y-5.8587
X3.2028Y-5.9587
X3.2028Y-6.0587
X3.2028Y-6.1587
X3.2028Y-6.2587
X3.2028Y-6.3587
X3.328Y-2.612
X3.328Y-2.8088
X3.328Y-3.22
X3.328Y-3.4168
X3.328Y-3.778
X3.328Y-3.9748
X3.328Y-4.1182
X3.328Y-4.2182
X3.328Y-4.3182
X3.328Y-4.5587
X3.328Y-4.6587
X3.328Y-4.7587
X3.4623Y-1.8553
X3.4623Y-2.0522
X3.4647Y-4.5618
X3.4647Y-4.7587
X3.4673Y-2.612
X3.4673Y-2.8088
X3.4673Y-3.22
X3.4673Y-3.4168
X3.4673Y-3.778
X3.4673Y-3.9748
X3.6576Y-1.1957
X3.6576Y-1.2957
X3.7576Y-1.1957
X3.7576Y-1.2957
X3.8576Y-1.1957
X3.8576Y-1.2957
X3.9576Y-1.1957
X3.9576Y-1.2957
X4.0576Y-1.1957
X4.0576Y-1.2957
X4.1576Y-1.1957
X4.1576Y-1.2957
X4.2576Y-1.1957
X4.2576Y-1.2957
X4.3576Y-1.1957
X4.3576Y-1.2957
X4.3576Y-6.737
X4.3576Y-6.837
X4.4576Y-1.1957
X4.4576Y-1.2957
X4.4576Y-6.737
X4.4576Y-6.837
X4.5576Y-1.1957
X4.5576Y-1.2957
X4.5576Y-6.737
X4.5576Y-6.837
X4.6576Y-1.1957
X4.6576Y-1.2957
X4.6576Y-6.737
X4.6576Y-6.837
X4.7576Y-1.1957
X4.7576Y-1.2957
X4.7576Y-6.737
X4.7576Y-6.837
X4.8576Y-1.1957
X4.8576Y-1.2957
X4.8576Y-6.737
X4.8576Y-6.837
X4.9576Y-1.1957
X4.9576Y-1.2957
X4.9576Y-6.737
X4.9576Y-6.837
X5.0576Y-1.1957
X5.0576Y-1.2957
X5.0576Y-6.737
X5.0576Y-6.837
X5.1576Y-1.1957
X5.1576Y-1.2957
X5.1576Y-6.737
X5.1576Y-6.837
X5.2576Y-1.1957
X5.2576Y-1.2957
X5.2576Y-6.737
X5.2576Y-6.837
X5.3576Y-1.1957
X5.3576Y-1.2957
X5.3576Y-6.737
X5.3576Y-6.837
X5.4576Y-1.1957
X5.4576Y-1.2957
X5.4576Y-6.737
X5.4576Y-6.837
X5.5576Y-1.1957
X5.5576Y-1.2957
X5.5576Y-6.737
X5.5576Y-6.837
X5.7835Y-4.7587
X5.7835Y-5.0896
X5.7835Y-6.376
X5.7835Y-6.5157
X5.9596Y-2.2729
X5.9596Y-2.4697
X5.9803Y-4.7587
X5.9803Y-5.0896
X5.9803Y-6.376
X5.9803Y-6.5157
X6.1753Y-4.7242
X6.1753Y-4.8846
X6.197Y-3.5811
X6.197Y-3.6902
X6.197Y-3.7992
X6.197Y-3.9083
X6.197Y-4.0173
X6.197Y-5.4299
X6.197Y-5.539
X6.197Y-5.648
X6.197Y-5.7571
X6.197Y-5.8661
X6.2752Y-4.5646
X6.2753Y-4.7242
X6.2753Y-4.8846
X6.2816Y-6.376
X6.3088Y-3.6356
X6.3088Y-3.7447
X6.3088Y-3.8537
X6.3088Y-3.9628
X6.3088Y-5.4844
X6.3088Y-5.5935
X6.3088Y-5.7026
X6.3088Y-5.8116
X6.3752Y-4.5646
X6.3753Y-4.7242
X6.3753Y-4.8846
X6.3816Y-6.376
T7
X6.4017Y-2.2325
X6.4017Y-2.5085
T8
X6.1962Y-1.5843
X6.1962Y-2.0583
T9
X6.2529Y-3.3071
X6.2529Y-4.2913
X6.2529Y-5.1559
X6.2529Y-6.1402
T10
X2.9096Y-1.2996
X2.9096Y-6.7327
X6.3742Y-1.2996
X6.3742Y-6.7327
T0
M30
