G04 #@! TF.GenerationSoftware,KiCad,Pcbnew,5.1.10*
G04 #@! TF.CreationDate,2022-01-21T18:06:32-08:00*
G04 #@! TF.ProjectId,Z-FIGHTER_Mainboard,5a2d4649-4748-4544-9552-5f4d61696e62,rev?*
G04 #@! TF.SameCoordinates,Original*
G04 #@! TF.FileFunction,Soldermask,Bot*
G04 #@! TF.FilePolarity,Negative*
%FSLAX46Y46*%
G04 Gerber Fmt 4.6, Leading zero omitted, Abs format (unit mm)*
G04 Created by KiCad (PCBNEW 5.1.10) date 2022-01-21 18:06:32*
%MOMM*%
%LPD*%
G01*
G04 APERTURE LIST*
%ADD10C,1.700000*%
%ADD11O,1.700000X1.700000*%
%ADD12R,1.700000X1.700000*%
%ADD13R,2.500000X2.500000*%
%ADD14C,2.500000*%
%ADD15R,1.600000X1.600000*%
%ADD16O,1.600000X1.600000*%
%ADD17C,4.000000*%
%ADD18C,1.600000*%
%ADD19C,3.500000*%
%ADD20C,2.000000*%
%ADD21C,6.400000*%
%ADD22C,2.100000*%
%ADD23C,1.750000*%
%ADD24R,1.500000X1.500000*%
%ADD25C,1.500000*%
G04 APERTURE END LIST*
G36*
G01*
X82200000Y-117730800D02*
X82200000Y-118930800D01*
G75*
G02*
X81950000Y-119180800I-250000J0D01*
G01*
X80750000Y-119180800D01*
G75*
G02*
X80500000Y-118930800I0J250000D01*
G01*
X80500000Y-117730800D01*
G75*
G02*
X80750000Y-117480800I250000J0D01*
G01*
X81950000Y-117480800D01*
G75*
G02*
X82200000Y-117730800I0J-250000D01*
G01*
G37*
D10*
X81350000Y-115790800D03*
X81350000Y-113250800D03*
X81350000Y-110710800D03*
X78810000Y-118330800D03*
X78810000Y-115790800D03*
X78810000Y-113250800D03*
X78810000Y-110710800D03*
D11*
X110683600Y-173660000D03*
X110683600Y-171120000D03*
X113223600Y-173660000D03*
X113223600Y-171120000D03*
X115763600Y-173660000D03*
X115763600Y-171120000D03*
X118303600Y-173660000D03*
X118303600Y-171120000D03*
X120843600Y-173660000D03*
X120843600Y-171120000D03*
X123383600Y-173660000D03*
X123383600Y-171120000D03*
X125923600Y-173660000D03*
X125923600Y-171120000D03*
X128463600Y-173660000D03*
X128463600Y-171120000D03*
X131003600Y-173660000D03*
X131003600Y-171120000D03*
X133543600Y-173660000D03*
X133543600Y-171120000D03*
X136083600Y-173660000D03*
X136083600Y-171120000D03*
X138623600Y-173660000D03*
X138623600Y-171120000D03*
X141163600Y-173660000D03*
D12*
X141163600Y-171120000D03*
D13*
X71700000Y-93970800D03*
D14*
X79320000Y-93970800D03*
X79318000Y-72025200D03*
D13*
X71698000Y-72025200D03*
X71700000Y-86350800D03*
D14*
X79320000Y-86350800D03*
X79320000Y-101590800D03*
X71700000Y-101590800D03*
X71698000Y-79645200D03*
X79318000Y-79645200D03*
X79318000Y-64405200D03*
D13*
X71698000Y-64405200D03*
D15*
X92903600Y-57250800D03*
D16*
X131003600Y-42010800D03*
X95443600Y-57250800D03*
X128463600Y-42010800D03*
X97983600Y-57250800D03*
X125923600Y-42010800D03*
X100523600Y-57250800D03*
X123383600Y-42010800D03*
X103063600Y-57250800D03*
X120843600Y-42010800D03*
X105603600Y-57250800D03*
X118303600Y-42010800D03*
X108143600Y-57250800D03*
X115763600Y-42010800D03*
X110683600Y-57250800D03*
X113223600Y-42010800D03*
X113223600Y-57250800D03*
X110683600Y-42010800D03*
X115763600Y-57250800D03*
X108143600Y-42010800D03*
X118303600Y-57250800D03*
X105603600Y-42010800D03*
X120843600Y-57250800D03*
X103063600Y-42010800D03*
X123383600Y-57250800D03*
X100523600Y-42010800D03*
X125923600Y-57250800D03*
X97983600Y-42010800D03*
X128463600Y-57250800D03*
X95443600Y-42010800D03*
X131003600Y-57250800D03*
X92903600Y-42010800D03*
G36*
G01*
X82200000Y-160910800D02*
X82200000Y-162110800D01*
G75*
G02*
X81950000Y-162360800I-250000J0D01*
G01*
X80750000Y-162360800D01*
G75*
G02*
X80500000Y-162110800I0J250000D01*
G01*
X80500000Y-160910800D01*
G75*
G02*
X80750000Y-160660800I250000J0D01*
G01*
X81950000Y-160660800D01*
G75*
G02*
X82200000Y-160910800I0J-250000D01*
G01*
G37*
D10*
X81350000Y-158970800D03*
X81350000Y-156430800D03*
X81350000Y-153890800D03*
X81350000Y-151350800D03*
X81350000Y-148810800D03*
X81350000Y-146270800D03*
X81350000Y-143730800D03*
X81350000Y-141190800D03*
X81350000Y-138650800D03*
X81350000Y-136110800D03*
X81350000Y-133570800D03*
X81350000Y-131030800D03*
X78810000Y-161510800D03*
X78810000Y-158970800D03*
X78810000Y-156430800D03*
X78810000Y-153890800D03*
X78810000Y-151350800D03*
X78810000Y-148810800D03*
X78810000Y-146270800D03*
X78810000Y-143730800D03*
X78810000Y-141190800D03*
X78810000Y-138650800D03*
X78810000Y-136110800D03*
X78810000Y-133570800D03*
X78810000Y-131030800D03*
D15*
X145600000Y-92805000D03*
D16*
X153220000Y-115665000D03*
X145600000Y-95345000D03*
X153220000Y-113125000D03*
X145600000Y-97885000D03*
X153220000Y-110585000D03*
X145600000Y-100425000D03*
X153220000Y-108045000D03*
X145600000Y-102965000D03*
X153220000Y-105505000D03*
X145600000Y-105505000D03*
X153220000Y-102965000D03*
X145600000Y-108045000D03*
X153220000Y-100425000D03*
X145600000Y-110585000D03*
X153220000Y-97885000D03*
X145600000Y-113125000D03*
X153220000Y-95345000D03*
X145600000Y-115665000D03*
X153220000Y-92805000D03*
D17*
X158823600Y-84000000D03*
X158823600Y-109000000D03*
D18*
X160243600Y-92345000D03*
X160243600Y-95115000D03*
X160243600Y-97885000D03*
X160243600Y-100655000D03*
X157403600Y-90960000D03*
X157403600Y-93730000D03*
X157403600Y-96500000D03*
X157403600Y-99270000D03*
D15*
X157403600Y-102040000D03*
X157403600Y-149000000D03*
D18*
X157403600Y-146230000D03*
X157403600Y-143460000D03*
X157403600Y-140690000D03*
X157403600Y-137920000D03*
X160243600Y-147615000D03*
X160243600Y-144845000D03*
X160243600Y-142075000D03*
X160243600Y-139305000D03*
D17*
X158823600Y-155960000D03*
X158823600Y-130960000D03*
D10*
X92903600Y-32910000D03*
X95443600Y-32910000D03*
X97983600Y-32910000D03*
X100523600Y-32910000D03*
X103063600Y-32910000D03*
X105603600Y-32910000D03*
X108143600Y-32910000D03*
X110683600Y-32910000D03*
X113223600Y-32910000D03*
X115763600Y-32910000D03*
X118303600Y-32910000D03*
X120843600Y-32910000D03*
X123383600Y-32910000D03*
X125923600Y-32910000D03*
X128463600Y-32910000D03*
X131003600Y-32910000D03*
X133543600Y-32910000D03*
X136083600Y-32910000D03*
X138623600Y-32910000D03*
X141163600Y-32910000D03*
X92903600Y-30370000D03*
X95443600Y-30370000D03*
X97983600Y-30370000D03*
X100523600Y-30370000D03*
X103063600Y-30370000D03*
X105603600Y-30370000D03*
X108143600Y-30370000D03*
X110683600Y-30370000D03*
X113223600Y-30370000D03*
X115763600Y-30370000D03*
X118303600Y-30370000D03*
X120843600Y-30370000D03*
X123383600Y-30370000D03*
X125923600Y-30370000D03*
X128463600Y-30370000D03*
X131003600Y-30370000D03*
X133543600Y-30370000D03*
X136083600Y-30370000D03*
X138623600Y-30370000D03*
G36*
G01*
X140563600Y-29520000D02*
X141763600Y-29520000D01*
G75*
G02*
X142013600Y-29770000I0J-250000D01*
G01*
X142013600Y-30970000D01*
G75*
G02*
X141763600Y-31220000I-250000J0D01*
G01*
X140563600Y-31220000D01*
G75*
G02*
X140313600Y-30970000I0J250000D01*
G01*
X140313600Y-29770000D01*
G75*
G02*
X140563600Y-29520000I250000J0D01*
G01*
G37*
D16*
X92903600Y-149770800D03*
X141163600Y-165010800D03*
X95443600Y-149770800D03*
X138623600Y-165010800D03*
X97983600Y-149770800D03*
X136083600Y-165010800D03*
X100523600Y-149770800D03*
X133543600Y-165010800D03*
X103063600Y-149770800D03*
X131003600Y-165010800D03*
X105603600Y-149770800D03*
X128463600Y-165010800D03*
X108143600Y-149770800D03*
X125923600Y-165010800D03*
X110683600Y-149770800D03*
X123383600Y-165010800D03*
X113223600Y-149770800D03*
X120843600Y-165010800D03*
X115763600Y-149770800D03*
X118303600Y-165010800D03*
X118303600Y-149770800D03*
X115763600Y-165010800D03*
X120843600Y-149770800D03*
X113223600Y-165010800D03*
X123383600Y-149770800D03*
X110683600Y-165010800D03*
X125923600Y-149770800D03*
X108143600Y-165010800D03*
X128463600Y-149770800D03*
X105603600Y-165010800D03*
X131003600Y-149770800D03*
X103063600Y-165010800D03*
X133543600Y-149770800D03*
X100523600Y-165010800D03*
X136083600Y-149770800D03*
X97983600Y-165010800D03*
X138623600Y-149770800D03*
X95443600Y-165010800D03*
X141163600Y-149770800D03*
D15*
X92903600Y-165010800D03*
D16*
X92903600Y-130552800D03*
X141163600Y-145792800D03*
X95443600Y-130552800D03*
X138623600Y-145792800D03*
X97983600Y-130552800D03*
X136083600Y-145792800D03*
X100523600Y-130552800D03*
X133543600Y-145792800D03*
X103063600Y-130552800D03*
X131003600Y-145792800D03*
X105603600Y-130552800D03*
X128463600Y-145792800D03*
X108143600Y-130552800D03*
X125923600Y-145792800D03*
X110683600Y-130552800D03*
X123383600Y-145792800D03*
X113223600Y-130552800D03*
X120843600Y-145792800D03*
X115763600Y-130552800D03*
X118303600Y-145792800D03*
X118303600Y-130552800D03*
X115763600Y-145792800D03*
X120843600Y-130552800D03*
X113223600Y-145792800D03*
X123383600Y-130552800D03*
X110683600Y-145792800D03*
X125923600Y-130552800D03*
X108143600Y-145792800D03*
X128463600Y-130552800D03*
X105603600Y-145792800D03*
X131003600Y-130552800D03*
X103063600Y-145792800D03*
X133543600Y-130552800D03*
X100523600Y-145792800D03*
X136083600Y-130552800D03*
X97983600Y-145792800D03*
X138623600Y-130552800D03*
X95443600Y-145792800D03*
X141163600Y-130552800D03*
D15*
X92903600Y-145792800D03*
D16*
X92903600Y-92115800D03*
X141163600Y-107355800D03*
X95443600Y-92115800D03*
X138623600Y-107355800D03*
X97983600Y-92115800D03*
X136083600Y-107355800D03*
X100523600Y-92115800D03*
X133543600Y-107355800D03*
X103063600Y-92115800D03*
X131003600Y-107355800D03*
X105603600Y-92115800D03*
X128463600Y-107355800D03*
X108143600Y-92115800D03*
X125923600Y-107355800D03*
X110683600Y-92115800D03*
X123383600Y-107355800D03*
X113223600Y-92115800D03*
X120843600Y-107355800D03*
X115763600Y-92115800D03*
X118303600Y-107355800D03*
X118303600Y-92115800D03*
X115763600Y-107355800D03*
X120843600Y-92115800D03*
X113223600Y-107355800D03*
X123383600Y-92115800D03*
X110683600Y-107355800D03*
X125923600Y-92115800D03*
X108143600Y-107355800D03*
X128463600Y-92115800D03*
X105603600Y-107355800D03*
X131003600Y-92115800D03*
X103063600Y-107355800D03*
X133543600Y-92115800D03*
X100523600Y-107355800D03*
X136083600Y-92115800D03*
X97983600Y-107355800D03*
X138623600Y-92115800D03*
X95443600Y-107355800D03*
X141163600Y-92115800D03*
D15*
X92903600Y-107355800D03*
X92903600Y-76469100D03*
D16*
X131003600Y-61229100D03*
X95443600Y-76469100D03*
X128463600Y-61229100D03*
X97983600Y-76469100D03*
X125923600Y-61229100D03*
X100523600Y-76469100D03*
X123383600Y-61229100D03*
X103063600Y-76469100D03*
X120843600Y-61229100D03*
X105603600Y-76469100D03*
X118303600Y-61229100D03*
X108143600Y-76469100D03*
X115763600Y-61229100D03*
X110683600Y-76469100D03*
X113223600Y-61229100D03*
X113223600Y-76469100D03*
X110683600Y-61229100D03*
X115763600Y-76469100D03*
X108143600Y-61229100D03*
X118303600Y-76469100D03*
X105603600Y-61229100D03*
X120843600Y-76469100D03*
X103063600Y-61229100D03*
X123383600Y-76469100D03*
X100523600Y-61229100D03*
X125923600Y-76469100D03*
X97983600Y-61229100D03*
X128463600Y-76469100D03*
X95443600Y-61229100D03*
X131003600Y-76469100D03*
X92903600Y-61229100D03*
D15*
X125923600Y-88167500D03*
D16*
X141163600Y-80547500D03*
X128463600Y-88167500D03*
X138623600Y-80547500D03*
X131003600Y-88167500D03*
X136083600Y-80547500D03*
X133543600Y-88167500D03*
X133543600Y-80547500D03*
X136083600Y-88167500D03*
X131003600Y-80547500D03*
X138623600Y-88167500D03*
X128463600Y-80547500D03*
X141163600Y-88167500D03*
X125923600Y-80547500D03*
D15*
X92903600Y-126573800D03*
D16*
X141163600Y-111333800D03*
X95443600Y-126573800D03*
X138623600Y-111333800D03*
X97983600Y-126573800D03*
X136083600Y-111333800D03*
X100523600Y-126573800D03*
X133543600Y-111333800D03*
X103063600Y-126573800D03*
X131003600Y-111333800D03*
X105603600Y-126573800D03*
X128463600Y-111333800D03*
X108143600Y-126573800D03*
X125923600Y-111333800D03*
X110683600Y-126573800D03*
X123383600Y-111333800D03*
X113223600Y-126573800D03*
X120843600Y-111333800D03*
X115763600Y-126573800D03*
X118303600Y-111333800D03*
X118303600Y-126573800D03*
X115763600Y-111333800D03*
X120843600Y-126573800D03*
X113223600Y-111333800D03*
X123383600Y-126573800D03*
X110683600Y-111333800D03*
X125923600Y-126573800D03*
X108143600Y-111333800D03*
X128463600Y-126573800D03*
X105603600Y-111333800D03*
X131003600Y-126573800D03*
X103063600Y-111333800D03*
X133543600Y-126573800D03*
X100523600Y-111333800D03*
X136083600Y-126573800D03*
X97983600Y-111333800D03*
X138623600Y-126573800D03*
X95443600Y-111333800D03*
X141163600Y-126573800D03*
X92903600Y-111333800D03*
D12*
X152673600Y-45010800D03*
D10*
X152673600Y-47510800D03*
X154673600Y-47510800D03*
X154673600Y-45010800D03*
D19*
X157383600Y-40240800D03*
X157383600Y-52280800D03*
D20*
X151373600Y-62730800D03*
X151373600Y-57730800D03*
X88070600Y-86787500D03*
X88070600Y-81787500D03*
D21*
X161903600Y-33010800D03*
X73903600Y-33010800D03*
D20*
X84530600Y-95960800D03*
X84530600Y-100960800D03*
X88070600Y-71344100D03*
X88070600Y-66344100D03*
X87943600Y-47125800D03*
X87943600Y-52125800D03*
X88070600Y-100960800D03*
X88070600Y-95960800D03*
X88002800Y-115870800D03*
X88002800Y-120870800D03*
D21*
X161903600Y-171010800D03*
X73903600Y-171010800D03*
D22*
X162603600Y-56705800D03*
D23*
X165093600Y-57955800D03*
X165093600Y-62455800D03*
D22*
X162603600Y-63715800D03*
D15*
X92903600Y-88087500D03*
D16*
X120843600Y-80467500D03*
X95443600Y-88087500D03*
X118303600Y-80467500D03*
X97983600Y-88087500D03*
X115763600Y-80467500D03*
X100523600Y-88087500D03*
X113223600Y-80467500D03*
X103063600Y-88087500D03*
X110683600Y-80467500D03*
X105603600Y-88087500D03*
X108143600Y-80467500D03*
X108143600Y-88087500D03*
X105603600Y-80467500D03*
X110683600Y-88087500D03*
X103063600Y-80467500D03*
X113223600Y-88087500D03*
X100523600Y-80467500D03*
X115763600Y-88087500D03*
X97983600Y-80467500D03*
X118303600Y-88087500D03*
X95443600Y-80467500D03*
X120843600Y-88087500D03*
X92903600Y-80467500D03*
D15*
X164283600Y-75130800D03*
D16*
X156663600Y-70050800D03*
X164283600Y-72590800D03*
X156663600Y-72590800D03*
X164283600Y-70050800D03*
X156663600Y-75130800D03*
D15*
X151403600Y-67510800D03*
D16*
X151403600Y-70050800D03*
X151403600Y-72590800D03*
X151403600Y-75130800D03*
D15*
X92903600Y-38240200D03*
D16*
X95443600Y-38240200D03*
X97983600Y-38240200D03*
X100523600Y-38240200D03*
D20*
X146900000Y-165500000D03*
X151900000Y-165500000D03*
X84530600Y-86787500D03*
X84530600Y-81787500D03*
D16*
X153220000Y-133845000D03*
X145600000Y-156705000D03*
X153220000Y-136385000D03*
X145600000Y-154165000D03*
X153220000Y-138925000D03*
X145600000Y-151625000D03*
X153220000Y-141465000D03*
X145600000Y-149085000D03*
X153220000Y-144005000D03*
X145600000Y-146545000D03*
X153220000Y-146545000D03*
X145600000Y-144005000D03*
X153220000Y-149085000D03*
X145600000Y-141465000D03*
X153220000Y-151625000D03*
X145600000Y-138925000D03*
X153220000Y-154165000D03*
X145600000Y-136385000D03*
X153220000Y-156705000D03*
D15*
X145600000Y-133845000D03*
D20*
X146900000Y-161950000D03*
X151900000Y-161950000D03*
X146900000Y-120870800D03*
X151900000Y-120870800D03*
X151900000Y-129276800D03*
X146900000Y-129276800D03*
D15*
X152673600Y-33000000D03*
D18*
X154673600Y-33000000D03*
D12*
X84530600Y-115790800D03*
D11*
X84530600Y-118330800D03*
X84530600Y-120870800D03*
D24*
X157383600Y-62770800D03*
D25*
X157383600Y-57690800D03*
X157383600Y-60230800D03*
D20*
X84530600Y-66344100D03*
X84530600Y-71344100D03*
D11*
X84530600Y-109682300D03*
X84530600Y-107142300D03*
D12*
X84530600Y-104602300D03*
D11*
X161933600Y-124069800D03*
X159393600Y-124069800D03*
D12*
X156853600Y-124069800D03*
X156853600Y-119994500D03*
D11*
X159393600Y-119994500D03*
X161933600Y-119994500D03*
D12*
X159552350Y-161950000D03*
D11*
X162092350Y-161950000D03*
D12*
X159390600Y-115941800D03*
D11*
X161930600Y-115941800D03*
D15*
X88002800Y-104602300D03*
D16*
X88002800Y-107142300D03*
X88002800Y-109682300D03*
X88002800Y-112222300D03*
M02*
