M48
; DRILL file {KiCad 5.1.10} date 01/26/22 01:17:45
; FORMAT={-:-/ absolute / inch / decimal}
; #@! TF.CreationDate,2022-01-26T01:17:45-08:00
; #@! TF.GenerationSoftware,Kicad,Pcbnew,5.1.10
; #@! TF.FileFunction,Plated,1,2,PTH
FMAT,2
INCH
T1C0.0157
T2C0.0315
T3C0.0394
%
G90
G05
T1
X4.3022Y-3.4963
X4.3719Y-3.8112
X4.4219Y-2.4589
X4.4319Y-3.4469
X4.4319Y-3.6962
X4.4869Y-2.9096
T2
X4.2219Y-3.1469
X4.2219Y-3.2469
X4.2219Y-3.3469
X4.2219Y-3.4469
X4.2219Y-3.5469
X4.2219Y-3.6469
X4.2219Y-3.7469
X4.3219Y-2.5469
X4.3219Y-2.8469
X4.5219Y-3.1469
X4.5219Y-3.2469
X4.5219Y-3.3469
X4.5219Y-3.4469
X4.5219Y-3.5469
X4.5219Y-3.6469
X4.5219Y-3.7469
X4.6219Y-2.5469
X4.6219Y-2.8469
T3
X4.225Y-3.0219
X4.4219Y-3.0219
X4.525Y-3.0219
X4.6219Y-3.1469
X4.6219Y-3.2469
X4.6219Y-3.3469
X4.6219Y-3.4469
X4.6219Y-3.5469
X4.6219Y-3.6469
X4.6219Y-3.7469
X4.7219Y-3.0219
X4.7219Y-3.1469
X4.7219Y-3.2469
X4.7219Y-3.3469
X4.7219Y-3.4469
X4.7219Y-3.5469
X4.7219Y-3.6469
X4.7219Y-3.7469
T0
M30
