G04 #@! TF.GenerationSoftware,KiCad,Pcbnew,5.1.10*
G04 #@! TF.CreationDate,2022-01-26T01:17:43-08:00*
G04 #@! TF.ProjectId,Baud_Generator,42617564-5f47-4656-9e65-7261746f722e,rev?*
G04 #@! TF.SameCoordinates,Original*
G04 #@! TF.FileFunction,Soldermask,Top*
G04 #@! TF.FilePolarity,Negative*
%FSLAX46Y46*%
G04 Gerber Fmt 4.6, Leading zero omitted, Abs format (unit mm)*
G04 Created by KiCad (PCBNEW 5.1.10) date 2022-01-26 01:17:43*
%MOMM*%
%LPD*%
G01*
G04 APERTURE LIST*
%ADD10C,0.100000*%
%ADD11R,1.700000X1.700000*%
%ADD12O,1.700000X1.700000*%
%ADD13C,2.000000*%
%ADD14O,1.600000X1.600000*%
%ADD15R,1.600000X1.600000*%
%ADD16C,1.600000*%
G04 APERTURE END LIST*
D10*
G36*
X121825001Y-61205001D02*
G01*
X105315001Y-61205001D01*
X105320001Y-56705001D01*
X121830001Y-56705001D01*
X121825001Y-61205001D01*
G37*
X121825001Y-61205001D02*
X105315001Y-61205001D01*
X105320001Y-56705001D01*
X121830001Y-56705001D01*
X121825001Y-61205001D01*
D11*
X117395001Y-79930001D03*
D12*
X119935001Y-79930001D03*
D11*
X117395001Y-82470001D03*
D12*
X119935001Y-82470001D03*
D11*
X117395001Y-85010001D03*
D12*
X119935001Y-85010001D03*
D11*
X117395001Y-87550001D03*
D12*
X119935001Y-87550001D03*
D11*
X117395001Y-90090001D03*
D12*
X119935001Y-90090001D03*
D11*
X117395001Y-92630001D03*
D12*
X119935001Y-92630001D03*
D11*
X117395001Y-95170001D03*
D12*
X119935001Y-95170001D03*
D13*
X107315001Y-76755001D03*
X112315001Y-76755001D03*
X114935001Y-76755001D03*
X119935001Y-76755001D03*
D14*
X114855001Y-79930001D03*
X107235001Y-95170001D03*
X114855001Y-82470001D03*
X107235001Y-92630001D03*
X114855001Y-85010001D03*
X107235001Y-90090001D03*
X114855001Y-87550001D03*
X107235001Y-87550001D03*
X114855001Y-90090001D03*
X107235001Y-85010001D03*
X114855001Y-92630001D03*
X107235001Y-82470001D03*
X114855001Y-95170001D03*
D15*
X107235001Y-79930001D03*
X117395001Y-64690001D03*
D16*
X117395001Y-72310001D03*
X109775001Y-72310001D03*
X109775001Y-64690001D03*
M02*
