G04 #@! TF.GenerationSoftware,KiCad,Pcbnew,5.1.10*
G04 #@! TF.CreationDate,2022-01-26T01:17:43-08:00*
G04 #@! TF.ProjectId,Baud_Generator,42617564-5f47-4656-9e65-7261746f722e,rev?*
G04 #@! TF.SameCoordinates,Original*
G04 #@! TF.FileFunction,Copper,L1,Top*
G04 #@! TF.FilePolarity,Positive*
%FSLAX46Y46*%
G04 Gerber Fmt 4.6, Leading zero omitted, Abs format (unit mm)*
G04 Created by KiCad (PCBNEW 5.1.10) date 2022-01-26 01:17:43*
%MOMM*%
%LPD*%
G01*
G04 APERTURE LIST*
G04 #@! TA.AperFunction,ComponentPad*
%ADD10R,1.700000X1.700000*%
G04 #@! TD*
G04 #@! TA.AperFunction,ComponentPad*
%ADD11O,1.700000X1.700000*%
G04 #@! TD*
G04 #@! TA.AperFunction,ComponentPad*
%ADD12C,2.000000*%
G04 #@! TD*
G04 #@! TA.AperFunction,ComponentPad*
%ADD13O,1.600000X1.600000*%
G04 #@! TD*
G04 #@! TA.AperFunction,ComponentPad*
%ADD14R,1.600000X1.600000*%
G04 #@! TD*
G04 #@! TA.AperFunction,ComponentPad*
%ADD15C,1.600000*%
G04 #@! TD*
G04 #@! TA.AperFunction,ConnectorPad*
%ADD16R,1.500000X5.000000*%
G04 #@! TD*
G04 #@! TA.AperFunction,ViaPad*
%ADD17C,0.800000*%
G04 #@! TD*
G04 #@! TA.AperFunction,Conductor*
%ADD18C,0.500000*%
G04 #@! TD*
G04 #@! TA.AperFunction,Conductor*
%ADD19C,0.250000*%
G04 #@! TD*
G04 APERTURE END LIST*
D10*
X117395001Y-79930001D03*
D11*
X119935001Y-79930001D03*
D10*
X117395001Y-82470001D03*
D11*
X119935001Y-82470001D03*
D10*
X117395001Y-85010001D03*
D11*
X119935001Y-85010001D03*
D10*
X117395001Y-87550001D03*
D11*
X119935001Y-87550001D03*
D10*
X117395001Y-90090001D03*
D11*
X119935001Y-90090001D03*
D10*
X117395001Y-92630001D03*
D11*
X119935001Y-92630001D03*
D10*
X117395001Y-95170001D03*
D11*
X119935001Y-95170001D03*
D12*
X107315001Y-76755001D03*
X112315001Y-76755001D03*
X114935001Y-76755001D03*
X119935001Y-76755001D03*
D13*
X114855001Y-79930001D03*
X107235001Y-95170001D03*
X114855001Y-82470001D03*
X107235001Y-92630001D03*
X114855001Y-85010001D03*
X107235001Y-90090001D03*
X114855001Y-87550001D03*
X107235001Y-87550001D03*
X114855001Y-90090001D03*
X107235001Y-85010001D03*
X114855001Y-92630001D03*
X107235001Y-82470001D03*
X114855001Y-95170001D03*
D14*
X107235001Y-79930001D03*
X117395001Y-64690001D03*
D15*
X117395001Y-72310001D03*
X109775001Y-72310001D03*
X109775001Y-64690001D03*
D16*
X109775001Y-59155000D03*
X114855001Y-59155000D03*
X117395001Y-59155000D03*
X112315001Y-59155000D03*
D17*
X113966001Y-73905001D03*
X112315001Y-62455001D03*
X109275001Y-88805001D03*
X112569001Y-87550001D03*
X112569001Y-93883001D03*
X111045001Y-96805001D03*
D18*
X107315001Y-76755001D02*
X105965001Y-76755001D01*
X106345001Y-76755001D02*
X105965001Y-76375001D01*
X107315001Y-76755001D02*
X106345001Y-76755001D01*
X106365001Y-76755001D02*
X105965001Y-77155001D01*
X107315001Y-76755001D02*
X106365001Y-76755001D01*
X105965001Y-77155001D02*
X105965001Y-76375001D01*
X105965001Y-93900001D02*
X107235001Y-95170001D01*
X107235001Y-82470001D02*
X105965001Y-82470001D01*
X106430001Y-82470001D02*
X105965001Y-82005001D01*
X107235001Y-82470001D02*
X106430001Y-82470001D01*
X105965001Y-77155001D02*
X105965001Y-82005001D01*
X106410001Y-82470001D02*
X105965001Y-82915001D01*
X105965001Y-82915001D02*
X105965001Y-93900001D01*
X107235001Y-82470001D02*
X106410001Y-82470001D01*
X105965001Y-82005001D02*
X105965001Y-82915001D01*
X105965001Y-76375001D02*
X105965001Y-66905001D01*
X105965001Y-66905001D02*
X108715001Y-64155001D01*
X108715001Y-64155001D02*
X108980001Y-63890001D01*
X109775001Y-64685001D02*
X108980001Y-63890001D01*
X109225001Y-64140001D02*
X109775001Y-64690001D01*
X109240001Y-64155001D02*
X109775001Y-64690001D01*
X108715001Y-64155001D02*
X109240001Y-64155001D01*
X108980001Y-63890001D02*
X109435001Y-63435001D01*
D19*
X109435001Y-64350001D02*
X109775001Y-64690001D01*
X109435001Y-63435001D02*
X109435001Y-64350001D01*
D18*
X116350001Y-63435001D02*
X109435001Y-63435001D01*
X117395001Y-62390001D02*
X116350001Y-63435001D01*
X117395001Y-58655000D02*
X117395001Y-62390001D01*
X114855001Y-76675001D02*
X114935001Y-76755001D01*
X112315001Y-76755001D02*
X114935001Y-76755001D01*
X114325001Y-72310001D02*
X117395001Y-72310001D01*
X112315001Y-74320001D02*
X114325001Y-72310001D01*
X112315001Y-76755001D02*
X112315001Y-74320001D01*
X114855001Y-76835001D02*
X114855001Y-79930001D01*
X114935001Y-76755001D02*
X114855001Y-76835001D01*
D19*
X119935001Y-79930001D02*
X119935001Y-95170001D01*
X119935001Y-79325001D02*
X119935001Y-79930001D01*
X114102003Y-73961001D02*
X113966001Y-73961001D01*
X119935001Y-79793999D02*
X114102003Y-73961001D01*
X119935001Y-79930001D02*
X119935001Y-79793999D01*
X112315001Y-59155000D02*
X112315001Y-62205001D01*
X109775001Y-77390001D02*
X107235001Y-79930001D01*
X109775001Y-72310001D02*
X109775001Y-77390001D01*
X116125001Y-83740001D02*
X114855001Y-85010001D01*
X116125001Y-81200001D02*
X116125001Y-83740001D01*
X117395001Y-79930001D02*
X116125001Y-81200001D01*
X116125001Y-86280001D02*
X117395001Y-85010001D01*
X116125001Y-91360001D02*
X116125001Y-86280001D01*
X114855001Y-92630001D02*
X116125001Y-91360001D01*
X109275001Y-90590001D02*
X107235001Y-92630001D01*
X109275001Y-88805001D02*
X109275001Y-90590001D01*
X112569001Y-87550001D02*
X112569001Y-93773001D01*
X111045001Y-88820001D02*
X111045001Y-96805001D01*
X107235001Y-85010001D02*
X111045001Y-88820001D01*
M02*
