G04 #@! TF.GenerationSoftware,KiCad,Pcbnew,5.1.10*
G04 #@! TF.CreationDate,2022-01-26T01:17:43-08:00*
G04 #@! TF.ProjectId,Baud_Generator,42617564-5f47-4656-9e65-7261746f722e,rev?*
G04 #@! TF.SameCoordinates,Original*
G04 #@! TF.FileFunction,Legend,Bot*
G04 #@! TF.FilePolarity,Positive*
%FSLAX46Y46*%
G04 Gerber Fmt 4.6, Leading zero omitted, Abs format (unit mm)*
G04 Created by KiCad (PCBNEW 5.1.10) date 2022-01-26 01:17:43*
%MOMM*%
%LPD*%
G01*
G04 APERTURE LIST*
%ADD10C,0.250000*%
G04 APERTURE END LIST*
D10*
X121085001Y-66428572D02*
X120085001Y-66428572D01*
X121085001Y-67928572D01*
X120085001Y-67928572D01*
X119013572Y-67142858D02*
X119513572Y-67142858D01*
X119513572Y-67928572D02*
X119513572Y-66428572D01*
X118799286Y-66428572D01*
X116585001Y-67142858D02*
X116370715Y-67214286D01*
X116299286Y-67285715D01*
X116227858Y-67428572D01*
X116227858Y-67642858D01*
X116299286Y-67785715D01*
X116370715Y-67857143D01*
X116513572Y-67928572D01*
X117085001Y-67928572D01*
X117085001Y-66428572D01*
X116585001Y-66428572D01*
X116442143Y-66500001D01*
X116370715Y-66571429D01*
X116299286Y-66714286D01*
X116299286Y-66857143D01*
X116370715Y-67000001D01*
X116442143Y-67071429D01*
X116585001Y-67142858D01*
X117085001Y-67142858D01*
X114942143Y-67928572D02*
X114942143Y-67142858D01*
X115013572Y-67000001D01*
X115156429Y-66928572D01*
X115442143Y-66928572D01*
X115585001Y-67000001D01*
X114942143Y-67857143D02*
X115085001Y-67928572D01*
X115442143Y-67928572D01*
X115585001Y-67857143D01*
X115656429Y-67714286D01*
X115656429Y-67571429D01*
X115585001Y-67428572D01*
X115442143Y-67357143D01*
X115085001Y-67357143D01*
X114942143Y-67285715D01*
X113585001Y-66928572D02*
X113585001Y-67928572D01*
X114227858Y-66928572D02*
X114227858Y-67714286D01*
X114156429Y-67857143D01*
X114013572Y-67928572D01*
X113799286Y-67928572D01*
X113656429Y-67857143D01*
X113585001Y-67785715D01*
X112227858Y-67928572D02*
X112227858Y-66428572D01*
X112227858Y-67857143D02*
X112370715Y-67928572D01*
X112656429Y-67928572D01*
X112799286Y-67857143D01*
X112870715Y-67785715D01*
X112942143Y-67642858D01*
X112942143Y-67214286D01*
X112870715Y-67071429D01*
X112799286Y-67000001D01*
X112656429Y-66928572D01*
X112370715Y-66928572D01*
X112227858Y-67000001D01*
X109585001Y-66500001D02*
X109727858Y-66428572D01*
X109942143Y-66428572D01*
X110156429Y-66500001D01*
X110299286Y-66642858D01*
X110370715Y-66785715D01*
X110442143Y-67071429D01*
X110442143Y-67285715D01*
X110370715Y-67571429D01*
X110299286Y-67714286D01*
X110156429Y-67857143D01*
X109942143Y-67928572D01*
X109799286Y-67928572D01*
X109585001Y-67857143D01*
X109513572Y-67785715D01*
X109513572Y-67285715D01*
X109799286Y-67285715D01*
X108299286Y-67857143D02*
X108442143Y-67928572D01*
X108727858Y-67928572D01*
X108870715Y-67857143D01*
X108942143Y-67714286D01*
X108942143Y-67142858D01*
X108870715Y-67000001D01*
X108727858Y-66928572D01*
X108442143Y-66928572D01*
X108299286Y-67000001D01*
X108227858Y-67142858D01*
X108227858Y-67285715D01*
X108942143Y-67428572D01*
X107585001Y-66928572D02*
X107585001Y-67928572D01*
X107585001Y-67071429D02*
X107513572Y-67000001D01*
X107370715Y-66928572D01*
X107156429Y-66928572D01*
X107013572Y-67000001D01*
X106942143Y-67142858D01*
X106942143Y-67928572D01*
X106227858Y-67785715D02*
X106156429Y-67857143D01*
X106227858Y-67928572D01*
X106299286Y-67857143D01*
X106227858Y-67785715D01*
X106227858Y-67928572D01*
X118942143Y-69714286D02*
X119013572Y-69642858D01*
X119156429Y-69571429D01*
X119299286Y-69571429D01*
X119442143Y-69642858D01*
X119513572Y-69714286D01*
X119585001Y-69857143D01*
X119585001Y-70000001D01*
X119513572Y-70142858D01*
X119442143Y-70214286D01*
X119299286Y-70285715D01*
X119156429Y-70285715D01*
X119013572Y-70214286D01*
X118942143Y-70142858D01*
X118942143Y-69571429D02*
X118942143Y-70142858D01*
X118870715Y-70214286D01*
X118799286Y-70214286D01*
X118656429Y-70142858D01*
X118585001Y-70000001D01*
X118585001Y-69642858D01*
X118727858Y-69428572D01*
X118942143Y-69285715D01*
X119227858Y-69214286D01*
X119513572Y-69285715D01*
X119727858Y-69428572D01*
X119870715Y-69642858D01*
X119942143Y-69928572D01*
X119870715Y-70214286D01*
X119727858Y-70428572D01*
X119513572Y-70571429D01*
X119227858Y-70642858D01*
X118942143Y-70571429D01*
X118727858Y-70428572D01*
X118156429Y-69428572D02*
X117585001Y-69428572D01*
X117942143Y-68928572D02*
X117942143Y-70214286D01*
X117870715Y-70357143D01*
X117727858Y-70428572D01*
X117585001Y-70428572D01*
X116442143Y-70428572D02*
X116442143Y-69642858D01*
X116513572Y-69500001D01*
X116656429Y-69428572D01*
X116942143Y-69428572D01*
X117085001Y-69500001D01*
X116442143Y-70357143D02*
X116585001Y-70428572D01*
X116942143Y-70428572D01*
X117085001Y-70357143D01*
X117156429Y-70214286D01*
X117156429Y-70071429D01*
X117085001Y-69928572D01*
X116942143Y-69857143D01*
X116585001Y-69857143D01*
X116442143Y-69785715D01*
X115727858Y-69428572D02*
X115727858Y-70428572D01*
X115727858Y-69571429D02*
X115656429Y-69500001D01*
X115513572Y-69428572D01*
X115299286Y-69428572D01*
X115156429Y-69500001D01*
X115085001Y-69642858D01*
X115085001Y-70428572D01*
X113727858Y-69428572D02*
X113727858Y-70642858D01*
X113799286Y-70785715D01*
X113870715Y-70857143D01*
X114013572Y-70928572D01*
X114227858Y-70928572D01*
X114370715Y-70857143D01*
X113727858Y-70357143D02*
X113870715Y-70428572D01*
X114156429Y-70428572D01*
X114299286Y-70357143D01*
X114370715Y-70285715D01*
X114442143Y-70142858D01*
X114442143Y-69714286D01*
X114370715Y-69571429D01*
X114299286Y-69500001D01*
X114156429Y-69428572D01*
X113870715Y-69428572D01*
X113727858Y-69500001D01*
X112442143Y-70357143D02*
X112585001Y-70428572D01*
X112870715Y-70428572D01*
X113013572Y-70357143D01*
X113085001Y-70214286D01*
X113085001Y-69642858D01*
X113013572Y-69500001D01*
X112870715Y-69428572D01*
X112585001Y-69428572D01*
X112442143Y-69500001D01*
X112370715Y-69642858D01*
X112370715Y-69785715D01*
X113085001Y-69928572D01*
X111727858Y-69428572D02*
X111727858Y-70428572D01*
X111727858Y-69571429D02*
X111656429Y-69500001D01*
X111513572Y-69428572D01*
X111299286Y-69428572D01*
X111156429Y-69500001D01*
X111085001Y-69642858D01*
X111085001Y-70428572D01*
X110585001Y-69428572D02*
X110013572Y-69428572D01*
X110370715Y-68928572D02*
X110370715Y-70214286D01*
X110299286Y-70357143D01*
X110156429Y-70428572D01*
X110013572Y-70428572D01*
X109656429Y-68928572D02*
X108727858Y-68928572D01*
X109227858Y-69500001D01*
X109013572Y-69500001D01*
X108870715Y-69571429D01*
X108799286Y-69642858D01*
X108727858Y-69785715D01*
X108727858Y-70142858D01*
X108799286Y-70285715D01*
X108870715Y-70357143D01*
X109013572Y-70428572D01*
X109442143Y-70428572D01*
X109585001Y-70357143D01*
X109656429Y-70285715D01*
X108085001Y-70428572D02*
X108085001Y-68928572D01*
X107727858Y-68928572D01*
X107513572Y-69000001D01*
X107370715Y-69142858D01*
X107299286Y-69285715D01*
X107227858Y-69571429D01*
X107227858Y-69785715D01*
X107299286Y-70071429D01*
X107370715Y-70214286D01*
X107513572Y-70357143D01*
X107727858Y-70428572D01*
X108085001Y-70428572D01*
M02*
