G04 #@! TF.GenerationSoftware,KiCad,Pcbnew,5.1.10*
G04 #@! TF.CreationDate,2022-01-26T01:17:43-08:00*
G04 #@! TF.ProjectId,Baud_Generator,42617564-5f47-4656-9e65-7261746f722e,rev?*
G04 #@! TF.SameCoordinates,Original*
G04 #@! TF.FileFunction,Legend,Top*
G04 #@! TF.FilePolarity,Positive*
%FSLAX46Y46*%
G04 Gerber Fmt 4.6, Leading zero omitted, Abs format (unit mm)*
G04 Created by KiCad (PCBNEW 5.1.10) date 2022-01-26 01:17:43*
%MOMM*%
%LPD*%
G01*
G04 APERTURE LIST*
%ADD10C,0.120000*%
%ADD11C,0.125000*%
%ADD12C,0.150000*%
G04 APERTURE END LIST*
D10*
X113685001Y-78125001D02*
X105945001Y-78125001D01*
X113685001Y-75385001D02*
X105945001Y-75385001D01*
X113685001Y-78125001D02*
X113685001Y-75385001D01*
X105945001Y-78125001D02*
X105945001Y-75385001D01*
X121305001Y-75385001D02*
X121305001Y-78125001D01*
X113565001Y-75385001D02*
X113565001Y-78125001D01*
X113565001Y-78125001D02*
X121305001Y-78125001D01*
X113565001Y-75385001D02*
X121305001Y-75385001D01*
X110045001Y-78600001D02*
X108395001Y-78600001D01*
X108395001Y-78600001D02*
X108395001Y-96500001D01*
X108395001Y-96500001D02*
X113695001Y-96500001D01*
X113695001Y-96500001D02*
X113695001Y-78600001D01*
X113695001Y-78600001D02*
X112045001Y-78600001D01*
X112045001Y-78600001D02*
G75*
G02*
X110045001Y-78600001I-1000000J0D01*
G01*
X120035001Y-62050001D02*
X107885001Y-62050001D01*
X107135001Y-62800001D02*
X107135001Y-74200001D01*
X107885001Y-74950001D02*
X119285001Y-74950001D01*
X120035001Y-74200001D02*
X120035001Y-62050001D01*
X107885001Y-62050001D02*
G75*
G03*
X107135001Y-62800001I0J-750000D01*
G01*
X107135001Y-74200001D02*
G75*
G03*
X107885001Y-74950001I750000J0D01*
G01*
X119285001Y-74950001D02*
G75*
G03*
X120035001Y-74200001I0J750000D01*
G01*
D11*
X108788215Y-76345239D02*
X108847739Y-76345239D01*
X108907262Y-76375001D01*
X108937024Y-76404762D01*
X108966786Y-76464286D01*
X108996548Y-76583334D01*
X108996548Y-76732143D01*
X108966786Y-76851191D01*
X108937024Y-76910715D01*
X108907262Y-76940477D01*
X108847739Y-76970239D01*
X108788215Y-76970239D01*
X108728691Y-76940477D01*
X108698929Y-76910715D01*
X108669167Y-76851191D01*
X108639405Y-76732143D01*
X108639405Y-76583334D01*
X108669167Y-76464286D01*
X108698929Y-76404762D01*
X108728691Y-76375001D01*
X108788215Y-76345239D01*
X109264405Y-76910715D02*
X109294167Y-76940477D01*
X109264405Y-76970239D01*
X109234643Y-76940477D01*
X109264405Y-76910715D01*
X109264405Y-76970239D01*
X109889405Y-76970239D02*
X109532262Y-76970239D01*
X109710834Y-76970239D02*
X109710834Y-76345239D01*
X109651310Y-76434524D01*
X109591786Y-76494048D01*
X109532262Y-76523810D01*
X110425120Y-76553572D02*
X110425120Y-76970239D01*
X110157262Y-76553572D02*
X110157262Y-76880953D01*
X110187024Y-76940477D01*
X110246548Y-76970239D01*
X110335834Y-76970239D01*
X110395358Y-76940477D01*
X110425120Y-76910715D01*
X110931072Y-76642858D02*
X110722739Y-76642858D01*
X110722739Y-76970239D02*
X110722739Y-76345239D01*
X111020358Y-76345239D01*
X116408215Y-76345239D02*
X116467739Y-76345239D01*
X116527262Y-76375001D01*
X116557024Y-76404762D01*
X116586786Y-76464286D01*
X116616548Y-76583334D01*
X116616548Y-76732143D01*
X116586786Y-76851191D01*
X116557024Y-76910715D01*
X116527262Y-76940477D01*
X116467739Y-76970239D01*
X116408215Y-76970239D01*
X116348691Y-76940477D01*
X116318929Y-76910715D01*
X116289167Y-76851191D01*
X116259405Y-76732143D01*
X116259405Y-76583334D01*
X116289167Y-76464286D01*
X116318929Y-76404762D01*
X116348691Y-76375001D01*
X116408215Y-76345239D01*
X116884405Y-76910715D02*
X116914167Y-76940477D01*
X116884405Y-76970239D01*
X116854643Y-76940477D01*
X116884405Y-76910715D01*
X116884405Y-76970239D01*
X117509405Y-76970239D02*
X117152262Y-76970239D01*
X117330834Y-76970239D02*
X117330834Y-76345239D01*
X117271310Y-76434524D01*
X117211786Y-76494048D01*
X117152262Y-76523810D01*
X118045120Y-76553572D02*
X118045120Y-76970239D01*
X117777262Y-76553572D02*
X117777262Y-76880953D01*
X117807024Y-76940477D01*
X117866548Y-76970239D01*
X117955834Y-76970239D01*
X118015358Y-76940477D01*
X118045120Y-76910715D01*
X118551072Y-76642858D02*
X118342739Y-76642858D01*
X118342739Y-76970239D02*
X118342739Y-76345239D01*
X118640358Y-76345239D01*
D12*
X111259286Y-86311905D02*
X110592620Y-86311905D01*
X111640239Y-86073810D02*
X110925953Y-85835715D01*
X110925953Y-86454762D01*
X111592620Y-87026191D02*
X111592620Y-87121429D01*
X111545001Y-87216667D01*
X111497381Y-87264286D01*
X111402143Y-87311905D01*
X111211667Y-87359524D01*
X110973572Y-87359524D01*
X110783096Y-87311905D01*
X110687858Y-87264286D01*
X110640239Y-87216667D01*
X110592620Y-87121429D01*
X110592620Y-87026191D01*
X110640239Y-86930953D01*
X110687858Y-86883334D01*
X110783096Y-86835715D01*
X110973572Y-86788096D01*
X111211667Y-86788096D01*
X111402143Y-86835715D01*
X111497381Y-86883334D01*
X111545001Y-86930953D01*
X111592620Y-87026191D01*
X111497381Y-87740477D02*
X111545001Y-87788096D01*
X111592620Y-87883334D01*
X111592620Y-88121429D01*
X111545001Y-88216667D01*
X111497381Y-88264286D01*
X111402143Y-88311905D01*
X111306905Y-88311905D01*
X111164048Y-88264286D01*
X110592620Y-87692858D01*
X110592620Y-88311905D01*
X111259286Y-89169048D02*
X110592620Y-89169048D01*
X111640239Y-88930953D02*
X110925953Y-88692858D01*
X110925953Y-89311905D01*
X109275477Y-68047620D02*
X109323096Y-68000001D01*
X109418334Y-67952381D01*
X109656429Y-67952381D01*
X109751667Y-68000001D01*
X109799286Y-68047620D01*
X109846905Y-68142858D01*
X109846905Y-68238096D01*
X109799286Y-68380953D01*
X109227858Y-68952381D01*
X109846905Y-68952381D01*
X110275477Y-68857143D02*
X110323096Y-68904762D01*
X110275477Y-68952381D01*
X110227858Y-68904762D01*
X110275477Y-68857143D01*
X110275477Y-68952381D01*
X111180239Y-68285715D02*
X111180239Y-68952381D01*
X110942143Y-67904762D02*
X110704048Y-68619048D01*
X111323096Y-68619048D01*
X112180239Y-67952381D02*
X111704048Y-67952381D01*
X111656429Y-68428572D01*
X111704048Y-68380953D01*
X111799286Y-68333334D01*
X112037381Y-68333334D01*
X112132620Y-68380953D01*
X112180239Y-68428572D01*
X112227858Y-68523810D01*
X112227858Y-68761905D01*
X112180239Y-68857143D01*
X112132620Y-68904762D01*
X112037381Y-68952381D01*
X111799286Y-68952381D01*
X111704048Y-68904762D01*
X111656429Y-68857143D01*
X112561191Y-67952381D02*
X113227858Y-67952381D01*
X112799286Y-68952381D01*
X114037381Y-67952381D02*
X113846905Y-67952381D01*
X113751667Y-68000001D01*
X113704048Y-68047620D01*
X113608810Y-68190477D01*
X113561191Y-68380953D01*
X113561191Y-68761905D01*
X113608810Y-68857143D01*
X113656429Y-68904762D01*
X113751667Y-68952381D01*
X113942143Y-68952381D01*
X114037381Y-68904762D01*
X114085001Y-68857143D01*
X114132620Y-68761905D01*
X114132620Y-68523810D01*
X114085001Y-68428572D01*
X114037381Y-68380953D01*
X113942143Y-68333334D01*
X113751667Y-68333334D01*
X113656429Y-68380953D01*
X113608810Y-68428572D01*
X113561191Y-68523810D01*
X115323096Y-68952381D02*
X115323096Y-67952381D01*
X115656429Y-68666667D01*
X115989762Y-67952381D01*
X115989762Y-68952381D01*
X116465953Y-68952381D02*
X116465953Y-67952381D01*
X116465953Y-68428572D02*
X117037381Y-68428572D01*
X117037381Y-68952381D02*
X117037381Y-67952381D01*
X117418334Y-68285715D02*
X117942143Y-68285715D01*
X117418334Y-68952381D01*
X117942143Y-68952381D01*
M02*
