M48
INCH,TZ
T1C0.0315
T2C0.0394
T3C0.0492
T4C0.1260
%
G90
G05
T1
X70118Y-26456
X71118Y-26456
X72118Y-26456
X73118Y-18280
X73118Y-21280
X73118Y-26456
X74118Y-18280
X74118Y-21280
X74118Y-26456
X75118Y-18280
X75118Y-21280
X75118Y-26456
X76118Y-18280
X76118Y-21280
X76118Y-26456
X77118Y-18280
X77118Y-21280
X78118Y-18280
X78118Y-21280
X79118Y-18280
X79118Y-21280
X80118Y-18280
X80118Y-21280
X81118Y-18280
X81118Y-21280
X82118Y-18280
X82118Y-21280
X85571Y-15280
X85571Y-16740
X85571Y-18280
X85571Y-19280
X85571Y-20280
X88571Y-15280
X88571Y-16740
T2
X71618Y-18780
X71618Y-20748
X75118Y-16740
X76118Y-16740
X77118Y-16740
X78118Y-16740
X79118Y-16740
X80118Y-16740
X81118Y-16740
X82118Y-16740
X83118Y-16740
T3
X56743Y-22701
X58135Y-24093
X60223Y-19222
X60557Y-16800
X60557Y-24427
X61615Y-20614
X61949Y-15408
X61949Y-23036
X64037Y-20279
X64037Y-27907
X64371Y-22701
X65429Y-18888
X65429Y-26515
X65763Y-24093
X67851Y-19222
X69243Y-20614
X84179Y-24427
X85571Y-23036
X87659Y-27907
X87993Y-22701
X89051Y-26515
X89385Y-24093
X91473Y-19222
X92865Y-20614
T4
X57480Y-16142
X57480Y-27165
X92126Y-16142
X92126Y-27165
T0
M30
