%TF.GenerationSoftware,KiCad,Pcbnew,5.1.10*%
%TF.CreationDate,2022-04-10T19:23:35-07:00*%
%TF.ProjectId,zf_vga_controller,7a665f76-6761-45f6-936f-6e74726f6c6c,rev?*%
%TF.SameCoordinates,Original*%
%TF.FileFunction,Legend,Top*%
%TF.FilePolarity,Positive*%
%FSLAX46Y46*%
G04 Gerber Fmt 4.6, Leading zero omitted, Abs format (unit mm)*
G04 Created by KiCad (PCBNEW 5.1.10) date 2022-04-10 19:23:35*
%MOMM*%
%LPD*%
G01*
G04 APERTURE LIST*
%ADD10C,0.127000*%
%ADD11C,0.200000*%
%ADD12C,0.120000*%
%ADD13C,0.150000*%
G04 APERTURE END LIST*
D10*
%TO.C,SW5*%
X203243325Y-56424262D02*
X201829112Y-55010048D01*
X201829112Y-55010048D02*
X210314393Y-46524767D01*
X210314393Y-46524767D02*
X211728607Y-47938980D01*
X208900179Y-62081116D02*
X210314393Y-63495329D01*
X210314393Y-63495329D02*
X218799674Y-55010048D01*
X218799674Y-55010048D02*
X217385461Y-53595834D01*
D11*
X203060482Y-58687003D02*
G75*
G03*
X203060482Y-58687003I-100000J0D01*
G01*
%TO.C,SW6*%
X216424802Y-37968774D02*
G75*
G03*
X216424802Y-37968774I-100000J0D01*
G01*
D10*
X220001757Y-53807966D02*
X221415971Y-52393753D01*
X211516476Y-45322685D02*
X220001757Y-53807966D01*
X212930689Y-43908471D02*
X211516476Y-45322685D01*
X228487038Y-45322685D02*
X227072825Y-46736899D01*
X220001757Y-36837404D02*
X228487038Y-45322685D01*
X218587543Y-38251617D02*
X220001757Y-36837404D01*
D11*
%TO.C,SW1*%
X156424802Y-37968774D02*
G75*
G03*
X156424802Y-37968774I-100000J0D01*
G01*
D10*
X160001757Y-53807966D02*
X161415971Y-52393753D01*
X151516476Y-45322685D02*
X160001757Y-53807966D01*
X152930689Y-43908471D02*
X151516476Y-45322685D01*
X168487038Y-45322685D02*
X167072825Y-46736899D01*
X160001757Y-36837404D02*
X168487038Y-45322685D01*
X158587543Y-38251617D02*
X160001757Y-36837404D01*
%TO.C,SW2*%
X158587543Y-57626343D02*
X160001757Y-56212130D01*
X160001757Y-56212130D02*
X168487038Y-64697411D01*
X168487038Y-64697411D02*
X167072825Y-66111625D01*
X152930689Y-63283197D02*
X151516476Y-64697411D01*
X151516476Y-64697411D02*
X160001757Y-73182692D01*
X160001757Y-73182692D02*
X161415971Y-71768479D01*
D11*
X156424802Y-57343500D02*
G75*
G03*
X156424802Y-57343500I-100000J0D01*
G01*
D10*
%TO.C,SW3*%
X143243325Y-56424262D02*
X141829112Y-55010048D01*
X141829112Y-55010048D02*
X150314393Y-46524767D01*
X150314393Y-46524767D02*
X151728607Y-47938980D01*
X148900179Y-62081116D02*
X150314393Y-63495329D01*
X150314393Y-63495329D02*
X158799674Y-55010048D01*
X158799674Y-55010048D02*
X157385461Y-53595834D01*
D11*
X143060482Y-58687003D02*
G75*
G03*
X143060482Y-58687003I-100000J0D01*
G01*
D10*
%TO.C,SW4*%
X162618052Y-56424262D02*
X161203839Y-55010048D01*
X161203839Y-55010048D02*
X169689120Y-46524767D01*
X169689120Y-46524767D02*
X171103334Y-47938980D01*
X168274906Y-62081116D02*
X169689120Y-63495329D01*
X169689120Y-63495329D02*
X178174401Y-55010048D01*
X178174401Y-55010048D02*
X176760188Y-53595834D01*
D11*
X162435209Y-58687003D02*
G75*
G03*
X162435209Y-58687003I-100000J0D01*
G01*
D10*
%TO.C,SW7*%
X218587543Y-57626343D02*
X220001757Y-56212130D01*
X220001757Y-56212130D02*
X228487038Y-64697411D01*
X228487038Y-64697411D02*
X227072825Y-66111625D01*
X212930689Y-63283197D02*
X211516476Y-64697411D01*
X211516476Y-64697411D02*
X220001757Y-73182692D01*
X220001757Y-73182692D02*
X221415971Y-71768479D01*
D11*
X216424802Y-57343500D02*
G75*
G03*
X216424802Y-57343500I-100000J0D01*
G01*
%TO.C,SW8*%
X222435209Y-58687003D02*
G75*
G03*
X222435209Y-58687003I-100000J0D01*
G01*
D10*
X238174401Y-55010048D02*
X236760188Y-53595834D01*
X229689120Y-63495329D02*
X238174401Y-55010048D01*
X228274906Y-62081116D02*
X229689120Y-63495329D01*
X229689120Y-46524767D02*
X231103334Y-47938980D01*
X221203839Y-55010048D02*
X229689120Y-46524767D01*
X222618052Y-56424262D02*
X221203839Y-55010048D01*
D12*
%TO.C,J1*%
X205475000Y-30520000D02*
X205475000Y-42860000D01*
X205475000Y-42860000D02*
X174505000Y-42860000D01*
X174505000Y-42860000D02*
X174505000Y-30520000D01*
X184700000Y-43754338D02*
X184200000Y-43754338D01*
X184200000Y-43754338D02*
X184450000Y-43321325D01*
X184450000Y-43321325D02*
X184700000Y-43754338D01*
%TO.C,SW5*%
D13*
X208981059Y-55367081D02*
X209123916Y-55414700D01*
X209362012Y-55414700D01*
X209457250Y-55367081D01*
X209504869Y-55319462D01*
X209552488Y-55224224D01*
X209552488Y-55128986D01*
X209504869Y-55033748D01*
X209457250Y-54986129D01*
X209362012Y-54938510D01*
X209171535Y-54890891D01*
X209076297Y-54843272D01*
X209028678Y-54795653D01*
X208981059Y-54700415D01*
X208981059Y-54605177D01*
X209028678Y-54509939D01*
X209076297Y-54462320D01*
X209171535Y-54414700D01*
X209409631Y-54414700D01*
X209552488Y-54462320D01*
X209885821Y-54414700D02*
X210123916Y-55414700D01*
X210314393Y-54700415D01*
X210504869Y-55414700D01*
X210742964Y-54414700D01*
X211600107Y-54414700D02*
X211123916Y-54414700D01*
X211076297Y-54890891D01*
X211123916Y-54843272D01*
X211219154Y-54795653D01*
X211457250Y-54795653D01*
X211552488Y-54843272D01*
X211600107Y-54890891D01*
X211647726Y-54986129D01*
X211647726Y-55224224D01*
X211600107Y-55319462D01*
X211552488Y-55367081D01*
X211457250Y-55414700D01*
X211219154Y-55414700D01*
X211123916Y-55367081D01*
X211076297Y-55319462D01*
%TO.C,SW6*%
X218668423Y-45679716D02*
X218811280Y-45727335D01*
X219049376Y-45727335D01*
X219144614Y-45679716D01*
X219192233Y-45632097D01*
X219239852Y-45536859D01*
X219239852Y-45441621D01*
X219192233Y-45346383D01*
X219144614Y-45298764D01*
X219049376Y-45251145D01*
X218858899Y-45203526D01*
X218763661Y-45155907D01*
X218716042Y-45108288D01*
X218668423Y-45013050D01*
X218668423Y-44917812D01*
X218716042Y-44822574D01*
X218763661Y-44774955D01*
X218858899Y-44727335D01*
X219096995Y-44727335D01*
X219239852Y-44774955D01*
X219573185Y-44727335D02*
X219811280Y-45727335D01*
X220001757Y-45013050D01*
X220192233Y-45727335D01*
X220430328Y-44727335D01*
X221239852Y-44727335D02*
X221049376Y-44727335D01*
X220954137Y-44774955D01*
X220906518Y-44822574D01*
X220811280Y-44965431D01*
X220763661Y-45155907D01*
X220763661Y-45536859D01*
X220811280Y-45632097D01*
X220858899Y-45679716D01*
X220954137Y-45727335D01*
X221144614Y-45727335D01*
X221239852Y-45679716D01*
X221287471Y-45632097D01*
X221335090Y-45536859D01*
X221335090Y-45298764D01*
X221287471Y-45203526D01*
X221239852Y-45155907D01*
X221144614Y-45108288D01*
X220954137Y-45108288D01*
X220858899Y-45155907D01*
X220811280Y-45203526D01*
X220763661Y-45298764D01*
%TO.C,SW1*%
X158668423Y-45679716D02*
X158811280Y-45727335D01*
X159049376Y-45727335D01*
X159144614Y-45679716D01*
X159192233Y-45632097D01*
X159239852Y-45536859D01*
X159239852Y-45441621D01*
X159192233Y-45346383D01*
X159144614Y-45298764D01*
X159049376Y-45251145D01*
X158858899Y-45203526D01*
X158763661Y-45155907D01*
X158716042Y-45108288D01*
X158668423Y-45013050D01*
X158668423Y-44917812D01*
X158716042Y-44822574D01*
X158763661Y-44774955D01*
X158858899Y-44727335D01*
X159096995Y-44727335D01*
X159239852Y-44774955D01*
X159573185Y-44727335D02*
X159811280Y-45727335D01*
X160001757Y-45013050D01*
X160192233Y-45727335D01*
X160430328Y-44727335D01*
X161335090Y-45727335D02*
X160763661Y-45727335D01*
X161049376Y-45727335D02*
X161049376Y-44727335D01*
X160954137Y-44870193D01*
X160858899Y-44965431D01*
X160763661Y-45013050D01*
%TO.C,SW2*%
X158668423Y-65054444D02*
X158811280Y-65102063D01*
X159049376Y-65102063D01*
X159144614Y-65054444D01*
X159192233Y-65006825D01*
X159239852Y-64911587D01*
X159239852Y-64816349D01*
X159192233Y-64721111D01*
X159144614Y-64673492D01*
X159049376Y-64625873D01*
X158858899Y-64578254D01*
X158763661Y-64530635D01*
X158716042Y-64483016D01*
X158668423Y-64387778D01*
X158668423Y-64292540D01*
X158716042Y-64197302D01*
X158763661Y-64149683D01*
X158858899Y-64102063D01*
X159096995Y-64102063D01*
X159239852Y-64149683D01*
X159573185Y-64102063D02*
X159811280Y-65102063D01*
X160001757Y-64387778D01*
X160192233Y-65102063D01*
X160430328Y-64102063D01*
X160763661Y-64197302D02*
X160811280Y-64149683D01*
X160906518Y-64102063D01*
X161144614Y-64102063D01*
X161239852Y-64149683D01*
X161287471Y-64197302D01*
X161335090Y-64292540D01*
X161335090Y-64387778D01*
X161287471Y-64530635D01*
X160716042Y-65102063D01*
X161335090Y-65102063D01*
%TO.C,SW3*%
X148981059Y-55367081D02*
X149123916Y-55414700D01*
X149362012Y-55414700D01*
X149457250Y-55367081D01*
X149504869Y-55319462D01*
X149552488Y-55224224D01*
X149552488Y-55128986D01*
X149504869Y-55033748D01*
X149457250Y-54986129D01*
X149362012Y-54938510D01*
X149171535Y-54890891D01*
X149076297Y-54843272D01*
X149028678Y-54795653D01*
X148981059Y-54700415D01*
X148981059Y-54605177D01*
X149028678Y-54509939D01*
X149076297Y-54462320D01*
X149171535Y-54414700D01*
X149409631Y-54414700D01*
X149552488Y-54462320D01*
X149885821Y-54414700D02*
X150123916Y-55414700D01*
X150314393Y-54700415D01*
X150504869Y-55414700D01*
X150742964Y-54414700D01*
X151028678Y-54414700D02*
X151647726Y-54414700D01*
X151314393Y-54795653D01*
X151457250Y-54795653D01*
X151552488Y-54843272D01*
X151600107Y-54890891D01*
X151647726Y-54986129D01*
X151647726Y-55224224D01*
X151600107Y-55319462D01*
X151552488Y-55367081D01*
X151457250Y-55414700D01*
X151171535Y-55414700D01*
X151076297Y-55367081D01*
X151028678Y-55319462D01*
%TO.C,SW4*%
X168355786Y-55367081D02*
X168498643Y-55414700D01*
X168736739Y-55414700D01*
X168831977Y-55367081D01*
X168879596Y-55319462D01*
X168927215Y-55224224D01*
X168927215Y-55128986D01*
X168879596Y-55033748D01*
X168831977Y-54986129D01*
X168736739Y-54938510D01*
X168546262Y-54890891D01*
X168451024Y-54843272D01*
X168403405Y-54795653D01*
X168355786Y-54700415D01*
X168355786Y-54605177D01*
X168403405Y-54509939D01*
X168451024Y-54462320D01*
X168546262Y-54414700D01*
X168784358Y-54414700D01*
X168927215Y-54462320D01*
X169260548Y-54414700D02*
X169498643Y-55414700D01*
X169689120Y-54700415D01*
X169879596Y-55414700D01*
X170117691Y-54414700D01*
X170927215Y-54748034D02*
X170927215Y-55414700D01*
X170689120Y-54367081D02*
X170451024Y-55081367D01*
X171070072Y-55081367D01*
%TO.C,SW7*%
X218668423Y-65034672D02*
X218811280Y-65082291D01*
X219049376Y-65082291D01*
X219144614Y-65034672D01*
X219192233Y-64987053D01*
X219239852Y-64891815D01*
X219239852Y-64796577D01*
X219192233Y-64701339D01*
X219144614Y-64653720D01*
X219049376Y-64606101D01*
X218858899Y-64558482D01*
X218763661Y-64510863D01*
X218716042Y-64463244D01*
X218668423Y-64368006D01*
X218668423Y-64272768D01*
X218716042Y-64177530D01*
X218763661Y-64129911D01*
X218858899Y-64082291D01*
X219096995Y-64082291D01*
X219239852Y-64129911D01*
X219573185Y-64082291D02*
X219811280Y-65082291D01*
X220001757Y-64368006D01*
X220192233Y-65082291D01*
X220430328Y-64082291D01*
X220716042Y-64082291D02*
X221382709Y-64082291D01*
X220954137Y-65082291D01*
%TO.C,SW8*%
X228355786Y-55347309D02*
X228498643Y-55394928D01*
X228736739Y-55394928D01*
X228831977Y-55347309D01*
X228879596Y-55299690D01*
X228927215Y-55204452D01*
X228927215Y-55109214D01*
X228879596Y-55013976D01*
X228831977Y-54966357D01*
X228736739Y-54918738D01*
X228546262Y-54871119D01*
X228451024Y-54823500D01*
X228403405Y-54775881D01*
X228355786Y-54680643D01*
X228355786Y-54585405D01*
X228403405Y-54490167D01*
X228451024Y-54442548D01*
X228546262Y-54394928D01*
X228784358Y-54394928D01*
X228927215Y-54442548D01*
X229260548Y-54394928D02*
X229498643Y-55394928D01*
X229689120Y-54680643D01*
X229879596Y-55394928D01*
X230117691Y-54394928D01*
X230641500Y-54823500D02*
X230546262Y-54775881D01*
X230498643Y-54728262D01*
X230451024Y-54633024D01*
X230451024Y-54585405D01*
X230498643Y-54490167D01*
X230546262Y-54442548D01*
X230641500Y-54394928D01*
X230831977Y-54394928D01*
X230927215Y-54442548D01*
X230974834Y-54490167D01*
X231022453Y-54585405D01*
X231022453Y-54633024D01*
X230974834Y-54728262D01*
X230927215Y-54775881D01*
X230831977Y-54823500D01*
X230641500Y-54823500D01*
X230546262Y-54871119D01*
X230498643Y-54918738D01*
X230451024Y-55013976D01*
X230451024Y-55204452D01*
X230498643Y-55299690D01*
X230546262Y-55347309D01*
X230641500Y-55394928D01*
X230831977Y-55394928D01*
X230927215Y-55347309D01*
X230974834Y-55299690D01*
X231022453Y-55204452D01*
X231022453Y-55013976D01*
X230974834Y-54918738D01*
X230927215Y-54871119D01*
X230831977Y-54823500D01*
%TO.C,J1*%
X189666666Y-32384880D02*
X189666666Y-33099166D01*
X189619047Y-33242023D01*
X189523809Y-33337261D01*
X189380952Y-33384880D01*
X189285714Y-33384880D01*
X190666666Y-33384880D02*
X190095238Y-33384880D01*
X190380952Y-33384880D02*
X190380952Y-32384880D01*
X190285714Y-32527738D01*
X190190476Y-32622976D01*
X190095238Y-32670595D01*
%TD*%
M02*
