%TF.GenerationSoftware,KiCad,Pcbnew,5.1.10*%
%TF.CreationDate,2022-04-10T19:23:35-07:00*%
%TF.ProjectId,zf_vga_controller,7a665f76-6761-45f6-936f-6e74726f6c6c,rev?*%
%TF.SameCoordinates,Original*%
%TF.FileFunction,Copper,L1,Top*%
%TF.FilePolarity,Positive*%
%FSLAX46Y46*%
G04 Gerber Fmt 4.6, Leading zero omitted, Abs format (unit mm)*
G04 Created by KiCad (PCBNEW 5.1.10) date 2022-04-10 19:23:35*
%MOMM*%
%LPD*%
G01*
G04 APERTURE LIST*
%TA.AperFunction,ComponentPad*%
%ADD10O,1.600000X2.400000*%
%TD*%
%TA.AperFunction,ComponentPad*%
%ADD11R,1.600000X2.400000*%
%TD*%
%TA.AperFunction,ComponentPad*%
%ADD12C,1.875000*%
%TD*%
%TA.AperFunction,ComponentPad*%
%ADD13C,0.100000*%
%TD*%
%TA.AperFunction,ComponentPad*%
%ADD14C,6.400000*%
%TD*%
%TA.AperFunction,ComponentPad*%
%ADD15C,2.000000*%
%TD*%
%TA.AperFunction,ComponentPad*%
%ADD16R,1.600000X1.600000*%
%TD*%
%TA.AperFunction,ComponentPad*%
%ADD17C,1.600000*%
%TD*%
%TA.AperFunction,ComponentPad*%
%ADD18C,4.000000*%
%TD*%
%TA.AperFunction,ComponentPad*%
%ADD19C,1.500000*%
%TD*%
%TA.AperFunction,ComponentPad*%
%ADD20R,1.500000X1.500000*%
%TD*%
%TA.AperFunction,ComponentPad*%
%ADD21O,1.600000X1.600000*%
%TD*%
%TA.AperFunction,Conductor*%
%ADD22C,0.250000*%
%TD*%
%TA.AperFunction,Conductor*%
%ADD23C,0.254000*%
%TD*%
%TA.AperFunction,Conductor*%
%ADD24C,0.100000*%
%TD*%
G04 APERTURE END LIST*
D10*
%TO.P,U1,20*%
%TO.N,VCC*%
X178575000Y-72620000D03*
%TO.P,U1,10*%
%TO.N,GND*%
X201435000Y-65000000D03*
%TO.P,U1,19*%
%TO.N,EN2*%
X181115000Y-72620000D03*
%TO.P,U1,9*%
%TO.N,PA3*%
X198895000Y-65000000D03*
%TO.P,U1,18*%
%TO.N,PA0*%
X183655000Y-72620000D03*
%TO.P,U1,8*%
%TO.N,1A4*%
X196355000Y-65000000D03*
%TO.P,U1,17*%
%TO.N,2A1*%
X186195000Y-72620000D03*
%TO.P,U1,7*%
%TO.N,PA2*%
X193815000Y-65000000D03*
%TO.P,U1,16*%
%TO.N,PA1*%
X188735000Y-72620000D03*
%TO.P,U1,6*%
%TO.N,1A3*%
X191275000Y-65000000D03*
%TO.P,U1,15*%
%TO.N,2A2*%
X191275000Y-72620000D03*
%TO.P,U1,5*%
%TO.N,PA1*%
X188735000Y-65000000D03*
%TO.P,U1,14*%
%TO.N,PA2*%
X193815000Y-72620000D03*
%TO.P,U1,4*%
%TO.N,1A2*%
X186195000Y-65000000D03*
%TO.P,U1,13*%
%TO.N,2A3*%
X196355000Y-72620000D03*
%TO.P,U1,3*%
%TO.N,PA0*%
X183655000Y-65000000D03*
%TO.P,U1,12*%
%TO.N,PA3*%
X198895000Y-72620000D03*
%TO.P,U1,2*%
%TO.N,1A1*%
X181115000Y-65000000D03*
%TO.P,U1,11*%
%TO.N,2A4*%
X201435000Y-72620000D03*
D11*
%TO.P,U1,1*%
%TO.N,~EN1*%
X178575000Y-65000000D03*
%TD*%
D12*
%TO.P,SW5,4*%
%TO.N,Net-(SW5-Pad4)*%
X216501577Y-52358398D03*
%TO.P,SW5,2*%
%TO.N,2A1*%
X212966043Y-48822864D03*
%TO.P,SW5,3*%
%TO.N,GND*%
X207662743Y-61197232D03*
%TA.AperFunction,ComponentPad*%
D13*
%TO.P,SW5,1*%
%TO.N,Net-(RN2-Pad2)*%
G36*
X204127209Y-58987523D02*
G01*
X202801384Y-57661698D01*
X204127209Y-56335873D01*
X205453034Y-57661698D01*
X204127209Y-58987523D01*
G37*
%TD.AperFunction*%
%TD*%
%TA.AperFunction,ComponentPad*%
%TO.P,SW6,1*%
%TO.N,Net-(RN2-Pad3)*%
G36*
X216024282Y-39135501D02*
G01*
X217350107Y-37809676D01*
X218675932Y-39135501D01*
X217350107Y-40461326D01*
X216024282Y-39135501D01*
G37*
%TD.AperFunction*%
D12*
%TO.P,SW6,3*%
%TO.N,GND*%
X213814573Y-42671035D03*
%TO.P,SW6,2*%
%TO.N,2A2*%
X226188941Y-47974335D03*
%TO.P,SW6,4*%
%TO.N,Net-(SW6-Pad4)*%
X222653407Y-51509869D03*
%TD*%
D14*
%TO.P,Mount1,1*%
%TO.N,N/C*%
X234000000Y-74000000D03*
%TD*%
%TO.P,Mount1,1*%
%TO.N,N/C*%
X234000000Y-36000000D03*
%TD*%
D12*
%TO.P,SW1,4*%
%TO.N,Net-(SW1-Pad4)*%
X162653407Y-51509869D03*
%TO.P,SW1,2*%
%TO.N,1A1*%
X166188941Y-47974335D03*
%TO.P,SW1,3*%
%TO.N,GND*%
X153814573Y-42671035D03*
%TA.AperFunction,ComponentPad*%
D13*
%TO.P,SW1,1*%
%TO.N,SW1*%
G36*
X156024282Y-39135501D02*
G01*
X157350107Y-37809676D01*
X158675932Y-39135501D01*
X157350107Y-40461326D01*
X156024282Y-39135501D01*
G37*
%TD.AperFunction*%
%TD*%
%TA.AperFunction,ComponentPad*%
%TO.P,SW2,1*%
%TO.N,SW2*%
G36*
X156024282Y-58510227D02*
G01*
X157350107Y-57184402D01*
X158675932Y-58510227D01*
X157350107Y-59836052D01*
X156024282Y-58510227D01*
G37*
%TD.AperFunction*%
D12*
%TO.P,SW2,3*%
%TO.N,GND*%
X153814573Y-62045761D03*
%TO.P,SW2,2*%
%TO.N,1A2*%
X166188941Y-67349061D03*
%TO.P,SW2,4*%
%TO.N,Net-(SW2-Pad4)*%
X162653407Y-70884595D03*
%TD*%
%TA.AperFunction,ComponentPad*%
D13*
%TO.P,SW3,1*%
%TO.N,SW3*%
G36*
X144127209Y-58987523D02*
G01*
X142801384Y-57661698D01*
X144127209Y-56335873D01*
X145453034Y-57661698D01*
X144127209Y-58987523D01*
G37*
%TD.AperFunction*%
D12*
%TO.P,SW3,3*%
%TO.N,GND*%
X147662743Y-61197232D03*
%TO.P,SW3,2*%
%TO.N,1A3*%
X152966043Y-48822864D03*
%TO.P,SW3,4*%
%TO.N,Net-(SW3-Pad4)*%
X156501577Y-52358398D03*
%TD*%
%TA.AperFunction,ComponentPad*%
D13*
%TO.P,SW4,1*%
%TO.N,SW4*%
G36*
X163501936Y-58987523D02*
G01*
X162176111Y-57661698D01*
X163501936Y-56335873D01*
X164827761Y-57661698D01*
X163501936Y-58987523D01*
G37*
%TD.AperFunction*%
D12*
%TO.P,SW4,3*%
%TO.N,GND*%
X167037470Y-61197232D03*
%TO.P,SW4,2*%
%TO.N,1A4*%
X172340770Y-48822864D03*
%TO.P,SW4,4*%
%TO.N,Net-(SW4-Pad4)*%
X175876304Y-52358398D03*
%TD*%
D14*
%TO.P,Mount1,1*%
%TO.N,N/C*%
X146000000Y-74000000D03*
%TD*%
%TO.P,Mount1,1*%
%TO.N,N/C*%
X146000000Y-36000000D03*
%TD*%
D12*
%TO.P,SW7,4*%
%TO.N,Net-(SW7-Pad4)*%
X222653407Y-70884595D03*
%TO.P,SW7,2*%
%TO.N,2A3*%
X226188941Y-67349061D03*
%TO.P,SW7,3*%
%TO.N,GND*%
X213814573Y-62045761D03*
%TA.AperFunction,ComponentPad*%
D13*
%TO.P,SW7,1*%
%TO.N,Net-(RN2-Pad4)*%
G36*
X216024282Y-58510227D02*
G01*
X217350107Y-57184402D01*
X218675932Y-58510227D01*
X217350107Y-59836052D01*
X216024282Y-58510227D01*
G37*
%TD.AperFunction*%
%TD*%
%TA.AperFunction,ComponentPad*%
%TO.P,SW8,1*%
%TO.N,Net-(RN2-Pad5)*%
G36*
X223501936Y-58987523D02*
G01*
X222176111Y-57661698D01*
X223501936Y-56335873D01*
X224827761Y-57661698D01*
X223501936Y-58987523D01*
G37*
%TD.AperFunction*%
D12*
%TO.P,SW8,3*%
%TO.N,GND*%
X227037470Y-61197232D03*
%TO.P,SW8,2*%
%TO.N,2A4*%
X232340770Y-48822864D03*
%TO.P,SW8,4*%
%TO.N,Net-(SW8-Pad4)*%
X235876304Y-52358398D03*
%TD*%
D15*
%TO.P,C1,2*%
%TO.N,GND*%
X174500000Y-66300000D03*
%TO.P,C1,1*%
%TO.N,VCC*%
X174500000Y-71300000D03*
%TD*%
D16*
%TO.P,J1,1*%
%TO.N,VCC*%
X184450000Y-41000000D03*
D17*
%TO.P,J1,2*%
%TO.N,PA0*%
X187220000Y-41000000D03*
%TO.P,J1,3*%
%TO.N,PA1*%
X189990000Y-41000000D03*
%TO.P,J1,4*%
%TO.N,PA2*%
X192760000Y-41000000D03*
%TO.P,J1,5*%
%TO.N,PA3*%
X195530000Y-41000000D03*
%TO.P,J1,6*%
%TO.N,GND*%
X185835000Y-38160000D03*
%TO.P,J1,7*%
%TO.N,EN1*%
X188605000Y-38160000D03*
%TO.P,J1,8*%
%TO.N,EN2*%
X191375000Y-38160000D03*
%TO.P,J1,9*%
%TO.N,Net-(J1-Pad9)*%
X194145000Y-38160000D03*
D18*
%TO.P,J1,0*%
%TO.N,N/C*%
X202490000Y-39580000D03*
X177490000Y-39580000D03*
%TD*%
D19*
%TO.P,Q1,2*%
%TO.N,Net-(Q1-Pad2)*%
X183655000Y-55121698D03*
%TO.P,Q1,3*%
%TO.N,GND*%
X183655000Y-52581698D03*
D20*
%TO.P,Q1,1*%
%TO.N,~EN1*%
X183655000Y-57661698D03*
%TD*%
D17*
%TO.P,R1,1*%
%TO.N,Net-(Q1-Pad2)*%
X198895000Y-52581698D03*
D21*
%TO.P,R1,2*%
%TO.N,EN1*%
X191275000Y-52581698D03*
%TD*%
%TO.P,R2,2*%
%TO.N,~EN1*%
X191275000Y-57661698D03*
D17*
%TO.P,R2,1*%
%TO.N,VCC*%
X198895000Y-57661698D03*
%TD*%
D16*
%TO.P,RN1,1*%
%TO.N,VCC*%
X165080000Y-33000000D03*
D21*
%TO.P,RN1,2*%
%TO.N,SW4*%
X162540000Y-33000000D03*
%TO.P,RN1,3*%
%TO.N,SW2*%
X160000000Y-33000000D03*
%TO.P,RN1,4*%
%TO.N,SW1*%
X157460000Y-33000000D03*
%TO.P,RN1,5*%
%TO.N,SW3*%
X154920000Y-33000000D03*
%TD*%
%TO.P,RN2,5*%
%TO.N,Net-(RN2-Pad5)*%
X225080000Y-33000000D03*
%TO.P,RN2,4*%
%TO.N,Net-(RN2-Pad4)*%
X222540000Y-33000000D03*
%TO.P,RN2,3*%
%TO.N,Net-(RN2-Pad3)*%
X220000000Y-33000000D03*
%TO.P,RN2,2*%
%TO.N,Net-(RN2-Pad2)*%
X217460000Y-33000000D03*
D16*
%TO.P,RN2,1*%
%TO.N,VCC*%
X214920000Y-33000000D03*
%TD*%
D22*
%TO.N,PA0*%
X183655000Y-65000000D02*
X183655000Y-72620000D01*
X187220000Y-58980000D02*
X187220000Y-41000000D01*
X183655000Y-62545000D02*
X187220000Y-58980000D01*
X183655000Y-65000000D02*
X183655000Y-62545000D01*
%TO.N,PA1*%
X188735000Y-65000000D02*
X188735000Y-72620000D01*
X188735000Y-42255000D02*
X189990000Y-41000000D01*
X188735000Y-65000000D02*
X188735000Y-42255000D01*
%TO.N,PA2*%
X193815000Y-65000000D02*
X193815000Y-72620000D01*
X193815000Y-42055000D02*
X192760000Y-41000000D01*
X193815000Y-65000000D02*
X193815000Y-42055000D01*
%TO.N,PA3*%
X198895000Y-65000000D02*
X198895000Y-72620000D01*
X195530000Y-61635000D02*
X198895000Y-65000000D01*
X195530000Y-41000000D02*
X195530000Y-61635000D01*
%TO.N,EN1*%
X191275000Y-40275000D02*
X191275000Y-52581698D01*
X189160000Y-38160000D02*
X191275000Y-40275000D01*
X188605000Y-38160000D02*
X189160000Y-38160000D01*
%TO.N,EN2*%
X190015000Y-36800000D02*
X191375000Y-38160000D01*
X187200000Y-37600000D02*
X188000000Y-36800000D01*
X185800000Y-58000000D02*
X185800000Y-40200000D01*
X187200000Y-38800000D02*
X187200000Y-37600000D01*
X182400000Y-61400000D02*
X185800000Y-58000000D01*
X188000000Y-36800000D02*
X190015000Y-36800000D01*
X185800000Y-40200000D02*
X187200000Y-38800000D01*
X182400000Y-71335000D02*
X182400000Y-61400000D01*
X181115000Y-72620000D02*
X182400000Y-71335000D01*
%TO.N,~EN1*%
X178575000Y-62741698D02*
X183655000Y-57661698D01*
X178575000Y-65000000D02*
X178575000Y-62741698D01*
%TO.N,2A1*%
X186195000Y-72620000D02*
X188975000Y-75400000D01*
X188975000Y-75400000D02*
X208600000Y-75400000D01*
X208600000Y-75400000D02*
X210400000Y-73600000D01*
X210400000Y-51388907D02*
X212966043Y-48822864D01*
X210400000Y-73600000D02*
X210400000Y-51388907D01*
%TO.N,Net-(RN2-Pad5)*%
X228000000Y-53163634D02*
X223501936Y-57661698D01*
X228000000Y-35920000D02*
X228000000Y-53163634D01*
X225080000Y-33000000D02*
X228000000Y-35920000D01*
%TO.N,Net-(RN2-Pad4)*%
X219600000Y-35940000D02*
X222540000Y-33000000D01*
X219600000Y-56260334D02*
X219600000Y-35940000D01*
X217350107Y-58510227D02*
X219600000Y-56260334D01*
%TO.N,Net-(RN2-Pad3)*%
X217350107Y-35649893D02*
X220000000Y-33000000D01*
X217350107Y-39135501D02*
X217350107Y-35649893D01*
%TO.N,Net-(RN2-Pad2)*%
X217460000Y-33000000D02*
X215077074Y-35382926D01*
X204127209Y-46332791D02*
X217460000Y-33000000D01*
X204127209Y-57661698D02*
X204127209Y-46332791D01*
%TO.N,SW4*%
X161390906Y-55550668D02*
X163501936Y-57661698D01*
X161390906Y-34149094D02*
X161390906Y-55550668D01*
X162540000Y-33000000D02*
X161390906Y-34149094D01*
%TO.N,SW2*%
X160000000Y-55860334D02*
X157350107Y-58510227D01*
X160000000Y-33000000D02*
X160000000Y-55860334D01*
%TO.N,SW1*%
X157350107Y-33109893D02*
X157350107Y-39135501D01*
X157460000Y-33000000D02*
X157350107Y-33109893D01*
%TO.N,SW3*%
X154920000Y-33000000D02*
X154920000Y-37830000D01*
X144127209Y-48622791D02*
X144127209Y-57661698D01*
X154920000Y-37830000D02*
X144127209Y-48622791D01*
%TD*%
D23*
%TO.N,VCC*%
X234863608Y-30783397D02*
X235704010Y-30994491D01*
X236498664Y-31340017D01*
X237226206Y-31810685D01*
X237867110Y-32393864D01*
X238404155Y-33073881D01*
X238822930Y-33832489D01*
X239112180Y-34649306D01*
X239266323Y-35514656D01*
X239290000Y-36016736D01*
X239290001Y-73970846D01*
X239216603Y-74863606D01*
X239005509Y-75704010D01*
X238659983Y-76498664D01*
X238189315Y-77226206D01*
X237606136Y-77867110D01*
X236926115Y-78404159D01*
X236167507Y-78822932D01*
X235350692Y-79112181D01*
X234485344Y-79266323D01*
X233983265Y-79290000D01*
X146029142Y-79290000D01*
X145136394Y-79216603D01*
X144295990Y-79005509D01*
X143501336Y-78659983D01*
X142773794Y-78189315D01*
X142132890Y-77606136D01*
X141595841Y-76926115D01*
X141177068Y-76167507D01*
X140887819Y-75350692D01*
X140733677Y-74485344D01*
X140710000Y-73983265D01*
X140710000Y-73622285D01*
X142165000Y-73622285D01*
X142165000Y-74377715D01*
X142312377Y-75118628D01*
X142601467Y-75816554D01*
X143021161Y-76444670D01*
X143555330Y-76978839D01*
X144183446Y-77398533D01*
X144881372Y-77687623D01*
X145622285Y-77835000D01*
X146377715Y-77835000D01*
X147118628Y-77687623D01*
X147816554Y-77398533D01*
X148444670Y-76978839D01*
X148978839Y-76444670D01*
X149398533Y-75816554D01*
X149687623Y-75118628D01*
X149835000Y-74377715D01*
X149835000Y-73622285D01*
X149687623Y-72881372D01*
X149398533Y-72183446D01*
X148978839Y-71555330D01*
X148444670Y-71021161D01*
X148008494Y-70729717D01*
X161080907Y-70729717D01*
X161080907Y-71039473D01*
X161141337Y-71343276D01*
X161259875Y-71629453D01*
X161431966Y-71887006D01*
X161650996Y-72106036D01*
X161908549Y-72278127D01*
X162194726Y-72396665D01*
X162498529Y-72457095D01*
X162808285Y-72457095D01*
X162917288Y-72435413D01*
X173544192Y-72435413D01*
X173639956Y-72699814D01*
X173929571Y-72840704D01*
X174241108Y-72922384D01*
X174562595Y-72941718D01*
X174881675Y-72897961D01*
X175186088Y-72792795D01*
X175271764Y-72747000D01*
X177140000Y-72747000D01*
X177140000Y-73147000D01*
X177192350Y-73424514D01*
X177297834Y-73686483D01*
X177452399Y-73922839D01*
X177650105Y-74124500D01*
X177883354Y-74283715D01*
X178143182Y-74394367D01*
X178225961Y-74411904D01*
X178448000Y-74289915D01*
X178448000Y-72747000D01*
X177140000Y-72747000D01*
X175271764Y-72747000D01*
X175360044Y-72699814D01*
X175455808Y-72435413D01*
X174500000Y-71479605D01*
X173544192Y-72435413D01*
X162917288Y-72435413D01*
X163112088Y-72396665D01*
X163398265Y-72278127D01*
X163655818Y-72106036D01*
X163874848Y-71887006D01*
X164046939Y-71629453D01*
X164157474Y-71362595D01*
X172858282Y-71362595D01*
X172902039Y-71681675D01*
X173007205Y-71986088D01*
X173100186Y-72160044D01*
X173364587Y-72255808D01*
X174320395Y-71300000D01*
X174679605Y-71300000D01*
X175635413Y-72255808D01*
X175899814Y-72160044D01*
X175932429Y-72093000D01*
X177140000Y-72093000D01*
X177140000Y-72493000D01*
X178448000Y-72493000D01*
X178448000Y-70950085D01*
X178225961Y-70828096D01*
X178143182Y-70845633D01*
X177883354Y-70956285D01*
X177650105Y-71115500D01*
X177452399Y-71317161D01*
X177297834Y-71553517D01*
X177192350Y-71815486D01*
X177140000Y-72093000D01*
X175932429Y-72093000D01*
X176040704Y-71870429D01*
X176122384Y-71558892D01*
X176141718Y-71237405D01*
X176097961Y-70918325D01*
X175992795Y-70613912D01*
X175899814Y-70439956D01*
X175635413Y-70344192D01*
X174679605Y-71300000D01*
X174320395Y-71300000D01*
X173364587Y-70344192D01*
X173100186Y-70439956D01*
X172959296Y-70729571D01*
X172877616Y-71041108D01*
X172858282Y-71362595D01*
X164157474Y-71362595D01*
X164165477Y-71343276D01*
X164225907Y-71039473D01*
X164225907Y-70729717D01*
X164165477Y-70425914D01*
X164057233Y-70164587D01*
X173544192Y-70164587D01*
X174500000Y-71120395D01*
X175455808Y-70164587D01*
X175360044Y-69900186D01*
X175070429Y-69759296D01*
X174758892Y-69677616D01*
X174437405Y-69658282D01*
X174118325Y-69702039D01*
X173813912Y-69807205D01*
X173639956Y-69900186D01*
X173544192Y-70164587D01*
X164057233Y-70164587D01*
X164046939Y-70139737D01*
X163874848Y-69882184D01*
X163655818Y-69663154D01*
X163398265Y-69491063D01*
X163112088Y-69372525D01*
X162808285Y-69312095D01*
X162498529Y-69312095D01*
X162194726Y-69372525D01*
X161908549Y-69491063D01*
X161650996Y-69663154D01*
X161431966Y-69882184D01*
X161259875Y-70139737D01*
X161141337Y-70425914D01*
X161080907Y-70729717D01*
X148008494Y-70729717D01*
X147816554Y-70601467D01*
X147118628Y-70312377D01*
X146377715Y-70165000D01*
X145622285Y-70165000D01*
X144881372Y-70312377D01*
X144183446Y-70601467D01*
X143555330Y-71021161D01*
X143021161Y-71555330D01*
X142601467Y-72183446D01*
X142312377Y-72881372D01*
X142165000Y-73622285D01*
X140710000Y-73622285D01*
X140710000Y-67725745D01*
X155259776Y-67725745D01*
X155259776Y-68033039D01*
X155319726Y-68334427D01*
X155437322Y-68618329D01*
X155608045Y-68873834D01*
X155825334Y-69091123D01*
X156080839Y-69261846D01*
X156364741Y-69379442D01*
X156666129Y-69439392D01*
X156973423Y-69439392D01*
X157274811Y-69379442D01*
X157558713Y-69261846D01*
X157814218Y-69091123D01*
X158031507Y-68873834D01*
X158202230Y-68618329D01*
X158319826Y-68334427D01*
X158379776Y-68033039D01*
X158379776Y-67725745D01*
X158319826Y-67424357D01*
X158224485Y-67194183D01*
X164616441Y-67194183D01*
X164616441Y-67503939D01*
X164676871Y-67807742D01*
X164795409Y-68093919D01*
X164967500Y-68351472D01*
X165186530Y-68570502D01*
X165444083Y-68742593D01*
X165730260Y-68861131D01*
X166034063Y-68921561D01*
X166343819Y-68921561D01*
X166647622Y-68861131D01*
X166933799Y-68742593D01*
X167191352Y-68570502D01*
X167410382Y-68351472D01*
X167582473Y-68093919D01*
X167701011Y-67807742D01*
X167761441Y-67503939D01*
X167761441Y-67194183D01*
X167701011Y-66890380D01*
X167582473Y-66604203D01*
X167410382Y-66346650D01*
X167202699Y-66138967D01*
X172865000Y-66138967D01*
X172865000Y-66461033D01*
X172927832Y-66776912D01*
X173051082Y-67074463D01*
X173230013Y-67342252D01*
X173457748Y-67569987D01*
X173725537Y-67748918D01*
X174023088Y-67872168D01*
X174338967Y-67935000D01*
X174661033Y-67935000D01*
X174976912Y-67872168D01*
X175274463Y-67748918D01*
X175542252Y-67569987D01*
X175769987Y-67342252D01*
X175948918Y-67074463D01*
X176072168Y-66776912D01*
X176135000Y-66461033D01*
X176135000Y-66138967D01*
X176072168Y-65823088D01*
X175948918Y-65525537D01*
X175769987Y-65257748D01*
X175542252Y-65030013D01*
X175274463Y-64851082D01*
X174976912Y-64727832D01*
X174661033Y-64665000D01*
X174338967Y-64665000D01*
X174023088Y-64727832D01*
X173725537Y-64851082D01*
X173457748Y-65030013D01*
X173230013Y-65257748D01*
X173051082Y-65525537D01*
X172927832Y-65823088D01*
X172865000Y-66138967D01*
X167202699Y-66138967D01*
X167191352Y-66127620D01*
X166933799Y-65955529D01*
X166647622Y-65836991D01*
X166343819Y-65776561D01*
X166034063Y-65776561D01*
X165730260Y-65836991D01*
X165444083Y-65955529D01*
X165186530Y-66127620D01*
X164967500Y-66346650D01*
X164795409Y-66604203D01*
X164676871Y-66890380D01*
X164616441Y-67194183D01*
X158224485Y-67194183D01*
X158202230Y-67140455D01*
X158031507Y-66884950D01*
X157814218Y-66667661D01*
X157558713Y-66496938D01*
X157274811Y-66379342D01*
X156973423Y-66319392D01*
X156666129Y-66319392D01*
X156364741Y-66379342D01*
X156080839Y-66496938D01*
X155825334Y-66667661D01*
X155608045Y-66884950D01*
X155437322Y-67140455D01*
X155319726Y-67424357D01*
X155259776Y-67725745D01*
X140710000Y-67725745D01*
X140710000Y-63800000D01*
X177136928Y-63800000D01*
X177136928Y-66200000D01*
X177149188Y-66324482D01*
X177185498Y-66444180D01*
X177244463Y-66554494D01*
X177323815Y-66651185D01*
X177420506Y-66730537D01*
X177530820Y-66789502D01*
X177650518Y-66825812D01*
X177775000Y-66838072D01*
X179375000Y-66838072D01*
X179499482Y-66825812D01*
X179619180Y-66789502D01*
X179729494Y-66730537D01*
X179826185Y-66651185D01*
X179905537Y-66554494D01*
X179964502Y-66444180D01*
X180000812Y-66324482D01*
X180002581Y-66306517D01*
X180095392Y-66419607D01*
X180313899Y-66598932D01*
X180563192Y-66732182D01*
X180833691Y-66814236D01*
X181115000Y-66841943D01*
X181396308Y-66814236D01*
X181640000Y-66740314D01*
X181640000Y-70879686D01*
X181396309Y-70805764D01*
X181115000Y-70778057D01*
X180833692Y-70805764D01*
X180563193Y-70887818D01*
X180313900Y-71021068D01*
X180095393Y-71200392D01*
X179916068Y-71418899D01*
X179847735Y-71546741D01*
X179697601Y-71317161D01*
X179499895Y-71115500D01*
X179266646Y-70956285D01*
X179006818Y-70845633D01*
X178924039Y-70828096D01*
X178702000Y-70950085D01*
X178702000Y-72493000D01*
X178722000Y-72493000D01*
X178722000Y-72747000D01*
X178702000Y-72747000D01*
X178702000Y-74289915D01*
X178924039Y-74411904D01*
X179006818Y-74394367D01*
X179266646Y-74283715D01*
X179499895Y-74124500D01*
X179697601Y-73922839D01*
X179847735Y-73693258D01*
X179916068Y-73821100D01*
X180095392Y-74039607D01*
X180313899Y-74218932D01*
X180563192Y-74352182D01*
X180833691Y-74434236D01*
X181115000Y-74461943D01*
X181396308Y-74434236D01*
X181666807Y-74352182D01*
X181916100Y-74218932D01*
X182134607Y-74039608D01*
X182313932Y-73821101D01*
X182385000Y-73688142D01*
X182456068Y-73821100D01*
X182635392Y-74039607D01*
X182853899Y-74218932D01*
X183103192Y-74352182D01*
X183373691Y-74434236D01*
X183655000Y-74461943D01*
X183936308Y-74434236D01*
X184206807Y-74352182D01*
X184456100Y-74218932D01*
X184674607Y-74039608D01*
X184853932Y-73821101D01*
X184925000Y-73688142D01*
X184996068Y-73821100D01*
X185175392Y-74039607D01*
X185393899Y-74218932D01*
X185643192Y-74352182D01*
X185913691Y-74434236D01*
X186195000Y-74461943D01*
X186476308Y-74434236D01*
X186746807Y-74352182D01*
X186815606Y-74315408D01*
X188411201Y-75911003D01*
X188434999Y-75940001D01*
X188550724Y-76034974D01*
X188682753Y-76105546D01*
X188826014Y-76149003D01*
X188937667Y-76160000D01*
X188937675Y-76160000D01*
X188975000Y-76163676D01*
X189012325Y-76160000D01*
X208562678Y-76160000D01*
X208600000Y-76163676D01*
X208637322Y-76160000D01*
X208637333Y-76160000D01*
X208748986Y-76149003D01*
X208892247Y-76105546D01*
X209024276Y-76034974D01*
X209140001Y-75940001D01*
X209163803Y-75910998D01*
X210911009Y-74163794D01*
X210940001Y-74140001D01*
X210963795Y-74111008D01*
X210963799Y-74111004D01*
X211034973Y-74024277D01*
X211034974Y-74024276D01*
X211105546Y-73892247D01*
X211149003Y-73748986D01*
X211160000Y-73637333D01*
X211160000Y-73637324D01*
X211161481Y-73622285D01*
X230165000Y-73622285D01*
X230165000Y-74377715D01*
X230312377Y-75118628D01*
X230601467Y-75816554D01*
X231021161Y-76444670D01*
X231555330Y-76978839D01*
X232183446Y-77398533D01*
X232881372Y-77687623D01*
X233622285Y-77835000D01*
X234377715Y-77835000D01*
X235118628Y-77687623D01*
X235816554Y-77398533D01*
X236444670Y-76978839D01*
X236978839Y-76444670D01*
X237398533Y-75816554D01*
X237687623Y-75118628D01*
X237835000Y-74377715D01*
X237835000Y-73622285D01*
X237687623Y-72881372D01*
X237398533Y-72183446D01*
X236978839Y-71555330D01*
X236444670Y-71021161D01*
X235816554Y-70601467D01*
X235118628Y-70312377D01*
X234377715Y-70165000D01*
X233622285Y-70165000D01*
X232881372Y-70312377D01*
X232183446Y-70601467D01*
X231555330Y-71021161D01*
X231021161Y-71555330D01*
X230601467Y-72183446D01*
X230312377Y-72881372D01*
X230165000Y-73622285D01*
X211161481Y-73622285D01*
X211163676Y-73600001D01*
X211160000Y-73562678D01*
X211160000Y-70729717D01*
X221080907Y-70729717D01*
X221080907Y-71039473D01*
X221141337Y-71343276D01*
X221259875Y-71629453D01*
X221431966Y-71887006D01*
X221650996Y-72106036D01*
X221908549Y-72278127D01*
X222194726Y-72396665D01*
X222498529Y-72457095D01*
X222808285Y-72457095D01*
X223112088Y-72396665D01*
X223398265Y-72278127D01*
X223655818Y-72106036D01*
X223874848Y-71887006D01*
X224046939Y-71629453D01*
X224165477Y-71343276D01*
X224225907Y-71039473D01*
X224225907Y-70729717D01*
X224165477Y-70425914D01*
X224046939Y-70139737D01*
X223874848Y-69882184D01*
X223655818Y-69663154D01*
X223398265Y-69491063D01*
X223112088Y-69372525D01*
X222808285Y-69312095D01*
X222498529Y-69312095D01*
X222194726Y-69372525D01*
X221908549Y-69491063D01*
X221650996Y-69663154D01*
X221431966Y-69882184D01*
X221259875Y-70139737D01*
X221141337Y-70425914D01*
X221080907Y-70729717D01*
X211160000Y-70729717D01*
X211160000Y-67725745D01*
X215259776Y-67725745D01*
X215259776Y-68033039D01*
X215319726Y-68334427D01*
X215437322Y-68618329D01*
X215608045Y-68873834D01*
X215825334Y-69091123D01*
X216080839Y-69261846D01*
X216364741Y-69379442D01*
X216666129Y-69439392D01*
X216973423Y-69439392D01*
X217274811Y-69379442D01*
X217558713Y-69261846D01*
X217814218Y-69091123D01*
X218031507Y-68873834D01*
X218202230Y-68618329D01*
X218319826Y-68334427D01*
X218379776Y-68033039D01*
X218379776Y-67725745D01*
X218319826Y-67424357D01*
X218224485Y-67194183D01*
X224616441Y-67194183D01*
X224616441Y-67503939D01*
X224676871Y-67807742D01*
X224795409Y-68093919D01*
X224967500Y-68351472D01*
X225186530Y-68570502D01*
X225444083Y-68742593D01*
X225730260Y-68861131D01*
X226034063Y-68921561D01*
X226343819Y-68921561D01*
X226647622Y-68861131D01*
X226933799Y-68742593D01*
X227191352Y-68570502D01*
X227410382Y-68351472D01*
X227582473Y-68093919D01*
X227701011Y-67807742D01*
X227761441Y-67503939D01*
X227761441Y-67194183D01*
X227701011Y-66890380D01*
X227582473Y-66604203D01*
X227410382Y-66346650D01*
X227191352Y-66127620D01*
X226933799Y-65955529D01*
X226647622Y-65836991D01*
X226343819Y-65776561D01*
X226034063Y-65776561D01*
X225730260Y-65836991D01*
X225444083Y-65955529D01*
X225186530Y-66127620D01*
X224967500Y-66346650D01*
X224795409Y-66604203D01*
X224676871Y-66890380D01*
X224616441Y-67194183D01*
X218224485Y-67194183D01*
X218202230Y-67140455D01*
X218031507Y-66884950D01*
X217814218Y-66667661D01*
X217558713Y-66496938D01*
X217274811Y-66379342D01*
X216973423Y-66319392D01*
X216666129Y-66319392D01*
X216364741Y-66379342D01*
X216080839Y-66496938D01*
X215825334Y-66667661D01*
X215608045Y-66884950D01*
X215437322Y-67140455D01*
X215319726Y-67424357D01*
X215259776Y-67725745D01*
X211160000Y-67725745D01*
X211160000Y-61890883D01*
X212242073Y-61890883D01*
X212242073Y-62200639D01*
X212302503Y-62504442D01*
X212421041Y-62790619D01*
X212593132Y-63048172D01*
X212812162Y-63267202D01*
X213069715Y-63439293D01*
X213355892Y-63557831D01*
X213659695Y-63618261D01*
X213969451Y-63618261D01*
X214273254Y-63557831D01*
X214559431Y-63439293D01*
X214816984Y-63267202D01*
X215036014Y-63048172D01*
X215208105Y-62790619D01*
X215326643Y-62504442D01*
X215387073Y-62200639D01*
X215387073Y-61890883D01*
X215326643Y-61587080D01*
X215233323Y-61361783D01*
X221623738Y-61361783D01*
X221623738Y-61669077D01*
X221683688Y-61970465D01*
X221801284Y-62254367D01*
X221972007Y-62509872D01*
X222189296Y-62727161D01*
X222444801Y-62897884D01*
X222728703Y-63015480D01*
X223030091Y-63075430D01*
X223337385Y-63075430D01*
X223638773Y-63015480D01*
X223922675Y-62897884D01*
X224178180Y-62727161D01*
X224395469Y-62509872D01*
X224566192Y-62254367D01*
X224683788Y-61970465D01*
X224743738Y-61669077D01*
X224743738Y-61361783D01*
X224683788Y-61060395D01*
X224676316Y-61042354D01*
X225464970Y-61042354D01*
X225464970Y-61352110D01*
X225525400Y-61655913D01*
X225643938Y-61942090D01*
X225816029Y-62199643D01*
X226035059Y-62418673D01*
X226292612Y-62590764D01*
X226578789Y-62709302D01*
X226882592Y-62769732D01*
X227192348Y-62769732D01*
X227496151Y-62709302D01*
X227782328Y-62590764D01*
X228039881Y-62418673D01*
X228258911Y-62199643D01*
X228431002Y-61942090D01*
X228549540Y-61655913D01*
X228609970Y-61352110D01*
X228609970Y-61042354D01*
X228549540Y-60738551D01*
X228431002Y-60452374D01*
X228258911Y-60194821D01*
X228039881Y-59975791D01*
X227782328Y-59803700D01*
X227496151Y-59685162D01*
X227192348Y-59624732D01*
X226882592Y-59624732D01*
X226578789Y-59685162D01*
X226292612Y-59803700D01*
X226035059Y-59975791D01*
X225816029Y-60194821D01*
X225643938Y-60452374D01*
X225525400Y-60738551D01*
X225464970Y-61042354D01*
X224676316Y-61042354D01*
X224566192Y-60776493D01*
X224395469Y-60520988D01*
X224178180Y-60303699D01*
X223922675Y-60132976D01*
X223638773Y-60015380D01*
X223337385Y-59955430D01*
X223030091Y-59955430D01*
X222728703Y-60015380D01*
X222444801Y-60132976D01*
X222189296Y-60303699D01*
X221972007Y-60520988D01*
X221801284Y-60776493D01*
X221683688Y-61060395D01*
X221623738Y-61361783D01*
X215233323Y-61361783D01*
X215208105Y-61300903D01*
X215036014Y-61043350D01*
X214816984Y-60824320D01*
X214559431Y-60652229D01*
X214273254Y-60533691D01*
X213969451Y-60473261D01*
X213659695Y-60473261D01*
X213355892Y-60533691D01*
X213069715Y-60652229D01*
X212812162Y-60824320D01*
X212593132Y-61043350D01*
X212421041Y-61300903D01*
X212302503Y-61587080D01*
X212242073Y-61890883D01*
X211160000Y-61890883D01*
X211160000Y-58038382D01*
X211936374Y-58038382D01*
X211936374Y-58345676D01*
X211996324Y-58647064D01*
X212113920Y-58930966D01*
X212284643Y-59186471D01*
X212501932Y-59403760D01*
X212757437Y-59574483D01*
X213041339Y-59692079D01*
X213342727Y-59752029D01*
X213650021Y-59752029D01*
X213951409Y-59692079D01*
X214235311Y-59574483D01*
X214490816Y-59403760D01*
X214708105Y-59186471D01*
X214878828Y-58930966D01*
X214996424Y-58647064D01*
X215056374Y-58345676D01*
X215056374Y-58038382D01*
X214996424Y-57736994D01*
X214878828Y-57453092D01*
X214708105Y-57197587D01*
X214490816Y-56980298D01*
X214235311Y-56809575D01*
X213951409Y-56691979D01*
X213650021Y-56632029D01*
X213342727Y-56632029D01*
X213041339Y-56691979D01*
X212757437Y-56809575D01*
X212501932Y-56980298D01*
X212284643Y-57197587D01*
X212113920Y-57453092D01*
X211996324Y-57736994D01*
X211936374Y-58038382D01*
X211160000Y-58038382D01*
X211160000Y-52203520D01*
X214929077Y-52203520D01*
X214929077Y-52513276D01*
X214989507Y-52817079D01*
X215108045Y-53103256D01*
X215280136Y-53360809D01*
X215499166Y-53579839D01*
X215756719Y-53751930D01*
X216042896Y-53870468D01*
X216346699Y-53930898D01*
X216656455Y-53930898D01*
X216960258Y-53870468D01*
X217246435Y-53751930D01*
X217503988Y-53579839D01*
X217723018Y-53360809D01*
X217895109Y-53103256D01*
X218013647Y-52817079D01*
X218074077Y-52513276D01*
X218074077Y-52203520D01*
X218013647Y-51899717D01*
X217895109Y-51613540D01*
X217723018Y-51355987D01*
X217503988Y-51136957D01*
X217246435Y-50964866D01*
X216960258Y-50846328D01*
X216656455Y-50785898D01*
X216346699Y-50785898D01*
X216042896Y-50846328D01*
X215756719Y-50964866D01*
X215499166Y-51136957D01*
X215280136Y-51355987D01*
X215108045Y-51613540D01*
X214989507Y-51899717D01*
X214929077Y-52203520D01*
X211160000Y-52203520D01*
X211160000Y-51703708D01*
X212525222Y-50338487D01*
X212811165Y-50395364D01*
X213120921Y-50395364D01*
X213424724Y-50334934D01*
X213710901Y-50216396D01*
X213968454Y-50044305D01*
X214187484Y-49825275D01*
X214359575Y-49567722D01*
X214478113Y-49281545D01*
X214538543Y-48977742D01*
X214538543Y-48667986D01*
X214478113Y-48364183D01*
X214472661Y-48351019D01*
X215259776Y-48351019D01*
X215259776Y-48658313D01*
X215319726Y-48959701D01*
X215437322Y-49243603D01*
X215608045Y-49499108D01*
X215825334Y-49716397D01*
X216080839Y-49887120D01*
X216364741Y-50004716D01*
X216666129Y-50064666D01*
X216973423Y-50064666D01*
X217274811Y-50004716D01*
X217558713Y-49887120D01*
X217814218Y-49716397D01*
X218031507Y-49499108D01*
X218202230Y-49243603D01*
X218319826Y-48959701D01*
X218379776Y-48658313D01*
X218379776Y-48351019D01*
X218319826Y-48049631D01*
X218202230Y-47765729D01*
X218031507Y-47510224D01*
X217814218Y-47292935D01*
X217558713Y-47122212D01*
X217274811Y-47004616D01*
X216973423Y-46944666D01*
X216666129Y-46944666D01*
X216364741Y-47004616D01*
X216080839Y-47122212D01*
X215825334Y-47292935D01*
X215608045Y-47510224D01*
X215437322Y-47765729D01*
X215319726Y-48049631D01*
X215259776Y-48351019D01*
X214472661Y-48351019D01*
X214359575Y-48078006D01*
X214187484Y-47820453D01*
X213968454Y-47601423D01*
X213710901Y-47429332D01*
X213424724Y-47310794D01*
X213120921Y-47250364D01*
X212811165Y-47250364D01*
X212507362Y-47310794D01*
X212221185Y-47429332D01*
X211963632Y-47601423D01*
X211744602Y-47820453D01*
X211572511Y-48078006D01*
X211453973Y-48364183D01*
X211393543Y-48667986D01*
X211393543Y-48977742D01*
X211450420Y-49263685D01*
X209888998Y-50825108D01*
X209860000Y-50848906D01*
X209836202Y-50877904D01*
X209836201Y-50877905D01*
X209765026Y-50964631D01*
X209694454Y-51096661D01*
X209650998Y-51239922D01*
X209636324Y-51388907D01*
X209640001Y-51426240D01*
X209640000Y-73285197D01*
X208285199Y-74640000D01*
X189289802Y-74640000D01*
X189068274Y-74418472D01*
X189286807Y-74352182D01*
X189536100Y-74218932D01*
X189754607Y-74039608D01*
X189933932Y-73821101D01*
X190005000Y-73688142D01*
X190076068Y-73821100D01*
X190255392Y-74039607D01*
X190473899Y-74218932D01*
X190723192Y-74352182D01*
X190993691Y-74434236D01*
X191275000Y-74461943D01*
X191556308Y-74434236D01*
X191826807Y-74352182D01*
X192076100Y-74218932D01*
X192294607Y-74039608D01*
X192473932Y-73821101D01*
X192545000Y-73688142D01*
X192616068Y-73821100D01*
X192795392Y-74039607D01*
X193013899Y-74218932D01*
X193263192Y-74352182D01*
X193533691Y-74434236D01*
X193815000Y-74461943D01*
X194096308Y-74434236D01*
X194366807Y-74352182D01*
X194616100Y-74218932D01*
X194834607Y-74039608D01*
X195013932Y-73821101D01*
X195085000Y-73688142D01*
X195156068Y-73821100D01*
X195335392Y-74039607D01*
X195553899Y-74218932D01*
X195803192Y-74352182D01*
X196073691Y-74434236D01*
X196355000Y-74461943D01*
X196636308Y-74434236D01*
X196906807Y-74352182D01*
X197156100Y-74218932D01*
X197374607Y-74039608D01*
X197553932Y-73821101D01*
X197625000Y-73688142D01*
X197696068Y-73821100D01*
X197875392Y-74039607D01*
X198093899Y-74218932D01*
X198343192Y-74352182D01*
X198613691Y-74434236D01*
X198895000Y-74461943D01*
X199176308Y-74434236D01*
X199446807Y-74352182D01*
X199696100Y-74218932D01*
X199914607Y-74039608D01*
X200093932Y-73821101D01*
X200165000Y-73688142D01*
X200236068Y-73821100D01*
X200415392Y-74039607D01*
X200633899Y-74218932D01*
X200883192Y-74352182D01*
X201153691Y-74434236D01*
X201435000Y-74461943D01*
X201716308Y-74434236D01*
X201986807Y-74352182D01*
X202236100Y-74218932D01*
X202454607Y-74039608D01*
X202633932Y-73821101D01*
X202767182Y-73571808D01*
X202849236Y-73301309D01*
X202870000Y-73090492D01*
X202870000Y-72149509D01*
X202849236Y-71938691D01*
X202767182Y-71668192D01*
X202633932Y-71418899D01*
X202454608Y-71200392D01*
X202236101Y-71021068D01*
X201986808Y-70887818D01*
X201716309Y-70805764D01*
X201435000Y-70778057D01*
X201153692Y-70805764D01*
X200883193Y-70887818D01*
X200633900Y-71021068D01*
X200415393Y-71200392D01*
X200236068Y-71418899D01*
X200165000Y-71551858D01*
X200093932Y-71418899D01*
X199914608Y-71200392D01*
X199696101Y-71021068D01*
X199655000Y-70999099D01*
X199655000Y-66620900D01*
X199696100Y-66598932D01*
X199914607Y-66419608D01*
X200093932Y-66201101D01*
X200165000Y-66068142D01*
X200236068Y-66201100D01*
X200415392Y-66419607D01*
X200633899Y-66598932D01*
X200883192Y-66732182D01*
X201153691Y-66814236D01*
X201435000Y-66841943D01*
X201716308Y-66814236D01*
X201986807Y-66732182D01*
X202236100Y-66598932D01*
X202454607Y-66419608D01*
X202633932Y-66201101D01*
X202767182Y-65951808D01*
X202849236Y-65681309D01*
X202870000Y-65470492D01*
X202870000Y-64529509D01*
X202849236Y-64318691D01*
X202767182Y-64048192D01*
X202633932Y-63798899D01*
X202454608Y-63580392D01*
X202236101Y-63401068D01*
X201986808Y-63267818D01*
X201716309Y-63185764D01*
X201435000Y-63158057D01*
X201153692Y-63185764D01*
X200883193Y-63267818D01*
X200633900Y-63401068D01*
X200415393Y-63580392D01*
X200236068Y-63798899D01*
X200165000Y-63931858D01*
X200093932Y-63798899D01*
X199914608Y-63580392D01*
X199696101Y-63401068D01*
X199446808Y-63267818D01*
X199176309Y-63185764D01*
X198895000Y-63158057D01*
X198613692Y-63185764D01*
X198343193Y-63267818D01*
X198274394Y-63304592D01*
X196290000Y-61320199D01*
X196290000Y-61042354D01*
X206090243Y-61042354D01*
X206090243Y-61352110D01*
X206150673Y-61655913D01*
X206269211Y-61942090D01*
X206441302Y-62199643D01*
X206660332Y-62418673D01*
X206917885Y-62590764D01*
X207204062Y-62709302D01*
X207507865Y-62769732D01*
X207817621Y-62769732D01*
X208121424Y-62709302D01*
X208407601Y-62590764D01*
X208665154Y-62418673D01*
X208884184Y-62199643D01*
X209056275Y-61942090D01*
X209174813Y-61655913D01*
X209235243Y-61352110D01*
X209235243Y-61042354D01*
X209174813Y-60738551D01*
X209056275Y-60452374D01*
X208884184Y-60194821D01*
X208665154Y-59975791D01*
X208407601Y-59803700D01*
X208121424Y-59685162D01*
X207817621Y-59624732D01*
X207507865Y-59624732D01*
X207204062Y-59685162D01*
X206917885Y-59803700D01*
X206660332Y-59975791D01*
X206441302Y-60194821D01*
X206269211Y-60452374D01*
X206150673Y-60738551D01*
X206090243Y-61042354D01*
X196290000Y-61042354D01*
X196290000Y-58654400D01*
X198081903Y-58654400D01*
X198153486Y-58898369D01*
X198408996Y-59019269D01*
X198683184Y-59087998D01*
X198965512Y-59101915D01*
X199245130Y-59060485D01*
X199511292Y-58965301D01*
X199636514Y-58898369D01*
X199708097Y-58654400D01*
X198895000Y-57841303D01*
X198081903Y-58654400D01*
X196290000Y-58654400D01*
X196290000Y-57732210D01*
X197454783Y-57732210D01*
X197496213Y-58011828D01*
X197591397Y-58277990D01*
X197658329Y-58403212D01*
X197902298Y-58474795D01*
X198715395Y-57661698D01*
X199074605Y-57661698D01*
X199887702Y-58474795D01*
X200131671Y-58403212D01*
X200252571Y-58147702D01*
X200321300Y-57873514D01*
X200331741Y-57661698D01*
X202163312Y-57661698D01*
X202175572Y-57786180D01*
X202211882Y-57905878D01*
X202270847Y-58016192D01*
X202350199Y-58112883D01*
X203676024Y-59438708D01*
X203772715Y-59518060D01*
X203883029Y-59577025D01*
X204002727Y-59613335D01*
X204127209Y-59625595D01*
X204251691Y-59613335D01*
X204371389Y-59577025D01*
X204481703Y-59518060D01*
X204578394Y-59438708D01*
X205904219Y-58112883D01*
X205983571Y-58016192D01*
X206042536Y-57905878D01*
X206078846Y-57786180D01*
X206091106Y-57661698D01*
X206078846Y-57537216D01*
X206042536Y-57417518D01*
X205983571Y-57307204D01*
X205904219Y-57210513D01*
X204887209Y-56193503D01*
X204887209Y-51674420D01*
X205572412Y-51674420D01*
X205572412Y-51981714D01*
X205632362Y-52283102D01*
X205749958Y-52567004D01*
X205920681Y-52822509D01*
X206137970Y-53039798D01*
X206393475Y-53210521D01*
X206677377Y-53328117D01*
X206978765Y-53388067D01*
X207286059Y-53388067D01*
X207587447Y-53328117D01*
X207871349Y-53210521D01*
X208126854Y-53039798D01*
X208344143Y-52822509D01*
X208514866Y-52567004D01*
X208632462Y-52283102D01*
X208692412Y-51981714D01*
X208692412Y-51674420D01*
X208632462Y-51373032D01*
X208514866Y-51089130D01*
X208344143Y-50833625D01*
X208126854Y-50616336D01*
X207871349Y-50445613D01*
X207587447Y-50328017D01*
X207286059Y-50268067D01*
X206978765Y-50268067D01*
X206677377Y-50328017D01*
X206393475Y-50445613D01*
X206137970Y-50616336D01*
X205920681Y-50833625D01*
X205749958Y-51089130D01*
X205632362Y-51373032D01*
X205572412Y-51674420D01*
X204887209Y-51674420D01*
X204887209Y-46647592D01*
X209018644Y-42516157D01*
X212242073Y-42516157D01*
X212242073Y-42825913D01*
X212302503Y-43129716D01*
X212421041Y-43415893D01*
X212593132Y-43673446D01*
X212812162Y-43892476D01*
X213069715Y-44064567D01*
X213355892Y-44183105D01*
X213659695Y-44243535D01*
X213969451Y-44243535D01*
X214273254Y-44183105D01*
X214559431Y-44064567D01*
X214816984Y-43892476D01*
X215036014Y-43673446D01*
X215208105Y-43415893D01*
X215326643Y-43129716D01*
X215387073Y-42825913D01*
X215387073Y-42516157D01*
X215326643Y-42212354D01*
X215208105Y-41926177D01*
X215036014Y-41668624D01*
X214816984Y-41449594D01*
X214559431Y-41277503D01*
X214273254Y-41158965D01*
X213969451Y-41098535D01*
X213659695Y-41098535D01*
X213355892Y-41158965D01*
X213069715Y-41277503D01*
X212812162Y-41449594D01*
X212593132Y-41668624D01*
X212421041Y-41926177D01*
X212302503Y-42212354D01*
X212242073Y-42516157D01*
X209018644Y-42516157D01*
X217136114Y-34398688D01*
X217318665Y-34435000D01*
X217490199Y-34435000D01*
X216839105Y-35086094D01*
X216810107Y-35109892D01*
X216786309Y-35138890D01*
X216786308Y-35138891D01*
X216715133Y-35225617D01*
X216644561Y-35357647D01*
X216622918Y-35428998D01*
X216601105Y-35500907D01*
X216593587Y-35577235D01*
X216586431Y-35649893D01*
X216590108Y-35687225D01*
X216590107Y-37667306D01*
X215573097Y-38684316D01*
X215493745Y-38781007D01*
X215434780Y-38891321D01*
X215398470Y-39011019D01*
X215386210Y-39135501D01*
X215398470Y-39259983D01*
X215434780Y-39379681D01*
X215493745Y-39489995D01*
X215573097Y-39586686D01*
X216898922Y-40912511D01*
X216995613Y-40991863D01*
X217105927Y-41050828D01*
X217225625Y-41087138D01*
X217350107Y-41099398D01*
X217474589Y-41087138D01*
X217594287Y-41050828D01*
X217704601Y-40991863D01*
X217801292Y-40912511D01*
X218840001Y-39873802D01*
X218840000Y-55945532D01*
X217926804Y-56858729D01*
X217801292Y-56733217D01*
X217704601Y-56653865D01*
X217594287Y-56594900D01*
X217474589Y-56558590D01*
X217350107Y-56546330D01*
X217225625Y-56558590D01*
X217105927Y-56594900D01*
X216995613Y-56653865D01*
X216898922Y-56733217D01*
X215573097Y-58059042D01*
X215493745Y-58155733D01*
X215434780Y-58266047D01*
X215398470Y-58385745D01*
X215386210Y-58510227D01*
X215398470Y-58634709D01*
X215434780Y-58754407D01*
X215493745Y-58864721D01*
X215573097Y-58961412D01*
X216898922Y-60287237D01*
X216995613Y-60366589D01*
X217105927Y-60425554D01*
X217225625Y-60461864D01*
X217350107Y-60474124D01*
X217474589Y-60461864D01*
X217594287Y-60425554D01*
X217704601Y-60366589D01*
X217801292Y-60287237D01*
X219127117Y-58961412D01*
X219206469Y-58864721D01*
X219265434Y-58754407D01*
X219301744Y-58634709D01*
X219314004Y-58510227D01*
X219301744Y-58385745D01*
X219265434Y-58266047D01*
X219206469Y-58155733D01*
X219127117Y-58059042D01*
X219001605Y-57933530D01*
X220111004Y-56824132D01*
X220140001Y-56800335D01*
X220234974Y-56684610D01*
X220305546Y-56552581D01*
X220349003Y-56409320D01*
X220360000Y-56297667D01*
X220360000Y-56297658D01*
X220363676Y-56260335D01*
X220360000Y-56223012D01*
X220360000Y-51354991D01*
X221080907Y-51354991D01*
X221080907Y-51664747D01*
X221141337Y-51968550D01*
X221259875Y-52254727D01*
X221431966Y-52512280D01*
X221650996Y-52731310D01*
X221908549Y-52903401D01*
X222194726Y-53021939D01*
X222498529Y-53082369D01*
X222808285Y-53082369D01*
X223112088Y-53021939D01*
X223398265Y-52903401D01*
X223655818Y-52731310D01*
X223874848Y-52512280D01*
X224046939Y-52254727D01*
X224165477Y-51968550D01*
X224225907Y-51664747D01*
X224225907Y-51354991D01*
X224165477Y-51051188D01*
X224046939Y-50765011D01*
X223874848Y-50507458D01*
X223655818Y-50288428D01*
X223398265Y-50116337D01*
X223112088Y-49997799D01*
X222808285Y-49937369D01*
X222498529Y-49937369D01*
X222194726Y-49997799D01*
X221908549Y-50116337D01*
X221650996Y-50288428D01*
X221431966Y-50507458D01*
X221259875Y-50765011D01*
X221141337Y-51051188D01*
X221080907Y-51354991D01*
X220360000Y-51354991D01*
X220360000Y-41987057D01*
X221623738Y-41987057D01*
X221623738Y-42294351D01*
X221683688Y-42595739D01*
X221801284Y-42879641D01*
X221972007Y-43135146D01*
X222189296Y-43352435D01*
X222444801Y-43523158D01*
X222728703Y-43640754D01*
X223030091Y-43700704D01*
X223337385Y-43700704D01*
X223638773Y-43640754D01*
X223922675Y-43523158D01*
X224178180Y-43352435D01*
X224395469Y-43135146D01*
X224566192Y-42879641D01*
X224683788Y-42595739D01*
X224743738Y-42294351D01*
X224743738Y-41987057D01*
X224683788Y-41685669D01*
X224566192Y-41401767D01*
X224395469Y-41146262D01*
X224178180Y-40928973D01*
X223922675Y-40758250D01*
X223638773Y-40640654D01*
X223337385Y-40580704D01*
X223030091Y-40580704D01*
X222728703Y-40640654D01*
X222444801Y-40758250D01*
X222189296Y-40928973D01*
X221972007Y-41146262D01*
X221801284Y-41401767D01*
X221683688Y-41685669D01*
X221623738Y-41987057D01*
X220360000Y-41987057D01*
X220360000Y-36254801D01*
X222216114Y-34398688D01*
X222398665Y-34435000D01*
X222681335Y-34435000D01*
X222958574Y-34379853D01*
X223219727Y-34271680D01*
X223454759Y-34114637D01*
X223654637Y-33914759D01*
X223810000Y-33682241D01*
X223965363Y-33914759D01*
X224165241Y-34114637D01*
X224400273Y-34271680D01*
X224661426Y-34379853D01*
X224938665Y-34435000D01*
X225221335Y-34435000D01*
X225403886Y-34398688D01*
X227240000Y-36234802D01*
X227240001Y-46801543D01*
X227191352Y-46752894D01*
X226933799Y-46580803D01*
X226647622Y-46462265D01*
X226343819Y-46401835D01*
X226034063Y-46401835D01*
X225730260Y-46462265D01*
X225444083Y-46580803D01*
X225186530Y-46752894D01*
X224967500Y-46971924D01*
X224795409Y-47229477D01*
X224676871Y-47515654D01*
X224616441Y-47819457D01*
X224616441Y-48129213D01*
X224676871Y-48433016D01*
X224795409Y-48719193D01*
X224967500Y-48976746D01*
X225186530Y-49195776D01*
X225444083Y-49367867D01*
X225730260Y-49486405D01*
X226034063Y-49546835D01*
X226343819Y-49546835D01*
X226647622Y-49486405D01*
X226933799Y-49367867D01*
X227191352Y-49195776D01*
X227240001Y-49147127D01*
X227240001Y-50443097D01*
X226962174Y-50328017D01*
X226660786Y-50268067D01*
X226353492Y-50268067D01*
X226052104Y-50328017D01*
X225768202Y-50445613D01*
X225512697Y-50616336D01*
X225295408Y-50833625D01*
X225124685Y-51089130D01*
X225007089Y-51373032D01*
X224947139Y-51674420D01*
X224947139Y-51981714D01*
X225007089Y-52283102D01*
X225124685Y-52567004D01*
X225295408Y-52822509D01*
X225512697Y-53039798D01*
X225768202Y-53210521D01*
X226052104Y-53328117D01*
X226353492Y-53388067D01*
X226660786Y-53388067D01*
X226710692Y-53378140D01*
X224078633Y-56010200D01*
X223953121Y-55884688D01*
X223856430Y-55805336D01*
X223746116Y-55746371D01*
X223626418Y-55710061D01*
X223501936Y-55697801D01*
X223377454Y-55710061D01*
X223257756Y-55746371D01*
X223147442Y-55805336D01*
X223050751Y-55884688D01*
X221724926Y-57210513D01*
X221645574Y-57307204D01*
X221586609Y-57417518D01*
X221550299Y-57537216D01*
X221538039Y-57661698D01*
X221550299Y-57786180D01*
X221586609Y-57905878D01*
X221645574Y-58016192D01*
X221724926Y-58112883D01*
X223050751Y-59438708D01*
X223147442Y-59518060D01*
X223257756Y-59577025D01*
X223377454Y-59613335D01*
X223501936Y-59625595D01*
X223626418Y-59613335D01*
X223746116Y-59577025D01*
X223856430Y-59518060D01*
X223953121Y-59438708D01*
X225278946Y-58112883D01*
X225340087Y-58038382D01*
X231311101Y-58038382D01*
X231311101Y-58345676D01*
X231371051Y-58647064D01*
X231488647Y-58930966D01*
X231659370Y-59186471D01*
X231876659Y-59403760D01*
X232132164Y-59574483D01*
X232416066Y-59692079D01*
X232717454Y-59752029D01*
X233024748Y-59752029D01*
X233326136Y-59692079D01*
X233610038Y-59574483D01*
X233865543Y-59403760D01*
X234082832Y-59186471D01*
X234253555Y-58930966D01*
X234371151Y-58647064D01*
X234431101Y-58345676D01*
X234431101Y-58038382D01*
X234371151Y-57736994D01*
X234253555Y-57453092D01*
X234082832Y-57197587D01*
X233865543Y-56980298D01*
X233610038Y-56809575D01*
X233326136Y-56691979D01*
X233024748Y-56632029D01*
X232717454Y-56632029D01*
X232416066Y-56691979D01*
X232132164Y-56809575D01*
X231876659Y-56980298D01*
X231659370Y-57197587D01*
X231488647Y-57453092D01*
X231371051Y-57736994D01*
X231311101Y-58038382D01*
X225340087Y-58038382D01*
X225358298Y-58016192D01*
X225417263Y-57905878D01*
X225453573Y-57786180D01*
X225465833Y-57661698D01*
X225453573Y-57537216D01*
X225417263Y-57417518D01*
X225358298Y-57307204D01*
X225278946Y-57210513D01*
X225153434Y-57085001D01*
X228511003Y-53727433D01*
X228540001Y-53703635D01*
X228566332Y-53671551D01*
X228634974Y-53587911D01*
X228705546Y-53455881D01*
X228749003Y-53312620D01*
X228760000Y-53200967D01*
X228760000Y-53200958D01*
X228763676Y-53163635D01*
X228760000Y-53126312D01*
X228760000Y-52203520D01*
X234303804Y-52203520D01*
X234303804Y-52513276D01*
X234364234Y-52817079D01*
X234482772Y-53103256D01*
X234654863Y-53360809D01*
X234873893Y-53579839D01*
X235131446Y-53751930D01*
X235417623Y-53870468D01*
X235721426Y-53930898D01*
X236031182Y-53930898D01*
X236334985Y-53870468D01*
X236621162Y-53751930D01*
X236878715Y-53579839D01*
X237097745Y-53360809D01*
X237269836Y-53103256D01*
X237388374Y-52817079D01*
X237448804Y-52513276D01*
X237448804Y-52203520D01*
X237388374Y-51899717D01*
X237269836Y-51613540D01*
X237097745Y-51355987D01*
X236878715Y-51136957D01*
X236621162Y-50964866D01*
X236334985Y-50846328D01*
X236031182Y-50785898D01*
X235721426Y-50785898D01*
X235417623Y-50846328D01*
X235131446Y-50964866D01*
X234873893Y-51136957D01*
X234654863Y-51355987D01*
X234482772Y-51613540D01*
X234364234Y-51899717D01*
X234303804Y-52203520D01*
X228760000Y-52203520D01*
X228760000Y-48667986D01*
X230768270Y-48667986D01*
X230768270Y-48977742D01*
X230828700Y-49281545D01*
X230947238Y-49567722D01*
X231119329Y-49825275D01*
X231338359Y-50044305D01*
X231595912Y-50216396D01*
X231882089Y-50334934D01*
X232185892Y-50395364D01*
X232495648Y-50395364D01*
X232799451Y-50334934D01*
X233085628Y-50216396D01*
X233343181Y-50044305D01*
X233562211Y-49825275D01*
X233734302Y-49567722D01*
X233852840Y-49281545D01*
X233913270Y-48977742D01*
X233913270Y-48667986D01*
X233852840Y-48364183D01*
X233734302Y-48078006D01*
X233562211Y-47820453D01*
X233343181Y-47601423D01*
X233085628Y-47429332D01*
X232799451Y-47310794D01*
X232495648Y-47250364D01*
X232185892Y-47250364D01*
X231882089Y-47310794D01*
X231595912Y-47429332D01*
X231338359Y-47601423D01*
X231119329Y-47820453D01*
X230947238Y-48078006D01*
X230828700Y-48364183D01*
X230768270Y-48667986D01*
X228760000Y-48667986D01*
X228760000Y-35957333D01*
X228763677Y-35920000D01*
X228749003Y-35771014D01*
X228705546Y-35627753D01*
X228702624Y-35622285D01*
X230165000Y-35622285D01*
X230165000Y-36377715D01*
X230312377Y-37118628D01*
X230601467Y-37816554D01*
X231021161Y-38444670D01*
X231555330Y-38978839D01*
X232183446Y-39398533D01*
X232881372Y-39687623D01*
X233622285Y-39835000D01*
X234377715Y-39835000D01*
X235118628Y-39687623D01*
X235816554Y-39398533D01*
X236444670Y-38978839D01*
X236978839Y-38444670D01*
X237398533Y-37816554D01*
X237687623Y-37118628D01*
X237835000Y-36377715D01*
X237835000Y-35622285D01*
X237687623Y-34881372D01*
X237398533Y-34183446D01*
X236978839Y-33555330D01*
X236444670Y-33021161D01*
X235816554Y-32601467D01*
X235118628Y-32312377D01*
X234377715Y-32165000D01*
X233622285Y-32165000D01*
X232881372Y-32312377D01*
X232183446Y-32601467D01*
X231555330Y-33021161D01*
X231021161Y-33555330D01*
X230601467Y-34183446D01*
X230312377Y-34881372D01*
X230165000Y-35622285D01*
X228702624Y-35622285D01*
X228634974Y-35495724D01*
X228563799Y-35408997D01*
X228540001Y-35379999D01*
X228511004Y-35356202D01*
X226478688Y-33323886D01*
X226515000Y-33141335D01*
X226515000Y-32858665D01*
X226459853Y-32581426D01*
X226351680Y-32320273D01*
X226194637Y-32085241D01*
X225994759Y-31885363D01*
X225759727Y-31728320D01*
X225498574Y-31620147D01*
X225221335Y-31565000D01*
X224938665Y-31565000D01*
X224661426Y-31620147D01*
X224400273Y-31728320D01*
X224165241Y-31885363D01*
X223965363Y-32085241D01*
X223810000Y-32317759D01*
X223654637Y-32085241D01*
X223454759Y-31885363D01*
X223219727Y-31728320D01*
X222958574Y-31620147D01*
X222681335Y-31565000D01*
X222398665Y-31565000D01*
X222121426Y-31620147D01*
X221860273Y-31728320D01*
X221625241Y-31885363D01*
X221425363Y-32085241D01*
X221270000Y-32317759D01*
X221114637Y-32085241D01*
X220914759Y-31885363D01*
X220679727Y-31728320D01*
X220418574Y-31620147D01*
X220141335Y-31565000D01*
X219858665Y-31565000D01*
X219581426Y-31620147D01*
X219320273Y-31728320D01*
X219085241Y-31885363D01*
X218885363Y-32085241D01*
X218730000Y-32317759D01*
X218574637Y-32085241D01*
X218374759Y-31885363D01*
X218139727Y-31728320D01*
X217878574Y-31620147D01*
X217601335Y-31565000D01*
X217318665Y-31565000D01*
X217041426Y-31620147D01*
X216780273Y-31728320D01*
X216545241Y-31885363D01*
X216346643Y-32083961D01*
X216345812Y-32075518D01*
X216309502Y-31955820D01*
X216250537Y-31845506D01*
X216171185Y-31748815D01*
X216074494Y-31669463D01*
X215964180Y-31610498D01*
X215844482Y-31574188D01*
X215720000Y-31561928D01*
X215205750Y-31565000D01*
X215047000Y-31723750D01*
X215047000Y-32873000D01*
X215067000Y-32873000D01*
X215067000Y-33127000D01*
X215047000Y-33127000D01*
X215047000Y-34276250D01*
X215077974Y-34307224D01*
X203616207Y-45768992D01*
X203587209Y-45792790D01*
X203563411Y-45821788D01*
X203563410Y-45821789D01*
X203492235Y-45908515D01*
X203421663Y-46040545D01*
X203378207Y-46183806D01*
X203363533Y-46332791D01*
X203367210Y-46370123D01*
X203367209Y-56193503D01*
X202350199Y-57210513D01*
X202270847Y-57307204D01*
X202211882Y-57417518D01*
X202175572Y-57537216D01*
X202163312Y-57661698D01*
X200331741Y-57661698D01*
X200335217Y-57591186D01*
X200293787Y-57311568D01*
X200198603Y-57045406D01*
X200131671Y-56920184D01*
X199887702Y-56848601D01*
X199074605Y-57661698D01*
X198715395Y-57661698D01*
X197902298Y-56848601D01*
X197658329Y-56920184D01*
X197537429Y-57175694D01*
X197468700Y-57449882D01*
X197454783Y-57732210D01*
X196290000Y-57732210D01*
X196290000Y-56668996D01*
X198081903Y-56668996D01*
X198895000Y-57482093D01*
X199708097Y-56668996D01*
X199636514Y-56425027D01*
X199381004Y-56304127D01*
X199106816Y-56235398D01*
X198824488Y-56221481D01*
X198544870Y-56262911D01*
X198278708Y-56358095D01*
X198153486Y-56425027D01*
X198081903Y-56668996D01*
X196290000Y-56668996D01*
X196290000Y-52440363D01*
X197460000Y-52440363D01*
X197460000Y-52723033D01*
X197515147Y-53000272D01*
X197623320Y-53261425D01*
X197780363Y-53496457D01*
X197980241Y-53696335D01*
X198215273Y-53853378D01*
X198476426Y-53961551D01*
X198753665Y-54016698D01*
X199036335Y-54016698D01*
X199313574Y-53961551D01*
X199574727Y-53853378D01*
X199809759Y-53696335D01*
X200009637Y-53496457D01*
X200166680Y-53261425D01*
X200274853Y-53000272D01*
X200330000Y-52723033D01*
X200330000Y-52440363D01*
X200274853Y-52163124D01*
X200166680Y-51901971D01*
X200009637Y-51666939D01*
X199809759Y-51467061D01*
X199574727Y-51310018D01*
X199313574Y-51201845D01*
X199036335Y-51146698D01*
X198753665Y-51146698D01*
X198476426Y-51201845D01*
X198215273Y-51310018D01*
X197980241Y-51467061D01*
X197780363Y-51666939D01*
X197623320Y-51901971D01*
X197515147Y-52163124D01*
X197460000Y-52440363D01*
X196290000Y-52440363D01*
X196290000Y-42218043D01*
X196444759Y-42114637D01*
X196644637Y-41914759D01*
X196801680Y-41679727D01*
X196909853Y-41418574D01*
X196965000Y-41141335D01*
X196965000Y-40858665D01*
X196909853Y-40581426D01*
X196801680Y-40320273D01*
X196644637Y-40085241D01*
X196444759Y-39885363D01*
X196209727Y-39728320D01*
X195948574Y-39620147D01*
X195671335Y-39565000D01*
X195388665Y-39565000D01*
X195111426Y-39620147D01*
X194850273Y-39728320D01*
X194615241Y-39885363D01*
X194415363Y-40085241D01*
X194258320Y-40320273D01*
X194150147Y-40581426D01*
X194145000Y-40607301D01*
X194139853Y-40581426D01*
X194031680Y-40320273D01*
X193874637Y-40085241D01*
X193674759Y-39885363D01*
X193439727Y-39728320D01*
X193178574Y-39620147D01*
X192901335Y-39565000D01*
X192618665Y-39565000D01*
X192341426Y-39620147D01*
X192080273Y-39728320D01*
X191905408Y-39845161D01*
X191815001Y-39734999D01*
X191786004Y-39711202D01*
X191644340Y-39569538D01*
X191793574Y-39539853D01*
X192054727Y-39431680D01*
X192289759Y-39274637D01*
X192489637Y-39074759D01*
X192646680Y-38839727D01*
X192754853Y-38578574D01*
X192760000Y-38552699D01*
X192765147Y-38578574D01*
X192873320Y-38839727D01*
X193030363Y-39074759D01*
X193230241Y-39274637D01*
X193465273Y-39431680D01*
X193726426Y-39539853D01*
X194003665Y-39595000D01*
X194286335Y-39595000D01*
X194563574Y-39539853D01*
X194824727Y-39431680D01*
X194991157Y-39320475D01*
X199855000Y-39320475D01*
X199855000Y-39839525D01*
X199956261Y-40348601D01*
X200154893Y-40828141D01*
X200443262Y-41259715D01*
X200810285Y-41626738D01*
X201241859Y-41915107D01*
X201721399Y-42113739D01*
X202230475Y-42215000D01*
X202749525Y-42215000D01*
X203258601Y-42113739D01*
X203738141Y-41915107D01*
X204169715Y-41626738D01*
X204536738Y-41259715D01*
X204825107Y-40828141D01*
X205023739Y-40348601D01*
X205125000Y-39839525D01*
X205125000Y-39320475D01*
X205023739Y-38811399D01*
X204825107Y-38331859D01*
X204536738Y-37900285D01*
X204169715Y-37533262D01*
X203738141Y-37244893D01*
X203258601Y-37046261D01*
X202749525Y-36945000D01*
X202230475Y-36945000D01*
X201721399Y-37046261D01*
X201241859Y-37244893D01*
X200810285Y-37533262D01*
X200443262Y-37900285D01*
X200154893Y-38331859D01*
X199956261Y-38811399D01*
X199855000Y-39320475D01*
X194991157Y-39320475D01*
X195059759Y-39274637D01*
X195259637Y-39074759D01*
X195416680Y-38839727D01*
X195524853Y-38578574D01*
X195580000Y-38301335D01*
X195580000Y-38018665D01*
X195524853Y-37741426D01*
X195416680Y-37480273D01*
X195259637Y-37245241D01*
X195059759Y-37045363D01*
X194824727Y-36888320D01*
X194563574Y-36780147D01*
X194286335Y-36725000D01*
X194003665Y-36725000D01*
X193726426Y-36780147D01*
X193465273Y-36888320D01*
X193230241Y-37045363D01*
X193030363Y-37245241D01*
X192873320Y-37480273D01*
X192765147Y-37741426D01*
X192760000Y-37767301D01*
X192754853Y-37741426D01*
X192646680Y-37480273D01*
X192489637Y-37245241D01*
X192289759Y-37045363D01*
X192054727Y-36888320D01*
X191793574Y-36780147D01*
X191516335Y-36725000D01*
X191233665Y-36725000D01*
X191051114Y-36761312D01*
X190578803Y-36289002D01*
X190555001Y-36259999D01*
X190439276Y-36165026D01*
X190307247Y-36094454D01*
X190163986Y-36050997D01*
X190052333Y-36040000D01*
X190052322Y-36040000D01*
X190015000Y-36036324D01*
X189977678Y-36040000D01*
X188037323Y-36040000D01*
X188000000Y-36036324D01*
X187962677Y-36040000D01*
X187962667Y-36040000D01*
X187851014Y-36050997D01*
X187707753Y-36094454D01*
X187575724Y-36165026D01*
X187459999Y-36259999D01*
X187436201Y-36288998D01*
X186707843Y-37017356D01*
X186514727Y-36888320D01*
X186253574Y-36780147D01*
X185976335Y-36725000D01*
X185693665Y-36725000D01*
X185416426Y-36780147D01*
X185155273Y-36888320D01*
X184920241Y-37045363D01*
X184720363Y-37245241D01*
X184563320Y-37480273D01*
X184455147Y-37741426D01*
X184400000Y-38018665D01*
X184400000Y-38301335D01*
X184455147Y-38578574D01*
X184563320Y-38839727D01*
X184720363Y-39074759D01*
X184920241Y-39274637D01*
X185155273Y-39431680D01*
X185394449Y-39530750D01*
X185353115Y-39572084D01*
X185250000Y-39561928D01*
X184735750Y-39565000D01*
X184577000Y-39723750D01*
X184577000Y-40873000D01*
X184597000Y-40873000D01*
X184597000Y-41127000D01*
X184577000Y-41127000D01*
X184577000Y-42276250D01*
X184735750Y-42435000D01*
X185040001Y-42436818D01*
X185040000Y-52445287D01*
X184986775Y-52177709D01*
X184882371Y-51925655D01*
X184730799Y-51698812D01*
X184537886Y-51505899D01*
X184311043Y-51354327D01*
X184058989Y-51249923D01*
X183791411Y-51196698D01*
X183518589Y-51196698D01*
X183251011Y-51249923D01*
X182998957Y-51354327D01*
X182772114Y-51505899D01*
X182579201Y-51698812D01*
X182427629Y-51925655D01*
X182323225Y-52177709D01*
X182270000Y-52445287D01*
X182270000Y-52718109D01*
X182323225Y-52985687D01*
X182427629Y-53237741D01*
X182579201Y-53464584D01*
X182772114Y-53657497D01*
X182998957Y-53809069D01*
X183101873Y-53851698D01*
X182998957Y-53894327D01*
X182772114Y-54045899D01*
X182579201Y-54238812D01*
X182427629Y-54465655D01*
X182323225Y-54717709D01*
X182270000Y-54985287D01*
X182270000Y-55258109D01*
X182323225Y-55525687D01*
X182427629Y-55777741D01*
X182579201Y-56004584D01*
X182772114Y-56197497D01*
X182888483Y-56275253D01*
X182780518Y-56285886D01*
X182660820Y-56322196D01*
X182550506Y-56381161D01*
X182453815Y-56460513D01*
X182374463Y-56557204D01*
X182315498Y-56667518D01*
X182279188Y-56787216D01*
X182266928Y-56911698D01*
X182266928Y-57974968D01*
X178063998Y-62177899D01*
X178035000Y-62201697D01*
X178011202Y-62230695D01*
X178011201Y-62230696D01*
X177940026Y-62317422D01*
X177869454Y-62449452D01*
X177825998Y-62592713D01*
X177811324Y-62741698D01*
X177815001Y-62779030D01*
X177815001Y-63161928D01*
X177775000Y-63161928D01*
X177650518Y-63174188D01*
X177530820Y-63210498D01*
X177420506Y-63269463D01*
X177323815Y-63348815D01*
X177244463Y-63445506D01*
X177185498Y-63555820D01*
X177149188Y-63675518D01*
X177136928Y-63800000D01*
X140710000Y-63800000D01*
X140710000Y-61042354D01*
X146090243Y-61042354D01*
X146090243Y-61352110D01*
X146150673Y-61655913D01*
X146269211Y-61942090D01*
X146441302Y-62199643D01*
X146660332Y-62418673D01*
X146917885Y-62590764D01*
X147204062Y-62709302D01*
X147507865Y-62769732D01*
X147817621Y-62769732D01*
X148121424Y-62709302D01*
X148407601Y-62590764D01*
X148665154Y-62418673D01*
X148884184Y-62199643D01*
X149056275Y-61942090D01*
X149077485Y-61890883D01*
X152242073Y-61890883D01*
X152242073Y-62200639D01*
X152302503Y-62504442D01*
X152421041Y-62790619D01*
X152593132Y-63048172D01*
X152812162Y-63267202D01*
X153069715Y-63439293D01*
X153355892Y-63557831D01*
X153659695Y-63618261D01*
X153969451Y-63618261D01*
X154273254Y-63557831D01*
X154559431Y-63439293D01*
X154816984Y-63267202D01*
X155036014Y-63048172D01*
X155208105Y-62790619D01*
X155326643Y-62504442D01*
X155387073Y-62200639D01*
X155387073Y-61890883D01*
X155326643Y-61587080D01*
X155233323Y-61361783D01*
X161623738Y-61361783D01*
X161623738Y-61669077D01*
X161683688Y-61970465D01*
X161801284Y-62254367D01*
X161972007Y-62509872D01*
X162189296Y-62727161D01*
X162444801Y-62897884D01*
X162728703Y-63015480D01*
X163030091Y-63075430D01*
X163337385Y-63075430D01*
X163638773Y-63015480D01*
X163922675Y-62897884D01*
X164178180Y-62727161D01*
X164395469Y-62509872D01*
X164566192Y-62254367D01*
X164683788Y-61970465D01*
X164743738Y-61669077D01*
X164743738Y-61361783D01*
X164683788Y-61060395D01*
X164676316Y-61042354D01*
X165464970Y-61042354D01*
X165464970Y-61352110D01*
X165525400Y-61655913D01*
X165643938Y-61942090D01*
X165816029Y-62199643D01*
X166035059Y-62418673D01*
X166292612Y-62590764D01*
X166578789Y-62709302D01*
X166882592Y-62769732D01*
X167192348Y-62769732D01*
X167496151Y-62709302D01*
X167782328Y-62590764D01*
X168039881Y-62418673D01*
X168258911Y-62199643D01*
X168431002Y-61942090D01*
X168549540Y-61655913D01*
X168609970Y-61352110D01*
X168609970Y-61042354D01*
X168549540Y-60738551D01*
X168431002Y-60452374D01*
X168258911Y-60194821D01*
X168039881Y-59975791D01*
X167782328Y-59803700D01*
X167496151Y-59685162D01*
X167192348Y-59624732D01*
X166882592Y-59624732D01*
X166578789Y-59685162D01*
X166292612Y-59803700D01*
X166035059Y-59975791D01*
X165816029Y-60194821D01*
X165643938Y-60452374D01*
X165525400Y-60738551D01*
X165464970Y-61042354D01*
X164676316Y-61042354D01*
X164566192Y-60776493D01*
X164395469Y-60520988D01*
X164178180Y-60303699D01*
X163922675Y-60132976D01*
X163638773Y-60015380D01*
X163337385Y-59955430D01*
X163030091Y-59955430D01*
X162728703Y-60015380D01*
X162444801Y-60132976D01*
X162189296Y-60303699D01*
X161972007Y-60520988D01*
X161801284Y-60776493D01*
X161683688Y-61060395D01*
X161623738Y-61361783D01*
X155233323Y-61361783D01*
X155208105Y-61300903D01*
X155036014Y-61043350D01*
X154816984Y-60824320D01*
X154559431Y-60652229D01*
X154273254Y-60533691D01*
X153969451Y-60473261D01*
X153659695Y-60473261D01*
X153355892Y-60533691D01*
X153069715Y-60652229D01*
X152812162Y-60824320D01*
X152593132Y-61043350D01*
X152421041Y-61300903D01*
X152302503Y-61587080D01*
X152242073Y-61890883D01*
X149077485Y-61890883D01*
X149174813Y-61655913D01*
X149235243Y-61352110D01*
X149235243Y-61042354D01*
X149174813Y-60738551D01*
X149056275Y-60452374D01*
X148884184Y-60194821D01*
X148665154Y-59975791D01*
X148407601Y-59803700D01*
X148121424Y-59685162D01*
X147817621Y-59624732D01*
X147507865Y-59624732D01*
X147204062Y-59685162D01*
X146917885Y-59803700D01*
X146660332Y-59975791D01*
X146441302Y-60194821D01*
X146269211Y-60452374D01*
X146150673Y-60738551D01*
X146090243Y-61042354D01*
X140710000Y-61042354D01*
X140710000Y-57661698D01*
X142163312Y-57661698D01*
X142175572Y-57786180D01*
X142211882Y-57905878D01*
X142270847Y-58016192D01*
X142350199Y-58112883D01*
X143676024Y-59438708D01*
X143772715Y-59518060D01*
X143883029Y-59577025D01*
X144002727Y-59613335D01*
X144127209Y-59625595D01*
X144251691Y-59613335D01*
X144371389Y-59577025D01*
X144481703Y-59518060D01*
X144578394Y-59438708D01*
X145904219Y-58112883D01*
X145965360Y-58038382D01*
X151936374Y-58038382D01*
X151936374Y-58345676D01*
X151996324Y-58647064D01*
X152113920Y-58930966D01*
X152284643Y-59186471D01*
X152501932Y-59403760D01*
X152757437Y-59574483D01*
X153041339Y-59692079D01*
X153342727Y-59752029D01*
X153650021Y-59752029D01*
X153951409Y-59692079D01*
X154235311Y-59574483D01*
X154490816Y-59403760D01*
X154708105Y-59186471D01*
X154878828Y-58930966D01*
X154996424Y-58647064D01*
X155056374Y-58345676D01*
X155056374Y-58038382D01*
X154996424Y-57736994D01*
X154878828Y-57453092D01*
X154708105Y-57197587D01*
X154490816Y-56980298D01*
X154235311Y-56809575D01*
X153951409Y-56691979D01*
X153650021Y-56632029D01*
X153342727Y-56632029D01*
X153041339Y-56691979D01*
X152757437Y-56809575D01*
X152501932Y-56980298D01*
X152284643Y-57197587D01*
X152113920Y-57453092D01*
X151996324Y-57736994D01*
X151936374Y-58038382D01*
X145965360Y-58038382D01*
X145983571Y-58016192D01*
X146042536Y-57905878D01*
X146078846Y-57786180D01*
X146091106Y-57661698D01*
X146078846Y-57537216D01*
X146042536Y-57417518D01*
X145983571Y-57307204D01*
X145904219Y-57210513D01*
X144887209Y-56193503D01*
X144887209Y-51674420D01*
X145572412Y-51674420D01*
X145572412Y-51981714D01*
X145632362Y-52283102D01*
X145749958Y-52567004D01*
X145920681Y-52822509D01*
X146137970Y-53039798D01*
X146393475Y-53210521D01*
X146677377Y-53328117D01*
X146978765Y-53388067D01*
X147286059Y-53388067D01*
X147587447Y-53328117D01*
X147871349Y-53210521D01*
X148126854Y-53039798D01*
X148344143Y-52822509D01*
X148514866Y-52567004D01*
X148632462Y-52283102D01*
X148648291Y-52203520D01*
X154929077Y-52203520D01*
X154929077Y-52513276D01*
X154989507Y-52817079D01*
X155108045Y-53103256D01*
X155280136Y-53360809D01*
X155499166Y-53579839D01*
X155756719Y-53751930D01*
X156042896Y-53870468D01*
X156346699Y-53930898D01*
X156656455Y-53930898D01*
X156960258Y-53870468D01*
X157246435Y-53751930D01*
X157503988Y-53579839D01*
X157723018Y-53360809D01*
X157895109Y-53103256D01*
X158013647Y-52817079D01*
X158074077Y-52513276D01*
X158074077Y-52203520D01*
X158013647Y-51899717D01*
X157895109Y-51613540D01*
X157723018Y-51355987D01*
X157503988Y-51136957D01*
X157246435Y-50964866D01*
X156960258Y-50846328D01*
X156656455Y-50785898D01*
X156346699Y-50785898D01*
X156042896Y-50846328D01*
X155756719Y-50964866D01*
X155499166Y-51136957D01*
X155280136Y-51355987D01*
X155108045Y-51613540D01*
X154989507Y-51899717D01*
X154929077Y-52203520D01*
X148648291Y-52203520D01*
X148692412Y-51981714D01*
X148692412Y-51674420D01*
X148632462Y-51373032D01*
X148514866Y-51089130D01*
X148344143Y-50833625D01*
X148126854Y-50616336D01*
X147871349Y-50445613D01*
X147587447Y-50328017D01*
X147286059Y-50268067D01*
X146978765Y-50268067D01*
X146677377Y-50328017D01*
X146393475Y-50445613D01*
X146137970Y-50616336D01*
X145920681Y-50833625D01*
X145749958Y-51089130D01*
X145632362Y-51373032D01*
X145572412Y-51674420D01*
X144887209Y-51674420D01*
X144887209Y-48937592D01*
X145156815Y-48667986D01*
X151393543Y-48667986D01*
X151393543Y-48977742D01*
X151453973Y-49281545D01*
X151572511Y-49567722D01*
X151744602Y-49825275D01*
X151963632Y-50044305D01*
X152221185Y-50216396D01*
X152507362Y-50334934D01*
X152811165Y-50395364D01*
X153120921Y-50395364D01*
X153424724Y-50334934D01*
X153710901Y-50216396D01*
X153968454Y-50044305D01*
X154187484Y-49825275D01*
X154359575Y-49567722D01*
X154478113Y-49281545D01*
X154538543Y-48977742D01*
X154538543Y-48667986D01*
X154478113Y-48364183D01*
X154472661Y-48351019D01*
X155259776Y-48351019D01*
X155259776Y-48658313D01*
X155319726Y-48959701D01*
X155437322Y-49243603D01*
X155608045Y-49499108D01*
X155825334Y-49716397D01*
X156080839Y-49887120D01*
X156364741Y-50004716D01*
X156666129Y-50064666D01*
X156973423Y-50064666D01*
X157274811Y-50004716D01*
X157558713Y-49887120D01*
X157814218Y-49716397D01*
X158031507Y-49499108D01*
X158202230Y-49243603D01*
X158319826Y-48959701D01*
X158379776Y-48658313D01*
X158379776Y-48351019D01*
X158319826Y-48049631D01*
X158202230Y-47765729D01*
X158031507Y-47510224D01*
X157814218Y-47292935D01*
X157558713Y-47122212D01*
X157274811Y-47004616D01*
X156973423Y-46944666D01*
X156666129Y-46944666D01*
X156364741Y-47004616D01*
X156080839Y-47122212D01*
X155825334Y-47292935D01*
X155608045Y-47510224D01*
X155437322Y-47765729D01*
X155319726Y-48049631D01*
X155259776Y-48351019D01*
X154472661Y-48351019D01*
X154359575Y-48078006D01*
X154187484Y-47820453D01*
X153968454Y-47601423D01*
X153710901Y-47429332D01*
X153424724Y-47310794D01*
X153120921Y-47250364D01*
X152811165Y-47250364D01*
X152507362Y-47310794D01*
X152221185Y-47429332D01*
X151963632Y-47601423D01*
X151744602Y-47820453D01*
X151572511Y-48078006D01*
X151453973Y-48364183D01*
X151393543Y-48667986D01*
X145156815Y-48667986D01*
X151308645Y-42516157D01*
X152242073Y-42516157D01*
X152242073Y-42825913D01*
X152302503Y-43129716D01*
X152421041Y-43415893D01*
X152593132Y-43673446D01*
X152812162Y-43892476D01*
X153069715Y-44064567D01*
X153355892Y-44183105D01*
X153659695Y-44243535D01*
X153969451Y-44243535D01*
X154273254Y-44183105D01*
X154559431Y-44064567D01*
X154816984Y-43892476D01*
X155036014Y-43673446D01*
X155208105Y-43415893D01*
X155326643Y-43129716D01*
X155387073Y-42825913D01*
X155387073Y-42516157D01*
X155326643Y-42212354D01*
X155208105Y-41926177D01*
X155036014Y-41668624D01*
X154816984Y-41449594D01*
X154559431Y-41277503D01*
X154273254Y-41158965D01*
X153969451Y-41098535D01*
X153659695Y-41098535D01*
X153355892Y-41158965D01*
X153069715Y-41277503D01*
X152812162Y-41449594D01*
X152593132Y-41668624D01*
X152421041Y-41926177D01*
X152302503Y-42212354D01*
X152242073Y-42516157D01*
X151308645Y-42516157D01*
X155431008Y-38393795D01*
X155460001Y-38370001D01*
X155483795Y-38341008D01*
X155483799Y-38341004D01*
X155554973Y-38254277D01*
X155565291Y-38234974D01*
X155625546Y-38122247D01*
X155669003Y-37978986D01*
X155680000Y-37867333D01*
X155680000Y-37867324D01*
X155683676Y-37830001D01*
X155680000Y-37792678D01*
X155680000Y-34218043D01*
X155834759Y-34114637D01*
X156034637Y-33914759D01*
X156190000Y-33682241D01*
X156345363Y-33914759D01*
X156545241Y-34114637D01*
X156590107Y-34144616D01*
X156590108Y-37667305D01*
X155573097Y-38684316D01*
X155493745Y-38781007D01*
X155434780Y-38891321D01*
X155398470Y-39011019D01*
X155386210Y-39135501D01*
X155398470Y-39259983D01*
X155434780Y-39379681D01*
X155493745Y-39489995D01*
X155573097Y-39586686D01*
X156898922Y-40912511D01*
X156995613Y-40991863D01*
X157105927Y-41050828D01*
X157225625Y-41087138D01*
X157350107Y-41099398D01*
X157474589Y-41087138D01*
X157594287Y-41050828D01*
X157704601Y-40991863D01*
X157801292Y-40912511D01*
X159127117Y-39586686D01*
X159206469Y-39489995D01*
X159240000Y-39427263D01*
X159240001Y-55545531D01*
X157926804Y-56858729D01*
X157801292Y-56733217D01*
X157704601Y-56653865D01*
X157594287Y-56594900D01*
X157474589Y-56558590D01*
X157350107Y-56546330D01*
X157225625Y-56558590D01*
X157105927Y-56594900D01*
X156995613Y-56653865D01*
X156898922Y-56733217D01*
X155573097Y-58059042D01*
X155493745Y-58155733D01*
X155434780Y-58266047D01*
X155398470Y-58385745D01*
X155386210Y-58510227D01*
X155398470Y-58634709D01*
X155434780Y-58754407D01*
X155493745Y-58864721D01*
X155573097Y-58961412D01*
X156898922Y-60287237D01*
X156995613Y-60366589D01*
X157105927Y-60425554D01*
X157225625Y-60461864D01*
X157350107Y-60474124D01*
X157474589Y-60461864D01*
X157594287Y-60425554D01*
X157704601Y-60366589D01*
X157801292Y-60287237D01*
X159127117Y-58961412D01*
X159206469Y-58864721D01*
X159265434Y-58754407D01*
X159301744Y-58634709D01*
X159314004Y-58510227D01*
X159301744Y-58385745D01*
X159265434Y-58266047D01*
X159206469Y-58155733D01*
X159127117Y-58059042D01*
X159001605Y-57933530D01*
X160511003Y-56424133D01*
X160540001Y-56400335D01*
X160634974Y-56284610D01*
X160705546Y-56152581D01*
X160749003Y-56009320D01*
X160752940Y-55969347D01*
X160755932Y-55974944D01*
X160827107Y-56061670D01*
X160850906Y-56090669D01*
X160879904Y-56114467D01*
X161850438Y-57085001D01*
X161724926Y-57210513D01*
X161645574Y-57307204D01*
X161586609Y-57417518D01*
X161550299Y-57537216D01*
X161538039Y-57661698D01*
X161550299Y-57786180D01*
X161586609Y-57905878D01*
X161645574Y-58016192D01*
X161724926Y-58112883D01*
X163050751Y-59438708D01*
X163147442Y-59518060D01*
X163257756Y-59577025D01*
X163377454Y-59613335D01*
X163501936Y-59625595D01*
X163626418Y-59613335D01*
X163746116Y-59577025D01*
X163856430Y-59518060D01*
X163953121Y-59438708D01*
X165278946Y-58112883D01*
X165340087Y-58038382D01*
X171311101Y-58038382D01*
X171311101Y-58345676D01*
X171371051Y-58647064D01*
X171488647Y-58930966D01*
X171659370Y-59186471D01*
X171876659Y-59403760D01*
X172132164Y-59574483D01*
X172416066Y-59692079D01*
X172717454Y-59752029D01*
X173024748Y-59752029D01*
X173326136Y-59692079D01*
X173610038Y-59574483D01*
X173865543Y-59403760D01*
X174082832Y-59186471D01*
X174253555Y-58930966D01*
X174371151Y-58647064D01*
X174431101Y-58345676D01*
X174431101Y-58038382D01*
X174371151Y-57736994D01*
X174253555Y-57453092D01*
X174082832Y-57197587D01*
X173865543Y-56980298D01*
X173610038Y-56809575D01*
X173326136Y-56691979D01*
X173024748Y-56632029D01*
X172717454Y-56632029D01*
X172416066Y-56691979D01*
X172132164Y-56809575D01*
X171876659Y-56980298D01*
X171659370Y-57197587D01*
X171488647Y-57453092D01*
X171371051Y-57736994D01*
X171311101Y-58038382D01*
X165340087Y-58038382D01*
X165358298Y-58016192D01*
X165417263Y-57905878D01*
X165453573Y-57786180D01*
X165465833Y-57661698D01*
X165453573Y-57537216D01*
X165417263Y-57417518D01*
X165358298Y-57307204D01*
X165278946Y-57210513D01*
X163953121Y-55884688D01*
X163856430Y-55805336D01*
X163746116Y-55746371D01*
X163626418Y-55710061D01*
X163501936Y-55697801D01*
X163377454Y-55710061D01*
X163257756Y-55746371D01*
X163147442Y-55805336D01*
X163050751Y-55884688D01*
X162925239Y-56010200D01*
X162150906Y-55235867D01*
X162150906Y-53003788D01*
X162194726Y-53021939D01*
X162498529Y-53082369D01*
X162808285Y-53082369D01*
X163112088Y-53021939D01*
X163398265Y-52903401D01*
X163655818Y-52731310D01*
X163874848Y-52512280D01*
X164046939Y-52254727D01*
X164165477Y-51968550D01*
X164223982Y-51674420D01*
X164947139Y-51674420D01*
X164947139Y-51981714D01*
X165007089Y-52283102D01*
X165124685Y-52567004D01*
X165295408Y-52822509D01*
X165512697Y-53039798D01*
X165768202Y-53210521D01*
X166052104Y-53328117D01*
X166353492Y-53388067D01*
X166660786Y-53388067D01*
X166962174Y-53328117D01*
X167246076Y-53210521D01*
X167501581Y-53039798D01*
X167718870Y-52822509D01*
X167889593Y-52567004D01*
X168007189Y-52283102D01*
X168023018Y-52203520D01*
X174303804Y-52203520D01*
X174303804Y-52513276D01*
X174364234Y-52817079D01*
X174482772Y-53103256D01*
X174654863Y-53360809D01*
X174873893Y-53579839D01*
X175131446Y-53751930D01*
X175417623Y-53870468D01*
X175721426Y-53930898D01*
X176031182Y-53930898D01*
X176334985Y-53870468D01*
X176621162Y-53751930D01*
X176878715Y-53579839D01*
X177097745Y-53360809D01*
X177269836Y-53103256D01*
X177388374Y-52817079D01*
X177448804Y-52513276D01*
X177448804Y-52203520D01*
X177388374Y-51899717D01*
X177269836Y-51613540D01*
X177097745Y-51355987D01*
X176878715Y-51136957D01*
X176621162Y-50964866D01*
X176334985Y-50846328D01*
X176031182Y-50785898D01*
X175721426Y-50785898D01*
X175417623Y-50846328D01*
X175131446Y-50964866D01*
X174873893Y-51136957D01*
X174654863Y-51355987D01*
X174482772Y-51613540D01*
X174364234Y-51899717D01*
X174303804Y-52203520D01*
X168023018Y-52203520D01*
X168067139Y-51981714D01*
X168067139Y-51674420D01*
X168007189Y-51373032D01*
X167889593Y-51089130D01*
X167718870Y-50833625D01*
X167501581Y-50616336D01*
X167246076Y-50445613D01*
X166962174Y-50328017D01*
X166660786Y-50268067D01*
X166353492Y-50268067D01*
X166052104Y-50328017D01*
X165768202Y-50445613D01*
X165512697Y-50616336D01*
X165295408Y-50833625D01*
X165124685Y-51089130D01*
X165007089Y-51373032D01*
X164947139Y-51674420D01*
X164223982Y-51674420D01*
X164225907Y-51664747D01*
X164225907Y-51354991D01*
X164165477Y-51051188D01*
X164046939Y-50765011D01*
X163874848Y-50507458D01*
X163655818Y-50288428D01*
X163398265Y-50116337D01*
X163112088Y-49997799D01*
X162808285Y-49937369D01*
X162498529Y-49937369D01*
X162194726Y-49997799D01*
X162150906Y-50015950D01*
X162150906Y-47819457D01*
X164616441Y-47819457D01*
X164616441Y-48129213D01*
X164676871Y-48433016D01*
X164795409Y-48719193D01*
X164967500Y-48976746D01*
X165186530Y-49195776D01*
X165444083Y-49367867D01*
X165730260Y-49486405D01*
X166034063Y-49546835D01*
X166343819Y-49546835D01*
X166647622Y-49486405D01*
X166933799Y-49367867D01*
X167191352Y-49195776D01*
X167410382Y-48976746D01*
X167582473Y-48719193D01*
X167603683Y-48667986D01*
X170768270Y-48667986D01*
X170768270Y-48977742D01*
X170828700Y-49281545D01*
X170947238Y-49567722D01*
X171119329Y-49825275D01*
X171338359Y-50044305D01*
X171595912Y-50216396D01*
X171882089Y-50334934D01*
X172185892Y-50395364D01*
X172495648Y-50395364D01*
X172799451Y-50334934D01*
X173085628Y-50216396D01*
X173343181Y-50044305D01*
X173562211Y-49825275D01*
X173734302Y-49567722D01*
X173852840Y-49281545D01*
X173913270Y-48977742D01*
X173913270Y-48667986D01*
X173852840Y-48364183D01*
X173734302Y-48078006D01*
X173562211Y-47820453D01*
X173343181Y-47601423D01*
X173085628Y-47429332D01*
X172799451Y-47310794D01*
X172495648Y-47250364D01*
X172185892Y-47250364D01*
X171882089Y-47310794D01*
X171595912Y-47429332D01*
X171338359Y-47601423D01*
X171119329Y-47820453D01*
X170947238Y-48078006D01*
X170828700Y-48364183D01*
X170768270Y-48667986D01*
X167603683Y-48667986D01*
X167701011Y-48433016D01*
X167761441Y-48129213D01*
X167761441Y-47819457D01*
X167701011Y-47515654D01*
X167582473Y-47229477D01*
X167410382Y-46971924D01*
X167191352Y-46752894D01*
X166933799Y-46580803D01*
X166647622Y-46462265D01*
X166343819Y-46401835D01*
X166034063Y-46401835D01*
X165730260Y-46462265D01*
X165444083Y-46580803D01*
X165186530Y-46752894D01*
X164967500Y-46971924D01*
X164795409Y-47229477D01*
X164676871Y-47515654D01*
X164616441Y-47819457D01*
X162150906Y-47819457D01*
X162150906Y-43314045D01*
X162189296Y-43352435D01*
X162444801Y-43523158D01*
X162728703Y-43640754D01*
X163030091Y-43700704D01*
X163337385Y-43700704D01*
X163638773Y-43640754D01*
X163922675Y-43523158D01*
X164178180Y-43352435D01*
X164395469Y-43135146D01*
X164566192Y-42879641D01*
X164683788Y-42595739D01*
X164743738Y-42294351D01*
X164743738Y-41987057D01*
X164683788Y-41685669D01*
X164566192Y-41401767D01*
X164395469Y-41146262D01*
X164178180Y-40928973D01*
X163922675Y-40758250D01*
X163638773Y-40640654D01*
X163337385Y-40580704D01*
X163030091Y-40580704D01*
X162728703Y-40640654D01*
X162444801Y-40758250D01*
X162189296Y-40928973D01*
X162150906Y-40967363D01*
X162150906Y-39320475D01*
X174855000Y-39320475D01*
X174855000Y-39839525D01*
X174956261Y-40348601D01*
X175154893Y-40828141D01*
X175443262Y-41259715D01*
X175810285Y-41626738D01*
X176241859Y-41915107D01*
X176721399Y-42113739D01*
X177230475Y-42215000D01*
X177749525Y-42215000D01*
X178258601Y-42113739D01*
X178738141Y-41915107D01*
X178910410Y-41800000D01*
X183011928Y-41800000D01*
X183024188Y-41924482D01*
X183060498Y-42044180D01*
X183119463Y-42154494D01*
X183198815Y-42251185D01*
X183295506Y-42330537D01*
X183405820Y-42389502D01*
X183525518Y-42425812D01*
X183650000Y-42438072D01*
X184164250Y-42435000D01*
X184323000Y-42276250D01*
X184323000Y-41127000D01*
X183173750Y-41127000D01*
X183015000Y-41285750D01*
X183011928Y-41800000D01*
X178910410Y-41800000D01*
X179169715Y-41626738D01*
X179536738Y-41259715D01*
X179825107Y-40828141D01*
X180023739Y-40348601D01*
X180053297Y-40200000D01*
X183011928Y-40200000D01*
X183015000Y-40714250D01*
X183173750Y-40873000D01*
X184323000Y-40873000D01*
X184323000Y-39723750D01*
X184164250Y-39565000D01*
X183650000Y-39561928D01*
X183525518Y-39574188D01*
X183405820Y-39610498D01*
X183295506Y-39669463D01*
X183198815Y-39748815D01*
X183119463Y-39845506D01*
X183060498Y-39955820D01*
X183024188Y-40075518D01*
X183011928Y-40200000D01*
X180053297Y-40200000D01*
X180125000Y-39839525D01*
X180125000Y-39320475D01*
X180023739Y-38811399D01*
X179825107Y-38331859D01*
X179536738Y-37900285D01*
X179169715Y-37533262D01*
X178738141Y-37244893D01*
X178258601Y-37046261D01*
X177749525Y-36945000D01*
X177230475Y-36945000D01*
X176721399Y-37046261D01*
X176241859Y-37244893D01*
X175810285Y-37533262D01*
X175443262Y-37900285D01*
X175154893Y-38331859D01*
X174956261Y-38811399D01*
X174855000Y-39320475D01*
X162150906Y-39320475D01*
X162150906Y-34463895D01*
X162216113Y-34398688D01*
X162398665Y-34435000D01*
X162681335Y-34435000D01*
X162958574Y-34379853D01*
X163219727Y-34271680D01*
X163454759Y-34114637D01*
X163653357Y-33916039D01*
X163654188Y-33924482D01*
X163690498Y-34044180D01*
X163749463Y-34154494D01*
X163828815Y-34251185D01*
X163925506Y-34330537D01*
X164035820Y-34389502D01*
X164155518Y-34425812D01*
X164280000Y-34438072D01*
X164794250Y-34435000D01*
X164953000Y-34276250D01*
X164953000Y-33127000D01*
X165207000Y-33127000D01*
X165207000Y-34276250D01*
X165365750Y-34435000D01*
X165880000Y-34438072D01*
X166004482Y-34425812D01*
X166124180Y-34389502D01*
X166234494Y-34330537D01*
X166331185Y-34251185D01*
X166410537Y-34154494D01*
X166469502Y-34044180D01*
X166505812Y-33924482D01*
X166518072Y-33800000D01*
X213481928Y-33800000D01*
X213494188Y-33924482D01*
X213530498Y-34044180D01*
X213589463Y-34154494D01*
X213668815Y-34251185D01*
X213765506Y-34330537D01*
X213875820Y-34389502D01*
X213995518Y-34425812D01*
X214120000Y-34438072D01*
X214634250Y-34435000D01*
X214793000Y-34276250D01*
X214793000Y-33127000D01*
X213643750Y-33127000D01*
X213485000Y-33285750D01*
X213481928Y-33800000D01*
X166518072Y-33800000D01*
X166515000Y-33285750D01*
X166356250Y-33127000D01*
X165207000Y-33127000D01*
X164953000Y-33127000D01*
X164933000Y-33127000D01*
X164933000Y-32873000D01*
X164953000Y-32873000D01*
X164953000Y-31723750D01*
X165207000Y-31723750D01*
X165207000Y-32873000D01*
X166356250Y-32873000D01*
X166515000Y-32714250D01*
X166518072Y-32200000D01*
X213481928Y-32200000D01*
X213485000Y-32714250D01*
X213643750Y-32873000D01*
X214793000Y-32873000D01*
X214793000Y-31723750D01*
X214634250Y-31565000D01*
X214120000Y-31561928D01*
X213995518Y-31574188D01*
X213875820Y-31610498D01*
X213765506Y-31669463D01*
X213668815Y-31748815D01*
X213589463Y-31845506D01*
X213530498Y-31955820D01*
X213494188Y-32075518D01*
X213481928Y-32200000D01*
X166518072Y-32200000D01*
X166505812Y-32075518D01*
X166469502Y-31955820D01*
X166410537Y-31845506D01*
X166331185Y-31748815D01*
X166234494Y-31669463D01*
X166124180Y-31610498D01*
X166004482Y-31574188D01*
X165880000Y-31561928D01*
X165365750Y-31565000D01*
X165207000Y-31723750D01*
X164953000Y-31723750D01*
X164794250Y-31565000D01*
X164280000Y-31561928D01*
X164155518Y-31574188D01*
X164035820Y-31610498D01*
X163925506Y-31669463D01*
X163828815Y-31748815D01*
X163749463Y-31845506D01*
X163690498Y-31955820D01*
X163654188Y-32075518D01*
X163653357Y-32083961D01*
X163454759Y-31885363D01*
X163219727Y-31728320D01*
X162958574Y-31620147D01*
X162681335Y-31565000D01*
X162398665Y-31565000D01*
X162121426Y-31620147D01*
X161860273Y-31728320D01*
X161625241Y-31885363D01*
X161425363Y-32085241D01*
X161270000Y-32317759D01*
X161114637Y-32085241D01*
X160914759Y-31885363D01*
X160679727Y-31728320D01*
X160418574Y-31620147D01*
X160141335Y-31565000D01*
X159858665Y-31565000D01*
X159581426Y-31620147D01*
X159320273Y-31728320D01*
X159085241Y-31885363D01*
X158885363Y-32085241D01*
X158730000Y-32317759D01*
X158574637Y-32085241D01*
X158374759Y-31885363D01*
X158139727Y-31728320D01*
X157878574Y-31620147D01*
X157601335Y-31565000D01*
X157318665Y-31565000D01*
X157041426Y-31620147D01*
X156780273Y-31728320D01*
X156545241Y-31885363D01*
X156345363Y-32085241D01*
X156190000Y-32317759D01*
X156034637Y-32085241D01*
X155834759Y-31885363D01*
X155599727Y-31728320D01*
X155338574Y-31620147D01*
X155061335Y-31565000D01*
X154778665Y-31565000D01*
X154501426Y-31620147D01*
X154240273Y-31728320D01*
X154005241Y-31885363D01*
X153805363Y-32085241D01*
X153648320Y-32320273D01*
X153540147Y-32581426D01*
X153485000Y-32858665D01*
X153485000Y-33141335D01*
X153540147Y-33418574D01*
X153648320Y-33679727D01*
X153805363Y-33914759D01*
X154005241Y-34114637D01*
X154160000Y-34218044D01*
X154160001Y-37515196D01*
X143616212Y-48058987D01*
X143587208Y-48082790D01*
X143558872Y-48117318D01*
X143492235Y-48198515D01*
X143459870Y-48259065D01*
X143421663Y-48330545D01*
X143378206Y-48473806D01*
X143367209Y-48585459D01*
X143367209Y-48585469D01*
X143363533Y-48622791D01*
X143367209Y-48660113D01*
X143367210Y-56193502D01*
X142350199Y-57210513D01*
X142270847Y-57307204D01*
X142211882Y-57417518D01*
X142175572Y-57537216D01*
X142163312Y-57661698D01*
X140710000Y-57661698D01*
X140710000Y-36029142D01*
X140743449Y-35622285D01*
X142165000Y-35622285D01*
X142165000Y-36377715D01*
X142312377Y-37118628D01*
X142601467Y-37816554D01*
X143021161Y-38444670D01*
X143555330Y-38978839D01*
X144183446Y-39398533D01*
X144881372Y-39687623D01*
X145622285Y-39835000D01*
X146377715Y-39835000D01*
X147118628Y-39687623D01*
X147816554Y-39398533D01*
X148444670Y-38978839D01*
X148978839Y-38444670D01*
X149398533Y-37816554D01*
X149687623Y-37118628D01*
X149835000Y-36377715D01*
X149835000Y-35622285D01*
X149687623Y-34881372D01*
X149398533Y-34183446D01*
X148978839Y-33555330D01*
X148444670Y-33021161D01*
X147816554Y-32601467D01*
X147118628Y-32312377D01*
X146377715Y-32165000D01*
X145622285Y-32165000D01*
X144881372Y-32312377D01*
X144183446Y-32601467D01*
X143555330Y-33021161D01*
X143021161Y-33555330D01*
X142601467Y-34183446D01*
X142312377Y-34881372D01*
X142165000Y-35622285D01*
X140743449Y-35622285D01*
X140783397Y-35136392D01*
X140994491Y-34295990D01*
X141340017Y-33501336D01*
X141810685Y-32773794D01*
X142393864Y-32132890D01*
X143073881Y-31595845D01*
X143832489Y-31177070D01*
X144649306Y-30887820D01*
X145514656Y-30733677D01*
X146016736Y-30710000D01*
X233970858Y-30710000D01*
X234863608Y-30783397D01*
%TA.AperFunction,Conductor*%
D24*
G36*
X234863608Y-30783397D02*
G01*
X235704010Y-30994491D01*
X236498664Y-31340017D01*
X237226206Y-31810685D01*
X237867110Y-32393864D01*
X238404155Y-33073881D01*
X238822930Y-33832489D01*
X239112180Y-34649306D01*
X239266323Y-35514656D01*
X239290000Y-36016736D01*
X239290001Y-73970846D01*
X239216603Y-74863606D01*
X239005509Y-75704010D01*
X238659983Y-76498664D01*
X238189315Y-77226206D01*
X237606136Y-77867110D01*
X236926115Y-78404159D01*
X236167507Y-78822932D01*
X235350692Y-79112181D01*
X234485344Y-79266323D01*
X233983265Y-79290000D01*
X146029142Y-79290000D01*
X145136394Y-79216603D01*
X144295990Y-79005509D01*
X143501336Y-78659983D01*
X142773794Y-78189315D01*
X142132890Y-77606136D01*
X141595841Y-76926115D01*
X141177068Y-76167507D01*
X140887819Y-75350692D01*
X140733677Y-74485344D01*
X140710000Y-73983265D01*
X140710000Y-73622285D01*
X142165000Y-73622285D01*
X142165000Y-74377715D01*
X142312377Y-75118628D01*
X142601467Y-75816554D01*
X143021161Y-76444670D01*
X143555330Y-76978839D01*
X144183446Y-77398533D01*
X144881372Y-77687623D01*
X145622285Y-77835000D01*
X146377715Y-77835000D01*
X147118628Y-77687623D01*
X147816554Y-77398533D01*
X148444670Y-76978839D01*
X148978839Y-76444670D01*
X149398533Y-75816554D01*
X149687623Y-75118628D01*
X149835000Y-74377715D01*
X149835000Y-73622285D01*
X149687623Y-72881372D01*
X149398533Y-72183446D01*
X148978839Y-71555330D01*
X148444670Y-71021161D01*
X148008494Y-70729717D01*
X161080907Y-70729717D01*
X161080907Y-71039473D01*
X161141337Y-71343276D01*
X161259875Y-71629453D01*
X161431966Y-71887006D01*
X161650996Y-72106036D01*
X161908549Y-72278127D01*
X162194726Y-72396665D01*
X162498529Y-72457095D01*
X162808285Y-72457095D01*
X162917288Y-72435413D01*
X173544192Y-72435413D01*
X173639956Y-72699814D01*
X173929571Y-72840704D01*
X174241108Y-72922384D01*
X174562595Y-72941718D01*
X174881675Y-72897961D01*
X175186088Y-72792795D01*
X175271764Y-72747000D01*
X177140000Y-72747000D01*
X177140000Y-73147000D01*
X177192350Y-73424514D01*
X177297834Y-73686483D01*
X177452399Y-73922839D01*
X177650105Y-74124500D01*
X177883354Y-74283715D01*
X178143182Y-74394367D01*
X178225961Y-74411904D01*
X178448000Y-74289915D01*
X178448000Y-72747000D01*
X177140000Y-72747000D01*
X175271764Y-72747000D01*
X175360044Y-72699814D01*
X175455808Y-72435413D01*
X174500000Y-71479605D01*
X173544192Y-72435413D01*
X162917288Y-72435413D01*
X163112088Y-72396665D01*
X163398265Y-72278127D01*
X163655818Y-72106036D01*
X163874848Y-71887006D01*
X164046939Y-71629453D01*
X164157474Y-71362595D01*
X172858282Y-71362595D01*
X172902039Y-71681675D01*
X173007205Y-71986088D01*
X173100186Y-72160044D01*
X173364587Y-72255808D01*
X174320395Y-71300000D01*
X174679605Y-71300000D01*
X175635413Y-72255808D01*
X175899814Y-72160044D01*
X175932429Y-72093000D01*
X177140000Y-72093000D01*
X177140000Y-72493000D01*
X178448000Y-72493000D01*
X178448000Y-70950085D01*
X178225961Y-70828096D01*
X178143182Y-70845633D01*
X177883354Y-70956285D01*
X177650105Y-71115500D01*
X177452399Y-71317161D01*
X177297834Y-71553517D01*
X177192350Y-71815486D01*
X177140000Y-72093000D01*
X175932429Y-72093000D01*
X176040704Y-71870429D01*
X176122384Y-71558892D01*
X176141718Y-71237405D01*
X176097961Y-70918325D01*
X175992795Y-70613912D01*
X175899814Y-70439956D01*
X175635413Y-70344192D01*
X174679605Y-71300000D01*
X174320395Y-71300000D01*
X173364587Y-70344192D01*
X173100186Y-70439956D01*
X172959296Y-70729571D01*
X172877616Y-71041108D01*
X172858282Y-71362595D01*
X164157474Y-71362595D01*
X164165477Y-71343276D01*
X164225907Y-71039473D01*
X164225907Y-70729717D01*
X164165477Y-70425914D01*
X164057233Y-70164587D01*
X173544192Y-70164587D01*
X174500000Y-71120395D01*
X175455808Y-70164587D01*
X175360044Y-69900186D01*
X175070429Y-69759296D01*
X174758892Y-69677616D01*
X174437405Y-69658282D01*
X174118325Y-69702039D01*
X173813912Y-69807205D01*
X173639956Y-69900186D01*
X173544192Y-70164587D01*
X164057233Y-70164587D01*
X164046939Y-70139737D01*
X163874848Y-69882184D01*
X163655818Y-69663154D01*
X163398265Y-69491063D01*
X163112088Y-69372525D01*
X162808285Y-69312095D01*
X162498529Y-69312095D01*
X162194726Y-69372525D01*
X161908549Y-69491063D01*
X161650996Y-69663154D01*
X161431966Y-69882184D01*
X161259875Y-70139737D01*
X161141337Y-70425914D01*
X161080907Y-70729717D01*
X148008494Y-70729717D01*
X147816554Y-70601467D01*
X147118628Y-70312377D01*
X146377715Y-70165000D01*
X145622285Y-70165000D01*
X144881372Y-70312377D01*
X144183446Y-70601467D01*
X143555330Y-71021161D01*
X143021161Y-71555330D01*
X142601467Y-72183446D01*
X142312377Y-72881372D01*
X142165000Y-73622285D01*
X140710000Y-73622285D01*
X140710000Y-67725745D01*
X155259776Y-67725745D01*
X155259776Y-68033039D01*
X155319726Y-68334427D01*
X155437322Y-68618329D01*
X155608045Y-68873834D01*
X155825334Y-69091123D01*
X156080839Y-69261846D01*
X156364741Y-69379442D01*
X156666129Y-69439392D01*
X156973423Y-69439392D01*
X157274811Y-69379442D01*
X157558713Y-69261846D01*
X157814218Y-69091123D01*
X158031507Y-68873834D01*
X158202230Y-68618329D01*
X158319826Y-68334427D01*
X158379776Y-68033039D01*
X158379776Y-67725745D01*
X158319826Y-67424357D01*
X158224485Y-67194183D01*
X164616441Y-67194183D01*
X164616441Y-67503939D01*
X164676871Y-67807742D01*
X164795409Y-68093919D01*
X164967500Y-68351472D01*
X165186530Y-68570502D01*
X165444083Y-68742593D01*
X165730260Y-68861131D01*
X166034063Y-68921561D01*
X166343819Y-68921561D01*
X166647622Y-68861131D01*
X166933799Y-68742593D01*
X167191352Y-68570502D01*
X167410382Y-68351472D01*
X167582473Y-68093919D01*
X167701011Y-67807742D01*
X167761441Y-67503939D01*
X167761441Y-67194183D01*
X167701011Y-66890380D01*
X167582473Y-66604203D01*
X167410382Y-66346650D01*
X167202699Y-66138967D01*
X172865000Y-66138967D01*
X172865000Y-66461033D01*
X172927832Y-66776912D01*
X173051082Y-67074463D01*
X173230013Y-67342252D01*
X173457748Y-67569987D01*
X173725537Y-67748918D01*
X174023088Y-67872168D01*
X174338967Y-67935000D01*
X174661033Y-67935000D01*
X174976912Y-67872168D01*
X175274463Y-67748918D01*
X175542252Y-67569987D01*
X175769987Y-67342252D01*
X175948918Y-67074463D01*
X176072168Y-66776912D01*
X176135000Y-66461033D01*
X176135000Y-66138967D01*
X176072168Y-65823088D01*
X175948918Y-65525537D01*
X175769987Y-65257748D01*
X175542252Y-65030013D01*
X175274463Y-64851082D01*
X174976912Y-64727832D01*
X174661033Y-64665000D01*
X174338967Y-64665000D01*
X174023088Y-64727832D01*
X173725537Y-64851082D01*
X173457748Y-65030013D01*
X173230013Y-65257748D01*
X173051082Y-65525537D01*
X172927832Y-65823088D01*
X172865000Y-66138967D01*
X167202699Y-66138967D01*
X167191352Y-66127620D01*
X166933799Y-65955529D01*
X166647622Y-65836991D01*
X166343819Y-65776561D01*
X166034063Y-65776561D01*
X165730260Y-65836991D01*
X165444083Y-65955529D01*
X165186530Y-66127620D01*
X164967500Y-66346650D01*
X164795409Y-66604203D01*
X164676871Y-66890380D01*
X164616441Y-67194183D01*
X158224485Y-67194183D01*
X158202230Y-67140455D01*
X158031507Y-66884950D01*
X157814218Y-66667661D01*
X157558713Y-66496938D01*
X157274811Y-66379342D01*
X156973423Y-66319392D01*
X156666129Y-66319392D01*
X156364741Y-66379342D01*
X156080839Y-66496938D01*
X155825334Y-66667661D01*
X155608045Y-66884950D01*
X155437322Y-67140455D01*
X155319726Y-67424357D01*
X155259776Y-67725745D01*
X140710000Y-67725745D01*
X140710000Y-63800000D01*
X177136928Y-63800000D01*
X177136928Y-66200000D01*
X177149188Y-66324482D01*
X177185498Y-66444180D01*
X177244463Y-66554494D01*
X177323815Y-66651185D01*
X177420506Y-66730537D01*
X177530820Y-66789502D01*
X177650518Y-66825812D01*
X177775000Y-66838072D01*
X179375000Y-66838072D01*
X179499482Y-66825812D01*
X179619180Y-66789502D01*
X179729494Y-66730537D01*
X179826185Y-66651185D01*
X179905537Y-66554494D01*
X179964502Y-66444180D01*
X180000812Y-66324482D01*
X180002581Y-66306517D01*
X180095392Y-66419607D01*
X180313899Y-66598932D01*
X180563192Y-66732182D01*
X180833691Y-66814236D01*
X181115000Y-66841943D01*
X181396308Y-66814236D01*
X181640000Y-66740314D01*
X181640000Y-70879686D01*
X181396309Y-70805764D01*
X181115000Y-70778057D01*
X180833692Y-70805764D01*
X180563193Y-70887818D01*
X180313900Y-71021068D01*
X180095393Y-71200392D01*
X179916068Y-71418899D01*
X179847735Y-71546741D01*
X179697601Y-71317161D01*
X179499895Y-71115500D01*
X179266646Y-70956285D01*
X179006818Y-70845633D01*
X178924039Y-70828096D01*
X178702000Y-70950085D01*
X178702000Y-72493000D01*
X178722000Y-72493000D01*
X178722000Y-72747000D01*
X178702000Y-72747000D01*
X178702000Y-74289915D01*
X178924039Y-74411904D01*
X179006818Y-74394367D01*
X179266646Y-74283715D01*
X179499895Y-74124500D01*
X179697601Y-73922839D01*
X179847735Y-73693258D01*
X179916068Y-73821100D01*
X180095392Y-74039607D01*
X180313899Y-74218932D01*
X180563192Y-74352182D01*
X180833691Y-74434236D01*
X181115000Y-74461943D01*
X181396308Y-74434236D01*
X181666807Y-74352182D01*
X181916100Y-74218932D01*
X182134607Y-74039608D01*
X182313932Y-73821101D01*
X182385000Y-73688142D01*
X182456068Y-73821100D01*
X182635392Y-74039607D01*
X182853899Y-74218932D01*
X183103192Y-74352182D01*
X183373691Y-74434236D01*
X183655000Y-74461943D01*
X183936308Y-74434236D01*
X184206807Y-74352182D01*
X184456100Y-74218932D01*
X184674607Y-74039608D01*
X184853932Y-73821101D01*
X184925000Y-73688142D01*
X184996068Y-73821100D01*
X185175392Y-74039607D01*
X185393899Y-74218932D01*
X185643192Y-74352182D01*
X185913691Y-74434236D01*
X186195000Y-74461943D01*
X186476308Y-74434236D01*
X186746807Y-74352182D01*
X186815606Y-74315408D01*
X188411201Y-75911003D01*
X188434999Y-75940001D01*
X188550724Y-76034974D01*
X188682753Y-76105546D01*
X188826014Y-76149003D01*
X188937667Y-76160000D01*
X188937675Y-76160000D01*
X188975000Y-76163676D01*
X189012325Y-76160000D01*
X208562678Y-76160000D01*
X208600000Y-76163676D01*
X208637322Y-76160000D01*
X208637333Y-76160000D01*
X208748986Y-76149003D01*
X208892247Y-76105546D01*
X209024276Y-76034974D01*
X209140001Y-75940001D01*
X209163803Y-75910998D01*
X210911009Y-74163794D01*
X210940001Y-74140001D01*
X210963795Y-74111008D01*
X210963799Y-74111004D01*
X211034973Y-74024277D01*
X211034974Y-74024276D01*
X211105546Y-73892247D01*
X211149003Y-73748986D01*
X211160000Y-73637333D01*
X211160000Y-73637324D01*
X211161481Y-73622285D01*
X230165000Y-73622285D01*
X230165000Y-74377715D01*
X230312377Y-75118628D01*
X230601467Y-75816554D01*
X231021161Y-76444670D01*
X231555330Y-76978839D01*
X232183446Y-77398533D01*
X232881372Y-77687623D01*
X233622285Y-77835000D01*
X234377715Y-77835000D01*
X235118628Y-77687623D01*
X235816554Y-77398533D01*
X236444670Y-76978839D01*
X236978839Y-76444670D01*
X237398533Y-75816554D01*
X237687623Y-75118628D01*
X237835000Y-74377715D01*
X237835000Y-73622285D01*
X237687623Y-72881372D01*
X237398533Y-72183446D01*
X236978839Y-71555330D01*
X236444670Y-71021161D01*
X235816554Y-70601467D01*
X235118628Y-70312377D01*
X234377715Y-70165000D01*
X233622285Y-70165000D01*
X232881372Y-70312377D01*
X232183446Y-70601467D01*
X231555330Y-71021161D01*
X231021161Y-71555330D01*
X230601467Y-72183446D01*
X230312377Y-72881372D01*
X230165000Y-73622285D01*
X211161481Y-73622285D01*
X211163676Y-73600001D01*
X211160000Y-73562678D01*
X211160000Y-70729717D01*
X221080907Y-70729717D01*
X221080907Y-71039473D01*
X221141337Y-71343276D01*
X221259875Y-71629453D01*
X221431966Y-71887006D01*
X221650996Y-72106036D01*
X221908549Y-72278127D01*
X222194726Y-72396665D01*
X222498529Y-72457095D01*
X222808285Y-72457095D01*
X223112088Y-72396665D01*
X223398265Y-72278127D01*
X223655818Y-72106036D01*
X223874848Y-71887006D01*
X224046939Y-71629453D01*
X224165477Y-71343276D01*
X224225907Y-71039473D01*
X224225907Y-70729717D01*
X224165477Y-70425914D01*
X224046939Y-70139737D01*
X223874848Y-69882184D01*
X223655818Y-69663154D01*
X223398265Y-69491063D01*
X223112088Y-69372525D01*
X222808285Y-69312095D01*
X222498529Y-69312095D01*
X222194726Y-69372525D01*
X221908549Y-69491063D01*
X221650996Y-69663154D01*
X221431966Y-69882184D01*
X221259875Y-70139737D01*
X221141337Y-70425914D01*
X221080907Y-70729717D01*
X211160000Y-70729717D01*
X211160000Y-67725745D01*
X215259776Y-67725745D01*
X215259776Y-68033039D01*
X215319726Y-68334427D01*
X215437322Y-68618329D01*
X215608045Y-68873834D01*
X215825334Y-69091123D01*
X216080839Y-69261846D01*
X216364741Y-69379442D01*
X216666129Y-69439392D01*
X216973423Y-69439392D01*
X217274811Y-69379442D01*
X217558713Y-69261846D01*
X217814218Y-69091123D01*
X218031507Y-68873834D01*
X218202230Y-68618329D01*
X218319826Y-68334427D01*
X218379776Y-68033039D01*
X218379776Y-67725745D01*
X218319826Y-67424357D01*
X218224485Y-67194183D01*
X224616441Y-67194183D01*
X224616441Y-67503939D01*
X224676871Y-67807742D01*
X224795409Y-68093919D01*
X224967500Y-68351472D01*
X225186530Y-68570502D01*
X225444083Y-68742593D01*
X225730260Y-68861131D01*
X226034063Y-68921561D01*
X226343819Y-68921561D01*
X226647622Y-68861131D01*
X226933799Y-68742593D01*
X227191352Y-68570502D01*
X227410382Y-68351472D01*
X227582473Y-68093919D01*
X227701011Y-67807742D01*
X227761441Y-67503939D01*
X227761441Y-67194183D01*
X227701011Y-66890380D01*
X227582473Y-66604203D01*
X227410382Y-66346650D01*
X227191352Y-66127620D01*
X226933799Y-65955529D01*
X226647622Y-65836991D01*
X226343819Y-65776561D01*
X226034063Y-65776561D01*
X225730260Y-65836991D01*
X225444083Y-65955529D01*
X225186530Y-66127620D01*
X224967500Y-66346650D01*
X224795409Y-66604203D01*
X224676871Y-66890380D01*
X224616441Y-67194183D01*
X218224485Y-67194183D01*
X218202230Y-67140455D01*
X218031507Y-66884950D01*
X217814218Y-66667661D01*
X217558713Y-66496938D01*
X217274811Y-66379342D01*
X216973423Y-66319392D01*
X216666129Y-66319392D01*
X216364741Y-66379342D01*
X216080839Y-66496938D01*
X215825334Y-66667661D01*
X215608045Y-66884950D01*
X215437322Y-67140455D01*
X215319726Y-67424357D01*
X215259776Y-67725745D01*
X211160000Y-67725745D01*
X211160000Y-61890883D01*
X212242073Y-61890883D01*
X212242073Y-62200639D01*
X212302503Y-62504442D01*
X212421041Y-62790619D01*
X212593132Y-63048172D01*
X212812162Y-63267202D01*
X213069715Y-63439293D01*
X213355892Y-63557831D01*
X213659695Y-63618261D01*
X213969451Y-63618261D01*
X214273254Y-63557831D01*
X214559431Y-63439293D01*
X214816984Y-63267202D01*
X215036014Y-63048172D01*
X215208105Y-62790619D01*
X215326643Y-62504442D01*
X215387073Y-62200639D01*
X215387073Y-61890883D01*
X215326643Y-61587080D01*
X215233323Y-61361783D01*
X221623738Y-61361783D01*
X221623738Y-61669077D01*
X221683688Y-61970465D01*
X221801284Y-62254367D01*
X221972007Y-62509872D01*
X222189296Y-62727161D01*
X222444801Y-62897884D01*
X222728703Y-63015480D01*
X223030091Y-63075430D01*
X223337385Y-63075430D01*
X223638773Y-63015480D01*
X223922675Y-62897884D01*
X224178180Y-62727161D01*
X224395469Y-62509872D01*
X224566192Y-62254367D01*
X224683788Y-61970465D01*
X224743738Y-61669077D01*
X224743738Y-61361783D01*
X224683788Y-61060395D01*
X224676316Y-61042354D01*
X225464970Y-61042354D01*
X225464970Y-61352110D01*
X225525400Y-61655913D01*
X225643938Y-61942090D01*
X225816029Y-62199643D01*
X226035059Y-62418673D01*
X226292612Y-62590764D01*
X226578789Y-62709302D01*
X226882592Y-62769732D01*
X227192348Y-62769732D01*
X227496151Y-62709302D01*
X227782328Y-62590764D01*
X228039881Y-62418673D01*
X228258911Y-62199643D01*
X228431002Y-61942090D01*
X228549540Y-61655913D01*
X228609970Y-61352110D01*
X228609970Y-61042354D01*
X228549540Y-60738551D01*
X228431002Y-60452374D01*
X228258911Y-60194821D01*
X228039881Y-59975791D01*
X227782328Y-59803700D01*
X227496151Y-59685162D01*
X227192348Y-59624732D01*
X226882592Y-59624732D01*
X226578789Y-59685162D01*
X226292612Y-59803700D01*
X226035059Y-59975791D01*
X225816029Y-60194821D01*
X225643938Y-60452374D01*
X225525400Y-60738551D01*
X225464970Y-61042354D01*
X224676316Y-61042354D01*
X224566192Y-60776493D01*
X224395469Y-60520988D01*
X224178180Y-60303699D01*
X223922675Y-60132976D01*
X223638773Y-60015380D01*
X223337385Y-59955430D01*
X223030091Y-59955430D01*
X222728703Y-60015380D01*
X222444801Y-60132976D01*
X222189296Y-60303699D01*
X221972007Y-60520988D01*
X221801284Y-60776493D01*
X221683688Y-61060395D01*
X221623738Y-61361783D01*
X215233323Y-61361783D01*
X215208105Y-61300903D01*
X215036014Y-61043350D01*
X214816984Y-60824320D01*
X214559431Y-60652229D01*
X214273254Y-60533691D01*
X213969451Y-60473261D01*
X213659695Y-60473261D01*
X213355892Y-60533691D01*
X213069715Y-60652229D01*
X212812162Y-60824320D01*
X212593132Y-61043350D01*
X212421041Y-61300903D01*
X212302503Y-61587080D01*
X212242073Y-61890883D01*
X211160000Y-61890883D01*
X211160000Y-58038382D01*
X211936374Y-58038382D01*
X211936374Y-58345676D01*
X211996324Y-58647064D01*
X212113920Y-58930966D01*
X212284643Y-59186471D01*
X212501932Y-59403760D01*
X212757437Y-59574483D01*
X213041339Y-59692079D01*
X213342727Y-59752029D01*
X213650021Y-59752029D01*
X213951409Y-59692079D01*
X214235311Y-59574483D01*
X214490816Y-59403760D01*
X214708105Y-59186471D01*
X214878828Y-58930966D01*
X214996424Y-58647064D01*
X215056374Y-58345676D01*
X215056374Y-58038382D01*
X214996424Y-57736994D01*
X214878828Y-57453092D01*
X214708105Y-57197587D01*
X214490816Y-56980298D01*
X214235311Y-56809575D01*
X213951409Y-56691979D01*
X213650021Y-56632029D01*
X213342727Y-56632029D01*
X213041339Y-56691979D01*
X212757437Y-56809575D01*
X212501932Y-56980298D01*
X212284643Y-57197587D01*
X212113920Y-57453092D01*
X211996324Y-57736994D01*
X211936374Y-58038382D01*
X211160000Y-58038382D01*
X211160000Y-52203520D01*
X214929077Y-52203520D01*
X214929077Y-52513276D01*
X214989507Y-52817079D01*
X215108045Y-53103256D01*
X215280136Y-53360809D01*
X215499166Y-53579839D01*
X215756719Y-53751930D01*
X216042896Y-53870468D01*
X216346699Y-53930898D01*
X216656455Y-53930898D01*
X216960258Y-53870468D01*
X217246435Y-53751930D01*
X217503988Y-53579839D01*
X217723018Y-53360809D01*
X217895109Y-53103256D01*
X218013647Y-52817079D01*
X218074077Y-52513276D01*
X218074077Y-52203520D01*
X218013647Y-51899717D01*
X217895109Y-51613540D01*
X217723018Y-51355987D01*
X217503988Y-51136957D01*
X217246435Y-50964866D01*
X216960258Y-50846328D01*
X216656455Y-50785898D01*
X216346699Y-50785898D01*
X216042896Y-50846328D01*
X215756719Y-50964866D01*
X215499166Y-51136957D01*
X215280136Y-51355987D01*
X215108045Y-51613540D01*
X214989507Y-51899717D01*
X214929077Y-52203520D01*
X211160000Y-52203520D01*
X211160000Y-51703708D01*
X212525222Y-50338487D01*
X212811165Y-50395364D01*
X213120921Y-50395364D01*
X213424724Y-50334934D01*
X213710901Y-50216396D01*
X213968454Y-50044305D01*
X214187484Y-49825275D01*
X214359575Y-49567722D01*
X214478113Y-49281545D01*
X214538543Y-48977742D01*
X214538543Y-48667986D01*
X214478113Y-48364183D01*
X214472661Y-48351019D01*
X215259776Y-48351019D01*
X215259776Y-48658313D01*
X215319726Y-48959701D01*
X215437322Y-49243603D01*
X215608045Y-49499108D01*
X215825334Y-49716397D01*
X216080839Y-49887120D01*
X216364741Y-50004716D01*
X216666129Y-50064666D01*
X216973423Y-50064666D01*
X217274811Y-50004716D01*
X217558713Y-49887120D01*
X217814218Y-49716397D01*
X218031507Y-49499108D01*
X218202230Y-49243603D01*
X218319826Y-48959701D01*
X218379776Y-48658313D01*
X218379776Y-48351019D01*
X218319826Y-48049631D01*
X218202230Y-47765729D01*
X218031507Y-47510224D01*
X217814218Y-47292935D01*
X217558713Y-47122212D01*
X217274811Y-47004616D01*
X216973423Y-46944666D01*
X216666129Y-46944666D01*
X216364741Y-47004616D01*
X216080839Y-47122212D01*
X215825334Y-47292935D01*
X215608045Y-47510224D01*
X215437322Y-47765729D01*
X215319726Y-48049631D01*
X215259776Y-48351019D01*
X214472661Y-48351019D01*
X214359575Y-48078006D01*
X214187484Y-47820453D01*
X213968454Y-47601423D01*
X213710901Y-47429332D01*
X213424724Y-47310794D01*
X213120921Y-47250364D01*
X212811165Y-47250364D01*
X212507362Y-47310794D01*
X212221185Y-47429332D01*
X211963632Y-47601423D01*
X211744602Y-47820453D01*
X211572511Y-48078006D01*
X211453973Y-48364183D01*
X211393543Y-48667986D01*
X211393543Y-48977742D01*
X211450420Y-49263685D01*
X209888998Y-50825108D01*
X209860000Y-50848906D01*
X209836202Y-50877904D01*
X209836201Y-50877905D01*
X209765026Y-50964631D01*
X209694454Y-51096661D01*
X209650998Y-51239922D01*
X209636324Y-51388907D01*
X209640001Y-51426240D01*
X209640000Y-73285197D01*
X208285199Y-74640000D01*
X189289802Y-74640000D01*
X189068274Y-74418472D01*
X189286807Y-74352182D01*
X189536100Y-74218932D01*
X189754607Y-74039608D01*
X189933932Y-73821101D01*
X190005000Y-73688142D01*
X190076068Y-73821100D01*
X190255392Y-74039607D01*
X190473899Y-74218932D01*
X190723192Y-74352182D01*
X190993691Y-74434236D01*
X191275000Y-74461943D01*
X191556308Y-74434236D01*
X191826807Y-74352182D01*
X192076100Y-74218932D01*
X192294607Y-74039608D01*
X192473932Y-73821101D01*
X192545000Y-73688142D01*
X192616068Y-73821100D01*
X192795392Y-74039607D01*
X193013899Y-74218932D01*
X193263192Y-74352182D01*
X193533691Y-74434236D01*
X193815000Y-74461943D01*
X194096308Y-74434236D01*
X194366807Y-74352182D01*
X194616100Y-74218932D01*
X194834607Y-74039608D01*
X195013932Y-73821101D01*
X195085000Y-73688142D01*
X195156068Y-73821100D01*
X195335392Y-74039607D01*
X195553899Y-74218932D01*
X195803192Y-74352182D01*
X196073691Y-74434236D01*
X196355000Y-74461943D01*
X196636308Y-74434236D01*
X196906807Y-74352182D01*
X197156100Y-74218932D01*
X197374607Y-74039608D01*
X197553932Y-73821101D01*
X197625000Y-73688142D01*
X197696068Y-73821100D01*
X197875392Y-74039607D01*
X198093899Y-74218932D01*
X198343192Y-74352182D01*
X198613691Y-74434236D01*
X198895000Y-74461943D01*
X199176308Y-74434236D01*
X199446807Y-74352182D01*
X199696100Y-74218932D01*
X199914607Y-74039608D01*
X200093932Y-73821101D01*
X200165000Y-73688142D01*
X200236068Y-73821100D01*
X200415392Y-74039607D01*
X200633899Y-74218932D01*
X200883192Y-74352182D01*
X201153691Y-74434236D01*
X201435000Y-74461943D01*
X201716308Y-74434236D01*
X201986807Y-74352182D01*
X202236100Y-74218932D01*
X202454607Y-74039608D01*
X202633932Y-73821101D01*
X202767182Y-73571808D01*
X202849236Y-73301309D01*
X202870000Y-73090492D01*
X202870000Y-72149509D01*
X202849236Y-71938691D01*
X202767182Y-71668192D01*
X202633932Y-71418899D01*
X202454608Y-71200392D01*
X202236101Y-71021068D01*
X201986808Y-70887818D01*
X201716309Y-70805764D01*
X201435000Y-70778057D01*
X201153692Y-70805764D01*
X200883193Y-70887818D01*
X200633900Y-71021068D01*
X200415393Y-71200392D01*
X200236068Y-71418899D01*
X200165000Y-71551858D01*
X200093932Y-71418899D01*
X199914608Y-71200392D01*
X199696101Y-71021068D01*
X199655000Y-70999099D01*
X199655000Y-66620900D01*
X199696100Y-66598932D01*
X199914607Y-66419608D01*
X200093932Y-66201101D01*
X200165000Y-66068142D01*
X200236068Y-66201100D01*
X200415392Y-66419607D01*
X200633899Y-66598932D01*
X200883192Y-66732182D01*
X201153691Y-66814236D01*
X201435000Y-66841943D01*
X201716308Y-66814236D01*
X201986807Y-66732182D01*
X202236100Y-66598932D01*
X202454607Y-66419608D01*
X202633932Y-66201101D01*
X202767182Y-65951808D01*
X202849236Y-65681309D01*
X202870000Y-65470492D01*
X202870000Y-64529509D01*
X202849236Y-64318691D01*
X202767182Y-64048192D01*
X202633932Y-63798899D01*
X202454608Y-63580392D01*
X202236101Y-63401068D01*
X201986808Y-63267818D01*
X201716309Y-63185764D01*
X201435000Y-63158057D01*
X201153692Y-63185764D01*
X200883193Y-63267818D01*
X200633900Y-63401068D01*
X200415393Y-63580392D01*
X200236068Y-63798899D01*
X200165000Y-63931858D01*
X200093932Y-63798899D01*
X199914608Y-63580392D01*
X199696101Y-63401068D01*
X199446808Y-63267818D01*
X199176309Y-63185764D01*
X198895000Y-63158057D01*
X198613692Y-63185764D01*
X198343193Y-63267818D01*
X198274394Y-63304592D01*
X196290000Y-61320199D01*
X196290000Y-61042354D01*
X206090243Y-61042354D01*
X206090243Y-61352110D01*
X206150673Y-61655913D01*
X206269211Y-61942090D01*
X206441302Y-62199643D01*
X206660332Y-62418673D01*
X206917885Y-62590764D01*
X207204062Y-62709302D01*
X207507865Y-62769732D01*
X207817621Y-62769732D01*
X208121424Y-62709302D01*
X208407601Y-62590764D01*
X208665154Y-62418673D01*
X208884184Y-62199643D01*
X209056275Y-61942090D01*
X209174813Y-61655913D01*
X209235243Y-61352110D01*
X209235243Y-61042354D01*
X209174813Y-60738551D01*
X209056275Y-60452374D01*
X208884184Y-60194821D01*
X208665154Y-59975791D01*
X208407601Y-59803700D01*
X208121424Y-59685162D01*
X207817621Y-59624732D01*
X207507865Y-59624732D01*
X207204062Y-59685162D01*
X206917885Y-59803700D01*
X206660332Y-59975791D01*
X206441302Y-60194821D01*
X206269211Y-60452374D01*
X206150673Y-60738551D01*
X206090243Y-61042354D01*
X196290000Y-61042354D01*
X196290000Y-58654400D01*
X198081903Y-58654400D01*
X198153486Y-58898369D01*
X198408996Y-59019269D01*
X198683184Y-59087998D01*
X198965512Y-59101915D01*
X199245130Y-59060485D01*
X199511292Y-58965301D01*
X199636514Y-58898369D01*
X199708097Y-58654400D01*
X198895000Y-57841303D01*
X198081903Y-58654400D01*
X196290000Y-58654400D01*
X196290000Y-57732210D01*
X197454783Y-57732210D01*
X197496213Y-58011828D01*
X197591397Y-58277990D01*
X197658329Y-58403212D01*
X197902298Y-58474795D01*
X198715395Y-57661698D01*
X199074605Y-57661698D01*
X199887702Y-58474795D01*
X200131671Y-58403212D01*
X200252571Y-58147702D01*
X200321300Y-57873514D01*
X200331741Y-57661698D01*
X202163312Y-57661698D01*
X202175572Y-57786180D01*
X202211882Y-57905878D01*
X202270847Y-58016192D01*
X202350199Y-58112883D01*
X203676024Y-59438708D01*
X203772715Y-59518060D01*
X203883029Y-59577025D01*
X204002727Y-59613335D01*
X204127209Y-59625595D01*
X204251691Y-59613335D01*
X204371389Y-59577025D01*
X204481703Y-59518060D01*
X204578394Y-59438708D01*
X205904219Y-58112883D01*
X205983571Y-58016192D01*
X206042536Y-57905878D01*
X206078846Y-57786180D01*
X206091106Y-57661698D01*
X206078846Y-57537216D01*
X206042536Y-57417518D01*
X205983571Y-57307204D01*
X205904219Y-57210513D01*
X204887209Y-56193503D01*
X204887209Y-51674420D01*
X205572412Y-51674420D01*
X205572412Y-51981714D01*
X205632362Y-52283102D01*
X205749958Y-52567004D01*
X205920681Y-52822509D01*
X206137970Y-53039798D01*
X206393475Y-53210521D01*
X206677377Y-53328117D01*
X206978765Y-53388067D01*
X207286059Y-53388067D01*
X207587447Y-53328117D01*
X207871349Y-53210521D01*
X208126854Y-53039798D01*
X208344143Y-52822509D01*
X208514866Y-52567004D01*
X208632462Y-52283102D01*
X208692412Y-51981714D01*
X208692412Y-51674420D01*
X208632462Y-51373032D01*
X208514866Y-51089130D01*
X208344143Y-50833625D01*
X208126854Y-50616336D01*
X207871349Y-50445613D01*
X207587447Y-50328017D01*
X207286059Y-50268067D01*
X206978765Y-50268067D01*
X206677377Y-50328017D01*
X206393475Y-50445613D01*
X206137970Y-50616336D01*
X205920681Y-50833625D01*
X205749958Y-51089130D01*
X205632362Y-51373032D01*
X205572412Y-51674420D01*
X204887209Y-51674420D01*
X204887209Y-46647592D01*
X209018644Y-42516157D01*
X212242073Y-42516157D01*
X212242073Y-42825913D01*
X212302503Y-43129716D01*
X212421041Y-43415893D01*
X212593132Y-43673446D01*
X212812162Y-43892476D01*
X213069715Y-44064567D01*
X213355892Y-44183105D01*
X213659695Y-44243535D01*
X213969451Y-44243535D01*
X214273254Y-44183105D01*
X214559431Y-44064567D01*
X214816984Y-43892476D01*
X215036014Y-43673446D01*
X215208105Y-43415893D01*
X215326643Y-43129716D01*
X215387073Y-42825913D01*
X215387073Y-42516157D01*
X215326643Y-42212354D01*
X215208105Y-41926177D01*
X215036014Y-41668624D01*
X214816984Y-41449594D01*
X214559431Y-41277503D01*
X214273254Y-41158965D01*
X213969451Y-41098535D01*
X213659695Y-41098535D01*
X213355892Y-41158965D01*
X213069715Y-41277503D01*
X212812162Y-41449594D01*
X212593132Y-41668624D01*
X212421041Y-41926177D01*
X212302503Y-42212354D01*
X212242073Y-42516157D01*
X209018644Y-42516157D01*
X217136114Y-34398688D01*
X217318665Y-34435000D01*
X217490199Y-34435000D01*
X216839105Y-35086094D01*
X216810107Y-35109892D01*
X216786309Y-35138890D01*
X216786308Y-35138891D01*
X216715133Y-35225617D01*
X216644561Y-35357647D01*
X216622918Y-35428998D01*
X216601105Y-35500907D01*
X216593587Y-35577235D01*
X216586431Y-35649893D01*
X216590108Y-35687225D01*
X216590107Y-37667306D01*
X215573097Y-38684316D01*
X215493745Y-38781007D01*
X215434780Y-38891321D01*
X215398470Y-39011019D01*
X215386210Y-39135501D01*
X215398470Y-39259983D01*
X215434780Y-39379681D01*
X215493745Y-39489995D01*
X215573097Y-39586686D01*
X216898922Y-40912511D01*
X216995613Y-40991863D01*
X217105927Y-41050828D01*
X217225625Y-41087138D01*
X217350107Y-41099398D01*
X217474589Y-41087138D01*
X217594287Y-41050828D01*
X217704601Y-40991863D01*
X217801292Y-40912511D01*
X218840001Y-39873802D01*
X218840000Y-55945532D01*
X217926804Y-56858729D01*
X217801292Y-56733217D01*
X217704601Y-56653865D01*
X217594287Y-56594900D01*
X217474589Y-56558590D01*
X217350107Y-56546330D01*
X217225625Y-56558590D01*
X217105927Y-56594900D01*
X216995613Y-56653865D01*
X216898922Y-56733217D01*
X215573097Y-58059042D01*
X215493745Y-58155733D01*
X215434780Y-58266047D01*
X215398470Y-58385745D01*
X215386210Y-58510227D01*
X215398470Y-58634709D01*
X215434780Y-58754407D01*
X215493745Y-58864721D01*
X215573097Y-58961412D01*
X216898922Y-60287237D01*
X216995613Y-60366589D01*
X217105927Y-60425554D01*
X217225625Y-60461864D01*
X217350107Y-60474124D01*
X217474589Y-60461864D01*
X217594287Y-60425554D01*
X217704601Y-60366589D01*
X217801292Y-60287237D01*
X219127117Y-58961412D01*
X219206469Y-58864721D01*
X219265434Y-58754407D01*
X219301744Y-58634709D01*
X219314004Y-58510227D01*
X219301744Y-58385745D01*
X219265434Y-58266047D01*
X219206469Y-58155733D01*
X219127117Y-58059042D01*
X219001605Y-57933530D01*
X220111004Y-56824132D01*
X220140001Y-56800335D01*
X220234974Y-56684610D01*
X220305546Y-56552581D01*
X220349003Y-56409320D01*
X220360000Y-56297667D01*
X220360000Y-56297658D01*
X220363676Y-56260335D01*
X220360000Y-56223012D01*
X220360000Y-51354991D01*
X221080907Y-51354991D01*
X221080907Y-51664747D01*
X221141337Y-51968550D01*
X221259875Y-52254727D01*
X221431966Y-52512280D01*
X221650996Y-52731310D01*
X221908549Y-52903401D01*
X222194726Y-53021939D01*
X222498529Y-53082369D01*
X222808285Y-53082369D01*
X223112088Y-53021939D01*
X223398265Y-52903401D01*
X223655818Y-52731310D01*
X223874848Y-52512280D01*
X224046939Y-52254727D01*
X224165477Y-51968550D01*
X224225907Y-51664747D01*
X224225907Y-51354991D01*
X224165477Y-51051188D01*
X224046939Y-50765011D01*
X223874848Y-50507458D01*
X223655818Y-50288428D01*
X223398265Y-50116337D01*
X223112088Y-49997799D01*
X222808285Y-49937369D01*
X222498529Y-49937369D01*
X222194726Y-49997799D01*
X221908549Y-50116337D01*
X221650996Y-50288428D01*
X221431966Y-50507458D01*
X221259875Y-50765011D01*
X221141337Y-51051188D01*
X221080907Y-51354991D01*
X220360000Y-51354991D01*
X220360000Y-41987057D01*
X221623738Y-41987057D01*
X221623738Y-42294351D01*
X221683688Y-42595739D01*
X221801284Y-42879641D01*
X221972007Y-43135146D01*
X222189296Y-43352435D01*
X222444801Y-43523158D01*
X222728703Y-43640754D01*
X223030091Y-43700704D01*
X223337385Y-43700704D01*
X223638773Y-43640754D01*
X223922675Y-43523158D01*
X224178180Y-43352435D01*
X224395469Y-43135146D01*
X224566192Y-42879641D01*
X224683788Y-42595739D01*
X224743738Y-42294351D01*
X224743738Y-41987057D01*
X224683788Y-41685669D01*
X224566192Y-41401767D01*
X224395469Y-41146262D01*
X224178180Y-40928973D01*
X223922675Y-40758250D01*
X223638773Y-40640654D01*
X223337385Y-40580704D01*
X223030091Y-40580704D01*
X222728703Y-40640654D01*
X222444801Y-40758250D01*
X222189296Y-40928973D01*
X221972007Y-41146262D01*
X221801284Y-41401767D01*
X221683688Y-41685669D01*
X221623738Y-41987057D01*
X220360000Y-41987057D01*
X220360000Y-36254801D01*
X222216114Y-34398688D01*
X222398665Y-34435000D01*
X222681335Y-34435000D01*
X222958574Y-34379853D01*
X223219727Y-34271680D01*
X223454759Y-34114637D01*
X223654637Y-33914759D01*
X223810000Y-33682241D01*
X223965363Y-33914759D01*
X224165241Y-34114637D01*
X224400273Y-34271680D01*
X224661426Y-34379853D01*
X224938665Y-34435000D01*
X225221335Y-34435000D01*
X225403886Y-34398688D01*
X227240000Y-36234802D01*
X227240001Y-46801543D01*
X227191352Y-46752894D01*
X226933799Y-46580803D01*
X226647622Y-46462265D01*
X226343819Y-46401835D01*
X226034063Y-46401835D01*
X225730260Y-46462265D01*
X225444083Y-46580803D01*
X225186530Y-46752894D01*
X224967500Y-46971924D01*
X224795409Y-47229477D01*
X224676871Y-47515654D01*
X224616441Y-47819457D01*
X224616441Y-48129213D01*
X224676871Y-48433016D01*
X224795409Y-48719193D01*
X224967500Y-48976746D01*
X225186530Y-49195776D01*
X225444083Y-49367867D01*
X225730260Y-49486405D01*
X226034063Y-49546835D01*
X226343819Y-49546835D01*
X226647622Y-49486405D01*
X226933799Y-49367867D01*
X227191352Y-49195776D01*
X227240001Y-49147127D01*
X227240001Y-50443097D01*
X226962174Y-50328017D01*
X226660786Y-50268067D01*
X226353492Y-50268067D01*
X226052104Y-50328017D01*
X225768202Y-50445613D01*
X225512697Y-50616336D01*
X225295408Y-50833625D01*
X225124685Y-51089130D01*
X225007089Y-51373032D01*
X224947139Y-51674420D01*
X224947139Y-51981714D01*
X225007089Y-52283102D01*
X225124685Y-52567004D01*
X225295408Y-52822509D01*
X225512697Y-53039798D01*
X225768202Y-53210521D01*
X226052104Y-53328117D01*
X226353492Y-53388067D01*
X226660786Y-53388067D01*
X226710692Y-53378140D01*
X224078633Y-56010200D01*
X223953121Y-55884688D01*
X223856430Y-55805336D01*
X223746116Y-55746371D01*
X223626418Y-55710061D01*
X223501936Y-55697801D01*
X223377454Y-55710061D01*
X223257756Y-55746371D01*
X223147442Y-55805336D01*
X223050751Y-55884688D01*
X221724926Y-57210513D01*
X221645574Y-57307204D01*
X221586609Y-57417518D01*
X221550299Y-57537216D01*
X221538039Y-57661698D01*
X221550299Y-57786180D01*
X221586609Y-57905878D01*
X221645574Y-58016192D01*
X221724926Y-58112883D01*
X223050751Y-59438708D01*
X223147442Y-59518060D01*
X223257756Y-59577025D01*
X223377454Y-59613335D01*
X223501936Y-59625595D01*
X223626418Y-59613335D01*
X223746116Y-59577025D01*
X223856430Y-59518060D01*
X223953121Y-59438708D01*
X225278946Y-58112883D01*
X225340087Y-58038382D01*
X231311101Y-58038382D01*
X231311101Y-58345676D01*
X231371051Y-58647064D01*
X231488647Y-58930966D01*
X231659370Y-59186471D01*
X231876659Y-59403760D01*
X232132164Y-59574483D01*
X232416066Y-59692079D01*
X232717454Y-59752029D01*
X233024748Y-59752029D01*
X233326136Y-59692079D01*
X233610038Y-59574483D01*
X233865543Y-59403760D01*
X234082832Y-59186471D01*
X234253555Y-58930966D01*
X234371151Y-58647064D01*
X234431101Y-58345676D01*
X234431101Y-58038382D01*
X234371151Y-57736994D01*
X234253555Y-57453092D01*
X234082832Y-57197587D01*
X233865543Y-56980298D01*
X233610038Y-56809575D01*
X233326136Y-56691979D01*
X233024748Y-56632029D01*
X232717454Y-56632029D01*
X232416066Y-56691979D01*
X232132164Y-56809575D01*
X231876659Y-56980298D01*
X231659370Y-57197587D01*
X231488647Y-57453092D01*
X231371051Y-57736994D01*
X231311101Y-58038382D01*
X225340087Y-58038382D01*
X225358298Y-58016192D01*
X225417263Y-57905878D01*
X225453573Y-57786180D01*
X225465833Y-57661698D01*
X225453573Y-57537216D01*
X225417263Y-57417518D01*
X225358298Y-57307204D01*
X225278946Y-57210513D01*
X225153434Y-57085001D01*
X228511003Y-53727433D01*
X228540001Y-53703635D01*
X228566332Y-53671551D01*
X228634974Y-53587911D01*
X228705546Y-53455881D01*
X228749003Y-53312620D01*
X228760000Y-53200967D01*
X228760000Y-53200958D01*
X228763676Y-53163635D01*
X228760000Y-53126312D01*
X228760000Y-52203520D01*
X234303804Y-52203520D01*
X234303804Y-52513276D01*
X234364234Y-52817079D01*
X234482772Y-53103256D01*
X234654863Y-53360809D01*
X234873893Y-53579839D01*
X235131446Y-53751930D01*
X235417623Y-53870468D01*
X235721426Y-53930898D01*
X236031182Y-53930898D01*
X236334985Y-53870468D01*
X236621162Y-53751930D01*
X236878715Y-53579839D01*
X237097745Y-53360809D01*
X237269836Y-53103256D01*
X237388374Y-52817079D01*
X237448804Y-52513276D01*
X237448804Y-52203520D01*
X237388374Y-51899717D01*
X237269836Y-51613540D01*
X237097745Y-51355987D01*
X236878715Y-51136957D01*
X236621162Y-50964866D01*
X236334985Y-50846328D01*
X236031182Y-50785898D01*
X235721426Y-50785898D01*
X235417623Y-50846328D01*
X235131446Y-50964866D01*
X234873893Y-51136957D01*
X234654863Y-51355987D01*
X234482772Y-51613540D01*
X234364234Y-51899717D01*
X234303804Y-52203520D01*
X228760000Y-52203520D01*
X228760000Y-48667986D01*
X230768270Y-48667986D01*
X230768270Y-48977742D01*
X230828700Y-49281545D01*
X230947238Y-49567722D01*
X231119329Y-49825275D01*
X231338359Y-50044305D01*
X231595912Y-50216396D01*
X231882089Y-50334934D01*
X232185892Y-50395364D01*
X232495648Y-50395364D01*
X232799451Y-50334934D01*
X233085628Y-50216396D01*
X233343181Y-50044305D01*
X233562211Y-49825275D01*
X233734302Y-49567722D01*
X233852840Y-49281545D01*
X233913270Y-48977742D01*
X233913270Y-48667986D01*
X233852840Y-48364183D01*
X233734302Y-48078006D01*
X233562211Y-47820453D01*
X233343181Y-47601423D01*
X233085628Y-47429332D01*
X232799451Y-47310794D01*
X232495648Y-47250364D01*
X232185892Y-47250364D01*
X231882089Y-47310794D01*
X231595912Y-47429332D01*
X231338359Y-47601423D01*
X231119329Y-47820453D01*
X230947238Y-48078006D01*
X230828700Y-48364183D01*
X230768270Y-48667986D01*
X228760000Y-48667986D01*
X228760000Y-35957333D01*
X228763677Y-35920000D01*
X228749003Y-35771014D01*
X228705546Y-35627753D01*
X228702624Y-35622285D01*
X230165000Y-35622285D01*
X230165000Y-36377715D01*
X230312377Y-37118628D01*
X230601467Y-37816554D01*
X231021161Y-38444670D01*
X231555330Y-38978839D01*
X232183446Y-39398533D01*
X232881372Y-39687623D01*
X233622285Y-39835000D01*
X234377715Y-39835000D01*
X235118628Y-39687623D01*
X235816554Y-39398533D01*
X236444670Y-38978839D01*
X236978839Y-38444670D01*
X237398533Y-37816554D01*
X237687623Y-37118628D01*
X237835000Y-36377715D01*
X237835000Y-35622285D01*
X237687623Y-34881372D01*
X237398533Y-34183446D01*
X236978839Y-33555330D01*
X236444670Y-33021161D01*
X235816554Y-32601467D01*
X235118628Y-32312377D01*
X234377715Y-32165000D01*
X233622285Y-32165000D01*
X232881372Y-32312377D01*
X232183446Y-32601467D01*
X231555330Y-33021161D01*
X231021161Y-33555330D01*
X230601467Y-34183446D01*
X230312377Y-34881372D01*
X230165000Y-35622285D01*
X228702624Y-35622285D01*
X228634974Y-35495724D01*
X228563799Y-35408997D01*
X228540001Y-35379999D01*
X228511004Y-35356202D01*
X226478688Y-33323886D01*
X226515000Y-33141335D01*
X226515000Y-32858665D01*
X226459853Y-32581426D01*
X226351680Y-32320273D01*
X226194637Y-32085241D01*
X225994759Y-31885363D01*
X225759727Y-31728320D01*
X225498574Y-31620147D01*
X225221335Y-31565000D01*
X224938665Y-31565000D01*
X224661426Y-31620147D01*
X224400273Y-31728320D01*
X224165241Y-31885363D01*
X223965363Y-32085241D01*
X223810000Y-32317759D01*
X223654637Y-32085241D01*
X223454759Y-31885363D01*
X223219727Y-31728320D01*
X222958574Y-31620147D01*
X222681335Y-31565000D01*
X222398665Y-31565000D01*
X222121426Y-31620147D01*
X221860273Y-31728320D01*
X221625241Y-31885363D01*
X221425363Y-32085241D01*
X221270000Y-32317759D01*
X221114637Y-32085241D01*
X220914759Y-31885363D01*
X220679727Y-31728320D01*
X220418574Y-31620147D01*
X220141335Y-31565000D01*
X219858665Y-31565000D01*
X219581426Y-31620147D01*
X219320273Y-31728320D01*
X219085241Y-31885363D01*
X218885363Y-32085241D01*
X218730000Y-32317759D01*
X218574637Y-32085241D01*
X218374759Y-31885363D01*
X218139727Y-31728320D01*
X217878574Y-31620147D01*
X217601335Y-31565000D01*
X217318665Y-31565000D01*
X217041426Y-31620147D01*
X216780273Y-31728320D01*
X216545241Y-31885363D01*
X216346643Y-32083961D01*
X216345812Y-32075518D01*
X216309502Y-31955820D01*
X216250537Y-31845506D01*
X216171185Y-31748815D01*
X216074494Y-31669463D01*
X215964180Y-31610498D01*
X215844482Y-31574188D01*
X215720000Y-31561928D01*
X215205750Y-31565000D01*
X215047000Y-31723750D01*
X215047000Y-32873000D01*
X215067000Y-32873000D01*
X215067000Y-33127000D01*
X215047000Y-33127000D01*
X215047000Y-34276250D01*
X215077974Y-34307224D01*
X203616207Y-45768992D01*
X203587209Y-45792790D01*
X203563411Y-45821788D01*
X203563410Y-45821789D01*
X203492235Y-45908515D01*
X203421663Y-46040545D01*
X203378207Y-46183806D01*
X203363533Y-46332791D01*
X203367210Y-46370123D01*
X203367209Y-56193503D01*
X202350199Y-57210513D01*
X202270847Y-57307204D01*
X202211882Y-57417518D01*
X202175572Y-57537216D01*
X202163312Y-57661698D01*
X200331741Y-57661698D01*
X200335217Y-57591186D01*
X200293787Y-57311568D01*
X200198603Y-57045406D01*
X200131671Y-56920184D01*
X199887702Y-56848601D01*
X199074605Y-57661698D01*
X198715395Y-57661698D01*
X197902298Y-56848601D01*
X197658329Y-56920184D01*
X197537429Y-57175694D01*
X197468700Y-57449882D01*
X197454783Y-57732210D01*
X196290000Y-57732210D01*
X196290000Y-56668996D01*
X198081903Y-56668996D01*
X198895000Y-57482093D01*
X199708097Y-56668996D01*
X199636514Y-56425027D01*
X199381004Y-56304127D01*
X199106816Y-56235398D01*
X198824488Y-56221481D01*
X198544870Y-56262911D01*
X198278708Y-56358095D01*
X198153486Y-56425027D01*
X198081903Y-56668996D01*
X196290000Y-56668996D01*
X196290000Y-52440363D01*
X197460000Y-52440363D01*
X197460000Y-52723033D01*
X197515147Y-53000272D01*
X197623320Y-53261425D01*
X197780363Y-53496457D01*
X197980241Y-53696335D01*
X198215273Y-53853378D01*
X198476426Y-53961551D01*
X198753665Y-54016698D01*
X199036335Y-54016698D01*
X199313574Y-53961551D01*
X199574727Y-53853378D01*
X199809759Y-53696335D01*
X200009637Y-53496457D01*
X200166680Y-53261425D01*
X200274853Y-53000272D01*
X200330000Y-52723033D01*
X200330000Y-52440363D01*
X200274853Y-52163124D01*
X200166680Y-51901971D01*
X200009637Y-51666939D01*
X199809759Y-51467061D01*
X199574727Y-51310018D01*
X199313574Y-51201845D01*
X199036335Y-51146698D01*
X198753665Y-51146698D01*
X198476426Y-51201845D01*
X198215273Y-51310018D01*
X197980241Y-51467061D01*
X197780363Y-51666939D01*
X197623320Y-51901971D01*
X197515147Y-52163124D01*
X197460000Y-52440363D01*
X196290000Y-52440363D01*
X196290000Y-42218043D01*
X196444759Y-42114637D01*
X196644637Y-41914759D01*
X196801680Y-41679727D01*
X196909853Y-41418574D01*
X196965000Y-41141335D01*
X196965000Y-40858665D01*
X196909853Y-40581426D01*
X196801680Y-40320273D01*
X196644637Y-40085241D01*
X196444759Y-39885363D01*
X196209727Y-39728320D01*
X195948574Y-39620147D01*
X195671335Y-39565000D01*
X195388665Y-39565000D01*
X195111426Y-39620147D01*
X194850273Y-39728320D01*
X194615241Y-39885363D01*
X194415363Y-40085241D01*
X194258320Y-40320273D01*
X194150147Y-40581426D01*
X194145000Y-40607301D01*
X194139853Y-40581426D01*
X194031680Y-40320273D01*
X193874637Y-40085241D01*
X193674759Y-39885363D01*
X193439727Y-39728320D01*
X193178574Y-39620147D01*
X192901335Y-39565000D01*
X192618665Y-39565000D01*
X192341426Y-39620147D01*
X192080273Y-39728320D01*
X191905408Y-39845161D01*
X191815001Y-39734999D01*
X191786004Y-39711202D01*
X191644340Y-39569538D01*
X191793574Y-39539853D01*
X192054727Y-39431680D01*
X192289759Y-39274637D01*
X192489637Y-39074759D01*
X192646680Y-38839727D01*
X192754853Y-38578574D01*
X192760000Y-38552699D01*
X192765147Y-38578574D01*
X192873320Y-38839727D01*
X193030363Y-39074759D01*
X193230241Y-39274637D01*
X193465273Y-39431680D01*
X193726426Y-39539853D01*
X194003665Y-39595000D01*
X194286335Y-39595000D01*
X194563574Y-39539853D01*
X194824727Y-39431680D01*
X194991157Y-39320475D01*
X199855000Y-39320475D01*
X199855000Y-39839525D01*
X199956261Y-40348601D01*
X200154893Y-40828141D01*
X200443262Y-41259715D01*
X200810285Y-41626738D01*
X201241859Y-41915107D01*
X201721399Y-42113739D01*
X202230475Y-42215000D01*
X202749525Y-42215000D01*
X203258601Y-42113739D01*
X203738141Y-41915107D01*
X204169715Y-41626738D01*
X204536738Y-41259715D01*
X204825107Y-40828141D01*
X205023739Y-40348601D01*
X205125000Y-39839525D01*
X205125000Y-39320475D01*
X205023739Y-38811399D01*
X204825107Y-38331859D01*
X204536738Y-37900285D01*
X204169715Y-37533262D01*
X203738141Y-37244893D01*
X203258601Y-37046261D01*
X202749525Y-36945000D01*
X202230475Y-36945000D01*
X201721399Y-37046261D01*
X201241859Y-37244893D01*
X200810285Y-37533262D01*
X200443262Y-37900285D01*
X200154893Y-38331859D01*
X199956261Y-38811399D01*
X199855000Y-39320475D01*
X194991157Y-39320475D01*
X195059759Y-39274637D01*
X195259637Y-39074759D01*
X195416680Y-38839727D01*
X195524853Y-38578574D01*
X195580000Y-38301335D01*
X195580000Y-38018665D01*
X195524853Y-37741426D01*
X195416680Y-37480273D01*
X195259637Y-37245241D01*
X195059759Y-37045363D01*
X194824727Y-36888320D01*
X194563574Y-36780147D01*
X194286335Y-36725000D01*
X194003665Y-36725000D01*
X193726426Y-36780147D01*
X193465273Y-36888320D01*
X193230241Y-37045363D01*
X193030363Y-37245241D01*
X192873320Y-37480273D01*
X192765147Y-37741426D01*
X192760000Y-37767301D01*
X192754853Y-37741426D01*
X192646680Y-37480273D01*
X192489637Y-37245241D01*
X192289759Y-37045363D01*
X192054727Y-36888320D01*
X191793574Y-36780147D01*
X191516335Y-36725000D01*
X191233665Y-36725000D01*
X191051114Y-36761312D01*
X190578803Y-36289002D01*
X190555001Y-36259999D01*
X190439276Y-36165026D01*
X190307247Y-36094454D01*
X190163986Y-36050997D01*
X190052333Y-36040000D01*
X190052322Y-36040000D01*
X190015000Y-36036324D01*
X189977678Y-36040000D01*
X188037323Y-36040000D01*
X188000000Y-36036324D01*
X187962677Y-36040000D01*
X187962667Y-36040000D01*
X187851014Y-36050997D01*
X187707753Y-36094454D01*
X187575724Y-36165026D01*
X187459999Y-36259999D01*
X187436201Y-36288998D01*
X186707843Y-37017356D01*
X186514727Y-36888320D01*
X186253574Y-36780147D01*
X185976335Y-36725000D01*
X185693665Y-36725000D01*
X185416426Y-36780147D01*
X185155273Y-36888320D01*
X184920241Y-37045363D01*
X184720363Y-37245241D01*
X184563320Y-37480273D01*
X184455147Y-37741426D01*
X184400000Y-38018665D01*
X184400000Y-38301335D01*
X184455147Y-38578574D01*
X184563320Y-38839727D01*
X184720363Y-39074759D01*
X184920241Y-39274637D01*
X185155273Y-39431680D01*
X185394449Y-39530750D01*
X185353115Y-39572084D01*
X185250000Y-39561928D01*
X184735750Y-39565000D01*
X184577000Y-39723750D01*
X184577000Y-40873000D01*
X184597000Y-40873000D01*
X184597000Y-41127000D01*
X184577000Y-41127000D01*
X184577000Y-42276250D01*
X184735750Y-42435000D01*
X185040001Y-42436818D01*
X185040000Y-52445287D01*
X184986775Y-52177709D01*
X184882371Y-51925655D01*
X184730799Y-51698812D01*
X184537886Y-51505899D01*
X184311043Y-51354327D01*
X184058989Y-51249923D01*
X183791411Y-51196698D01*
X183518589Y-51196698D01*
X183251011Y-51249923D01*
X182998957Y-51354327D01*
X182772114Y-51505899D01*
X182579201Y-51698812D01*
X182427629Y-51925655D01*
X182323225Y-52177709D01*
X182270000Y-52445287D01*
X182270000Y-52718109D01*
X182323225Y-52985687D01*
X182427629Y-53237741D01*
X182579201Y-53464584D01*
X182772114Y-53657497D01*
X182998957Y-53809069D01*
X183101873Y-53851698D01*
X182998957Y-53894327D01*
X182772114Y-54045899D01*
X182579201Y-54238812D01*
X182427629Y-54465655D01*
X182323225Y-54717709D01*
X182270000Y-54985287D01*
X182270000Y-55258109D01*
X182323225Y-55525687D01*
X182427629Y-55777741D01*
X182579201Y-56004584D01*
X182772114Y-56197497D01*
X182888483Y-56275253D01*
X182780518Y-56285886D01*
X182660820Y-56322196D01*
X182550506Y-56381161D01*
X182453815Y-56460513D01*
X182374463Y-56557204D01*
X182315498Y-56667518D01*
X182279188Y-56787216D01*
X182266928Y-56911698D01*
X182266928Y-57974968D01*
X178063998Y-62177899D01*
X178035000Y-62201697D01*
X178011202Y-62230695D01*
X178011201Y-62230696D01*
X177940026Y-62317422D01*
X177869454Y-62449452D01*
X177825998Y-62592713D01*
X177811324Y-62741698D01*
X177815001Y-62779030D01*
X177815001Y-63161928D01*
X177775000Y-63161928D01*
X177650518Y-63174188D01*
X177530820Y-63210498D01*
X177420506Y-63269463D01*
X177323815Y-63348815D01*
X177244463Y-63445506D01*
X177185498Y-63555820D01*
X177149188Y-63675518D01*
X177136928Y-63800000D01*
X140710000Y-63800000D01*
X140710000Y-61042354D01*
X146090243Y-61042354D01*
X146090243Y-61352110D01*
X146150673Y-61655913D01*
X146269211Y-61942090D01*
X146441302Y-62199643D01*
X146660332Y-62418673D01*
X146917885Y-62590764D01*
X147204062Y-62709302D01*
X147507865Y-62769732D01*
X147817621Y-62769732D01*
X148121424Y-62709302D01*
X148407601Y-62590764D01*
X148665154Y-62418673D01*
X148884184Y-62199643D01*
X149056275Y-61942090D01*
X149077485Y-61890883D01*
X152242073Y-61890883D01*
X152242073Y-62200639D01*
X152302503Y-62504442D01*
X152421041Y-62790619D01*
X152593132Y-63048172D01*
X152812162Y-63267202D01*
X153069715Y-63439293D01*
X153355892Y-63557831D01*
X153659695Y-63618261D01*
X153969451Y-63618261D01*
X154273254Y-63557831D01*
X154559431Y-63439293D01*
X154816984Y-63267202D01*
X155036014Y-63048172D01*
X155208105Y-62790619D01*
X155326643Y-62504442D01*
X155387073Y-62200639D01*
X155387073Y-61890883D01*
X155326643Y-61587080D01*
X155233323Y-61361783D01*
X161623738Y-61361783D01*
X161623738Y-61669077D01*
X161683688Y-61970465D01*
X161801284Y-62254367D01*
X161972007Y-62509872D01*
X162189296Y-62727161D01*
X162444801Y-62897884D01*
X162728703Y-63015480D01*
X163030091Y-63075430D01*
X163337385Y-63075430D01*
X163638773Y-63015480D01*
X163922675Y-62897884D01*
X164178180Y-62727161D01*
X164395469Y-62509872D01*
X164566192Y-62254367D01*
X164683788Y-61970465D01*
X164743738Y-61669077D01*
X164743738Y-61361783D01*
X164683788Y-61060395D01*
X164676316Y-61042354D01*
X165464970Y-61042354D01*
X165464970Y-61352110D01*
X165525400Y-61655913D01*
X165643938Y-61942090D01*
X165816029Y-62199643D01*
X166035059Y-62418673D01*
X166292612Y-62590764D01*
X166578789Y-62709302D01*
X166882592Y-62769732D01*
X167192348Y-62769732D01*
X167496151Y-62709302D01*
X167782328Y-62590764D01*
X168039881Y-62418673D01*
X168258911Y-62199643D01*
X168431002Y-61942090D01*
X168549540Y-61655913D01*
X168609970Y-61352110D01*
X168609970Y-61042354D01*
X168549540Y-60738551D01*
X168431002Y-60452374D01*
X168258911Y-60194821D01*
X168039881Y-59975791D01*
X167782328Y-59803700D01*
X167496151Y-59685162D01*
X167192348Y-59624732D01*
X166882592Y-59624732D01*
X166578789Y-59685162D01*
X166292612Y-59803700D01*
X166035059Y-59975791D01*
X165816029Y-60194821D01*
X165643938Y-60452374D01*
X165525400Y-60738551D01*
X165464970Y-61042354D01*
X164676316Y-61042354D01*
X164566192Y-60776493D01*
X164395469Y-60520988D01*
X164178180Y-60303699D01*
X163922675Y-60132976D01*
X163638773Y-60015380D01*
X163337385Y-59955430D01*
X163030091Y-59955430D01*
X162728703Y-60015380D01*
X162444801Y-60132976D01*
X162189296Y-60303699D01*
X161972007Y-60520988D01*
X161801284Y-60776493D01*
X161683688Y-61060395D01*
X161623738Y-61361783D01*
X155233323Y-61361783D01*
X155208105Y-61300903D01*
X155036014Y-61043350D01*
X154816984Y-60824320D01*
X154559431Y-60652229D01*
X154273254Y-60533691D01*
X153969451Y-60473261D01*
X153659695Y-60473261D01*
X153355892Y-60533691D01*
X153069715Y-60652229D01*
X152812162Y-60824320D01*
X152593132Y-61043350D01*
X152421041Y-61300903D01*
X152302503Y-61587080D01*
X152242073Y-61890883D01*
X149077485Y-61890883D01*
X149174813Y-61655913D01*
X149235243Y-61352110D01*
X149235243Y-61042354D01*
X149174813Y-60738551D01*
X149056275Y-60452374D01*
X148884184Y-60194821D01*
X148665154Y-59975791D01*
X148407601Y-59803700D01*
X148121424Y-59685162D01*
X147817621Y-59624732D01*
X147507865Y-59624732D01*
X147204062Y-59685162D01*
X146917885Y-59803700D01*
X146660332Y-59975791D01*
X146441302Y-60194821D01*
X146269211Y-60452374D01*
X146150673Y-60738551D01*
X146090243Y-61042354D01*
X140710000Y-61042354D01*
X140710000Y-57661698D01*
X142163312Y-57661698D01*
X142175572Y-57786180D01*
X142211882Y-57905878D01*
X142270847Y-58016192D01*
X142350199Y-58112883D01*
X143676024Y-59438708D01*
X143772715Y-59518060D01*
X143883029Y-59577025D01*
X144002727Y-59613335D01*
X144127209Y-59625595D01*
X144251691Y-59613335D01*
X144371389Y-59577025D01*
X144481703Y-59518060D01*
X144578394Y-59438708D01*
X145904219Y-58112883D01*
X145965360Y-58038382D01*
X151936374Y-58038382D01*
X151936374Y-58345676D01*
X151996324Y-58647064D01*
X152113920Y-58930966D01*
X152284643Y-59186471D01*
X152501932Y-59403760D01*
X152757437Y-59574483D01*
X153041339Y-59692079D01*
X153342727Y-59752029D01*
X153650021Y-59752029D01*
X153951409Y-59692079D01*
X154235311Y-59574483D01*
X154490816Y-59403760D01*
X154708105Y-59186471D01*
X154878828Y-58930966D01*
X154996424Y-58647064D01*
X155056374Y-58345676D01*
X155056374Y-58038382D01*
X154996424Y-57736994D01*
X154878828Y-57453092D01*
X154708105Y-57197587D01*
X154490816Y-56980298D01*
X154235311Y-56809575D01*
X153951409Y-56691979D01*
X153650021Y-56632029D01*
X153342727Y-56632029D01*
X153041339Y-56691979D01*
X152757437Y-56809575D01*
X152501932Y-56980298D01*
X152284643Y-57197587D01*
X152113920Y-57453092D01*
X151996324Y-57736994D01*
X151936374Y-58038382D01*
X145965360Y-58038382D01*
X145983571Y-58016192D01*
X146042536Y-57905878D01*
X146078846Y-57786180D01*
X146091106Y-57661698D01*
X146078846Y-57537216D01*
X146042536Y-57417518D01*
X145983571Y-57307204D01*
X145904219Y-57210513D01*
X144887209Y-56193503D01*
X144887209Y-51674420D01*
X145572412Y-51674420D01*
X145572412Y-51981714D01*
X145632362Y-52283102D01*
X145749958Y-52567004D01*
X145920681Y-52822509D01*
X146137970Y-53039798D01*
X146393475Y-53210521D01*
X146677377Y-53328117D01*
X146978765Y-53388067D01*
X147286059Y-53388067D01*
X147587447Y-53328117D01*
X147871349Y-53210521D01*
X148126854Y-53039798D01*
X148344143Y-52822509D01*
X148514866Y-52567004D01*
X148632462Y-52283102D01*
X148648291Y-52203520D01*
X154929077Y-52203520D01*
X154929077Y-52513276D01*
X154989507Y-52817079D01*
X155108045Y-53103256D01*
X155280136Y-53360809D01*
X155499166Y-53579839D01*
X155756719Y-53751930D01*
X156042896Y-53870468D01*
X156346699Y-53930898D01*
X156656455Y-53930898D01*
X156960258Y-53870468D01*
X157246435Y-53751930D01*
X157503988Y-53579839D01*
X157723018Y-53360809D01*
X157895109Y-53103256D01*
X158013647Y-52817079D01*
X158074077Y-52513276D01*
X158074077Y-52203520D01*
X158013647Y-51899717D01*
X157895109Y-51613540D01*
X157723018Y-51355987D01*
X157503988Y-51136957D01*
X157246435Y-50964866D01*
X156960258Y-50846328D01*
X156656455Y-50785898D01*
X156346699Y-50785898D01*
X156042896Y-50846328D01*
X155756719Y-50964866D01*
X155499166Y-51136957D01*
X155280136Y-51355987D01*
X155108045Y-51613540D01*
X154989507Y-51899717D01*
X154929077Y-52203520D01*
X148648291Y-52203520D01*
X148692412Y-51981714D01*
X148692412Y-51674420D01*
X148632462Y-51373032D01*
X148514866Y-51089130D01*
X148344143Y-50833625D01*
X148126854Y-50616336D01*
X147871349Y-50445613D01*
X147587447Y-50328017D01*
X147286059Y-50268067D01*
X146978765Y-50268067D01*
X146677377Y-50328017D01*
X146393475Y-50445613D01*
X146137970Y-50616336D01*
X145920681Y-50833625D01*
X145749958Y-51089130D01*
X145632362Y-51373032D01*
X145572412Y-51674420D01*
X144887209Y-51674420D01*
X144887209Y-48937592D01*
X145156815Y-48667986D01*
X151393543Y-48667986D01*
X151393543Y-48977742D01*
X151453973Y-49281545D01*
X151572511Y-49567722D01*
X151744602Y-49825275D01*
X151963632Y-50044305D01*
X152221185Y-50216396D01*
X152507362Y-50334934D01*
X152811165Y-50395364D01*
X153120921Y-50395364D01*
X153424724Y-50334934D01*
X153710901Y-50216396D01*
X153968454Y-50044305D01*
X154187484Y-49825275D01*
X154359575Y-49567722D01*
X154478113Y-49281545D01*
X154538543Y-48977742D01*
X154538543Y-48667986D01*
X154478113Y-48364183D01*
X154472661Y-48351019D01*
X155259776Y-48351019D01*
X155259776Y-48658313D01*
X155319726Y-48959701D01*
X155437322Y-49243603D01*
X155608045Y-49499108D01*
X155825334Y-49716397D01*
X156080839Y-49887120D01*
X156364741Y-50004716D01*
X156666129Y-50064666D01*
X156973423Y-50064666D01*
X157274811Y-50004716D01*
X157558713Y-49887120D01*
X157814218Y-49716397D01*
X158031507Y-49499108D01*
X158202230Y-49243603D01*
X158319826Y-48959701D01*
X158379776Y-48658313D01*
X158379776Y-48351019D01*
X158319826Y-48049631D01*
X158202230Y-47765729D01*
X158031507Y-47510224D01*
X157814218Y-47292935D01*
X157558713Y-47122212D01*
X157274811Y-47004616D01*
X156973423Y-46944666D01*
X156666129Y-46944666D01*
X156364741Y-47004616D01*
X156080839Y-47122212D01*
X155825334Y-47292935D01*
X155608045Y-47510224D01*
X155437322Y-47765729D01*
X155319726Y-48049631D01*
X155259776Y-48351019D01*
X154472661Y-48351019D01*
X154359575Y-48078006D01*
X154187484Y-47820453D01*
X153968454Y-47601423D01*
X153710901Y-47429332D01*
X153424724Y-47310794D01*
X153120921Y-47250364D01*
X152811165Y-47250364D01*
X152507362Y-47310794D01*
X152221185Y-47429332D01*
X151963632Y-47601423D01*
X151744602Y-47820453D01*
X151572511Y-48078006D01*
X151453973Y-48364183D01*
X151393543Y-48667986D01*
X145156815Y-48667986D01*
X151308645Y-42516157D01*
X152242073Y-42516157D01*
X152242073Y-42825913D01*
X152302503Y-43129716D01*
X152421041Y-43415893D01*
X152593132Y-43673446D01*
X152812162Y-43892476D01*
X153069715Y-44064567D01*
X153355892Y-44183105D01*
X153659695Y-44243535D01*
X153969451Y-44243535D01*
X154273254Y-44183105D01*
X154559431Y-44064567D01*
X154816984Y-43892476D01*
X155036014Y-43673446D01*
X155208105Y-43415893D01*
X155326643Y-43129716D01*
X155387073Y-42825913D01*
X155387073Y-42516157D01*
X155326643Y-42212354D01*
X155208105Y-41926177D01*
X155036014Y-41668624D01*
X154816984Y-41449594D01*
X154559431Y-41277503D01*
X154273254Y-41158965D01*
X153969451Y-41098535D01*
X153659695Y-41098535D01*
X153355892Y-41158965D01*
X153069715Y-41277503D01*
X152812162Y-41449594D01*
X152593132Y-41668624D01*
X152421041Y-41926177D01*
X152302503Y-42212354D01*
X152242073Y-42516157D01*
X151308645Y-42516157D01*
X155431008Y-38393795D01*
X155460001Y-38370001D01*
X155483795Y-38341008D01*
X155483799Y-38341004D01*
X155554973Y-38254277D01*
X155565291Y-38234974D01*
X155625546Y-38122247D01*
X155669003Y-37978986D01*
X155680000Y-37867333D01*
X155680000Y-37867324D01*
X155683676Y-37830001D01*
X155680000Y-37792678D01*
X155680000Y-34218043D01*
X155834759Y-34114637D01*
X156034637Y-33914759D01*
X156190000Y-33682241D01*
X156345363Y-33914759D01*
X156545241Y-34114637D01*
X156590107Y-34144616D01*
X156590108Y-37667305D01*
X155573097Y-38684316D01*
X155493745Y-38781007D01*
X155434780Y-38891321D01*
X155398470Y-39011019D01*
X155386210Y-39135501D01*
X155398470Y-39259983D01*
X155434780Y-39379681D01*
X155493745Y-39489995D01*
X155573097Y-39586686D01*
X156898922Y-40912511D01*
X156995613Y-40991863D01*
X157105927Y-41050828D01*
X157225625Y-41087138D01*
X157350107Y-41099398D01*
X157474589Y-41087138D01*
X157594287Y-41050828D01*
X157704601Y-40991863D01*
X157801292Y-40912511D01*
X159127117Y-39586686D01*
X159206469Y-39489995D01*
X159240000Y-39427263D01*
X159240001Y-55545531D01*
X157926804Y-56858729D01*
X157801292Y-56733217D01*
X157704601Y-56653865D01*
X157594287Y-56594900D01*
X157474589Y-56558590D01*
X157350107Y-56546330D01*
X157225625Y-56558590D01*
X157105927Y-56594900D01*
X156995613Y-56653865D01*
X156898922Y-56733217D01*
X155573097Y-58059042D01*
X155493745Y-58155733D01*
X155434780Y-58266047D01*
X155398470Y-58385745D01*
X155386210Y-58510227D01*
X155398470Y-58634709D01*
X155434780Y-58754407D01*
X155493745Y-58864721D01*
X155573097Y-58961412D01*
X156898922Y-60287237D01*
X156995613Y-60366589D01*
X157105927Y-60425554D01*
X157225625Y-60461864D01*
X157350107Y-60474124D01*
X157474589Y-60461864D01*
X157594287Y-60425554D01*
X157704601Y-60366589D01*
X157801292Y-60287237D01*
X159127117Y-58961412D01*
X159206469Y-58864721D01*
X159265434Y-58754407D01*
X159301744Y-58634709D01*
X159314004Y-58510227D01*
X159301744Y-58385745D01*
X159265434Y-58266047D01*
X159206469Y-58155733D01*
X159127117Y-58059042D01*
X159001605Y-57933530D01*
X160511003Y-56424133D01*
X160540001Y-56400335D01*
X160634974Y-56284610D01*
X160705546Y-56152581D01*
X160749003Y-56009320D01*
X160752940Y-55969347D01*
X160755932Y-55974944D01*
X160827107Y-56061670D01*
X160850906Y-56090669D01*
X160879904Y-56114467D01*
X161850438Y-57085001D01*
X161724926Y-57210513D01*
X161645574Y-57307204D01*
X161586609Y-57417518D01*
X161550299Y-57537216D01*
X161538039Y-57661698D01*
X161550299Y-57786180D01*
X161586609Y-57905878D01*
X161645574Y-58016192D01*
X161724926Y-58112883D01*
X163050751Y-59438708D01*
X163147442Y-59518060D01*
X163257756Y-59577025D01*
X163377454Y-59613335D01*
X163501936Y-59625595D01*
X163626418Y-59613335D01*
X163746116Y-59577025D01*
X163856430Y-59518060D01*
X163953121Y-59438708D01*
X165278946Y-58112883D01*
X165340087Y-58038382D01*
X171311101Y-58038382D01*
X171311101Y-58345676D01*
X171371051Y-58647064D01*
X171488647Y-58930966D01*
X171659370Y-59186471D01*
X171876659Y-59403760D01*
X172132164Y-59574483D01*
X172416066Y-59692079D01*
X172717454Y-59752029D01*
X173024748Y-59752029D01*
X173326136Y-59692079D01*
X173610038Y-59574483D01*
X173865543Y-59403760D01*
X174082832Y-59186471D01*
X174253555Y-58930966D01*
X174371151Y-58647064D01*
X174431101Y-58345676D01*
X174431101Y-58038382D01*
X174371151Y-57736994D01*
X174253555Y-57453092D01*
X174082832Y-57197587D01*
X173865543Y-56980298D01*
X173610038Y-56809575D01*
X173326136Y-56691979D01*
X173024748Y-56632029D01*
X172717454Y-56632029D01*
X172416066Y-56691979D01*
X172132164Y-56809575D01*
X171876659Y-56980298D01*
X171659370Y-57197587D01*
X171488647Y-57453092D01*
X171371051Y-57736994D01*
X171311101Y-58038382D01*
X165340087Y-58038382D01*
X165358298Y-58016192D01*
X165417263Y-57905878D01*
X165453573Y-57786180D01*
X165465833Y-57661698D01*
X165453573Y-57537216D01*
X165417263Y-57417518D01*
X165358298Y-57307204D01*
X165278946Y-57210513D01*
X163953121Y-55884688D01*
X163856430Y-55805336D01*
X163746116Y-55746371D01*
X163626418Y-55710061D01*
X163501936Y-55697801D01*
X163377454Y-55710061D01*
X163257756Y-55746371D01*
X163147442Y-55805336D01*
X163050751Y-55884688D01*
X162925239Y-56010200D01*
X162150906Y-55235867D01*
X162150906Y-53003788D01*
X162194726Y-53021939D01*
X162498529Y-53082369D01*
X162808285Y-53082369D01*
X163112088Y-53021939D01*
X163398265Y-52903401D01*
X163655818Y-52731310D01*
X163874848Y-52512280D01*
X164046939Y-52254727D01*
X164165477Y-51968550D01*
X164223982Y-51674420D01*
X164947139Y-51674420D01*
X164947139Y-51981714D01*
X165007089Y-52283102D01*
X165124685Y-52567004D01*
X165295408Y-52822509D01*
X165512697Y-53039798D01*
X165768202Y-53210521D01*
X166052104Y-53328117D01*
X166353492Y-53388067D01*
X166660786Y-53388067D01*
X166962174Y-53328117D01*
X167246076Y-53210521D01*
X167501581Y-53039798D01*
X167718870Y-52822509D01*
X167889593Y-52567004D01*
X168007189Y-52283102D01*
X168023018Y-52203520D01*
X174303804Y-52203520D01*
X174303804Y-52513276D01*
X174364234Y-52817079D01*
X174482772Y-53103256D01*
X174654863Y-53360809D01*
X174873893Y-53579839D01*
X175131446Y-53751930D01*
X175417623Y-53870468D01*
X175721426Y-53930898D01*
X176031182Y-53930898D01*
X176334985Y-53870468D01*
X176621162Y-53751930D01*
X176878715Y-53579839D01*
X177097745Y-53360809D01*
X177269836Y-53103256D01*
X177388374Y-52817079D01*
X177448804Y-52513276D01*
X177448804Y-52203520D01*
X177388374Y-51899717D01*
X177269836Y-51613540D01*
X177097745Y-51355987D01*
X176878715Y-51136957D01*
X176621162Y-50964866D01*
X176334985Y-50846328D01*
X176031182Y-50785898D01*
X175721426Y-50785898D01*
X175417623Y-50846328D01*
X175131446Y-50964866D01*
X174873893Y-51136957D01*
X174654863Y-51355987D01*
X174482772Y-51613540D01*
X174364234Y-51899717D01*
X174303804Y-52203520D01*
X168023018Y-52203520D01*
X168067139Y-51981714D01*
X168067139Y-51674420D01*
X168007189Y-51373032D01*
X167889593Y-51089130D01*
X167718870Y-50833625D01*
X167501581Y-50616336D01*
X167246076Y-50445613D01*
X166962174Y-50328017D01*
X166660786Y-50268067D01*
X166353492Y-50268067D01*
X166052104Y-50328017D01*
X165768202Y-50445613D01*
X165512697Y-50616336D01*
X165295408Y-50833625D01*
X165124685Y-51089130D01*
X165007089Y-51373032D01*
X164947139Y-51674420D01*
X164223982Y-51674420D01*
X164225907Y-51664747D01*
X164225907Y-51354991D01*
X164165477Y-51051188D01*
X164046939Y-50765011D01*
X163874848Y-50507458D01*
X163655818Y-50288428D01*
X163398265Y-50116337D01*
X163112088Y-49997799D01*
X162808285Y-49937369D01*
X162498529Y-49937369D01*
X162194726Y-49997799D01*
X162150906Y-50015950D01*
X162150906Y-47819457D01*
X164616441Y-47819457D01*
X164616441Y-48129213D01*
X164676871Y-48433016D01*
X164795409Y-48719193D01*
X164967500Y-48976746D01*
X165186530Y-49195776D01*
X165444083Y-49367867D01*
X165730260Y-49486405D01*
X166034063Y-49546835D01*
X166343819Y-49546835D01*
X166647622Y-49486405D01*
X166933799Y-49367867D01*
X167191352Y-49195776D01*
X167410382Y-48976746D01*
X167582473Y-48719193D01*
X167603683Y-48667986D01*
X170768270Y-48667986D01*
X170768270Y-48977742D01*
X170828700Y-49281545D01*
X170947238Y-49567722D01*
X171119329Y-49825275D01*
X171338359Y-50044305D01*
X171595912Y-50216396D01*
X171882089Y-50334934D01*
X172185892Y-50395364D01*
X172495648Y-50395364D01*
X172799451Y-50334934D01*
X173085628Y-50216396D01*
X173343181Y-50044305D01*
X173562211Y-49825275D01*
X173734302Y-49567722D01*
X173852840Y-49281545D01*
X173913270Y-48977742D01*
X173913270Y-48667986D01*
X173852840Y-48364183D01*
X173734302Y-48078006D01*
X173562211Y-47820453D01*
X173343181Y-47601423D01*
X173085628Y-47429332D01*
X172799451Y-47310794D01*
X172495648Y-47250364D01*
X172185892Y-47250364D01*
X171882089Y-47310794D01*
X171595912Y-47429332D01*
X171338359Y-47601423D01*
X171119329Y-47820453D01*
X170947238Y-48078006D01*
X170828700Y-48364183D01*
X170768270Y-48667986D01*
X167603683Y-48667986D01*
X167701011Y-48433016D01*
X167761441Y-48129213D01*
X167761441Y-47819457D01*
X167701011Y-47515654D01*
X167582473Y-47229477D01*
X167410382Y-46971924D01*
X167191352Y-46752894D01*
X166933799Y-46580803D01*
X166647622Y-46462265D01*
X166343819Y-46401835D01*
X166034063Y-46401835D01*
X165730260Y-46462265D01*
X165444083Y-46580803D01*
X165186530Y-46752894D01*
X164967500Y-46971924D01*
X164795409Y-47229477D01*
X164676871Y-47515654D01*
X164616441Y-47819457D01*
X162150906Y-47819457D01*
X162150906Y-43314045D01*
X162189296Y-43352435D01*
X162444801Y-43523158D01*
X162728703Y-43640754D01*
X163030091Y-43700704D01*
X163337385Y-43700704D01*
X163638773Y-43640754D01*
X163922675Y-43523158D01*
X164178180Y-43352435D01*
X164395469Y-43135146D01*
X164566192Y-42879641D01*
X164683788Y-42595739D01*
X164743738Y-42294351D01*
X164743738Y-41987057D01*
X164683788Y-41685669D01*
X164566192Y-41401767D01*
X164395469Y-41146262D01*
X164178180Y-40928973D01*
X163922675Y-40758250D01*
X163638773Y-40640654D01*
X163337385Y-40580704D01*
X163030091Y-40580704D01*
X162728703Y-40640654D01*
X162444801Y-40758250D01*
X162189296Y-40928973D01*
X162150906Y-40967363D01*
X162150906Y-39320475D01*
X174855000Y-39320475D01*
X174855000Y-39839525D01*
X174956261Y-40348601D01*
X175154893Y-40828141D01*
X175443262Y-41259715D01*
X175810285Y-41626738D01*
X176241859Y-41915107D01*
X176721399Y-42113739D01*
X177230475Y-42215000D01*
X177749525Y-42215000D01*
X178258601Y-42113739D01*
X178738141Y-41915107D01*
X178910410Y-41800000D01*
X183011928Y-41800000D01*
X183024188Y-41924482D01*
X183060498Y-42044180D01*
X183119463Y-42154494D01*
X183198815Y-42251185D01*
X183295506Y-42330537D01*
X183405820Y-42389502D01*
X183525518Y-42425812D01*
X183650000Y-42438072D01*
X184164250Y-42435000D01*
X184323000Y-42276250D01*
X184323000Y-41127000D01*
X183173750Y-41127000D01*
X183015000Y-41285750D01*
X183011928Y-41800000D01*
X178910410Y-41800000D01*
X179169715Y-41626738D01*
X179536738Y-41259715D01*
X179825107Y-40828141D01*
X180023739Y-40348601D01*
X180053297Y-40200000D01*
X183011928Y-40200000D01*
X183015000Y-40714250D01*
X183173750Y-40873000D01*
X184323000Y-40873000D01*
X184323000Y-39723750D01*
X184164250Y-39565000D01*
X183650000Y-39561928D01*
X183525518Y-39574188D01*
X183405820Y-39610498D01*
X183295506Y-39669463D01*
X183198815Y-39748815D01*
X183119463Y-39845506D01*
X183060498Y-39955820D01*
X183024188Y-40075518D01*
X183011928Y-40200000D01*
X180053297Y-40200000D01*
X180125000Y-39839525D01*
X180125000Y-39320475D01*
X180023739Y-38811399D01*
X179825107Y-38331859D01*
X179536738Y-37900285D01*
X179169715Y-37533262D01*
X178738141Y-37244893D01*
X178258601Y-37046261D01*
X177749525Y-36945000D01*
X177230475Y-36945000D01*
X176721399Y-37046261D01*
X176241859Y-37244893D01*
X175810285Y-37533262D01*
X175443262Y-37900285D01*
X175154893Y-38331859D01*
X174956261Y-38811399D01*
X174855000Y-39320475D01*
X162150906Y-39320475D01*
X162150906Y-34463895D01*
X162216113Y-34398688D01*
X162398665Y-34435000D01*
X162681335Y-34435000D01*
X162958574Y-34379853D01*
X163219727Y-34271680D01*
X163454759Y-34114637D01*
X163653357Y-33916039D01*
X163654188Y-33924482D01*
X163690498Y-34044180D01*
X163749463Y-34154494D01*
X163828815Y-34251185D01*
X163925506Y-34330537D01*
X164035820Y-34389502D01*
X164155518Y-34425812D01*
X164280000Y-34438072D01*
X164794250Y-34435000D01*
X164953000Y-34276250D01*
X164953000Y-33127000D01*
X165207000Y-33127000D01*
X165207000Y-34276250D01*
X165365750Y-34435000D01*
X165880000Y-34438072D01*
X166004482Y-34425812D01*
X166124180Y-34389502D01*
X166234494Y-34330537D01*
X166331185Y-34251185D01*
X166410537Y-34154494D01*
X166469502Y-34044180D01*
X166505812Y-33924482D01*
X166518072Y-33800000D01*
X213481928Y-33800000D01*
X213494188Y-33924482D01*
X213530498Y-34044180D01*
X213589463Y-34154494D01*
X213668815Y-34251185D01*
X213765506Y-34330537D01*
X213875820Y-34389502D01*
X213995518Y-34425812D01*
X214120000Y-34438072D01*
X214634250Y-34435000D01*
X214793000Y-34276250D01*
X214793000Y-33127000D01*
X213643750Y-33127000D01*
X213485000Y-33285750D01*
X213481928Y-33800000D01*
X166518072Y-33800000D01*
X166515000Y-33285750D01*
X166356250Y-33127000D01*
X165207000Y-33127000D01*
X164953000Y-33127000D01*
X164933000Y-33127000D01*
X164933000Y-32873000D01*
X164953000Y-32873000D01*
X164953000Y-31723750D01*
X165207000Y-31723750D01*
X165207000Y-32873000D01*
X166356250Y-32873000D01*
X166515000Y-32714250D01*
X166518072Y-32200000D01*
X213481928Y-32200000D01*
X213485000Y-32714250D01*
X213643750Y-32873000D01*
X214793000Y-32873000D01*
X214793000Y-31723750D01*
X214634250Y-31565000D01*
X214120000Y-31561928D01*
X213995518Y-31574188D01*
X213875820Y-31610498D01*
X213765506Y-31669463D01*
X213668815Y-31748815D01*
X213589463Y-31845506D01*
X213530498Y-31955820D01*
X213494188Y-32075518D01*
X213481928Y-32200000D01*
X166518072Y-32200000D01*
X166505812Y-32075518D01*
X166469502Y-31955820D01*
X166410537Y-31845506D01*
X166331185Y-31748815D01*
X166234494Y-31669463D01*
X166124180Y-31610498D01*
X166004482Y-31574188D01*
X165880000Y-31561928D01*
X165365750Y-31565000D01*
X165207000Y-31723750D01*
X164953000Y-31723750D01*
X164794250Y-31565000D01*
X164280000Y-31561928D01*
X164155518Y-31574188D01*
X164035820Y-31610498D01*
X163925506Y-31669463D01*
X163828815Y-31748815D01*
X163749463Y-31845506D01*
X163690498Y-31955820D01*
X163654188Y-32075518D01*
X163653357Y-32083961D01*
X163454759Y-31885363D01*
X163219727Y-31728320D01*
X162958574Y-31620147D01*
X162681335Y-31565000D01*
X162398665Y-31565000D01*
X162121426Y-31620147D01*
X161860273Y-31728320D01*
X161625241Y-31885363D01*
X161425363Y-32085241D01*
X161270000Y-32317759D01*
X161114637Y-32085241D01*
X160914759Y-31885363D01*
X160679727Y-31728320D01*
X160418574Y-31620147D01*
X160141335Y-31565000D01*
X159858665Y-31565000D01*
X159581426Y-31620147D01*
X159320273Y-31728320D01*
X159085241Y-31885363D01*
X158885363Y-32085241D01*
X158730000Y-32317759D01*
X158574637Y-32085241D01*
X158374759Y-31885363D01*
X158139727Y-31728320D01*
X157878574Y-31620147D01*
X157601335Y-31565000D01*
X157318665Y-31565000D01*
X157041426Y-31620147D01*
X156780273Y-31728320D01*
X156545241Y-31885363D01*
X156345363Y-32085241D01*
X156190000Y-32317759D01*
X156034637Y-32085241D01*
X155834759Y-31885363D01*
X155599727Y-31728320D01*
X155338574Y-31620147D01*
X155061335Y-31565000D01*
X154778665Y-31565000D01*
X154501426Y-31620147D01*
X154240273Y-31728320D01*
X154005241Y-31885363D01*
X153805363Y-32085241D01*
X153648320Y-32320273D01*
X153540147Y-32581426D01*
X153485000Y-32858665D01*
X153485000Y-33141335D01*
X153540147Y-33418574D01*
X153648320Y-33679727D01*
X153805363Y-33914759D01*
X154005241Y-34114637D01*
X154160000Y-34218044D01*
X154160001Y-37515196D01*
X143616212Y-48058987D01*
X143587208Y-48082790D01*
X143558872Y-48117318D01*
X143492235Y-48198515D01*
X143459870Y-48259065D01*
X143421663Y-48330545D01*
X143378206Y-48473806D01*
X143367209Y-48585459D01*
X143367209Y-48585469D01*
X143363533Y-48622791D01*
X143367209Y-48660113D01*
X143367210Y-56193502D01*
X142350199Y-57210513D01*
X142270847Y-57307204D01*
X142211882Y-57417518D01*
X142175572Y-57537216D01*
X142163312Y-57661698D01*
X140710000Y-57661698D01*
X140710000Y-36029142D01*
X140743449Y-35622285D01*
X142165000Y-35622285D01*
X142165000Y-36377715D01*
X142312377Y-37118628D01*
X142601467Y-37816554D01*
X143021161Y-38444670D01*
X143555330Y-38978839D01*
X144183446Y-39398533D01*
X144881372Y-39687623D01*
X145622285Y-39835000D01*
X146377715Y-39835000D01*
X147118628Y-39687623D01*
X147816554Y-39398533D01*
X148444670Y-38978839D01*
X148978839Y-38444670D01*
X149398533Y-37816554D01*
X149687623Y-37118628D01*
X149835000Y-36377715D01*
X149835000Y-35622285D01*
X149687623Y-34881372D01*
X149398533Y-34183446D01*
X148978839Y-33555330D01*
X148444670Y-33021161D01*
X147816554Y-32601467D01*
X147118628Y-32312377D01*
X146377715Y-32165000D01*
X145622285Y-32165000D01*
X144881372Y-32312377D01*
X144183446Y-32601467D01*
X143555330Y-33021161D01*
X143021161Y-33555330D01*
X142601467Y-34183446D01*
X142312377Y-34881372D01*
X142165000Y-35622285D01*
X140743449Y-35622285D01*
X140783397Y-35136392D01*
X140994491Y-34295990D01*
X141340017Y-33501336D01*
X141810685Y-32773794D01*
X142393864Y-32132890D01*
X143073881Y-31595845D01*
X143832489Y-31177070D01*
X144649306Y-30887820D01*
X145514656Y-30733677D01*
X146016736Y-30710000D01*
X233970858Y-30710000D01*
X234863608Y-30783397D01*
G37*
%TD.AperFunction*%
%TD*%
M02*
