%TF.GenerationSoftware,KiCad,Pcbnew,5.1.10*%
%TF.CreationDate,2022-03-31T19:29:30-07:00*%
%TF.ProjectId,zf_vga_controller,7a665f76-6761-45f6-936f-6e74726f6c6c,rev?*%
%TF.SameCoordinates,Original*%
%TF.FileFunction,Copper,L2,Bot*%
%TF.FilePolarity,Positive*%
%FSLAX46Y46*%
G04 Gerber Fmt 4.6, Leading zero omitted, Abs format (unit mm)*
G04 Created by KiCad (PCBNEW 5.1.10) date 2022-03-31 19:29:30*
%MOMM*%
%LPD*%
G01*
G04 APERTURE LIST*
%TA.AperFunction,ComponentPad*%
%ADD10C,6.400000*%
%TD*%
%TA.AperFunction,ComponentPad*%
%ADD11C,1.875000*%
%TD*%
%TA.AperFunction,ComponentPad*%
%ADD12C,0.100000*%
%TD*%
%TA.AperFunction,ComponentPad*%
%ADD13C,2.000000*%
%TD*%
%TA.AperFunction,ComponentPad*%
%ADD14O,1.700000X1.700000*%
%TD*%
%TA.AperFunction,ComponentPad*%
%ADD15R,1.700000X1.700000*%
%TD*%
%TA.AperFunction,ComponentPad*%
%ADD16C,1.500000*%
%TD*%
%TA.AperFunction,ComponentPad*%
%ADD17R,1.500000X1.500000*%
%TD*%
%TA.AperFunction,ComponentPad*%
%ADD18O,1.600000X1.600000*%
%TD*%
%TA.AperFunction,ComponentPad*%
%ADD19C,1.600000*%
%TD*%
%TA.AperFunction,ComponentPad*%
%ADD20R,1.600000X1.600000*%
%TD*%
%TA.AperFunction,ComponentPad*%
%ADD21O,1.600000X2.400000*%
%TD*%
%TA.AperFunction,ComponentPad*%
%ADD22R,1.600000X2.400000*%
%TD*%
%TA.AperFunction,Conductor*%
%ADD23C,0.500000*%
%TD*%
%TA.AperFunction,Conductor*%
%ADD24C,0.250000*%
%TD*%
%TA.AperFunction,Conductor*%
%ADD25C,0.254000*%
%TD*%
%TA.AperFunction,Conductor*%
%ADD26C,0.100000*%
%TD*%
G04 APERTURE END LIST*
D10*
%TO.P,Mount1,1*%
%TO.N,N/C*%
X234000000Y-69000000D03*
%TD*%
%TO.P,Mount1,1*%
%TO.N,N/C*%
X234000000Y-41000000D03*
%TD*%
D11*
%TO.P,SW1,4*%
%TO.N,Net-(SW1-Pad4)*%
X162653407Y-51509869D03*
%TO.P,SW1,2*%
%TO.N,Net-(SW1-Pad2)*%
X166188941Y-47974335D03*
%TO.P,SW1,3*%
%TO.N,GND*%
X153814573Y-42671035D03*
%TA.AperFunction,ComponentPad*%
D12*
%TO.P,SW1,1*%
%TO.N,Net-(RN1-Pad2)*%
G36*
X156024282Y-39135501D02*
G01*
X157350107Y-37809676D01*
X158675932Y-39135501D01*
X157350107Y-40461326D01*
X156024282Y-39135501D01*
G37*
%TD.AperFunction*%
%TD*%
%TA.AperFunction,ComponentPad*%
%TO.P,SW2,1*%
%TO.N,Net-(RN1-Pad3)*%
G36*
X156024282Y-58510227D02*
G01*
X157350107Y-57184402D01*
X158675932Y-58510227D01*
X157350107Y-59836052D01*
X156024282Y-58510227D01*
G37*
%TD.AperFunction*%
D11*
%TO.P,SW2,3*%
%TO.N,GND*%
X153814573Y-62045761D03*
%TO.P,SW2,2*%
%TO.N,Net-(SW2-Pad2)*%
X166188941Y-67349061D03*
%TO.P,SW2,4*%
%TO.N,Net-(SW2-Pad4)*%
X162653407Y-70884595D03*
%TD*%
%TA.AperFunction,ComponentPad*%
D12*
%TO.P,SW3,1*%
%TO.N,Net-(RN1-Pad4)*%
G36*
X144127209Y-58987523D02*
G01*
X142801384Y-57661698D01*
X144127209Y-56335873D01*
X145453034Y-57661698D01*
X144127209Y-58987523D01*
G37*
%TD.AperFunction*%
D11*
%TO.P,SW3,3*%
%TO.N,GND*%
X147662743Y-61197232D03*
%TO.P,SW3,2*%
%TO.N,Net-(SW3-Pad2)*%
X152966043Y-48822864D03*
%TO.P,SW3,4*%
%TO.N,Net-(SW3-Pad4)*%
X156501577Y-52358398D03*
%TD*%
%TA.AperFunction,ComponentPad*%
D12*
%TO.P,SW4,1*%
%TO.N,Net-(RN1-Pad5)*%
G36*
X163501936Y-58987523D02*
G01*
X162176111Y-57661698D01*
X163501936Y-56335873D01*
X164827761Y-57661698D01*
X163501936Y-58987523D01*
G37*
%TD.AperFunction*%
D11*
%TO.P,SW4,3*%
%TO.N,GND*%
X167037470Y-61197232D03*
%TO.P,SW4,2*%
%TO.N,Net-(SW4-Pad2)*%
X172340770Y-48822864D03*
%TO.P,SW4,4*%
%TO.N,Net-(SW4-Pad4)*%
X175876304Y-52358398D03*
%TD*%
D10*
%TO.P,Mount1,1*%
%TO.N,N/C*%
X146000000Y-69000000D03*
%TD*%
%TO.P,Mount1,1*%
%TO.N,N/C*%
X146000000Y-41000000D03*
%TD*%
D13*
%TO.P,C1,1*%
%TO.N,VCC*%
X181560000Y-52405000D03*
%TO.P,C1,2*%
%TO.N,GND*%
X181560000Y-47405000D03*
%TD*%
D14*
%TO.P,J1,9*%
%TO.N,Net-(J1-Pad9)*%
X210770000Y-57510000D03*
%TO.P,J1,8*%
%TO.N,GND*%
X208230000Y-57510000D03*
%TO.P,J1,7*%
%TO.N,VCC*%
X205690000Y-57510000D03*
%TO.P,J1,6*%
%TO.N,Net-(J1-Pad6)*%
X203150000Y-57510000D03*
%TO.P,J1,5*%
%TO.N,Net-(J1-Pad5)*%
X200610000Y-57510000D03*
%TO.P,J1,4*%
%TO.N,Net-(J1-Pad4)*%
X198070000Y-57510000D03*
%TO.P,J1,3*%
%TO.N,Net-(J1-Pad3)*%
X195530000Y-57510000D03*
%TO.P,J1,2*%
%TO.N,Net-(J1-Pad2)*%
X192990000Y-57510000D03*
D15*
%TO.P,J1,1*%
%TO.N,Net-(J1-Pad1)*%
X190450000Y-57510000D03*
%TD*%
D16*
%TO.P,Q1,2*%
%TO.N,Net-(Q1-Pad2)*%
X218390000Y-49905000D03*
%TO.P,Q1,3*%
%TO.N,GND*%
X218390000Y-47365000D03*
D17*
%TO.P,Q1,1*%
%TO.N,Net-(Q1-Pad1)*%
X218390000Y-52445000D03*
%TD*%
D18*
%TO.P,R1,2*%
%TO.N,Net-(J1-Pad9)*%
X213310000Y-53954000D03*
D19*
%TO.P,R1,1*%
%TO.N,Net-(Q1-Pad2)*%
X213310000Y-46334000D03*
%TD*%
%TO.P,R2,1*%
%TO.N,VCC*%
X195530000Y-61320000D03*
D18*
%TO.P,R2,2*%
%TO.N,Net-(Q1-Pad1)*%
X187910000Y-61320000D03*
%TD*%
D20*
%TO.P,RN1,1*%
%TO.N,VCC*%
X178100000Y-67197411D03*
D18*
%TO.P,RN1,2*%
%TO.N,Net-(RN1-Pad2)*%
X180640000Y-67197411D03*
%TO.P,RN1,3*%
%TO.N,Net-(RN1-Pad3)*%
X183180000Y-67197411D03*
%TO.P,RN1,4*%
%TO.N,Net-(RN1-Pad4)*%
X185720000Y-67197411D03*
%TO.P,RN1,5*%
%TO.N,Net-(RN1-Pad5)*%
X188260000Y-67197411D03*
%TO.P,RN1,6*%
%TO.N,Net-(RN1-Pad6)*%
X190800000Y-67197411D03*
%TO.P,RN1,7*%
%TO.N,Net-(RN1-Pad7)*%
X193340000Y-67197411D03*
%TD*%
D21*
%TO.P,U1,20*%
%TO.N,VCC*%
X185370000Y-53700000D03*
%TO.P,U1,10*%
%TO.N,GND*%
X208230000Y-46080000D03*
%TO.P,U1,19*%
%TO.N,Net-(Q1-Pad1)*%
X187910000Y-53700000D03*
%TO.P,U1,9*%
%TO.N,GND*%
X205690000Y-46080000D03*
%TO.P,U1,18*%
%TO.N,Net-(J1-Pad1)*%
X190450000Y-53700000D03*
%TO.P,U1,8*%
%TO.N,GND*%
X203150000Y-46080000D03*
%TO.P,U1,17*%
%TO.N,Net-(J1-Pad2)*%
X192990000Y-53700000D03*
%TO.P,U1,7*%
%TO.N,Net-(SW6-Pad2)*%
X200610000Y-46080000D03*
%TO.P,U1,16*%
%TO.N,Net-(J1-Pad3)*%
X195530000Y-53700000D03*
%TO.P,U1,6*%
%TO.N,Net-(SW5-Pad2)*%
X198070000Y-46080000D03*
%TO.P,U1,15*%
%TO.N,Net-(J1-Pad4)*%
X198070000Y-53700000D03*
%TO.P,U1,5*%
%TO.N,Net-(SW4-Pad2)*%
X195530000Y-46080000D03*
%TO.P,U1,14*%
%TO.N,Net-(J1-Pad5)*%
X200610000Y-53700000D03*
%TO.P,U1,4*%
%TO.N,Net-(SW3-Pad2)*%
X192990000Y-46080000D03*
%TO.P,U1,13*%
%TO.N,Net-(J1-Pad6)*%
X203150000Y-53700000D03*
%TO.P,U1,3*%
%TO.N,Net-(SW2-Pad2)*%
X190450000Y-46080000D03*
%TO.P,U1,12*%
%TO.N,Net-(U1-Pad12)*%
X205690000Y-53700000D03*
%TO.P,U1,2*%
%TO.N,Net-(SW1-Pad2)*%
X187910000Y-46080000D03*
%TO.P,U1,11*%
%TO.N,Net-(U1-Pad11)*%
X208230000Y-53700000D03*
D22*
%TO.P,U1,1*%
%TO.N,GND*%
X185370000Y-46080000D03*
%TD*%
D11*
%TO.P,SW5,4*%
%TO.N,Net-(SW5-Pad4)*%
X222653407Y-70884595D03*
%TO.P,SW5,2*%
%TO.N,Net-(SW5-Pad2)*%
X226188941Y-67349061D03*
%TO.P,SW5,3*%
%TO.N,GND*%
X213814573Y-62045761D03*
%TA.AperFunction,ComponentPad*%
D12*
%TO.P,SW5,1*%
%TO.N,Net-(RN1-Pad6)*%
G36*
X216024282Y-58510227D02*
G01*
X217350107Y-57184402D01*
X218675932Y-58510227D01*
X217350107Y-59836052D01*
X216024282Y-58510227D01*
G37*
%TD.AperFunction*%
%TD*%
%TA.AperFunction,ComponentPad*%
%TO.P,SW6,1*%
%TO.N,Net-(RN1-Pad7)*%
G36*
X223501936Y-58987523D02*
G01*
X222176111Y-57661698D01*
X223501936Y-56335873D01*
X224827761Y-57661698D01*
X223501936Y-58987523D01*
G37*
%TD.AperFunction*%
D11*
%TO.P,SW6,3*%
%TO.N,GND*%
X227037470Y-61197232D03*
%TO.P,SW6,2*%
%TO.N,Net-(SW6-Pad2)*%
X232340770Y-48822864D03*
%TO.P,SW6,4*%
%TO.N,Net-(SW6-Pad4)*%
X235876304Y-52358398D03*
%TD*%
D23*
%TO.N,VCC*%
X182855000Y-53700000D02*
X181560000Y-52405000D01*
X185370000Y-53700000D02*
X182855000Y-53700000D01*
D24*
%TO.N,Net-(Q1-Pad2)*%
X213310000Y-47858000D02*
X213310000Y-46334000D01*
X215357000Y-49905000D02*
X213310000Y-47858000D01*
X218390000Y-49905000D02*
X215357000Y-49905000D01*
%TO.N,Net-(Q1-Pad1)*%
X190450000Y-51160000D02*
X187910000Y-53700000D01*
X217105000Y-51160000D02*
X190450000Y-51160000D01*
X218390000Y-52445000D02*
X217105000Y-51160000D01*
%TO.N,Net-(RN1-Pad3)*%
X178282589Y-62300000D02*
X183180000Y-67197411D01*
X171625000Y-62300000D02*
X178282589Y-62300000D01*
X169125000Y-59800000D02*
X171625000Y-62300000D01*
X158639880Y-59800000D02*
X169125000Y-59800000D01*
X157350107Y-58510227D02*
X158639880Y-59800000D01*
X157400107Y-58510227D02*
X157350107Y-58510227D01*
%TO.N,Net-(RN1-Pad5)*%
X163551936Y-57661698D02*
X169561698Y-57661698D01*
X181562589Y-60500000D02*
X188260000Y-67197411D01*
X169561698Y-57661698D02*
X172400000Y-60500000D01*
X172400000Y-60500000D02*
X181562589Y-60500000D01*
%TO.N,Net-(SW1-Pad2)*%
X185878000Y-44048000D02*
X187910000Y-46080000D01*
X170115276Y-44048000D02*
X185878000Y-44048000D01*
X166188941Y-47974335D02*
X170115276Y-44048000D01*
%TO.N,Net-(SW3-Pad2)*%
X158248907Y-43540000D02*
X152966043Y-48822864D01*
X190450000Y-43540000D02*
X158248907Y-43540000D01*
X192990000Y-46080000D02*
X190450000Y-43540000D01*
%TD*%
D25*
%TO.N,GND*%
X234863608Y-35783397D02*
X235704010Y-35994491D01*
X236498664Y-36340017D01*
X237226206Y-36810685D01*
X237867110Y-37393864D01*
X238404155Y-38073881D01*
X238822930Y-38832489D01*
X239112180Y-39649306D01*
X239266323Y-40514656D01*
X239290000Y-41016736D01*
X239290001Y-68970846D01*
X239216603Y-69863606D01*
X239005509Y-70704010D01*
X238659983Y-71498664D01*
X238189315Y-72226206D01*
X237606136Y-72867110D01*
X236926115Y-73404159D01*
X236167507Y-73822932D01*
X235350692Y-74112181D01*
X234485344Y-74266323D01*
X233983265Y-74290000D01*
X146029142Y-74290000D01*
X145136394Y-74216603D01*
X144295990Y-74005509D01*
X143501336Y-73659983D01*
X142773794Y-73189315D01*
X142132890Y-72606136D01*
X141595841Y-71926115D01*
X141177068Y-71167507D01*
X140887819Y-70350692D01*
X140733677Y-69485344D01*
X140710000Y-68983265D01*
X140710000Y-68622285D01*
X142165000Y-68622285D01*
X142165000Y-69377715D01*
X142312377Y-70118628D01*
X142601467Y-70816554D01*
X143021161Y-71444670D01*
X143555330Y-71978839D01*
X144183446Y-72398533D01*
X144881372Y-72687623D01*
X145622285Y-72835000D01*
X146377715Y-72835000D01*
X147118628Y-72687623D01*
X147816554Y-72398533D01*
X148444670Y-71978839D01*
X148978839Y-71444670D01*
X149398533Y-70816554D01*
X149434502Y-70729717D01*
X161080907Y-70729717D01*
X161080907Y-71039473D01*
X161141337Y-71343276D01*
X161259875Y-71629453D01*
X161431966Y-71887006D01*
X161650996Y-72106036D01*
X161908549Y-72278127D01*
X162194726Y-72396665D01*
X162498529Y-72457095D01*
X162808285Y-72457095D01*
X163112088Y-72396665D01*
X163398265Y-72278127D01*
X163655818Y-72106036D01*
X163874848Y-71887006D01*
X164046939Y-71629453D01*
X164165477Y-71343276D01*
X164225907Y-71039473D01*
X164225907Y-70729717D01*
X221080907Y-70729717D01*
X221080907Y-71039473D01*
X221141337Y-71343276D01*
X221259875Y-71629453D01*
X221431966Y-71887006D01*
X221650996Y-72106036D01*
X221908549Y-72278127D01*
X222194726Y-72396665D01*
X222498529Y-72457095D01*
X222808285Y-72457095D01*
X223112088Y-72396665D01*
X223398265Y-72278127D01*
X223655818Y-72106036D01*
X223874848Y-71887006D01*
X224046939Y-71629453D01*
X224165477Y-71343276D01*
X224225907Y-71039473D01*
X224225907Y-70729717D01*
X224165477Y-70425914D01*
X224046939Y-70139737D01*
X223874848Y-69882184D01*
X223655818Y-69663154D01*
X223398265Y-69491063D01*
X223112088Y-69372525D01*
X222808285Y-69312095D01*
X222498529Y-69312095D01*
X222194726Y-69372525D01*
X221908549Y-69491063D01*
X221650996Y-69663154D01*
X221431966Y-69882184D01*
X221259875Y-70139737D01*
X221141337Y-70425914D01*
X221080907Y-70729717D01*
X164225907Y-70729717D01*
X164165477Y-70425914D01*
X164046939Y-70139737D01*
X163874848Y-69882184D01*
X163655818Y-69663154D01*
X163398265Y-69491063D01*
X163112088Y-69372525D01*
X162808285Y-69312095D01*
X162498529Y-69312095D01*
X162194726Y-69372525D01*
X161908549Y-69491063D01*
X161650996Y-69663154D01*
X161431966Y-69882184D01*
X161259875Y-70139737D01*
X161141337Y-70425914D01*
X161080907Y-70729717D01*
X149434502Y-70729717D01*
X149687623Y-70118628D01*
X149835000Y-69377715D01*
X149835000Y-68622285D01*
X149687623Y-67881372D01*
X149623161Y-67725745D01*
X155259776Y-67725745D01*
X155259776Y-68033039D01*
X155319726Y-68334427D01*
X155437322Y-68618329D01*
X155608045Y-68873834D01*
X155825334Y-69091123D01*
X156080839Y-69261846D01*
X156364741Y-69379442D01*
X156666129Y-69439392D01*
X156973423Y-69439392D01*
X157274811Y-69379442D01*
X157558713Y-69261846D01*
X157814218Y-69091123D01*
X158031507Y-68873834D01*
X158202230Y-68618329D01*
X158319826Y-68334427D01*
X158379776Y-68033039D01*
X158379776Y-67725745D01*
X158319826Y-67424357D01*
X158224485Y-67194183D01*
X164616441Y-67194183D01*
X164616441Y-67503939D01*
X164676871Y-67807742D01*
X164795409Y-68093919D01*
X164967500Y-68351472D01*
X165186530Y-68570502D01*
X165444083Y-68742593D01*
X165730260Y-68861131D01*
X166034063Y-68921561D01*
X166343819Y-68921561D01*
X166647622Y-68861131D01*
X166933799Y-68742593D01*
X167191352Y-68570502D01*
X167410382Y-68351472D01*
X167582473Y-68093919D01*
X167701011Y-67807742D01*
X167761441Y-67503939D01*
X167761441Y-67194183D01*
X167701011Y-66890380D01*
X167582473Y-66604203D01*
X167410382Y-66346650D01*
X167191352Y-66127620D01*
X166933799Y-65955529D01*
X166647622Y-65836991D01*
X166343819Y-65776561D01*
X166034063Y-65776561D01*
X165730260Y-65836991D01*
X165444083Y-65955529D01*
X165186530Y-66127620D01*
X164967500Y-66346650D01*
X164795409Y-66604203D01*
X164676871Y-66890380D01*
X164616441Y-67194183D01*
X158224485Y-67194183D01*
X158202230Y-67140455D01*
X158031507Y-66884950D01*
X157814218Y-66667661D01*
X157558713Y-66496938D01*
X157274811Y-66379342D01*
X156973423Y-66319392D01*
X156666129Y-66319392D01*
X156364741Y-66379342D01*
X156080839Y-66496938D01*
X155825334Y-66667661D01*
X155608045Y-66884950D01*
X155437322Y-67140455D01*
X155319726Y-67424357D01*
X155259776Y-67725745D01*
X149623161Y-67725745D01*
X149398533Y-67183446D01*
X148978839Y-66555330D01*
X148444670Y-66021161D01*
X147816554Y-65601467D01*
X147118628Y-65312377D01*
X146377715Y-65165000D01*
X145622285Y-65165000D01*
X144881372Y-65312377D01*
X144183446Y-65601467D01*
X143555330Y-66021161D01*
X143021161Y-66555330D01*
X142601467Y-67183446D01*
X142312377Y-67881372D01*
X142165000Y-68622285D01*
X140710000Y-68622285D01*
X140710000Y-61569052D01*
X146127004Y-61569052D01*
X146229051Y-61861515D01*
X146386194Y-62128450D01*
X146592394Y-62359599D01*
X146839727Y-62546079D01*
X147118688Y-62680724D01*
X147290923Y-62732971D01*
X147535743Y-62612906D01*
X147535743Y-61324232D01*
X147789743Y-61324232D01*
X147789743Y-62612906D01*
X148034563Y-62732971D01*
X148327026Y-62630924D01*
X148593961Y-62473781D01*
X148656960Y-62417581D01*
X152278834Y-62417581D01*
X152380881Y-62710044D01*
X152538024Y-62976979D01*
X152744224Y-63208128D01*
X152991557Y-63394608D01*
X153270518Y-63529253D01*
X153442753Y-63581500D01*
X153687573Y-63461435D01*
X153687573Y-62172761D01*
X153941573Y-62172761D01*
X153941573Y-63461435D01*
X154186393Y-63581500D01*
X154478856Y-63479453D01*
X154745791Y-63322310D01*
X154976940Y-63116110D01*
X155163420Y-62868777D01*
X155298065Y-62589816D01*
X155350312Y-62417581D01*
X155230247Y-62172761D01*
X153941573Y-62172761D01*
X153687573Y-62172761D01*
X152398899Y-62172761D01*
X152278834Y-62417581D01*
X148656960Y-62417581D01*
X148825110Y-62267581D01*
X149011590Y-62020248D01*
X149146235Y-61741287D01*
X149166664Y-61673941D01*
X152278834Y-61673941D01*
X152398899Y-61918761D01*
X153687573Y-61918761D01*
X153687573Y-60630087D01*
X153941573Y-60630087D01*
X153941573Y-61918761D01*
X155230247Y-61918761D01*
X155350312Y-61673941D01*
X155248265Y-61381478D01*
X155091122Y-61114543D01*
X154884922Y-60883394D01*
X154637589Y-60696914D01*
X154358628Y-60562269D01*
X154186393Y-60510022D01*
X153941573Y-60630087D01*
X153687573Y-60630087D01*
X153442753Y-60510022D01*
X153150290Y-60612069D01*
X152883355Y-60769212D01*
X152652206Y-60975412D01*
X152465726Y-61222745D01*
X152331081Y-61501706D01*
X152278834Y-61673941D01*
X149166664Y-61673941D01*
X149198482Y-61569052D01*
X149078417Y-61324232D01*
X147789743Y-61324232D01*
X147535743Y-61324232D01*
X146247069Y-61324232D01*
X146127004Y-61569052D01*
X140710000Y-61569052D01*
X140710000Y-60825412D01*
X146127004Y-60825412D01*
X146247069Y-61070232D01*
X147535743Y-61070232D01*
X147535743Y-59781558D01*
X147789743Y-59781558D01*
X147789743Y-61070232D01*
X149078417Y-61070232D01*
X149198482Y-60825412D01*
X149096435Y-60532949D01*
X148939292Y-60266014D01*
X148733092Y-60034865D01*
X148485759Y-59848385D01*
X148206798Y-59713740D01*
X148034563Y-59661493D01*
X147789743Y-59781558D01*
X147535743Y-59781558D01*
X147290923Y-59661493D01*
X146998460Y-59763540D01*
X146731525Y-59920683D01*
X146500376Y-60126883D01*
X146313896Y-60374216D01*
X146179251Y-60653177D01*
X146127004Y-60825412D01*
X140710000Y-60825412D01*
X140710000Y-57661698D01*
X142163312Y-57661698D01*
X142175572Y-57786180D01*
X142211882Y-57905878D01*
X142270847Y-58016192D01*
X142350199Y-58112883D01*
X143676024Y-59438708D01*
X143772715Y-59518060D01*
X143883029Y-59577025D01*
X144002727Y-59613335D01*
X144127209Y-59625595D01*
X144251691Y-59613335D01*
X144371389Y-59577025D01*
X144481703Y-59518060D01*
X144578394Y-59438708D01*
X145904219Y-58112883D01*
X145965360Y-58038382D01*
X151936374Y-58038382D01*
X151936374Y-58345676D01*
X151996324Y-58647064D01*
X152113920Y-58930966D01*
X152284643Y-59186471D01*
X152501932Y-59403760D01*
X152757437Y-59574483D01*
X153041339Y-59692079D01*
X153342727Y-59752029D01*
X153650021Y-59752029D01*
X153951409Y-59692079D01*
X154235311Y-59574483D01*
X154490816Y-59403760D01*
X154708105Y-59186471D01*
X154878828Y-58930966D01*
X154996424Y-58647064D01*
X155023642Y-58510227D01*
X155386210Y-58510227D01*
X155398470Y-58634709D01*
X155434780Y-58754407D01*
X155493745Y-58864721D01*
X155573097Y-58961412D01*
X156898922Y-60287237D01*
X156995613Y-60366589D01*
X157105927Y-60425554D01*
X157225625Y-60461864D01*
X157350107Y-60474124D01*
X157474589Y-60461864D01*
X157594287Y-60425554D01*
X157704601Y-60366589D01*
X157801292Y-60287237D01*
X157926803Y-60161726D01*
X158076085Y-60311008D01*
X158099879Y-60340001D01*
X158128872Y-60363795D01*
X158128876Y-60363799D01*
X158179374Y-60405241D01*
X158215604Y-60434974D01*
X158347633Y-60505546D01*
X158490894Y-60549003D01*
X158602547Y-60560000D01*
X158602556Y-60560000D01*
X158639879Y-60563676D01*
X158677202Y-60560000D01*
X161945940Y-60560000D01*
X161801284Y-60776493D01*
X161683688Y-61060395D01*
X161623738Y-61361783D01*
X161623738Y-61669077D01*
X161683688Y-61970465D01*
X161801284Y-62254367D01*
X161972007Y-62509872D01*
X162189296Y-62727161D01*
X162444801Y-62897884D01*
X162728703Y-63015480D01*
X163030091Y-63075430D01*
X163337385Y-63075430D01*
X163638773Y-63015480D01*
X163922675Y-62897884D01*
X164178180Y-62727161D01*
X164395469Y-62509872D01*
X164566192Y-62254367D01*
X164683788Y-61970465D01*
X164743738Y-61669077D01*
X164743738Y-61569052D01*
X165501731Y-61569052D01*
X165603778Y-61861515D01*
X165760921Y-62128450D01*
X165967121Y-62359599D01*
X166214454Y-62546079D01*
X166493415Y-62680724D01*
X166665650Y-62732971D01*
X166910470Y-62612906D01*
X166910470Y-61324232D01*
X167164470Y-61324232D01*
X167164470Y-62612906D01*
X167409290Y-62732971D01*
X167701753Y-62630924D01*
X167968688Y-62473781D01*
X168199837Y-62267581D01*
X168386317Y-62020248D01*
X168520962Y-61741287D01*
X168573209Y-61569052D01*
X168453144Y-61324232D01*
X167164470Y-61324232D01*
X166910470Y-61324232D01*
X165621796Y-61324232D01*
X165501731Y-61569052D01*
X164743738Y-61569052D01*
X164743738Y-61361783D01*
X164683788Y-61060395D01*
X164566192Y-60776493D01*
X164421536Y-60560000D01*
X165598951Y-60560000D01*
X165553978Y-60653177D01*
X165501731Y-60825412D01*
X165621796Y-61070232D01*
X166730862Y-61070232D01*
X166843721Y-61183091D01*
X167023329Y-61003483D01*
X166910470Y-60890624D01*
X166910470Y-60560000D01*
X167164470Y-60560000D01*
X167164470Y-60890624D01*
X167051611Y-61003483D01*
X167231219Y-61183091D01*
X167344078Y-61070232D01*
X168453144Y-61070232D01*
X168573209Y-60825412D01*
X168480601Y-60560000D01*
X168810199Y-60560000D01*
X171061200Y-62811002D01*
X171084999Y-62840001D01*
X171113997Y-62863799D01*
X171200723Y-62934974D01*
X171332753Y-63005546D01*
X171476014Y-63049003D01*
X171587667Y-63060000D01*
X171587677Y-63060000D01*
X171625000Y-63063676D01*
X171662323Y-63060000D01*
X177967788Y-63060000D01*
X180670198Y-65762411D01*
X180498665Y-65762411D01*
X180221426Y-65817558D01*
X179960273Y-65925731D01*
X179725241Y-66082774D01*
X179526643Y-66281372D01*
X179525812Y-66272929D01*
X179489502Y-66153231D01*
X179430537Y-66042917D01*
X179351185Y-65946226D01*
X179254494Y-65866874D01*
X179144180Y-65807909D01*
X179024482Y-65771599D01*
X178900000Y-65759339D01*
X177300000Y-65759339D01*
X177175518Y-65771599D01*
X177055820Y-65807909D01*
X176945506Y-65866874D01*
X176848815Y-65946226D01*
X176769463Y-66042917D01*
X176710498Y-66153231D01*
X176674188Y-66272929D01*
X176661928Y-66397411D01*
X176661928Y-67997411D01*
X176674188Y-68121893D01*
X176710498Y-68241591D01*
X176769463Y-68351905D01*
X176848815Y-68448596D01*
X176945506Y-68527948D01*
X177055820Y-68586913D01*
X177175518Y-68623223D01*
X177300000Y-68635483D01*
X178900000Y-68635483D01*
X179024482Y-68623223D01*
X179144180Y-68586913D01*
X179254494Y-68527948D01*
X179351185Y-68448596D01*
X179430537Y-68351905D01*
X179489502Y-68241591D01*
X179525812Y-68121893D01*
X179526643Y-68113450D01*
X179725241Y-68312048D01*
X179960273Y-68469091D01*
X180221426Y-68577264D01*
X180498665Y-68632411D01*
X180781335Y-68632411D01*
X181058574Y-68577264D01*
X181319727Y-68469091D01*
X181554759Y-68312048D01*
X181754637Y-68112170D01*
X181910000Y-67879652D01*
X182065363Y-68112170D01*
X182265241Y-68312048D01*
X182500273Y-68469091D01*
X182761426Y-68577264D01*
X183038665Y-68632411D01*
X183321335Y-68632411D01*
X183598574Y-68577264D01*
X183859727Y-68469091D01*
X184094759Y-68312048D01*
X184294637Y-68112170D01*
X184450000Y-67879652D01*
X184605363Y-68112170D01*
X184805241Y-68312048D01*
X185040273Y-68469091D01*
X185301426Y-68577264D01*
X185578665Y-68632411D01*
X185861335Y-68632411D01*
X186138574Y-68577264D01*
X186399727Y-68469091D01*
X186634759Y-68312048D01*
X186834637Y-68112170D01*
X186990000Y-67879652D01*
X187145363Y-68112170D01*
X187345241Y-68312048D01*
X187580273Y-68469091D01*
X187841426Y-68577264D01*
X188118665Y-68632411D01*
X188401335Y-68632411D01*
X188678574Y-68577264D01*
X188939727Y-68469091D01*
X189174759Y-68312048D01*
X189374637Y-68112170D01*
X189530000Y-67879652D01*
X189685363Y-68112170D01*
X189885241Y-68312048D01*
X190120273Y-68469091D01*
X190381426Y-68577264D01*
X190658665Y-68632411D01*
X190941335Y-68632411D01*
X191218574Y-68577264D01*
X191479727Y-68469091D01*
X191714759Y-68312048D01*
X191914637Y-68112170D01*
X192070000Y-67879652D01*
X192225363Y-68112170D01*
X192425241Y-68312048D01*
X192660273Y-68469091D01*
X192921426Y-68577264D01*
X193198665Y-68632411D01*
X193481335Y-68632411D01*
X193758574Y-68577264D01*
X194019727Y-68469091D01*
X194254759Y-68312048D01*
X194454637Y-68112170D01*
X194611680Y-67877138D01*
X194674388Y-67725745D01*
X215259776Y-67725745D01*
X215259776Y-68033039D01*
X215319726Y-68334427D01*
X215437322Y-68618329D01*
X215608045Y-68873834D01*
X215825334Y-69091123D01*
X216080839Y-69261846D01*
X216364741Y-69379442D01*
X216666129Y-69439392D01*
X216973423Y-69439392D01*
X217274811Y-69379442D01*
X217558713Y-69261846D01*
X217814218Y-69091123D01*
X218031507Y-68873834D01*
X218202230Y-68618329D01*
X218319826Y-68334427D01*
X218379776Y-68033039D01*
X218379776Y-67725745D01*
X218319826Y-67424357D01*
X218224485Y-67194183D01*
X224616441Y-67194183D01*
X224616441Y-67503939D01*
X224676871Y-67807742D01*
X224795409Y-68093919D01*
X224967500Y-68351472D01*
X225186530Y-68570502D01*
X225444083Y-68742593D01*
X225730260Y-68861131D01*
X226034063Y-68921561D01*
X226343819Y-68921561D01*
X226647622Y-68861131D01*
X226933799Y-68742593D01*
X227113853Y-68622285D01*
X230165000Y-68622285D01*
X230165000Y-69377715D01*
X230312377Y-70118628D01*
X230601467Y-70816554D01*
X231021161Y-71444670D01*
X231555330Y-71978839D01*
X232183446Y-72398533D01*
X232881372Y-72687623D01*
X233622285Y-72835000D01*
X234377715Y-72835000D01*
X235118628Y-72687623D01*
X235816554Y-72398533D01*
X236444670Y-71978839D01*
X236978839Y-71444670D01*
X237398533Y-70816554D01*
X237687623Y-70118628D01*
X237835000Y-69377715D01*
X237835000Y-68622285D01*
X237687623Y-67881372D01*
X237398533Y-67183446D01*
X236978839Y-66555330D01*
X236444670Y-66021161D01*
X235816554Y-65601467D01*
X235118628Y-65312377D01*
X234377715Y-65165000D01*
X233622285Y-65165000D01*
X232881372Y-65312377D01*
X232183446Y-65601467D01*
X231555330Y-66021161D01*
X231021161Y-66555330D01*
X230601467Y-67183446D01*
X230312377Y-67881372D01*
X230165000Y-68622285D01*
X227113853Y-68622285D01*
X227191352Y-68570502D01*
X227410382Y-68351472D01*
X227582473Y-68093919D01*
X227701011Y-67807742D01*
X227761441Y-67503939D01*
X227761441Y-67194183D01*
X227701011Y-66890380D01*
X227582473Y-66604203D01*
X227410382Y-66346650D01*
X227191352Y-66127620D01*
X226933799Y-65955529D01*
X226647622Y-65836991D01*
X226343819Y-65776561D01*
X226034063Y-65776561D01*
X225730260Y-65836991D01*
X225444083Y-65955529D01*
X225186530Y-66127620D01*
X224967500Y-66346650D01*
X224795409Y-66604203D01*
X224676871Y-66890380D01*
X224616441Y-67194183D01*
X218224485Y-67194183D01*
X218202230Y-67140455D01*
X218031507Y-66884950D01*
X217814218Y-66667661D01*
X217558713Y-66496938D01*
X217274811Y-66379342D01*
X216973423Y-66319392D01*
X216666129Y-66319392D01*
X216364741Y-66379342D01*
X216080839Y-66496938D01*
X215825334Y-66667661D01*
X215608045Y-66884950D01*
X215437322Y-67140455D01*
X215319726Y-67424357D01*
X215259776Y-67725745D01*
X194674388Y-67725745D01*
X194719853Y-67615985D01*
X194775000Y-67338746D01*
X194775000Y-67056076D01*
X194719853Y-66778837D01*
X194611680Y-66517684D01*
X194454637Y-66282652D01*
X194254759Y-66082774D01*
X194019727Y-65925731D01*
X193758574Y-65817558D01*
X193481335Y-65762411D01*
X193198665Y-65762411D01*
X192921426Y-65817558D01*
X192660273Y-65925731D01*
X192425241Y-66082774D01*
X192225363Y-66282652D01*
X192070000Y-66515170D01*
X191914637Y-66282652D01*
X191714759Y-66082774D01*
X191479727Y-65925731D01*
X191218574Y-65817558D01*
X190941335Y-65762411D01*
X190658665Y-65762411D01*
X190381426Y-65817558D01*
X190120273Y-65925731D01*
X189885241Y-66082774D01*
X189685363Y-66282652D01*
X189530000Y-66515170D01*
X189374637Y-66282652D01*
X189174759Y-66082774D01*
X188939727Y-65925731D01*
X188678574Y-65817558D01*
X188401335Y-65762411D01*
X188118665Y-65762411D01*
X187936115Y-65798723D01*
X183316056Y-61178665D01*
X186475000Y-61178665D01*
X186475000Y-61461335D01*
X186530147Y-61738574D01*
X186638320Y-61999727D01*
X186795363Y-62234759D01*
X186995241Y-62434637D01*
X187230273Y-62591680D01*
X187491426Y-62699853D01*
X187768665Y-62755000D01*
X188051335Y-62755000D01*
X188328574Y-62699853D01*
X188589727Y-62591680D01*
X188824759Y-62434637D01*
X189024637Y-62234759D01*
X189181680Y-61999727D01*
X189289853Y-61738574D01*
X189345000Y-61461335D01*
X189345000Y-61178665D01*
X194095000Y-61178665D01*
X194095000Y-61461335D01*
X194150147Y-61738574D01*
X194258320Y-61999727D01*
X194415363Y-62234759D01*
X194615241Y-62434637D01*
X194850273Y-62591680D01*
X195111426Y-62699853D01*
X195388665Y-62755000D01*
X195671335Y-62755000D01*
X195948574Y-62699853D01*
X196209727Y-62591680D01*
X196444759Y-62434637D01*
X196461815Y-62417581D01*
X212278834Y-62417581D01*
X212380881Y-62710044D01*
X212538024Y-62976979D01*
X212744224Y-63208128D01*
X212991557Y-63394608D01*
X213270518Y-63529253D01*
X213442753Y-63581500D01*
X213687573Y-63461435D01*
X213687573Y-62172761D01*
X213941573Y-62172761D01*
X213941573Y-63461435D01*
X214186393Y-63581500D01*
X214478856Y-63479453D01*
X214745791Y-63322310D01*
X214976940Y-63116110D01*
X215163420Y-62868777D01*
X215298065Y-62589816D01*
X215350312Y-62417581D01*
X215230247Y-62172761D01*
X213941573Y-62172761D01*
X213687573Y-62172761D01*
X212398899Y-62172761D01*
X212278834Y-62417581D01*
X196461815Y-62417581D01*
X196644637Y-62234759D01*
X196801680Y-61999727D01*
X196909853Y-61738574D01*
X196922709Y-61673941D01*
X212278834Y-61673941D01*
X212398899Y-61918761D01*
X213687573Y-61918761D01*
X213687573Y-60630087D01*
X213941573Y-60630087D01*
X213941573Y-61918761D01*
X215230247Y-61918761D01*
X215350312Y-61673941D01*
X215248265Y-61381478D01*
X215236671Y-61361783D01*
X221623738Y-61361783D01*
X221623738Y-61669077D01*
X221683688Y-61970465D01*
X221801284Y-62254367D01*
X221972007Y-62509872D01*
X222189296Y-62727161D01*
X222444801Y-62897884D01*
X222728703Y-63015480D01*
X223030091Y-63075430D01*
X223337385Y-63075430D01*
X223638773Y-63015480D01*
X223922675Y-62897884D01*
X224178180Y-62727161D01*
X224395469Y-62509872D01*
X224566192Y-62254367D01*
X224683788Y-61970465D01*
X224743738Y-61669077D01*
X224743738Y-61569052D01*
X225501731Y-61569052D01*
X225603778Y-61861515D01*
X225760921Y-62128450D01*
X225967121Y-62359599D01*
X226214454Y-62546079D01*
X226493415Y-62680724D01*
X226665650Y-62732971D01*
X226910470Y-62612906D01*
X226910470Y-61324232D01*
X227164470Y-61324232D01*
X227164470Y-62612906D01*
X227409290Y-62732971D01*
X227701753Y-62630924D01*
X227968688Y-62473781D01*
X228199837Y-62267581D01*
X228386317Y-62020248D01*
X228520962Y-61741287D01*
X228573209Y-61569052D01*
X228453144Y-61324232D01*
X227164470Y-61324232D01*
X226910470Y-61324232D01*
X225621796Y-61324232D01*
X225501731Y-61569052D01*
X224743738Y-61569052D01*
X224743738Y-61361783D01*
X224683788Y-61060395D01*
X224586455Y-60825412D01*
X225501731Y-60825412D01*
X225621796Y-61070232D01*
X226910470Y-61070232D01*
X226910470Y-59781558D01*
X227164470Y-59781558D01*
X227164470Y-61070232D01*
X228453144Y-61070232D01*
X228573209Y-60825412D01*
X228471162Y-60532949D01*
X228314019Y-60266014D01*
X228107819Y-60034865D01*
X227860486Y-59848385D01*
X227581525Y-59713740D01*
X227409290Y-59661493D01*
X227164470Y-59781558D01*
X226910470Y-59781558D01*
X226665650Y-59661493D01*
X226373187Y-59763540D01*
X226106252Y-59920683D01*
X225875103Y-60126883D01*
X225688623Y-60374216D01*
X225553978Y-60653177D01*
X225501731Y-60825412D01*
X224586455Y-60825412D01*
X224566192Y-60776493D01*
X224395469Y-60520988D01*
X224178180Y-60303699D01*
X223922675Y-60132976D01*
X223638773Y-60015380D01*
X223337385Y-59955430D01*
X223030091Y-59955430D01*
X222728703Y-60015380D01*
X222444801Y-60132976D01*
X222189296Y-60303699D01*
X221972007Y-60520988D01*
X221801284Y-60776493D01*
X221683688Y-61060395D01*
X221623738Y-61361783D01*
X215236671Y-61361783D01*
X215091122Y-61114543D01*
X214884922Y-60883394D01*
X214637589Y-60696914D01*
X214358628Y-60562269D01*
X214186393Y-60510022D01*
X213941573Y-60630087D01*
X213687573Y-60630087D01*
X213442753Y-60510022D01*
X213150290Y-60612069D01*
X212883355Y-60769212D01*
X212652206Y-60975412D01*
X212465726Y-61222745D01*
X212331081Y-61501706D01*
X212278834Y-61673941D01*
X196922709Y-61673941D01*
X196965000Y-61461335D01*
X196965000Y-61178665D01*
X196909853Y-60901426D01*
X196801680Y-60640273D01*
X196644637Y-60405241D01*
X196444759Y-60205363D01*
X196209727Y-60048320D01*
X195948574Y-59940147D01*
X195671335Y-59885000D01*
X195388665Y-59885000D01*
X195111426Y-59940147D01*
X194850273Y-60048320D01*
X194615241Y-60205363D01*
X194415363Y-60405241D01*
X194258320Y-60640273D01*
X194150147Y-60901426D01*
X194095000Y-61178665D01*
X189345000Y-61178665D01*
X189289853Y-60901426D01*
X189181680Y-60640273D01*
X189024637Y-60405241D01*
X188824759Y-60205363D01*
X188589727Y-60048320D01*
X188328574Y-59940147D01*
X188051335Y-59885000D01*
X187768665Y-59885000D01*
X187491426Y-59940147D01*
X187230273Y-60048320D01*
X186995241Y-60205363D01*
X186795363Y-60405241D01*
X186638320Y-60640273D01*
X186530147Y-60901426D01*
X186475000Y-61178665D01*
X183316056Y-61178665D01*
X182126393Y-59989003D01*
X182102590Y-59959999D01*
X181986865Y-59865026D01*
X181854836Y-59794454D01*
X181711575Y-59750997D01*
X181599922Y-59740000D01*
X181599911Y-59740000D01*
X181562589Y-59736324D01*
X181525267Y-59740000D01*
X173085222Y-59740000D01*
X173326136Y-59692079D01*
X173610038Y-59574483D01*
X173865543Y-59403760D01*
X174082832Y-59186471D01*
X174253555Y-58930966D01*
X174371151Y-58647064D01*
X174431101Y-58345676D01*
X174431101Y-58038382D01*
X174371151Y-57736994D01*
X174253555Y-57453092D01*
X174082832Y-57197587D01*
X173865543Y-56980298D01*
X173610038Y-56809575D01*
X173326136Y-56691979D01*
X173165368Y-56660000D01*
X188961928Y-56660000D01*
X188961928Y-58360000D01*
X188974188Y-58484482D01*
X189010498Y-58604180D01*
X189069463Y-58714494D01*
X189148815Y-58811185D01*
X189245506Y-58890537D01*
X189355820Y-58949502D01*
X189475518Y-58985812D01*
X189600000Y-58998072D01*
X191300000Y-58998072D01*
X191424482Y-58985812D01*
X191544180Y-58949502D01*
X191654494Y-58890537D01*
X191751185Y-58811185D01*
X191830537Y-58714494D01*
X191889502Y-58604180D01*
X191911513Y-58531620D01*
X192043368Y-58663475D01*
X192286589Y-58825990D01*
X192556842Y-58937932D01*
X192843740Y-58995000D01*
X193136260Y-58995000D01*
X193423158Y-58937932D01*
X193693411Y-58825990D01*
X193936632Y-58663475D01*
X194143475Y-58456632D01*
X194260000Y-58282240D01*
X194376525Y-58456632D01*
X194583368Y-58663475D01*
X194826589Y-58825990D01*
X195096842Y-58937932D01*
X195383740Y-58995000D01*
X195676260Y-58995000D01*
X195963158Y-58937932D01*
X196233411Y-58825990D01*
X196476632Y-58663475D01*
X196683475Y-58456632D01*
X196800000Y-58282240D01*
X196916525Y-58456632D01*
X197123368Y-58663475D01*
X197366589Y-58825990D01*
X197636842Y-58937932D01*
X197923740Y-58995000D01*
X198216260Y-58995000D01*
X198503158Y-58937932D01*
X198773411Y-58825990D01*
X199016632Y-58663475D01*
X199223475Y-58456632D01*
X199340000Y-58282240D01*
X199456525Y-58456632D01*
X199663368Y-58663475D01*
X199906589Y-58825990D01*
X200176842Y-58937932D01*
X200463740Y-58995000D01*
X200756260Y-58995000D01*
X201043158Y-58937932D01*
X201313411Y-58825990D01*
X201556632Y-58663475D01*
X201763475Y-58456632D01*
X201880000Y-58282240D01*
X201996525Y-58456632D01*
X202203368Y-58663475D01*
X202446589Y-58825990D01*
X202716842Y-58937932D01*
X203003740Y-58995000D01*
X203296260Y-58995000D01*
X203583158Y-58937932D01*
X203853411Y-58825990D01*
X204096632Y-58663475D01*
X204303475Y-58456632D01*
X204420000Y-58282240D01*
X204536525Y-58456632D01*
X204743368Y-58663475D01*
X204986589Y-58825990D01*
X205256842Y-58937932D01*
X205543740Y-58995000D01*
X205836260Y-58995000D01*
X206123158Y-58937932D01*
X206393411Y-58825990D01*
X206636632Y-58663475D01*
X206843475Y-58456632D01*
X206965195Y-58274466D01*
X207034822Y-58391355D01*
X207229731Y-58607588D01*
X207463080Y-58781641D01*
X207725901Y-58906825D01*
X207873110Y-58951476D01*
X208103000Y-58830155D01*
X208103000Y-57637000D01*
X208083000Y-57637000D01*
X208083000Y-57383000D01*
X208103000Y-57383000D01*
X208103000Y-56189845D01*
X208357000Y-56189845D01*
X208357000Y-57383000D01*
X208377000Y-57383000D01*
X208377000Y-57637000D01*
X208357000Y-57637000D01*
X208357000Y-58830155D01*
X208586890Y-58951476D01*
X208734099Y-58906825D01*
X208996920Y-58781641D01*
X209230269Y-58607588D01*
X209425178Y-58391355D01*
X209494805Y-58274466D01*
X209616525Y-58456632D01*
X209823368Y-58663475D01*
X210066589Y-58825990D01*
X210336842Y-58937932D01*
X210623740Y-58995000D01*
X210916260Y-58995000D01*
X211203158Y-58937932D01*
X211473411Y-58825990D01*
X211716632Y-58663475D01*
X211869880Y-58510227D01*
X215386210Y-58510227D01*
X215398470Y-58634709D01*
X215434780Y-58754407D01*
X215493745Y-58864721D01*
X215573097Y-58961412D01*
X216898922Y-60287237D01*
X216995613Y-60366589D01*
X217105927Y-60425554D01*
X217225625Y-60461864D01*
X217350107Y-60474124D01*
X217474589Y-60461864D01*
X217594287Y-60425554D01*
X217704601Y-60366589D01*
X217801292Y-60287237D01*
X219127117Y-58961412D01*
X219206469Y-58864721D01*
X219265434Y-58754407D01*
X219301744Y-58634709D01*
X219314004Y-58510227D01*
X219301744Y-58385745D01*
X219265434Y-58266047D01*
X219206469Y-58155733D01*
X219127117Y-58059042D01*
X218729773Y-57661698D01*
X221538039Y-57661698D01*
X221550299Y-57786180D01*
X221586609Y-57905878D01*
X221645574Y-58016192D01*
X221724926Y-58112883D01*
X223050751Y-59438708D01*
X223147442Y-59518060D01*
X223257756Y-59577025D01*
X223377454Y-59613335D01*
X223501936Y-59625595D01*
X223626418Y-59613335D01*
X223746116Y-59577025D01*
X223856430Y-59518060D01*
X223953121Y-59438708D01*
X225278946Y-58112883D01*
X225340087Y-58038382D01*
X231311101Y-58038382D01*
X231311101Y-58345676D01*
X231371051Y-58647064D01*
X231488647Y-58930966D01*
X231659370Y-59186471D01*
X231876659Y-59403760D01*
X232132164Y-59574483D01*
X232416066Y-59692079D01*
X232717454Y-59752029D01*
X233024748Y-59752029D01*
X233326136Y-59692079D01*
X233610038Y-59574483D01*
X233865543Y-59403760D01*
X234082832Y-59186471D01*
X234253555Y-58930966D01*
X234371151Y-58647064D01*
X234431101Y-58345676D01*
X234431101Y-58038382D01*
X234371151Y-57736994D01*
X234253555Y-57453092D01*
X234082832Y-57197587D01*
X233865543Y-56980298D01*
X233610038Y-56809575D01*
X233326136Y-56691979D01*
X233024748Y-56632029D01*
X232717454Y-56632029D01*
X232416066Y-56691979D01*
X232132164Y-56809575D01*
X231876659Y-56980298D01*
X231659370Y-57197587D01*
X231488647Y-57453092D01*
X231371051Y-57736994D01*
X231311101Y-58038382D01*
X225340087Y-58038382D01*
X225358298Y-58016192D01*
X225417263Y-57905878D01*
X225453573Y-57786180D01*
X225465833Y-57661698D01*
X225453573Y-57537216D01*
X225417263Y-57417518D01*
X225358298Y-57307204D01*
X225278946Y-57210513D01*
X223953121Y-55884688D01*
X223856430Y-55805336D01*
X223746116Y-55746371D01*
X223626418Y-55710061D01*
X223501936Y-55697801D01*
X223377454Y-55710061D01*
X223257756Y-55746371D01*
X223147442Y-55805336D01*
X223050751Y-55884688D01*
X221724926Y-57210513D01*
X221645574Y-57307204D01*
X221586609Y-57417518D01*
X221550299Y-57537216D01*
X221538039Y-57661698D01*
X218729773Y-57661698D01*
X217801292Y-56733217D01*
X217704601Y-56653865D01*
X217594287Y-56594900D01*
X217474589Y-56558590D01*
X217350107Y-56546330D01*
X217225625Y-56558590D01*
X217105927Y-56594900D01*
X216995613Y-56653865D01*
X216898922Y-56733217D01*
X215573097Y-58059042D01*
X215493745Y-58155733D01*
X215434780Y-58266047D01*
X215398470Y-58385745D01*
X215386210Y-58510227D01*
X211869880Y-58510227D01*
X211923475Y-58456632D01*
X212085990Y-58213411D01*
X212197932Y-57943158D01*
X212255000Y-57656260D01*
X212255000Y-57363740D01*
X212197932Y-57076842D01*
X212085990Y-56806589D01*
X211923475Y-56563368D01*
X211716632Y-56356525D01*
X211473411Y-56194010D01*
X211203158Y-56082068D01*
X210916260Y-56025000D01*
X210623740Y-56025000D01*
X210336842Y-56082068D01*
X210066589Y-56194010D01*
X209823368Y-56356525D01*
X209616525Y-56563368D01*
X209494805Y-56745534D01*
X209425178Y-56628645D01*
X209230269Y-56412412D01*
X208996920Y-56238359D01*
X208734099Y-56113175D01*
X208586890Y-56068524D01*
X208357000Y-56189845D01*
X208103000Y-56189845D01*
X207873110Y-56068524D01*
X207725901Y-56113175D01*
X207463080Y-56238359D01*
X207229731Y-56412412D01*
X207034822Y-56628645D01*
X206965195Y-56745534D01*
X206843475Y-56563368D01*
X206636632Y-56356525D01*
X206393411Y-56194010D01*
X206123158Y-56082068D01*
X205836260Y-56025000D01*
X205543740Y-56025000D01*
X205256842Y-56082068D01*
X204986589Y-56194010D01*
X204743368Y-56356525D01*
X204536525Y-56563368D01*
X204420000Y-56737760D01*
X204303475Y-56563368D01*
X204096632Y-56356525D01*
X203853411Y-56194010D01*
X203583158Y-56082068D01*
X203296260Y-56025000D01*
X203003740Y-56025000D01*
X202716842Y-56082068D01*
X202446589Y-56194010D01*
X202203368Y-56356525D01*
X201996525Y-56563368D01*
X201880000Y-56737760D01*
X201763475Y-56563368D01*
X201556632Y-56356525D01*
X201313411Y-56194010D01*
X201043158Y-56082068D01*
X200756260Y-56025000D01*
X200463740Y-56025000D01*
X200176842Y-56082068D01*
X199906589Y-56194010D01*
X199663368Y-56356525D01*
X199456525Y-56563368D01*
X199340000Y-56737760D01*
X199223475Y-56563368D01*
X199016632Y-56356525D01*
X198773411Y-56194010D01*
X198503158Y-56082068D01*
X198216260Y-56025000D01*
X197923740Y-56025000D01*
X197636842Y-56082068D01*
X197366589Y-56194010D01*
X197123368Y-56356525D01*
X196916525Y-56563368D01*
X196800000Y-56737760D01*
X196683475Y-56563368D01*
X196476632Y-56356525D01*
X196233411Y-56194010D01*
X195963158Y-56082068D01*
X195676260Y-56025000D01*
X195383740Y-56025000D01*
X195096842Y-56082068D01*
X194826589Y-56194010D01*
X194583368Y-56356525D01*
X194376525Y-56563368D01*
X194260000Y-56737760D01*
X194143475Y-56563368D01*
X193936632Y-56356525D01*
X193693411Y-56194010D01*
X193423158Y-56082068D01*
X193136260Y-56025000D01*
X192843740Y-56025000D01*
X192556842Y-56082068D01*
X192286589Y-56194010D01*
X192043368Y-56356525D01*
X191911513Y-56488380D01*
X191889502Y-56415820D01*
X191830537Y-56305506D01*
X191751185Y-56208815D01*
X191654494Y-56129463D01*
X191544180Y-56070498D01*
X191424482Y-56034188D01*
X191300000Y-56021928D01*
X189600000Y-56021928D01*
X189475518Y-56034188D01*
X189355820Y-56070498D01*
X189245506Y-56129463D01*
X189148815Y-56208815D01*
X189069463Y-56305506D01*
X189010498Y-56415820D01*
X188974188Y-56535518D01*
X188961928Y-56660000D01*
X173165368Y-56660000D01*
X173024748Y-56632029D01*
X172717454Y-56632029D01*
X172416066Y-56691979D01*
X172132164Y-56809575D01*
X171876659Y-56980298D01*
X171659370Y-57197587D01*
X171488647Y-57453092D01*
X171371051Y-57736994D01*
X171311101Y-58038382D01*
X171311101Y-58336300D01*
X170125502Y-57150701D01*
X170101699Y-57121697D01*
X169985974Y-57026724D01*
X169853945Y-56956152D01*
X169710684Y-56912695D01*
X169599031Y-56901698D01*
X169599020Y-56901698D01*
X169561698Y-56898022D01*
X169524376Y-56901698D01*
X164970131Y-56901698D01*
X163953121Y-55884688D01*
X163856430Y-55805336D01*
X163746116Y-55746371D01*
X163626418Y-55710061D01*
X163501936Y-55697801D01*
X163377454Y-55710061D01*
X163257756Y-55746371D01*
X163147442Y-55805336D01*
X163050751Y-55884688D01*
X161724926Y-57210513D01*
X161645574Y-57307204D01*
X161586609Y-57417518D01*
X161550299Y-57537216D01*
X161538039Y-57661698D01*
X161550299Y-57786180D01*
X161586609Y-57905878D01*
X161645574Y-58016192D01*
X161724926Y-58112883D01*
X162652043Y-59040000D01*
X159048529Y-59040000D01*
X159127117Y-58961412D01*
X159206469Y-58864721D01*
X159265434Y-58754407D01*
X159301744Y-58634709D01*
X159314004Y-58510227D01*
X159301744Y-58385745D01*
X159265434Y-58266047D01*
X159206469Y-58155733D01*
X159127117Y-58059042D01*
X157801292Y-56733217D01*
X157704601Y-56653865D01*
X157594287Y-56594900D01*
X157474589Y-56558590D01*
X157350107Y-56546330D01*
X157225625Y-56558590D01*
X157105927Y-56594900D01*
X156995613Y-56653865D01*
X156898922Y-56733217D01*
X155573097Y-58059042D01*
X155493745Y-58155733D01*
X155434780Y-58266047D01*
X155398470Y-58385745D01*
X155386210Y-58510227D01*
X155023642Y-58510227D01*
X155056374Y-58345676D01*
X155056374Y-58038382D01*
X154996424Y-57736994D01*
X154878828Y-57453092D01*
X154708105Y-57197587D01*
X154490816Y-56980298D01*
X154235311Y-56809575D01*
X153951409Y-56691979D01*
X153650021Y-56632029D01*
X153342727Y-56632029D01*
X153041339Y-56691979D01*
X152757437Y-56809575D01*
X152501932Y-56980298D01*
X152284643Y-57197587D01*
X152113920Y-57453092D01*
X151996324Y-57736994D01*
X151936374Y-58038382D01*
X145965360Y-58038382D01*
X145983571Y-58016192D01*
X146042536Y-57905878D01*
X146078846Y-57786180D01*
X146091106Y-57661698D01*
X146078846Y-57537216D01*
X146042536Y-57417518D01*
X145983571Y-57307204D01*
X145904219Y-57210513D01*
X144578394Y-55884688D01*
X144481703Y-55805336D01*
X144371389Y-55746371D01*
X144251691Y-55710061D01*
X144127209Y-55697801D01*
X144002727Y-55710061D01*
X143883029Y-55746371D01*
X143772715Y-55805336D01*
X143676024Y-55884688D01*
X142350199Y-57210513D01*
X142270847Y-57307204D01*
X142211882Y-57417518D01*
X142175572Y-57537216D01*
X142163312Y-57661698D01*
X140710000Y-57661698D01*
X140710000Y-51674420D01*
X145572412Y-51674420D01*
X145572412Y-51981714D01*
X145632362Y-52283102D01*
X145749958Y-52567004D01*
X145920681Y-52822509D01*
X146137970Y-53039798D01*
X146393475Y-53210521D01*
X146677377Y-53328117D01*
X146978765Y-53388067D01*
X147286059Y-53388067D01*
X147587447Y-53328117D01*
X147871349Y-53210521D01*
X148126854Y-53039798D01*
X148344143Y-52822509D01*
X148514866Y-52567004D01*
X148632462Y-52283102D01*
X148648291Y-52203520D01*
X154929077Y-52203520D01*
X154929077Y-52513276D01*
X154989507Y-52817079D01*
X155108045Y-53103256D01*
X155280136Y-53360809D01*
X155499166Y-53579839D01*
X155756719Y-53751930D01*
X156042896Y-53870468D01*
X156346699Y-53930898D01*
X156656455Y-53930898D01*
X156960258Y-53870468D01*
X157246435Y-53751930D01*
X157503988Y-53579839D01*
X157723018Y-53360809D01*
X157895109Y-53103256D01*
X158013647Y-52817079D01*
X158074077Y-52513276D01*
X158074077Y-52203520D01*
X158013647Y-51899717D01*
X157895109Y-51613540D01*
X157723018Y-51355987D01*
X157722022Y-51354991D01*
X161080907Y-51354991D01*
X161080907Y-51664747D01*
X161141337Y-51968550D01*
X161259875Y-52254727D01*
X161431966Y-52512280D01*
X161650996Y-52731310D01*
X161908549Y-52903401D01*
X162194726Y-53021939D01*
X162498529Y-53082369D01*
X162808285Y-53082369D01*
X163112088Y-53021939D01*
X163398265Y-52903401D01*
X163655818Y-52731310D01*
X163874848Y-52512280D01*
X164046939Y-52254727D01*
X164165477Y-51968550D01*
X164223982Y-51674420D01*
X164947139Y-51674420D01*
X164947139Y-51981714D01*
X165007089Y-52283102D01*
X165124685Y-52567004D01*
X165295408Y-52822509D01*
X165512697Y-53039798D01*
X165768202Y-53210521D01*
X166052104Y-53328117D01*
X166353492Y-53388067D01*
X166660786Y-53388067D01*
X166962174Y-53328117D01*
X167246076Y-53210521D01*
X167501581Y-53039798D01*
X167718870Y-52822509D01*
X167889593Y-52567004D01*
X168007189Y-52283102D01*
X168023018Y-52203520D01*
X174303804Y-52203520D01*
X174303804Y-52513276D01*
X174364234Y-52817079D01*
X174482772Y-53103256D01*
X174654863Y-53360809D01*
X174873893Y-53579839D01*
X175131446Y-53751930D01*
X175417623Y-53870468D01*
X175721426Y-53930898D01*
X176031182Y-53930898D01*
X176334985Y-53870468D01*
X176621162Y-53751930D01*
X176878715Y-53579839D01*
X177097745Y-53360809D01*
X177269836Y-53103256D01*
X177388374Y-52817079D01*
X177448804Y-52513276D01*
X177448804Y-52243967D01*
X179925000Y-52243967D01*
X179925000Y-52566033D01*
X179987832Y-52881912D01*
X180111082Y-53179463D01*
X180290013Y-53447252D01*
X180517748Y-53674987D01*
X180785537Y-53853918D01*
X181083088Y-53977168D01*
X181398967Y-54040000D01*
X181721033Y-54040000D01*
X181906525Y-54003104D01*
X182198470Y-54295049D01*
X182226183Y-54328817D01*
X182259951Y-54356530D01*
X182259953Y-54356532D01*
X182360941Y-54439411D01*
X182514686Y-54521589D01*
X182681510Y-54572195D01*
X182811523Y-54585000D01*
X182811531Y-54585000D01*
X182855000Y-54589281D01*
X182898469Y-54585000D01*
X184017553Y-54585000D01*
X184037818Y-54651807D01*
X184171068Y-54901100D01*
X184350392Y-55119607D01*
X184568899Y-55298932D01*
X184818192Y-55432182D01*
X185088691Y-55514236D01*
X185370000Y-55541943D01*
X185651308Y-55514236D01*
X185921807Y-55432182D01*
X186171100Y-55298932D01*
X186389607Y-55119608D01*
X186568932Y-54901101D01*
X186640000Y-54768142D01*
X186711068Y-54901100D01*
X186890392Y-55119607D01*
X187108899Y-55298932D01*
X187358192Y-55432182D01*
X187628691Y-55514236D01*
X187910000Y-55541943D01*
X188191308Y-55514236D01*
X188461807Y-55432182D01*
X188711100Y-55298932D01*
X188929607Y-55119608D01*
X189108932Y-54901101D01*
X189180000Y-54768142D01*
X189251068Y-54901100D01*
X189430392Y-55119607D01*
X189648899Y-55298932D01*
X189898192Y-55432182D01*
X190168691Y-55514236D01*
X190450000Y-55541943D01*
X190731308Y-55514236D01*
X191001807Y-55432182D01*
X191251100Y-55298932D01*
X191469607Y-55119608D01*
X191648932Y-54901101D01*
X191720000Y-54768142D01*
X191791068Y-54901100D01*
X191970392Y-55119607D01*
X192188899Y-55298932D01*
X192438192Y-55432182D01*
X192708691Y-55514236D01*
X192990000Y-55541943D01*
X193271308Y-55514236D01*
X193541807Y-55432182D01*
X193791100Y-55298932D01*
X194009607Y-55119608D01*
X194188932Y-54901101D01*
X194260000Y-54768142D01*
X194331068Y-54901100D01*
X194510392Y-55119607D01*
X194728899Y-55298932D01*
X194978192Y-55432182D01*
X195248691Y-55514236D01*
X195530000Y-55541943D01*
X195811308Y-55514236D01*
X196081807Y-55432182D01*
X196331100Y-55298932D01*
X196549607Y-55119608D01*
X196728932Y-54901101D01*
X196800000Y-54768142D01*
X196871068Y-54901100D01*
X197050392Y-55119607D01*
X197268899Y-55298932D01*
X197518192Y-55432182D01*
X197788691Y-55514236D01*
X198070000Y-55541943D01*
X198351308Y-55514236D01*
X198621807Y-55432182D01*
X198871100Y-55298932D01*
X199089607Y-55119608D01*
X199268932Y-54901101D01*
X199340000Y-54768142D01*
X199411068Y-54901100D01*
X199590392Y-55119607D01*
X199808899Y-55298932D01*
X200058192Y-55432182D01*
X200328691Y-55514236D01*
X200610000Y-55541943D01*
X200891308Y-55514236D01*
X201161807Y-55432182D01*
X201411100Y-55298932D01*
X201629607Y-55119608D01*
X201808932Y-54901101D01*
X201880000Y-54768142D01*
X201951068Y-54901100D01*
X202130392Y-55119607D01*
X202348899Y-55298932D01*
X202598192Y-55432182D01*
X202868691Y-55514236D01*
X203150000Y-55541943D01*
X203431308Y-55514236D01*
X203701807Y-55432182D01*
X203951100Y-55298932D01*
X204169607Y-55119608D01*
X204348932Y-54901101D01*
X204420000Y-54768142D01*
X204491068Y-54901100D01*
X204670392Y-55119607D01*
X204888899Y-55298932D01*
X205138192Y-55432182D01*
X205408691Y-55514236D01*
X205690000Y-55541943D01*
X205971308Y-55514236D01*
X206241807Y-55432182D01*
X206491100Y-55298932D01*
X206709607Y-55119608D01*
X206888932Y-54901101D01*
X206960000Y-54768142D01*
X207031068Y-54901100D01*
X207210392Y-55119607D01*
X207428899Y-55298932D01*
X207678192Y-55432182D01*
X207948691Y-55514236D01*
X208230000Y-55541943D01*
X208511308Y-55514236D01*
X208781807Y-55432182D01*
X209031100Y-55298932D01*
X209249607Y-55119608D01*
X209428932Y-54901101D01*
X209562182Y-54651808D01*
X209644236Y-54381309D01*
X209665000Y-54170492D01*
X209665000Y-53812665D01*
X211875000Y-53812665D01*
X211875000Y-54095335D01*
X211930147Y-54372574D01*
X212038320Y-54633727D01*
X212195363Y-54868759D01*
X212395241Y-55068637D01*
X212630273Y-55225680D01*
X212891426Y-55333853D01*
X213168665Y-55389000D01*
X213451335Y-55389000D01*
X213728574Y-55333853D01*
X213989727Y-55225680D01*
X214224759Y-55068637D01*
X214424637Y-54868759D01*
X214581680Y-54633727D01*
X214689853Y-54372574D01*
X214745000Y-54095335D01*
X214745000Y-53812665D01*
X214689853Y-53535426D01*
X214581680Y-53274273D01*
X214424637Y-53039241D01*
X214224759Y-52839363D01*
X213989727Y-52682320D01*
X213728574Y-52574147D01*
X213451335Y-52519000D01*
X213168665Y-52519000D01*
X212891426Y-52574147D01*
X212630273Y-52682320D01*
X212395241Y-52839363D01*
X212195363Y-53039241D01*
X212038320Y-53274273D01*
X211930147Y-53535426D01*
X211875000Y-53812665D01*
X209665000Y-53812665D01*
X209665000Y-53229509D01*
X209644236Y-53018691D01*
X209562182Y-52748192D01*
X209428932Y-52498899D01*
X209249608Y-52280392D01*
X209031101Y-52101068D01*
X208781808Y-51967818D01*
X208624171Y-51920000D01*
X216790199Y-51920000D01*
X217001928Y-52131730D01*
X217001928Y-53195000D01*
X217014188Y-53319482D01*
X217050498Y-53439180D01*
X217109463Y-53549494D01*
X217188815Y-53646185D01*
X217285506Y-53725537D01*
X217395820Y-53784502D01*
X217515518Y-53820812D01*
X217640000Y-53833072D01*
X219140000Y-53833072D01*
X219264482Y-53820812D01*
X219384180Y-53784502D01*
X219494494Y-53725537D01*
X219591185Y-53646185D01*
X219670537Y-53549494D01*
X219729502Y-53439180D01*
X219765812Y-53319482D01*
X219778072Y-53195000D01*
X219778072Y-51695000D01*
X219776046Y-51674420D01*
X224947139Y-51674420D01*
X224947139Y-51981714D01*
X225007089Y-52283102D01*
X225124685Y-52567004D01*
X225295408Y-52822509D01*
X225512697Y-53039798D01*
X225768202Y-53210521D01*
X226052104Y-53328117D01*
X226353492Y-53388067D01*
X226660786Y-53388067D01*
X226962174Y-53328117D01*
X227246076Y-53210521D01*
X227501581Y-53039798D01*
X227718870Y-52822509D01*
X227889593Y-52567004D01*
X228007189Y-52283102D01*
X228023018Y-52203520D01*
X234303804Y-52203520D01*
X234303804Y-52513276D01*
X234364234Y-52817079D01*
X234482772Y-53103256D01*
X234654863Y-53360809D01*
X234873893Y-53579839D01*
X235131446Y-53751930D01*
X235417623Y-53870468D01*
X235721426Y-53930898D01*
X236031182Y-53930898D01*
X236334985Y-53870468D01*
X236621162Y-53751930D01*
X236878715Y-53579839D01*
X237097745Y-53360809D01*
X237269836Y-53103256D01*
X237388374Y-52817079D01*
X237448804Y-52513276D01*
X237448804Y-52203520D01*
X237388374Y-51899717D01*
X237269836Y-51613540D01*
X237097745Y-51355987D01*
X236878715Y-51136957D01*
X236621162Y-50964866D01*
X236334985Y-50846328D01*
X236031182Y-50785898D01*
X235721426Y-50785898D01*
X235417623Y-50846328D01*
X235131446Y-50964866D01*
X234873893Y-51136957D01*
X234654863Y-51355987D01*
X234482772Y-51613540D01*
X234364234Y-51899717D01*
X234303804Y-52203520D01*
X228023018Y-52203520D01*
X228067139Y-51981714D01*
X228067139Y-51674420D01*
X228007189Y-51373032D01*
X227889593Y-51089130D01*
X227718870Y-50833625D01*
X227501581Y-50616336D01*
X227246076Y-50445613D01*
X226962174Y-50328017D01*
X226660786Y-50268067D01*
X226353492Y-50268067D01*
X226052104Y-50328017D01*
X225768202Y-50445613D01*
X225512697Y-50616336D01*
X225295408Y-50833625D01*
X225124685Y-51089130D01*
X225007089Y-51373032D01*
X224947139Y-51674420D01*
X219776046Y-51674420D01*
X219765812Y-51570518D01*
X219729502Y-51450820D01*
X219670537Y-51340506D01*
X219591185Y-51243815D01*
X219494494Y-51164463D01*
X219384180Y-51105498D01*
X219264482Y-51069188D01*
X219156517Y-51058555D01*
X219272886Y-50980799D01*
X219465799Y-50787886D01*
X219617371Y-50561043D01*
X219721775Y-50308989D01*
X219775000Y-50041411D01*
X219775000Y-49768589D01*
X219721775Y-49501011D01*
X219617371Y-49248957D01*
X219465799Y-49022114D01*
X219272886Y-48829201D01*
X219046043Y-48677629D01*
X219022763Y-48667986D01*
X230768270Y-48667986D01*
X230768270Y-48977742D01*
X230828700Y-49281545D01*
X230947238Y-49567722D01*
X231119329Y-49825275D01*
X231338359Y-50044305D01*
X231595912Y-50216396D01*
X231882089Y-50334934D01*
X232185892Y-50395364D01*
X232495648Y-50395364D01*
X232799451Y-50334934D01*
X233085628Y-50216396D01*
X233343181Y-50044305D01*
X233562211Y-49825275D01*
X233734302Y-49567722D01*
X233852840Y-49281545D01*
X233913270Y-48977742D01*
X233913270Y-48667986D01*
X233852840Y-48364183D01*
X233734302Y-48078006D01*
X233562211Y-47820453D01*
X233343181Y-47601423D01*
X233085628Y-47429332D01*
X232799451Y-47310794D01*
X232495648Y-47250364D01*
X232185892Y-47250364D01*
X231882089Y-47310794D01*
X231595912Y-47429332D01*
X231338359Y-47601423D01*
X231119329Y-47820453D01*
X230947238Y-48078006D01*
X230828700Y-48364183D01*
X230768270Y-48667986D01*
X219022763Y-48667986D01*
X218946721Y-48636489D01*
X218988832Y-48621277D01*
X219101863Y-48560860D01*
X219167388Y-48321993D01*
X218390000Y-47544605D01*
X217612612Y-48321993D01*
X217678137Y-48560860D01*
X217836477Y-48635164D01*
X217733957Y-48677629D01*
X217507114Y-48829201D01*
X217314201Y-49022114D01*
X217232091Y-49145000D01*
X215671802Y-49145000D01*
X214075302Y-47548501D01*
X214224759Y-47448637D01*
X214235904Y-47437492D01*
X217000188Y-47437492D01*
X217041035Y-47707238D01*
X217133723Y-47963832D01*
X217194140Y-48076863D01*
X217433007Y-48142388D01*
X218210395Y-47365000D01*
X218569605Y-47365000D01*
X219346993Y-48142388D01*
X219585860Y-48076863D01*
X219701760Y-47829884D01*
X219767250Y-47565040D01*
X219779812Y-47292508D01*
X219738965Y-47022762D01*
X219646277Y-46766168D01*
X219585860Y-46653137D01*
X219346993Y-46587612D01*
X218569605Y-47365000D01*
X218210395Y-47365000D01*
X217433007Y-46587612D01*
X217194140Y-46653137D01*
X217078240Y-46900116D01*
X217012750Y-47164960D01*
X217000188Y-47437492D01*
X214235904Y-47437492D01*
X214424637Y-47248759D01*
X214581680Y-47013727D01*
X214689853Y-46752574D01*
X214745000Y-46475335D01*
X214745000Y-46408007D01*
X217612612Y-46408007D01*
X218390000Y-47185395D01*
X219167388Y-46408007D01*
X219101863Y-46169140D01*
X218854884Y-46053240D01*
X218590040Y-45987750D01*
X218317508Y-45975188D01*
X218047762Y-46016035D01*
X217791168Y-46108723D01*
X217678137Y-46169140D01*
X217612612Y-46408007D01*
X214745000Y-46408007D01*
X214745000Y-46192665D01*
X214689853Y-45915426D01*
X214581680Y-45654273D01*
X214424637Y-45419241D01*
X214224759Y-45219363D01*
X213989727Y-45062320D01*
X213728574Y-44954147D01*
X213451335Y-44899000D01*
X213168665Y-44899000D01*
X212891426Y-44954147D01*
X212630273Y-45062320D01*
X212395241Y-45219363D01*
X212195363Y-45419241D01*
X212038320Y-45654273D01*
X211930147Y-45915426D01*
X211875000Y-46192665D01*
X211875000Y-46475335D01*
X211930147Y-46752574D01*
X212038320Y-47013727D01*
X212195363Y-47248759D01*
X212395241Y-47448637D01*
X212550000Y-47552044D01*
X212550000Y-47820677D01*
X212546324Y-47858000D01*
X212550000Y-47895322D01*
X212550000Y-47895332D01*
X212560997Y-48006985D01*
X212582194Y-48076863D01*
X212604454Y-48150246D01*
X212675026Y-48282276D01*
X212699307Y-48311862D01*
X212769999Y-48398001D01*
X212799003Y-48421804D01*
X214777198Y-50400000D01*
X190487322Y-50400000D01*
X190449999Y-50396324D01*
X190412676Y-50400000D01*
X190412667Y-50400000D01*
X190301014Y-50410997D01*
X190157753Y-50454454D01*
X190025724Y-50525026D01*
X190025722Y-50525027D01*
X190025723Y-50525027D01*
X189938996Y-50596201D01*
X189938992Y-50596205D01*
X189909999Y-50619999D01*
X189886205Y-50648992D01*
X188530606Y-52004592D01*
X188461808Y-51967818D01*
X188191309Y-51885764D01*
X187910000Y-51858057D01*
X187628692Y-51885764D01*
X187358193Y-51967818D01*
X187108900Y-52101068D01*
X186890393Y-52280392D01*
X186711068Y-52498899D01*
X186640000Y-52631858D01*
X186568932Y-52498899D01*
X186389608Y-52280392D01*
X186171101Y-52101068D01*
X185921808Y-51967818D01*
X185651309Y-51885764D01*
X185370000Y-51858057D01*
X185088692Y-51885764D01*
X184818193Y-51967818D01*
X184568900Y-52101068D01*
X184350393Y-52280392D01*
X184171068Y-52498899D01*
X184037818Y-52748192D01*
X184017552Y-52815000D01*
X183221579Y-52815000D01*
X183158104Y-52751525D01*
X183195000Y-52566033D01*
X183195000Y-52243967D01*
X183132168Y-51928088D01*
X183008918Y-51630537D01*
X182829987Y-51362748D01*
X182602252Y-51135013D01*
X182334463Y-50956082D01*
X182036912Y-50832832D01*
X181721033Y-50770000D01*
X181398967Y-50770000D01*
X181083088Y-50832832D01*
X180785537Y-50956082D01*
X180517748Y-51135013D01*
X180290013Y-51362748D01*
X180111082Y-51630537D01*
X179987832Y-51928088D01*
X179925000Y-52243967D01*
X177448804Y-52243967D01*
X177448804Y-52203520D01*
X177388374Y-51899717D01*
X177269836Y-51613540D01*
X177097745Y-51355987D01*
X176878715Y-51136957D01*
X176621162Y-50964866D01*
X176334985Y-50846328D01*
X176031182Y-50785898D01*
X175721426Y-50785898D01*
X175417623Y-50846328D01*
X175131446Y-50964866D01*
X174873893Y-51136957D01*
X174654863Y-51355987D01*
X174482772Y-51613540D01*
X174364234Y-51899717D01*
X174303804Y-52203520D01*
X168023018Y-52203520D01*
X168067139Y-51981714D01*
X168067139Y-51674420D01*
X168007189Y-51373032D01*
X167889593Y-51089130D01*
X167718870Y-50833625D01*
X167501581Y-50616336D01*
X167246076Y-50445613D01*
X166962174Y-50328017D01*
X166660786Y-50268067D01*
X166353492Y-50268067D01*
X166052104Y-50328017D01*
X165768202Y-50445613D01*
X165512697Y-50616336D01*
X165295408Y-50833625D01*
X165124685Y-51089130D01*
X165007089Y-51373032D01*
X164947139Y-51674420D01*
X164223982Y-51674420D01*
X164225907Y-51664747D01*
X164225907Y-51354991D01*
X164165477Y-51051188D01*
X164046939Y-50765011D01*
X163874848Y-50507458D01*
X163655818Y-50288428D01*
X163398265Y-50116337D01*
X163112088Y-49997799D01*
X162808285Y-49937369D01*
X162498529Y-49937369D01*
X162194726Y-49997799D01*
X161908549Y-50116337D01*
X161650996Y-50288428D01*
X161431966Y-50507458D01*
X161259875Y-50765011D01*
X161141337Y-51051188D01*
X161080907Y-51354991D01*
X157722022Y-51354991D01*
X157503988Y-51136957D01*
X157246435Y-50964866D01*
X156960258Y-50846328D01*
X156656455Y-50785898D01*
X156346699Y-50785898D01*
X156042896Y-50846328D01*
X155756719Y-50964866D01*
X155499166Y-51136957D01*
X155280136Y-51355987D01*
X155108045Y-51613540D01*
X154989507Y-51899717D01*
X154929077Y-52203520D01*
X148648291Y-52203520D01*
X148692412Y-51981714D01*
X148692412Y-51674420D01*
X148632462Y-51373032D01*
X148514866Y-51089130D01*
X148344143Y-50833625D01*
X148126854Y-50616336D01*
X147871349Y-50445613D01*
X147587447Y-50328017D01*
X147286059Y-50268067D01*
X146978765Y-50268067D01*
X146677377Y-50328017D01*
X146393475Y-50445613D01*
X146137970Y-50616336D01*
X145920681Y-50833625D01*
X145749958Y-51089130D01*
X145632362Y-51373032D01*
X145572412Y-51674420D01*
X140710000Y-51674420D01*
X140710000Y-48667986D01*
X151393543Y-48667986D01*
X151393543Y-48977742D01*
X151453973Y-49281545D01*
X151572511Y-49567722D01*
X151744602Y-49825275D01*
X151963632Y-50044305D01*
X152221185Y-50216396D01*
X152507362Y-50334934D01*
X152811165Y-50395364D01*
X153120921Y-50395364D01*
X153424724Y-50334934D01*
X153710901Y-50216396D01*
X153968454Y-50044305D01*
X154187484Y-49825275D01*
X154359575Y-49567722D01*
X154478113Y-49281545D01*
X154538543Y-48977742D01*
X154538543Y-48667986D01*
X154481666Y-48382043D01*
X154512690Y-48351019D01*
X155259776Y-48351019D01*
X155259776Y-48658313D01*
X155319726Y-48959701D01*
X155437322Y-49243603D01*
X155608045Y-49499108D01*
X155825334Y-49716397D01*
X156080839Y-49887120D01*
X156364741Y-50004716D01*
X156666129Y-50064666D01*
X156973423Y-50064666D01*
X157274811Y-50004716D01*
X157558713Y-49887120D01*
X157814218Y-49716397D01*
X158031507Y-49499108D01*
X158202230Y-49243603D01*
X158319826Y-48959701D01*
X158379776Y-48658313D01*
X158379776Y-48351019D01*
X158319826Y-48049631D01*
X158202230Y-47765729D01*
X158031507Y-47510224D01*
X157814218Y-47292935D01*
X157558713Y-47122212D01*
X157274811Y-47004616D01*
X156973423Y-46944666D01*
X156666129Y-46944666D01*
X156364741Y-47004616D01*
X156080839Y-47122212D01*
X155825334Y-47292935D01*
X155608045Y-47510224D01*
X155437322Y-47765729D01*
X155319726Y-48049631D01*
X155259776Y-48351019D01*
X154512690Y-48351019D01*
X158563709Y-44300000D01*
X168788474Y-44300000D01*
X166629762Y-46458712D01*
X166343819Y-46401835D01*
X166034063Y-46401835D01*
X165730260Y-46462265D01*
X165444083Y-46580803D01*
X165186530Y-46752894D01*
X164967500Y-46971924D01*
X164795409Y-47229477D01*
X164676871Y-47515654D01*
X164616441Y-47819457D01*
X164616441Y-48129213D01*
X164676871Y-48433016D01*
X164795409Y-48719193D01*
X164967500Y-48976746D01*
X165186530Y-49195776D01*
X165444083Y-49367867D01*
X165730260Y-49486405D01*
X166034063Y-49546835D01*
X166343819Y-49546835D01*
X166647622Y-49486405D01*
X166933799Y-49367867D01*
X167191352Y-49195776D01*
X167410382Y-48976746D01*
X167582473Y-48719193D01*
X167603683Y-48667986D01*
X170768270Y-48667986D01*
X170768270Y-48977742D01*
X170828700Y-49281545D01*
X170947238Y-49567722D01*
X171119329Y-49825275D01*
X171338359Y-50044305D01*
X171595912Y-50216396D01*
X171882089Y-50334934D01*
X172185892Y-50395364D01*
X172495648Y-50395364D01*
X172799451Y-50334934D01*
X173085628Y-50216396D01*
X173343181Y-50044305D01*
X173562211Y-49825275D01*
X173734302Y-49567722D01*
X173852840Y-49281545D01*
X173913270Y-48977742D01*
X173913270Y-48667986D01*
X173887895Y-48540413D01*
X180604192Y-48540413D01*
X180699956Y-48804814D01*
X180989571Y-48945704D01*
X181301108Y-49027384D01*
X181622595Y-49046718D01*
X181941675Y-49002961D01*
X182246088Y-48897795D01*
X182420044Y-48804814D01*
X182515808Y-48540413D01*
X181560000Y-47584605D01*
X180604192Y-48540413D01*
X173887895Y-48540413D01*
X173852840Y-48364183D01*
X173734302Y-48078006D01*
X173562211Y-47820453D01*
X173343181Y-47601423D01*
X173142893Y-47467595D01*
X179918282Y-47467595D01*
X179962039Y-47786675D01*
X180067205Y-48091088D01*
X180160186Y-48265044D01*
X180424587Y-48360808D01*
X181380395Y-47405000D01*
X181739605Y-47405000D01*
X182695413Y-48360808D01*
X182959814Y-48265044D01*
X183100704Y-47975429D01*
X183182384Y-47663892D01*
X183201718Y-47342405D01*
X183193161Y-47280000D01*
X183931928Y-47280000D01*
X183944188Y-47404482D01*
X183980498Y-47524180D01*
X184039463Y-47634494D01*
X184118815Y-47731185D01*
X184215506Y-47810537D01*
X184325820Y-47869502D01*
X184445518Y-47905812D01*
X184570000Y-47918072D01*
X185084250Y-47915000D01*
X185243000Y-47756250D01*
X185243000Y-46207000D01*
X184093750Y-46207000D01*
X183935000Y-46365750D01*
X183931928Y-47280000D01*
X183193161Y-47280000D01*
X183157961Y-47023325D01*
X183052795Y-46718912D01*
X182959814Y-46544956D01*
X182695413Y-46449192D01*
X181739605Y-47405000D01*
X181380395Y-47405000D01*
X180424587Y-46449192D01*
X180160186Y-46544956D01*
X180019296Y-46834571D01*
X179937616Y-47146108D01*
X179918282Y-47467595D01*
X173142893Y-47467595D01*
X173085628Y-47429332D01*
X172799451Y-47310794D01*
X172495648Y-47250364D01*
X172185892Y-47250364D01*
X171882089Y-47310794D01*
X171595912Y-47429332D01*
X171338359Y-47601423D01*
X171119329Y-47820453D01*
X170947238Y-48078006D01*
X170828700Y-48364183D01*
X170768270Y-48667986D01*
X167603683Y-48667986D01*
X167701011Y-48433016D01*
X167761441Y-48129213D01*
X167761441Y-47819457D01*
X167704564Y-47533514D01*
X168968491Y-46269587D01*
X180604192Y-46269587D01*
X181560000Y-47225395D01*
X182515808Y-46269587D01*
X182420044Y-46005186D01*
X182130429Y-45864296D01*
X181818892Y-45782616D01*
X181497405Y-45763282D01*
X181178325Y-45807039D01*
X180873912Y-45912205D01*
X180699956Y-46005186D01*
X180604192Y-46269587D01*
X168968491Y-46269587D01*
X170430078Y-44808000D01*
X183939019Y-44808000D01*
X183931928Y-44880000D01*
X183935000Y-45794250D01*
X184093750Y-45953000D01*
X185243000Y-45953000D01*
X185243000Y-45933000D01*
X185497000Y-45933000D01*
X185497000Y-45953000D01*
X185517000Y-45953000D01*
X185517000Y-46207000D01*
X185497000Y-46207000D01*
X185497000Y-47756250D01*
X185655750Y-47915000D01*
X186170000Y-47918072D01*
X186294482Y-47905812D01*
X186414180Y-47869502D01*
X186524494Y-47810537D01*
X186621185Y-47731185D01*
X186700537Y-47634494D01*
X186759502Y-47524180D01*
X186795812Y-47404482D01*
X186797581Y-47386517D01*
X186890392Y-47499607D01*
X187108899Y-47678932D01*
X187358192Y-47812182D01*
X187628691Y-47894236D01*
X187910000Y-47921943D01*
X188191308Y-47894236D01*
X188461807Y-47812182D01*
X188711100Y-47678932D01*
X188929607Y-47499608D01*
X189108932Y-47281101D01*
X189180000Y-47148142D01*
X189251068Y-47281100D01*
X189430392Y-47499607D01*
X189648899Y-47678932D01*
X189898192Y-47812182D01*
X190168691Y-47894236D01*
X190450000Y-47921943D01*
X190731308Y-47894236D01*
X191001807Y-47812182D01*
X191251100Y-47678932D01*
X191469607Y-47499608D01*
X191648932Y-47281101D01*
X191720000Y-47148142D01*
X191791068Y-47281100D01*
X191970392Y-47499607D01*
X192188899Y-47678932D01*
X192438192Y-47812182D01*
X192708691Y-47894236D01*
X192990000Y-47921943D01*
X193271308Y-47894236D01*
X193541807Y-47812182D01*
X193791100Y-47678932D01*
X194009607Y-47499608D01*
X194188932Y-47281101D01*
X194260000Y-47148142D01*
X194331068Y-47281100D01*
X194510392Y-47499607D01*
X194728899Y-47678932D01*
X194978192Y-47812182D01*
X195248691Y-47894236D01*
X195530000Y-47921943D01*
X195811308Y-47894236D01*
X196081807Y-47812182D01*
X196331100Y-47678932D01*
X196549607Y-47499608D01*
X196728932Y-47281101D01*
X196800000Y-47148142D01*
X196871068Y-47281100D01*
X197050392Y-47499607D01*
X197268899Y-47678932D01*
X197518192Y-47812182D01*
X197788691Y-47894236D01*
X198070000Y-47921943D01*
X198351308Y-47894236D01*
X198621807Y-47812182D01*
X198871100Y-47678932D01*
X199089607Y-47499608D01*
X199268932Y-47281101D01*
X199340000Y-47148142D01*
X199411068Y-47281100D01*
X199590392Y-47499607D01*
X199808899Y-47678932D01*
X200058192Y-47812182D01*
X200328691Y-47894236D01*
X200610000Y-47921943D01*
X200891308Y-47894236D01*
X201161807Y-47812182D01*
X201411100Y-47678932D01*
X201629607Y-47499608D01*
X201808932Y-47281101D01*
X201877265Y-47153259D01*
X202027399Y-47382839D01*
X202225105Y-47584500D01*
X202458354Y-47743715D01*
X202718182Y-47854367D01*
X202800961Y-47871904D01*
X203023000Y-47749915D01*
X203023000Y-46207000D01*
X203277000Y-46207000D01*
X203277000Y-47749915D01*
X203499039Y-47871904D01*
X203581818Y-47854367D01*
X203841646Y-47743715D01*
X204074895Y-47584500D01*
X204272601Y-47382839D01*
X204420000Y-47157441D01*
X204567399Y-47382839D01*
X204765105Y-47584500D01*
X204998354Y-47743715D01*
X205258182Y-47854367D01*
X205340961Y-47871904D01*
X205563000Y-47749915D01*
X205563000Y-46207000D01*
X205817000Y-46207000D01*
X205817000Y-47749915D01*
X206039039Y-47871904D01*
X206121818Y-47854367D01*
X206381646Y-47743715D01*
X206614895Y-47584500D01*
X206812601Y-47382839D01*
X206960000Y-47157441D01*
X207107399Y-47382839D01*
X207305105Y-47584500D01*
X207538354Y-47743715D01*
X207798182Y-47854367D01*
X207880961Y-47871904D01*
X208103000Y-47749915D01*
X208103000Y-46207000D01*
X208357000Y-46207000D01*
X208357000Y-47749915D01*
X208579039Y-47871904D01*
X208661818Y-47854367D01*
X208921646Y-47743715D01*
X209154895Y-47584500D01*
X209352601Y-47382839D01*
X209507166Y-47146483D01*
X209612650Y-46884514D01*
X209665000Y-46607000D01*
X209665000Y-46207000D01*
X208357000Y-46207000D01*
X208103000Y-46207000D01*
X205817000Y-46207000D01*
X205563000Y-46207000D01*
X203277000Y-46207000D01*
X203023000Y-46207000D01*
X203003000Y-46207000D01*
X203003000Y-45953000D01*
X203023000Y-45953000D01*
X203023000Y-44410085D01*
X203277000Y-44410085D01*
X203277000Y-45953000D01*
X205563000Y-45953000D01*
X205563000Y-44410085D01*
X205817000Y-44410085D01*
X205817000Y-45953000D01*
X208103000Y-45953000D01*
X208103000Y-44410085D01*
X208357000Y-44410085D01*
X208357000Y-45953000D01*
X209665000Y-45953000D01*
X209665000Y-45553000D01*
X209612650Y-45275486D01*
X209507166Y-45013517D01*
X209352601Y-44777161D01*
X209154895Y-44575500D01*
X208921646Y-44416285D01*
X208661818Y-44305633D01*
X208579039Y-44288096D01*
X208357000Y-44410085D01*
X208103000Y-44410085D01*
X207880961Y-44288096D01*
X207798182Y-44305633D01*
X207538354Y-44416285D01*
X207305105Y-44575500D01*
X207107399Y-44777161D01*
X206960000Y-45002559D01*
X206812601Y-44777161D01*
X206614895Y-44575500D01*
X206381646Y-44416285D01*
X206121818Y-44305633D01*
X206039039Y-44288096D01*
X205817000Y-44410085D01*
X205563000Y-44410085D01*
X205340961Y-44288096D01*
X205258182Y-44305633D01*
X204998354Y-44416285D01*
X204765105Y-44575500D01*
X204567399Y-44777161D01*
X204420000Y-45002559D01*
X204272601Y-44777161D01*
X204074895Y-44575500D01*
X203841646Y-44416285D01*
X203581818Y-44305633D01*
X203499039Y-44288096D01*
X203277000Y-44410085D01*
X203023000Y-44410085D01*
X202800961Y-44288096D01*
X202718182Y-44305633D01*
X202458354Y-44416285D01*
X202225105Y-44575500D01*
X202027399Y-44777161D01*
X201877265Y-45006741D01*
X201808932Y-44878899D01*
X201629608Y-44660392D01*
X201411101Y-44481068D01*
X201161808Y-44347818D01*
X200891309Y-44265764D01*
X200610000Y-44238057D01*
X200328692Y-44265764D01*
X200058193Y-44347818D01*
X199808900Y-44481068D01*
X199590393Y-44660392D01*
X199411068Y-44878899D01*
X199340000Y-45011858D01*
X199268932Y-44878899D01*
X199089608Y-44660392D01*
X198871101Y-44481068D01*
X198621808Y-44347818D01*
X198351309Y-44265764D01*
X198070000Y-44238057D01*
X197788692Y-44265764D01*
X197518193Y-44347818D01*
X197268900Y-44481068D01*
X197050393Y-44660392D01*
X196871068Y-44878899D01*
X196800000Y-45011858D01*
X196728932Y-44878899D01*
X196549608Y-44660392D01*
X196331101Y-44481068D01*
X196081808Y-44347818D01*
X195811309Y-44265764D01*
X195530000Y-44238057D01*
X195248692Y-44265764D01*
X194978193Y-44347818D01*
X194728900Y-44481068D01*
X194510393Y-44660392D01*
X194331068Y-44878899D01*
X194260000Y-45011858D01*
X194188932Y-44878899D01*
X194009608Y-44660392D01*
X193791101Y-44481068D01*
X193541808Y-44347818D01*
X193271309Y-44265764D01*
X192990000Y-44238057D01*
X192708692Y-44265764D01*
X192438193Y-44347818D01*
X192369394Y-44384592D01*
X191013804Y-43029003D01*
X190990001Y-42999999D01*
X190874276Y-42905026D01*
X190742247Y-42834454D01*
X190598986Y-42790997D01*
X190487333Y-42780000D01*
X190487322Y-42780000D01*
X190450000Y-42776324D01*
X190412678Y-42780000D01*
X164607465Y-42780000D01*
X164683788Y-42595739D01*
X164743738Y-42294351D01*
X164743738Y-41987057D01*
X164683788Y-41685669D01*
X164566192Y-41401767D01*
X164395469Y-41146262D01*
X164178180Y-40928973D01*
X163922675Y-40758250D01*
X163638773Y-40640654D01*
X163546427Y-40622285D01*
X230165000Y-40622285D01*
X230165000Y-41377715D01*
X230312377Y-42118628D01*
X230601467Y-42816554D01*
X231021161Y-43444670D01*
X231555330Y-43978839D01*
X232183446Y-44398533D01*
X232881372Y-44687623D01*
X233622285Y-44835000D01*
X234377715Y-44835000D01*
X235118628Y-44687623D01*
X235816554Y-44398533D01*
X236444670Y-43978839D01*
X236978839Y-43444670D01*
X237398533Y-42816554D01*
X237687623Y-42118628D01*
X237835000Y-41377715D01*
X237835000Y-40622285D01*
X237687623Y-39881372D01*
X237398533Y-39183446D01*
X236978839Y-38555330D01*
X236444670Y-38021161D01*
X235816554Y-37601467D01*
X235118628Y-37312377D01*
X234377715Y-37165000D01*
X233622285Y-37165000D01*
X232881372Y-37312377D01*
X232183446Y-37601467D01*
X231555330Y-38021161D01*
X231021161Y-38555330D01*
X230601467Y-39183446D01*
X230312377Y-39881372D01*
X230165000Y-40622285D01*
X163546427Y-40622285D01*
X163337385Y-40580704D01*
X163030091Y-40580704D01*
X162728703Y-40640654D01*
X162444801Y-40758250D01*
X162189296Y-40928973D01*
X161972007Y-41146262D01*
X161801284Y-41401767D01*
X161683688Y-41685669D01*
X161623738Y-41987057D01*
X161623738Y-42294351D01*
X161683688Y-42595739D01*
X161760011Y-42780000D01*
X158286230Y-42780000D01*
X158248907Y-42776324D01*
X158211584Y-42780000D01*
X158211574Y-42780000D01*
X158099921Y-42790997D01*
X157956660Y-42834454D01*
X157824630Y-42905026D01*
X157740990Y-42973668D01*
X157708906Y-42999999D01*
X157685108Y-43028997D01*
X153406864Y-47307241D01*
X153120921Y-47250364D01*
X152811165Y-47250364D01*
X152507362Y-47310794D01*
X152221185Y-47429332D01*
X151963632Y-47601423D01*
X151744602Y-47820453D01*
X151572511Y-48078006D01*
X151453973Y-48364183D01*
X151393543Y-48667986D01*
X140710000Y-48667986D01*
X140710000Y-41029142D01*
X140743449Y-40622285D01*
X142165000Y-40622285D01*
X142165000Y-41377715D01*
X142312377Y-42118628D01*
X142601467Y-42816554D01*
X143021161Y-43444670D01*
X143555330Y-43978839D01*
X144183446Y-44398533D01*
X144881372Y-44687623D01*
X145622285Y-44835000D01*
X146377715Y-44835000D01*
X147118628Y-44687623D01*
X147816554Y-44398533D01*
X148444670Y-43978839D01*
X148978839Y-43444670D01*
X149247323Y-43042855D01*
X152278834Y-43042855D01*
X152380881Y-43335318D01*
X152538024Y-43602253D01*
X152744224Y-43833402D01*
X152991557Y-44019882D01*
X153270518Y-44154527D01*
X153442753Y-44206774D01*
X153687573Y-44086709D01*
X153687573Y-42798035D01*
X153941573Y-42798035D01*
X153941573Y-44086709D01*
X154186393Y-44206774D01*
X154478856Y-44104727D01*
X154745791Y-43947584D01*
X154976940Y-43741384D01*
X155163420Y-43494051D01*
X155298065Y-43215090D01*
X155350312Y-43042855D01*
X155230247Y-42798035D01*
X153941573Y-42798035D01*
X153687573Y-42798035D01*
X152398899Y-42798035D01*
X152278834Y-43042855D01*
X149247323Y-43042855D01*
X149398533Y-42816554D01*
X149612821Y-42299215D01*
X152278834Y-42299215D01*
X152398899Y-42544035D01*
X153687573Y-42544035D01*
X153687573Y-41255361D01*
X153941573Y-41255361D01*
X153941573Y-42544035D01*
X155230247Y-42544035D01*
X155350312Y-42299215D01*
X155248265Y-42006752D01*
X155091122Y-41739817D01*
X154884922Y-41508668D01*
X154637589Y-41322188D01*
X154358628Y-41187543D01*
X154186393Y-41135296D01*
X153941573Y-41255361D01*
X153687573Y-41255361D01*
X153442753Y-41135296D01*
X153150290Y-41237343D01*
X152883355Y-41394486D01*
X152652206Y-41600686D01*
X152465726Y-41848019D01*
X152331081Y-42126980D01*
X152278834Y-42299215D01*
X149612821Y-42299215D01*
X149687623Y-42118628D01*
X149835000Y-41377715D01*
X149835000Y-40622285D01*
X149687623Y-39881372D01*
X149398533Y-39183446D01*
X149366498Y-39135501D01*
X155386210Y-39135501D01*
X155398470Y-39259983D01*
X155434780Y-39379681D01*
X155493745Y-39489995D01*
X155573097Y-39586686D01*
X156898922Y-40912511D01*
X156995613Y-40991863D01*
X157105927Y-41050828D01*
X157225625Y-41087138D01*
X157350107Y-41099398D01*
X157474589Y-41087138D01*
X157594287Y-41050828D01*
X157704601Y-40991863D01*
X157801292Y-40912511D01*
X159127117Y-39586686D01*
X159206469Y-39489995D01*
X159265434Y-39379681D01*
X159301744Y-39259983D01*
X159314004Y-39135501D01*
X159301744Y-39011019D01*
X159265434Y-38891321D01*
X159206469Y-38781007D01*
X159127117Y-38684316D01*
X157801292Y-37358491D01*
X157704601Y-37279139D01*
X157594287Y-37220174D01*
X157474589Y-37183864D01*
X157350107Y-37171604D01*
X157225625Y-37183864D01*
X157105927Y-37220174D01*
X156995613Y-37279139D01*
X156898922Y-37358491D01*
X155573097Y-38684316D01*
X155493745Y-38781007D01*
X155434780Y-38891321D01*
X155398470Y-39011019D01*
X155386210Y-39135501D01*
X149366498Y-39135501D01*
X148978839Y-38555330D01*
X148444670Y-38021161D01*
X147816554Y-37601467D01*
X147118628Y-37312377D01*
X146377715Y-37165000D01*
X145622285Y-37165000D01*
X144881372Y-37312377D01*
X144183446Y-37601467D01*
X143555330Y-38021161D01*
X143021161Y-38555330D01*
X142601467Y-39183446D01*
X142312377Y-39881372D01*
X142165000Y-40622285D01*
X140743449Y-40622285D01*
X140783397Y-40136392D01*
X140994491Y-39295990D01*
X141340017Y-38501336D01*
X141810685Y-37773794D01*
X142393864Y-37132890D01*
X143073881Y-36595845D01*
X143832489Y-36177070D01*
X144649306Y-35887820D01*
X145514656Y-35733677D01*
X146016736Y-35710000D01*
X233970858Y-35710000D01*
X234863608Y-35783397D01*
%TA.AperFunction,Conductor*%
D26*
G36*
X234863608Y-35783397D02*
G01*
X235704010Y-35994491D01*
X236498664Y-36340017D01*
X237226206Y-36810685D01*
X237867110Y-37393864D01*
X238404155Y-38073881D01*
X238822930Y-38832489D01*
X239112180Y-39649306D01*
X239266323Y-40514656D01*
X239290000Y-41016736D01*
X239290001Y-68970846D01*
X239216603Y-69863606D01*
X239005509Y-70704010D01*
X238659983Y-71498664D01*
X238189315Y-72226206D01*
X237606136Y-72867110D01*
X236926115Y-73404159D01*
X236167507Y-73822932D01*
X235350692Y-74112181D01*
X234485344Y-74266323D01*
X233983265Y-74290000D01*
X146029142Y-74290000D01*
X145136394Y-74216603D01*
X144295990Y-74005509D01*
X143501336Y-73659983D01*
X142773794Y-73189315D01*
X142132890Y-72606136D01*
X141595841Y-71926115D01*
X141177068Y-71167507D01*
X140887819Y-70350692D01*
X140733677Y-69485344D01*
X140710000Y-68983265D01*
X140710000Y-68622285D01*
X142165000Y-68622285D01*
X142165000Y-69377715D01*
X142312377Y-70118628D01*
X142601467Y-70816554D01*
X143021161Y-71444670D01*
X143555330Y-71978839D01*
X144183446Y-72398533D01*
X144881372Y-72687623D01*
X145622285Y-72835000D01*
X146377715Y-72835000D01*
X147118628Y-72687623D01*
X147816554Y-72398533D01*
X148444670Y-71978839D01*
X148978839Y-71444670D01*
X149398533Y-70816554D01*
X149434502Y-70729717D01*
X161080907Y-70729717D01*
X161080907Y-71039473D01*
X161141337Y-71343276D01*
X161259875Y-71629453D01*
X161431966Y-71887006D01*
X161650996Y-72106036D01*
X161908549Y-72278127D01*
X162194726Y-72396665D01*
X162498529Y-72457095D01*
X162808285Y-72457095D01*
X163112088Y-72396665D01*
X163398265Y-72278127D01*
X163655818Y-72106036D01*
X163874848Y-71887006D01*
X164046939Y-71629453D01*
X164165477Y-71343276D01*
X164225907Y-71039473D01*
X164225907Y-70729717D01*
X221080907Y-70729717D01*
X221080907Y-71039473D01*
X221141337Y-71343276D01*
X221259875Y-71629453D01*
X221431966Y-71887006D01*
X221650996Y-72106036D01*
X221908549Y-72278127D01*
X222194726Y-72396665D01*
X222498529Y-72457095D01*
X222808285Y-72457095D01*
X223112088Y-72396665D01*
X223398265Y-72278127D01*
X223655818Y-72106036D01*
X223874848Y-71887006D01*
X224046939Y-71629453D01*
X224165477Y-71343276D01*
X224225907Y-71039473D01*
X224225907Y-70729717D01*
X224165477Y-70425914D01*
X224046939Y-70139737D01*
X223874848Y-69882184D01*
X223655818Y-69663154D01*
X223398265Y-69491063D01*
X223112088Y-69372525D01*
X222808285Y-69312095D01*
X222498529Y-69312095D01*
X222194726Y-69372525D01*
X221908549Y-69491063D01*
X221650996Y-69663154D01*
X221431966Y-69882184D01*
X221259875Y-70139737D01*
X221141337Y-70425914D01*
X221080907Y-70729717D01*
X164225907Y-70729717D01*
X164165477Y-70425914D01*
X164046939Y-70139737D01*
X163874848Y-69882184D01*
X163655818Y-69663154D01*
X163398265Y-69491063D01*
X163112088Y-69372525D01*
X162808285Y-69312095D01*
X162498529Y-69312095D01*
X162194726Y-69372525D01*
X161908549Y-69491063D01*
X161650996Y-69663154D01*
X161431966Y-69882184D01*
X161259875Y-70139737D01*
X161141337Y-70425914D01*
X161080907Y-70729717D01*
X149434502Y-70729717D01*
X149687623Y-70118628D01*
X149835000Y-69377715D01*
X149835000Y-68622285D01*
X149687623Y-67881372D01*
X149623161Y-67725745D01*
X155259776Y-67725745D01*
X155259776Y-68033039D01*
X155319726Y-68334427D01*
X155437322Y-68618329D01*
X155608045Y-68873834D01*
X155825334Y-69091123D01*
X156080839Y-69261846D01*
X156364741Y-69379442D01*
X156666129Y-69439392D01*
X156973423Y-69439392D01*
X157274811Y-69379442D01*
X157558713Y-69261846D01*
X157814218Y-69091123D01*
X158031507Y-68873834D01*
X158202230Y-68618329D01*
X158319826Y-68334427D01*
X158379776Y-68033039D01*
X158379776Y-67725745D01*
X158319826Y-67424357D01*
X158224485Y-67194183D01*
X164616441Y-67194183D01*
X164616441Y-67503939D01*
X164676871Y-67807742D01*
X164795409Y-68093919D01*
X164967500Y-68351472D01*
X165186530Y-68570502D01*
X165444083Y-68742593D01*
X165730260Y-68861131D01*
X166034063Y-68921561D01*
X166343819Y-68921561D01*
X166647622Y-68861131D01*
X166933799Y-68742593D01*
X167191352Y-68570502D01*
X167410382Y-68351472D01*
X167582473Y-68093919D01*
X167701011Y-67807742D01*
X167761441Y-67503939D01*
X167761441Y-67194183D01*
X167701011Y-66890380D01*
X167582473Y-66604203D01*
X167410382Y-66346650D01*
X167191352Y-66127620D01*
X166933799Y-65955529D01*
X166647622Y-65836991D01*
X166343819Y-65776561D01*
X166034063Y-65776561D01*
X165730260Y-65836991D01*
X165444083Y-65955529D01*
X165186530Y-66127620D01*
X164967500Y-66346650D01*
X164795409Y-66604203D01*
X164676871Y-66890380D01*
X164616441Y-67194183D01*
X158224485Y-67194183D01*
X158202230Y-67140455D01*
X158031507Y-66884950D01*
X157814218Y-66667661D01*
X157558713Y-66496938D01*
X157274811Y-66379342D01*
X156973423Y-66319392D01*
X156666129Y-66319392D01*
X156364741Y-66379342D01*
X156080839Y-66496938D01*
X155825334Y-66667661D01*
X155608045Y-66884950D01*
X155437322Y-67140455D01*
X155319726Y-67424357D01*
X155259776Y-67725745D01*
X149623161Y-67725745D01*
X149398533Y-67183446D01*
X148978839Y-66555330D01*
X148444670Y-66021161D01*
X147816554Y-65601467D01*
X147118628Y-65312377D01*
X146377715Y-65165000D01*
X145622285Y-65165000D01*
X144881372Y-65312377D01*
X144183446Y-65601467D01*
X143555330Y-66021161D01*
X143021161Y-66555330D01*
X142601467Y-67183446D01*
X142312377Y-67881372D01*
X142165000Y-68622285D01*
X140710000Y-68622285D01*
X140710000Y-61569052D01*
X146127004Y-61569052D01*
X146229051Y-61861515D01*
X146386194Y-62128450D01*
X146592394Y-62359599D01*
X146839727Y-62546079D01*
X147118688Y-62680724D01*
X147290923Y-62732971D01*
X147535743Y-62612906D01*
X147535743Y-61324232D01*
X147789743Y-61324232D01*
X147789743Y-62612906D01*
X148034563Y-62732971D01*
X148327026Y-62630924D01*
X148593961Y-62473781D01*
X148656960Y-62417581D01*
X152278834Y-62417581D01*
X152380881Y-62710044D01*
X152538024Y-62976979D01*
X152744224Y-63208128D01*
X152991557Y-63394608D01*
X153270518Y-63529253D01*
X153442753Y-63581500D01*
X153687573Y-63461435D01*
X153687573Y-62172761D01*
X153941573Y-62172761D01*
X153941573Y-63461435D01*
X154186393Y-63581500D01*
X154478856Y-63479453D01*
X154745791Y-63322310D01*
X154976940Y-63116110D01*
X155163420Y-62868777D01*
X155298065Y-62589816D01*
X155350312Y-62417581D01*
X155230247Y-62172761D01*
X153941573Y-62172761D01*
X153687573Y-62172761D01*
X152398899Y-62172761D01*
X152278834Y-62417581D01*
X148656960Y-62417581D01*
X148825110Y-62267581D01*
X149011590Y-62020248D01*
X149146235Y-61741287D01*
X149166664Y-61673941D01*
X152278834Y-61673941D01*
X152398899Y-61918761D01*
X153687573Y-61918761D01*
X153687573Y-60630087D01*
X153941573Y-60630087D01*
X153941573Y-61918761D01*
X155230247Y-61918761D01*
X155350312Y-61673941D01*
X155248265Y-61381478D01*
X155091122Y-61114543D01*
X154884922Y-60883394D01*
X154637589Y-60696914D01*
X154358628Y-60562269D01*
X154186393Y-60510022D01*
X153941573Y-60630087D01*
X153687573Y-60630087D01*
X153442753Y-60510022D01*
X153150290Y-60612069D01*
X152883355Y-60769212D01*
X152652206Y-60975412D01*
X152465726Y-61222745D01*
X152331081Y-61501706D01*
X152278834Y-61673941D01*
X149166664Y-61673941D01*
X149198482Y-61569052D01*
X149078417Y-61324232D01*
X147789743Y-61324232D01*
X147535743Y-61324232D01*
X146247069Y-61324232D01*
X146127004Y-61569052D01*
X140710000Y-61569052D01*
X140710000Y-60825412D01*
X146127004Y-60825412D01*
X146247069Y-61070232D01*
X147535743Y-61070232D01*
X147535743Y-59781558D01*
X147789743Y-59781558D01*
X147789743Y-61070232D01*
X149078417Y-61070232D01*
X149198482Y-60825412D01*
X149096435Y-60532949D01*
X148939292Y-60266014D01*
X148733092Y-60034865D01*
X148485759Y-59848385D01*
X148206798Y-59713740D01*
X148034563Y-59661493D01*
X147789743Y-59781558D01*
X147535743Y-59781558D01*
X147290923Y-59661493D01*
X146998460Y-59763540D01*
X146731525Y-59920683D01*
X146500376Y-60126883D01*
X146313896Y-60374216D01*
X146179251Y-60653177D01*
X146127004Y-60825412D01*
X140710000Y-60825412D01*
X140710000Y-57661698D01*
X142163312Y-57661698D01*
X142175572Y-57786180D01*
X142211882Y-57905878D01*
X142270847Y-58016192D01*
X142350199Y-58112883D01*
X143676024Y-59438708D01*
X143772715Y-59518060D01*
X143883029Y-59577025D01*
X144002727Y-59613335D01*
X144127209Y-59625595D01*
X144251691Y-59613335D01*
X144371389Y-59577025D01*
X144481703Y-59518060D01*
X144578394Y-59438708D01*
X145904219Y-58112883D01*
X145965360Y-58038382D01*
X151936374Y-58038382D01*
X151936374Y-58345676D01*
X151996324Y-58647064D01*
X152113920Y-58930966D01*
X152284643Y-59186471D01*
X152501932Y-59403760D01*
X152757437Y-59574483D01*
X153041339Y-59692079D01*
X153342727Y-59752029D01*
X153650021Y-59752029D01*
X153951409Y-59692079D01*
X154235311Y-59574483D01*
X154490816Y-59403760D01*
X154708105Y-59186471D01*
X154878828Y-58930966D01*
X154996424Y-58647064D01*
X155023642Y-58510227D01*
X155386210Y-58510227D01*
X155398470Y-58634709D01*
X155434780Y-58754407D01*
X155493745Y-58864721D01*
X155573097Y-58961412D01*
X156898922Y-60287237D01*
X156995613Y-60366589D01*
X157105927Y-60425554D01*
X157225625Y-60461864D01*
X157350107Y-60474124D01*
X157474589Y-60461864D01*
X157594287Y-60425554D01*
X157704601Y-60366589D01*
X157801292Y-60287237D01*
X157926803Y-60161726D01*
X158076085Y-60311008D01*
X158099879Y-60340001D01*
X158128872Y-60363795D01*
X158128876Y-60363799D01*
X158179374Y-60405241D01*
X158215604Y-60434974D01*
X158347633Y-60505546D01*
X158490894Y-60549003D01*
X158602547Y-60560000D01*
X158602556Y-60560000D01*
X158639879Y-60563676D01*
X158677202Y-60560000D01*
X161945940Y-60560000D01*
X161801284Y-60776493D01*
X161683688Y-61060395D01*
X161623738Y-61361783D01*
X161623738Y-61669077D01*
X161683688Y-61970465D01*
X161801284Y-62254367D01*
X161972007Y-62509872D01*
X162189296Y-62727161D01*
X162444801Y-62897884D01*
X162728703Y-63015480D01*
X163030091Y-63075430D01*
X163337385Y-63075430D01*
X163638773Y-63015480D01*
X163922675Y-62897884D01*
X164178180Y-62727161D01*
X164395469Y-62509872D01*
X164566192Y-62254367D01*
X164683788Y-61970465D01*
X164743738Y-61669077D01*
X164743738Y-61569052D01*
X165501731Y-61569052D01*
X165603778Y-61861515D01*
X165760921Y-62128450D01*
X165967121Y-62359599D01*
X166214454Y-62546079D01*
X166493415Y-62680724D01*
X166665650Y-62732971D01*
X166910470Y-62612906D01*
X166910470Y-61324232D01*
X167164470Y-61324232D01*
X167164470Y-62612906D01*
X167409290Y-62732971D01*
X167701753Y-62630924D01*
X167968688Y-62473781D01*
X168199837Y-62267581D01*
X168386317Y-62020248D01*
X168520962Y-61741287D01*
X168573209Y-61569052D01*
X168453144Y-61324232D01*
X167164470Y-61324232D01*
X166910470Y-61324232D01*
X165621796Y-61324232D01*
X165501731Y-61569052D01*
X164743738Y-61569052D01*
X164743738Y-61361783D01*
X164683788Y-61060395D01*
X164566192Y-60776493D01*
X164421536Y-60560000D01*
X165598951Y-60560000D01*
X165553978Y-60653177D01*
X165501731Y-60825412D01*
X165621796Y-61070232D01*
X166730862Y-61070232D01*
X166843721Y-61183091D01*
X167023329Y-61003483D01*
X166910470Y-60890624D01*
X166910470Y-60560000D01*
X167164470Y-60560000D01*
X167164470Y-60890624D01*
X167051611Y-61003483D01*
X167231219Y-61183091D01*
X167344078Y-61070232D01*
X168453144Y-61070232D01*
X168573209Y-60825412D01*
X168480601Y-60560000D01*
X168810199Y-60560000D01*
X171061200Y-62811002D01*
X171084999Y-62840001D01*
X171113997Y-62863799D01*
X171200723Y-62934974D01*
X171332753Y-63005546D01*
X171476014Y-63049003D01*
X171587667Y-63060000D01*
X171587677Y-63060000D01*
X171625000Y-63063676D01*
X171662323Y-63060000D01*
X177967788Y-63060000D01*
X180670198Y-65762411D01*
X180498665Y-65762411D01*
X180221426Y-65817558D01*
X179960273Y-65925731D01*
X179725241Y-66082774D01*
X179526643Y-66281372D01*
X179525812Y-66272929D01*
X179489502Y-66153231D01*
X179430537Y-66042917D01*
X179351185Y-65946226D01*
X179254494Y-65866874D01*
X179144180Y-65807909D01*
X179024482Y-65771599D01*
X178900000Y-65759339D01*
X177300000Y-65759339D01*
X177175518Y-65771599D01*
X177055820Y-65807909D01*
X176945506Y-65866874D01*
X176848815Y-65946226D01*
X176769463Y-66042917D01*
X176710498Y-66153231D01*
X176674188Y-66272929D01*
X176661928Y-66397411D01*
X176661928Y-67997411D01*
X176674188Y-68121893D01*
X176710498Y-68241591D01*
X176769463Y-68351905D01*
X176848815Y-68448596D01*
X176945506Y-68527948D01*
X177055820Y-68586913D01*
X177175518Y-68623223D01*
X177300000Y-68635483D01*
X178900000Y-68635483D01*
X179024482Y-68623223D01*
X179144180Y-68586913D01*
X179254494Y-68527948D01*
X179351185Y-68448596D01*
X179430537Y-68351905D01*
X179489502Y-68241591D01*
X179525812Y-68121893D01*
X179526643Y-68113450D01*
X179725241Y-68312048D01*
X179960273Y-68469091D01*
X180221426Y-68577264D01*
X180498665Y-68632411D01*
X180781335Y-68632411D01*
X181058574Y-68577264D01*
X181319727Y-68469091D01*
X181554759Y-68312048D01*
X181754637Y-68112170D01*
X181910000Y-67879652D01*
X182065363Y-68112170D01*
X182265241Y-68312048D01*
X182500273Y-68469091D01*
X182761426Y-68577264D01*
X183038665Y-68632411D01*
X183321335Y-68632411D01*
X183598574Y-68577264D01*
X183859727Y-68469091D01*
X184094759Y-68312048D01*
X184294637Y-68112170D01*
X184450000Y-67879652D01*
X184605363Y-68112170D01*
X184805241Y-68312048D01*
X185040273Y-68469091D01*
X185301426Y-68577264D01*
X185578665Y-68632411D01*
X185861335Y-68632411D01*
X186138574Y-68577264D01*
X186399727Y-68469091D01*
X186634759Y-68312048D01*
X186834637Y-68112170D01*
X186990000Y-67879652D01*
X187145363Y-68112170D01*
X187345241Y-68312048D01*
X187580273Y-68469091D01*
X187841426Y-68577264D01*
X188118665Y-68632411D01*
X188401335Y-68632411D01*
X188678574Y-68577264D01*
X188939727Y-68469091D01*
X189174759Y-68312048D01*
X189374637Y-68112170D01*
X189530000Y-67879652D01*
X189685363Y-68112170D01*
X189885241Y-68312048D01*
X190120273Y-68469091D01*
X190381426Y-68577264D01*
X190658665Y-68632411D01*
X190941335Y-68632411D01*
X191218574Y-68577264D01*
X191479727Y-68469091D01*
X191714759Y-68312048D01*
X191914637Y-68112170D01*
X192070000Y-67879652D01*
X192225363Y-68112170D01*
X192425241Y-68312048D01*
X192660273Y-68469091D01*
X192921426Y-68577264D01*
X193198665Y-68632411D01*
X193481335Y-68632411D01*
X193758574Y-68577264D01*
X194019727Y-68469091D01*
X194254759Y-68312048D01*
X194454637Y-68112170D01*
X194611680Y-67877138D01*
X194674388Y-67725745D01*
X215259776Y-67725745D01*
X215259776Y-68033039D01*
X215319726Y-68334427D01*
X215437322Y-68618329D01*
X215608045Y-68873834D01*
X215825334Y-69091123D01*
X216080839Y-69261846D01*
X216364741Y-69379442D01*
X216666129Y-69439392D01*
X216973423Y-69439392D01*
X217274811Y-69379442D01*
X217558713Y-69261846D01*
X217814218Y-69091123D01*
X218031507Y-68873834D01*
X218202230Y-68618329D01*
X218319826Y-68334427D01*
X218379776Y-68033039D01*
X218379776Y-67725745D01*
X218319826Y-67424357D01*
X218224485Y-67194183D01*
X224616441Y-67194183D01*
X224616441Y-67503939D01*
X224676871Y-67807742D01*
X224795409Y-68093919D01*
X224967500Y-68351472D01*
X225186530Y-68570502D01*
X225444083Y-68742593D01*
X225730260Y-68861131D01*
X226034063Y-68921561D01*
X226343819Y-68921561D01*
X226647622Y-68861131D01*
X226933799Y-68742593D01*
X227113853Y-68622285D01*
X230165000Y-68622285D01*
X230165000Y-69377715D01*
X230312377Y-70118628D01*
X230601467Y-70816554D01*
X231021161Y-71444670D01*
X231555330Y-71978839D01*
X232183446Y-72398533D01*
X232881372Y-72687623D01*
X233622285Y-72835000D01*
X234377715Y-72835000D01*
X235118628Y-72687623D01*
X235816554Y-72398533D01*
X236444670Y-71978839D01*
X236978839Y-71444670D01*
X237398533Y-70816554D01*
X237687623Y-70118628D01*
X237835000Y-69377715D01*
X237835000Y-68622285D01*
X237687623Y-67881372D01*
X237398533Y-67183446D01*
X236978839Y-66555330D01*
X236444670Y-66021161D01*
X235816554Y-65601467D01*
X235118628Y-65312377D01*
X234377715Y-65165000D01*
X233622285Y-65165000D01*
X232881372Y-65312377D01*
X232183446Y-65601467D01*
X231555330Y-66021161D01*
X231021161Y-66555330D01*
X230601467Y-67183446D01*
X230312377Y-67881372D01*
X230165000Y-68622285D01*
X227113853Y-68622285D01*
X227191352Y-68570502D01*
X227410382Y-68351472D01*
X227582473Y-68093919D01*
X227701011Y-67807742D01*
X227761441Y-67503939D01*
X227761441Y-67194183D01*
X227701011Y-66890380D01*
X227582473Y-66604203D01*
X227410382Y-66346650D01*
X227191352Y-66127620D01*
X226933799Y-65955529D01*
X226647622Y-65836991D01*
X226343819Y-65776561D01*
X226034063Y-65776561D01*
X225730260Y-65836991D01*
X225444083Y-65955529D01*
X225186530Y-66127620D01*
X224967500Y-66346650D01*
X224795409Y-66604203D01*
X224676871Y-66890380D01*
X224616441Y-67194183D01*
X218224485Y-67194183D01*
X218202230Y-67140455D01*
X218031507Y-66884950D01*
X217814218Y-66667661D01*
X217558713Y-66496938D01*
X217274811Y-66379342D01*
X216973423Y-66319392D01*
X216666129Y-66319392D01*
X216364741Y-66379342D01*
X216080839Y-66496938D01*
X215825334Y-66667661D01*
X215608045Y-66884950D01*
X215437322Y-67140455D01*
X215319726Y-67424357D01*
X215259776Y-67725745D01*
X194674388Y-67725745D01*
X194719853Y-67615985D01*
X194775000Y-67338746D01*
X194775000Y-67056076D01*
X194719853Y-66778837D01*
X194611680Y-66517684D01*
X194454637Y-66282652D01*
X194254759Y-66082774D01*
X194019727Y-65925731D01*
X193758574Y-65817558D01*
X193481335Y-65762411D01*
X193198665Y-65762411D01*
X192921426Y-65817558D01*
X192660273Y-65925731D01*
X192425241Y-66082774D01*
X192225363Y-66282652D01*
X192070000Y-66515170D01*
X191914637Y-66282652D01*
X191714759Y-66082774D01*
X191479727Y-65925731D01*
X191218574Y-65817558D01*
X190941335Y-65762411D01*
X190658665Y-65762411D01*
X190381426Y-65817558D01*
X190120273Y-65925731D01*
X189885241Y-66082774D01*
X189685363Y-66282652D01*
X189530000Y-66515170D01*
X189374637Y-66282652D01*
X189174759Y-66082774D01*
X188939727Y-65925731D01*
X188678574Y-65817558D01*
X188401335Y-65762411D01*
X188118665Y-65762411D01*
X187936115Y-65798723D01*
X183316056Y-61178665D01*
X186475000Y-61178665D01*
X186475000Y-61461335D01*
X186530147Y-61738574D01*
X186638320Y-61999727D01*
X186795363Y-62234759D01*
X186995241Y-62434637D01*
X187230273Y-62591680D01*
X187491426Y-62699853D01*
X187768665Y-62755000D01*
X188051335Y-62755000D01*
X188328574Y-62699853D01*
X188589727Y-62591680D01*
X188824759Y-62434637D01*
X189024637Y-62234759D01*
X189181680Y-61999727D01*
X189289853Y-61738574D01*
X189345000Y-61461335D01*
X189345000Y-61178665D01*
X194095000Y-61178665D01*
X194095000Y-61461335D01*
X194150147Y-61738574D01*
X194258320Y-61999727D01*
X194415363Y-62234759D01*
X194615241Y-62434637D01*
X194850273Y-62591680D01*
X195111426Y-62699853D01*
X195388665Y-62755000D01*
X195671335Y-62755000D01*
X195948574Y-62699853D01*
X196209727Y-62591680D01*
X196444759Y-62434637D01*
X196461815Y-62417581D01*
X212278834Y-62417581D01*
X212380881Y-62710044D01*
X212538024Y-62976979D01*
X212744224Y-63208128D01*
X212991557Y-63394608D01*
X213270518Y-63529253D01*
X213442753Y-63581500D01*
X213687573Y-63461435D01*
X213687573Y-62172761D01*
X213941573Y-62172761D01*
X213941573Y-63461435D01*
X214186393Y-63581500D01*
X214478856Y-63479453D01*
X214745791Y-63322310D01*
X214976940Y-63116110D01*
X215163420Y-62868777D01*
X215298065Y-62589816D01*
X215350312Y-62417581D01*
X215230247Y-62172761D01*
X213941573Y-62172761D01*
X213687573Y-62172761D01*
X212398899Y-62172761D01*
X212278834Y-62417581D01*
X196461815Y-62417581D01*
X196644637Y-62234759D01*
X196801680Y-61999727D01*
X196909853Y-61738574D01*
X196922709Y-61673941D01*
X212278834Y-61673941D01*
X212398899Y-61918761D01*
X213687573Y-61918761D01*
X213687573Y-60630087D01*
X213941573Y-60630087D01*
X213941573Y-61918761D01*
X215230247Y-61918761D01*
X215350312Y-61673941D01*
X215248265Y-61381478D01*
X215236671Y-61361783D01*
X221623738Y-61361783D01*
X221623738Y-61669077D01*
X221683688Y-61970465D01*
X221801284Y-62254367D01*
X221972007Y-62509872D01*
X222189296Y-62727161D01*
X222444801Y-62897884D01*
X222728703Y-63015480D01*
X223030091Y-63075430D01*
X223337385Y-63075430D01*
X223638773Y-63015480D01*
X223922675Y-62897884D01*
X224178180Y-62727161D01*
X224395469Y-62509872D01*
X224566192Y-62254367D01*
X224683788Y-61970465D01*
X224743738Y-61669077D01*
X224743738Y-61569052D01*
X225501731Y-61569052D01*
X225603778Y-61861515D01*
X225760921Y-62128450D01*
X225967121Y-62359599D01*
X226214454Y-62546079D01*
X226493415Y-62680724D01*
X226665650Y-62732971D01*
X226910470Y-62612906D01*
X226910470Y-61324232D01*
X227164470Y-61324232D01*
X227164470Y-62612906D01*
X227409290Y-62732971D01*
X227701753Y-62630924D01*
X227968688Y-62473781D01*
X228199837Y-62267581D01*
X228386317Y-62020248D01*
X228520962Y-61741287D01*
X228573209Y-61569052D01*
X228453144Y-61324232D01*
X227164470Y-61324232D01*
X226910470Y-61324232D01*
X225621796Y-61324232D01*
X225501731Y-61569052D01*
X224743738Y-61569052D01*
X224743738Y-61361783D01*
X224683788Y-61060395D01*
X224586455Y-60825412D01*
X225501731Y-60825412D01*
X225621796Y-61070232D01*
X226910470Y-61070232D01*
X226910470Y-59781558D01*
X227164470Y-59781558D01*
X227164470Y-61070232D01*
X228453144Y-61070232D01*
X228573209Y-60825412D01*
X228471162Y-60532949D01*
X228314019Y-60266014D01*
X228107819Y-60034865D01*
X227860486Y-59848385D01*
X227581525Y-59713740D01*
X227409290Y-59661493D01*
X227164470Y-59781558D01*
X226910470Y-59781558D01*
X226665650Y-59661493D01*
X226373187Y-59763540D01*
X226106252Y-59920683D01*
X225875103Y-60126883D01*
X225688623Y-60374216D01*
X225553978Y-60653177D01*
X225501731Y-60825412D01*
X224586455Y-60825412D01*
X224566192Y-60776493D01*
X224395469Y-60520988D01*
X224178180Y-60303699D01*
X223922675Y-60132976D01*
X223638773Y-60015380D01*
X223337385Y-59955430D01*
X223030091Y-59955430D01*
X222728703Y-60015380D01*
X222444801Y-60132976D01*
X222189296Y-60303699D01*
X221972007Y-60520988D01*
X221801284Y-60776493D01*
X221683688Y-61060395D01*
X221623738Y-61361783D01*
X215236671Y-61361783D01*
X215091122Y-61114543D01*
X214884922Y-60883394D01*
X214637589Y-60696914D01*
X214358628Y-60562269D01*
X214186393Y-60510022D01*
X213941573Y-60630087D01*
X213687573Y-60630087D01*
X213442753Y-60510022D01*
X213150290Y-60612069D01*
X212883355Y-60769212D01*
X212652206Y-60975412D01*
X212465726Y-61222745D01*
X212331081Y-61501706D01*
X212278834Y-61673941D01*
X196922709Y-61673941D01*
X196965000Y-61461335D01*
X196965000Y-61178665D01*
X196909853Y-60901426D01*
X196801680Y-60640273D01*
X196644637Y-60405241D01*
X196444759Y-60205363D01*
X196209727Y-60048320D01*
X195948574Y-59940147D01*
X195671335Y-59885000D01*
X195388665Y-59885000D01*
X195111426Y-59940147D01*
X194850273Y-60048320D01*
X194615241Y-60205363D01*
X194415363Y-60405241D01*
X194258320Y-60640273D01*
X194150147Y-60901426D01*
X194095000Y-61178665D01*
X189345000Y-61178665D01*
X189289853Y-60901426D01*
X189181680Y-60640273D01*
X189024637Y-60405241D01*
X188824759Y-60205363D01*
X188589727Y-60048320D01*
X188328574Y-59940147D01*
X188051335Y-59885000D01*
X187768665Y-59885000D01*
X187491426Y-59940147D01*
X187230273Y-60048320D01*
X186995241Y-60205363D01*
X186795363Y-60405241D01*
X186638320Y-60640273D01*
X186530147Y-60901426D01*
X186475000Y-61178665D01*
X183316056Y-61178665D01*
X182126393Y-59989003D01*
X182102590Y-59959999D01*
X181986865Y-59865026D01*
X181854836Y-59794454D01*
X181711575Y-59750997D01*
X181599922Y-59740000D01*
X181599911Y-59740000D01*
X181562589Y-59736324D01*
X181525267Y-59740000D01*
X173085222Y-59740000D01*
X173326136Y-59692079D01*
X173610038Y-59574483D01*
X173865543Y-59403760D01*
X174082832Y-59186471D01*
X174253555Y-58930966D01*
X174371151Y-58647064D01*
X174431101Y-58345676D01*
X174431101Y-58038382D01*
X174371151Y-57736994D01*
X174253555Y-57453092D01*
X174082832Y-57197587D01*
X173865543Y-56980298D01*
X173610038Y-56809575D01*
X173326136Y-56691979D01*
X173165368Y-56660000D01*
X188961928Y-56660000D01*
X188961928Y-58360000D01*
X188974188Y-58484482D01*
X189010498Y-58604180D01*
X189069463Y-58714494D01*
X189148815Y-58811185D01*
X189245506Y-58890537D01*
X189355820Y-58949502D01*
X189475518Y-58985812D01*
X189600000Y-58998072D01*
X191300000Y-58998072D01*
X191424482Y-58985812D01*
X191544180Y-58949502D01*
X191654494Y-58890537D01*
X191751185Y-58811185D01*
X191830537Y-58714494D01*
X191889502Y-58604180D01*
X191911513Y-58531620D01*
X192043368Y-58663475D01*
X192286589Y-58825990D01*
X192556842Y-58937932D01*
X192843740Y-58995000D01*
X193136260Y-58995000D01*
X193423158Y-58937932D01*
X193693411Y-58825990D01*
X193936632Y-58663475D01*
X194143475Y-58456632D01*
X194260000Y-58282240D01*
X194376525Y-58456632D01*
X194583368Y-58663475D01*
X194826589Y-58825990D01*
X195096842Y-58937932D01*
X195383740Y-58995000D01*
X195676260Y-58995000D01*
X195963158Y-58937932D01*
X196233411Y-58825990D01*
X196476632Y-58663475D01*
X196683475Y-58456632D01*
X196800000Y-58282240D01*
X196916525Y-58456632D01*
X197123368Y-58663475D01*
X197366589Y-58825990D01*
X197636842Y-58937932D01*
X197923740Y-58995000D01*
X198216260Y-58995000D01*
X198503158Y-58937932D01*
X198773411Y-58825990D01*
X199016632Y-58663475D01*
X199223475Y-58456632D01*
X199340000Y-58282240D01*
X199456525Y-58456632D01*
X199663368Y-58663475D01*
X199906589Y-58825990D01*
X200176842Y-58937932D01*
X200463740Y-58995000D01*
X200756260Y-58995000D01*
X201043158Y-58937932D01*
X201313411Y-58825990D01*
X201556632Y-58663475D01*
X201763475Y-58456632D01*
X201880000Y-58282240D01*
X201996525Y-58456632D01*
X202203368Y-58663475D01*
X202446589Y-58825990D01*
X202716842Y-58937932D01*
X203003740Y-58995000D01*
X203296260Y-58995000D01*
X203583158Y-58937932D01*
X203853411Y-58825990D01*
X204096632Y-58663475D01*
X204303475Y-58456632D01*
X204420000Y-58282240D01*
X204536525Y-58456632D01*
X204743368Y-58663475D01*
X204986589Y-58825990D01*
X205256842Y-58937932D01*
X205543740Y-58995000D01*
X205836260Y-58995000D01*
X206123158Y-58937932D01*
X206393411Y-58825990D01*
X206636632Y-58663475D01*
X206843475Y-58456632D01*
X206965195Y-58274466D01*
X207034822Y-58391355D01*
X207229731Y-58607588D01*
X207463080Y-58781641D01*
X207725901Y-58906825D01*
X207873110Y-58951476D01*
X208103000Y-58830155D01*
X208103000Y-57637000D01*
X208083000Y-57637000D01*
X208083000Y-57383000D01*
X208103000Y-57383000D01*
X208103000Y-56189845D01*
X208357000Y-56189845D01*
X208357000Y-57383000D01*
X208377000Y-57383000D01*
X208377000Y-57637000D01*
X208357000Y-57637000D01*
X208357000Y-58830155D01*
X208586890Y-58951476D01*
X208734099Y-58906825D01*
X208996920Y-58781641D01*
X209230269Y-58607588D01*
X209425178Y-58391355D01*
X209494805Y-58274466D01*
X209616525Y-58456632D01*
X209823368Y-58663475D01*
X210066589Y-58825990D01*
X210336842Y-58937932D01*
X210623740Y-58995000D01*
X210916260Y-58995000D01*
X211203158Y-58937932D01*
X211473411Y-58825990D01*
X211716632Y-58663475D01*
X211869880Y-58510227D01*
X215386210Y-58510227D01*
X215398470Y-58634709D01*
X215434780Y-58754407D01*
X215493745Y-58864721D01*
X215573097Y-58961412D01*
X216898922Y-60287237D01*
X216995613Y-60366589D01*
X217105927Y-60425554D01*
X217225625Y-60461864D01*
X217350107Y-60474124D01*
X217474589Y-60461864D01*
X217594287Y-60425554D01*
X217704601Y-60366589D01*
X217801292Y-60287237D01*
X219127117Y-58961412D01*
X219206469Y-58864721D01*
X219265434Y-58754407D01*
X219301744Y-58634709D01*
X219314004Y-58510227D01*
X219301744Y-58385745D01*
X219265434Y-58266047D01*
X219206469Y-58155733D01*
X219127117Y-58059042D01*
X218729773Y-57661698D01*
X221538039Y-57661698D01*
X221550299Y-57786180D01*
X221586609Y-57905878D01*
X221645574Y-58016192D01*
X221724926Y-58112883D01*
X223050751Y-59438708D01*
X223147442Y-59518060D01*
X223257756Y-59577025D01*
X223377454Y-59613335D01*
X223501936Y-59625595D01*
X223626418Y-59613335D01*
X223746116Y-59577025D01*
X223856430Y-59518060D01*
X223953121Y-59438708D01*
X225278946Y-58112883D01*
X225340087Y-58038382D01*
X231311101Y-58038382D01*
X231311101Y-58345676D01*
X231371051Y-58647064D01*
X231488647Y-58930966D01*
X231659370Y-59186471D01*
X231876659Y-59403760D01*
X232132164Y-59574483D01*
X232416066Y-59692079D01*
X232717454Y-59752029D01*
X233024748Y-59752029D01*
X233326136Y-59692079D01*
X233610038Y-59574483D01*
X233865543Y-59403760D01*
X234082832Y-59186471D01*
X234253555Y-58930966D01*
X234371151Y-58647064D01*
X234431101Y-58345676D01*
X234431101Y-58038382D01*
X234371151Y-57736994D01*
X234253555Y-57453092D01*
X234082832Y-57197587D01*
X233865543Y-56980298D01*
X233610038Y-56809575D01*
X233326136Y-56691979D01*
X233024748Y-56632029D01*
X232717454Y-56632029D01*
X232416066Y-56691979D01*
X232132164Y-56809575D01*
X231876659Y-56980298D01*
X231659370Y-57197587D01*
X231488647Y-57453092D01*
X231371051Y-57736994D01*
X231311101Y-58038382D01*
X225340087Y-58038382D01*
X225358298Y-58016192D01*
X225417263Y-57905878D01*
X225453573Y-57786180D01*
X225465833Y-57661698D01*
X225453573Y-57537216D01*
X225417263Y-57417518D01*
X225358298Y-57307204D01*
X225278946Y-57210513D01*
X223953121Y-55884688D01*
X223856430Y-55805336D01*
X223746116Y-55746371D01*
X223626418Y-55710061D01*
X223501936Y-55697801D01*
X223377454Y-55710061D01*
X223257756Y-55746371D01*
X223147442Y-55805336D01*
X223050751Y-55884688D01*
X221724926Y-57210513D01*
X221645574Y-57307204D01*
X221586609Y-57417518D01*
X221550299Y-57537216D01*
X221538039Y-57661698D01*
X218729773Y-57661698D01*
X217801292Y-56733217D01*
X217704601Y-56653865D01*
X217594287Y-56594900D01*
X217474589Y-56558590D01*
X217350107Y-56546330D01*
X217225625Y-56558590D01*
X217105927Y-56594900D01*
X216995613Y-56653865D01*
X216898922Y-56733217D01*
X215573097Y-58059042D01*
X215493745Y-58155733D01*
X215434780Y-58266047D01*
X215398470Y-58385745D01*
X215386210Y-58510227D01*
X211869880Y-58510227D01*
X211923475Y-58456632D01*
X212085990Y-58213411D01*
X212197932Y-57943158D01*
X212255000Y-57656260D01*
X212255000Y-57363740D01*
X212197932Y-57076842D01*
X212085990Y-56806589D01*
X211923475Y-56563368D01*
X211716632Y-56356525D01*
X211473411Y-56194010D01*
X211203158Y-56082068D01*
X210916260Y-56025000D01*
X210623740Y-56025000D01*
X210336842Y-56082068D01*
X210066589Y-56194010D01*
X209823368Y-56356525D01*
X209616525Y-56563368D01*
X209494805Y-56745534D01*
X209425178Y-56628645D01*
X209230269Y-56412412D01*
X208996920Y-56238359D01*
X208734099Y-56113175D01*
X208586890Y-56068524D01*
X208357000Y-56189845D01*
X208103000Y-56189845D01*
X207873110Y-56068524D01*
X207725901Y-56113175D01*
X207463080Y-56238359D01*
X207229731Y-56412412D01*
X207034822Y-56628645D01*
X206965195Y-56745534D01*
X206843475Y-56563368D01*
X206636632Y-56356525D01*
X206393411Y-56194010D01*
X206123158Y-56082068D01*
X205836260Y-56025000D01*
X205543740Y-56025000D01*
X205256842Y-56082068D01*
X204986589Y-56194010D01*
X204743368Y-56356525D01*
X204536525Y-56563368D01*
X204420000Y-56737760D01*
X204303475Y-56563368D01*
X204096632Y-56356525D01*
X203853411Y-56194010D01*
X203583158Y-56082068D01*
X203296260Y-56025000D01*
X203003740Y-56025000D01*
X202716842Y-56082068D01*
X202446589Y-56194010D01*
X202203368Y-56356525D01*
X201996525Y-56563368D01*
X201880000Y-56737760D01*
X201763475Y-56563368D01*
X201556632Y-56356525D01*
X201313411Y-56194010D01*
X201043158Y-56082068D01*
X200756260Y-56025000D01*
X200463740Y-56025000D01*
X200176842Y-56082068D01*
X199906589Y-56194010D01*
X199663368Y-56356525D01*
X199456525Y-56563368D01*
X199340000Y-56737760D01*
X199223475Y-56563368D01*
X199016632Y-56356525D01*
X198773411Y-56194010D01*
X198503158Y-56082068D01*
X198216260Y-56025000D01*
X197923740Y-56025000D01*
X197636842Y-56082068D01*
X197366589Y-56194010D01*
X197123368Y-56356525D01*
X196916525Y-56563368D01*
X196800000Y-56737760D01*
X196683475Y-56563368D01*
X196476632Y-56356525D01*
X196233411Y-56194010D01*
X195963158Y-56082068D01*
X195676260Y-56025000D01*
X195383740Y-56025000D01*
X195096842Y-56082068D01*
X194826589Y-56194010D01*
X194583368Y-56356525D01*
X194376525Y-56563368D01*
X194260000Y-56737760D01*
X194143475Y-56563368D01*
X193936632Y-56356525D01*
X193693411Y-56194010D01*
X193423158Y-56082068D01*
X193136260Y-56025000D01*
X192843740Y-56025000D01*
X192556842Y-56082068D01*
X192286589Y-56194010D01*
X192043368Y-56356525D01*
X191911513Y-56488380D01*
X191889502Y-56415820D01*
X191830537Y-56305506D01*
X191751185Y-56208815D01*
X191654494Y-56129463D01*
X191544180Y-56070498D01*
X191424482Y-56034188D01*
X191300000Y-56021928D01*
X189600000Y-56021928D01*
X189475518Y-56034188D01*
X189355820Y-56070498D01*
X189245506Y-56129463D01*
X189148815Y-56208815D01*
X189069463Y-56305506D01*
X189010498Y-56415820D01*
X188974188Y-56535518D01*
X188961928Y-56660000D01*
X173165368Y-56660000D01*
X173024748Y-56632029D01*
X172717454Y-56632029D01*
X172416066Y-56691979D01*
X172132164Y-56809575D01*
X171876659Y-56980298D01*
X171659370Y-57197587D01*
X171488647Y-57453092D01*
X171371051Y-57736994D01*
X171311101Y-58038382D01*
X171311101Y-58336300D01*
X170125502Y-57150701D01*
X170101699Y-57121697D01*
X169985974Y-57026724D01*
X169853945Y-56956152D01*
X169710684Y-56912695D01*
X169599031Y-56901698D01*
X169599020Y-56901698D01*
X169561698Y-56898022D01*
X169524376Y-56901698D01*
X164970131Y-56901698D01*
X163953121Y-55884688D01*
X163856430Y-55805336D01*
X163746116Y-55746371D01*
X163626418Y-55710061D01*
X163501936Y-55697801D01*
X163377454Y-55710061D01*
X163257756Y-55746371D01*
X163147442Y-55805336D01*
X163050751Y-55884688D01*
X161724926Y-57210513D01*
X161645574Y-57307204D01*
X161586609Y-57417518D01*
X161550299Y-57537216D01*
X161538039Y-57661698D01*
X161550299Y-57786180D01*
X161586609Y-57905878D01*
X161645574Y-58016192D01*
X161724926Y-58112883D01*
X162652043Y-59040000D01*
X159048529Y-59040000D01*
X159127117Y-58961412D01*
X159206469Y-58864721D01*
X159265434Y-58754407D01*
X159301744Y-58634709D01*
X159314004Y-58510227D01*
X159301744Y-58385745D01*
X159265434Y-58266047D01*
X159206469Y-58155733D01*
X159127117Y-58059042D01*
X157801292Y-56733217D01*
X157704601Y-56653865D01*
X157594287Y-56594900D01*
X157474589Y-56558590D01*
X157350107Y-56546330D01*
X157225625Y-56558590D01*
X157105927Y-56594900D01*
X156995613Y-56653865D01*
X156898922Y-56733217D01*
X155573097Y-58059042D01*
X155493745Y-58155733D01*
X155434780Y-58266047D01*
X155398470Y-58385745D01*
X155386210Y-58510227D01*
X155023642Y-58510227D01*
X155056374Y-58345676D01*
X155056374Y-58038382D01*
X154996424Y-57736994D01*
X154878828Y-57453092D01*
X154708105Y-57197587D01*
X154490816Y-56980298D01*
X154235311Y-56809575D01*
X153951409Y-56691979D01*
X153650021Y-56632029D01*
X153342727Y-56632029D01*
X153041339Y-56691979D01*
X152757437Y-56809575D01*
X152501932Y-56980298D01*
X152284643Y-57197587D01*
X152113920Y-57453092D01*
X151996324Y-57736994D01*
X151936374Y-58038382D01*
X145965360Y-58038382D01*
X145983571Y-58016192D01*
X146042536Y-57905878D01*
X146078846Y-57786180D01*
X146091106Y-57661698D01*
X146078846Y-57537216D01*
X146042536Y-57417518D01*
X145983571Y-57307204D01*
X145904219Y-57210513D01*
X144578394Y-55884688D01*
X144481703Y-55805336D01*
X144371389Y-55746371D01*
X144251691Y-55710061D01*
X144127209Y-55697801D01*
X144002727Y-55710061D01*
X143883029Y-55746371D01*
X143772715Y-55805336D01*
X143676024Y-55884688D01*
X142350199Y-57210513D01*
X142270847Y-57307204D01*
X142211882Y-57417518D01*
X142175572Y-57537216D01*
X142163312Y-57661698D01*
X140710000Y-57661698D01*
X140710000Y-51674420D01*
X145572412Y-51674420D01*
X145572412Y-51981714D01*
X145632362Y-52283102D01*
X145749958Y-52567004D01*
X145920681Y-52822509D01*
X146137970Y-53039798D01*
X146393475Y-53210521D01*
X146677377Y-53328117D01*
X146978765Y-53388067D01*
X147286059Y-53388067D01*
X147587447Y-53328117D01*
X147871349Y-53210521D01*
X148126854Y-53039798D01*
X148344143Y-52822509D01*
X148514866Y-52567004D01*
X148632462Y-52283102D01*
X148648291Y-52203520D01*
X154929077Y-52203520D01*
X154929077Y-52513276D01*
X154989507Y-52817079D01*
X155108045Y-53103256D01*
X155280136Y-53360809D01*
X155499166Y-53579839D01*
X155756719Y-53751930D01*
X156042896Y-53870468D01*
X156346699Y-53930898D01*
X156656455Y-53930898D01*
X156960258Y-53870468D01*
X157246435Y-53751930D01*
X157503988Y-53579839D01*
X157723018Y-53360809D01*
X157895109Y-53103256D01*
X158013647Y-52817079D01*
X158074077Y-52513276D01*
X158074077Y-52203520D01*
X158013647Y-51899717D01*
X157895109Y-51613540D01*
X157723018Y-51355987D01*
X157722022Y-51354991D01*
X161080907Y-51354991D01*
X161080907Y-51664747D01*
X161141337Y-51968550D01*
X161259875Y-52254727D01*
X161431966Y-52512280D01*
X161650996Y-52731310D01*
X161908549Y-52903401D01*
X162194726Y-53021939D01*
X162498529Y-53082369D01*
X162808285Y-53082369D01*
X163112088Y-53021939D01*
X163398265Y-52903401D01*
X163655818Y-52731310D01*
X163874848Y-52512280D01*
X164046939Y-52254727D01*
X164165477Y-51968550D01*
X164223982Y-51674420D01*
X164947139Y-51674420D01*
X164947139Y-51981714D01*
X165007089Y-52283102D01*
X165124685Y-52567004D01*
X165295408Y-52822509D01*
X165512697Y-53039798D01*
X165768202Y-53210521D01*
X166052104Y-53328117D01*
X166353492Y-53388067D01*
X166660786Y-53388067D01*
X166962174Y-53328117D01*
X167246076Y-53210521D01*
X167501581Y-53039798D01*
X167718870Y-52822509D01*
X167889593Y-52567004D01*
X168007189Y-52283102D01*
X168023018Y-52203520D01*
X174303804Y-52203520D01*
X174303804Y-52513276D01*
X174364234Y-52817079D01*
X174482772Y-53103256D01*
X174654863Y-53360809D01*
X174873893Y-53579839D01*
X175131446Y-53751930D01*
X175417623Y-53870468D01*
X175721426Y-53930898D01*
X176031182Y-53930898D01*
X176334985Y-53870468D01*
X176621162Y-53751930D01*
X176878715Y-53579839D01*
X177097745Y-53360809D01*
X177269836Y-53103256D01*
X177388374Y-52817079D01*
X177448804Y-52513276D01*
X177448804Y-52243967D01*
X179925000Y-52243967D01*
X179925000Y-52566033D01*
X179987832Y-52881912D01*
X180111082Y-53179463D01*
X180290013Y-53447252D01*
X180517748Y-53674987D01*
X180785537Y-53853918D01*
X181083088Y-53977168D01*
X181398967Y-54040000D01*
X181721033Y-54040000D01*
X181906525Y-54003104D01*
X182198470Y-54295049D01*
X182226183Y-54328817D01*
X182259951Y-54356530D01*
X182259953Y-54356532D01*
X182360941Y-54439411D01*
X182514686Y-54521589D01*
X182681510Y-54572195D01*
X182811523Y-54585000D01*
X182811531Y-54585000D01*
X182855000Y-54589281D01*
X182898469Y-54585000D01*
X184017553Y-54585000D01*
X184037818Y-54651807D01*
X184171068Y-54901100D01*
X184350392Y-55119607D01*
X184568899Y-55298932D01*
X184818192Y-55432182D01*
X185088691Y-55514236D01*
X185370000Y-55541943D01*
X185651308Y-55514236D01*
X185921807Y-55432182D01*
X186171100Y-55298932D01*
X186389607Y-55119608D01*
X186568932Y-54901101D01*
X186640000Y-54768142D01*
X186711068Y-54901100D01*
X186890392Y-55119607D01*
X187108899Y-55298932D01*
X187358192Y-55432182D01*
X187628691Y-55514236D01*
X187910000Y-55541943D01*
X188191308Y-55514236D01*
X188461807Y-55432182D01*
X188711100Y-55298932D01*
X188929607Y-55119608D01*
X189108932Y-54901101D01*
X189180000Y-54768142D01*
X189251068Y-54901100D01*
X189430392Y-55119607D01*
X189648899Y-55298932D01*
X189898192Y-55432182D01*
X190168691Y-55514236D01*
X190450000Y-55541943D01*
X190731308Y-55514236D01*
X191001807Y-55432182D01*
X191251100Y-55298932D01*
X191469607Y-55119608D01*
X191648932Y-54901101D01*
X191720000Y-54768142D01*
X191791068Y-54901100D01*
X191970392Y-55119607D01*
X192188899Y-55298932D01*
X192438192Y-55432182D01*
X192708691Y-55514236D01*
X192990000Y-55541943D01*
X193271308Y-55514236D01*
X193541807Y-55432182D01*
X193791100Y-55298932D01*
X194009607Y-55119608D01*
X194188932Y-54901101D01*
X194260000Y-54768142D01*
X194331068Y-54901100D01*
X194510392Y-55119607D01*
X194728899Y-55298932D01*
X194978192Y-55432182D01*
X195248691Y-55514236D01*
X195530000Y-55541943D01*
X195811308Y-55514236D01*
X196081807Y-55432182D01*
X196331100Y-55298932D01*
X196549607Y-55119608D01*
X196728932Y-54901101D01*
X196800000Y-54768142D01*
X196871068Y-54901100D01*
X197050392Y-55119607D01*
X197268899Y-55298932D01*
X197518192Y-55432182D01*
X197788691Y-55514236D01*
X198070000Y-55541943D01*
X198351308Y-55514236D01*
X198621807Y-55432182D01*
X198871100Y-55298932D01*
X199089607Y-55119608D01*
X199268932Y-54901101D01*
X199340000Y-54768142D01*
X199411068Y-54901100D01*
X199590392Y-55119607D01*
X199808899Y-55298932D01*
X200058192Y-55432182D01*
X200328691Y-55514236D01*
X200610000Y-55541943D01*
X200891308Y-55514236D01*
X201161807Y-55432182D01*
X201411100Y-55298932D01*
X201629607Y-55119608D01*
X201808932Y-54901101D01*
X201880000Y-54768142D01*
X201951068Y-54901100D01*
X202130392Y-55119607D01*
X202348899Y-55298932D01*
X202598192Y-55432182D01*
X202868691Y-55514236D01*
X203150000Y-55541943D01*
X203431308Y-55514236D01*
X203701807Y-55432182D01*
X203951100Y-55298932D01*
X204169607Y-55119608D01*
X204348932Y-54901101D01*
X204420000Y-54768142D01*
X204491068Y-54901100D01*
X204670392Y-55119607D01*
X204888899Y-55298932D01*
X205138192Y-55432182D01*
X205408691Y-55514236D01*
X205690000Y-55541943D01*
X205971308Y-55514236D01*
X206241807Y-55432182D01*
X206491100Y-55298932D01*
X206709607Y-55119608D01*
X206888932Y-54901101D01*
X206960000Y-54768142D01*
X207031068Y-54901100D01*
X207210392Y-55119607D01*
X207428899Y-55298932D01*
X207678192Y-55432182D01*
X207948691Y-55514236D01*
X208230000Y-55541943D01*
X208511308Y-55514236D01*
X208781807Y-55432182D01*
X209031100Y-55298932D01*
X209249607Y-55119608D01*
X209428932Y-54901101D01*
X209562182Y-54651808D01*
X209644236Y-54381309D01*
X209665000Y-54170492D01*
X209665000Y-53812665D01*
X211875000Y-53812665D01*
X211875000Y-54095335D01*
X211930147Y-54372574D01*
X212038320Y-54633727D01*
X212195363Y-54868759D01*
X212395241Y-55068637D01*
X212630273Y-55225680D01*
X212891426Y-55333853D01*
X213168665Y-55389000D01*
X213451335Y-55389000D01*
X213728574Y-55333853D01*
X213989727Y-55225680D01*
X214224759Y-55068637D01*
X214424637Y-54868759D01*
X214581680Y-54633727D01*
X214689853Y-54372574D01*
X214745000Y-54095335D01*
X214745000Y-53812665D01*
X214689853Y-53535426D01*
X214581680Y-53274273D01*
X214424637Y-53039241D01*
X214224759Y-52839363D01*
X213989727Y-52682320D01*
X213728574Y-52574147D01*
X213451335Y-52519000D01*
X213168665Y-52519000D01*
X212891426Y-52574147D01*
X212630273Y-52682320D01*
X212395241Y-52839363D01*
X212195363Y-53039241D01*
X212038320Y-53274273D01*
X211930147Y-53535426D01*
X211875000Y-53812665D01*
X209665000Y-53812665D01*
X209665000Y-53229509D01*
X209644236Y-53018691D01*
X209562182Y-52748192D01*
X209428932Y-52498899D01*
X209249608Y-52280392D01*
X209031101Y-52101068D01*
X208781808Y-51967818D01*
X208624171Y-51920000D01*
X216790199Y-51920000D01*
X217001928Y-52131730D01*
X217001928Y-53195000D01*
X217014188Y-53319482D01*
X217050498Y-53439180D01*
X217109463Y-53549494D01*
X217188815Y-53646185D01*
X217285506Y-53725537D01*
X217395820Y-53784502D01*
X217515518Y-53820812D01*
X217640000Y-53833072D01*
X219140000Y-53833072D01*
X219264482Y-53820812D01*
X219384180Y-53784502D01*
X219494494Y-53725537D01*
X219591185Y-53646185D01*
X219670537Y-53549494D01*
X219729502Y-53439180D01*
X219765812Y-53319482D01*
X219778072Y-53195000D01*
X219778072Y-51695000D01*
X219776046Y-51674420D01*
X224947139Y-51674420D01*
X224947139Y-51981714D01*
X225007089Y-52283102D01*
X225124685Y-52567004D01*
X225295408Y-52822509D01*
X225512697Y-53039798D01*
X225768202Y-53210521D01*
X226052104Y-53328117D01*
X226353492Y-53388067D01*
X226660786Y-53388067D01*
X226962174Y-53328117D01*
X227246076Y-53210521D01*
X227501581Y-53039798D01*
X227718870Y-52822509D01*
X227889593Y-52567004D01*
X228007189Y-52283102D01*
X228023018Y-52203520D01*
X234303804Y-52203520D01*
X234303804Y-52513276D01*
X234364234Y-52817079D01*
X234482772Y-53103256D01*
X234654863Y-53360809D01*
X234873893Y-53579839D01*
X235131446Y-53751930D01*
X235417623Y-53870468D01*
X235721426Y-53930898D01*
X236031182Y-53930898D01*
X236334985Y-53870468D01*
X236621162Y-53751930D01*
X236878715Y-53579839D01*
X237097745Y-53360809D01*
X237269836Y-53103256D01*
X237388374Y-52817079D01*
X237448804Y-52513276D01*
X237448804Y-52203520D01*
X237388374Y-51899717D01*
X237269836Y-51613540D01*
X237097745Y-51355987D01*
X236878715Y-51136957D01*
X236621162Y-50964866D01*
X236334985Y-50846328D01*
X236031182Y-50785898D01*
X235721426Y-50785898D01*
X235417623Y-50846328D01*
X235131446Y-50964866D01*
X234873893Y-51136957D01*
X234654863Y-51355987D01*
X234482772Y-51613540D01*
X234364234Y-51899717D01*
X234303804Y-52203520D01*
X228023018Y-52203520D01*
X228067139Y-51981714D01*
X228067139Y-51674420D01*
X228007189Y-51373032D01*
X227889593Y-51089130D01*
X227718870Y-50833625D01*
X227501581Y-50616336D01*
X227246076Y-50445613D01*
X226962174Y-50328017D01*
X226660786Y-50268067D01*
X226353492Y-50268067D01*
X226052104Y-50328017D01*
X225768202Y-50445613D01*
X225512697Y-50616336D01*
X225295408Y-50833625D01*
X225124685Y-51089130D01*
X225007089Y-51373032D01*
X224947139Y-51674420D01*
X219776046Y-51674420D01*
X219765812Y-51570518D01*
X219729502Y-51450820D01*
X219670537Y-51340506D01*
X219591185Y-51243815D01*
X219494494Y-51164463D01*
X219384180Y-51105498D01*
X219264482Y-51069188D01*
X219156517Y-51058555D01*
X219272886Y-50980799D01*
X219465799Y-50787886D01*
X219617371Y-50561043D01*
X219721775Y-50308989D01*
X219775000Y-50041411D01*
X219775000Y-49768589D01*
X219721775Y-49501011D01*
X219617371Y-49248957D01*
X219465799Y-49022114D01*
X219272886Y-48829201D01*
X219046043Y-48677629D01*
X219022763Y-48667986D01*
X230768270Y-48667986D01*
X230768270Y-48977742D01*
X230828700Y-49281545D01*
X230947238Y-49567722D01*
X231119329Y-49825275D01*
X231338359Y-50044305D01*
X231595912Y-50216396D01*
X231882089Y-50334934D01*
X232185892Y-50395364D01*
X232495648Y-50395364D01*
X232799451Y-50334934D01*
X233085628Y-50216396D01*
X233343181Y-50044305D01*
X233562211Y-49825275D01*
X233734302Y-49567722D01*
X233852840Y-49281545D01*
X233913270Y-48977742D01*
X233913270Y-48667986D01*
X233852840Y-48364183D01*
X233734302Y-48078006D01*
X233562211Y-47820453D01*
X233343181Y-47601423D01*
X233085628Y-47429332D01*
X232799451Y-47310794D01*
X232495648Y-47250364D01*
X232185892Y-47250364D01*
X231882089Y-47310794D01*
X231595912Y-47429332D01*
X231338359Y-47601423D01*
X231119329Y-47820453D01*
X230947238Y-48078006D01*
X230828700Y-48364183D01*
X230768270Y-48667986D01*
X219022763Y-48667986D01*
X218946721Y-48636489D01*
X218988832Y-48621277D01*
X219101863Y-48560860D01*
X219167388Y-48321993D01*
X218390000Y-47544605D01*
X217612612Y-48321993D01*
X217678137Y-48560860D01*
X217836477Y-48635164D01*
X217733957Y-48677629D01*
X217507114Y-48829201D01*
X217314201Y-49022114D01*
X217232091Y-49145000D01*
X215671802Y-49145000D01*
X214075302Y-47548501D01*
X214224759Y-47448637D01*
X214235904Y-47437492D01*
X217000188Y-47437492D01*
X217041035Y-47707238D01*
X217133723Y-47963832D01*
X217194140Y-48076863D01*
X217433007Y-48142388D01*
X218210395Y-47365000D01*
X218569605Y-47365000D01*
X219346993Y-48142388D01*
X219585860Y-48076863D01*
X219701760Y-47829884D01*
X219767250Y-47565040D01*
X219779812Y-47292508D01*
X219738965Y-47022762D01*
X219646277Y-46766168D01*
X219585860Y-46653137D01*
X219346993Y-46587612D01*
X218569605Y-47365000D01*
X218210395Y-47365000D01*
X217433007Y-46587612D01*
X217194140Y-46653137D01*
X217078240Y-46900116D01*
X217012750Y-47164960D01*
X217000188Y-47437492D01*
X214235904Y-47437492D01*
X214424637Y-47248759D01*
X214581680Y-47013727D01*
X214689853Y-46752574D01*
X214745000Y-46475335D01*
X214745000Y-46408007D01*
X217612612Y-46408007D01*
X218390000Y-47185395D01*
X219167388Y-46408007D01*
X219101863Y-46169140D01*
X218854884Y-46053240D01*
X218590040Y-45987750D01*
X218317508Y-45975188D01*
X218047762Y-46016035D01*
X217791168Y-46108723D01*
X217678137Y-46169140D01*
X217612612Y-46408007D01*
X214745000Y-46408007D01*
X214745000Y-46192665D01*
X214689853Y-45915426D01*
X214581680Y-45654273D01*
X214424637Y-45419241D01*
X214224759Y-45219363D01*
X213989727Y-45062320D01*
X213728574Y-44954147D01*
X213451335Y-44899000D01*
X213168665Y-44899000D01*
X212891426Y-44954147D01*
X212630273Y-45062320D01*
X212395241Y-45219363D01*
X212195363Y-45419241D01*
X212038320Y-45654273D01*
X211930147Y-45915426D01*
X211875000Y-46192665D01*
X211875000Y-46475335D01*
X211930147Y-46752574D01*
X212038320Y-47013727D01*
X212195363Y-47248759D01*
X212395241Y-47448637D01*
X212550000Y-47552044D01*
X212550000Y-47820677D01*
X212546324Y-47858000D01*
X212550000Y-47895322D01*
X212550000Y-47895332D01*
X212560997Y-48006985D01*
X212582194Y-48076863D01*
X212604454Y-48150246D01*
X212675026Y-48282276D01*
X212699307Y-48311862D01*
X212769999Y-48398001D01*
X212799003Y-48421804D01*
X214777198Y-50400000D01*
X190487322Y-50400000D01*
X190449999Y-50396324D01*
X190412676Y-50400000D01*
X190412667Y-50400000D01*
X190301014Y-50410997D01*
X190157753Y-50454454D01*
X190025724Y-50525026D01*
X190025722Y-50525027D01*
X190025723Y-50525027D01*
X189938996Y-50596201D01*
X189938992Y-50596205D01*
X189909999Y-50619999D01*
X189886205Y-50648992D01*
X188530606Y-52004592D01*
X188461808Y-51967818D01*
X188191309Y-51885764D01*
X187910000Y-51858057D01*
X187628692Y-51885764D01*
X187358193Y-51967818D01*
X187108900Y-52101068D01*
X186890393Y-52280392D01*
X186711068Y-52498899D01*
X186640000Y-52631858D01*
X186568932Y-52498899D01*
X186389608Y-52280392D01*
X186171101Y-52101068D01*
X185921808Y-51967818D01*
X185651309Y-51885764D01*
X185370000Y-51858057D01*
X185088692Y-51885764D01*
X184818193Y-51967818D01*
X184568900Y-52101068D01*
X184350393Y-52280392D01*
X184171068Y-52498899D01*
X184037818Y-52748192D01*
X184017552Y-52815000D01*
X183221579Y-52815000D01*
X183158104Y-52751525D01*
X183195000Y-52566033D01*
X183195000Y-52243967D01*
X183132168Y-51928088D01*
X183008918Y-51630537D01*
X182829987Y-51362748D01*
X182602252Y-51135013D01*
X182334463Y-50956082D01*
X182036912Y-50832832D01*
X181721033Y-50770000D01*
X181398967Y-50770000D01*
X181083088Y-50832832D01*
X180785537Y-50956082D01*
X180517748Y-51135013D01*
X180290013Y-51362748D01*
X180111082Y-51630537D01*
X179987832Y-51928088D01*
X179925000Y-52243967D01*
X177448804Y-52243967D01*
X177448804Y-52203520D01*
X177388374Y-51899717D01*
X177269836Y-51613540D01*
X177097745Y-51355987D01*
X176878715Y-51136957D01*
X176621162Y-50964866D01*
X176334985Y-50846328D01*
X176031182Y-50785898D01*
X175721426Y-50785898D01*
X175417623Y-50846328D01*
X175131446Y-50964866D01*
X174873893Y-51136957D01*
X174654863Y-51355987D01*
X174482772Y-51613540D01*
X174364234Y-51899717D01*
X174303804Y-52203520D01*
X168023018Y-52203520D01*
X168067139Y-51981714D01*
X168067139Y-51674420D01*
X168007189Y-51373032D01*
X167889593Y-51089130D01*
X167718870Y-50833625D01*
X167501581Y-50616336D01*
X167246076Y-50445613D01*
X166962174Y-50328017D01*
X166660786Y-50268067D01*
X166353492Y-50268067D01*
X166052104Y-50328017D01*
X165768202Y-50445613D01*
X165512697Y-50616336D01*
X165295408Y-50833625D01*
X165124685Y-51089130D01*
X165007089Y-51373032D01*
X164947139Y-51674420D01*
X164223982Y-51674420D01*
X164225907Y-51664747D01*
X164225907Y-51354991D01*
X164165477Y-51051188D01*
X164046939Y-50765011D01*
X163874848Y-50507458D01*
X163655818Y-50288428D01*
X163398265Y-50116337D01*
X163112088Y-49997799D01*
X162808285Y-49937369D01*
X162498529Y-49937369D01*
X162194726Y-49997799D01*
X161908549Y-50116337D01*
X161650996Y-50288428D01*
X161431966Y-50507458D01*
X161259875Y-50765011D01*
X161141337Y-51051188D01*
X161080907Y-51354991D01*
X157722022Y-51354991D01*
X157503988Y-51136957D01*
X157246435Y-50964866D01*
X156960258Y-50846328D01*
X156656455Y-50785898D01*
X156346699Y-50785898D01*
X156042896Y-50846328D01*
X155756719Y-50964866D01*
X155499166Y-51136957D01*
X155280136Y-51355987D01*
X155108045Y-51613540D01*
X154989507Y-51899717D01*
X154929077Y-52203520D01*
X148648291Y-52203520D01*
X148692412Y-51981714D01*
X148692412Y-51674420D01*
X148632462Y-51373032D01*
X148514866Y-51089130D01*
X148344143Y-50833625D01*
X148126854Y-50616336D01*
X147871349Y-50445613D01*
X147587447Y-50328017D01*
X147286059Y-50268067D01*
X146978765Y-50268067D01*
X146677377Y-50328017D01*
X146393475Y-50445613D01*
X146137970Y-50616336D01*
X145920681Y-50833625D01*
X145749958Y-51089130D01*
X145632362Y-51373032D01*
X145572412Y-51674420D01*
X140710000Y-51674420D01*
X140710000Y-48667986D01*
X151393543Y-48667986D01*
X151393543Y-48977742D01*
X151453973Y-49281545D01*
X151572511Y-49567722D01*
X151744602Y-49825275D01*
X151963632Y-50044305D01*
X152221185Y-50216396D01*
X152507362Y-50334934D01*
X152811165Y-50395364D01*
X153120921Y-50395364D01*
X153424724Y-50334934D01*
X153710901Y-50216396D01*
X153968454Y-50044305D01*
X154187484Y-49825275D01*
X154359575Y-49567722D01*
X154478113Y-49281545D01*
X154538543Y-48977742D01*
X154538543Y-48667986D01*
X154481666Y-48382043D01*
X154512690Y-48351019D01*
X155259776Y-48351019D01*
X155259776Y-48658313D01*
X155319726Y-48959701D01*
X155437322Y-49243603D01*
X155608045Y-49499108D01*
X155825334Y-49716397D01*
X156080839Y-49887120D01*
X156364741Y-50004716D01*
X156666129Y-50064666D01*
X156973423Y-50064666D01*
X157274811Y-50004716D01*
X157558713Y-49887120D01*
X157814218Y-49716397D01*
X158031507Y-49499108D01*
X158202230Y-49243603D01*
X158319826Y-48959701D01*
X158379776Y-48658313D01*
X158379776Y-48351019D01*
X158319826Y-48049631D01*
X158202230Y-47765729D01*
X158031507Y-47510224D01*
X157814218Y-47292935D01*
X157558713Y-47122212D01*
X157274811Y-47004616D01*
X156973423Y-46944666D01*
X156666129Y-46944666D01*
X156364741Y-47004616D01*
X156080839Y-47122212D01*
X155825334Y-47292935D01*
X155608045Y-47510224D01*
X155437322Y-47765729D01*
X155319726Y-48049631D01*
X155259776Y-48351019D01*
X154512690Y-48351019D01*
X158563709Y-44300000D01*
X168788474Y-44300000D01*
X166629762Y-46458712D01*
X166343819Y-46401835D01*
X166034063Y-46401835D01*
X165730260Y-46462265D01*
X165444083Y-46580803D01*
X165186530Y-46752894D01*
X164967500Y-46971924D01*
X164795409Y-47229477D01*
X164676871Y-47515654D01*
X164616441Y-47819457D01*
X164616441Y-48129213D01*
X164676871Y-48433016D01*
X164795409Y-48719193D01*
X164967500Y-48976746D01*
X165186530Y-49195776D01*
X165444083Y-49367867D01*
X165730260Y-49486405D01*
X166034063Y-49546835D01*
X166343819Y-49546835D01*
X166647622Y-49486405D01*
X166933799Y-49367867D01*
X167191352Y-49195776D01*
X167410382Y-48976746D01*
X167582473Y-48719193D01*
X167603683Y-48667986D01*
X170768270Y-48667986D01*
X170768270Y-48977742D01*
X170828700Y-49281545D01*
X170947238Y-49567722D01*
X171119329Y-49825275D01*
X171338359Y-50044305D01*
X171595912Y-50216396D01*
X171882089Y-50334934D01*
X172185892Y-50395364D01*
X172495648Y-50395364D01*
X172799451Y-50334934D01*
X173085628Y-50216396D01*
X173343181Y-50044305D01*
X173562211Y-49825275D01*
X173734302Y-49567722D01*
X173852840Y-49281545D01*
X173913270Y-48977742D01*
X173913270Y-48667986D01*
X173887895Y-48540413D01*
X180604192Y-48540413D01*
X180699956Y-48804814D01*
X180989571Y-48945704D01*
X181301108Y-49027384D01*
X181622595Y-49046718D01*
X181941675Y-49002961D01*
X182246088Y-48897795D01*
X182420044Y-48804814D01*
X182515808Y-48540413D01*
X181560000Y-47584605D01*
X180604192Y-48540413D01*
X173887895Y-48540413D01*
X173852840Y-48364183D01*
X173734302Y-48078006D01*
X173562211Y-47820453D01*
X173343181Y-47601423D01*
X173142893Y-47467595D01*
X179918282Y-47467595D01*
X179962039Y-47786675D01*
X180067205Y-48091088D01*
X180160186Y-48265044D01*
X180424587Y-48360808D01*
X181380395Y-47405000D01*
X181739605Y-47405000D01*
X182695413Y-48360808D01*
X182959814Y-48265044D01*
X183100704Y-47975429D01*
X183182384Y-47663892D01*
X183201718Y-47342405D01*
X183193161Y-47280000D01*
X183931928Y-47280000D01*
X183944188Y-47404482D01*
X183980498Y-47524180D01*
X184039463Y-47634494D01*
X184118815Y-47731185D01*
X184215506Y-47810537D01*
X184325820Y-47869502D01*
X184445518Y-47905812D01*
X184570000Y-47918072D01*
X185084250Y-47915000D01*
X185243000Y-47756250D01*
X185243000Y-46207000D01*
X184093750Y-46207000D01*
X183935000Y-46365750D01*
X183931928Y-47280000D01*
X183193161Y-47280000D01*
X183157961Y-47023325D01*
X183052795Y-46718912D01*
X182959814Y-46544956D01*
X182695413Y-46449192D01*
X181739605Y-47405000D01*
X181380395Y-47405000D01*
X180424587Y-46449192D01*
X180160186Y-46544956D01*
X180019296Y-46834571D01*
X179937616Y-47146108D01*
X179918282Y-47467595D01*
X173142893Y-47467595D01*
X173085628Y-47429332D01*
X172799451Y-47310794D01*
X172495648Y-47250364D01*
X172185892Y-47250364D01*
X171882089Y-47310794D01*
X171595912Y-47429332D01*
X171338359Y-47601423D01*
X171119329Y-47820453D01*
X170947238Y-48078006D01*
X170828700Y-48364183D01*
X170768270Y-48667986D01*
X167603683Y-48667986D01*
X167701011Y-48433016D01*
X167761441Y-48129213D01*
X167761441Y-47819457D01*
X167704564Y-47533514D01*
X168968491Y-46269587D01*
X180604192Y-46269587D01*
X181560000Y-47225395D01*
X182515808Y-46269587D01*
X182420044Y-46005186D01*
X182130429Y-45864296D01*
X181818892Y-45782616D01*
X181497405Y-45763282D01*
X181178325Y-45807039D01*
X180873912Y-45912205D01*
X180699956Y-46005186D01*
X180604192Y-46269587D01*
X168968491Y-46269587D01*
X170430078Y-44808000D01*
X183939019Y-44808000D01*
X183931928Y-44880000D01*
X183935000Y-45794250D01*
X184093750Y-45953000D01*
X185243000Y-45953000D01*
X185243000Y-45933000D01*
X185497000Y-45933000D01*
X185497000Y-45953000D01*
X185517000Y-45953000D01*
X185517000Y-46207000D01*
X185497000Y-46207000D01*
X185497000Y-47756250D01*
X185655750Y-47915000D01*
X186170000Y-47918072D01*
X186294482Y-47905812D01*
X186414180Y-47869502D01*
X186524494Y-47810537D01*
X186621185Y-47731185D01*
X186700537Y-47634494D01*
X186759502Y-47524180D01*
X186795812Y-47404482D01*
X186797581Y-47386517D01*
X186890392Y-47499607D01*
X187108899Y-47678932D01*
X187358192Y-47812182D01*
X187628691Y-47894236D01*
X187910000Y-47921943D01*
X188191308Y-47894236D01*
X188461807Y-47812182D01*
X188711100Y-47678932D01*
X188929607Y-47499608D01*
X189108932Y-47281101D01*
X189180000Y-47148142D01*
X189251068Y-47281100D01*
X189430392Y-47499607D01*
X189648899Y-47678932D01*
X189898192Y-47812182D01*
X190168691Y-47894236D01*
X190450000Y-47921943D01*
X190731308Y-47894236D01*
X191001807Y-47812182D01*
X191251100Y-47678932D01*
X191469607Y-47499608D01*
X191648932Y-47281101D01*
X191720000Y-47148142D01*
X191791068Y-47281100D01*
X191970392Y-47499607D01*
X192188899Y-47678932D01*
X192438192Y-47812182D01*
X192708691Y-47894236D01*
X192990000Y-47921943D01*
X193271308Y-47894236D01*
X193541807Y-47812182D01*
X193791100Y-47678932D01*
X194009607Y-47499608D01*
X194188932Y-47281101D01*
X194260000Y-47148142D01*
X194331068Y-47281100D01*
X194510392Y-47499607D01*
X194728899Y-47678932D01*
X194978192Y-47812182D01*
X195248691Y-47894236D01*
X195530000Y-47921943D01*
X195811308Y-47894236D01*
X196081807Y-47812182D01*
X196331100Y-47678932D01*
X196549607Y-47499608D01*
X196728932Y-47281101D01*
X196800000Y-47148142D01*
X196871068Y-47281100D01*
X197050392Y-47499607D01*
X197268899Y-47678932D01*
X197518192Y-47812182D01*
X197788691Y-47894236D01*
X198070000Y-47921943D01*
X198351308Y-47894236D01*
X198621807Y-47812182D01*
X198871100Y-47678932D01*
X199089607Y-47499608D01*
X199268932Y-47281101D01*
X199340000Y-47148142D01*
X199411068Y-47281100D01*
X199590392Y-47499607D01*
X199808899Y-47678932D01*
X200058192Y-47812182D01*
X200328691Y-47894236D01*
X200610000Y-47921943D01*
X200891308Y-47894236D01*
X201161807Y-47812182D01*
X201411100Y-47678932D01*
X201629607Y-47499608D01*
X201808932Y-47281101D01*
X201877265Y-47153259D01*
X202027399Y-47382839D01*
X202225105Y-47584500D01*
X202458354Y-47743715D01*
X202718182Y-47854367D01*
X202800961Y-47871904D01*
X203023000Y-47749915D01*
X203023000Y-46207000D01*
X203277000Y-46207000D01*
X203277000Y-47749915D01*
X203499039Y-47871904D01*
X203581818Y-47854367D01*
X203841646Y-47743715D01*
X204074895Y-47584500D01*
X204272601Y-47382839D01*
X204420000Y-47157441D01*
X204567399Y-47382839D01*
X204765105Y-47584500D01*
X204998354Y-47743715D01*
X205258182Y-47854367D01*
X205340961Y-47871904D01*
X205563000Y-47749915D01*
X205563000Y-46207000D01*
X205817000Y-46207000D01*
X205817000Y-47749915D01*
X206039039Y-47871904D01*
X206121818Y-47854367D01*
X206381646Y-47743715D01*
X206614895Y-47584500D01*
X206812601Y-47382839D01*
X206960000Y-47157441D01*
X207107399Y-47382839D01*
X207305105Y-47584500D01*
X207538354Y-47743715D01*
X207798182Y-47854367D01*
X207880961Y-47871904D01*
X208103000Y-47749915D01*
X208103000Y-46207000D01*
X208357000Y-46207000D01*
X208357000Y-47749915D01*
X208579039Y-47871904D01*
X208661818Y-47854367D01*
X208921646Y-47743715D01*
X209154895Y-47584500D01*
X209352601Y-47382839D01*
X209507166Y-47146483D01*
X209612650Y-46884514D01*
X209665000Y-46607000D01*
X209665000Y-46207000D01*
X208357000Y-46207000D01*
X208103000Y-46207000D01*
X205817000Y-46207000D01*
X205563000Y-46207000D01*
X203277000Y-46207000D01*
X203023000Y-46207000D01*
X203003000Y-46207000D01*
X203003000Y-45953000D01*
X203023000Y-45953000D01*
X203023000Y-44410085D01*
X203277000Y-44410085D01*
X203277000Y-45953000D01*
X205563000Y-45953000D01*
X205563000Y-44410085D01*
X205817000Y-44410085D01*
X205817000Y-45953000D01*
X208103000Y-45953000D01*
X208103000Y-44410085D01*
X208357000Y-44410085D01*
X208357000Y-45953000D01*
X209665000Y-45953000D01*
X209665000Y-45553000D01*
X209612650Y-45275486D01*
X209507166Y-45013517D01*
X209352601Y-44777161D01*
X209154895Y-44575500D01*
X208921646Y-44416285D01*
X208661818Y-44305633D01*
X208579039Y-44288096D01*
X208357000Y-44410085D01*
X208103000Y-44410085D01*
X207880961Y-44288096D01*
X207798182Y-44305633D01*
X207538354Y-44416285D01*
X207305105Y-44575500D01*
X207107399Y-44777161D01*
X206960000Y-45002559D01*
X206812601Y-44777161D01*
X206614895Y-44575500D01*
X206381646Y-44416285D01*
X206121818Y-44305633D01*
X206039039Y-44288096D01*
X205817000Y-44410085D01*
X205563000Y-44410085D01*
X205340961Y-44288096D01*
X205258182Y-44305633D01*
X204998354Y-44416285D01*
X204765105Y-44575500D01*
X204567399Y-44777161D01*
X204420000Y-45002559D01*
X204272601Y-44777161D01*
X204074895Y-44575500D01*
X203841646Y-44416285D01*
X203581818Y-44305633D01*
X203499039Y-44288096D01*
X203277000Y-44410085D01*
X203023000Y-44410085D01*
X202800961Y-44288096D01*
X202718182Y-44305633D01*
X202458354Y-44416285D01*
X202225105Y-44575500D01*
X202027399Y-44777161D01*
X201877265Y-45006741D01*
X201808932Y-44878899D01*
X201629608Y-44660392D01*
X201411101Y-44481068D01*
X201161808Y-44347818D01*
X200891309Y-44265764D01*
X200610000Y-44238057D01*
X200328692Y-44265764D01*
X200058193Y-44347818D01*
X199808900Y-44481068D01*
X199590393Y-44660392D01*
X199411068Y-44878899D01*
X199340000Y-45011858D01*
X199268932Y-44878899D01*
X199089608Y-44660392D01*
X198871101Y-44481068D01*
X198621808Y-44347818D01*
X198351309Y-44265764D01*
X198070000Y-44238057D01*
X197788692Y-44265764D01*
X197518193Y-44347818D01*
X197268900Y-44481068D01*
X197050393Y-44660392D01*
X196871068Y-44878899D01*
X196800000Y-45011858D01*
X196728932Y-44878899D01*
X196549608Y-44660392D01*
X196331101Y-44481068D01*
X196081808Y-44347818D01*
X195811309Y-44265764D01*
X195530000Y-44238057D01*
X195248692Y-44265764D01*
X194978193Y-44347818D01*
X194728900Y-44481068D01*
X194510393Y-44660392D01*
X194331068Y-44878899D01*
X194260000Y-45011858D01*
X194188932Y-44878899D01*
X194009608Y-44660392D01*
X193791101Y-44481068D01*
X193541808Y-44347818D01*
X193271309Y-44265764D01*
X192990000Y-44238057D01*
X192708692Y-44265764D01*
X192438193Y-44347818D01*
X192369394Y-44384592D01*
X191013804Y-43029003D01*
X190990001Y-42999999D01*
X190874276Y-42905026D01*
X190742247Y-42834454D01*
X190598986Y-42790997D01*
X190487333Y-42780000D01*
X190487322Y-42780000D01*
X190450000Y-42776324D01*
X190412678Y-42780000D01*
X164607465Y-42780000D01*
X164683788Y-42595739D01*
X164743738Y-42294351D01*
X164743738Y-41987057D01*
X164683788Y-41685669D01*
X164566192Y-41401767D01*
X164395469Y-41146262D01*
X164178180Y-40928973D01*
X163922675Y-40758250D01*
X163638773Y-40640654D01*
X163546427Y-40622285D01*
X230165000Y-40622285D01*
X230165000Y-41377715D01*
X230312377Y-42118628D01*
X230601467Y-42816554D01*
X231021161Y-43444670D01*
X231555330Y-43978839D01*
X232183446Y-44398533D01*
X232881372Y-44687623D01*
X233622285Y-44835000D01*
X234377715Y-44835000D01*
X235118628Y-44687623D01*
X235816554Y-44398533D01*
X236444670Y-43978839D01*
X236978839Y-43444670D01*
X237398533Y-42816554D01*
X237687623Y-42118628D01*
X237835000Y-41377715D01*
X237835000Y-40622285D01*
X237687623Y-39881372D01*
X237398533Y-39183446D01*
X236978839Y-38555330D01*
X236444670Y-38021161D01*
X235816554Y-37601467D01*
X235118628Y-37312377D01*
X234377715Y-37165000D01*
X233622285Y-37165000D01*
X232881372Y-37312377D01*
X232183446Y-37601467D01*
X231555330Y-38021161D01*
X231021161Y-38555330D01*
X230601467Y-39183446D01*
X230312377Y-39881372D01*
X230165000Y-40622285D01*
X163546427Y-40622285D01*
X163337385Y-40580704D01*
X163030091Y-40580704D01*
X162728703Y-40640654D01*
X162444801Y-40758250D01*
X162189296Y-40928973D01*
X161972007Y-41146262D01*
X161801284Y-41401767D01*
X161683688Y-41685669D01*
X161623738Y-41987057D01*
X161623738Y-42294351D01*
X161683688Y-42595739D01*
X161760011Y-42780000D01*
X158286230Y-42780000D01*
X158248907Y-42776324D01*
X158211584Y-42780000D01*
X158211574Y-42780000D01*
X158099921Y-42790997D01*
X157956660Y-42834454D01*
X157824630Y-42905026D01*
X157740990Y-42973668D01*
X157708906Y-42999999D01*
X157685108Y-43028997D01*
X153406864Y-47307241D01*
X153120921Y-47250364D01*
X152811165Y-47250364D01*
X152507362Y-47310794D01*
X152221185Y-47429332D01*
X151963632Y-47601423D01*
X151744602Y-47820453D01*
X151572511Y-48078006D01*
X151453973Y-48364183D01*
X151393543Y-48667986D01*
X140710000Y-48667986D01*
X140710000Y-41029142D01*
X140743449Y-40622285D01*
X142165000Y-40622285D01*
X142165000Y-41377715D01*
X142312377Y-42118628D01*
X142601467Y-42816554D01*
X143021161Y-43444670D01*
X143555330Y-43978839D01*
X144183446Y-44398533D01*
X144881372Y-44687623D01*
X145622285Y-44835000D01*
X146377715Y-44835000D01*
X147118628Y-44687623D01*
X147816554Y-44398533D01*
X148444670Y-43978839D01*
X148978839Y-43444670D01*
X149247323Y-43042855D01*
X152278834Y-43042855D01*
X152380881Y-43335318D01*
X152538024Y-43602253D01*
X152744224Y-43833402D01*
X152991557Y-44019882D01*
X153270518Y-44154527D01*
X153442753Y-44206774D01*
X153687573Y-44086709D01*
X153687573Y-42798035D01*
X153941573Y-42798035D01*
X153941573Y-44086709D01*
X154186393Y-44206774D01*
X154478856Y-44104727D01*
X154745791Y-43947584D01*
X154976940Y-43741384D01*
X155163420Y-43494051D01*
X155298065Y-43215090D01*
X155350312Y-43042855D01*
X155230247Y-42798035D01*
X153941573Y-42798035D01*
X153687573Y-42798035D01*
X152398899Y-42798035D01*
X152278834Y-43042855D01*
X149247323Y-43042855D01*
X149398533Y-42816554D01*
X149612821Y-42299215D01*
X152278834Y-42299215D01*
X152398899Y-42544035D01*
X153687573Y-42544035D01*
X153687573Y-41255361D01*
X153941573Y-41255361D01*
X153941573Y-42544035D01*
X155230247Y-42544035D01*
X155350312Y-42299215D01*
X155248265Y-42006752D01*
X155091122Y-41739817D01*
X154884922Y-41508668D01*
X154637589Y-41322188D01*
X154358628Y-41187543D01*
X154186393Y-41135296D01*
X153941573Y-41255361D01*
X153687573Y-41255361D01*
X153442753Y-41135296D01*
X153150290Y-41237343D01*
X152883355Y-41394486D01*
X152652206Y-41600686D01*
X152465726Y-41848019D01*
X152331081Y-42126980D01*
X152278834Y-42299215D01*
X149612821Y-42299215D01*
X149687623Y-42118628D01*
X149835000Y-41377715D01*
X149835000Y-40622285D01*
X149687623Y-39881372D01*
X149398533Y-39183446D01*
X149366498Y-39135501D01*
X155386210Y-39135501D01*
X155398470Y-39259983D01*
X155434780Y-39379681D01*
X155493745Y-39489995D01*
X155573097Y-39586686D01*
X156898922Y-40912511D01*
X156995613Y-40991863D01*
X157105927Y-41050828D01*
X157225625Y-41087138D01*
X157350107Y-41099398D01*
X157474589Y-41087138D01*
X157594287Y-41050828D01*
X157704601Y-40991863D01*
X157801292Y-40912511D01*
X159127117Y-39586686D01*
X159206469Y-39489995D01*
X159265434Y-39379681D01*
X159301744Y-39259983D01*
X159314004Y-39135501D01*
X159301744Y-39011019D01*
X159265434Y-38891321D01*
X159206469Y-38781007D01*
X159127117Y-38684316D01*
X157801292Y-37358491D01*
X157704601Y-37279139D01*
X157594287Y-37220174D01*
X157474589Y-37183864D01*
X157350107Y-37171604D01*
X157225625Y-37183864D01*
X157105927Y-37220174D01*
X156995613Y-37279139D01*
X156898922Y-37358491D01*
X155573097Y-38684316D01*
X155493745Y-38781007D01*
X155434780Y-38891321D01*
X155398470Y-39011019D01*
X155386210Y-39135501D01*
X149366498Y-39135501D01*
X148978839Y-38555330D01*
X148444670Y-38021161D01*
X147816554Y-37601467D01*
X147118628Y-37312377D01*
X146377715Y-37165000D01*
X145622285Y-37165000D01*
X144881372Y-37312377D01*
X144183446Y-37601467D01*
X143555330Y-38021161D01*
X143021161Y-38555330D01*
X142601467Y-39183446D01*
X142312377Y-39881372D01*
X142165000Y-40622285D01*
X140743449Y-40622285D01*
X140783397Y-40136392D01*
X140994491Y-39295990D01*
X141340017Y-38501336D01*
X141810685Y-37773794D01*
X142393864Y-37132890D01*
X143073881Y-36595845D01*
X143832489Y-36177070D01*
X144649306Y-35887820D01*
X145514656Y-35733677D01*
X146016736Y-35710000D01*
X233970858Y-35710000D01*
X234863608Y-35783397D01*
G37*
%TD.AperFunction*%
%TD*%
M02*
