%TF.GenerationSoftware,KiCad,Pcbnew,5.1.10*%
%TF.CreationDate,2022-03-31T19:29:30-07:00*%
%TF.ProjectId,zf_vga_controller,7a665f76-6761-45f6-936f-6e74726f6c6c,rev?*%
%TF.SameCoordinates,Original*%
%TF.FileFunction,Legend,Bot*%
%TF.FilePolarity,Positive*%
%FSLAX46Y46*%
G04 Gerber Fmt 4.6, Leading zero omitted, Abs format (unit mm)*
G04 Created by KiCad (PCBNEW 5.1.10) date 2022-03-31 19:29:30*
%MOMM*%
%LPD*%
G01*
G04 APERTURE LIST*
%ADD10C,0.200000*%
%ADD11C,0.120000*%
%ADD12C,0.150000*%
G04 APERTURE END LIST*
D10*
X226330714Y-38219072D02*
X225330714Y-38219072D01*
X226330714Y-39719072D01*
X225330714Y-39719072D01*
X224759285Y-39147643D02*
X223616428Y-39147643D01*
X222402142Y-38933358D02*
X222902142Y-38933358D01*
X222902142Y-39719072D02*
X222902142Y-38219072D01*
X222187857Y-38219072D01*
X221616428Y-39719072D02*
X221616428Y-38219072D01*
X220116428Y-38290501D02*
X220259285Y-38219072D01*
X220473571Y-38219072D01*
X220687857Y-38290501D01*
X220830714Y-38433358D01*
X220902142Y-38576215D01*
X220973571Y-38861929D01*
X220973571Y-39076215D01*
X220902142Y-39361929D01*
X220830714Y-39504786D01*
X220687857Y-39647643D01*
X220473571Y-39719072D01*
X220330714Y-39719072D01*
X220116428Y-39647643D01*
X220044999Y-39576215D01*
X220044999Y-39076215D01*
X220330714Y-39076215D01*
X219402142Y-39719072D02*
X219402142Y-38219072D01*
X219402142Y-38933358D02*
X218544999Y-38933358D01*
X218544999Y-39719072D02*
X218544999Y-38219072D01*
X218044999Y-38219072D02*
X217187857Y-38219072D01*
X217616428Y-39719072D02*
X217616428Y-38219072D01*
X216687857Y-38933358D02*
X216187857Y-38933358D01*
X215973571Y-39719072D02*
X216687857Y-39719072D01*
X216687857Y-38219072D01*
X215973571Y-38219072D01*
X214473571Y-39719072D02*
X214973571Y-39004786D01*
X215330714Y-39719072D02*
X215330714Y-38219072D01*
X214759285Y-38219072D01*
X214616428Y-38290501D01*
X214544999Y-38361929D01*
X214473571Y-38504786D01*
X214473571Y-38719072D01*
X214544999Y-38861929D01*
X214616428Y-38933358D01*
X214759285Y-39004786D01*
X215330714Y-39004786D01*
X212902142Y-38219072D02*
X212402142Y-39719072D01*
X211902142Y-38219072D01*
X210616428Y-38290501D02*
X210759285Y-38219072D01*
X210973571Y-38219072D01*
X211187857Y-38290501D01*
X211330714Y-38433358D01*
X211402142Y-38576215D01*
X211473571Y-38861929D01*
X211473571Y-39076215D01*
X211402142Y-39361929D01*
X211330714Y-39504786D01*
X211187857Y-39647643D01*
X210973571Y-39719072D01*
X210830714Y-39719072D01*
X210616428Y-39647643D01*
X210544999Y-39576215D01*
X210544999Y-39076215D01*
X210830714Y-39076215D01*
X209973571Y-39290501D02*
X209259285Y-39290501D01*
X210116428Y-39719072D02*
X209616428Y-38219072D01*
X209116428Y-39719072D01*
X206616428Y-39576215D02*
X206687857Y-39647643D01*
X206902142Y-39719072D01*
X207045000Y-39719072D01*
X207259285Y-39647643D01*
X207402142Y-39504786D01*
X207473571Y-39361929D01*
X207545000Y-39076215D01*
X207545000Y-38861929D01*
X207473571Y-38576215D01*
X207402142Y-38433358D01*
X207259285Y-38290501D01*
X207045000Y-38219072D01*
X206902142Y-38219072D01*
X206687857Y-38290501D01*
X206616428Y-38361929D01*
X205759285Y-39719072D02*
X205902142Y-39647643D01*
X205973571Y-39576215D01*
X206045000Y-39433358D01*
X206045000Y-39004786D01*
X205973571Y-38861929D01*
X205902142Y-38790501D01*
X205759285Y-38719072D01*
X205545000Y-38719072D01*
X205402142Y-38790501D01*
X205330714Y-38861929D01*
X205259285Y-39004786D01*
X205259285Y-39433358D01*
X205330714Y-39576215D01*
X205402142Y-39647643D01*
X205545000Y-39719072D01*
X205759285Y-39719072D01*
X204616428Y-38719072D02*
X204616428Y-39719072D01*
X204616428Y-38861929D02*
X204545000Y-38790501D01*
X204402142Y-38719072D01*
X204187857Y-38719072D01*
X204045000Y-38790501D01*
X203973571Y-38933358D01*
X203973571Y-39719072D01*
X203473571Y-38719072D02*
X202902142Y-38719072D01*
X203259285Y-38219072D02*
X203259285Y-39504786D01*
X203187857Y-39647643D01*
X203044999Y-39719072D01*
X202902142Y-39719072D01*
X202402142Y-39719072D02*
X202402142Y-38719072D01*
X202402142Y-39004786D02*
X202330714Y-38861929D01*
X202259285Y-38790501D01*
X202116428Y-38719072D01*
X201973571Y-38719072D01*
X201259285Y-39719072D02*
X201402142Y-39647643D01*
X201473571Y-39576215D01*
X201545000Y-39433358D01*
X201545000Y-39004786D01*
X201473571Y-38861929D01*
X201402142Y-38790501D01*
X201259285Y-38719072D01*
X201045000Y-38719072D01*
X200902142Y-38790501D01*
X200830714Y-38861929D01*
X200759285Y-39004786D01*
X200759285Y-39433358D01*
X200830714Y-39576215D01*
X200902142Y-39647643D01*
X201045000Y-39719072D01*
X201259285Y-39719072D01*
X199902142Y-39719072D02*
X200044999Y-39647643D01*
X200116428Y-39504786D01*
X200116428Y-38219072D01*
X199116428Y-39719072D02*
X199259285Y-39647643D01*
X199330714Y-39504786D01*
X199330714Y-38219072D01*
X197973571Y-39647643D02*
X198116428Y-39719072D01*
X198402142Y-39719072D01*
X198544999Y-39647643D01*
X198616428Y-39504786D01*
X198616428Y-38933358D01*
X198544999Y-38790501D01*
X198402142Y-38719072D01*
X198116428Y-38719072D01*
X197973571Y-38790501D01*
X197902142Y-38933358D01*
X197902142Y-39076215D01*
X198616428Y-39219072D01*
X197259285Y-39719072D02*
X197259285Y-38719072D01*
X197259285Y-39004786D02*
X197187857Y-38861929D01*
X197116428Y-38790501D01*
X196973571Y-38719072D01*
X196830714Y-38719072D01*
X194330714Y-39719072D02*
X194830714Y-39004786D01*
X195187857Y-39719072D02*
X195187857Y-38219072D01*
X194616428Y-38219072D01*
X194473571Y-38290501D01*
X194402142Y-38361929D01*
X194330714Y-38504786D01*
X194330714Y-38719072D01*
X194402142Y-38861929D01*
X194473571Y-38933358D01*
X194616428Y-39004786D01*
X195187857Y-39004786D01*
X193116428Y-39647643D02*
X193259285Y-39719072D01*
X193544999Y-39719072D01*
X193687857Y-39647643D01*
X193759285Y-39504786D01*
X193759285Y-38933358D01*
X193687857Y-38790501D01*
X193544999Y-38719072D01*
X193259285Y-38719072D01*
X193116428Y-38790501D01*
X193044999Y-38933358D01*
X193044999Y-39076215D01*
X193759285Y-39219072D01*
X192544999Y-38719072D02*
X192187857Y-39719072D01*
X191830714Y-38719072D01*
X191259285Y-39576215D02*
X191187857Y-39647643D01*
X191259285Y-39719072D01*
X191330714Y-39647643D01*
X191259285Y-39576215D01*
X191259285Y-39719072D01*
X188616428Y-39719072D02*
X189473571Y-39719072D01*
X189044999Y-39719072D02*
X189044999Y-38219072D01*
X189187857Y-38433358D01*
X189330714Y-38576215D01*
X189473571Y-38647643D01*
X185902142Y-39004786D02*
X185973571Y-38933358D01*
X186116428Y-38861929D01*
X186259285Y-38861929D01*
X186402142Y-38933358D01*
X186473571Y-39004786D01*
X186544999Y-39147643D01*
X186544999Y-39290501D01*
X186473571Y-39433358D01*
X186402142Y-39504786D01*
X186259285Y-39576215D01*
X186116428Y-39576215D01*
X185973571Y-39504786D01*
X185902142Y-39433358D01*
X185902142Y-38861929D02*
X185902142Y-39433358D01*
X185830714Y-39504786D01*
X185759285Y-39504786D01*
X185616428Y-39433358D01*
X185544999Y-39290501D01*
X185544999Y-38933358D01*
X185687857Y-38719072D01*
X185902142Y-38576215D01*
X186187857Y-38504786D01*
X186473571Y-38576215D01*
X186687857Y-38719072D01*
X186830714Y-38933358D01*
X186902142Y-39219072D01*
X186830714Y-39504786D01*
X186687857Y-39719072D01*
X186473571Y-39861929D01*
X186187857Y-39933358D01*
X185902142Y-39861929D01*
X185687857Y-39719072D01*
X185116428Y-38719072D02*
X184544999Y-38719072D01*
X184902142Y-38219072D02*
X184902142Y-39504786D01*
X184830714Y-39647643D01*
X184687857Y-39719072D01*
X184544999Y-39719072D01*
X183402142Y-39719072D02*
X183402142Y-38933358D01*
X183473571Y-38790501D01*
X183616428Y-38719072D01*
X183902142Y-38719072D01*
X184044999Y-38790501D01*
X183402142Y-39647643D02*
X183544999Y-39719072D01*
X183902142Y-39719072D01*
X184044999Y-39647643D01*
X184116428Y-39504786D01*
X184116428Y-39361929D01*
X184044999Y-39219072D01*
X183902142Y-39147643D01*
X183544999Y-39147643D01*
X183402142Y-39076215D01*
X182687857Y-38719072D02*
X182687857Y-39719072D01*
X182687857Y-38861929D02*
X182616428Y-38790501D01*
X182473571Y-38719072D01*
X182259285Y-38719072D01*
X182116428Y-38790501D01*
X182044999Y-38933358D01*
X182044999Y-39719072D01*
X180687857Y-38719072D02*
X180687857Y-39933358D01*
X180759285Y-40076215D01*
X180830714Y-40147643D01*
X180973571Y-40219072D01*
X181187857Y-40219072D01*
X181330714Y-40147643D01*
X180687857Y-39647643D02*
X180830714Y-39719072D01*
X181116428Y-39719072D01*
X181259285Y-39647643D01*
X181330714Y-39576215D01*
X181402142Y-39433358D01*
X181402142Y-39004786D01*
X181330714Y-38861929D01*
X181259285Y-38790501D01*
X181116428Y-38719072D01*
X180830714Y-38719072D01*
X180687857Y-38790501D01*
X179402142Y-39647643D02*
X179544999Y-39719072D01*
X179830714Y-39719072D01*
X179973571Y-39647643D01*
X180044999Y-39504786D01*
X180044999Y-38933358D01*
X179973571Y-38790501D01*
X179830714Y-38719072D01*
X179544999Y-38719072D01*
X179402142Y-38790501D01*
X179330714Y-38933358D01*
X179330714Y-39076215D01*
X180044999Y-39219072D01*
X178687857Y-38719072D02*
X178687857Y-39719072D01*
X178687857Y-38861929D02*
X178616428Y-38790501D01*
X178473571Y-38719072D01*
X178259285Y-38719072D01*
X178116428Y-38790501D01*
X178044999Y-38933358D01*
X178044999Y-39719072D01*
X177544999Y-38719072D02*
X176973571Y-38719072D01*
X177330714Y-38219072D02*
X177330714Y-39504786D01*
X177259285Y-39647643D01*
X177116428Y-39719072D01*
X176973571Y-39719072D01*
X176616428Y-38219072D02*
X175687857Y-38219072D01*
X176187857Y-38790501D01*
X175973571Y-38790501D01*
X175830714Y-38861929D01*
X175759285Y-38933358D01*
X175687857Y-39076215D01*
X175687857Y-39433358D01*
X175759285Y-39576215D01*
X175830714Y-39647643D01*
X175973571Y-39719072D01*
X176402142Y-39719072D01*
X176544999Y-39647643D01*
X176616428Y-39576215D01*
X175044999Y-39719072D02*
X175044999Y-38219072D01*
X174687857Y-38219072D01*
X174473571Y-38290501D01*
X174330714Y-38433358D01*
X174259285Y-38576215D01*
X174187857Y-38861929D01*
X174187857Y-39076215D01*
X174259285Y-39361929D01*
X174330714Y-39504786D01*
X174473571Y-39647643D01*
X174687857Y-39719072D01*
X175044999Y-39719072D01*
X172473571Y-38361929D02*
X172402142Y-38290501D01*
X172259285Y-38219072D01*
X171902142Y-38219072D01*
X171759285Y-38290501D01*
X171687857Y-38361929D01*
X171616428Y-38504786D01*
X171616428Y-38647643D01*
X171687857Y-38861929D01*
X172544999Y-39719072D01*
X171616428Y-39719072D01*
X170687857Y-38219072D02*
X170544999Y-38219072D01*
X170402142Y-38290501D01*
X170330714Y-38361929D01*
X170259285Y-38504786D01*
X170187857Y-38790501D01*
X170187857Y-39147643D01*
X170259285Y-39433358D01*
X170330714Y-39576215D01*
X170402142Y-39647643D01*
X170544999Y-39719072D01*
X170687857Y-39719072D01*
X170830714Y-39647643D01*
X170902142Y-39576215D01*
X170973571Y-39433358D01*
X171044999Y-39147643D01*
X171044999Y-38790501D01*
X170973571Y-38504786D01*
X170902142Y-38361929D01*
X170830714Y-38290501D01*
X170687857Y-38219072D01*
X169616428Y-38361929D02*
X169544999Y-38290501D01*
X169402142Y-38219072D01*
X169044999Y-38219072D01*
X168902142Y-38290501D01*
X168830714Y-38361929D01*
X168759285Y-38504786D01*
X168759285Y-38647643D01*
X168830714Y-38861929D01*
X169687857Y-39719072D01*
X168759285Y-39719072D01*
X168187857Y-38361929D02*
X168116428Y-38290501D01*
X167973571Y-38219072D01*
X167616428Y-38219072D01*
X167473571Y-38290501D01*
X167402142Y-38361929D01*
X167330714Y-38504786D01*
X167330714Y-38647643D01*
X167402142Y-38861929D01*
X168259285Y-39719072D01*
X167330714Y-39719072D01*
D11*
%TO.C,C1*%
X182930000Y-46035000D02*
X180190000Y-46035000D01*
X182930000Y-53775000D02*
X180190000Y-53775000D01*
X180190000Y-53775000D02*
X180190000Y-46035000D01*
X182930000Y-53775000D02*
X182930000Y-46035000D01*
%TO.C,J1*%
X212100000Y-56180000D02*
X212100000Y-58840000D01*
X191720000Y-56180000D02*
X212100000Y-56180000D01*
X191720000Y-58840000D02*
X212100000Y-58840000D01*
X191720000Y-56180000D02*
X191720000Y-58840000D01*
X190450000Y-56180000D02*
X189120000Y-56180000D01*
X189120000Y-56180000D02*
X189120000Y-57510000D01*
%TO.C,Q1*%
X217267205Y-52229184D02*
G75*
G02*
X216540000Y-51705000I1122795J2324184D01*
G01*
X219488807Y-52261400D02*
G75*
G03*
X220990000Y-49905000I-1098807J2356400D01*
G01*
X219488807Y-47548600D02*
G75*
G02*
X220990000Y-49905000I-1098807J-2356400D01*
G01*
X217267205Y-47580816D02*
G75*
G03*
X216540000Y-48105000I1122795J-2324184D01*
G01*
X216540000Y-51705000D02*
X216540000Y-48105000D01*
%TO.C,R1*%
X212270000Y-46874000D02*
X211940000Y-46874000D01*
X211940000Y-46874000D02*
X211940000Y-53414000D01*
X211940000Y-53414000D02*
X212270000Y-53414000D01*
X214350000Y-46874000D02*
X214680000Y-46874000D01*
X214680000Y-46874000D02*
X214680000Y-53414000D01*
X214680000Y-53414000D02*
X214350000Y-53414000D01*
%TO.C,R2*%
X188450000Y-62690000D02*
X188450000Y-62360000D01*
X194990000Y-62690000D02*
X188450000Y-62690000D01*
X194990000Y-62360000D02*
X194990000Y-62690000D01*
X188450000Y-59950000D02*
X188450000Y-60280000D01*
X194990000Y-59950000D02*
X188450000Y-59950000D01*
X194990000Y-60280000D02*
X194990000Y-59950000D01*
%TO.C,RN1*%
X179370000Y-68597411D02*
X179370000Y-65797411D01*
X194780000Y-68597411D02*
X176660000Y-68597411D01*
X194780000Y-65797411D02*
X194780000Y-68597411D01*
X176660000Y-65797411D02*
X194780000Y-65797411D01*
X176660000Y-68597411D02*
X176660000Y-65797411D01*
%TO.C,U1*%
X184040000Y-50890000D02*
G75*
G03*
X184040000Y-48890000I0J1000000D01*
G01*
X184040000Y-48890000D02*
X184040000Y-47640000D01*
X184040000Y-47640000D02*
X209560000Y-47640000D01*
X209560000Y-47640000D02*
X209560000Y-52140000D01*
X209560000Y-52140000D02*
X184040000Y-52140000D01*
X184040000Y-52140000D02*
X184040000Y-50890000D01*
%TO.C,C1*%
D12*
X181849642Y-49738333D02*
X181897261Y-49690714D01*
X181944880Y-49547857D01*
X181944880Y-49452619D01*
X181897261Y-49309761D01*
X181802023Y-49214523D01*
X181706785Y-49166904D01*
X181516309Y-49119285D01*
X181373452Y-49119285D01*
X181182976Y-49166904D01*
X181087738Y-49214523D01*
X180992500Y-49309761D01*
X180944880Y-49452619D01*
X180944880Y-49547857D01*
X180992500Y-49690714D01*
X181040119Y-49738333D01*
X181944880Y-50690714D02*
X181944880Y-50119285D01*
X181944880Y-50405000D02*
X180944880Y-50405000D01*
X181087738Y-50309761D01*
X181182976Y-50214523D01*
X181230595Y-50119285D01*
%TO.C,J1*%
X187783333Y-56962380D02*
X187783333Y-57676666D01*
X187830952Y-57819523D01*
X187926190Y-57914761D01*
X188069047Y-57962380D01*
X188164285Y-57962380D01*
X186783333Y-57962380D02*
X187354761Y-57962380D01*
X187069047Y-57962380D02*
X187069047Y-56962380D01*
X187164285Y-57105238D01*
X187259523Y-57200476D01*
X187354761Y-57248095D01*
%TO.C,Q1*%
X222747619Y-49809761D02*
X222700000Y-49714523D01*
X222604761Y-49619285D01*
X222461904Y-49476428D01*
X222414285Y-49381190D01*
X222414285Y-49285952D01*
X222652380Y-49333571D02*
X222604761Y-49238333D01*
X222509523Y-49143095D01*
X222319047Y-49095476D01*
X221985714Y-49095476D01*
X221795238Y-49143095D01*
X221700000Y-49238333D01*
X221652380Y-49333571D01*
X221652380Y-49524047D01*
X221700000Y-49619285D01*
X221795238Y-49714523D01*
X221985714Y-49762142D01*
X222319047Y-49762142D01*
X222509523Y-49714523D01*
X222604761Y-49619285D01*
X222652380Y-49524047D01*
X222652380Y-49333571D01*
X222652380Y-50714523D02*
X222652380Y-50143095D01*
X222652380Y-50428809D02*
X221652380Y-50428809D01*
X221795238Y-50333571D01*
X221890476Y-50238333D01*
X221938095Y-50143095D01*
%TO.C,R1*%
X213829880Y-49977333D02*
X213353690Y-49644000D01*
X213829880Y-49405904D02*
X212829880Y-49405904D01*
X212829880Y-49786857D01*
X212877500Y-49882095D01*
X212925119Y-49929714D01*
X213020357Y-49977333D01*
X213163214Y-49977333D01*
X213258452Y-49929714D01*
X213306071Y-49882095D01*
X213353690Y-49786857D01*
X213353690Y-49405904D01*
X213829880Y-50929714D02*
X213829880Y-50358285D01*
X213829880Y-50644000D02*
X212829880Y-50644000D01*
X212972738Y-50548761D01*
X213067976Y-50453523D01*
X213115595Y-50358285D01*
%TO.C,R2*%
X191886666Y-61704880D02*
X192220000Y-61228690D01*
X192458095Y-61704880D02*
X192458095Y-60704880D01*
X192077142Y-60704880D01*
X191981904Y-60752500D01*
X191934285Y-60800119D01*
X191886666Y-60895357D01*
X191886666Y-61038214D01*
X191934285Y-61133452D01*
X191981904Y-61181071D01*
X192077142Y-61228690D01*
X192458095Y-61228690D01*
X191505714Y-60800119D02*
X191458095Y-60752500D01*
X191362857Y-60704880D01*
X191124761Y-60704880D01*
X191029523Y-60752500D01*
X190981904Y-60800119D01*
X190934285Y-60895357D01*
X190934285Y-60990595D01*
X190981904Y-61133452D01*
X191553333Y-61704880D01*
X190934285Y-61704880D01*
%TO.C,RN1*%
X175190476Y-67582291D02*
X175523809Y-67106101D01*
X175761904Y-67582291D02*
X175761904Y-66582291D01*
X175380952Y-66582291D01*
X175285714Y-66629911D01*
X175238095Y-66677530D01*
X175190476Y-66772768D01*
X175190476Y-66915625D01*
X175238095Y-67010863D01*
X175285714Y-67058482D01*
X175380952Y-67106101D01*
X175761904Y-67106101D01*
X174761904Y-67582291D02*
X174761904Y-66582291D01*
X174190476Y-67582291D01*
X174190476Y-66582291D01*
X173190476Y-67582291D02*
X173761904Y-67582291D01*
X173476190Y-67582291D02*
X173476190Y-66582291D01*
X173571428Y-66725149D01*
X173666666Y-66820387D01*
X173761904Y-66868006D01*
%TO.C,U1*%
X197556904Y-49342380D02*
X197556904Y-50151904D01*
X197509285Y-50247142D01*
X197461666Y-50294761D01*
X197366428Y-50342380D01*
X197175952Y-50342380D01*
X197080714Y-50294761D01*
X197033095Y-50247142D01*
X196985476Y-50151904D01*
X196985476Y-49342380D01*
X195985476Y-50342380D02*
X196556904Y-50342380D01*
X196271190Y-50342380D02*
X196271190Y-49342380D01*
X196366428Y-49485238D01*
X196461666Y-49580476D01*
X196556904Y-49628095D01*
%TD*%
M02*
