%TF.GenerationSoftware,KiCad,Pcbnew,5.1.10*%
%TF.CreationDate,2022-03-31T13:58:45-07:00*%
%TF.ProjectId,zf_vga_controller,7a665f76-6761-45f6-936f-6e74726f6c6c,rev?*%
%TF.SameCoordinates,Original*%
%TF.FileFunction,Copper,L1,Top*%
%TF.FilePolarity,Positive*%
%FSLAX46Y46*%
G04 Gerber Fmt 4.6, Leading zero omitted, Abs format (unit mm)*
G04 Created by KiCad (PCBNEW 5.1.10) date 2022-03-31 13:58:45*
%MOMM*%
%LPD*%
G01*
G04 APERTURE LIST*
%TA.AperFunction,ComponentPad*%
%ADD10C,6.400000*%
%TD*%
%TA.AperFunction,ComponentPad*%
%ADD11C,1.875000*%
%TD*%
%TA.AperFunction,ComponentPad*%
%ADD12C,0.100000*%
%TD*%
%TA.AperFunction,ComponentPad*%
%ADD13C,2.000000*%
%TD*%
%TA.AperFunction,ComponentPad*%
%ADD14R,1.700000X1.700000*%
%TD*%
%TA.AperFunction,ComponentPad*%
%ADD15O,1.700000X1.700000*%
%TD*%
%TA.AperFunction,ComponentPad*%
%ADD16R,1.500000X1.500000*%
%TD*%
%TA.AperFunction,ComponentPad*%
%ADD17C,1.500000*%
%TD*%
%TA.AperFunction,ComponentPad*%
%ADD18O,1.600000X1.600000*%
%TD*%
%TA.AperFunction,ComponentPad*%
%ADD19C,1.600000*%
%TD*%
%TA.AperFunction,ComponentPad*%
%ADD20R,1.600000X1.600000*%
%TD*%
%TA.AperFunction,ComponentPad*%
%ADD21R,1.600000X2.400000*%
%TD*%
%TA.AperFunction,ComponentPad*%
%ADD22O,1.600000X2.400000*%
%TD*%
%TA.AperFunction,Conductor*%
%ADD23C,0.250000*%
%TD*%
%TA.AperFunction,Conductor*%
%ADD24C,0.254000*%
%TD*%
%TA.AperFunction,Conductor*%
%ADD25C,0.100000*%
%TD*%
G04 APERTURE END LIST*
D10*
%TO.P,Mount1,1*%
%TO.N,N/C*%
X234000000Y-69000000D03*
%TD*%
%TO.P,Mount1,1*%
%TO.N,N/C*%
X234000000Y-41000000D03*
%TD*%
D11*
%TO.P,SW1,4*%
%TO.N,Net-(SW1-Pad4)*%
X162653407Y-51509869D03*
%TO.P,SW1,2*%
%TO.N,Net-(SW1-Pad2)*%
X166188941Y-47974335D03*
%TO.P,SW1,3*%
%TO.N,GND*%
X153814573Y-42671035D03*
%TA.AperFunction,ComponentPad*%
D12*
%TO.P,SW1,1*%
%TO.N,Net-(RN1-Pad2)*%
G36*
X156024282Y-39135501D02*
G01*
X157350107Y-37809676D01*
X158675932Y-39135501D01*
X157350107Y-40461326D01*
X156024282Y-39135501D01*
G37*
%TD.AperFunction*%
%TD*%
%TA.AperFunction,ComponentPad*%
%TO.P,SW2,1*%
%TO.N,Net-(RN1-Pad3)*%
G36*
X156024282Y-58510227D02*
G01*
X157350107Y-57184402D01*
X158675932Y-58510227D01*
X157350107Y-59836052D01*
X156024282Y-58510227D01*
G37*
%TD.AperFunction*%
D11*
%TO.P,SW2,3*%
%TO.N,GND*%
X153814573Y-62045761D03*
%TO.P,SW2,2*%
%TO.N,Net-(SW2-Pad2)*%
X166188941Y-67349061D03*
%TO.P,SW2,4*%
%TO.N,Net-(SW2-Pad4)*%
X162653407Y-70884595D03*
%TD*%
%TA.AperFunction,ComponentPad*%
D12*
%TO.P,SW3,1*%
%TO.N,Net-(RN1-Pad4)*%
G36*
X144127209Y-58987523D02*
G01*
X142801384Y-57661698D01*
X144127209Y-56335873D01*
X145453034Y-57661698D01*
X144127209Y-58987523D01*
G37*
%TD.AperFunction*%
D11*
%TO.P,SW3,3*%
%TO.N,GND*%
X147662743Y-61197232D03*
%TO.P,SW3,2*%
%TO.N,Net-(SW3-Pad2)*%
X152966043Y-48822864D03*
%TO.P,SW3,4*%
%TO.N,Net-(SW3-Pad4)*%
X156501577Y-52358398D03*
%TD*%
%TA.AperFunction,ComponentPad*%
D12*
%TO.P,SW4,1*%
%TO.N,Net-(RN1-Pad5)*%
G36*
X163501936Y-58987523D02*
G01*
X162176111Y-57661698D01*
X163501936Y-56335873D01*
X164827761Y-57661698D01*
X163501936Y-58987523D01*
G37*
%TD.AperFunction*%
D11*
%TO.P,SW4,3*%
%TO.N,GND*%
X167037470Y-61197232D03*
%TO.P,SW4,2*%
%TO.N,Net-(SW4-Pad2)*%
X172340770Y-48822864D03*
%TO.P,SW4,4*%
%TO.N,Net-(SW4-Pad4)*%
X175876304Y-52358398D03*
%TD*%
D10*
%TO.P,Mount1,1*%
%TO.N,N/C*%
X146000000Y-69000000D03*
%TD*%
%TO.P,Mount1,1*%
%TO.N,N/C*%
X146000000Y-41000000D03*
%TD*%
D13*
%TO.P,C1,1*%
%TO.N,VCC*%
X181910000Y-47700000D03*
%TO.P,C1,2*%
%TO.N,GND*%
X181910000Y-52700000D03*
%TD*%
D14*
%TO.P,J1,1*%
%TO.N,Net-(J1-Pad1)*%
X190800000Y-42520000D03*
D15*
%TO.P,J1,2*%
%TO.N,Net-(J1-Pad2)*%
X193340000Y-42520000D03*
%TO.P,J1,3*%
%TO.N,Net-(J1-Pad3)*%
X195880000Y-42520000D03*
%TO.P,J1,4*%
%TO.N,Net-(J1-Pad4)*%
X198420000Y-42520000D03*
%TO.P,J1,5*%
%TO.N,Net-(J1-Pad5)*%
X200960000Y-42520000D03*
%TO.P,J1,6*%
%TO.N,Net-(J1-Pad6)*%
X203500000Y-42520000D03*
%TO.P,J1,7*%
%TO.N,VCC*%
X206040000Y-42520000D03*
%TO.P,J1,8*%
%TO.N,GND*%
X208580000Y-42520000D03*
%TO.P,J1,9*%
%TO.N,Net-(J1-Pad9)*%
X211120000Y-42520000D03*
%TD*%
D16*
%TO.P,Q1,1*%
%TO.N,Net-(Q1-Pad1)*%
X217350107Y-46430000D03*
D17*
%TO.P,Q1,3*%
%TO.N,GND*%
X217350107Y-51510000D03*
%TO.P,Q1,2*%
%TO.N,Net-(Q1-Pad2)*%
X217350107Y-48970000D03*
%TD*%
D18*
%TO.P,R1,2*%
%TO.N,Net-(J1-Pad9)*%
X217350107Y-38810000D03*
D19*
%TO.P,R1,1*%
%TO.N,Net-(Q1-Pad2)*%
X224970107Y-38810000D03*
%TD*%
%TO.P,R2,1*%
%TO.N,VCC*%
X224970107Y-42520000D03*
D18*
%TO.P,R2,2*%
%TO.N,Net-(Q1-Pad1)*%
X217350107Y-42520000D03*
%TD*%
%TO.P,RN1,7*%
%TO.N,Net-(RN1-Pad7)*%
X193340000Y-67197411D03*
%TO.P,RN1,6*%
%TO.N,Net-(RN1-Pad6)*%
X190800000Y-67197411D03*
%TO.P,RN1,5*%
%TO.N,Net-(RN1-Pad5)*%
X188260000Y-67197411D03*
%TO.P,RN1,4*%
%TO.N,Net-(RN1-Pad4)*%
X185720000Y-67197411D03*
%TO.P,RN1,3*%
%TO.N,Net-(RN1-Pad3)*%
X183180000Y-67197411D03*
%TO.P,RN1,2*%
%TO.N,Net-(RN1-Pad2)*%
X180640000Y-67197411D03*
D20*
%TO.P,RN1,1*%
%TO.N,VCC*%
X178100000Y-67197411D03*
%TD*%
D21*
%TO.P,U1,1*%
%TO.N,GND*%
X185720000Y-54050000D03*
D22*
%TO.P,U1,11*%
%TO.N,Net-(U1-Pad11)*%
X208580000Y-46430000D03*
%TO.P,U1,2*%
%TO.N,Net-(SW1-Pad2)*%
X188260000Y-54050000D03*
%TO.P,U1,12*%
%TO.N,Net-(U1-Pad12)*%
X206040000Y-46430000D03*
%TO.P,U1,3*%
%TO.N,Net-(SW2-Pad2)*%
X190800000Y-54050000D03*
%TO.P,U1,13*%
%TO.N,Net-(J1-Pad6)*%
X203500000Y-46430000D03*
%TO.P,U1,4*%
%TO.N,Net-(SW3-Pad2)*%
X193340000Y-54050000D03*
%TO.P,U1,14*%
%TO.N,Net-(J1-Pad5)*%
X200960000Y-46430000D03*
%TO.P,U1,5*%
%TO.N,Net-(SW4-Pad2)*%
X195880000Y-54050000D03*
%TO.P,U1,15*%
%TO.N,Net-(J1-Pad4)*%
X198420000Y-46430000D03*
%TO.P,U1,6*%
%TO.N,Net-(SW5-Pad2)*%
X198420000Y-54050000D03*
%TO.P,U1,16*%
%TO.N,Net-(J1-Pad3)*%
X195880000Y-46430000D03*
%TO.P,U1,7*%
%TO.N,Net-(SW6-Pad2)*%
X200960000Y-54050000D03*
%TO.P,U1,17*%
%TO.N,Net-(J1-Pad2)*%
X193340000Y-46430000D03*
%TO.P,U1,8*%
%TO.N,GND*%
X203500000Y-54050000D03*
%TO.P,U1,18*%
%TO.N,Net-(J1-Pad1)*%
X190800000Y-46430000D03*
%TO.P,U1,9*%
%TO.N,GND*%
X206040000Y-54050000D03*
%TO.P,U1,19*%
%TO.N,Net-(Q1-Pad1)*%
X188260000Y-46430000D03*
%TO.P,U1,10*%
%TO.N,GND*%
X208580000Y-54050000D03*
%TO.P,U1,20*%
%TO.N,VCC*%
X185720000Y-46430000D03*
%TD*%
D11*
%TO.P,SW5,4*%
%TO.N,Net-(SW5-Pad4)*%
X222653407Y-70884595D03*
%TO.P,SW5,2*%
%TO.N,Net-(SW5-Pad2)*%
X226188941Y-67349061D03*
%TO.P,SW5,3*%
%TO.N,GND*%
X213814573Y-62045761D03*
%TA.AperFunction,ComponentPad*%
D12*
%TO.P,SW5,1*%
%TO.N,Net-(RN1-Pad6)*%
G36*
X216024282Y-58510227D02*
G01*
X217350107Y-57184402D01*
X218675932Y-58510227D01*
X217350107Y-59836052D01*
X216024282Y-58510227D01*
G37*
%TD.AperFunction*%
%TD*%
%TA.AperFunction,ComponentPad*%
%TO.P,SW6,1*%
%TO.N,Net-(RN1-Pad7)*%
G36*
X223501936Y-58987523D02*
G01*
X222176111Y-57661698D01*
X223501936Y-56335873D01*
X224827761Y-57661698D01*
X223501936Y-58987523D01*
G37*
%TD.AperFunction*%
D11*
%TO.P,SW6,3*%
%TO.N,GND*%
X227037470Y-61197232D03*
%TO.P,SW6,2*%
%TO.N,Net-(SW6-Pad2)*%
X232340770Y-48822864D03*
%TO.P,SW6,4*%
%TO.N,Net-(SW6-Pad4)*%
X235876304Y-52358398D03*
%TD*%
D23*
%TO.N,Net-(J1-Pad1)*%
X190800000Y-42520000D02*
X190800000Y-46430000D01*
%TO.N,Net-(J1-Pad2)*%
X193340000Y-42520000D02*
X193340000Y-46430000D01*
%TO.N,Net-(J1-Pad3)*%
X195880000Y-42520000D02*
X195880000Y-46430000D01*
%TO.N,Net-(J1-Pad4)*%
X198420000Y-42520000D02*
X198420000Y-46430000D01*
%TO.N,Net-(J1-Pad5)*%
X200960000Y-42520000D02*
X200960000Y-46430000D01*
%TO.N,Net-(J1-Pad6)*%
X203500000Y-42520000D02*
X203500000Y-46430000D01*
%TO.N,Net-(J1-Pad9)*%
X211120000Y-42520000D02*
X211335000Y-42520000D01*
X213640107Y-42520000D02*
X217350107Y-38810000D01*
X211120000Y-42520000D02*
X213640107Y-42520000D01*
%TO.N,Net-(Q1-Pad1)*%
X217350107Y-42520000D02*
X217350107Y-46430000D01*
%TO.N,Net-(RN1-Pad2)*%
X180640000Y-67197411D02*
X178847411Y-68990000D01*
X160210000Y-65990000D02*
X160210000Y-41945394D01*
X178847411Y-68990000D02*
X163210000Y-68990000D01*
X163210000Y-68990000D02*
X160210000Y-65990000D01*
X160210000Y-41945394D02*
X157400107Y-39135501D01*
%TO.N,Net-(RN1-Pad4)*%
X144177209Y-60177209D02*
X144177209Y-57661698D01*
X153580000Y-69580000D02*
X144177209Y-60177209D01*
X183337411Y-69580000D02*
X153580000Y-69580000D01*
X185720000Y-67197411D02*
X183337411Y-69580000D01*
%TO.N,Net-(RN1-Pad6)*%
X199487184Y-58510227D02*
X217350107Y-58510227D01*
X190800000Y-67197411D02*
X199487184Y-58510227D01*
%TO.N,Net-(RN1-Pad7)*%
X213966223Y-67197411D02*
X223501936Y-57661698D01*
X193340000Y-67197411D02*
X213966223Y-67197411D01*
%TO.N,Net-(SW1-Pad2)*%
X184858000Y-50648000D02*
X188260000Y-54050000D01*
X168912606Y-50648000D02*
X184858000Y-50648000D01*
X166238941Y-47974335D02*
X168912606Y-50648000D01*
%TO.N,Net-(SW2-Pad2)*%
X190800000Y-54050000D02*
X181200000Y-63650000D01*
X181200000Y-63650000D02*
X169938002Y-63650000D01*
X169938002Y-63650000D02*
X166238941Y-67349061D01*
%TO.N,Net-(SW4-Pad2)*%
X191843000Y-50013000D02*
X195880000Y-54050000D01*
X173580906Y-50013000D02*
X191843000Y-50013000D01*
X172390770Y-48822864D02*
X173580906Y-50013000D01*
%TD*%
D24*
%TO.N,VCC*%
X234863608Y-35783397D02*
X235704010Y-35994491D01*
X236498664Y-36340017D01*
X237226206Y-36810685D01*
X237867110Y-37393864D01*
X238404155Y-38073881D01*
X238822930Y-38832489D01*
X239112180Y-39649306D01*
X239266323Y-40514656D01*
X239290000Y-41016736D01*
X239290001Y-68970846D01*
X239216603Y-69863606D01*
X239005509Y-70704010D01*
X238659983Y-71498664D01*
X238189315Y-72226206D01*
X237606136Y-72867110D01*
X236926115Y-73404159D01*
X236167507Y-73822932D01*
X235350692Y-74112181D01*
X234485344Y-74266323D01*
X233983265Y-74290000D01*
X146029142Y-74290000D01*
X145136394Y-74216603D01*
X144295990Y-74005509D01*
X143501336Y-73659983D01*
X142773794Y-73189315D01*
X142132890Y-72606136D01*
X141595841Y-71926115D01*
X141177068Y-71167507D01*
X140887819Y-70350692D01*
X140733677Y-69485344D01*
X140710000Y-68983265D01*
X140710000Y-68622285D01*
X142165000Y-68622285D01*
X142165000Y-69377715D01*
X142312377Y-70118628D01*
X142601467Y-70816554D01*
X143021161Y-71444670D01*
X143555330Y-71978839D01*
X144183446Y-72398533D01*
X144881372Y-72687623D01*
X145622285Y-72835000D01*
X146377715Y-72835000D01*
X147118628Y-72687623D01*
X147816554Y-72398533D01*
X148444670Y-71978839D01*
X148978839Y-71444670D01*
X149398533Y-70816554D01*
X149687623Y-70118628D01*
X149835000Y-69377715D01*
X149835000Y-68622285D01*
X149687623Y-67881372D01*
X149398533Y-67183446D01*
X148978839Y-66555330D01*
X148444670Y-66021161D01*
X147816554Y-65601467D01*
X147118628Y-65312377D01*
X146377715Y-65165000D01*
X145622285Y-65165000D01*
X144881372Y-65312377D01*
X144183446Y-65601467D01*
X143555330Y-66021161D01*
X143021161Y-66555330D01*
X142601467Y-67183446D01*
X142312377Y-67881372D01*
X142165000Y-68622285D01*
X140710000Y-68622285D01*
X140710000Y-57661698D01*
X142163312Y-57661698D01*
X142175572Y-57786180D01*
X142211882Y-57905878D01*
X142270847Y-58016192D01*
X142350199Y-58112883D01*
X143417209Y-59179893D01*
X143417209Y-60139886D01*
X143413533Y-60177209D01*
X143417209Y-60214531D01*
X143417209Y-60214541D01*
X143428206Y-60326194D01*
X143458346Y-60425554D01*
X143471663Y-60469455D01*
X143542235Y-60601485D01*
X143582080Y-60650035D01*
X143637208Y-60717210D01*
X143666212Y-60741013D01*
X153016201Y-70091003D01*
X153039999Y-70120001D01*
X153068997Y-70143799D01*
X153155724Y-70214974D01*
X153287753Y-70285546D01*
X153431014Y-70329003D01*
X153580000Y-70343677D01*
X153617333Y-70340000D01*
X161176924Y-70340000D01*
X161141337Y-70425914D01*
X161080907Y-70729717D01*
X161080907Y-71039473D01*
X161141337Y-71343276D01*
X161259875Y-71629453D01*
X161431966Y-71887006D01*
X161650996Y-72106036D01*
X161908549Y-72278127D01*
X162194726Y-72396665D01*
X162498529Y-72457095D01*
X162808285Y-72457095D01*
X163112088Y-72396665D01*
X163398265Y-72278127D01*
X163655818Y-72106036D01*
X163874848Y-71887006D01*
X164046939Y-71629453D01*
X164165477Y-71343276D01*
X164225907Y-71039473D01*
X164225907Y-70729717D01*
X221080907Y-70729717D01*
X221080907Y-71039473D01*
X221141337Y-71343276D01*
X221259875Y-71629453D01*
X221431966Y-71887006D01*
X221650996Y-72106036D01*
X221908549Y-72278127D01*
X222194726Y-72396665D01*
X222498529Y-72457095D01*
X222808285Y-72457095D01*
X223112088Y-72396665D01*
X223398265Y-72278127D01*
X223655818Y-72106036D01*
X223874848Y-71887006D01*
X224046939Y-71629453D01*
X224165477Y-71343276D01*
X224225907Y-71039473D01*
X224225907Y-70729717D01*
X224165477Y-70425914D01*
X224046939Y-70139737D01*
X223874848Y-69882184D01*
X223655818Y-69663154D01*
X223398265Y-69491063D01*
X223112088Y-69372525D01*
X222808285Y-69312095D01*
X222498529Y-69312095D01*
X222194726Y-69372525D01*
X221908549Y-69491063D01*
X221650996Y-69663154D01*
X221431966Y-69882184D01*
X221259875Y-70139737D01*
X221141337Y-70425914D01*
X221080907Y-70729717D01*
X164225907Y-70729717D01*
X164165477Y-70425914D01*
X164129890Y-70340000D01*
X183300089Y-70340000D01*
X183337411Y-70343676D01*
X183374733Y-70340000D01*
X183374744Y-70340000D01*
X183486397Y-70329003D01*
X183629658Y-70285546D01*
X183761687Y-70214974D01*
X183877412Y-70120001D01*
X183901215Y-70090997D01*
X185396114Y-68596099D01*
X185578665Y-68632411D01*
X185861335Y-68632411D01*
X186138574Y-68577264D01*
X186399727Y-68469091D01*
X186634759Y-68312048D01*
X186834637Y-68112170D01*
X186990000Y-67879652D01*
X187145363Y-68112170D01*
X187345241Y-68312048D01*
X187580273Y-68469091D01*
X187841426Y-68577264D01*
X188118665Y-68632411D01*
X188401335Y-68632411D01*
X188678574Y-68577264D01*
X188939727Y-68469091D01*
X189174759Y-68312048D01*
X189374637Y-68112170D01*
X189530000Y-67879652D01*
X189685363Y-68112170D01*
X189885241Y-68312048D01*
X190120273Y-68469091D01*
X190381426Y-68577264D01*
X190658665Y-68632411D01*
X190941335Y-68632411D01*
X191218574Y-68577264D01*
X191479727Y-68469091D01*
X191714759Y-68312048D01*
X191914637Y-68112170D01*
X192070000Y-67879652D01*
X192225363Y-68112170D01*
X192425241Y-68312048D01*
X192660273Y-68469091D01*
X192921426Y-68577264D01*
X193198665Y-68632411D01*
X193481335Y-68632411D01*
X193758574Y-68577264D01*
X194019727Y-68469091D01*
X194254759Y-68312048D01*
X194454637Y-68112170D01*
X194558043Y-67957411D01*
X213928901Y-67957411D01*
X213966223Y-67961087D01*
X214003545Y-67957411D01*
X214003556Y-67957411D01*
X214115209Y-67946414D01*
X214258470Y-67902957D01*
X214390499Y-67832385D01*
X214506224Y-67737412D01*
X214515798Y-67725745D01*
X215259776Y-67725745D01*
X215259776Y-68033039D01*
X215319726Y-68334427D01*
X215437322Y-68618329D01*
X215608045Y-68873834D01*
X215825334Y-69091123D01*
X216080839Y-69261846D01*
X216364741Y-69379442D01*
X216666129Y-69439392D01*
X216973423Y-69439392D01*
X217274811Y-69379442D01*
X217558713Y-69261846D01*
X217814218Y-69091123D01*
X218031507Y-68873834D01*
X218202230Y-68618329D01*
X218319826Y-68334427D01*
X218379776Y-68033039D01*
X218379776Y-67725745D01*
X218319826Y-67424357D01*
X218224485Y-67194183D01*
X224616441Y-67194183D01*
X224616441Y-67503939D01*
X224676871Y-67807742D01*
X224795409Y-68093919D01*
X224967500Y-68351472D01*
X225186530Y-68570502D01*
X225444083Y-68742593D01*
X225730260Y-68861131D01*
X226034063Y-68921561D01*
X226343819Y-68921561D01*
X226647622Y-68861131D01*
X226933799Y-68742593D01*
X227113853Y-68622285D01*
X230165000Y-68622285D01*
X230165000Y-69377715D01*
X230312377Y-70118628D01*
X230601467Y-70816554D01*
X231021161Y-71444670D01*
X231555330Y-71978839D01*
X232183446Y-72398533D01*
X232881372Y-72687623D01*
X233622285Y-72835000D01*
X234377715Y-72835000D01*
X235118628Y-72687623D01*
X235816554Y-72398533D01*
X236444670Y-71978839D01*
X236978839Y-71444670D01*
X237398533Y-70816554D01*
X237687623Y-70118628D01*
X237835000Y-69377715D01*
X237835000Y-68622285D01*
X237687623Y-67881372D01*
X237398533Y-67183446D01*
X236978839Y-66555330D01*
X236444670Y-66021161D01*
X235816554Y-65601467D01*
X235118628Y-65312377D01*
X234377715Y-65165000D01*
X233622285Y-65165000D01*
X232881372Y-65312377D01*
X232183446Y-65601467D01*
X231555330Y-66021161D01*
X231021161Y-66555330D01*
X230601467Y-67183446D01*
X230312377Y-67881372D01*
X230165000Y-68622285D01*
X227113853Y-68622285D01*
X227191352Y-68570502D01*
X227410382Y-68351472D01*
X227582473Y-68093919D01*
X227701011Y-67807742D01*
X227761441Y-67503939D01*
X227761441Y-67194183D01*
X227701011Y-66890380D01*
X227582473Y-66604203D01*
X227410382Y-66346650D01*
X227191352Y-66127620D01*
X226933799Y-65955529D01*
X226647622Y-65836991D01*
X226343819Y-65776561D01*
X226034063Y-65776561D01*
X225730260Y-65836991D01*
X225444083Y-65955529D01*
X225186530Y-66127620D01*
X224967500Y-66346650D01*
X224795409Y-66604203D01*
X224676871Y-66890380D01*
X224616441Y-67194183D01*
X218224485Y-67194183D01*
X218202230Y-67140455D01*
X218031507Y-66884950D01*
X217814218Y-66667661D01*
X217558713Y-66496938D01*
X217274811Y-66379342D01*
X216973423Y-66319392D01*
X216666129Y-66319392D01*
X216364741Y-66379342D01*
X216080839Y-66496938D01*
X215825334Y-66667661D01*
X215608045Y-66884950D01*
X215437322Y-67140455D01*
X215319726Y-67424357D01*
X215259776Y-67725745D01*
X214515798Y-67725745D01*
X214530027Y-67708408D01*
X220876652Y-61361783D01*
X221623738Y-61361783D01*
X221623738Y-61669077D01*
X221683688Y-61970465D01*
X221801284Y-62254367D01*
X221972007Y-62509872D01*
X222189296Y-62727161D01*
X222444801Y-62897884D01*
X222728703Y-63015480D01*
X223030091Y-63075430D01*
X223337385Y-63075430D01*
X223638773Y-63015480D01*
X223922675Y-62897884D01*
X224178180Y-62727161D01*
X224395469Y-62509872D01*
X224566192Y-62254367D01*
X224683788Y-61970465D01*
X224743738Y-61669077D01*
X224743738Y-61361783D01*
X224683788Y-61060395D01*
X224676316Y-61042354D01*
X225464970Y-61042354D01*
X225464970Y-61352110D01*
X225525400Y-61655913D01*
X225643938Y-61942090D01*
X225816029Y-62199643D01*
X226035059Y-62418673D01*
X226292612Y-62590764D01*
X226578789Y-62709302D01*
X226882592Y-62769732D01*
X227192348Y-62769732D01*
X227496151Y-62709302D01*
X227782328Y-62590764D01*
X228039881Y-62418673D01*
X228258911Y-62199643D01*
X228431002Y-61942090D01*
X228549540Y-61655913D01*
X228609970Y-61352110D01*
X228609970Y-61042354D01*
X228549540Y-60738551D01*
X228431002Y-60452374D01*
X228258911Y-60194821D01*
X228039881Y-59975791D01*
X227782328Y-59803700D01*
X227496151Y-59685162D01*
X227192348Y-59624732D01*
X226882592Y-59624732D01*
X226578789Y-59685162D01*
X226292612Y-59803700D01*
X226035059Y-59975791D01*
X225816029Y-60194821D01*
X225643938Y-60452374D01*
X225525400Y-60738551D01*
X225464970Y-61042354D01*
X224676316Y-61042354D01*
X224566192Y-60776493D01*
X224395469Y-60520988D01*
X224178180Y-60303699D01*
X223922675Y-60132976D01*
X223638773Y-60015380D01*
X223337385Y-59955430D01*
X223030091Y-59955430D01*
X222728703Y-60015380D01*
X222444801Y-60132976D01*
X222189296Y-60303699D01*
X221972007Y-60520988D01*
X221801284Y-60776493D01*
X221683688Y-61060395D01*
X221623738Y-61361783D01*
X220876652Y-61361783D01*
X222925239Y-59313196D01*
X223050751Y-59438708D01*
X223147442Y-59518060D01*
X223257756Y-59577025D01*
X223377454Y-59613335D01*
X223501936Y-59625595D01*
X223626418Y-59613335D01*
X223746116Y-59577025D01*
X223856430Y-59518060D01*
X223953121Y-59438708D01*
X225278946Y-58112883D01*
X225340087Y-58038382D01*
X231311101Y-58038382D01*
X231311101Y-58345676D01*
X231371051Y-58647064D01*
X231488647Y-58930966D01*
X231659370Y-59186471D01*
X231876659Y-59403760D01*
X232132164Y-59574483D01*
X232416066Y-59692079D01*
X232717454Y-59752029D01*
X233024748Y-59752029D01*
X233326136Y-59692079D01*
X233610038Y-59574483D01*
X233865543Y-59403760D01*
X234082832Y-59186471D01*
X234253555Y-58930966D01*
X234371151Y-58647064D01*
X234431101Y-58345676D01*
X234431101Y-58038382D01*
X234371151Y-57736994D01*
X234253555Y-57453092D01*
X234082832Y-57197587D01*
X233865543Y-56980298D01*
X233610038Y-56809575D01*
X233326136Y-56691979D01*
X233024748Y-56632029D01*
X232717454Y-56632029D01*
X232416066Y-56691979D01*
X232132164Y-56809575D01*
X231876659Y-56980298D01*
X231659370Y-57197587D01*
X231488647Y-57453092D01*
X231371051Y-57736994D01*
X231311101Y-58038382D01*
X225340087Y-58038382D01*
X225358298Y-58016192D01*
X225417263Y-57905878D01*
X225453573Y-57786180D01*
X225465833Y-57661698D01*
X225453573Y-57537216D01*
X225417263Y-57417518D01*
X225358298Y-57307204D01*
X225278946Y-57210513D01*
X223953121Y-55884688D01*
X223856430Y-55805336D01*
X223746116Y-55746371D01*
X223626418Y-55710061D01*
X223501936Y-55697801D01*
X223377454Y-55710061D01*
X223257756Y-55746371D01*
X223147442Y-55805336D01*
X223050751Y-55884688D01*
X221724926Y-57210513D01*
X221645574Y-57307204D01*
X221586609Y-57417518D01*
X221550299Y-57537216D01*
X221538039Y-57661698D01*
X221550299Y-57786180D01*
X221586609Y-57905878D01*
X221645574Y-58016192D01*
X221724926Y-58112883D01*
X221850438Y-58238395D01*
X213651422Y-66437411D01*
X194558043Y-66437411D01*
X194454637Y-66282652D01*
X194254759Y-66082774D01*
X194019727Y-65925731D01*
X193758574Y-65817558D01*
X193481335Y-65762411D01*
X193309801Y-65762411D01*
X197181330Y-61890883D01*
X212242073Y-61890883D01*
X212242073Y-62200639D01*
X212302503Y-62504442D01*
X212421041Y-62790619D01*
X212593132Y-63048172D01*
X212812162Y-63267202D01*
X213069715Y-63439293D01*
X213355892Y-63557831D01*
X213659695Y-63618261D01*
X213969451Y-63618261D01*
X214273254Y-63557831D01*
X214559431Y-63439293D01*
X214816984Y-63267202D01*
X215036014Y-63048172D01*
X215208105Y-62790619D01*
X215326643Y-62504442D01*
X215387073Y-62200639D01*
X215387073Y-61890883D01*
X215326643Y-61587080D01*
X215208105Y-61300903D01*
X215036014Y-61043350D01*
X214816984Y-60824320D01*
X214559431Y-60652229D01*
X214273254Y-60533691D01*
X213969451Y-60473261D01*
X213659695Y-60473261D01*
X213355892Y-60533691D01*
X213069715Y-60652229D01*
X212812162Y-60824320D01*
X212593132Y-61043350D01*
X212421041Y-61300903D01*
X212302503Y-61587080D01*
X212242073Y-61890883D01*
X197181330Y-61890883D01*
X199801987Y-59270227D01*
X215881912Y-59270227D01*
X216898922Y-60287237D01*
X216995613Y-60366589D01*
X217105927Y-60425554D01*
X217225625Y-60461864D01*
X217350107Y-60474124D01*
X217474589Y-60461864D01*
X217594287Y-60425554D01*
X217704601Y-60366589D01*
X217801292Y-60287237D01*
X219127117Y-58961412D01*
X219206469Y-58864721D01*
X219265434Y-58754407D01*
X219301744Y-58634709D01*
X219314004Y-58510227D01*
X219301744Y-58385745D01*
X219265434Y-58266047D01*
X219206469Y-58155733D01*
X219127117Y-58059042D01*
X217801292Y-56733217D01*
X217704601Y-56653865D01*
X217594287Y-56594900D01*
X217474589Y-56558590D01*
X217350107Y-56546330D01*
X217225625Y-56558590D01*
X217105927Y-56594900D01*
X216995613Y-56653865D01*
X216898922Y-56733217D01*
X215881912Y-57750227D01*
X199524506Y-57750227D01*
X199487183Y-57746551D01*
X199449860Y-57750227D01*
X199449851Y-57750227D01*
X199338198Y-57761224D01*
X199194937Y-57804681D01*
X199062908Y-57875253D01*
X199062906Y-57875254D01*
X199062907Y-57875254D01*
X198976180Y-57946428D01*
X198976176Y-57946432D01*
X198947183Y-57970226D01*
X198923389Y-57999219D01*
X191123887Y-65798723D01*
X190941335Y-65762411D01*
X190658665Y-65762411D01*
X190381426Y-65817558D01*
X190120273Y-65925731D01*
X189885241Y-66082774D01*
X189685363Y-66282652D01*
X189530000Y-66515170D01*
X189374637Y-66282652D01*
X189174759Y-66082774D01*
X188939727Y-65925731D01*
X188678574Y-65817558D01*
X188401335Y-65762411D01*
X188118665Y-65762411D01*
X187841426Y-65817558D01*
X187580273Y-65925731D01*
X187345241Y-66082774D01*
X187145363Y-66282652D01*
X186990000Y-66515170D01*
X186834637Y-66282652D01*
X186634759Y-66082774D01*
X186399727Y-65925731D01*
X186138574Y-65817558D01*
X185861335Y-65762411D01*
X185578665Y-65762411D01*
X185301426Y-65817558D01*
X185040273Y-65925731D01*
X184805241Y-66082774D01*
X184605363Y-66282652D01*
X184450000Y-66515170D01*
X184294637Y-66282652D01*
X184094759Y-66082774D01*
X183859727Y-65925731D01*
X183598574Y-65817558D01*
X183321335Y-65762411D01*
X183038665Y-65762411D01*
X182761426Y-65817558D01*
X182500273Y-65925731D01*
X182265241Y-66082774D01*
X182065363Y-66282652D01*
X181910000Y-66515170D01*
X181754637Y-66282652D01*
X181554759Y-66082774D01*
X181319727Y-65925731D01*
X181058574Y-65817558D01*
X180781335Y-65762411D01*
X180498665Y-65762411D01*
X180221426Y-65817558D01*
X179960273Y-65925731D01*
X179725241Y-66082774D01*
X179526643Y-66281372D01*
X179525812Y-66272929D01*
X179489502Y-66153231D01*
X179430537Y-66042917D01*
X179351185Y-65946226D01*
X179254494Y-65866874D01*
X179144180Y-65807909D01*
X179024482Y-65771599D01*
X178900000Y-65759339D01*
X178385750Y-65762411D01*
X178227000Y-65921161D01*
X178227000Y-67070411D01*
X178247000Y-67070411D01*
X178247000Y-67324411D01*
X178227000Y-67324411D01*
X178227000Y-67344411D01*
X177973000Y-67344411D01*
X177973000Y-67324411D01*
X176823750Y-67324411D01*
X176665000Y-67483161D01*
X176661928Y-67997411D01*
X176674188Y-68121893D01*
X176706982Y-68230000D01*
X167491547Y-68230000D01*
X167582473Y-68093919D01*
X167701011Y-67807742D01*
X167761441Y-67503939D01*
X167761441Y-67194183D01*
X167712859Y-66949944D01*
X168265392Y-66397411D01*
X176661928Y-66397411D01*
X176665000Y-66911661D01*
X176823750Y-67070411D01*
X177973000Y-67070411D01*
X177973000Y-65921161D01*
X177814250Y-65762411D01*
X177300000Y-65759339D01*
X177175518Y-65771599D01*
X177055820Y-65807909D01*
X176945506Y-65866874D01*
X176848815Y-65946226D01*
X176769463Y-66042917D01*
X176710498Y-66153231D01*
X176674188Y-66272929D01*
X176661928Y-66397411D01*
X168265392Y-66397411D01*
X170252804Y-64410000D01*
X181162678Y-64410000D01*
X181200000Y-64413676D01*
X181237322Y-64410000D01*
X181237333Y-64410000D01*
X181348986Y-64399003D01*
X181492247Y-64355546D01*
X181624276Y-64284974D01*
X181740001Y-64190001D01*
X181763804Y-64160997D01*
X190179394Y-55745408D01*
X190248193Y-55782182D01*
X190518692Y-55864236D01*
X190800000Y-55891943D01*
X191081309Y-55864236D01*
X191351808Y-55782182D01*
X191601101Y-55648932D01*
X191819608Y-55469608D01*
X191998932Y-55251101D01*
X192070000Y-55118142D01*
X192141068Y-55251101D01*
X192320393Y-55469608D01*
X192538900Y-55648932D01*
X192788193Y-55782182D01*
X193058692Y-55864236D01*
X193340000Y-55891943D01*
X193621309Y-55864236D01*
X193891808Y-55782182D01*
X194141101Y-55648932D01*
X194359608Y-55469608D01*
X194538932Y-55251101D01*
X194610000Y-55118142D01*
X194681068Y-55251101D01*
X194860393Y-55469608D01*
X195078900Y-55648932D01*
X195328193Y-55782182D01*
X195598692Y-55864236D01*
X195880000Y-55891943D01*
X196161309Y-55864236D01*
X196431808Y-55782182D01*
X196681101Y-55648932D01*
X196899608Y-55469608D01*
X197078932Y-55251101D01*
X197150000Y-55118142D01*
X197221068Y-55251101D01*
X197400393Y-55469608D01*
X197618900Y-55648932D01*
X197868193Y-55782182D01*
X198138692Y-55864236D01*
X198420000Y-55891943D01*
X198701309Y-55864236D01*
X198971808Y-55782182D01*
X199221101Y-55648932D01*
X199439608Y-55469608D01*
X199618932Y-55251101D01*
X199690000Y-55118142D01*
X199761068Y-55251101D01*
X199940393Y-55469608D01*
X200158900Y-55648932D01*
X200408193Y-55782182D01*
X200678692Y-55864236D01*
X200960000Y-55891943D01*
X201241309Y-55864236D01*
X201511808Y-55782182D01*
X201761101Y-55648932D01*
X201979608Y-55469608D01*
X202158932Y-55251101D01*
X202230000Y-55118142D01*
X202301068Y-55251101D01*
X202480393Y-55469608D01*
X202698900Y-55648932D01*
X202948193Y-55782182D01*
X203218692Y-55864236D01*
X203500000Y-55891943D01*
X203781309Y-55864236D01*
X204051808Y-55782182D01*
X204301101Y-55648932D01*
X204519608Y-55469608D01*
X204698932Y-55251101D01*
X204770000Y-55118142D01*
X204841068Y-55251101D01*
X205020393Y-55469608D01*
X205238900Y-55648932D01*
X205488193Y-55782182D01*
X205758692Y-55864236D01*
X206040000Y-55891943D01*
X206321309Y-55864236D01*
X206591808Y-55782182D01*
X206841101Y-55648932D01*
X207059608Y-55469608D01*
X207238932Y-55251101D01*
X207310000Y-55118142D01*
X207381068Y-55251101D01*
X207560393Y-55469608D01*
X207778900Y-55648932D01*
X208028193Y-55782182D01*
X208298692Y-55864236D01*
X208580000Y-55891943D01*
X208861309Y-55864236D01*
X209131808Y-55782182D01*
X209381101Y-55648932D01*
X209599608Y-55469608D01*
X209778932Y-55251101D01*
X209912182Y-55001808D01*
X209994236Y-54731309D01*
X210015000Y-54520491D01*
X210015000Y-53579508D01*
X209994236Y-53368691D01*
X209912182Y-53098192D01*
X209778932Y-52848899D01*
X209599607Y-52630392D01*
X209381100Y-52451068D01*
X209131807Y-52317818D01*
X208861308Y-52235764D01*
X208580000Y-52208057D01*
X208298691Y-52235764D01*
X208028192Y-52317818D01*
X207778899Y-52451068D01*
X207560392Y-52630393D01*
X207381068Y-52848900D01*
X207310000Y-52981858D01*
X207238932Y-52848899D01*
X207059607Y-52630392D01*
X206841100Y-52451068D01*
X206591807Y-52317818D01*
X206321308Y-52235764D01*
X206040000Y-52208057D01*
X205758691Y-52235764D01*
X205488192Y-52317818D01*
X205238899Y-52451068D01*
X205020392Y-52630393D01*
X204841068Y-52848900D01*
X204770000Y-52981858D01*
X204698932Y-52848899D01*
X204519607Y-52630392D01*
X204301100Y-52451068D01*
X204051807Y-52317818D01*
X203781308Y-52235764D01*
X203500000Y-52208057D01*
X203218691Y-52235764D01*
X202948192Y-52317818D01*
X202698899Y-52451068D01*
X202480392Y-52630393D01*
X202301068Y-52848900D01*
X202230000Y-52981858D01*
X202158932Y-52848899D01*
X201979607Y-52630392D01*
X201761100Y-52451068D01*
X201511807Y-52317818D01*
X201241308Y-52235764D01*
X200960000Y-52208057D01*
X200678691Y-52235764D01*
X200408192Y-52317818D01*
X200158899Y-52451068D01*
X199940392Y-52630393D01*
X199761068Y-52848900D01*
X199690000Y-52981858D01*
X199618932Y-52848899D01*
X199439607Y-52630392D01*
X199221100Y-52451068D01*
X198971807Y-52317818D01*
X198701308Y-52235764D01*
X198420000Y-52208057D01*
X198138691Y-52235764D01*
X197868192Y-52317818D01*
X197618899Y-52451068D01*
X197400392Y-52630393D01*
X197221068Y-52848900D01*
X197150000Y-52981858D01*
X197078932Y-52848899D01*
X196899607Y-52630392D01*
X196681100Y-52451068D01*
X196431807Y-52317818D01*
X196161308Y-52235764D01*
X195880000Y-52208057D01*
X195598691Y-52235764D01*
X195328192Y-52317818D01*
X195259393Y-52354592D01*
X192406804Y-49502003D01*
X192383001Y-49472999D01*
X192267276Y-49378026D01*
X192135247Y-49307454D01*
X191991986Y-49263997D01*
X191880333Y-49253000D01*
X191880322Y-49253000D01*
X191843000Y-49249324D01*
X191805678Y-49253000D01*
X182421819Y-49253000D01*
X182596088Y-49192795D01*
X182770044Y-49099814D01*
X182865808Y-48835413D01*
X181910000Y-47879605D01*
X180954192Y-48835413D01*
X181049956Y-49099814D01*
X181339571Y-49240704D01*
X181386469Y-49253000D01*
X173895709Y-49253000D01*
X173864688Y-49221980D01*
X173913270Y-48977742D01*
X173913270Y-48667986D01*
X173852840Y-48364183D01*
X173734302Y-48078006D01*
X173562211Y-47820453D01*
X173504353Y-47762595D01*
X180268282Y-47762595D01*
X180312039Y-48081675D01*
X180417205Y-48386088D01*
X180510186Y-48560044D01*
X180774587Y-48655808D01*
X181730395Y-47700000D01*
X182089605Y-47700000D01*
X183045413Y-48655808D01*
X183309814Y-48560044D01*
X183450704Y-48270429D01*
X183532384Y-47958892D01*
X183551718Y-47637405D01*
X183507961Y-47318325D01*
X183402795Y-47013912D01*
X183309814Y-46839956D01*
X183045413Y-46744192D01*
X182089605Y-47700000D01*
X181730395Y-47700000D01*
X180774587Y-46744192D01*
X180510186Y-46839956D01*
X180369296Y-47129571D01*
X180287616Y-47441108D01*
X180268282Y-47762595D01*
X173504353Y-47762595D01*
X173343181Y-47601423D01*
X173085628Y-47429332D01*
X172799451Y-47310794D01*
X172495648Y-47250364D01*
X172185892Y-47250364D01*
X171882089Y-47310794D01*
X171595912Y-47429332D01*
X171338359Y-47601423D01*
X171119329Y-47820453D01*
X170947238Y-48078006D01*
X170828700Y-48364183D01*
X170768270Y-48667986D01*
X170768270Y-48977742D01*
X170828700Y-49281545D01*
X170947238Y-49567722D01*
X171119329Y-49825275D01*
X171182054Y-49888000D01*
X169227408Y-49888000D01*
X167712859Y-48373452D01*
X167761441Y-48129213D01*
X167761441Y-47819457D01*
X167701011Y-47515654D01*
X167582473Y-47229477D01*
X167410382Y-46971924D01*
X167191352Y-46752894D01*
X166933799Y-46580803D01*
X166894650Y-46564587D01*
X180954192Y-46564587D01*
X181910000Y-47520395D01*
X182865808Y-46564587D01*
X182770044Y-46300186D01*
X182480429Y-46159296D01*
X182168892Y-46077616D01*
X181847405Y-46058282D01*
X181528325Y-46102039D01*
X181223912Y-46207205D01*
X181049956Y-46300186D01*
X180954192Y-46564587D01*
X166894650Y-46564587D01*
X166647622Y-46462265D01*
X166343819Y-46401835D01*
X166034063Y-46401835D01*
X165730260Y-46462265D01*
X165444083Y-46580803D01*
X165186530Y-46752894D01*
X164967500Y-46971924D01*
X164795409Y-47229477D01*
X164676871Y-47515654D01*
X164616441Y-47819457D01*
X164616441Y-48129213D01*
X164676871Y-48433016D01*
X164795409Y-48719193D01*
X164967500Y-48976746D01*
X165186530Y-49195776D01*
X165444083Y-49367867D01*
X165730260Y-49486405D01*
X166034063Y-49546835D01*
X166343819Y-49546835D01*
X166647622Y-49486405D01*
X166667837Y-49478032D01*
X168348806Y-51159002D01*
X168372605Y-51188001D01*
X168488330Y-51282974D01*
X168620359Y-51353546D01*
X168763620Y-51397003D01*
X168875273Y-51408000D01*
X168875282Y-51408000D01*
X168912605Y-51411676D01*
X168949928Y-51408000D01*
X174620109Y-51408000D01*
X174482772Y-51613540D01*
X174364234Y-51899717D01*
X174303804Y-52203520D01*
X174303804Y-52513276D01*
X174364234Y-52817079D01*
X174482772Y-53103256D01*
X174654863Y-53360809D01*
X174873893Y-53579839D01*
X175131446Y-53751930D01*
X175417623Y-53870468D01*
X175721426Y-53930898D01*
X176031182Y-53930898D01*
X176334985Y-53870468D01*
X176621162Y-53751930D01*
X176878715Y-53579839D01*
X177097745Y-53360809D01*
X177269836Y-53103256D01*
X177388374Y-52817079D01*
X177448804Y-52513276D01*
X177448804Y-52203520D01*
X177388374Y-51899717D01*
X177269836Y-51613540D01*
X177132499Y-51408000D01*
X180900693Y-51408000D01*
X180867748Y-51430013D01*
X180640013Y-51657748D01*
X180461082Y-51925537D01*
X180337832Y-52223088D01*
X180275000Y-52538967D01*
X180275000Y-52861033D01*
X180337832Y-53176912D01*
X180461082Y-53474463D01*
X180640013Y-53742252D01*
X180867748Y-53969987D01*
X181135537Y-54148918D01*
X181433088Y-54272168D01*
X181748967Y-54335000D01*
X182071033Y-54335000D01*
X182386912Y-54272168D01*
X182684463Y-54148918D01*
X182952252Y-53969987D01*
X183179987Y-53742252D01*
X183358918Y-53474463D01*
X183482168Y-53176912D01*
X183545000Y-52861033D01*
X183545000Y-52538967D01*
X183482168Y-52223088D01*
X183358918Y-51925537D01*
X183179987Y-51657748D01*
X182952252Y-51430013D01*
X182919307Y-51408000D01*
X184543199Y-51408000D01*
X185347127Y-52211928D01*
X184920000Y-52211928D01*
X184795518Y-52224188D01*
X184675820Y-52260498D01*
X184565506Y-52319463D01*
X184468815Y-52398815D01*
X184389463Y-52495506D01*
X184330498Y-52605820D01*
X184294188Y-52725518D01*
X184281928Y-52850000D01*
X184281928Y-55250000D01*
X184294188Y-55374482D01*
X184330498Y-55494180D01*
X184389463Y-55604494D01*
X184468815Y-55701185D01*
X184565506Y-55780537D01*
X184675820Y-55839502D01*
X184795518Y-55875812D01*
X184920000Y-55888072D01*
X186520000Y-55888072D01*
X186644482Y-55875812D01*
X186764180Y-55839502D01*
X186874494Y-55780537D01*
X186971185Y-55701185D01*
X187050537Y-55604494D01*
X187109502Y-55494180D01*
X187145812Y-55374482D01*
X187147581Y-55356517D01*
X187240393Y-55469608D01*
X187458900Y-55648932D01*
X187708193Y-55782182D01*
X187926726Y-55848472D01*
X180885199Y-62890000D01*
X169975324Y-62890000D01*
X169938001Y-62886324D01*
X169900678Y-62890000D01*
X169900669Y-62890000D01*
X169789016Y-62900997D01*
X169645755Y-62944454D01*
X169513726Y-63015026D01*
X169398001Y-63109999D01*
X169374203Y-63138997D01*
X166667837Y-65845364D01*
X166647622Y-65836991D01*
X166343819Y-65776561D01*
X166034063Y-65776561D01*
X165730260Y-65836991D01*
X165444083Y-65955529D01*
X165186530Y-66127620D01*
X164967500Y-66346650D01*
X164795409Y-66604203D01*
X164676871Y-66890380D01*
X164616441Y-67194183D01*
X164616441Y-67503939D01*
X164676871Y-67807742D01*
X164795409Y-68093919D01*
X164886335Y-68230000D01*
X163524802Y-68230000D01*
X160970000Y-65675199D01*
X160970000Y-61361783D01*
X161623738Y-61361783D01*
X161623738Y-61669077D01*
X161683688Y-61970465D01*
X161801284Y-62254367D01*
X161972007Y-62509872D01*
X162189296Y-62727161D01*
X162444801Y-62897884D01*
X162728703Y-63015480D01*
X163030091Y-63075430D01*
X163337385Y-63075430D01*
X163638773Y-63015480D01*
X163922675Y-62897884D01*
X164178180Y-62727161D01*
X164395469Y-62509872D01*
X164566192Y-62254367D01*
X164683788Y-61970465D01*
X164743738Y-61669077D01*
X164743738Y-61361783D01*
X164683788Y-61060395D01*
X164676316Y-61042354D01*
X165464970Y-61042354D01*
X165464970Y-61352110D01*
X165525400Y-61655913D01*
X165643938Y-61942090D01*
X165816029Y-62199643D01*
X166035059Y-62418673D01*
X166292612Y-62590764D01*
X166578789Y-62709302D01*
X166882592Y-62769732D01*
X167192348Y-62769732D01*
X167496151Y-62709302D01*
X167782328Y-62590764D01*
X168039881Y-62418673D01*
X168258911Y-62199643D01*
X168431002Y-61942090D01*
X168549540Y-61655913D01*
X168609970Y-61352110D01*
X168609970Y-61042354D01*
X168549540Y-60738551D01*
X168431002Y-60452374D01*
X168258911Y-60194821D01*
X168039881Y-59975791D01*
X167782328Y-59803700D01*
X167496151Y-59685162D01*
X167192348Y-59624732D01*
X166882592Y-59624732D01*
X166578789Y-59685162D01*
X166292612Y-59803700D01*
X166035059Y-59975791D01*
X165816029Y-60194821D01*
X165643938Y-60452374D01*
X165525400Y-60738551D01*
X165464970Y-61042354D01*
X164676316Y-61042354D01*
X164566192Y-60776493D01*
X164395469Y-60520988D01*
X164178180Y-60303699D01*
X163922675Y-60132976D01*
X163638773Y-60015380D01*
X163337385Y-59955430D01*
X163030091Y-59955430D01*
X162728703Y-60015380D01*
X162444801Y-60132976D01*
X162189296Y-60303699D01*
X161972007Y-60520988D01*
X161801284Y-60776493D01*
X161683688Y-61060395D01*
X161623738Y-61361783D01*
X160970000Y-61361783D01*
X160970000Y-57661698D01*
X161538039Y-57661698D01*
X161550299Y-57786180D01*
X161586609Y-57905878D01*
X161645574Y-58016192D01*
X161724926Y-58112883D01*
X163050751Y-59438708D01*
X163147442Y-59518060D01*
X163257756Y-59577025D01*
X163377454Y-59613335D01*
X163501936Y-59625595D01*
X163626418Y-59613335D01*
X163746116Y-59577025D01*
X163856430Y-59518060D01*
X163953121Y-59438708D01*
X165278946Y-58112883D01*
X165340087Y-58038382D01*
X171311101Y-58038382D01*
X171311101Y-58345676D01*
X171371051Y-58647064D01*
X171488647Y-58930966D01*
X171659370Y-59186471D01*
X171876659Y-59403760D01*
X172132164Y-59574483D01*
X172416066Y-59692079D01*
X172717454Y-59752029D01*
X173024748Y-59752029D01*
X173326136Y-59692079D01*
X173610038Y-59574483D01*
X173865543Y-59403760D01*
X174082832Y-59186471D01*
X174253555Y-58930966D01*
X174371151Y-58647064D01*
X174431101Y-58345676D01*
X174431101Y-58038382D01*
X174371151Y-57736994D01*
X174253555Y-57453092D01*
X174082832Y-57197587D01*
X173865543Y-56980298D01*
X173610038Y-56809575D01*
X173326136Y-56691979D01*
X173024748Y-56632029D01*
X172717454Y-56632029D01*
X172416066Y-56691979D01*
X172132164Y-56809575D01*
X171876659Y-56980298D01*
X171659370Y-57197587D01*
X171488647Y-57453092D01*
X171371051Y-57736994D01*
X171311101Y-58038382D01*
X165340087Y-58038382D01*
X165358298Y-58016192D01*
X165417263Y-57905878D01*
X165453573Y-57786180D01*
X165465833Y-57661698D01*
X165453573Y-57537216D01*
X165417263Y-57417518D01*
X165358298Y-57307204D01*
X165278946Y-57210513D01*
X163953121Y-55884688D01*
X163856430Y-55805336D01*
X163746116Y-55746371D01*
X163626418Y-55710061D01*
X163501936Y-55697801D01*
X163377454Y-55710061D01*
X163257756Y-55746371D01*
X163147442Y-55805336D01*
X163050751Y-55884688D01*
X161724926Y-57210513D01*
X161645574Y-57307204D01*
X161586609Y-57417518D01*
X161550299Y-57537216D01*
X161538039Y-57661698D01*
X160970000Y-57661698D01*
X160970000Y-51354991D01*
X161080907Y-51354991D01*
X161080907Y-51664747D01*
X161141337Y-51968550D01*
X161259875Y-52254727D01*
X161431966Y-52512280D01*
X161650996Y-52731310D01*
X161908549Y-52903401D01*
X162194726Y-53021939D01*
X162498529Y-53082369D01*
X162808285Y-53082369D01*
X163112088Y-53021939D01*
X163398265Y-52903401D01*
X163655818Y-52731310D01*
X163874848Y-52512280D01*
X164046939Y-52254727D01*
X164165477Y-51968550D01*
X164223982Y-51674420D01*
X164947139Y-51674420D01*
X164947139Y-51981714D01*
X165007089Y-52283102D01*
X165124685Y-52567004D01*
X165295408Y-52822509D01*
X165512697Y-53039798D01*
X165768202Y-53210521D01*
X166052104Y-53328117D01*
X166353492Y-53388067D01*
X166660786Y-53388067D01*
X166962174Y-53328117D01*
X167246076Y-53210521D01*
X167501581Y-53039798D01*
X167718870Y-52822509D01*
X167889593Y-52567004D01*
X168007189Y-52283102D01*
X168067139Y-51981714D01*
X168067139Y-51674420D01*
X168007189Y-51373032D01*
X167889593Y-51089130D01*
X167718870Y-50833625D01*
X167501581Y-50616336D01*
X167246076Y-50445613D01*
X166962174Y-50328017D01*
X166660786Y-50268067D01*
X166353492Y-50268067D01*
X166052104Y-50328017D01*
X165768202Y-50445613D01*
X165512697Y-50616336D01*
X165295408Y-50833625D01*
X165124685Y-51089130D01*
X165007089Y-51373032D01*
X164947139Y-51674420D01*
X164223982Y-51674420D01*
X164225907Y-51664747D01*
X164225907Y-51354991D01*
X164165477Y-51051188D01*
X164046939Y-50765011D01*
X163874848Y-50507458D01*
X163655818Y-50288428D01*
X163398265Y-50116337D01*
X163112088Y-49997799D01*
X162808285Y-49937369D01*
X162498529Y-49937369D01*
X162194726Y-49997799D01*
X161908549Y-50116337D01*
X161650996Y-50288428D01*
X161431966Y-50507458D01*
X161259875Y-50765011D01*
X161141337Y-51051188D01*
X161080907Y-51354991D01*
X160970000Y-51354991D01*
X160970000Y-45959509D01*
X184285000Y-45959509D01*
X184285000Y-46900492D01*
X184305764Y-47111309D01*
X184387818Y-47381808D01*
X184521068Y-47631101D01*
X184700393Y-47849608D01*
X184918900Y-48028932D01*
X185168193Y-48162182D01*
X185438692Y-48244236D01*
X185720000Y-48271943D01*
X186001309Y-48244236D01*
X186271808Y-48162182D01*
X186521101Y-48028932D01*
X186739608Y-47849608D01*
X186918932Y-47631101D01*
X186990000Y-47498142D01*
X187061068Y-47631101D01*
X187240393Y-47849608D01*
X187458900Y-48028932D01*
X187708193Y-48162182D01*
X187978692Y-48244236D01*
X188260000Y-48271943D01*
X188541309Y-48244236D01*
X188811808Y-48162182D01*
X189061101Y-48028932D01*
X189279608Y-47849608D01*
X189458932Y-47631101D01*
X189530000Y-47498142D01*
X189601068Y-47631101D01*
X189780393Y-47849608D01*
X189998900Y-48028932D01*
X190248193Y-48162182D01*
X190518692Y-48244236D01*
X190800000Y-48271943D01*
X191081309Y-48244236D01*
X191351808Y-48162182D01*
X191601101Y-48028932D01*
X191819608Y-47849608D01*
X191998932Y-47631101D01*
X192070000Y-47498142D01*
X192141068Y-47631101D01*
X192320393Y-47849608D01*
X192538900Y-48028932D01*
X192788193Y-48162182D01*
X193058692Y-48244236D01*
X193340000Y-48271943D01*
X193621309Y-48244236D01*
X193891808Y-48162182D01*
X194141101Y-48028932D01*
X194359608Y-47849608D01*
X194538932Y-47631101D01*
X194610000Y-47498142D01*
X194681068Y-47631101D01*
X194860393Y-47849608D01*
X195078900Y-48028932D01*
X195328193Y-48162182D01*
X195598692Y-48244236D01*
X195880000Y-48271943D01*
X196161309Y-48244236D01*
X196431808Y-48162182D01*
X196681101Y-48028932D01*
X196899608Y-47849608D01*
X197078932Y-47631101D01*
X197150000Y-47498142D01*
X197221068Y-47631101D01*
X197400393Y-47849608D01*
X197618900Y-48028932D01*
X197868193Y-48162182D01*
X198138692Y-48244236D01*
X198420000Y-48271943D01*
X198701309Y-48244236D01*
X198971808Y-48162182D01*
X199221101Y-48028932D01*
X199439608Y-47849608D01*
X199618932Y-47631101D01*
X199690000Y-47498142D01*
X199761068Y-47631101D01*
X199940393Y-47849608D01*
X200158900Y-48028932D01*
X200408193Y-48162182D01*
X200678692Y-48244236D01*
X200960000Y-48271943D01*
X201241309Y-48244236D01*
X201511808Y-48162182D01*
X201761101Y-48028932D01*
X201979608Y-47849608D01*
X202158932Y-47631101D01*
X202230000Y-47498142D01*
X202301068Y-47631101D01*
X202480393Y-47849608D01*
X202698900Y-48028932D01*
X202948193Y-48162182D01*
X203218692Y-48244236D01*
X203500000Y-48271943D01*
X203781309Y-48244236D01*
X204051808Y-48162182D01*
X204301101Y-48028932D01*
X204519608Y-47849608D01*
X204698932Y-47631101D01*
X204770000Y-47498142D01*
X204841068Y-47631101D01*
X205020393Y-47849608D01*
X205238900Y-48028932D01*
X205488193Y-48162182D01*
X205758692Y-48244236D01*
X206040000Y-48271943D01*
X206321309Y-48244236D01*
X206591808Y-48162182D01*
X206841101Y-48028932D01*
X207059608Y-47849608D01*
X207238932Y-47631101D01*
X207310000Y-47498142D01*
X207381068Y-47631101D01*
X207560393Y-47849608D01*
X207778900Y-48028932D01*
X208028193Y-48162182D01*
X208298692Y-48244236D01*
X208580000Y-48271943D01*
X208861309Y-48244236D01*
X209131808Y-48162182D01*
X209381101Y-48028932D01*
X209599608Y-47849608D01*
X209778932Y-47631101D01*
X209912182Y-47381808D01*
X209994236Y-47111309D01*
X210015000Y-46900491D01*
X210015000Y-45959508D01*
X209994236Y-45748691D01*
X209912182Y-45478192D01*
X209778932Y-45228899D01*
X209599607Y-45010392D01*
X209381100Y-44831068D01*
X209131807Y-44697818D01*
X208861308Y-44615764D01*
X208580000Y-44588057D01*
X208298691Y-44615764D01*
X208028192Y-44697818D01*
X207778899Y-44831068D01*
X207560392Y-45010393D01*
X207381068Y-45228900D01*
X207310000Y-45361858D01*
X207238932Y-45228899D01*
X207059607Y-45010392D01*
X206841100Y-44831068D01*
X206591807Y-44697818D01*
X206321308Y-44615764D01*
X206040000Y-44588057D01*
X205758691Y-44615764D01*
X205488192Y-44697818D01*
X205238899Y-44831068D01*
X205020392Y-45010393D01*
X204841068Y-45228900D01*
X204770000Y-45361858D01*
X204698932Y-45228899D01*
X204519607Y-45010392D01*
X204301100Y-44831068D01*
X204260000Y-44809100D01*
X204260000Y-43798178D01*
X204446632Y-43673475D01*
X204653475Y-43466632D01*
X204775195Y-43284466D01*
X204844822Y-43401355D01*
X205039731Y-43617588D01*
X205273080Y-43791641D01*
X205535901Y-43916825D01*
X205683110Y-43961476D01*
X205913000Y-43840155D01*
X205913000Y-42647000D01*
X205893000Y-42647000D01*
X205893000Y-42393000D01*
X205913000Y-42393000D01*
X205913000Y-41199845D01*
X206167000Y-41199845D01*
X206167000Y-42393000D01*
X206187000Y-42393000D01*
X206187000Y-42647000D01*
X206167000Y-42647000D01*
X206167000Y-43840155D01*
X206396890Y-43961476D01*
X206544099Y-43916825D01*
X206806920Y-43791641D01*
X207040269Y-43617588D01*
X207235178Y-43401355D01*
X207304805Y-43284466D01*
X207426525Y-43466632D01*
X207633368Y-43673475D01*
X207876589Y-43835990D01*
X208146842Y-43947932D01*
X208433740Y-44005000D01*
X208726260Y-44005000D01*
X209013158Y-43947932D01*
X209283411Y-43835990D01*
X209526632Y-43673475D01*
X209733475Y-43466632D01*
X209850000Y-43292240D01*
X209966525Y-43466632D01*
X210173368Y-43673475D01*
X210416589Y-43835990D01*
X210686842Y-43947932D01*
X210973740Y-44005000D01*
X211266260Y-44005000D01*
X211553158Y-43947932D01*
X211823411Y-43835990D01*
X212066632Y-43673475D01*
X212273475Y-43466632D01*
X212398178Y-43280000D01*
X213602785Y-43280000D01*
X213640107Y-43283676D01*
X213677429Y-43280000D01*
X213677440Y-43280000D01*
X213789093Y-43269003D01*
X213932354Y-43225546D01*
X214064383Y-43154974D01*
X214180108Y-43060001D01*
X214203911Y-43030997D01*
X214856243Y-42378665D01*
X215915107Y-42378665D01*
X215915107Y-42661335D01*
X215970254Y-42938574D01*
X216078427Y-43199727D01*
X216235470Y-43434759D01*
X216435348Y-43634637D01*
X216590107Y-43738044D01*
X216590108Y-45042913D01*
X216475625Y-45054188D01*
X216355927Y-45090498D01*
X216245613Y-45149463D01*
X216148922Y-45228815D01*
X216069570Y-45325506D01*
X216010605Y-45435820D01*
X215974295Y-45555518D01*
X215962035Y-45680000D01*
X215962035Y-47180000D01*
X215974295Y-47304482D01*
X216010605Y-47424180D01*
X216069570Y-47534494D01*
X216148922Y-47631185D01*
X216245613Y-47710537D01*
X216355927Y-47769502D01*
X216475625Y-47805812D01*
X216583590Y-47816445D01*
X216467221Y-47894201D01*
X216274308Y-48087114D01*
X216122736Y-48313957D01*
X216018332Y-48566011D01*
X215965107Y-48833589D01*
X215965107Y-49106411D01*
X216018332Y-49373989D01*
X216122736Y-49626043D01*
X216274308Y-49852886D01*
X216467221Y-50045799D01*
X216694064Y-50197371D01*
X216796980Y-50240000D01*
X216694064Y-50282629D01*
X216467221Y-50434201D01*
X216274308Y-50627114D01*
X216122736Y-50853957D01*
X216018332Y-51106011D01*
X215965107Y-51373589D01*
X215965107Y-51646411D01*
X216018332Y-51913989D01*
X216122736Y-52166043D01*
X216274308Y-52392886D01*
X216467221Y-52585799D01*
X216694064Y-52737371D01*
X216946118Y-52841775D01*
X217213696Y-52895000D01*
X217486518Y-52895000D01*
X217754096Y-52841775D01*
X218006150Y-52737371D01*
X218232993Y-52585799D01*
X218425906Y-52392886D01*
X218577478Y-52166043D01*
X218681882Y-51913989D01*
X218729535Y-51674420D01*
X224947139Y-51674420D01*
X224947139Y-51981714D01*
X225007089Y-52283102D01*
X225124685Y-52567004D01*
X225295408Y-52822509D01*
X225512697Y-53039798D01*
X225768202Y-53210521D01*
X226052104Y-53328117D01*
X226353492Y-53388067D01*
X226660786Y-53388067D01*
X226962174Y-53328117D01*
X227246076Y-53210521D01*
X227501581Y-53039798D01*
X227718870Y-52822509D01*
X227889593Y-52567004D01*
X228007189Y-52283102D01*
X228023018Y-52203520D01*
X234303804Y-52203520D01*
X234303804Y-52513276D01*
X234364234Y-52817079D01*
X234482772Y-53103256D01*
X234654863Y-53360809D01*
X234873893Y-53579839D01*
X235131446Y-53751930D01*
X235417623Y-53870468D01*
X235721426Y-53930898D01*
X236031182Y-53930898D01*
X236334985Y-53870468D01*
X236621162Y-53751930D01*
X236878715Y-53579839D01*
X237097745Y-53360809D01*
X237269836Y-53103256D01*
X237388374Y-52817079D01*
X237448804Y-52513276D01*
X237448804Y-52203520D01*
X237388374Y-51899717D01*
X237269836Y-51613540D01*
X237097745Y-51355987D01*
X236878715Y-51136957D01*
X236621162Y-50964866D01*
X236334985Y-50846328D01*
X236031182Y-50785898D01*
X235721426Y-50785898D01*
X235417623Y-50846328D01*
X235131446Y-50964866D01*
X234873893Y-51136957D01*
X234654863Y-51355987D01*
X234482772Y-51613540D01*
X234364234Y-51899717D01*
X234303804Y-52203520D01*
X228023018Y-52203520D01*
X228067139Y-51981714D01*
X228067139Y-51674420D01*
X228007189Y-51373032D01*
X227889593Y-51089130D01*
X227718870Y-50833625D01*
X227501581Y-50616336D01*
X227246076Y-50445613D01*
X226962174Y-50328017D01*
X226660786Y-50268067D01*
X226353492Y-50268067D01*
X226052104Y-50328017D01*
X225768202Y-50445613D01*
X225512697Y-50616336D01*
X225295408Y-50833625D01*
X225124685Y-51089130D01*
X225007089Y-51373032D01*
X224947139Y-51674420D01*
X218729535Y-51674420D01*
X218735107Y-51646411D01*
X218735107Y-51373589D01*
X218681882Y-51106011D01*
X218577478Y-50853957D01*
X218425906Y-50627114D01*
X218232993Y-50434201D01*
X218006150Y-50282629D01*
X217903234Y-50240000D01*
X218006150Y-50197371D01*
X218232993Y-50045799D01*
X218425906Y-49852886D01*
X218577478Y-49626043D01*
X218681882Y-49373989D01*
X218735107Y-49106411D01*
X218735107Y-48833589D01*
X218702167Y-48667986D01*
X230768270Y-48667986D01*
X230768270Y-48977742D01*
X230828700Y-49281545D01*
X230947238Y-49567722D01*
X231119329Y-49825275D01*
X231338359Y-50044305D01*
X231595912Y-50216396D01*
X231882089Y-50334934D01*
X232185892Y-50395364D01*
X232495648Y-50395364D01*
X232799451Y-50334934D01*
X233085628Y-50216396D01*
X233343181Y-50044305D01*
X233562211Y-49825275D01*
X233734302Y-49567722D01*
X233852840Y-49281545D01*
X233913270Y-48977742D01*
X233913270Y-48667986D01*
X233852840Y-48364183D01*
X233734302Y-48078006D01*
X233562211Y-47820453D01*
X233343181Y-47601423D01*
X233085628Y-47429332D01*
X232799451Y-47310794D01*
X232495648Y-47250364D01*
X232185892Y-47250364D01*
X231882089Y-47310794D01*
X231595912Y-47429332D01*
X231338359Y-47601423D01*
X231119329Y-47820453D01*
X230947238Y-48078006D01*
X230828700Y-48364183D01*
X230768270Y-48667986D01*
X218702167Y-48667986D01*
X218681882Y-48566011D01*
X218577478Y-48313957D01*
X218425906Y-48087114D01*
X218232993Y-47894201D01*
X218116624Y-47816445D01*
X218224589Y-47805812D01*
X218344287Y-47769502D01*
X218454601Y-47710537D01*
X218551292Y-47631185D01*
X218630644Y-47534494D01*
X218689609Y-47424180D01*
X218725919Y-47304482D01*
X218738179Y-47180000D01*
X218738179Y-45680000D01*
X218725919Y-45555518D01*
X218689609Y-45435820D01*
X218630644Y-45325506D01*
X218551292Y-45228815D01*
X218454601Y-45149463D01*
X218344287Y-45090498D01*
X218224589Y-45054188D01*
X218110107Y-45042913D01*
X218110107Y-43738043D01*
X218264866Y-43634637D01*
X218386801Y-43512702D01*
X224157010Y-43512702D01*
X224228593Y-43756671D01*
X224484103Y-43877571D01*
X224758291Y-43946300D01*
X225040619Y-43960217D01*
X225320237Y-43918787D01*
X225586399Y-43823603D01*
X225711621Y-43756671D01*
X225783204Y-43512702D01*
X224970107Y-42699605D01*
X224157010Y-43512702D01*
X218386801Y-43512702D01*
X218464744Y-43434759D01*
X218621787Y-43199727D01*
X218729960Y-42938574D01*
X218785107Y-42661335D01*
X218785107Y-42590512D01*
X223529890Y-42590512D01*
X223571320Y-42870130D01*
X223666504Y-43136292D01*
X223733436Y-43261514D01*
X223977405Y-43333097D01*
X224790502Y-42520000D01*
X225149712Y-42520000D01*
X225962809Y-43333097D01*
X226206778Y-43261514D01*
X226327678Y-43006004D01*
X226396407Y-42731816D01*
X226410324Y-42449488D01*
X226368894Y-42169870D01*
X226273710Y-41903708D01*
X226206778Y-41778486D01*
X225962809Y-41706903D01*
X225149712Y-42520000D01*
X224790502Y-42520000D01*
X223977405Y-41706903D01*
X223733436Y-41778486D01*
X223612536Y-42033996D01*
X223543807Y-42308184D01*
X223529890Y-42590512D01*
X218785107Y-42590512D01*
X218785107Y-42378665D01*
X218729960Y-42101426D01*
X218621787Y-41840273D01*
X218464744Y-41605241D01*
X218386801Y-41527298D01*
X224157010Y-41527298D01*
X224970107Y-42340395D01*
X225783204Y-41527298D01*
X225711621Y-41283329D01*
X225456111Y-41162429D01*
X225181923Y-41093700D01*
X224899595Y-41079783D01*
X224619977Y-41121213D01*
X224353815Y-41216397D01*
X224228593Y-41283329D01*
X224157010Y-41527298D01*
X218386801Y-41527298D01*
X218264866Y-41405363D01*
X218029834Y-41248320D01*
X217768681Y-41140147D01*
X217491442Y-41085000D01*
X217208772Y-41085000D01*
X216931533Y-41140147D01*
X216670380Y-41248320D01*
X216435348Y-41405363D01*
X216235470Y-41605241D01*
X216078427Y-41840273D01*
X215970254Y-42101426D01*
X215915107Y-42378665D01*
X214856243Y-42378665D01*
X216612623Y-40622285D01*
X230165000Y-40622285D01*
X230165000Y-41377715D01*
X230312377Y-42118628D01*
X230601467Y-42816554D01*
X231021161Y-43444670D01*
X231555330Y-43978839D01*
X232183446Y-44398533D01*
X232881372Y-44687623D01*
X233622285Y-44835000D01*
X234377715Y-44835000D01*
X235118628Y-44687623D01*
X235816554Y-44398533D01*
X236444670Y-43978839D01*
X236978839Y-43444670D01*
X237398533Y-42816554D01*
X237687623Y-42118628D01*
X237835000Y-41377715D01*
X237835000Y-40622285D01*
X237687623Y-39881372D01*
X237398533Y-39183446D01*
X236978839Y-38555330D01*
X236444670Y-38021161D01*
X235816554Y-37601467D01*
X235118628Y-37312377D01*
X234377715Y-37165000D01*
X233622285Y-37165000D01*
X232881372Y-37312377D01*
X232183446Y-37601467D01*
X231555330Y-38021161D01*
X231021161Y-38555330D01*
X230601467Y-39183446D01*
X230312377Y-39881372D01*
X230165000Y-40622285D01*
X216612623Y-40622285D01*
X217026221Y-40208688D01*
X217208772Y-40245000D01*
X217491442Y-40245000D01*
X217768681Y-40189853D01*
X218029834Y-40081680D01*
X218264866Y-39924637D01*
X218464744Y-39724759D01*
X218621787Y-39489727D01*
X218729960Y-39228574D01*
X218785107Y-38951335D01*
X218785107Y-38668665D01*
X223535107Y-38668665D01*
X223535107Y-38951335D01*
X223590254Y-39228574D01*
X223698427Y-39489727D01*
X223855470Y-39724759D01*
X224055348Y-39924637D01*
X224290380Y-40081680D01*
X224551533Y-40189853D01*
X224828772Y-40245000D01*
X225111442Y-40245000D01*
X225388681Y-40189853D01*
X225649834Y-40081680D01*
X225884866Y-39924637D01*
X226084744Y-39724759D01*
X226241787Y-39489727D01*
X226349960Y-39228574D01*
X226405107Y-38951335D01*
X226405107Y-38668665D01*
X226349960Y-38391426D01*
X226241787Y-38130273D01*
X226084744Y-37895241D01*
X225884866Y-37695363D01*
X225649834Y-37538320D01*
X225388681Y-37430147D01*
X225111442Y-37375000D01*
X224828772Y-37375000D01*
X224551533Y-37430147D01*
X224290380Y-37538320D01*
X224055348Y-37695363D01*
X223855470Y-37895241D01*
X223698427Y-38130273D01*
X223590254Y-38391426D01*
X223535107Y-38668665D01*
X218785107Y-38668665D01*
X218729960Y-38391426D01*
X218621787Y-38130273D01*
X218464744Y-37895241D01*
X218264866Y-37695363D01*
X218029834Y-37538320D01*
X217768681Y-37430147D01*
X217491442Y-37375000D01*
X217208772Y-37375000D01*
X216931533Y-37430147D01*
X216670380Y-37538320D01*
X216435348Y-37695363D01*
X216235470Y-37895241D01*
X216078427Y-38130273D01*
X215970254Y-38391426D01*
X215915107Y-38668665D01*
X215915107Y-38951335D01*
X215951419Y-39133886D01*
X213325306Y-41760000D01*
X212398178Y-41760000D01*
X212273475Y-41573368D01*
X212066632Y-41366525D01*
X211823411Y-41204010D01*
X211553158Y-41092068D01*
X211266260Y-41035000D01*
X210973740Y-41035000D01*
X210686842Y-41092068D01*
X210416589Y-41204010D01*
X210173368Y-41366525D01*
X209966525Y-41573368D01*
X209850000Y-41747760D01*
X209733475Y-41573368D01*
X209526632Y-41366525D01*
X209283411Y-41204010D01*
X209013158Y-41092068D01*
X208726260Y-41035000D01*
X208433740Y-41035000D01*
X208146842Y-41092068D01*
X207876589Y-41204010D01*
X207633368Y-41366525D01*
X207426525Y-41573368D01*
X207304805Y-41755534D01*
X207235178Y-41638645D01*
X207040269Y-41422412D01*
X206806920Y-41248359D01*
X206544099Y-41123175D01*
X206396890Y-41078524D01*
X206167000Y-41199845D01*
X205913000Y-41199845D01*
X205683110Y-41078524D01*
X205535901Y-41123175D01*
X205273080Y-41248359D01*
X205039731Y-41422412D01*
X204844822Y-41638645D01*
X204775195Y-41755534D01*
X204653475Y-41573368D01*
X204446632Y-41366525D01*
X204203411Y-41204010D01*
X203933158Y-41092068D01*
X203646260Y-41035000D01*
X203353740Y-41035000D01*
X203066842Y-41092068D01*
X202796589Y-41204010D01*
X202553368Y-41366525D01*
X202346525Y-41573368D01*
X202230000Y-41747760D01*
X202113475Y-41573368D01*
X201906632Y-41366525D01*
X201663411Y-41204010D01*
X201393158Y-41092068D01*
X201106260Y-41035000D01*
X200813740Y-41035000D01*
X200526842Y-41092068D01*
X200256589Y-41204010D01*
X200013368Y-41366525D01*
X199806525Y-41573368D01*
X199690000Y-41747760D01*
X199573475Y-41573368D01*
X199366632Y-41366525D01*
X199123411Y-41204010D01*
X198853158Y-41092068D01*
X198566260Y-41035000D01*
X198273740Y-41035000D01*
X197986842Y-41092068D01*
X197716589Y-41204010D01*
X197473368Y-41366525D01*
X197266525Y-41573368D01*
X197150000Y-41747760D01*
X197033475Y-41573368D01*
X196826632Y-41366525D01*
X196583411Y-41204010D01*
X196313158Y-41092068D01*
X196026260Y-41035000D01*
X195733740Y-41035000D01*
X195446842Y-41092068D01*
X195176589Y-41204010D01*
X194933368Y-41366525D01*
X194726525Y-41573368D01*
X194610000Y-41747760D01*
X194493475Y-41573368D01*
X194286632Y-41366525D01*
X194043411Y-41204010D01*
X193773158Y-41092068D01*
X193486260Y-41035000D01*
X193193740Y-41035000D01*
X192906842Y-41092068D01*
X192636589Y-41204010D01*
X192393368Y-41366525D01*
X192261513Y-41498380D01*
X192239502Y-41425820D01*
X192180537Y-41315506D01*
X192101185Y-41218815D01*
X192004494Y-41139463D01*
X191894180Y-41080498D01*
X191774482Y-41044188D01*
X191650000Y-41031928D01*
X189950000Y-41031928D01*
X189825518Y-41044188D01*
X189705820Y-41080498D01*
X189595506Y-41139463D01*
X189498815Y-41218815D01*
X189419463Y-41315506D01*
X189360498Y-41425820D01*
X189324188Y-41545518D01*
X189311928Y-41670000D01*
X189311928Y-43370000D01*
X189324188Y-43494482D01*
X189360498Y-43614180D01*
X189419463Y-43724494D01*
X189498815Y-43821185D01*
X189595506Y-43900537D01*
X189705820Y-43959502D01*
X189825518Y-43995812D01*
X189950000Y-44008072D01*
X190040000Y-44008072D01*
X190040001Y-44809099D01*
X189998899Y-44831068D01*
X189780392Y-45010393D01*
X189601068Y-45228900D01*
X189530000Y-45361858D01*
X189458932Y-45228899D01*
X189279607Y-45010392D01*
X189061100Y-44831068D01*
X188811807Y-44697818D01*
X188541308Y-44615764D01*
X188260000Y-44588057D01*
X187978691Y-44615764D01*
X187708192Y-44697818D01*
X187458899Y-44831068D01*
X187240392Y-45010393D01*
X187061068Y-45228900D01*
X186990000Y-45361858D01*
X186918932Y-45228899D01*
X186739607Y-45010392D01*
X186521100Y-44831068D01*
X186271807Y-44697818D01*
X186001308Y-44615764D01*
X185720000Y-44588057D01*
X185438691Y-44615764D01*
X185168192Y-44697818D01*
X184918899Y-44831068D01*
X184700392Y-45010393D01*
X184521068Y-45228900D01*
X184387818Y-45478193D01*
X184305764Y-45748692D01*
X184285000Y-45959509D01*
X160970000Y-45959509D01*
X160970000Y-41987057D01*
X161623738Y-41987057D01*
X161623738Y-42294351D01*
X161683688Y-42595739D01*
X161801284Y-42879641D01*
X161972007Y-43135146D01*
X162189296Y-43352435D01*
X162444801Y-43523158D01*
X162728703Y-43640754D01*
X163030091Y-43700704D01*
X163337385Y-43700704D01*
X163638773Y-43640754D01*
X163922675Y-43523158D01*
X164178180Y-43352435D01*
X164395469Y-43135146D01*
X164566192Y-42879641D01*
X164683788Y-42595739D01*
X164743738Y-42294351D01*
X164743738Y-41987057D01*
X164683788Y-41685669D01*
X164566192Y-41401767D01*
X164395469Y-41146262D01*
X164178180Y-40928973D01*
X163922675Y-40758250D01*
X163638773Y-40640654D01*
X163337385Y-40580704D01*
X163030091Y-40580704D01*
X162728703Y-40640654D01*
X162444801Y-40758250D01*
X162189296Y-40928973D01*
X161972007Y-41146262D01*
X161801284Y-41401767D01*
X161683688Y-41685669D01*
X161623738Y-41987057D01*
X160970000Y-41987057D01*
X160970000Y-41982719D01*
X160973676Y-41945394D01*
X160970000Y-41908069D01*
X160970000Y-41908061D01*
X160959003Y-41796408D01*
X160915546Y-41653147D01*
X160844974Y-41521118D01*
X160750001Y-41405393D01*
X160721003Y-41381595D01*
X159026605Y-39687198D01*
X159127117Y-39586686D01*
X159206469Y-39489995D01*
X159265434Y-39379681D01*
X159301744Y-39259983D01*
X159314004Y-39135501D01*
X159301744Y-39011019D01*
X159265434Y-38891321D01*
X159206469Y-38781007D01*
X159127117Y-38684316D01*
X157801292Y-37358491D01*
X157704601Y-37279139D01*
X157594287Y-37220174D01*
X157474589Y-37183864D01*
X157350107Y-37171604D01*
X157225625Y-37183864D01*
X157105927Y-37220174D01*
X156995613Y-37279139D01*
X156898922Y-37358491D01*
X155573097Y-38684316D01*
X155493745Y-38781007D01*
X155434780Y-38891321D01*
X155398470Y-39011019D01*
X155386210Y-39135501D01*
X155398470Y-39259983D01*
X155434780Y-39379681D01*
X155493745Y-39489995D01*
X155573097Y-39586686D01*
X156898922Y-40912511D01*
X156995613Y-40991863D01*
X157105927Y-41050828D01*
X157225625Y-41087138D01*
X157350107Y-41099398D01*
X157474589Y-41087138D01*
X157594287Y-41050828D01*
X157704601Y-40991863D01*
X157801292Y-40912511D01*
X157951804Y-40761999D01*
X159450001Y-42260197D01*
X159450000Y-65952678D01*
X159446324Y-65990000D01*
X159450000Y-66027322D01*
X159450000Y-66027332D01*
X159460997Y-66138985D01*
X159501628Y-66272929D01*
X159504454Y-66282246D01*
X159575026Y-66414276D01*
X159590996Y-66433735D01*
X159669999Y-66530001D01*
X159699003Y-66553804D01*
X161965198Y-68820000D01*
X158067478Y-68820000D01*
X158202230Y-68618329D01*
X158319826Y-68334427D01*
X158379776Y-68033039D01*
X158379776Y-67725745D01*
X158319826Y-67424357D01*
X158202230Y-67140455D01*
X158031507Y-66884950D01*
X157814218Y-66667661D01*
X157558713Y-66496938D01*
X157274811Y-66379342D01*
X156973423Y-66319392D01*
X156666129Y-66319392D01*
X156364741Y-66379342D01*
X156080839Y-66496938D01*
X155825334Y-66667661D01*
X155608045Y-66884950D01*
X155437322Y-67140455D01*
X155319726Y-67424357D01*
X155259776Y-67725745D01*
X155259776Y-68033039D01*
X155319726Y-68334427D01*
X155437322Y-68618329D01*
X155572074Y-68820000D01*
X153894802Y-68820000D01*
X147840068Y-62765267D01*
X148121424Y-62709302D01*
X148407601Y-62590764D01*
X148665154Y-62418673D01*
X148884184Y-62199643D01*
X149056275Y-61942090D01*
X149077485Y-61890883D01*
X152242073Y-61890883D01*
X152242073Y-62200639D01*
X152302503Y-62504442D01*
X152421041Y-62790619D01*
X152593132Y-63048172D01*
X152812162Y-63267202D01*
X153069715Y-63439293D01*
X153355892Y-63557831D01*
X153659695Y-63618261D01*
X153969451Y-63618261D01*
X154273254Y-63557831D01*
X154559431Y-63439293D01*
X154816984Y-63267202D01*
X155036014Y-63048172D01*
X155208105Y-62790619D01*
X155326643Y-62504442D01*
X155387073Y-62200639D01*
X155387073Y-61890883D01*
X155326643Y-61587080D01*
X155208105Y-61300903D01*
X155036014Y-61043350D01*
X154816984Y-60824320D01*
X154559431Y-60652229D01*
X154273254Y-60533691D01*
X153969451Y-60473261D01*
X153659695Y-60473261D01*
X153355892Y-60533691D01*
X153069715Y-60652229D01*
X152812162Y-60824320D01*
X152593132Y-61043350D01*
X152421041Y-61300903D01*
X152302503Y-61587080D01*
X152242073Y-61890883D01*
X149077485Y-61890883D01*
X149174813Y-61655913D01*
X149235243Y-61352110D01*
X149235243Y-61042354D01*
X149174813Y-60738551D01*
X149056275Y-60452374D01*
X148884184Y-60194821D01*
X148665154Y-59975791D01*
X148407601Y-59803700D01*
X148121424Y-59685162D01*
X147817621Y-59624732D01*
X147507865Y-59624732D01*
X147204062Y-59685162D01*
X146917885Y-59803700D01*
X146660332Y-59975791D01*
X146441302Y-60194821D01*
X146269211Y-60452374D01*
X146150673Y-60738551D01*
X146094708Y-61019907D01*
X144937209Y-59862408D01*
X144937209Y-59079893D01*
X145904219Y-58112883D01*
X145965360Y-58038382D01*
X151936374Y-58038382D01*
X151936374Y-58345676D01*
X151996324Y-58647064D01*
X152113920Y-58930966D01*
X152284643Y-59186471D01*
X152501932Y-59403760D01*
X152757437Y-59574483D01*
X153041339Y-59692079D01*
X153342727Y-59752029D01*
X153650021Y-59752029D01*
X153951409Y-59692079D01*
X154235311Y-59574483D01*
X154490816Y-59403760D01*
X154708105Y-59186471D01*
X154878828Y-58930966D01*
X154996424Y-58647064D01*
X155023642Y-58510227D01*
X155386210Y-58510227D01*
X155398470Y-58634709D01*
X155434780Y-58754407D01*
X155493745Y-58864721D01*
X155573097Y-58961412D01*
X156898922Y-60287237D01*
X156995613Y-60366589D01*
X157105927Y-60425554D01*
X157225625Y-60461864D01*
X157350107Y-60474124D01*
X157474589Y-60461864D01*
X157594287Y-60425554D01*
X157704601Y-60366589D01*
X157801292Y-60287237D01*
X159127117Y-58961412D01*
X159206469Y-58864721D01*
X159265434Y-58754407D01*
X159301744Y-58634709D01*
X159314004Y-58510227D01*
X159301744Y-58385745D01*
X159265434Y-58266047D01*
X159206469Y-58155733D01*
X159127117Y-58059042D01*
X157801292Y-56733217D01*
X157704601Y-56653865D01*
X157594287Y-56594900D01*
X157474589Y-56558590D01*
X157350107Y-56546330D01*
X157225625Y-56558590D01*
X157105927Y-56594900D01*
X156995613Y-56653865D01*
X156898922Y-56733217D01*
X155573097Y-58059042D01*
X155493745Y-58155733D01*
X155434780Y-58266047D01*
X155398470Y-58385745D01*
X155386210Y-58510227D01*
X155023642Y-58510227D01*
X155056374Y-58345676D01*
X155056374Y-58038382D01*
X154996424Y-57736994D01*
X154878828Y-57453092D01*
X154708105Y-57197587D01*
X154490816Y-56980298D01*
X154235311Y-56809575D01*
X153951409Y-56691979D01*
X153650021Y-56632029D01*
X153342727Y-56632029D01*
X153041339Y-56691979D01*
X152757437Y-56809575D01*
X152501932Y-56980298D01*
X152284643Y-57197587D01*
X152113920Y-57453092D01*
X151996324Y-57736994D01*
X151936374Y-58038382D01*
X145965360Y-58038382D01*
X145983571Y-58016192D01*
X146042536Y-57905878D01*
X146078846Y-57786180D01*
X146091106Y-57661698D01*
X146078846Y-57537216D01*
X146042536Y-57417518D01*
X145983571Y-57307204D01*
X145904219Y-57210513D01*
X144578394Y-55884688D01*
X144481703Y-55805336D01*
X144371389Y-55746371D01*
X144251691Y-55710061D01*
X144127209Y-55697801D01*
X144002727Y-55710061D01*
X143883029Y-55746371D01*
X143772715Y-55805336D01*
X143676024Y-55884688D01*
X142350199Y-57210513D01*
X142270847Y-57307204D01*
X142211882Y-57417518D01*
X142175572Y-57537216D01*
X142163312Y-57661698D01*
X140710000Y-57661698D01*
X140710000Y-51674420D01*
X145572412Y-51674420D01*
X145572412Y-51981714D01*
X145632362Y-52283102D01*
X145749958Y-52567004D01*
X145920681Y-52822509D01*
X146137970Y-53039798D01*
X146393475Y-53210521D01*
X146677377Y-53328117D01*
X146978765Y-53388067D01*
X147286059Y-53388067D01*
X147587447Y-53328117D01*
X147871349Y-53210521D01*
X148126854Y-53039798D01*
X148344143Y-52822509D01*
X148514866Y-52567004D01*
X148632462Y-52283102D01*
X148648291Y-52203520D01*
X154929077Y-52203520D01*
X154929077Y-52513276D01*
X154989507Y-52817079D01*
X155108045Y-53103256D01*
X155280136Y-53360809D01*
X155499166Y-53579839D01*
X155756719Y-53751930D01*
X156042896Y-53870468D01*
X156346699Y-53930898D01*
X156656455Y-53930898D01*
X156960258Y-53870468D01*
X157246435Y-53751930D01*
X157503988Y-53579839D01*
X157723018Y-53360809D01*
X157895109Y-53103256D01*
X158013647Y-52817079D01*
X158074077Y-52513276D01*
X158074077Y-52203520D01*
X158013647Y-51899717D01*
X157895109Y-51613540D01*
X157723018Y-51355987D01*
X157503988Y-51136957D01*
X157246435Y-50964866D01*
X156960258Y-50846328D01*
X156656455Y-50785898D01*
X156346699Y-50785898D01*
X156042896Y-50846328D01*
X155756719Y-50964866D01*
X155499166Y-51136957D01*
X155280136Y-51355987D01*
X155108045Y-51613540D01*
X154989507Y-51899717D01*
X154929077Y-52203520D01*
X148648291Y-52203520D01*
X148692412Y-51981714D01*
X148692412Y-51674420D01*
X148632462Y-51373032D01*
X148514866Y-51089130D01*
X148344143Y-50833625D01*
X148126854Y-50616336D01*
X147871349Y-50445613D01*
X147587447Y-50328017D01*
X147286059Y-50268067D01*
X146978765Y-50268067D01*
X146677377Y-50328017D01*
X146393475Y-50445613D01*
X146137970Y-50616336D01*
X145920681Y-50833625D01*
X145749958Y-51089130D01*
X145632362Y-51373032D01*
X145572412Y-51674420D01*
X140710000Y-51674420D01*
X140710000Y-48667986D01*
X151393543Y-48667986D01*
X151393543Y-48977742D01*
X151453973Y-49281545D01*
X151572511Y-49567722D01*
X151744602Y-49825275D01*
X151963632Y-50044305D01*
X152221185Y-50216396D01*
X152507362Y-50334934D01*
X152811165Y-50395364D01*
X153120921Y-50395364D01*
X153424724Y-50334934D01*
X153710901Y-50216396D01*
X153968454Y-50044305D01*
X154187484Y-49825275D01*
X154359575Y-49567722D01*
X154478113Y-49281545D01*
X154538543Y-48977742D01*
X154538543Y-48667986D01*
X154478113Y-48364183D01*
X154472661Y-48351019D01*
X155259776Y-48351019D01*
X155259776Y-48658313D01*
X155319726Y-48959701D01*
X155437322Y-49243603D01*
X155608045Y-49499108D01*
X155825334Y-49716397D01*
X156080839Y-49887120D01*
X156364741Y-50004716D01*
X156666129Y-50064666D01*
X156973423Y-50064666D01*
X157274811Y-50004716D01*
X157558713Y-49887120D01*
X157814218Y-49716397D01*
X158031507Y-49499108D01*
X158202230Y-49243603D01*
X158319826Y-48959701D01*
X158379776Y-48658313D01*
X158379776Y-48351019D01*
X158319826Y-48049631D01*
X158202230Y-47765729D01*
X158031507Y-47510224D01*
X157814218Y-47292935D01*
X157558713Y-47122212D01*
X157274811Y-47004616D01*
X156973423Y-46944666D01*
X156666129Y-46944666D01*
X156364741Y-47004616D01*
X156080839Y-47122212D01*
X155825334Y-47292935D01*
X155608045Y-47510224D01*
X155437322Y-47765729D01*
X155319726Y-48049631D01*
X155259776Y-48351019D01*
X154472661Y-48351019D01*
X154359575Y-48078006D01*
X154187484Y-47820453D01*
X153968454Y-47601423D01*
X153710901Y-47429332D01*
X153424724Y-47310794D01*
X153120921Y-47250364D01*
X152811165Y-47250364D01*
X152507362Y-47310794D01*
X152221185Y-47429332D01*
X151963632Y-47601423D01*
X151744602Y-47820453D01*
X151572511Y-48078006D01*
X151453973Y-48364183D01*
X151393543Y-48667986D01*
X140710000Y-48667986D01*
X140710000Y-41029142D01*
X140743449Y-40622285D01*
X142165000Y-40622285D01*
X142165000Y-41377715D01*
X142312377Y-42118628D01*
X142601467Y-42816554D01*
X143021161Y-43444670D01*
X143555330Y-43978839D01*
X144183446Y-44398533D01*
X144881372Y-44687623D01*
X145622285Y-44835000D01*
X146377715Y-44835000D01*
X147118628Y-44687623D01*
X147816554Y-44398533D01*
X148444670Y-43978839D01*
X148978839Y-43444670D01*
X149398533Y-42816554D01*
X149522961Y-42516157D01*
X152242073Y-42516157D01*
X152242073Y-42825913D01*
X152302503Y-43129716D01*
X152421041Y-43415893D01*
X152593132Y-43673446D01*
X152812162Y-43892476D01*
X153069715Y-44064567D01*
X153355892Y-44183105D01*
X153659695Y-44243535D01*
X153969451Y-44243535D01*
X154273254Y-44183105D01*
X154559431Y-44064567D01*
X154816984Y-43892476D01*
X155036014Y-43673446D01*
X155208105Y-43415893D01*
X155326643Y-43129716D01*
X155387073Y-42825913D01*
X155387073Y-42516157D01*
X155326643Y-42212354D01*
X155208105Y-41926177D01*
X155036014Y-41668624D01*
X154816984Y-41449594D01*
X154559431Y-41277503D01*
X154273254Y-41158965D01*
X153969451Y-41098535D01*
X153659695Y-41098535D01*
X153355892Y-41158965D01*
X153069715Y-41277503D01*
X152812162Y-41449594D01*
X152593132Y-41668624D01*
X152421041Y-41926177D01*
X152302503Y-42212354D01*
X152242073Y-42516157D01*
X149522961Y-42516157D01*
X149687623Y-42118628D01*
X149835000Y-41377715D01*
X149835000Y-40622285D01*
X149687623Y-39881372D01*
X149398533Y-39183446D01*
X148978839Y-38555330D01*
X148444670Y-38021161D01*
X147816554Y-37601467D01*
X147118628Y-37312377D01*
X146377715Y-37165000D01*
X145622285Y-37165000D01*
X144881372Y-37312377D01*
X144183446Y-37601467D01*
X143555330Y-38021161D01*
X143021161Y-38555330D01*
X142601467Y-39183446D01*
X142312377Y-39881372D01*
X142165000Y-40622285D01*
X140743449Y-40622285D01*
X140783397Y-40136392D01*
X140994491Y-39295990D01*
X141340017Y-38501336D01*
X141810685Y-37773794D01*
X142393864Y-37132890D01*
X143073881Y-36595845D01*
X143832489Y-36177070D01*
X144649306Y-35887820D01*
X145514656Y-35733677D01*
X146016736Y-35710000D01*
X233970858Y-35710000D01*
X234863608Y-35783397D01*
%TA.AperFunction,Conductor*%
D25*
G36*
X234863608Y-35783397D02*
G01*
X235704010Y-35994491D01*
X236498664Y-36340017D01*
X237226206Y-36810685D01*
X237867110Y-37393864D01*
X238404155Y-38073881D01*
X238822930Y-38832489D01*
X239112180Y-39649306D01*
X239266323Y-40514656D01*
X239290000Y-41016736D01*
X239290001Y-68970846D01*
X239216603Y-69863606D01*
X239005509Y-70704010D01*
X238659983Y-71498664D01*
X238189315Y-72226206D01*
X237606136Y-72867110D01*
X236926115Y-73404159D01*
X236167507Y-73822932D01*
X235350692Y-74112181D01*
X234485344Y-74266323D01*
X233983265Y-74290000D01*
X146029142Y-74290000D01*
X145136394Y-74216603D01*
X144295990Y-74005509D01*
X143501336Y-73659983D01*
X142773794Y-73189315D01*
X142132890Y-72606136D01*
X141595841Y-71926115D01*
X141177068Y-71167507D01*
X140887819Y-70350692D01*
X140733677Y-69485344D01*
X140710000Y-68983265D01*
X140710000Y-68622285D01*
X142165000Y-68622285D01*
X142165000Y-69377715D01*
X142312377Y-70118628D01*
X142601467Y-70816554D01*
X143021161Y-71444670D01*
X143555330Y-71978839D01*
X144183446Y-72398533D01*
X144881372Y-72687623D01*
X145622285Y-72835000D01*
X146377715Y-72835000D01*
X147118628Y-72687623D01*
X147816554Y-72398533D01*
X148444670Y-71978839D01*
X148978839Y-71444670D01*
X149398533Y-70816554D01*
X149687623Y-70118628D01*
X149835000Y-69377715D01*
X149835000Y-68622285D01*
X149687623Y-67881372D01*
X149398533Y-67183446D01*
X148978839Y-66555330D01*
X148444670Y-66021161D01*
X147816554Y-65601467D01*
X147118628Y-65312377D01*
X146377715Y-65165000D01*
X145622285Y-65165000D01*
X144881372Y-65312377D01*
X144183446Y-65601467D01*
X143555330Y-66021161D01*
X143021161Y-66555330D01*
X142601467Y-67183446D01*
X142312377Y-67881372D01*
X142165000Y-68622285D01*
X140710000Y-68622285D01*
X140710000Y-57661698D01*
X142163312Y-57661698D01*
X142175572Y-57786180D01*
X142211882Y-57905878D01*
X142270847Y-58016192D01*
X142350199Y-58112883D01*
X143417209Y-59179893D01*
X143417209Y-60139886D01*
X143413533Y-60177209D01*
X143417209Y-60214531D01*
X143417209Y-60214541D01*
X143428206Y-60326194D01*
X143458346Y-60425554D01*
X143471663Y-60469455D01*
X143542235Y-60601485D01*
X143582080Y-60650035D01*
X143637208Y-60717210D01*
X143666212Y-60741013D01*
X153016201Y-70091003D01*
X153039999Y-70120001D01*
X153068997Y-70143799D01*
X153155724Y-70214974D01*
X153287753Y-70285546D01*
X153431014Y-70329003D01*
X153580000Y-70343677D01*
X153617333Y-70340000D01*
X161176924Y-70340000D01*
X161141337Y-70425914D01*
X161080907Y-70729717D01*
X161080907Y-71039473D01*
X161141337Y-71343276D01*
X161259875Y-71629453D01*
X161431966Y-71887006D01*
X161650996Y-72106036D01*
X161908549Y-72278127D01*
X162194726Y-72396665D01*
X162498529Y-72457095D01*
X162808285Y-72457095D01*
X163112088Y-72396665D01*
X163398265Y-72278127D01*
X163655818Y-72106036D01*
X163874848Y-71887006D01*
X164046939Y-71629453D01*
X164165477Y-71343276D01*
X164225907Y-71039473D01*
X164225907Y-70729717D01*
X221080907Y-70729717D01*
X221080907Y-71039473D01*
X221141337Y-71343276D01*
X221259875Y-71629453D01*
X221431966Y-71887006D01*
X221650996Y-72106036D01*
X221908549Y-72278127D01*
X222194726Y-72396665D01*
X222498529Y-72457095D01*
X222808285Y-72457095D01*
X223112088Y-72396665D01*
X223398265Y-72278127D01*
X223655818Y-72106036D01*
X223874848Y-71887006D01*
X224046939Y-71629453D01*
X224165477Y-71343276D01*
X224225907Y-71039473D01*
X224225907Y-70729717D01*
X224165477Y-70425914D01*
X224046939Y-70139737D01*
X223874848Y-69882184D01*
X223655818Y-69663154D01*
X223398265Y-69491063D01*
X223112088Y-69372525D01*
X222808285Y-69312095D01*
X222498529Y-69312095D01*
X222194726Y-69372525D01*
X221908549Y-69491063D01*
X221650996Y-69663154D01*
X221431966Y-69882184D01*
X221259875Y-70139737D01*
X221141337Y-70425914D01*
X221080907Y-70729717D01*
X164225907Y-70729717D01*
X164165477Y-70425914D01*
X164129890Y-70340000D01*
X183300089Y-70340000D01*
X183337411Y-70343676D01*
X183374733Y-70340000D01*
X183374744Y-70340000D01*
X183486397Y-70329003D01*
X183629658Y-70285546D01*
X183761687Y-70214974D01*
X183877412Y-70120001D01*
X183901215Y-70090997D01*
X185396114Y-68596099D01*
X185578665Y-68632411D01*
X185861335Y-68632411D01*
X186138574Y-68577264D01*
X186399727Y-68469091D01*
X186634759Y-68312048D01*
X186834637Y-68112170D01*
X186990000Y-67879652D01*
X187145363Y-68112170D01*
X187345241Y-68312048D01*
X187580273Y-68469091D01*
X187841426Y-68577264D01*
X188118665Y-68632411D01*
X188401335Y-68632411D01*
X188678574Y-68577264D01*
X188939727Y-68469091D01*
X189174759Y-68312048D01*
X189374637Y-68112170D01*
X189530000Y-67879652D01*
X189685363Y-68112170D01*
X189885241Y-68312048D01*
X190120273Y-68469091D01*
X190381426Y-68577264D01*
X190658665Y-68632411D01*
X190941335Y-68632411D01*
X191218574Y-68577264D01*
X191479727Y-68469091D01*
X191714759Y-68312048D01*
X191914637Y-68112170D01*
X192070000Y-67879652D01*
X192225363Y-68112170D01*
X192425241Y-68312048D01*
X192660273Y-68469091D01*
X192921426Y-68577264D01*
X193198665Y-68632411D01*
X193481335Y-68632411D01*
X193758574Y-68577264D01*
X194019727Y-68469091D01*
X194254759Y-68312048D01*
X194454637Y-68112170D01*
X194558043Y-67957411D01*
X213928901Y-67957411D01*
X213966223Y-67961087D01*
X214003545Y-67957411D01*
X214003556Y-67957411D01*
X214115209Y-67946414D01*
X214258470Y-67902957D01*
X214390499Y-67832385D01*
X214506224Y-67737412D01*
X214515798Y-67725745D01*
X215259776Y-67725745D01*
X215259776Y-68033039D01*
X215319726Y-68334427D01*
X215437322Y-68618329D01*
X215608045Y-68873834D01*
X215825334Y-69091123D01*
X216080839Y-69261846D01*
X216364741Y-69379442D01*
X216666129Y-69439392D01*
X216973423Y-69439392D01*
X217274811Y-69379442D01*
X217558713Y-69261846D01*
X217814218Y-69091123D01*
X218031507Y-68873834D01*
X218202230Y-68618329D01*
X218319826Y-68334427D01*
X218379776Y-68033039D01*
X218379776Y-67725745D01*
X218319826Y-67424357D01*
X218224485Y-67194183D01*
X224616441Y-67194183D01*
X224616441Y-67503939D01*
X224676871Y-67807742D01*
X224795409Y-68093919D01*
X224967500Y-68351472D01*
X225186530Y-68570502D01*
X225444083Y-68742593D01*
X225730260Y-68861131D01*
X226034063Y-68921561D01*
X226343819Y-68921561D01*
X226647622Y-68861131D01*
X226933799Y-68742593D01*
X227113853Y-68622285D01*
X230165000Y-68622285D01*
X230165000Y-69377715D01*
X230312377Y-70118628D01*
X230601467Y-70816554D01*
X231021161Y-71444670D01*
X231555330Y-71978839D01*
X232183446Y-72398533D01*
X232881372Y-72687623D01*
X233622285Y-72835000D01*
X234377715Y-72835000D01*
X235118628Y-72687623D01*
X235816554Y-72398533D01*
X236444670Y-71978839D01*
X236978839Y-71444670D01*
X237398533Y-70816554D01*
X237687623Y-70118628D01*
X237835000Y-69377715D01*
X237835000Y-68622285D01*
X237687623Y-67881372D01*
X237398533Y-67183446D01*
X236978839Y-66555330D01*
X236444670Y-66021161D01*
X235816554Y-65601467D01*
X235118628Y-65312377D01*
X234377715Y-65165000D01*
X233622285Y-65165000D01*
X232881372Y-65312377D01*
X232183446Y-65601467D01*
X231555330Y-66021161D01*
X231021161Y-66555330D01*
X230601467Y-67183446D01*
X230312377Y-67881372D01*
X230165000Y-68622285D01*
X227113853Y-68622285D01*
X227191352Y-68570502D01*
X227410382Y-68351472D01*
X227582473Y-68093919D01*
X227701011Y-67807742D01*
X227761441Y-67503939D01*
X227761441Y-67194183D01*
X227701011Y-66890380D01*
X227582473Y-66604203D01*
X227410382Y-66346650D01*
X227191352Y-66127620D01*
X226933799Y-65955529D01*
X226647622Y-65836991D01*
X226343819Y-65776561D01*
X226034063Y-65776561D01*
X225730260Y-65836991D01*
X225444083Y-65955529D01*
X225186530Y-66127620D01*
X224967500Y-66346650D01*
X224795409Y-66604203D01*
X224676871Y-66890380D01*
X224616441Y-67194183D01*
X218224485Y-67194183D01*
X218202230Y-67140455D01*
X218031507Y-66884950D01*
X217814218Y-66667661D01*
X217558713Y-66496938D01*
X217274811Y-66379342D01*
X216973423Y-66319392D01*
X216666129Y-66319392D01*
X216364741Y-66379342D01*
X216080839Y-66496938D01*
X215825334Y-66667661D01*
X215608045Y-66884950D01*
X215437322Y-67140455D01*
X215319726Y-67424357D01*
X215259776Y-67725745D01*
X214515798Y-67725745D01*
X214530027Y-67708408D01*
X220876652Y-61361783D01*
X221623738Y-61361783D01*
X221623738Y-61669077D01*
X221683688Y-61970465D01*
X221801284Y-62254367D01*
X221972007Y-62509872D01*
X222189296Y-62727161D01*
X222444801Y-62897884D01*
X222728703Y-63015480D01*
X223030091Y-63075430D01*
X223337385Y-63075430D01*
X223638773Y-63015480D01*
X223922675Y-62897884D01*
X224178180Y-62727161D01*
X224395469Y-62509872D01*
X224566192Y-62254367D01*
X224683788Y-61970465D01*
X224743738Y-61669077D01*
X224743738Y-61361783D01*
X224683788Y-61060395D01*
X224676316Y-61042354D01*
X225464970Y-61042354D01*
X225464970Y-61352110D01*
X225525400Y-61655913D01*
X225643938Y-61942090D01*
X225816029Y-62199643D01*
X226035059Y-62418673D01*
X226292612Y-62590764D01*
X226578789Y-62709302D01*
X226882592Y-62769732D01*
X227192348Y-62769732D01*
X227496151Y-62709302D01*
X227782328Y-62590764D01*
X228039881Y-62418673D01*
X228258911Y-62199643D01*
X228431002Y-61942090D01*
X228549540Y-61655913D01*
X228609970Y-61352110D01*
X228609970Y-61042354D01*
X228549540Y-60738551D01*
X228431002Y-60452374D01*
X228258911Y-60194821D01*
X228039881Y-59975791D01*
X227782328Y-59803700D01*
X227496151Y-59685162D01*
X227192348Y-59624732D01*
X226882592Y-59624732D01*
X226578789Y-59685162D01*
X226292612Y-59803700D01*
X226035059Y-59975791D01*
X225816029Y-60194821D01*
X225643938Y-60452374D01*
X225525400Y-60738551D01*
X225464970Y-61042354D01*
X224676316Y-61042354D01*
X224566192Y-60776493D01*
X224395469Y-60520988D01*
X224178180Y-60303699D01*
X223922675Y-60132976D01*
X223638773Y-60015380D01*
X223337385Y-59955430D01*
X223030091Y-59955430D01*
X222728703Y-60015380D01*
X222444801Y-60132976D01*
X222189296Y-60303699D01*
X221972007Y-60520988D01*
X221801284Y-60776493D01*
X221683688Y-61060395D01*
X221623738Y-61361783D01*
X220876652Y-61361783D01*
X222925239Y-59313196D01*
X223050751Y-59438708D01*
X223147442Y-59518060D01*
X223257756Y-59577025D01*
X223377454Y-59613335D01*
X223501936Y-59625595D01*
X223626418Y-59613335D01*
X223746116Y-59577025D01*
X223856430Y-59518060D01*
X223953121Y-59438708D01*
X225278946Y-58112883D01*
X225340087Y-58038382D01*
X231311101Y-58038382D01*
X231311101Y-58345676D01*
X231371051Y-58647064D01*
X231488647Y-58930966D01*
X231659370Y-59186471D01*
X231876659Y-59403760D01*
X232132164Y-59574483D01*
X232416066Y-59692079D01*
X232717454Y-59752029D01*
X233024748Y-59752029D01*
X233326136Y-59692079D01*
X233610038Y-59574483D01*
X233865543Y-59403760D01*
X234082832Y-59186471D01*
X234253555Y-58930966D01*
X234371151Y-58647064D01*
X234431101Y-58345676D01*
X234431101Y-58038382D01*
X234371151Y-57736994D01*
X234253555Y-57453092D01*
X234082832Y-57197587D01*
X233865543Y-56980298D01*
X233610038Y-56809575D01*
X233326136Y-56691979D01*
X233024748Y-56632029D01*
X232717454Y-56632029D01*
X232416066Y-56691979D01*
X232132164Y-56809575D01*
X231876659Y-56980298D01*
X231659370Y-57197587D01*
X231488647Y-57453092D01*
X231371051Y-57736994D01*
X231311101Y-58038382D01*
X225340087Y-58038382D01*
X225358298Y-58016192D01*
X225417263Y-57905878D01*
X225453573Y-57786180D01*
X225465833Y-57661698D01*
X225453573Y-57537216D01*
X225417263Y-57417518D01*
X225358298Y-57307204D01*
X225278946Y-57210513D01*
X223953121Y-55884688D01*
X223856430Y-55805336D01*
X223746116Y-55746371D01*
X223626418Y-55710061D01*
X223501936Y-55697801D01*
X223377454Y-55710061D01*
X223257756Y-55746371D01*
X223147442Y-55805336D01*
X223050751Y-55884688D01*
X221724926Y-57210513D01*
X221645574Y-57307204D01*
X221586609Y-57417518D01*
X221550299Y-57537216D01*
X221538039Y-57661698D01*
X221550299Y-57786180D01*
X221586609Y-57905878D01*
X221645574Y-58016192D01*
X221724926Y-58112883D01*
X221850438Y-58238395D01*
X213651422Y-66437411D01*
X194558043Y-66437411D01*
X194454637Y-66282652D01*
X194254759Y-66082774D01*
X194019727Y-65925731D01*
X193758574Y-65817558D01*
X193481335Y-65762411D01*
X193309801Y-65762411D01*
X197181330Y-61890883D01*
X212242073Y-61890883D01*
X212242073Y-62200639D01*
X212302503Y-62504442D01*
X212421041Y-62790619D01*
X212593132Y-63048172D01*
X212812162Y-63267202D01*
X213069715Y-63439293D01*
X213355892Y-63557831D01*
X213659695Y-63618261D01*
X213969451Y-63618261D01*
X214273254Y-63557831D01*
X214559431Y-63439293D01*
X214816984Y-63267202D01*
X215036014Y-63048172D01*
X215208105Y-62790619D01*
X215326643Y-62504442D01*
X215387073Y-62200639D01*
X215387073Y-61890883D01*
X215326643Y-61587080D01*
X215208105Y-61300903D01*
X215036014Y-61043350D01*
X214816984Y-60824320D01*
X214559431Y-60652229D01*
X214273254Y-60533691D01*
X213969451Y-60473261D01*
X213659695Y-60473261D01*
X213355892Y-60533691D01*
X213069715Y-60652229D01*
X212812162Y-60824320D01*
X212593132Y-61043350D01*
X212421041Y-61300903D01*
X212302503Y-61587080D01*
X212242073Y-61890883D01*
X197181330Y-61890883D01*
X199801987Y-59270227D01*
X215881912Y-59270227D01*
X216898922Y-60287237D01*
X216995613Y-60366589D01*
X217105927Y-60425554D01*
X217225625Y-60461864D01*
X217350107Y-60474124D01*
X217474589Y-60461864D01*
X217594287Y-60425554D01*
X217704601Y-60366589D01*
X217801292Y-60287237D01*
X219127117Y-58961412D01*
X219206469Y-58864721D01*
X219265434Y-58754407D01*
X219301744Y-58634709D01*
X219314004Y-58510227D01*
X219301744Y-58385745D01*
X219265434Y-58266047D01*
X219206469Y-58155733D01*
X219127117Y-58059042D01*
X217801292Y-56733217D01*
X217704601Y-56653865D01*
X217594287Y-56594900D01*
X217474589Y-56558590D01*
X217350107Y-56546330D01*
X217225625Y-56558590D01*
X217105927Y-56594900D01*
X216995613Y-56653865D01*
X216898922Y-56733217D01*
X215881912Y-57750227D01*
X199524506Y-57750227D01*
X199487183Y-57746551D01*
X199449860Y-57750227D01*
X199449851Y-57750227D01*
X199338198Y-57761224D01*
X199194937Y-57804681D01*
X199062908Y-57875253D01*
X199062906Y-57875254D01*
X199062907Y-57875254D01*
X198976180Y-57946428D01*
X198976176Y-57946432D01*
X198947183Y-57970226D01*
X198923389Y-57999219D01*
X191123887Y-65798723D01*
X190941335Y-65762411D01*
X190658665Y-65762411D01*
X190381426Y-65817558D01*
X190120273Y-65925731D01*
X189885241Y-66082774D01*
X189685363Y-66282652D01*
X189530000Y-66515170D01*
X189374637Y-66282652D01*
X189174759Y-66082774D01*
X188939727Y-65925731D01*
X188678574Y-65817558D01*
X188401335Y-65762411D01*
X188118665Y-65762411D01*
X187841426Y-65817558D01*
X187580273Y-65925731D01*
X187345241Y-66082774D01*
X187145363Y-66282652D01*
X186990000Y-66515170D01*
X186834637Y-66282652D01*
X186634759Y-66082774D01*
X186399727Y-65925731D01*
X186138574Y-65817558D01*
X185861335Y-65762411D01*
X185578665Y-65762411D01*
X185301426Y-65817558D01*
X185040273Y-65925731D01*
X184805241Y-66082774D01*
X184605363Y-66282652D01*
X184450000Y-66515170D01*
X184294637Y-66282652D01*
X184094759Y-66082774D01*
X183859727Y-65925731D01*
X183598574Y-65817558D01*
X183321335Y-65762411D01*
X183038665Y-65762411D01*
X182761426Y-65817558D01*
X182500273Y-65925731D01*
X182265241Y-66082774D01*
X182065363Y-66282652D01*
X181910000Y-66515170D01*
X181754637Y-66282652D01*
X181554759Y-66082774D01*
X181319727Y-65925731D01*
X181058574Y-65817558D01*
X180781335Y-65762411D01*
X180498665Y-65762411D01*
X180221426Y-65817558D01*
X179960273Y-65925731D01*
X179725241Y-66082774D01*
X179526643Y-66281372D01*
X179525812Y-66272929D01*
X179489502Y-66153231D01*
X179430537Y-66042917D01*
X179351185Y-65946226D01*
X179254494Y-65866874D01*
X179144180Y-65807909D01*
X179024482Y-65771599D01*
X178900000Y-65759339D01*
X178385750Y-65762411D01*
X178227000Y-65921161D01*
X178227000Y-67070411D01*
X178247000Y-67070411D01*
X178247000Y-67324411D01*
X178227000Y-67324411D01*
X178227000Y-67344411D01*
X177973000Y-67344411D01*
X177973000Y-67324411D01*
X176823750Y-67324411D01*
X176665000Y-67483161D01*
X176661928Y-67997411D01*
X176674188Y-68121893D01*
X176706982Y-68230000D01*
X167491547Y-68230000D01*
X167582473Y-68093919D01*
X167701011Y-67807742D01*
X167761441Y-67503939D01*
X167761441Y-67194183D01*
X167712859Y-66949944D01*
X168265392Y-66397411D01*
X176661928Y-66397411D01*
X176665000Y-66911661D01*
X176823750Y-67070411D01*
X177973000Y-67070411D01*
X177973000Y-65921161D01*
X177814250Y-65762411D01*
X177300000Y-65759339D01*
X177175518Y-65771599D01*
X177055820Y-65807909D01*
X176945506Y-65866874D01*
X176848815Y-65946226D01*
X176769463Y-66042917D01*
X176710498Y-66153231D01*
X176674188Y-66272929D01*
X176661928Y-66397411D01*
X168265392Y-66397411D01*
X170252804Y-64410000D01*
X181162678Y-64410000D01*
X181200000Y-64413676D01*
X181237322Y-64410000D01*
X181237333Y-64410000D01*
X181348986Y-64399003D01*
X181492247Y-64355546D01*
X181624276Y-64284974D01*
X181740001Y-64190001D01*
X181763804Y-64160997D01*
X190179394Y-55745408D01*
X190248193Y-55782182D01*
X190518692Y-55864236D01*
X190800000Y-55891943D01*
X191081309Y-55864236D01*
X191351808Y-55782182D01*
X191601101Y-55648932D01*
X191819608Y-55469608D01*
X191998932Y-55251101D01*
X192070000Y-55118142D01*
X192141068Y-55251101D01*
X192320393Y-55469608D01*
X192538900Y-55648932D01*
X192788193Y-55782182D01*
X193058692Y-55864236D01*
X193340000Y-55891943D01*
X193621309Y-55864236D01*
X193891808Y-55782182D01*
X194141101Y-55648932D01*
X194359608Y-55469608D01*
X194538932Y-55251101D01*
X194610000Y-55118142D01*
X194681068Y-55251101D01*
X194860393Y-55469608D01*
X195078900Y-55648932D01*
X195328193Y-55782182D01*
X195598692Y-55864236D01*
X195880000Y-55891943D01*
X196161309Y-55864236D01*
X196431808Y-55782182D01*
X196681101Y-55648932D01*
X196899608Y-55469608D01*
X197078932Y-55251101D01*
X197150000Y-55118142D01*
X197221068Y-55251101D01*
X197400393Y-55469608D01*
X197618900Y-55648932D01*
X197868193Y-55782182D01*
X198138692Y-55864236D01*
X198420000Y-55891943D01*
X198701309Y-55864236D01*
X198971808Y-55782182D01*
X199221101Y-55648932D01*
X199439608Y-55469608D01*
X199618932Y-55251101D01*
X199690000Y-55118142D01*
X199761068Y-55251101D01*
X199940393Y-55469608D01*
X200158900Y-55648932D01*
X200408193Y-55782182D01*
X200678692Y-55864236D01*
X200960000Y-55891943D01*
X201241309Y-55864236D01*
X201511808Y-55782182D01*
X201761101Y-55648932D01*
X201979608Y-55469608D01*
X202158932Y-55251101D01*
X202230000Y-55118142D01*
X202301068Y-55251101D01*
X202480393Y-55469608D01*
X202698900Y-55648932D01*
X202948193Y-55782182D01*
X203218692Y-55864236D01*
X203500000Y-55891943D01*
X203781309Y-55864236D01*
X204051808Y-55782182D01*
X204301101Y-55648932D01*
X204519608Y-55469608D01*
X204698932Y-55251101D01*
X204770000Y-55118142D01*
X204841068Y-55251101D01*
X205020393Y-55469608D01*
X205238900Y-55648932D01*
X205488193Y-55782182D01*
X205758692Y-55864236D01*
X206040000Y-55891943D01*
X206321309Y-55864236D01*
X206591808Y-55782182D01*
X206841101Y-55648932D01*
X207059608Y-55469608D01*
X207238932Y-55251101D01*
X207310000Y-55118142D01*
X207381068Y-55251101D01*
X207560393Y-55469608D01*
X207778900Y-55648932D01*
X208028193Y-55782182D01*
X208298692Y-55864236D01*
X208580000Y-55891943D01*
X208861309Y-55864236D01*
X209131808Y-55782182D01*
X209381101Y-55648932D01*
X209599608Y-55469608D01*
X209778932Y-55251101D01*
X209912182Y-55001808D01*
X209994236Y-54731309D01*
X210015000Y-54520491D01*
X210015000Y-53579508D01*
X209994236Y-53368691D01*
X209912182Y-53098192D01*
X209778932Y-52848899D01*
X209599607Y-52630392D01*
X209381100Y-52451068D01*
X209131807Y-52317818D01*
X208861308Y-52235764D01*
X208580000Y-52208057D01*
X208298691Y-52235764D01*
X208028192Y-52317818D01*
X207778899Y-52451068D01*
X207560392Y-52630393D01*
X207381068Y-52848900D01*
X207310000Y-52981858D01*
X207238932Y-52848899D01*
X207059607Y-52630392D01*
X206841100Y-52451068D01*
X206591807Y-52317818D01*
X206321308Y-52235764D01*
X206040000Y-52208057D01*
X205758691Y-52235764D01*
X205488192Y-52317818D01*
X205238899Y-52451068D01*
X205020392Y-52630393D01*
X204841068Y-52848900D01*
X204770000Y-52981858D01*
X204698932Y-52848899D01*
X204519607Y-52630392D01*
X204301100Y-52451068D01*
X204051807Y-52317818D01*
X203781308Y-52235764D01*
X203500000Y-52208057D01*
X203218691Y-52235764D01*
X202948192Y-52317818D01*
X202698899Y-52451068D01*
X202480392Y-52630393D01*
X202301068Y-52848900D01*
X202230000Y-52981858D01*
X202158932Y-52848899D01*
X201979607Y-52630392D01*
X201761100Y-52451068D01*
X201511807Y-52317818D01*
X201241308Y-52235764D01*
X200960000Y-52208057D01*
X200678691Y-52235764D01*
X200408192Y-52317818D01*
X200158899Y-52451068D01*
X199940392Y-52630393D01*
X199761068Y-52848900D01*
X199690000Y-52981858D01*
X199618932Y-52848899D01*
X199439607Y-52630392D01*
X199221100Y-52451068D01*
X198971807Y-52317818D01*
X198701308Y-52235764D01*
X198420000Y-52208057D01*
X198138691Y-52235764D01*
X197868192Y-52317818D01*
X197618899Y-52451068D01*
X197400392Y-52630393D01*
X197221068Y-52848900D01*
X197150000Y-52981858D01*
X197078932Y-52848899D01*
X196899607Y-52630392D01*
X196681100Y-52451068D01*
X196431807Y-52317818D01*
X196161308Y-52235764D01*
X195880000Y-52208057D01*
X195598691Y-52235764D01*
X195328192Y-52317818D01*
X195259393Y-52354592D01*
X192406804Y-49502003D01*
X192383001Y-49472999D01*
X192267276Y-49378026D01*
X192135247Y-49307454D01*
X191991986Y-49263997D01*
X191880333Y-49253000D01*
X191880322Y-49253000D01*
X191843000Y-49249324D01*
X191805678Y-49253000D01*
X182421819Y-49253000D01*
X182596088Y-49192795D01*
X182770044Y-49099814D01*
X182865808Y-48835413D01*
X181910000Y-47879605D01*
X180954192Y-48835413D01*
X181049956Y-49099814D01*
X181339571Y-49240704D01*
X181386469Y-49253000D01*
X173895709Y-49253000D01*
X173864688Y-49221980D01*
X173913270Y-48977742D01*
X173913270Y-48667986D01*
X173852840Y-48364183D01*
X173734302Y-48078006D01*
X173562211Y-47820453D01*
X173504353Y-47762595D01*
X180268282Y-47762595D01*
X180312039Y-48081675D01*
X180417205Y-48386088D01*
X180510186Y-48560044D01*
X180774587Y-48655808D01*
X181730395Y-47700000D01*
X182089605Y-47700000D01*
X183045413Y-48655808D01*
X183309814Y-48560044D01*
X183450704Y-48270429D01*
X183532384Y-47958892D01*
X183551718Y-47637405D01*
X183507961Y-47318325D01*
X183402795Y-47013912D01*
X183309814Y-46839956D01*
X183045413Y-46744192D01*
X182089605Y-47700000D01*
X181730395Y-47700000D01*
X180774587Y-46744192D01*
X180510186Y-46839956D01*
X180369296Y-47129571D01*
X180287616Y-47441108D01*
X180268282Y-47762595D01*
X173504353Y-47762595D01*
X173343181Y-47601423D01*
X173085628Y-47429332D01*
X172799451Y-47310794D01*
X172495648Y-47250364D01*
X172185892Y-47250364D01*
X171882089Y-47310794D01*
X171595912Y-47429332D01*
X171338359Y-47601423D01*
X171119329Y-47820453D01*
X170947238Y-48078006D01*
X170828700Y-48364183D01*
X170768270Y-48667986D01*
X170768270Y-48977742D01*
X170828700Y-49281545D01*
X170947238Y-49567722D01*
X171119329Y-49825275D01*
X171182054Y-49888000D01*
X169227408Y-49888000D01*
X167712859Y-48373452D01*
X167761441Y-48129213D01*
X167761441Y-47819457D01*
X167701011Y-47515654D01*
X167582473Y-47229477D01*
X167410382Y-46971924D01*
X167191352Y-46752894D01*
X166933799Y-46580803D01*
X166894650Y-46564587D01*
X180954192Y-46564587D01*
X181910000Y-47520395D01*
X182865808Y-46564587D01*
X182770044Y-46300186D01*
X182480429Y-46159296D01*
X182168892Y-46077616D01*
X181847405Y-46058282D01*
X181528325Y-46102039D01*
X181223912Y-46207205D01*
X181049956Y-46300186D01*
X180954192Y-46564587D01*
X166894650Y-46564587D01*
X166647622Y-46462265D01*
X166343819Y-46401835D01*
X166034063Y-46401835D01*
X165730260Y-46462265D01*
X165444083Y-46580803D01*
X165186530Y-46752894D01*
X164967500Y-46971924D01*
X164795409Y-47229477D01*
X164676871Y-47515654D01*
X164616441Y-47819457D01*
X164616441Y-48129213D01*
X164676871Y-48433016D01*
X164795409Y-48719193D01*
X164967500Y-48976746D01*
X165186530Y-49195776D01*
X165444083Y-49367867D01*
X165730260Y-49486405D01*
X166034063Y-49546835D01*
X166343819Y-49546835D01*
X166647622Y-49486405D01*
X166667837Y-49478032D01*
X168348806Y-51159002D01*
X168372605Y-51188001D01*
X168488330Y-51282974D01*
X168620359Y-51353546D01*
X168763620Y-51397003D01*
X168875273Y-51408000D01*
X168875282Y-51408000D01*
X168912605Y-51411676D01*
X168949928Y-51408000D01*
X174620109Y-51408000D01*
X174482772Y-51613540D01*
X174364234Y-51899717D01*
X174303804Y-52203520D01*
X174303804Y-52513276D01*
X174364234Y-52817079D01*
X174482772Y-53103256D01*
X174654863Y-53360809D01*
X174873893Y-53579839D01*
X175131446Y-53751930D01*
X175417623Y-53870468D01*
X175721426Y-53930898D01*
X176031182Y-53930898D01*
X176334985Y-53870468D01*
X176621162Y-53751930D01*
X176878715Y-53579839D01*
X177097745Y-53360809D01*
X177269836Y-53103256D01*
X177388374Y-52817079D01*
X177448804Y-52513276D01*
X177448804Y-52203520D01*
X177388374Y-51899717D01*
X177269836Y-51613540D01*
X177132499Y-51408000D01*
X180900693Y-51408000D01*
X180867748Y-51430013D01*
X180640013Y-51657748D01*
X180461082Y-51925537D01*
X180337832Y-52223088D01*
X180275000Y-52538967D01*
X180275000Y-52861033D01*
X180337832Y-53176912D01*
X180461082Y-53474463D01*
X180640013Y-53742252D01*
X180867748Y-53969987D01*
X181135537Y-54148918D01*
X181433088Y-54272168D01*
X181748967Y-54335000D01*
X182071033Y-54335000D01*
X182386912Y-54272168D01*
X182684463Y-54148918D01*
X182952252Y-53969987D01*
X183179987Y-53742252D01*
X183358918Y-53474463D01*
X183482168Y-53176912D01*
X183545000Y-52861033D01*
X183545000Y-52538967D01*
X183482168Y-52223088D01*
X183358918Y-51925537D01*
X183179987Y-51657748D01*
X182952252Y-51430013D01*
X182919307Y-51408000D01*
X184543199Y-51408000D01*
X185347127Y-52211928D01*
X184920000Y-52211928D01*
X184795518Y-52224188D01*
X184675820Y-52260498D01*
X184565506Y-52319463D01*
X184468815Y-52398815D01*
X184389463Y-52495506D01*
X184330498Y-52605820D01*
X184294188Y-52725518D01*
X184281928Y-52850000D01*
X184281928Y-55250000D01*
X184294188Y-55374482D01*
X184330498Y-55494180D01*
X184389463Y-55604494D01*
X184468815Y-55701185D01*
X184565506Y-55780537D01*
X184675820Y-55839502D01*
X184795518Y-55875812D01*
X184920000Y-55888072D01*
X186520000Y-55888072D01*
X186644482Y-55875812D01*
X186764180Y-55839502D01*
X186874494Y-55780537D01*
X186971185Y-55701185D01*
X187050537Y-55604494D01*
X187109502Y-55494180D01*
X187145812Y-55374482D01*
X187147581Y-55356517D01*
X187240393Y-55469608D01*
X187458900Y-55648932D01*
X187708193Y-55782182D01*
X187926726Y-55848472D01*
X180885199Y-62890000D01*
X169975324Y-62890000D01*
X169938001Y-62886324D01*
X169900678Y-62890000D01*
X169900669Y-62890000D01*
X169789016Y-62900997D01*
X169645755Y-62944454D01*
X169513726Y-63015026D01*
X169398001Y-63109999D01*
X169374203Y-63138997D01*
X166667837Y-65845364D01*
X166647622Y-65836991D01*
X166343819Y-65776561D01*
X166034063Y-65776561D01*
X165730260Y-65836991D01*
X165444083Y-65955529D01*
X165186530Y-66127620D01*
X164967500Y-66346650D01*
X164795409Y-66604203D01*
X164676871Y-66890380D01*
X164616441Y-67194183D01*
X164616441Y-67503939D01*
X164676871Y-67807742D01*
X164795409Y-68093919D01*
X164886335Y-68230000D01*
X163524802Y-68230000D01*
X160970000Y-65675199D01*
X160970000Y-61361783D01*
X161623738Y-61361783D01*
X161623738Y-61669077D01*
X161683688Y-61970465D01*
X161801284Y-62254367D01*
X161972007Y-62509872D01*
X162189296Y-62727161D01*
X162444801Y-62897884D01*
X162728703Y-63015480D01*
X163030091Y-63075430D01*
X163337385Y-63075430D01*
X163638773Y-63015480D01*
X163922675Y-62897884D01*
X164178180Y-62727161D01*
X164395469Y-62509872D01*
X164566192Y-62254367D01*
X164683788Y-61970465D01*
X164743738Y-61669077D01*
X164743738Y-61361783D01*
X164683788Y-61060395D01*
X164676316Y-61042354D01*
X165464970Y-61042354D01*
X165464970Y-61352110D01*
X165525400Y-61655913D01*
X165643938Y-61942090D01*
X165816029Y-62199643D01*
X166035059Y-62418673D01*
X166292612Y-62590764D01*
X166578789Y-62709302D01*
X166882592Y-62769732D01*
X167192348Y-62769732D01*
X167496151Y-62709302D01*
X167782328Y-62590764D01*
X168039881Y-62418673D01*
X168258911Y-62199643D01*
X168431002Y-61942090D01*
X168549540Y-61655913D01*
X168609970Y-61352110D01*
X168609970Y-61042354D01*
X168549540Y-60738551D01*
X168431002Y-60452374D01*
X168258911Y-60194821D01*
X168039881Y-59975791D01*
X167782328Y-59803700D01*
X167496151Y-59685162D01*
X167192348Y-59624732D01*
X166882592Y-59624732D01*
X166578789Y-59685162D01*
X166292612Y-59803700D01*
X166035059Y-59975791D01*
X165816029Y-60194821D01*
X165643938Y-60452374D01*
X165525400Y-60738551D01*
X165464970Y-61042354D01*
X164676316Y-61042354D01*
X164566192Y-60776493D01*
X164395469Y-60520988D01*
X164178180Y-60303699D01*
X163922675Y-60132976D01*
X163638773Y-60015380D01*
X163337385Y-59955430D01*
X163030091Y-59955430D01*
X162728703Y-60015380D01*
X162444801Y-60132976D01*
X162189296Y-60303699D01*
X161972007Y-60520988D01*
X161801284Y-60776493D01*
X161683688Y-61060395D01*
X161623738Y-61361783D01*
X160970000Y-61361783D01*
X160970000Y-57661698D01*
X161538039Y-57661698D01*
X161550299Y-57786180D01*
X161586609Y-57905878D01*
X161645574Y-58016192D01*
X161724926Y-58112883D01*
X163050751Y-59438708D01*
X163147442Y-59518060D01*
X163257756Y-59577025D01*
X163377454Y-59613335D01*
X163501936Y-59625595D01*
X163626418Y-59613335D01*
X163746116Y-59577025D01*
X163856430Y-59518060D01*
X163953121Y-59438708D01*
X165278946Y-58112883D01*
X165340087Y-58038382D01*
X171311101Y-58038382D01*
X171311101Y-58345676D01*
X171371051Y-58647064D01*
X171488647Y-58930966D01*
X171659370Y-59186471D01*
X171876659Y-59403760D01*
X172132164Y-59574483D01*
X172416066Y-59692079D01*
X172717454Y-59752029D01*
X173024748Y-59752029D01*
X173326136Y-59692079D01*
X173610038Y-59574483D01*
X173865543Y-59403760D01*
X174082832Y-59186471D01*
X174253555Y-58930966D01*
X174371151Y-58647064D01*
X174431101Y-58345676D01*
X174431101Y-58038382D01*
X174371151Y-57736994D01*
X174253555Y-57453092D01*
X174082832Y-57197587D01*
X173865543Y-56980298D01*
X173610038Y-56809575D01*
X173326136Y-56691979D01*
X173024748Y-56632029D01*
X172717454Y-56632029D01*
X172416066Y-56691979D01*
X172132164Y-56809575D01*
X171876659Y-56980298D01*
X171659370Y-57197587D01*
X171488647Y-57453092D01*
X171371051Y-57736994D01*
X171311101Y-58038382D01*
X165340087Y-58038382D01*
X165358298Y-58016192D01*
X165417263Y-57905878D01*
X165453573Y-57786180D01*
X165465833Y-57661698D01*
X165453573Y-57537216D01*
X165417263Y-57417518D01*
X165358298Y-57307204D01*
X165278946Y-57210513D01*
X163953121Y-55884688D01*
X163856430Y-55805336D01*
X163746116Y-55746371D01*
X163626418Y-55710061D01*
X163501936Y-55697801D01*
X163377454Y-55710061D01*
X163257756Y-55746371D01*
X163147442Y-55805336D01*
X163050751Y-55884688D01*
X161724926Y-57210513D01*
X161645574Y-57307204D01*
X161586609Y-57417518D01*
X161550299Y-57537216D01*
X161538039Y-57661698D01*
X160970000Y-57661698D01*
X160970000Y-51354991D01*
X161080907Y-51354991D01*
X161080907Y-51664747D01*
X161141337Y-51968550D01*
X161259875Y-52254727D01*
X161431966Y-52512280D01*
X161650996Y-52731310D01*
X161908549Y-52903401D01*
X162194726Y-53021939D01*
X162498529Y-53082369D01*
X162808285Y-53082369D01*
X163112088Y-53021939D01*
X163398265Y-52903401D01*
X163655818Y-52731310D01*
X163874848Y-52512280D01*
X164046939Y-52254727D01*
X164165477Y-51968550D01*
X164223982Y-51674420D01*
X164947139Y-51674420D01*
X164947139Y-51981714D01*
X165007089Y-52283102D01*
X165124685Y-52567004D01*
X165295408Y-52822509D01*
X165512697Y-53039798D01*
X165768202Y-53210521D01*
X166052104Y-53328117D01*
X166353492Y-53388067D01*
X166660786Y-53388067D01*
X166962174Y-53328117D01*
X167246076Y-53210521D01*
X167501581Y-53039798D01*
X167718870Y-52822509D01*
X167889593Y-52567004D01*
X168007189Y-52283102D01*
X168067139Y-51981714D01*
X168067139Y-51674420D01*
X168007189Y-51373032D01*
X167889593Y-51089130D01*
X167718870Y-50833625D01*
X167501581Y-50616336D01*
X167246076Y-50445613D01*
X166962174Y-50328017D01*
X166660786Y-50268067D01*
X166353492Y-50268067D01*
X166052104Y-50328017D01*
X165768202Y-50445613D01*
X165512697Y-50616336D01*
X165295408Y-50833625D01*
X165124685Y-51089130D01*
X165007089Y-51373032D01*
X164947139Y-51674420D01*
X164223982Y-51674420D01*
X164225907Y-51664747D01*
X164225907Y-51354991D01*
X164165477Y-51051188D01*
X164046939Y-50765011D01*
X163874848Y-50507458D01*
X163655818Y-50288428D01*
X163398265Y-50116337D01*
X163112088Y-49997799D01*
X162808285Y-49937369D01*
X162498529Y-49937369D01*
X162194726Y-49997799D01*
X161908549Y-50116337D01*
X161650996Y-50288428D01*
X161431966Y-50507458D01*
X161259875Y-50765011D01*
X161141337Y-51051188D01*
X161080907Y-51354991D01*
X160970000Y-51354991D01*
X160970000Y-45959509D01*
X184285000Y-45959509D01*
X184285000Y-46900492D01*
X184305764Y-47111309D01*
X184387818Y-47381808D01*
X184521068Y-47631101D01*
X184700393Y-47849608D01*
X184918900Y-48028932D01*
X185168193Y-48162182D01*
X185438692Y-48244236D01*
X185720000Y-48271943D01*
X186001309Y-48244236D01*
X186271808Y-48162182D01*
X186521101Y-48028932D01*
X186739608Y-47849608D01*
X186918932Y-47631101D01*
X186990000Y-47498142D01*
X187061068Y-47631101D01*
X187240393Y-47849608D01*
X187458900Y-48028932D01*
X187708193Y-48162182D01*
X187978692Y-48244236D01*
X188260000Y-48271943D01*
X188541309Y-48244236D01*
X188811808Y-48162182D01*
X189061101Y-48028932D01*
X189279608Y-47849608D01*
X189458932Y-47631101D01*
X189530000Y-47498142D01*
X189601068Y-47631101D01*
X189780393Y-47849608D01*
X189998900Y-48028932D01*
X190248193Y-48162182D01*
X190518692Y-48244236D01*
X190800000Y-48271943D01*
X191081309Y-48244236D01*
X191351808Y-48162182D01*
X191601101Y-48028932D01*
X191819608Y-47849608D01*
X191998932Y-47631101D01*
X192070000Y-47498142D01*
X192141068Y-47631101D01*
X192320393Y-47849608D01*
X192538900Y-48028932D01*
X192788193Y-48162182D01*
X193058692Y-48244236D01*
X193340000Y-48271943D01*
X193621309Y-48244236D01*
X193891808Y-48162182D01*
X194141101Y-48028932D01*
X194359608Y-47849608D01*
X194538932Y-47631101D01*
X194610000Y-47498142D01*
X194681068Y-47631101D01*
X194860393Y-47849608D01*
X195078900Y-48028932D01*
X195328193Y-48162182D01*
X195598692Y-48244236D01*
X195880000Y-48271943D01*
X196161309Y-48244236D01*
X196431808Y-48162182D01*
X196681101Y-48028932D01*
X196899608Y-47849608D01*
X197078932Y-47631101D01*
X197150000Y-47498142D01*
X197221068Y-47631101D01*
X197400393Y-47849608D01*
X197618900Y-48028932D01*
X197868193Y-48162182D01*
X198138692Y-48244236D01*
X198420000Y-48271943D01*
X198701309Y-48244236D01*
X198971808Y-48162182D01*
X199221101Y-48028932D01*
X199439608Y-47849608D01*
X199618932Y-47631101D01*
X199690000Y-47498142D01*
X199761068Y-47631101D01*
X199940393Y-47849608D01*
X200158900Y-48028932D01*
X200408193Y-48162182D01*
X200678692Y-48244236D01*
X200960000Y-48271943D01*
X201241309Y-48244236D01*
X201511808Y-48162182D01*
X201761101Y-48028932D01*
X201979608Y-47849608D01*
X202158932Y-47631101D01*
X202230000Y-47498142D01*
X202301068Y-47631101D01*
X202480393Y-47849608D01*
X202698900Y-48028932D01*
X202948193Y-48162182D01*
X203218692Y-48244236D01*
X203500000Y-48271943D01*
X203781309Y-48244236D01*
X204051808Y-48162182D01*
X204301101Y-48028932D01*
X204519608Y-47849608D01*
X204698932Y-47631101D01*
X204770000Y-47498142D01*
X204841068Y-47631101D01*
X205020393Y-47849608D01*
X205238900Y-48028932D01*
X205488193Y-48162182D01*
X205758692Y-48244236D01*
X206040000Y-48271943D01*
X206321309Y-48244236D01*
X206591808Y-48162182D01*
X206841101Y-48028932D01*
X207059608Y-47849608D01*
X207238932Y-47631101D01*
X207310000Y-47498142D01*
X207381068Y-47631101D01*
X207560393Y-47849608D01*
X207778900Y-48028932D01*
X208028193Y-48162182D01*
X208298692Y-48244236D01*
X208580000Y-48271943D01*
X208861309Y-48244236D01*
X209131808Y-48162182D01*
X209381101Y-48028932D01*
X209599608Y-47849608D01*
X209778932Y-47631101D01*
X209912182Y-47381808D01*
X209994236Y-47111309D01*
X210015000Y-46900491D01*
X210015000Y-45959508D01*
X209994236Y-45748691D01*
X209912182Y-45478192D01*
X209778932Y-45228899D01*
X209599607Y-45010392D01*
X209381100Y-44831068D01*
X209131807Y-44697818D01*
X208861308Y-44615764D01*
X208580000Y-44588057D01*
X208298691Y-44615764D01*
X208028192Y-44697818D01*
X207778899Y-44831068D01*
X207560392Y-45010393D01*
X207381068Y-45228900D01*
X207310000Y-45361858D01*
X207238932Y-45228899D01*
X207059607Y-45010392D01*
X206841100Y-44831068D01*
X206591807Y-44697818D01*
X206321308Y-44615764D01*
X206040000Y-44588057D01*
X205758691Y-44615764D01*
X205488192Y-44697818D01*
X205238899Y-44831068D01*
X205020392Y-45010393D01*
X204841068Y-45228900D01*
X204770000Y-45361858D01*
X204698932Y-45228899D01*
X204519607Y-45010392D01*
X204301100Y-44831068D01*
X204260000Y-44809100D01*
X204260000Y-43798178D01*
X204446632Y-43673475D01*
X204653475Y-43466632D01*
X204775195Y-43284466D01*
X204844822Y-43401355D01*
X205039731Y-43617588D01*
X205273080Y-43791641D01*
X205535901Y-43916825D01*
X205683110Y-43961476D01*
X205913000Y-43840155D01*
X205913000Y-42647000D01*
X205893000Y-42647000D01*
X205893000Y-42393000D01*
X205913000Y-42393000D01*
X205913000Y-41199845D01*
X206167000Y-41199845D01*
X206167000Y-42393000D01*
X206187000Y-42393000D01*
X206187000Y-42647000D01*
X206167000Y-42647000D01*
X206167000Y-43840155D01*
X206396890Y-43961476D01*
X206544099Y-43916825D01*
X206806920Y-43791641D01*
X207040269Y-43617588D01*
X207235178Y-43401355D01*
X207304805Y-43284466D01*
X207426525Y-43466632D01*
X207633368Y-43673475D01*
X207876589Y-43835990D01*
X208146842Y-43947932D01*
X208433740Y-44005000D01*
X208726260Y-44005000D01*
X209013158Y-43947932D01*
X209283411Y-43835990D01*
X209526632Y-43673475D01*
X209733475Y-43466632D01*
X209850000Y-43292240D01*
X209966525Y-43466632D01*
X210173368Y-43673475D01*
X210416589Y-43835990D01*
X210686842Y-43947932D01*
X210973740Y-44005000D01*
X211266260Y-44005000D01*
X211553158Y-43947932D01*
X211823411Y-43835990D01*
X212066632Y-43673475D01*
X212273475Y-43466632D01*
X212398178Y-43280000D01*
X213602785Y-43280000D01*
X213640107Y-43283676D01*
X213677429Y-43280000D01*
X213677440Y-43280000D01*
X213789093Y-43269003D01*
X213932354Y-43225546D01*
X214064383Y-43154974D01*
X214180108Y-43060001D01*
X214203911Y-43030997D01*
X214856243Y-42378665D01*
X215915107Y-42378665D01*
X215915107Y-42661335D01*
X215970254Y-42938574D01*
X216078427Y-43199727D01*
X216235470Y-43434759D01*
X216435348Y-43634637D01*
X216590107Y-43738044D01*
X216590108Y-45042913D01*
X216475625Y-45054188D01*
X216355927Y-45090498D01*
X216245613Y-45149463D01*
X216148922Y-45228815D01*
X216069570Y-45325506D01*
X216010605Y-45435820D01*
X215974295Y-45555518D01*
X215962035Y-45680000D01*
X215962035Y-47180000D01*
X215974295Y-47304482D01*
X216010605Y-47424180D01*
X216069570Y-47534494D01*
X216148922Y-47631185D01*
X216245613Y-47710537D01*
X216355927Y-47769502D01*
X216475625Y-47805812D01*
X216583590Y-47816445D01*
X216467221Y-47894201D01*
X216274308Y-48087114D01*
X216122736Y-48313957D01*
X216018332Y-48566011D01*
X215965107Y-48833589D01*
X215965107Y-49106411D01*
X216018332Y-49373989D01*
X216122736Y-49626043D01*
X216274308Y-49852886D01*
X216467221Y-50045799D01*
X216694064Y-50197371D01*
X216796980Y-50240000D01*
X216694064Y-50282629D01*
X216467221Y-50434201D01*
X216274308Y-50627114D01*
X216122736Y-50853957D01*
X216018332Y-51106011D01*
X215965107Y-51373589D01*
X215965107Y-51646411D01*
X216018332Y-51913989D01*
X216122736Y-52166043D01*
X216274308Y-52392886D01*
X216467221Y-52585799D01*
X216694064Y-52737371D01*
X216946118Y-52841775D01*
X217213696Y-52895000D01*
X217486518Y-52895000D01*
X217754096Y-52841775D01*
X218006150Y-52737371D01*
X218232993Y-52585799D01*
X218425906Y-52392886D01*
X218577478Y-52166043D01*
X218681882Y-51913989D01*
X218729535Y-51674420D01*
X224947139Y-51674420D01*
X224947139Y-51981714D01*
X225007089Y-52283102D01*
X225124685Y-52567004D01*
X225295408Y-52822509D01*
X225512697Y-53039798D01*
X225768202Y-53210521D01*
X226052104Y-53328117D01*
X226353492Y-53388067D01*
X226660786Y-53388067D01*
X226962174Y-53328117D01*
X227246076Y-53210521D01*
X227501581Y-53039798D01*
X227718870Y-52822509D01*
X227889593Y-52567004D01*
X228007189Y-52283102D01*
X228023018Y-52203520D01*
X234303804Y-52203520D01*
X234303804Y-52513276D01*
X234364234Y-52817079D01*
X234482772Y-53103256D01*
X234654863Y-53360809D01*
X234873893Y-53579839D01*
X235131446Y-53751930D01*
X235417623Y-53870468D01*
X235721426Y-53930898D01*
X236031182Y-53930898D01*
X236334985Y-53870468D01*
X236621162Y-53751930D01*
X236878715Y-53579839D01*
X237097745Y-53360809D01*
X237269836Y-53103256D01*
X237388374Y-52817079D01*
X237448804Y-52513276D01*
X237448804Y-52203520D01*
X237388374Y-51899717D01*
X237269836Y-51613540D01*
X237097745Y-51355987D01*
X236878715Y-51136957D01*
X236621162Y-50964866D01*
X236334985Y-50846328D01*
X236031182Y-50785898D01*
X235721426Y-50785898D01*
X235417623Y-50846328D01*
X235131446Y-50964866D01*
X234873893Y-51136957D01*
X234654863Y-51355987D01*
X234482772Y-51613540D01*
X234364234Y-51899717D01*
X234303804Y-52203520D01*
X228023018Y-52203520D01*
X228067139Y-51981714D01*
X228067139Y-51674420D01*
X228007189Y-51373032D01*
X227889593Y-51089130D01*
X227718870Y-50833625D01*
X227501581Y-50616336D01*
X227246076Y-50445613D01*
X226962174Y-50328017D01*
X226660786Y-50268067D01*
X226353492Y-50268067D01*
X226052104Y-50328017D01*
X225768202Y-50445613D01*
X225512697Y-50616336D01*
X225295408Y-50833625D01*
X225124685Y-51089130D01*
X225007089Y-51373032D01*
X224947139Y-51674420D01*
X218729535Y-51674420D01*
X218735107Y-51646411D01*
X218735107Y-51373589D01*
X218681882Y-51106011D01*
X218577478Y-50853957D01*
X218425906Y-50627114D01*
X218232993Y-50434201D01*
X218006150Y-50282629D01*
X217903234Y-50240000D01*
X218006150Y-50197371D01*
X218232993Y-50045799D01*
X218425906Y-49852886D01*
X218577478Y-49626043D01*
X218681882Y-49373989D01*
X218735107Y-49106411D01*
X218735107Y-48833589D01*
X218702167Y-48667986D01*
X230768270Y-48667986D01*
X230768270Y-48977742D01*
X230828700Y-49281545D01*
X230947238Y-49567722D01*
X231119329Y-49825275D01*
X231338359Y-50044305D01*
X231595912Y-50216396D01*
X231882089Y-50334934D01*
X232185892Y-50395364D01*
X232495648Y-50395364D01*
X232799451Y-50334934D01*
X233085628Y-50216396D01*
X233343181Y-50044305D01*
X233562211Y-49825275D01*
X233734302Y-49567722D01*
X233852840Y-49281545D01*
X233913270Y-48977742D01*
X233913270Y-48667986D01*
X233852840Y-48364183D01*
X233734302Y-48078006D01*
X233562211Y-47820453D01*
X233343181Y-47601423D01*
X233085628Y-47429332D01*
X232799451Y-47310794D01*
X232495648Y-47250364D01*
X232185892Y-47250364D01*
X231882089Y-47310794D01*
X231595912Y-47429332D01*
X231338359Y-47601423D01*
X231119329Y-47820453D01*
X230947238Y-48078006D01*
X230828700Y-48364183D01*
X230768270Y-48667986D01*
X218702167Y-48667986D01*
X218681882Y-48566011D01*
X218577478Y-48313957D01*
X218425906Y-48087114D01*
X218232993Y-47894201D01*
X218116624Y-47816445D01*
X218224589Y-47805812D01*
X218344287Y-47769502D01*
X218454601Y-47710537D01*
X218551292Y-47631185D01*
X218630644Y-47534494D01*
X218689609Y-47424180D01*
X218725919Y-47304482D01*
X218738179Y-47180000D01*
X218738179Y-45680000D01*
X218725919Y-45555518D01*
X218689609Y-45435820D01*
X218630644Y-45325506D01*
X218551292Y-45228815D01*
X218454601Y-45149463D01*
X218344287Y-45090498D01*
X218224589Y-45054188D01*
X218110107Y-45042913D01*
X218110107Y-43738043D01*
X218264866Y-43634637D01*
X218386801Y-43512702D01*
X224157010Y-43512702D01*
X224228593Y-43756671D01*
X224484103Y-43877571D01*
X224758291Y-43946300D01*
X225040619Y-43960217D01*
X225320237Y-43918787D01*
X225586399Y-43823603D01*
X225711621Y-43756671D01*
X225783204Y-43512702D01*
X224970107Y-42699605D01*
X224157010Y-43512702D01*
X218386801Y-43512702D01*
X218464744Y-43434759D01*
X218621787Y-43199727D01*
X218729960Y-42938574D01*
X218785107Y-42661335D01*
X218785107Y-42590512D01*
X223529890Y-42590512D01*
X223571320Y-42870130D01*
X223666504Y-43136292D01*
X223733436Y-43261514D01*
X223977405Y-43333097D01*
X224790502Y-42520000D01*
X225149712Y-42520000D01*
X225962809Y-43333097D01*
X226206778Y-43261514D01*
X226327678Y-43006004D01*
X226396407Y-42731816D01*
X226410324Y-42449488D01*
X226368894Y-42169870D01*
X226273710Y-41903708D01*
X226206778Y-41778486D01*
X225962809Y-41706903D01*
X225149712Y-42520000D01*
X224790502Y-42520000D01*
X223977405Y-41706903D01*
X223733436Y-41778486D01*
X223612536Y-42033996D01*
X223543807Y-42308184D01*
X223529890Y-42590512D01*
X218785107Y-42590512D01*
X218785107Y-42378665D01*
X218729960Y-42101426D01*
X218621787Y-41840273D01*
X218464744Y-41605241D01*
X218386801Y-41527298D01*
X224157010Y-41527298D01*
X224970107Y-42340395D01*
X225783204Y-41527298D01*
X225711621Y-41283329D01*
X225456111Y-41162429D01*
X225181923Y-41093700D01*
X224899595Y-41079783D01*
X224619977Y-41121213D01*
X224353815Y-41216397D01*
X224228593Y-41283329D01*
X224157010Y-41527298D01*
X218386801Y-41527298D01*
X218264866Y-41405363D01*
X218029834Y-41248320D01*
X217768681Y-41140147D01*
X217491442Y-41085000D01*
X217208772Y-41085000D01*
X216931533Y-41140147D01*
X216670380Y-41248320D01*
X216435348Y-41405363D01*
X216235470Y-41605241D01*
X216078427Y-41840273D01*
X215970254Y-42101426D01*
X215915107Y-42378665D01*
X214856243Y-42378665D01*
X216612623Y-40622285D01*
X230165000Y-40622285D01*
X230165000Y-41377715D01*
X230312377Y-42118628D01*
X230601467Y-42816554D01*
X231021161Y-43444670D01*
X231555330Y-43978839D01*
X232183446Y-44398533D01*
X232881372Y-44687623D01*
X233622285Y-44835000D01*
X234377715Y-44835000D01*
X235118628Y-44687623D01*
X235816554Y-44398533D01*
X236444670Y-43978839D01*
X236978839Y-43444670D01*
X237398533Y-42816554D01*
X237687623Y-42118628D01*
X237835000Y-41377715D01*
X237835000Y-40622285D01*
X237687623Y-39881372D01*
X237398533Y-39183446D01*
X236978839Y-38555330D01*
X236444670Y-38021161D01*
X235816554Y-37601467D01*
X235118628Y-37312377D01*
X234377715Y-37165000D01*
X233622285Y-37165000D01*
X232881372Y-37312377D01*
X232183446Y-37601467D01*
X231555330Y-38021161D01*
X231021161Y-38555330D01*
X230601467Y-39183446D01*
X230312377Y-39881372D01*
X230165000Y-40622285D01*
X216612623Y-40622285D01*
X217026221Y-40208688D01*
X217208772Y-40245000D01*
X217491442Y-40245000D01*
X217768681Y-40189853D01*
X218029834Y-40081680D01*
X218264866Y-39924637D01*
X218464744Y-39724759D01*
X218621787Y-39489727D01*
X218729960Y-39228574D01*
X218785107Y-38951335D01*
X218785107Y-38668665D01*
X223535107Y-38668665D01*
X223535107Y-38951335D01*
X223590254Y-39228574D01*
X223698427Y-39489727D01*
X223855470Y-39724759D01*
X224055348Y-39924637D01*
X224290380Y-40081680D01*
X224551533Y-40189853D01*
X224828772Y-40245000D01*
X225111442Y-40245000D01*
X225388681Y-40189853D01*
X225649834Y-40081680D01*
X225884866Y-39924637D01*
X226084744Y-39724759D01*
X226241787Y-39489727D01*
X226349960Y-39228574D01*
X226405107Y-38951335D01*
X226405107Y-38668665D01*
X226349960Y-38391426D01*
X226241787Y-38130273D01*
X226084744Y-37895241D01*
X225884866Y-37695363D01*
X225649834Y-37538320D01*
X225388681Y-37430147D01*
X225111442Y-37375000D01*
X224828772Y-37375000D01*
X224551533Y-37430147D01*
X224290380Y-37538320D01*
X224055348Y-37695363D01*
X223855470Y-37895241D01*
X223698427Y-38130273D01*
X223590254Y-38391426D01*
X223535107Y-38668665D01*
X218785107Y-38668665D01*
X218729960Y-38391426D01*
X218621787Y-38130273D01*
X218464744Y-37895241D01*
X218264866Y-37695363D01*
X218029834Y-37538320D01*
X217768681Y-37430147D01*
X217491442Y-37375000D01*
X217208772Y-37375000D01*
X216931533Y-37430147D01*
X216670380Y-37538320D01*
X216435348Y-37695363D01*
X216235470Y-37895241D01*
X216078427Y-38130273D01*
X215970254Y-38391426D01*
X215915107Y-38668665D01*
X215915107Y-38951335D01*
X215951419Y-39133886D01*
X213325306Y-41760000D01*
X212398178Y-41760000D01*
X212273475Y-41573368D01*
X212066632Y-41366525D01*
X211823411Y-41204010D01*
X211553158Y-41092068D01*
X211266260Y-41035000D01*
X210973740Y-41035000D01*
X210686842Y-41092068D01*
X210416589Y-41204010D01*
X210173368Y-41366525D01*
X209966525Y-41573368D01*
X209850000Y-41747760D01*
X209733475Y-41573368D01*
X209526632Y-41366525D01*
X209283411Y-41204010D01*
X209013158Y-41092068D01*
X208726260Y-41035000D01*
X208433740Y-41035000D01*
X208146842Y-41092068D01*
X207876589Y-41204010D01*
X207633368Y-41366525D01*
X207426525Y-41573368D01*
X207304805Y-41755534D01*
X207235178Y-41638645D01*
X207040269Y-41422412D01*
X206806920Y-41248359D01*
X206544099Y-41123175D01*
X206396890Y-41078524D01*
X206167000Y-41199845D01*
X205913000Y-41199845D01*
X205683110Y-41078524D01*
X205535901Y-41123175D01*
X205273080Y-41248359D01*
X205039731Y-41422412D01*
X204844822Y-41638645D01*
X204775195Y-41755534D01*
X204653475Y-41573368D01*
X204446632Y-41366525D01*
X204203411Y-41204010D01*
X203933158Y-41092068D01*
X203646260Y-41035000D01*
X203353740Y-41035000D01*
X203066842Y-41092068D01*
X202796589Y-41204010D01*
X202553368Y-41366525D01*
X202346525Y-41573368D01*
X202230000Y-41747760D01*
X202113475Y-41573368D01*
X201906632Y-41366525D01*
X201663411Y-41204010D01*
X201393158Y-41092068D01*
X201106260Y-41035000D01*
X200813740Y-41035000D01*
X200526842Y-41092068D01*
X200256589Y-41204010D01*
X200013368Y-41366525D01*
X199806525Y-41573368D01*
X199690000Y-41747760D01*
X199573475Y-41573368D01*
X199366632Y-41366525D01*
X199123411Y-41204010D01*
X198853158Y-41092068D01*
X198566260Y-41035000D01*
X198273740Y-41035000D01*
X197986842Y-41092068D01*
X197716589Y-41204010D01*
X197473368Y-41366525D01*
X197266525Y-41573368D01*
X197150000Y-41747760D01*
X197033475Y-41573368D01*
X196826632Y-41366525D01*
X196583411Y-41204010D01*
X196313158Y-41092068D01*
X196026260Y-41035000D01*
X195733740Y-41035000D01*
X195446842Y-41092068D01*
X195176589Y-41204010D01*
X194933368Y-41366525D01*
X194726525Y-41573368D01*
X194610000Y-41747760D01*
X194493475Y-41573368D01*
X194286632Y-41366525D01*
X194043411Y-41204010D01*
X193773158Y-41092068D01*
X193486260Y-41035000D01*
X193193740Y-41035000D01*
X192906842Y-41092068D01*
X192636589Y-41204010D01*
X192393368Y-41366525D01*
X192261513Y-41498380D01*
X192239502Y-41425820D01*
X192180537Y-41315506D01*
X192101185Y-41218815D01*
X192004494Y-41139463D01*
X191894180Y-41080498D01*
X191774482Y-41044188D01*
X191650000Y-41031928D01*
X189950000Y-41031928D01*
X189825518Y-41044188D01*
X189705820Y-41080498D01*
X189595506Y-41139463D01*
X189498815Y-41218815D01*
X189419463Y-41315506D01*
X189360498Y-41425820D01*
X189324188Y-41545518D01*
X189311928Y-41670000D01*
X189311928Y-43370000D01*
X189324188Y-43494482D01*
X189360498Y-43614180D01*
X189419463Y-43724494D01*
X189498815Y-43821185D01*
X189595506Y-43900537D01*
X189705820Y-43959502D01*
X189825518Y-43995812D01*
X189950000Y-44008072D01*
X190040000Y-44008072D01*
X190040001Y-44809099D01*
X189998899Y-44831068D01*
X189780392Y-45010393D01*
X189601068Y-45228900D01*
X189530000Y-45361858D01*
X189458932Y-45228899D01*
X189279607Y-45010392D01*
X189061100Y-44831068D01*
X188811807Y-44697818D01*
X188541308Y-44615764D01*
X188260000Y-44588057D01*
X187978691Y-44615764D01*
X187708192Y-44697818D01*
X187458899Y-44831068D01*
X187240392Y-45010393D01*
X187061068Y-45228900D01*
X186990000Y-45361858D01*
X186918932Y-45228899D01*
X186739607Y-45010392D01*
X186521100Y-44831068D01*
X186271807Y-44697818D01*
X186001308Y-44615764D01*
X185720000Y-44588057D01*
X185438691Y-44615764D01*
X185168192Y-44697818D01*
X184918899Y-44831068D01*
X184700392Y-45010393D01*
X184521068Y-45228900D01*
X184387818Y-45478193D01*
X184305764Y-45748692D01*
X184285000Y-45959509D01*
X160970000Y-45959509D01*
X160970000Y-41987057D01*
X161623738Y-41987057D01*
X161623738Y-42294351D01*
X161683688Y-42595739D01*
X161801284Y-42879641D01*
X161972007Y-43135146D01*
X162189296Y-43352435D01*
X162444801Y-43523158D01*
X162728703Y-43640754D01*
X163030091Y-43700704D01*
X163337385Y-43700704D01*
X163638773Y-43640754D01*
X163922675Y-43523158D01*
X164178180Y-43352435D01*
X164395469Y-43135146D01*
X164566192Y-42879641D01*
X164683788Y-42595739D01*
X164743738Y-42294351D01*
X164743738Y-41987057D01*
X164683788Y-41685669D01*
X164566192Y-41401767D01*
X164395469Y-41146262D01*
X164178180Y-40928973D01*
X163922675Y-40758250D01*
X163638773Y-40640654D01*
X163337385Y-40580704D01*
X163030091Y-40580704D01*
X162728703Y-40640654D01*
X162444801Y-40758250D01*
X162189296Y-40928973D01*
X161972007Y-41146262D01*
X161801284Y-41401767D01*
X161683688Y-41685669D01*
X161623738Y-41987057D01*
X160970000Y-41987057D01*
X160970000Y-41982719D01*
X160973676Y-41945394D01*
X160970000Y-41908069D01*
X160970000Y-41908061D01*
X160959003Y-41796408D01*
X160915546Y-41653147D01*
X160844974Y-41521118D01*
X160750001Y-41405393D01*
X160721003Y-41381595D01*
X159026605Y-39687198D01*
X159127117Y-39586686D01*
X159206469Y-39489995D01*
X159265434Y-39379681D01*
X159301744Y-39259983D01*
X159314004Y-39135501D01*
X159301744Y-39011019D01*
X159265434Y-38891321D01*
X159206469Y-38781007D01*
X159127117Y-38684316D01*
X157801292Y-37358491D01*
X157704601Y-37279139D01*
X157594287Y-37220174D01*
X157474589Y-37183864D01*
X157350107Y-37171604D01*
X157225625Y-37183864D01*
X157105927Y-37220174D01*
X156995613Y-37279139D01*
X156898922Y-37358491D01*
X155573097Y-38684316D01*
X155493745Y-38781007D01*
X155434780Y-38891321D01*
X155398470Y-39011019D01*
X155386210Y-39135501D01*
X155398470Y-39259983D01*
X155434780Y-39379681D01*
X155493745Y-39489995D01*
X155573097Y-39586686D01*
X156898922Y-40912511D01*
X156995613Y-40991863D01*
X157105927Y-41050828D01*
X157225625Y-41087138D01*
X157350107Y-41099398D01*
X157474589Y-41087138D01*
X157594287Y-41050828D01*
X157704601Y-40991863D01*
X157801292Y-40912511D01*
X157951804Y-40761999D01*
X159450001Y-42260197D01*
X159450000Y-65952678D01*
X159446324Y-65990000D01*
X159450000Y-66027322D01*
X159450000Y-66027332D01*
X159460997Y-66138985D01*
X159501628Y-66272929D01*
X159504454Y-66282246D01*
X159575026Y-66414276D01*
X159590996Y-66433735D01*
X159669999Y-66530001D01*
X159699003Y-66553804D01*
X161965198Y-68820000D01*
X158067478Y-68820000D01*
X158202230Y-68618329D01*
X158319826Y-68334427D01*
X158379776Y-68033039D01*
X158379776Y-67725745D01*
X158319826Y-67424357D01*
X158202230Y-67140455D01*
X158031507Y-66884950D01*
X157814218Y-66667661D01*
X157558713Y-66496938D01*
X157274811Y-66379342D01*
X156973423Y-66319392D01*
X156666129Y-66319392D01*
X156364741Y-66379342D01*
X156080839Y-66496938D01*
X155825334Y-66667661D01*
X155608045Y-66884950D01*
X155437322Y-67140455D01*
X155319726Y-67424357D01*
X155259776Y-67725745D01*
X155259776Y-68033039D01*
X155319726Y-68334427D01*
X155437322Y-68618329D01*
X155572074Y-68820000D01*
X153894802Y-68820000D01*
X147840068Y-62765267D01*
X148121424Y-62709302D01*
X148407601Y-62590764D01*
X148665154Y-62418673D01*
X148884184Y-62199643D01*
X149056275Y-61942090D01*
X149077485Y-61890883D01*
X152242073Y-61890883D01*
X152242073Y-62200639D01*
X152302503Y-62504442D01*
X152421041Y-62790619D01*
X152593132Y-63048172D01*
X152812162Y-63267202D01*
X153069715Y-63439293D01*
X153355892Y-63557831D01*
X153659695Y-63618261D01*
X153969451Y-63618261D01*
X154273254Y-63557831D01*
X154559431Y-63439293D01*
X154816984Y-63267202D01*
X155036014Y-63048172D01*
X155208105Y-62790619D01*
X155326643Y-62504442D01*
X155387073Y-62200639D01*
X155387073Y-61890883D01*
X155326643Y-61587080D01*
X155208105Y-61300903D01*
X155036014Y-61043350D01*
X154816984Y-60824320D01*
X154559431Y-60652229D01*
X154273254Y-60533691D01*
X153969451Y-60473261D01*
X153659695Y-60473261D01*
X153355892Y-60533691D01*
X153069715Y-60652229D01*
X152812162Y-60824320D01*
X152593132Y-61043350D01*
X152421041Y-61300903D01*
X152302503Y-61587080D01*
X152242073Y-61890883D01*
X149077485Y-61890883D01*
X149174813Y-61655913D01*
X149235243Y-61352110D01*
X149235243Y-61042354D01*
X149174813Y-60738551D01*
X149056275Y-60452374D01*
X148884184Y-60194821D01*
X148665154Y-59975791D01*
X148407601Y-59803700D01*
X148121424Y-59685162D01*
X147817621Y-59624732D01*
X147507865Y-59624732D01*
X147204062Y-59685162D01*
X146917885Y-59803700D01*
X146660332Y-59975791D01*
X146441302Y-60194821D01*
X146269211Y-60452374D01*
X146150673Y-60738551D01*
X146094708Y-61019907D01*
X144937209Y-59862408D01*
X144937209Y-59079893D01*
X145904219Y-58112883D01*
X145965360Y-58038382D01*
X151936374Y-58038382D01*
X151936374Y-58345676D01*
X151996324Y-58647064D01*
X152113920Y-58930966D01*
X152284643Y-59186471D01*
X152501932Y-59403760D01*
X152757437Y-59574483D01*
X153041339Y-59692079D01*
X153342727Y-59752029D01*
X153650021Y-59752029D01*
X153951409Y-59692079D01*
X154235311Y-59574483D01*
X154490816Y-59403760D01*
X154708105Y-59186471D01*
X154878828Y-58930966D01*
X154996424Y-58647064D01*
X155023642Y-58510227D01*
X155386210Y-58510227D01*
X155398470Y-58634709D01*
X155434780Y-58754407D01*
X155493745Y-58864721D01*
X155573097Y-58961412D01*
X156898922Y-60287237D01*
X156995613Y-60366589D01*
X157105927Y-60425554D01*
X157225625Y-60461864D01*
X157350107Y-60474124D01*
X157474589Y-60461864D01*
X157594287Y-60425554D01*
X157704601Y-60366589D01*
X157801292Y-60287237D01*
X159127117Y-58961412D01*
X159206469Y-58864721D01*
X159265434Y-58754407D01*
X159301744Y-58634709D01*
X159314004Y-58510227D01*
X159301744Y-58385745D01*
X159265434Y-58266047D01*
X159206469Y-58155733D01*
X159127117Y-58059042D01*
X157801292Y-56733217D01*
X157704601Y-56653865D01*
X157594287Y-56594900D01*
X157474589Y-56558590D01*
X157350107Y-56546330D01*
X157225625Y-56558590D01*
X157105927Y-56594900D01*
X156995613Y-56653865D01*
X156898922Y-56733217D01*
X155573097Y-58059042D01*
X155493745Y-58155733D01*
X155434780Y-58266047D01*
X155398470Y-58385745D01*
X155386210Y-58510227D01*
X155023642Y-58510227D01*
X155056374Y-58345676D01*
X155056374Y-58038382D01*
X154996424Y-57736994D01*
X154878828Y-57453092D01*
X154708105Y-57197587D01*
X154490816Y-56980298D01*
X154235311Y-56809575D01*
X153951409Y-56691979D01*
X153650021Y-56632029D01*
X153342727Y-56632029D01*
X153041339Y-56691979D01*
X152757437Y-56809575D01*
X152501932Y-56980298D01*
X152284643Y-57197587D01*
X152113920Y-57453092D01*
X151996324Y-57736994D01*
X151936374Y-58038382D01*
X145965360Y-58038382D01*
X145983571Y-58016192D01*
X146042536Y-57905878D01*
X146078846Y-57786180D01*
X146091106Y-57661698D01*
X146078846Y-57537216D01*
X146042536Y-57417518D01*
X145983571Y-57307204D01*
X145904219Y-57210513D01*
X144578394Y-55884688D01*
X144481703Y-55805336D01*
X144371389Y-55746371D01*
X144251691Y-55710061D01*
X144127209Y-55697801D01*
X144002727Y-55710061D01*
X143883029Y-55746371D01*
X143772715Y-55805336D01*
X143676024Y-55884688D01*
X142350199Y-57210513D01*
X142270847Y-57307204D01*
X142211882Y-57417518D01*
X142175572Y-57537216D01*
X142163312Y-57661698D01*
X140710000Y-57661698D01*
X140710000Y-51674420D01*
X145572412Y-51674420D01*
X145572412Y-51981714D01*
X145632362Y-52283102D01*
X145749958Y-52567004D01*
X145920681Y-52822509D01*
X146137970Y-53039798D01*
X146393475Y-53210521D01*
X146677377Y-53328117D01*
X146978765Y-53388067D01*
X147286059Y-53388067D01*
X147587447Y-53328117D01*
X147871349Y-53210521D01*
X148126854Y-53039798D01*
X148344143Y-52822509D01*
X148514866Y-52567004D01*
X148632462Y-52283102D01*
X148648291Y-52203520D01*
X154929077Y-52203520D01*
X154929077Y-52513276D01*
X154989507Y-52817079D01*
X155108045Y-53103256D01*
X155280136Y-53360809D01*
X155499166Y-53579839D01*
X155756719Y-53751930D01*
X156042896Y-53870468D01*
X156346699Y-53930898D01*
X156656455Y-53930898D01*
X156960258Y-53870468D01*
X157246435Y-53751930D01*
X157503988Y-53579839D01*
X157723018Y-53360809D01*
X157895109Y-53103256D01*
X158013647Y-52817079D01*
X158074077Y-52513276D01*
X158074077Y-52203520D01*
X158013647Y-51899717D01*
X157895109Y-51613540D01*
X157723018Y-51355987D01*
X157503988Y-51136957D01*
X157246435Y-50964866D01*
X156960258Y-50846328D01*
X156656455Y-50785898D01*
X156346699Y-50785898D01*
X156042896Y-50846328D01*
X155756719Y-50964866D01*
X155499166Y-51136957D01*
X155280136Y-51355987D01*
X155108045Y-51613540D01*
X154989507Y-51899717D01*
X154929077Y-52203520D01*
X148648291Y-52203520D01*
X148692412Y-51981714D01*
X148692412Y-51674420D01*
X148632462Y-51373032D01*
X148514866Y-51089130D01*
X148344143Y-50833625D01*
X148126854Y-50616336D01*
X147871349Y-50445613D01*
X147587447Y-50328017D01*
X147286059Y-50268067D01*
X146978765Y-50268067D01*
X146677377Y-50328017D01*
X146393475Y-50445613D01*
X146137970Y-50616336D01*
X145920681Y-50833625D01*
X145749958Y-51089130D01*
X145632362Y-51373032D01*
X145572412Y-51674420D01*
X140710000Y-51674420D01*
X140710000Y-48667986D01*
X151393543Y-48667986D01*
X151393543Y-48977742D01*
X151453973Y-49281545D01*
X151572511Y-49567722D01*
X151744602Y-49825275D01*
X151963632Y-50044305D01*
X152221185Y-50216396D01*
X152507362Y-50334934D01*
X152811165Y-50395364D01*
X153120921Y-50395364D01*
X153424724Y-50334934D01*
X153710901Y-50216396D01*
X153968454Y-50044305D01*
X154187484Y-49825275D01*
X154359575Y-49567722D01*
X154478113Y-49281545D01*
X154538543Y-48977742D01*
X154538543Y-48667986D01*
X154478113Y-48364183D01*
X154472661Y-48351019D01*
X155259776Y-48351019D01*
X155259776Y-48658313D01*
X155319726Y-48959701D01*
X155437322Y-49243603D01*
X155608045Y-49499108D01*
X155825334Y-49716397D01*
X156080839Y-49887120D01*
X156364741Y-50004716D01*
X156666129Y-50064666D01*
X156973423Y-50064666D01*
X157274811Y-50004716D01*
X157558713Y-49887120D01*
X157814218Y-49716397D01*
X158031507Y-49499108D01*
X158202230Y-49243603D01*
X158319826Y-48959701D01*
X158379776Y-48658313D01*
X158379776Y-48351019D01*
X158319826Y-48049631D01*
X158202230Y-47765729D01*
X158031507Y-47510224D01*
X157814218Y-47292935D01*
X157558713Y-47122212D01*
X157274811Y-47004616D01*
X156973423Y-46944666D01*
X156666129Y-46944666D01*
X156364741Y-47004616D01*
X156080839Y-47122212D01*
X155825334Y-47292935D01*
X155608045Y-47510224D01*
X155437322Y-47765729D01*
X155319726Y-48049631D01*
X155259776Y-48351019D01*
X154472661Y-48351019D01*
X154359575Y-48078006D01*
X154187484Y-47820453D01*
X153968454Y-47601423D01*
X153710901Y-47429332D01*
X153424724Y-47310794D01*
X153120921Y-47250364D01*
X152811165Y-47250364D01*
X152507362Y-47310794D01*
X152221185Y-47429332D01*
X151963632Y-47601423D01*
X151744602Y-47820453D01*
X151572511Y-48078006D01*
X151453973Y-48364183D01*
X151393543Y-48667986D01*
X140710000Y-48667986D01*
X140710000Y-41029142D01*
X140743449Y-40622285D01*
X142165000Y-40622285D01*
X142165000Y-41377715D01*
X142312377Y-42118628D01*
X142601467Y-42816554D01*
X143021161Y-43444670D01*
X143555330Y-43978839D01*
X144183446Y-44398533D01*
X144881372Y-44687623D01*
X145622285Y-44835000D01*
X146377715Y-44835000D01*
X147118628Y-44687623D01*
X147816554Y-44398533D01*
X148444670Y-43978839D01*
X148978839Y-43444670D01*
X149398533Y-42816554D01*
X149522961Y-42516157D01*
X152242073Y-42516157D01*
X152242073Y-42825913D01*
X152302503Y-43129716D01*
X152421041Y-43415893D01*
X152593132Y-43673446D01*
X152812162Y-43892476D01*
X153069715Y-44064567D01*
X153355892Y-44183105D01*
X153659695Y-44243535D01*
X153969451Y-44243535D01*
X154273254Y-44183105D01*
X154559431Y-44064567D01*
X154816984Y-43892476D01*
X155036014Y-43673446D01*
X155208105Y-43415893D01*
X155326643Y-43129716D01*
X155387073Y-42825913D01*
X155387073Y-42516157D01*
X155326643Y-42212354D01*
X155208105Y-41926177D01*
X155036014Y-41668624D01*
X154816984Y-41449594D01*
X154559431Y-41277503D01*
X154273254Y-41158965D01*
X153969451Y-41098535D01*
X153659695Y-41098535D01*
X153355892Y-41158965D01*
X153069715Y-41277503D01*
X152812162Y-41449594D01*
X152593132Y-41668624D01*
X152421041Y-41926177D01*
X152302503Y-42212354D01*
X152242073Y-42516157D01*
X149522961Y-42516157D01*
X149687623Y-42118628D01*
X149835000Y-41377715D01*
X149835000Y-40622285D01*
X149687623Y-39881372D01*
X149398533Y-39183446D01*
X148978839Y-38555330D01*
X148444670Y-38021161D01*
X147816554Y-37601467D01*
X147118628Y-37312377D01*
X146377715Y-37165000D01*
X145622285Y-37165000D01*
X144881372Y-37312377D01*
X144183446Y-37601467D01*
X143555330Y-38021161D01*
X143021161Y-38555330D01*
X142601467Y-39183446D01*
X142312377Y-39881372D01*
X142165000Y-40622285D01*
X140743449Y-40622285D01*
X140783397Y-40136392D01*
X140994491Y-39295990D01*
X141340017Y-38501336D01*
X141810685Y-37773794D01*
X142393864Y-37132890D01*
X143073881Y-36595845D01*
X143832489Y-36177070D01*
X144649306Y-35887820D01*
X145514656Y-35733677D01*
X146016736Y-35710000D01*
X233970858Y-35710000D01*
X234863608Y-35783397D01*
G37*
%TD.AperFunction*%
%TD*%
M02*
