%TF.GenerationSoftware,KiCad,Pcbnew,5.1.10*%
%TF.CreationDate,2022-04-10T17:14:51-07:00*%
%TF.ProjectId,zf_vga_controller,7a665f76-6761-45f6-936f-6e74726f6c6c,rev?*%
%TF.SameCoordinates,Original*%
%TF.FileFunction,Legend,Bot*%
%TF.FilePolarity,Positive*%
%FSLAX46Y46*%
G04 Gerber Fmt 4.6, Leading zero omitted, Abs format (unit mm)*
G04 Created by KiCad (PCBNEW 5.1.10) date 2022-04-10 17:14:51*
%MOMM*%
%LPD*%
G01*
G04 APERTURE LIST*
%ADD10C,0.150000*%
%ADD11C,0.120000*%
G04 APERTURE END LIST*
D10*
X209690476Y-32384880D02*
X209023809Y-32384880D01*
X209690476Y-33384880D01*
X209023809Y-33384880D01*
X208642857Y-33003928D02*
X207880952Y-33003928D01*
X207071428Y-32861071D02*
X207404761Y-32861071D01*
X207404761Y-33384880D02*
X207404761Y-32384880D01*
X206928571Y-32384880D01*
X206547619Y-33384880D02*
X206547619Y-32384880D01*
X205547619Y-32432500D02*
X205642857Y-32384880D01*
X205785714Y-32384880D01*
X205928571Y-32432500D01*
X206023809Y-32527738D01*
X206071428Y-32622976D01*
X206119047Y-32813452D01*
X206119047Y-32956309D01*
X206071428Y-33146785D01*
X206023809Y-33242023D01*
X205928571Y-33337261D01*
X205785714Y-33384880D01*
X205690476Y-33384880D01*
X205547619Y-33337261D01*
X205500000Y-33289642D01*
X205500000Y-32956309D01*
X205690476Y-32956309D01*
X205071428Y-33384880D02*
X205071428Y-32384880D01*
X205071428Y-32861071D02*
X204500000Y-32861071D01*
X204500000Y-33384880D02*
X204500000Y-32384880D01*
X204166666Y-32384880D02*
X203595238Y-32384880D01*
X203880952Y-33384880D02*
X203880952Y-32384880D01*
X203261904Y-32861071D02*
X202928571Y-32861071D01*
X202785714Y-33384880D02*
X203261904Y-33384880D01*
X203261904Y-32384880D01*
X202785714Y-32384880D01*
X201785714Y-33384880D02*
X202119047Y-32908690D01*
X202357142Y-33384880D02*
X202357142Y-32384880D01*
X201976190Y-32384880D01*
X201880952Y-32432500D01*
X201833333Y-32480119D01*
X201785714Y-32575357D01*
X201785714Y-32718214D01*
X201833333Y-32813452D01*
X201880952Y-32861071D01*
X201976190Y-32908690D01*
X202357142Y-32908690D01*
X200738095Y-32384880D02*
X200404761Y-33384880D01*
X200071428Y-32384880D01*
X199214285Y-32432500D02*
X199309523Y-32384880D01*
X199452380Y-32384880D01*
X199595238Y-32432500D01*
X199690476Y-32527738D01*
X199738095Y-32622976D01*
X199785714Y-32813452D01*
X199785714Y-32956309D01*
X199738095Y-33146785D01*
X199690476Y-33242023D01*
X199595238Y-33337261D01*
X199452380Y-33384880D01*
X199357142Y-33384880D01*
X199214285Y-33337261D01*
X199166666Y-33289642D01*
X199166666Y-32956309D01*
X199357142Y-32956309D01*
X198785714Y-33099166D02*
X198309523Y-33099166D01*
X198880952Y-33384880D02*
X198547619Y-32384880D01*
X198214285Y-33384880D01*
X196547619Y-33289642D02*
X196595238Y-33337261D01*
X196738095Y-33384880D01*
X196833333Y-33384880D01*
X196976190Y-33337261D01*
X197071428Y-33242023D01*
X197119047Y-33146785D01*
X197166666Y-32956309D01*
X197166666Y-32813452D01*
X197119047Y-32622976D01*
X197071428Y-32527738D01*
X196976190Y-32432500D01*
X196833333Y-32384880D01*
X196738095Y-32384880D01*
X196595238Y-32432500D01*
X196547619Y-32480119D01*
X195976190Y-33384880D02*
X196071428Y-33337261D01*
X196119047Y-33289642D01*
X196166666Y-33194404D01*
X196166666Y-32908690D01*
X196119047Y-32813452D01*
X196071428Y-32765833D01*
X195976190Y-32718214D01*
X195833333Y-32718214D01*
X195738095Y-32765833D01*
X195690476Y-32813452D01*
X195642857Y-32908690D01*
X195642857Y-33194404D01*
X195690476Y-33289642D01*
X195738095Y-33337261D01*
X195833333Y-33384880D01*
X195976190Y-33384880D01*
X195214285Y-32718214D02*
X195214285Y-33384880D01*
X195214285Y-32813452D02*
X195166666Y-32765833D01*
X195071428Y-32718214D01*
X194928571Y-32718214D01*
X194833333Y-32765833D01*
X194785714Y-32861071D01*
X194785714Y-33384880D01*
X194452380Y-32718214D02*
X194071428Y-32718214D01*
X194309523Y-32384880D02*
X194309523Y-33242023D01*
X194261904Y-33337261D01*
X194166666Y-33384880D01*
X194071428Y-33384880D01*
X193738095Y-33384880D02*
X193738095Y-32718214D01*
X193738095Y-32908690D02*
X193690476Y-32813452D01*
X193642857Y-32765833D01*
X193547619Y-32718214D01*
X193452380Y-32718214D01*
X192976190Y-33384880D02*
X193071428Y-33337261D01*
X193119047Y-33289642D01*
X193166666Y-33194404D01*
X193166666Y-32908690D01*
X193119047Y-32813452D01*
X193071428Y-32765833D01*
X192976190Y-32718214D01*
X192833333Y-32718214D01*
X192738095Y-32765833D01*
X192690476Y-32813452D01*
X192642857Y-32908690D01*
X192642857Y-33194404D01*
X192690476Y-33289642D01*
X192738095Y-33337261D01*
X192833333Y-33384880D01*
X192976190Y-33384880D01*
X192071428Y-33384880D02*
X192166666Y-33337261D01*
X192214285Y-33242023D01*
X192214285Y-32384880D01*
X191547619Y-33384880D02*
X191642857Y-33337261D01*
X191690476Y-33242023D01*
X191690476Y-32384880D01*
X190785714Y-33337261D02*
X190880952Y-33384880D01*
X191071428Y-33384880D01*
X191166666Y-33337261D01*
X191214285Y-33242023D01*
X191214285Y-32861071D01*
X191166666Y-32765833D01*
X191071428Y-32718214D01*
X190880952Y-32718214D01*
X190785714Y-32765833D01*
X190738095Y-32861071D01*
X190738095Y-32956309D01*
X191214285Y-33051547D01*
X190309523Y-33384880D02*
X190309523Y-32718214D01*
X190309523Y-32908690D02*
X190261904Y-32813452D01*
X190214285Y-32765833D01*
X190119047Y-32718214D01*
X190023809Y-32718214D01*
X188357142Y-33384880D02*
X188690476Y-32908690D01*
X188928571Y-33384880D02*
X188928571Y-32384880D01*
X188547619Y-32384880D01*
X188452380Y-32432500D01*
X188404761Y-32480119D01*
X188357142Y-32575357D01*
X188357142Y-32718214D01*
X188404761Y-32813452D01*
X188452380Y-32861071D01*
X188547619Y-32908690D01*
X188928571Y-32908690D01*
X187547619Y-33337261D02*
X187642857Y-33384880D01*
X187833333Y-33384880D01*
X187928571Y-33337261D01*
X187976190Y-33242023D01*
X187976190Y-32861071D01*
X187928571Y-32765833D01*
X187833333Y-32718214D01*
X187642857Y-32718214D01*
X187547619Y-32765833D01*
X187500000Y-32861071D01*
X187500000Y-32956309D01*
X187976190Y-33051547D01*
X187166666Y-32718214D02*
X186928571Y-33384880D01*
X186690476Y-32718214D01*
X186309523Y-33289642D02*
X186261904Y-33337261D01*
X186309523Y-33384880D01*
X186357142Y-33337261D01*
X186309523Y-33289642D01*
X186309523Y-33384880D01*
X185119047Y-32480119D02*
X185071428Y-32432500D01*
X184976190Y-32384880D01*
X184738095Y-32384880D01*
X184642857Y-32432500D01*
X184595238Y-32480119D01*
X184547619Y-32575357D01*
X184547619Y-32670595D01*
X184595238Y-32813452D01*
X185166666Y-33384880D01*
X184547619Y-33384880D01*
X182738095Y-32908690D02*
X182785714Y-32861071D01*
X182880952Y-32813452D01*
X182976190Y-32813452D01*
X183071428Y-32861071D01*
X183119047Y-32908690D01*
X183166666Y-33003928D01*
X183166666Y-33099166D01*
X183119047Y-33194404D01*
X183071428Y-33242023D01*
X182976190Y-33289642D01*
X182880952Y-33289642D01*
X182785714Y-33242023D01*
X182738095Y-33194404D01*
X182738095Y-32813452D02*
X182738095Y-33194404D01*
X182690476Y-33242023D01*
X182642857Y-33242023D01*
X182547619Y-33194404D01*
X182500000Y-33099166D01*
X182500000Y-32861071D01*
X182595238Y-32718214D01*
X182738095Y-32622976D01*
X182928571Y-32575357D01*
X183119047Y-32622976D01*
X183261904Y-32718214D01*
X183357142Y-32861071D01*
X183404761Y-33051547D01*
X183357142Y-33242023D01*
X183261904Y-33384880D01*
X183119047Y-33480119D01*
X182928571Y-33527738D01*
X182738095Y-33480119D01*
X182595238Y-33384880D01*
X182214285Y-32718214D02*
X181833333Y-32718214D01*
X182071428Y-32384880D02*
X182071428Y-33242023D01*
X182023809Y-33337261D01*
X181928571Y-33384880D01*
X181833333Y-33384880D01*
X181071428Y-33384880D02*
X181071428Y-32861071D01*
X181119047Y-32765833D01*
X181214285Y-32718214D01*
X181404761Y-32718214D01*
X181500000Y-32765833D01*
X181071428Y-33337261D02*
X181166666Y-33384880D01*
X181404761Y-33384880D01*
X181500000Y-33337261D01*
X181547619Y-33242023D01*
X181547619Y-33146785D01*
X181500000Y-33051547D01*
X181404761Y-33003928D01*
X181166666Y-33003928D01*
X181071428Y-32956309D01*
X180595238Y-32718214D02*
X180595238Y-33384880D01*
X180595238Y-32813452D02*
X180547619Y-32765833D01*
X180452380Y-32718214D01*
X180309523Y-32718214D01*
X180214285Y-32765833D01*
X180166666Y-32861071D01*
X180166666Y-33384880D01*
X179261904Y-32718214D02*
X179261904Y-33527738D01*
X179309523Y-33622976D01*
X179357142Y-33670595D01*
X179452380Y-33718214D01*
X179595238Y-33718214D01*
X179690476Y-33670595D01*
X179261904Y-33337261D02*
X179357142Y-33384880D01*
X179547619Y-33384880D01*
X179642857Y-33337261D01*
X179690476Y-33289642D01*
X179738095Y-33194404D01*
X179738095Y-32908690D01*
X179690476Y-32813452D01*
X179642857Y-32765833D01*
X179547619Y-32718214D01*
X179357142Y-32718214D01*
X179261904Y-32765833D01*
X178404761Y-33337261D02*
X178500000Y-33384880D01*
X178690476Y-33384880D01*
X178785714Y-33337261D01*
X178833333Y-33242023D01*
X178833333Y-32861071D01*
X178785714Y-32765833D01*
X178690476Y-32718214D01*
X178500000Y-32718214D01*
X178404761Y-32765833D01*
X178357142Y-32861071D01*
X178357142Y-32956309D01*
X178833333Y-33051547D01*
X177928571Y-32718214D02*
X177928571Y-33384880D01*
X177928571Y-32813452D02*
X177880952Y-32765833D01*
X177785714Y-32718214D01*
X177642857Y-32718214D01*
X177547619Y-32765833D01*
X177500000Y-32861071D01*
X177500000Y-33384880D01*
X177166666Y-32718214D02*
X176785714Y-32718214D01*
X177023809Y-32384880D02*
X177023809Y-33242023D01*
X176976190Y-33337261D01*
X176880952Y-33384880D01*
X176785714Y-33384880D01*
X176547619Y-32384880D02*
X175928571Y-32384880D01*
X176261904Y-32765833D01*
X176119047Y-32765833D01*
X176023809Y-32813452D01*
X175976190Y-32861071D01*
X175928571Y-32956309D01*
X175928571Y-33194404D01*
X175976190Y-33289642D01*
X176023809Y-33337261D01*
X176119047Y-33384880D01*
X176404761Y-33384880D01*
X176500000Y-33337261D01*
X176547619Y-33289642D01*
X175500000Y-33384880D02*
X175500000Y-32384880D01*
X175261904Y-32384880D01*
X175119047Y-32432500D01*
X175023809Y-32527738D01*
X174976190Y-32622976D01*
X174928571Y-32813452D01*
X174928571Y-32956309D01*
X174976190Y-33146785D01*
X175023809Y-33242023D01*
X175119047Y-33337261D01*
X175261904Y-33384880D01*
X175500000Y-33384880D01*
X173785714Y-32480119D02*
X173738095Y-32432500D01*
X173642857Y-32384880D01*
X173404761Y-32384880D01*
X173309523Y-32432500D01*
X173261904Y-32480119D01*
X173214285Y-32575357D01*
X173214285Y-32670595D01*
X173261904Y-32813452D01*
X173833333Y-33384880D01*
X173214285Y-33384880D01*
X172595238Y-32384880D02*
X172500000Y-32384880D01*
X172404761Y-32432500D01*
X172357142Y-32480119D01*
X172309523Y-32575357D01*
X172261904Y-32765833D01*
X172261904Y-33003928D01*
X172309523Y-33194404D01*
X172357142Y-33289642D01*
X172404761Y-33337261D01*
X172500000Y-33384880D01*
X172595238Y-33384880D01*
X172690476Y-33337261D01*
X172738095Y-33289642D01*
X172785714Y-33194404D01*
X172833333Y-33003928D01*
X172833333Y-32765833D01*
X172785714Y-32575357D01*
X172738095Y-32480119D01*
X172690476Y-32432500D01*
X172595238Y-32384880D01*
X171880952Y-32480119D02*
X171833333Y-32432500D01*
X171738095Y-32384880D01*
X171500000Y-32384880D01*
X171404761Y-32432500D01*
X171357142Y-32480119D01*
X171309523Y-32575357D01*
X171309523Y-32670595D01*
X171357142Y-32813452D01*
X171928571Y-33384880D01*
X171309523Y-33384880D01*
X170928571Y-32480119D02*
X170880952Y-32432500D01*
X170785714Y-32384880D01*
X170547619Y-32384880D01*
X170452380Y-32432500D01*
X170404761Y-32480119D01*
X170357142Y-32575357D01*
X170357142Y-32670595D01*
X170404761Y-32813452D01*
X170976190Y-33384880D01*
X170357142Y-33384880D01*
D11*
%TO.C,C1*%
X175870000Y-72670000D02*
X175870000Y-64930000D01*
X173130000Y-72670000D02*
X173130000Y-64930000D01*
X175870000Y-72670000D02*
X173130000Y-72670000D01*
X175870000Y-64930000D02*
X173130000Y-64930000D01*
%TO.C,Q1*%
X181805000Y-56921698D02*
X181805000Y-53321698D01*
X182532205Y-57445882D02*
G75*
G02*
X181805000Y-56921698I1122795J2324184D01*
G01*
X184753807Y-57478098D02*
G75*
G03*
X186255000Y-55121698I-1098807J2356400D01*
G01*
X184753807Y-52765298D02*
G75*
G02*
X186255000Y-55121698I-1098807J-2356400D01*
G01*
X182532205Y-52797514D02*
G75*
G03*
X181805000Y-53321698I1122795J-2324184D01*
G01*
%TO.C,R1*%
X191815000Y-53951698D02*
X191815000Y-53621698D01*
X198355000Y-53951698D02*
X191815000Y-53951698D01*
X198355000Y-53621698D02*
X198355000Y-53951698D01*
X191815000Y-51211698D02*
X191815000Y-51541698D01*
X198355000Y-51211698D02*
X191815000Y-51211698D01*
X198355000Y-51541698D02*
X198355000Y-51211698D01*
%TO.C,R2*%
X198355000Y-56621698D02*
X198355000Y-56291698D01*
X198355000Y-56291698D02*
X191815000Y-56291698D01*
X191815000Y-56291698D02*
X191815000Y-56621698D01*
X198355000Y-58701698D02*
X198355000Y-59031698D01*
X198355000Y-59031698D02*
X191815000Y-59031698D01*
X191815000Y-59031698D02*
X191815000Y-58701698D01*
%TO.C,U1*%
X177245000Y-71460000D02*
X177245000Y-69810000D01*
X202765000Y-71460000D02*
X177245000Y-71460000D01*
X202765000Y-66160000D02*
X202765000Y-71460000D01*
X177245000Y-66160000D02*
X202765000Y-66160000D01*
X177245000Y-67810000D02*
X177245000Y-66160000D01*
X177245000Y-69810000D02*
G75*
G03*
X177245000Y-67810000I0J1000000D01*
G01*
%TO.C,RN1*%
X163810000Y-31600000D02*
X163810000Y-34400000D01*
X153480000Y-31600000D02*
X166520000Y-31600000D01*
X153480000Y-34400000D02*
X153480000Y-31600000D01*
X166520000Y-34400000D02*
X153480000Y-34400000D01*
X166520000Y-31600000D02*
X166520000Y-34400000D01*
%TO.C,RN2*%
X213480000Y-34400000D02*
X213480000Y-31600000D01*
X213480000Y-31600000D02*
X226520000Y-31600000D01*
X226520000Y-31600000D02*
X226520000Y-34400000D01*
X226520000Y-34400000D02*
X213480000Y-34400000D01*
X216190000Y-34400000D02*
X216190000Y-31600000D01*
%TO.C,C1*%
D10*
X174857142Y-68633333D02*
X174904761Y-68585714D01*
X174952380Y-68442857D01*
X174952380Y-68347619D01*
X174904761Y-68204761D01*
X174809523Y-68109523D01*
X174714285Y-68061904D01*
X174523809Y-68014285D01*
X174380952Y-68014285D01*
X174190476Y-68061904D01*
X174095238Y-68109523D01*
X174000000Y-68204761D01*
X173952380Y-68347619D01*
X173952380Y-68442857D01*
X174000000Y-68585714D01*
X174047619Y-68633333D01*
X174952380Y-69585714D02*
X174952380Y-69014285D01*
X174952380Y-69300000D02*
X173952380Y-69300000D01*
X174095238Y-69204761D01*
X174190476Y-69109523D01*
X174238095Y-69014285D01*
%TO.C,Q1*%
X181297619Y-55026459D02*
X181250000Y-54931221D01*
X181154761Y-54835983D01*
X181011904Y-54693126D01*
X180964285Y-54597888D01*
X180964285Y-54502650D01*
X181202380Y-54550269D02*
X181154761Y-54455031D01*
X181059523Y-54359793D01*
X180869047Y-54312174D01*
X180535714Y-54312174D01*
X180345238Y-54359793D01*
X180250000Y-54455031D01*
X180202380Y-54550269D01*
X180202380Y-54740745D01*
X180250000Y-54835983D01*
X180345238Y-54931221D01*
X180535714Y-54978840D01*
X180869047Y-54978840D01*
X181059523Y-54931221D01*
X181154761Y-54835983D01*
X181202380Y-54740745D01*
X181202380Y-54550269D01*
X181202380Y-55931221D02*
X181202380Y-55359793D01*
X181202380Y-55645507D02*
X180202380Y-55645507D01*
X180345238Y-55550269D01*
X180440476Y-55455031D01*
X180488095Y-55359793D01*
%TO.C,R1*%
X195251666Y-52966578D02*
X195585000Y-52490388D01*
X195823095Y-52966578D02*
X195823095Y-51966578D01*
X195442142Y-51966578D01*
X195346904Y-52014198D01*
X195299285Y-52061817D01*
X195251666Y-52157055D01*
X195251666Y-52299912D01*
X195299285Y-52395150D01*
X195346904Y-52442769D01*
X195442142Y-52490388D01*
X195823095Y-52490388D01*
X194299285Y-52966578D02*
X194870714Y-52966578D01*
X194585000Y-52966578D02*
X194585000Y-51966578D01*
X194680238Y-52109436D01*
X194775476Y-52204674D01*
X194870714Y-52252293D01*
%TO.C,R2*%
X195251666Y-58046578D02*
X195585000Y-57570388D01*
X195823095Y-58046578D02*
X195823095Y-57046578D01*
X195442142Y-57046578D01*
X195346904Y-57094198D01*
X195299285Y-57141817D01*
X195251666Y-57237055D01*
X195251666Y-57379912D01*
X195299285Y-57475150D01*
X195346904Y-57522769D01*
X195442142Y-57570388D01*
X195823095Y-57570388D01*
X194870714Y-57141817D02*
X194823095Y-57094198D01*
X194727857Y-57046578D01*
X194489761Y-57046578D01*
X194394523Y-57094198D01*
X194346904Y-57141817D01*
X194299285Y-57237055D01*
X194299285Y-57332293D01*
X194346904Y-57475150D01*
X194918333Y-58046578D01*
X194299285Y-58046578D01*
%TO.C,U1*%
X190761904Y-68202380D02*
X190761904Y-69011904D01*
X190714285Y-69107142D01*
X190666666Y-69154761D01*
X190571428Y-69202380D01*
X190380952Y-69202380D01*
X190285714Y-69154761D01*
X190238095Y-69107142D01*
X190190476Y-69011904D01*
X190190476Y-68202380D01*
X189190476Y-69202380D02*
X189761904Y-69202380D01*
X189476190Y-69202380D02*
X189476190Y-68202380D01*
X189571428Y-68345238D01*
X189666666Y-68440476D01*
X189761904Y-68488095D01*
%TO.C,RN1*%
X160670476Y-35852380D02*
X161003809Y-35376190D01*
X161241904Y-35852380D02*
X161241904Y-34852380D01*
X160860952Y-34852380D01*
X160765714Y-34900000D01*
X160718095Y-34947619D01*
X160670476Y-35042857D01*
X160670476Y-35185714D01*
X160718095Y-35280952D01*
X160765714Y-35328571D01*
X160860952Y-35376190D01*
X161241904Y-35376190D01*
X160241904Y-35852380D02*
X160241904Y-34852380D01*
X159670476Y-35852380D01*
X159670476Y-34852380D01*
X158670476Y-35852380D02*
X159241904Y-35852380D01*
X158956190Y-35852380D02*
X158956190Y-34852380D01*
X159051428Y-34995238D01*
X159146666Y-35090476D01*
X159241904Y-35138095D01*
%TO.C,RN2*%
X220710476Y-35852380D02*
X221043809Y-35376190D01*
X221281904Y-35852380D02*
X221281904Y-34852380D01*
X220900952Y-34852380D01*
X220805714Y-34900000D01*
X220758095Y-34947619D01*
X220710476Y-35042857D01*
X220710476Y-35185714D01*
X220758095Y-35280952D01*
X220805714Y-35328571D01*
X220900952Y-35376190D01*
X221281904Y-35376190D01*
X220281904Y-35852380D02*
X220281904Y-34852380D01*
X219710476Y-35852380D01*
X219710476Y-34852380D01*
X219281904Y-34947619D02*
X219234285Y-34900000D01*
X219139047Y-34852380D01*
X218900952Y-34852380D01*
X218805714Y-34900000D01*
X218758095Y-34947619D01*
X218710476Y-35042857D01*
X218710476Y-35138095D01*
X218758095Y-35280952D01*
X219329523Y-35852380D01*
X218710476Y-35852380D01*
%TD*%
M02*
