M48
INCH,TZ
T1C0.0315
T2C0.0394
T3C0.0492
T4C0.1260
T5C0.1260
%
G90
G05
T1
X60992Y-12992
X61992Y-12992
X62992Y-12992
X63992Y-12992
X64992Y-12992
X70305Y-25591
X70305Y-28591
X71305Y-25591
X71305Y-28591
X72305Y-20701
X72305Y-21701
X72305Y-22701
X72305Y-25591
X72305Y-28591
X73305Y-25591
X73305Y-28591
X74305Y-25591
X74305Y-28591
X75305Y-20701
X75305Y-22701
X75305Y-25591
X75305Y-28591
X76305Y-25591
X76305Y-28591
X77305Y-25591
X77305Y-28591
X78305Y-20701
X78305Y-22701
X78305Y-25591
X78305Y-28591
X79305Y-25591
X79305Y-28591
X84614Y-12992
X85614Y-12992
X86614Y-12992
X87614Y-12992
X88614Y-12992
T2
X68701Y-26102
X68701Y-28071
X72618Y-16142
X73163Y-15024
X73709Y-16142
X74254Y-15024
X74799Y-16142
X75344Y-15024
X75890Y-16142
X76435Y-15024
X76980Y-16142
T3
X56743Y-22701
X58135Y-24093
X60223Y-19222
X60557Y-16800
X60557Y-24427
X61615Y-20614
X61949Y-15408
X61949Y-23036
X64037Y-20279
X64037Y-27907
X64371Y-22701
X65429Y-18888
X65429Y-26515
X65763Y-24093
X67851Y-19222
X69243Y-20614
X80365Y-22701
X81757Y-24093
X83845Y-19222
X84179Y-16800
X84179Y-24427
X85237Y-20614
X85571Y-15408
X85571Y-23036
X87659Y-20279
X87659Y-27907
X87993Y-22701
X89051Y-18888
X89051Y-26515
X89385Y-24093
X91473Y-19222
X92865Y-20614
T4
X69878Y-15583
X79720Y-15583
T5
X57480Y-14173
X57480Y-29134
X92126Y-14173
X92126Y-29134
T0
M30
