M48
INCH,TZ
T1C0.0315
T2C0.0394
T3C0.0492
T4C0.1260
%
G90
G05
T1
X70118Y-26456
X71118Y-26456
X72118Y-26456
X72980Y-18142
X72980Y-21142
X73118Y-26456
X73980Y-18142
X73980Y-21142
X73980Y-24142
X74118Y-26456
X74980Y-18142
X74980Y-21142
X75118Y-26456
X75980Y-18142
X75980Y-21142
X76118Y-26456
X76980Y-18142
X76980Y-21142
X76980Y-24142
X77980Y-18142
X77980Y-21142
X78980Y-18142
X78980Y-21142
X79980Y-18142
X79980Y-21142
X80980Y-18142
X80980Y-21142
X81980Y-18142
X81980Y-21142
X83980Y-18242
X83980Y-21242
X85980Y-18648
X85980Y-19648
X85980Y-20648
T2
X71480Y-18663
X71480Y-20632
X74980Y-22642
X75980Y-22642
X76980Y-22642
X77980Y-22642
X78980Y-22642
X79980Y-22642
X80980Y-22642
X81980Y-22642
X82980Y-22642
T3
X56743Y-22701
X58135Y-24093
X60223Y-19222
X60557Y-16800
X60557Y-24427
X61615Y-20614
X61949Y-15408
X61949Y-23036
X64037Y-20279
X64037Y-27907
X64371Y-22701
X65429Y-18888
X65429Y-26515
X65763Y-24093
X67851Y-19222
X69243Y-20614
X84179Y-24427
X85571Y-23036
X87659Y-27907
X87993Y-22701
X89051Y-26515
X89385Y-24093
X91473Y-19222
X92865Y-20614
T4
X57480Y-16142
X57480Y-27165
X92126Y-16142
X92126Y-27165
T0
M30
