%TF.GenerationSoftware,KiCad,Pcbnew,5.1.10*%
%TF.CreationDate,2022-04-10T19:23:35-07:00*%
%TF.ProjectId,zf_vga_controller,7a665f76-6761-45f6-936f-6e74726f6c6c,rev?*%
%TF.SameCoordinates,Original*%
%TF.FileFunction,Legend,Bot*%
%TF.FilePolarity,Positive*%
%FSLAX46Y46*%
G04 Gerber Fmt 4.6, Leading zero omitted, Abs format (unit mm)*
G04 Created by KiCad (PCBNEW 5.1.10) date 2022-04-10 19:23:35*
%MOMM*%
%LPD*%
G01*
G04 APERTURE LIST*
%ADD10C,0.150000*%
%ADD11C,0.120000*%
G04 APERTURE END LIST*
D10*
X210142857Y-32384880D02*
X209476190Y-32384880D01*
X210142857Y-33384880D01*
X209476190Y-33384880D01*
X209095238Y-33003928D02*
X208333333Y-33003928D01*
X207523809Y-32861071D02*
X207857142Y-32861071D01*
X207857142Y-33384880D02*
X207857142Y-32384880D01*
X207380952Y-32384880D01*
X207000000Y-33384880D02*
X207000000Y-32384880D01*
X206000000Y-32432500D02*
X206095238Y-32384880D01*
X206238095Y-32384880D01*
X206380952Y-32432500D01*
X206476190Y-32527738D01*
X206523809Y-32622976D01*
X206571428Y-32813452D01*
X206571428Y-32956309D01*
X206523809Y-33146785D01*
X206476190Y-33242023D01*
X206380952Y-33337261D01*
X206238095Y-33384880D01*
X206142857Y-33384880D01*
X206000000Y-33337261D01*
X205952380Y-33289642D01*
X205952380Y-32956309D01*
X206142857Y-32956309D01*
X205523809Y-33384880D02*
X205523809Y-32384880D01*
X205523809Y-32861071D02*
X204952380Y-32861071D01*
X204952380Y-33384880D02*
X204952380Y-32384880D01*
X204619047Y-32384880D02*
X204047619Y-32384880D01*
X204333333Y-33384880D02*
X204333333Y-32384880D01*
X203714285Y-32861071D02*
X203380952Y-32861071D01*
X203238095Y-33384880D02*
X203714285Y-33384880D01*
X203714285Y-32384880D01*
X203238095Y-32384880D01*
X202238095Y-33384880D02*
X202571428Y-32908690D01*
X202809523Y-33384880D02*
X202809523Y-32384880D01*
X202428571Y-32384880D01*
X202333333Y-32432500D01*
X202285714Y-32480119D01*
X202238095Y-32575357D01*
X202238095Y-32718214D01*
X202285714Y-32813452D01*
X202333333Y-32861071D01*
X202428571Y-32908690D01*
X202809523Y-32908690D01*
X201190476Y-32384880D02*
X200857142Y-33384880D01*
X200523809Y-32384880D01*
X199666666Y-32432500D02*
X199761904Y-32384880D01*
X199904761Y-32384880D01*
X200047619Y-32432500D01*
X200142857Y-32527738D01*
X200190476Y-32622976D01*
X200238095Y-32813452D01*
X200238095Y-32956309D01*
X200190476Y-33146785D01*
X200142857Y-33242023D01*
X200047619Y-33337261D01*
X199904761Y-33384880D01*
X199809523Y-33384880D01*
X199666666Y-33337261D01*
X199619047Y-33289642D01*
X199619047Y-32956309D01*
X199809523Y-32956309D01*
X199238095Y-33099166D02*
X198761904Y-33099166D01*
X199333333Y-33384880D02*
X199000000Y-32384880D01*
X198666666Y-33384880D01*
X197000000Y-33289642D02*
X197047619Y-33337261D01*
X197190476Y-33384880D01*
X197285714Y-33384880D01*
X197428571Y-33337261D01*
X197523809Y-33242023D01*
X197571428Y-33146785D01*
X197619047Y-32956309D01*
X197619047Y-32813452D01*
X197571428Y-32622976D01*
X197523809Y-32527738D01*
X197428571Y-32432500D01*
X197285714Y-32384880D01*
X197190476Y-32384880D01*
X197047619Y-32432500D01*
X197000000Y-32480119D01*
X196428571Y-33384880D02*
X196523809Y-33337261D01*
X196571428Y-33289642D01*
X196619047Y-33194404D01*
X196619047Y-32908690D01*
X196571428Y-32813452D01*
X196523809Y-32765833D01*
X196428571Y-32718214D01*
X196285714Y-32718214D01*
X196190476Y-32765833D01*
X196142857Y-32813452D01*
X196095238Y-32908690D01*
X196095238Y-33194404D01*
X196142857Y-33289642D01*
X196190476Y-33337261D01*
X196285714Y-33384880D01*
X196428571Y-33384880D01*
X195666666Y-32718214D02*
X195666666Y-33384880D01*
X195666666Y-32813452D02*
X195619047Y-32765833D01*
X195523809Y-32718214D01*
X195380952Y-32718214D01*
X195285714Y-32765833D01*
X195238095Y-32861071D01*
X195238095Y-33384880D01*
X194904761Y-32718214D02*
X194523809Y-32718214D01*
X194761904Y-32384880D02*
X194761904Y-33242023D01*
X194714285Y-33337261D01*
X194619047Y-33384880D01*
X194523809Y-33384880D01*
X194190476Y-33384880D02*
X194190476Y-32718214D01*
X194190476Y-32908690D02*
X194142857Y-32813452D01*
X194095238Y-32765833D01*
X194000000Y-32718214D01*
X193904761Y-32718214D01*
X193428571Y-33384880D02*
X193523809Y-33337261D01*
X193571428Y-33289642D01*
X193619047Y-33194404D01*
X193619047Y-32908690D01*
X193571428Y-32813452D01*
X193523809Y-32765833D01*
X193428571Y-32718214D01*
X193285714Y-32718214D01*
X193190476Y-32765833D01*
X193142857Y-32813452D01*
X193095238Y-32908690D01*
X193095238Y-33194404D01*
X193142857Y-33289642D01*
X193190476Y-33337261D01*
X193285714Y-33384880D01*
X193428571Y-33384880D01*
X192523809Y-33384880D02*
X192619047Y-33337261D01*
X192666666Y-33242023D01*
X192666666Y-32384880D01*
X192000000Y-33384880D02*
X192095238Y-33337261D01*
X192142857Y-33242023D01*
X192142857Y-32384880D01*
X191238095Y-33337261D02*
X191333333Y-33384880D01*
X191523809Y-33384880D01*
X191619047Y-33337261D01*
X191666666Y-33242023D01*
X191666666Y-32861071D01*
X191619047Y-32765833D01*
X191523809Y-32718214D01*
X191333333Y-32718214D01*
X191238095Y-32765833D01*
X191190476Y-32861071D01*
X191190476Y-32956309D01*
X191666666Y-33051547D01*
X190761904Y-33384880D02*
X190761904Y-32718214D01*
X190761904Y-32908690D02*
X190714285Y-32813452D01*
X190666666Y-32765833D01*
X190571428Y-32718214D01*
X190476190Y-32718214D01*
X188809523Y-33384880D02*
X189142857Y-32908690D01*
X189380952Y-33384880D02*
X189380952Y-32384880D01*
X189000000Y-32384880D01*
X188904761Y-32432500D01*
X188857142Y-32480119D01*
X188809523Y-32575357D01*
X188809523Y-32718214D01*
X188857142Y-32813452D01*
X188904761Y-32861071D01*
X189000000Y-32908690D01*
X189380952Y-32908690D01*
X188000000Y-33337261D02*
X188095238Y-33384880D01*
X188285714Y-33384880D01*
X188380952Y-33337261D01*
X188428571Y-33242023D01*
X188428571Y-32861071D01*
X188380952Y-32765833D01*
X188285714Y-32718214D01*
X188095238Y-32718214D01*
X188000000Y-32765833D01*
X187952380Y-32861071D01*
X187952380Y-32956309D01*
X188428571Y-33051547D01*
X187619047Y-32718214D02*
X187380952Y-33384880D01*
X187142857Y-32718214D01*
X186761904Y-33289642D02*
X186714285Y-33337261D01*
X186761904Y-33384880D01*
X186809523Y-33337261D01*
X186761904Y-33289642D01*
X186761904Y-33384880D01*
X185571428Y-32480119D02*
X185523809Y-32432500D01*
X185428571Y-32384880D01*
X185190476Y-32384880D01*
X185095238Y-32432500D01*
X185047619Y-32480119D01*
X185000000Y-32575357D01*
X185000000Y-32670595D01*
X185047619Y-32813452D01*
X185619047Y-33384880D01*
X185000000Y-33384880D01*
X184142857Y-33384880D02*
X184142857Y-32861071D01*
X184190476Y-32765833D01*
X184285714Y-32718214D01*
X184476190Y-32718214D01*
X184571428Y-32765833D01*
X184142857Y-33337261D02*
X184238095Y-33384880D01*
X184476190Y-33384880D01*
X184571428Y-33337261D01*
X184619047Y-33242023D01*
X184619047Y-33146785D01*
X184571428Y-33051547D01*
X184476190Y-33003928D01*
X184238095Y-33003928D01*
X184142857Y-32956309D01*
X182285714Y-32908690D02*
X182333333Y-32861071D01*
X182428571Y-32813452D01*
X182523809Y-32813452D01*
X182619047Y-32861071D01*
X182666666Y-32908690D01*
X182714285Y-33003928D01*
X182714285Y-33099166D01*
X182666666Y-33194404D01*
X182619047Y-33242023D01*
X182523809Y-33289642D01*
X182428571Y-33289642D01*
X182333333Y-33242023D01*
X182285714Y-33194404D01*
X182285714Y-32813452D02*
X182285714Y-33194404D01*
X182238095Y-33242023D01*
X182190476Y-33242023D01*
X182095238Y-33194404D01*
X182047619Y-33099166D01*
X182047619Y-32861071D01*
X182142857Y-32718214D01*
X182285714Y-32622976D01*
X182476190Y-32575357D01*
X182666666Y-32622976D01*
X182809523Y-32718214D01*
X182904761Y-32861071D01*
X182952380Y-33051547D01*
X182904761Y-33242023D01*
X182809523Y-33384880D01*
X182666666Y-33480119D01*
X182476190Y-33527738D01*
X182285714Y-33480119D01*
X182142857Y-33384880D01*
X181761904Y-32718214D02*
X181380952Y-32718214D01*
X181619047Y-32384880D02*
X181619047Y-33242023D01*
X181571428Y-33337261D01*
X181476190Y-33384880D01*
X181380952Y-33384880D01*
X180619047Y-33384880D02*
X180619047Y-32861071D01*
X180666666Y-32765833D01*
X180761904Y-32718214D01*
X180952380Y-32718214D01*
X181047619Y-32765833D01*
X180619047Y-33337261D02*
X180714285Y-33384880D01*
X180952380Y-33384880D01*
X181047619Y-33337261D01*
X181095238Y-33242023D01*
X181095238Y-33146785D01*
X181047619Y-33051547D01*
X180952380Y-33003928D01*
X180714285Y-33003928D01*
X180619047Y-32956309D01*
X180142857Y-32718214D02*
X180142857Y-33384880D01*
X180142857Y-32813452D02*
X180095238Y-32765833D01*
X180000000Y-32718214D01*
X179857142Y-32718214D01*
X179761904Y-32765833D01*
X179714285Y-32861071D01*
X179714285Y-33384880D01*
X178809523Y-32718214D02*
X178809523Y-33527738D01*
X178857142Y-33622976D01*
X178904761Y-33670595D01*
X179000000Y-33718214D01*
X179142857Y-33718214D01*
X179238095Y-33670595D01*
X178809523Y-33337261D02*
X178904761Y-33384880D01*
X179095238Y-33384880D01*
X179190476Y-33337261D01*
X179238095Y-33289642D01*
X179285714Y-33194404D01*
X179285714Y-32908690D01*
X179238095Y-32813452D01*
X179190476Y-32765833D01*
X179095238Y-32718214D01*
X178904761Y-32718214D01*
X178809523Y-32765833D01*
X177952380Y-33337261D02*
X178047619Y-33384880D01*
X178238095Y-33384880D01*
X178333333Y-33337261D01*
X178380952Y-33242023D01*
X178380952Y-32861071D01*
X178333333Y-32765833D01*
X178238095Y-32718214D01*
X178047619Y-32718214D01*
X177952380Y-32765833D01*
X177904761Y-32861071D01*
X177904761Y-32956309D01*
X178380952Y-33051547D01*
X177476190Y-32718214D02*
X177476190Y-33384880D01*
X177476190Y-32813452D02*
X177428571Y-32765833D01*
X177333333Y-32718214D01*
X177190476Y-32718214D01*
X177095238Y-32765833D01*
X177047619Y-32861071D01*
X177047619Y-33384880D01*
X176714285Y-32718214D02*
X176333333Y-32718214D01*
X176571428Y-32384880D02*
X176571428Y-33242023D01*
X176523809Y-33337261D01*
X176428571Y-33384880D01*
X176333333Y-33384880D01*
X176095238Y-32384880D02*
X175476190Y-32384880D01*
X175809523Y-32765833D01*
X175666666Y-32765833D01*
X175571428Y-32813452D01*
X175523809Y-32861071D01*
X175476190Y-32956309D01*
X175476190Y-33194404D01*
X175523809Y-33289642D01*
X175571428Y-33337261D01*
X175666666Y-33384880D01*
X175952380Y-33384880D01*
X176047619Y-33337261D01*
X176095238Y-33289642D01*
X175047619Y-33384880D02*
X175047619Y-32384880D01*
X174809523Y-32384880D01*
X174666666Y-32432500D01*
X174571428Y-32527738D01*
X174523809Y-32622976D01*
X174476190Y-32813452D01*
X174476190Y-32956309D01*
X174523809Y-33146785D01*
X174571428Y-33242023D01*
X174666666Y-33337261D01*
X174809523Y-33384880D01*
X175047619Y-33384880D01*
X173333333Y-32480119D02*
X173285714Y-32432500D01*
X173190476Y-32384880D01*
X172952380Y-32384880D01*
X172857142Y-32432500D01*
X172809523Y-32480119D01*
X172761904Y-32575357D01*
X172761904Y-32670595D01*
X172809523Y-32813452D01*
X173380952Y-33384880D01*
X172761904Y-33384880D01*
X172142857Y-32384880D02*
X172047619Y-32384880D01*
X171952380Y-32432500D01*
X171904761Y-32480119D01*
X171857142Y-32575357D01*
X171809523Y-32765833D01*
X171809523Y-33003928D01*
X171857142Y-33194404D01*
X171904761Y-33289642D01*
X171952380Y-33337261D01*
X172047619Y-33384880D01*
X172142857Y-33384880D01*
X172238095Y-33337261D01*
X172285714Y-33289642D01*
X172333333Y-33194404D01*
X172380952Y-33003928D01*
X172380952Y-32765833D01*
X172333333Y-32575357D01*
X172285714Y-32480119D01*
X172238095Y-32432500D01*
X172142857Y-32384880D01*
X171428571Y-32480119D02*
X171380952Y-32432500D01*
X171285714Y-32384880D01*
X171047619Y-32384880D01*
X170952380Y-32432500D01*
X170904761Y-32480119D01*
X170857142Y-32575357D01*
X170857142Y-32670595D01*
X170904761Y-32813452D01*
X171476190Y-33384880D01*
X170857142Y-33384880D01*
X170476190Y-32480119D02*
X170428571Y-32432500D01*
X170333333Y-32384880D01*
X170095238Y-32384880D01*
X170000000Y-32432500D01*
X169952380Y-32480119D01*
X169904761Y-32575357D01*
X169904761Y-32670595D01*
X169952380Y-32813452D01*
X170523809Y-33384880D01*
X169904761Y-33384880D01*
D11*
%TO.C,U1*%
X177245000Y-69810000D02*
G75*
G03*
X177245000Y-67810000I0J1000000D01*
G01*
X177245000Y-67810000D02*
X177245000Y-66560000D01*
X177245000Y-66560000D02*
X202765000Y-66560000D01*
X202765000Y-66560000D02*
X202765000Y-71060000D01*
X202765000Y-71060000D02*
X177245000Y-71060000D01*
X177245000Y-71060000D02*
X177245000Y-69810000D01*
%TO.C,C1*%
X175870000Y-64930000D02*
X173130000Y-64930000D01*
X175870000Y-72670000D02*
X173130000Y-72670000D01*
X173130000Y-72670000D02*
X173130000Y-64930000D01*
X175870000Y-72670000D02*
X175870000Y-64930000D01*
%TO.C,Q1*%
X181805000Y-56921698D02*
X181805000Y-53321698D01*
X182532205Y-57445882D02*
G75*
G02*
X181805000Y-56921698I1122795J2324184D01*
G01*
X184753807Y-57478098D02*
G75*
G03*
X186255000Y-55121698I-1098807J2356400D01*
G01*
X184753807Y-52765298D02*
G75*
G02*
X186255000Y-55121698I-1098807J-2356400D01*
G01*
X182532205Y-52797514D02*
G75*
G03*
X181805000Y-53321698I1122795J-2324184D01*
G01*
%TO.C,R1*%
X198355000Y-51541698D02*
X198355000Y-51211698D01*
X198355000Y-51211698D02*
X191815000Y-51211698D01*
X191815000Y-51211698D02*
X191815000Y-51541698D01*
X198355000Y-53621698D02*
X198355000Y-53951698D01*
X198355000Y-53951698D02*
X191815000Y-53951698D01*
X191815000Y-53951698D02*
X191815000Y-53621698D01*
%TO.C,R2*%
X191815000Y-59031698D02*
X191815000Y-58701698D01*
X198355000Y-59031698D02*
X191815000Y-59031698D01*
X198355000Y-58701698D02*
X198355000Y-59031698D01*
X191815000Y-56291698D02*
X191815000Y-56621698D01*
X198355000Y-56291698D02*
X191815000Y-56291698D01*
X198355000Y-56621698D02*
X198355000Y-56291698D01*
%TO.C,RN1*%
X166520000Y-31600000D02*
X166520000Y-34400000D01*
X166520000Y-34400000D02*
X153480000Y-34400000D01*
X153480000Y-34400000D02*
X153480000Y-31600000D01*
X153480000Y-31600000D02*
X166520000Y-31600000D01*
X163810000Y-31600000D02*
X163810000Y-34400000D01*
%TO.C,RN2*%
X216190000Y-34400000D02*
X216190000Y-31600000D01*
X226520000Y-34400000D02*
X213480000Y-34400000D01*
X226520000Y-31600000D02*
X226520000Y-34400000D01*
X213480000Y-31600000D02*
X226520000Y-31600000D01*
X213480000Y-34400000D02*
X213480000Y-31600000D01*
%TO.C,U1*%
D10*
X190761904Y-68202380D02*
X190761904Y-69011904D01*
X190714285Y-69107142D01*
X190666666Y-69154761D01*
X190571428Y-69202380D01*
X190380952Y-69202380D01*
X190285714Y-69154761D01*
X190238095Y-69107142D01*
X190190476Y-69011904D01*
X190190476Y-68202380D01*
X189190476Y-69202380D02*
X189761904Y-69202380D01*
X189476190Y-69202380D02*
X189476190Y-68202380D01*
X189571428Y-68345238D01*
X189666666Y-68440476D01*
X189761904Y-68488095D01*
%TO.C,C1*%
X174857142Y-68633333D02*
X174904761Y-68585714D01*
X174952380Y-68442857D01*
X174952380Y-68347619D01*
X174904761Y-68204761D01*
X174809523Y-68109523D01*
X174714285Y-68061904D01*
X174523809Y-68014285D01*
X174380952Y-68014285D01*
X174190476Y-68061904D01*
X174095238Y-68109523D01*
X174000000Y-68204761D01*
X173952380Y-68347619D01*
X173952380Y-68442857D01*
X174000000Y-68585714D01*
X174047619Y-68633333D01*
X174952380Y-69585714D02*
X174952380Y-69014285D01*
X174952380Y-69300000D02*
X173952380Y-69300000D01*
X174095238Y-69204761D01*
X174190476Y-69109523D01*
X174238095Y-69014285D01*
%TO.C,Q1*%
X181297619Y-55026459D02*
X181250000Y-54931221D01*
X181154761Y-54835983D01*
X181011904Y-54693126D01*
X180964285Y-54597888D01*
X180964285Y-54502650D01*
X181202380Y-54550269D02*
X181154761Y-54455031D01*
X181059523Y-54359793D01*
X180869047Y-54312174D01*
X180535714Y-54312174D01*
X180345238Y-54359793D01*
X180250000Y-54455031D01*
X180202380Y-54550269D01*
X180202380Y-54740745D01*
X180250000Y-54835983D01*
X180345238Y-54931221D01*
X180535714Y-54978840D01*
X180869047Y-54978840D01*
X181059523Y-54931221D01*
X181154761Y-54835983D01*
X181202380Y-54740745D01*
X181202380Y-54550269D01*
X181202380Y-55931221D02*
X181202380Y-55359793D01*
X181202380Y-55645507D02*
X180202380Y-55645507D01*
X180345238Y-55550269D01*
X180440476Y-55455031D01*
X180488095Y-55359793D01*
%TO.C,R1*%
X195251666Y-52966578D02*
X195585000Y-52490388D01*
X195823095Y-52966578D02*
X195823095Y-51966578D01*
X195442142Y-51966578D01*
X195346904Y-52014198D01*
X195299285Y-52061817D01*
X195251666Y-52157055D01*
X195251666Y-52299912D01*
X195299285Y-52395150D01*
X195346904Y-52442769D01*
X195442142Y-52490388D01*
X195823095Y-52490388D01*
X194299285Y-52966578D02*
X194870714Y-52966578D01*
X194585000Y-52966578D02*
X194585000Y-51966578D01*
X194680238Y-52109436D01*
X194775476Y-52204674D01*
X194870714Y-52252293D01*
%TO.C,R2*%
X195251666Y-58046578D02*
X195585000Y-57570388D01*
X195823095Y-58046578D02*
X195823095Y-57046578D01*
X195442142Y-57046578D01*
X195346904Y-57094198D01*
X195299285Y-57141817D01*
X195251666Y-57237055D01*
X195251666Y-57379912D01*
X195299285Y-57475150D01*
X195346904Y-57522769D01*
X195442142Y-57570388D01*
X195823095Y-57570388D01*
X194870714Y-57141817D02*
X194823095Y-57094198D01*
X194727857Y-57046578D01*
X194489761Y-57046578D01*
X194394523Y-57094198D01*
X194346904Y-57141817D01*
X194299285Y-57237055D01*
X194299285Y-57332293D01*
X194346904Y-57475150D01*
X194918333Y-58046578D01*
X194299285Y-58046578D01*
%TO.C,RN1*%
X160670476Y-35852380D02*
X161003809Y-35376190D01*
X161241904Y-35852380D02*
X161241904Y-34852380D01*
X160860952Y-34852380D01*
X160765714Y-34900000D01*
X160718095Y-34947619D01*
X160670476Y-35042857D01*
X160670476Y-35185714D01*
X160718095Y-35280952D01*
X160765714Y-35328571D01*
X160860952Y-35376190D01*
X161241904Y-35376190D01*
X160241904Y-35852380D02*
X160241904Y-34852380D01*
X159670476Y-35852380D01*
X159670476Y-34852380D01*
X158670476Y-35852380D02*
X159241904Y-35852380D01*
X158956190Y-35852380D02*
X158956190Y-34852380D01*
X159051428Y-34995238D01*
X159146666Y-35090476D01*
X159241904Y-35138095D01*
%TO.C,RN2*%
X220710476Y-35852380D02*
X221043809Y-35376190D01*
X221281904Y-35852380D02*
X221281904Y-34852380D01*
X220900952Y-34852380D01*
X220805714Y-34900000D01*
X220758095Y-34947619D01*
X220710476Y-35042857D01*
X220710476Y-35185714D01*
X220758095Y-35280952D01*
X220805714Y-35328571D01*
X220900952Y-35376190D01*
X221281904Y-35376190D01*
X220281904Y-35852380D02*
X220281904Y-34852380D01*
X219710476Y-35852380D01*
X219710476Y-34852380D01*
X219281904Y-34947619D02*
X219234285Y-34900000D01*
X219139047Y-34852380D01*
X218900952Y-34852380D01*
X218805714Y-34900000D01*
X218758095Y-34947619D01*
X218710476Y-35042857D01*
X218710476Y-35138095D01*
X218758095Y-35280952D01*
X219329523Y-35852380D01*
X218710476Y-35852380D01*
%TD*%
M02*
