M48
INCH,TZ
T1C0.0079
T2C0.0315
T3C0.0394
T4C0.1260
T5C0.1260
%
G90
G05
T1
X44279Y-33502
X44279Y-24065
X44437Y-34506
X44441Y-24230
X44602Y-32911
X44791Y-32506
X44968Y-31506
X45390Y-30661
X48704Y-33844
X48881Y-36072
X49043Y-23883
X50135Y-31094
X50319Y-30931
X51185Y-13482
X53570Y-24391
X55527Y-19624
X55756Y-37045
X56098Y-35911
X56126Y-25931
X56618Y-19446
X56830Y-11344
X58137Y-25722
X58303Y-18596
X58881Y-28506
X59063Y-30506
X59259Y-31506
X60913Y-40726
X61342Y-18415
X61531Y-20006
X61724Y-33506
X61728Y-19006
X61925Y-21006
X62004Y-40895
X63090Y-41053
X63358Y-20006
X63641Y-15445
X64681Y-18411
X64728Y-41214
X64913Y-16407
X64933Y-17411
X66193Y-17592
X66425Y-19601
X66669Y-23883
X66909Y-35506
X69051Y-32939
X69263Y-33923
X69472Y-34072
X69602Y-15446
X70586Y-36226
X71157Y-11344
X71157Y-15588
X71263Y-25722
X71496Y-28917
X71724Y-29076
X71759Y-16025
X71759Y-19009
X71933Y-30911
X73338Y-15431
X73389Y-28506
X73980Y-34927
X74212Y-31911
X74322Y-29057
X74326Y-13006
X74389Y-33117
X74409Y-40743
X74409Y-37951
X74834Y-17600
X75500Y-38118
X75504Y-40895
X75598Y-36226
X76202Y-16995
X76228Y-35911
X76256Y-24065
X76417Y-36383
X76472Y-27092
X76543Y-24226
X76563Y-29954
X76590Y-41053
X76641Y-26950
X76866Y-28100
X76960Y-14419
X77689Y-38285
X78089Y-35088
X78244Y-36066
X78740Y-17513
X78937Y-37960
X79092Y-38118
X79271Y-31502
X79417Y-39515
X79584Y-39683
X79761Y-38452
X79998Y-38610
X79998Y-41208
X80531Y-36221
X81216Y-24935
X81220Y-30943
X81401Y-25927
X81413Y-31257
X81417Y-19415
X81602Y-26927
X82944Y-15513
X83106Y-17454
X83110Y-13466
X83185Y-28009
X83185Y-30466
X83350Y-17002
X83350Y-13411
X83357Y-33911
X83366Y-26116
X83570Y-28293
X83570Y-33911
X83610Y-38285
X83732Y-27100
X83736Y-33135
X83925Y-27100
X83929Y-34092
X84110Y-32964
X84114Y-25090
X84279Y-31105
X84279Y-38620
X84299Y-24387
X84303Y-28395
X84476Y-31415
X84480Y-38446
X86090Y-16549
X86791Y-34257
X87043Y-34919
X87043Y-33710
X87271Y-24933
X87271Y-25927
X87271Y-26927
X87271Y-28009
X87271Y-29141
X87271Y-29954
X87271Y-30923
X87271Y-32801
X87271Y-34080
X87271Y-36383
X87543Y-33911
X87543Y-35911
X87547Y-33135
T2
X35527Y-17006
X35527Y-19006
X35527Y-21006
X35527Y-23006
X35527Y-24006
X35527Y-25006
X35527Y-27506
X35527Y-28506
X35527Y-29506
X35527Y-30506
X35527Y-31506
X35527Y-32506
X35527Y-33506
X35527Y-34506
X38527Y-17006
X38527Y-19006
X38527Y-21006
X38527Y-23006
X38527Y-24006
X38527Y-25006
X38527Y-27506
X38527Y-28506
X38527Y-29506
X38527Y-30506
X38527Y-31506
X38527Y-32506
X38527Y-33506
X38527Y-34506
X46527Y-19006
X46527Y-23006
X46543Y-26506
X46543Y-27506
X46543Y-28506
X46543Y-29506
X46543Y-30506
X46543Y-31506
X46543Y-32506
X46543Y-33506
X46543Y-34506
X46543Y-35506
X46543Y-36506
X46543Y-37506
X46543Y-38506
X46543Y-39506
X48043Y-26506
X48043Y-27506
X48043Y-28506
X48043Y-29506
X48043Y-30506
X48043Y-31506
X48043Y-32506
X48043Y-33506
X48043Y-34506
X48043Y-35506
X48043Y-36506
X48043Y-37506
X48043Y-38506
X48043Y-39506
X49527Y-19006
X49527Y-23006
X51043Y-26506
X51043Y-27506
X51043Y-28506
X51043Y-29506
X51043Y-30506
X51043Y-31506
X51043Y-32506
X51043Y-33506
X51043Y-34506
X51043Y-35506
X51043Y-36506
X51043Y-37506
X51043Y-38506
X51043Y-39506
X52527Y-12006
X52527Y-13006
X52527Y-14006
X52527Y-15006
X52527Y-16006
X52527Y-17006
X52527Y-18006
X52543Y-26506
X52543Y-27506
X52543Y-28506
X52543Y-29506
X52543Y-30506
X52543Y-31506
X52543Y-32506
X52543Y-33506
X52543Y-34506
X52543Y-35506
X52543Y-36506
X52543Y-37506
X52543Y-38506
X52543Y-39506
X55527Y-12006
X55527Y-13006
X55527Y-14006
X55527Y-15006
X55527Y-16006
X55527Y-17006
X55527Y-18006
X57500Y-26506
X57500Y-27506
X57500Y-28506
X57500Y-29506
X57500Y-30506
X57500Y-31506
X57500Y-32506
X57500Y-33506
X57500Y-34506
X57500Y-35506
X57527Y-12006
X57527Y-13006
X57527Y-14006
X57527Y-15006
X57527Y-16006
X57527Y-17006
X57527Y-18006
X57527Y-19006
X57527Y-20006
X57527Y-21006
X60500Y-26506
X60500Y-27506
X60500Y-28506
X60500Y-29506
X60500Y-30506
X60500Y-31506
X60500Y-32506
X60500Y-33506
X60500Y-34506
X60500Y-35506
X60527Y-12006
X60527Y-13006
X60527Y-14006
X60527Y-15006
X60527Y-16006
X60527Y-17006
X60527Y-18006
X60527Y-19006
X60527Y-20006
X60527Y-21006
X62527Y-12006
X62527Y-13006
X62527Y-14006
X62527Y-15006
X62527Y-16006
X62527Y-17006
X62527Y-18006
X62527Y-19006
X62527Y-26506
X62527Y-27506
X62527Y-28506
X62527Y-29506
X62527Y-30506
X62527Y-31506
X62527Y-32506
X62527Y-33506
X62527Y-34506
X62527Y-35506
X65527Y-12006
X65527Y-13006
X65527Y-14006
X65527Y-15006
X65527Y-16006
X65527Y-17006
X65527Y-18006
X65527Y-19006
X65527Y-26506
X65527Y-27506
X65527Y-28506
X65527Y-29506
X65527Y-30506
X65527Y-31506
X65527Y-32506
X65527Y-33506
X65527Y-34506
X65527Y-35506
X67527Y-12006
X67527Y-13006
X67527Y-14006
X67527Y-15006
X67527Y-16006
X67527Y-17006
X67527Y-18006
X67527Y-19006
X67527Y-20006
X67527Y-21006
X67606Y-26506
X67606Y-27506
X67606Y-28506
X67606Y-29506
X67606Y-30506
X67606Y-31506
X67606Y-32506
X67606Y-33506
X67606Y-34506
X67606Y-35506
X70527Y-12006
X70527Y-13006
X70527Y-14006
X70527Y-15006
X70527Y-16006
X70527Y-17006
X70527Y-18006
X70527Y-19006
X70527Y-20006
X70527Y-21006
X70606Y-26506
X70606Y-27506
X70606Y-28506
X70606Y-29506
X70606Y-30506
X70606Y-31506
X70606Y-32506
X70606Y-33506
X70606Y-34506
X70606Y-35506
X72521Y-22006
X72521Y-23506
X72527Y-12006
X72527Y-13006
X72527Y-14006
X72527Y-15006
X72527Y-16006
X72527Y-17006
X72527Y-18006
X72527Y-19006
X72527Y-25006
X72606Y-26506
X72606Y-27506
X72606Y-28506
X72606Y-29506
X72606Y-30506
X72606Y-31506
X72606Y-32506
X72606Y-33506
X72606Y-34506
X72606Y-35506
X75521Y-22006
X75521Y-23506
X75527Y-12006
X75527Y-13006
X75527Y-14006
X75527Y-15006
X75527Y-16006
X75527Y-17006
X75527Y-18006
X75527Y-19006
X75527Y-25006
X75606Y-26506
X75606Y-27506
X75606Y-28506
X75606Y-29506
X75606Y-30506
X75606Y-31506
X75606Y-32506
X75606Y-33506
X75606Y-34506
X75606Y-35506
X77527Y-12006
X77527Y-13006
X77527Y-14006
X77527Y-15006
X77527Y-16006
X77527Y-17006
X77527Y-18006
X77527Y-26506
X77527Y-27506
X77527Y-28506
X77527Y-29506
X77527Y-30506
X77527Y-31506
X77527Y-32506
X77527Y-33506
X77527Y-34506
X77527Y-35506
X80527Y-12006
X80527Y-13006
X80527Y-14006
X80527Y-15006
X80527Y-16006
X80527Y-17006
X80527Y-18006
X80527Y-26506
X80527Y-27506
X80527Y-28506
X80527Y-29506
X80527Y-30506
X80527Y-31506
X80527Y-32506
X80527Y-33506
X80527Y-34506
X80527Y-35506
X82527Y-15006
X82527Y-16006
X82527Y-17006
X82527Y-18006
X82527Y-19006
X82527Y-20006
X82527Y-21006
X85527Y-15006
X85527Y-16006
X85527Y-17006
X85527Y-18006
X85527Y-19006
X85527Y-20006
X85527Y-21006
T3
X36037Y-36006
X38006Y-36006
X42576Y-13700
X43027Y-12920
X43027Y-14480
X43478Y-13700
X43929Y-12920
X43929Y-14480
X44380Y-13700
X44830Y-12920
X44830Y-14480
X45281Y-13700
X45732Y-12920
X45732Y-14480
X46183Y-13700
X46633Y-12920
X46633Y-14480
X47027Y-17006
X47027Y-21006
X48543Y-41006
X48996Y-17006
X48996Y-21006
X50511Y-41006
X53037Y-19506
X55006Y-19506
X58010Y-37006
X58037Y-22506
X59978Y-37006
X60006Y-22506
X60913Y-38974
X61458Y-40092
X62004Y-38974
X62549Y-40092
X63037Y-20537
X63037Y-37006
X63094Y-38974
X63639Y-40092
X64185Y-38974
X64730Y-40092
X65006Y-20537
X65006Y-37006
X65275Y-38974
X68027Y-22506
X68116Y-37006
X69996Y-22506
X70084Y-37006
X73037Y-20506
X73116Y-37006
X74409Y-38974
X74955Y-40092
X75006Y-20506
X75084Y-37006
X75500Y-38974
X76045Y-40092
X76591Y-38974
X77136Y-40092
X77681Y-38974
X78059Y-19506
X78059Y-22006
X78059Y-23506
X78059Y-25006
X78106Y-37006
X78226Y-40092
X78772Y-38974
X80027Y-19506
X80027Y-22006
X80027Y-23506
X80027Y-25006
X80074Y-37006
X82527Y-29006
X82527Y-32006
X82527Y-35006
X83027Y-22506
X83043Y-37006
X84996Y-22506
X85011Y-37006
X85527Y-29006
X85527Y-32006
X85527Y-35006
T4
X39805Y-13920
X49647Y-13920
X58173Y-39533
X68015Y-39533
X71669Y-39533
X81512Y-39533
T5
X36464Y-12006
X36464Y-40746
X84889Y-12006
X84889Y-40746
T0
M30
