G04 #@! TF.GenerationSoftware,KiCad,Pcbnew,5.1.10*
G04 #@! TF.CreationDate,2022-03-17T22:20:55-07:00*
G04 #@! TF.ProjectId,zf_vga,7a665f76-6761-42e6-9b69-6361645f7063,rev?*
G04 #@! TF.SameCoordinates,Original*
G04 #@! TF.FileFunction,Legend,Top*
G04 #@! TF.FilePolarity,Positive*
%FSLAX46Y46*%
G04 Gerber Fmt 4.6, Leading zero omitted, Abs format (unit mm)*
G04 Created by KiCad (PCBNEW 5.1.10) date 2022-03-17 22:20:55*
%MOMM*%
%LPD*%
G01*
G04 APERTURE LIST*
%ADD10C,0.120000*%
%ADD11C,0.010000*%
%ADD12C,0.150000*%
G04 APERTURE END LIST*
D10*
X127399000Y-65994000D02*
X119743000Y-65994000D01*
X127399000Y-101674000D02*
X119743000Y-101674000D01*
X119743000Y-65994000D02*
X119743000Y-101674000D01*
X127399000Y-101674000D02*
X128649000Y-101674000D01*
X127399000Y-65994000D02*
X127399000Y-101674000D01*
X131899000Y-65994000D02*
X127399000Y-65994000D01*
X131899000Y-101674000D02*
X131899000Y-65994000D01*
X130649000Y-101674000D02*
X131899000Y-101674000D01*
X128649000Y-101674000D02*
G75*
G02*
X130649000Y-101674000I1000000J0D01*
G01*
D11*
G36*
X115041399Y-42775376D02*
G01*
X110634511Y-47182288D01*
X106227624Y-51589200D01*
X112340632Y-51589200D01*
X114507900Y-49421734D01*
X115041399Y-49421734D01*
X115041399Y-52672934D01*
X103264286Y-52672934D01*
X108682933Y-47254267D01*
X114101579Y-41835600D01*
X115041399Y-41835600D01*
X115041399Y-42775376D01*
G37*
X115041399Y-42775376D02*
X110634511Y-47182288D01*
X106227624Y-51589200D01*
X112340632Y-51589200D01*
X114507900Y-49421734D01*
X115041399Y-49421734D01*
X115041399Y-52672934D01*
X103264286Y-52672934D01*
X108682933Y-47254267D01*
X114101579Y-41835600D01*
X115041399Y-41835600D01*
X115041399Y-42775376D01*
G36*
X102840952Y-52672934D02*
G01*
X102036599Y-52672934D01*
X102036599Y-51597692D01*
X106375753Y-47258513D01*
X110714908Y-42919334D01*
X104737367Y-42919334D01*
X103653732Y-44003067D01*
X102570098Y-45086800D01*
X102036599Y-45086800D01*
X102036599Y-41835600D01*
X113678246Y-41835600D01*
X102840952Y-52672934D01*
G37*
X102840952Y-52672934D02*
X102036599Y-52672934D01*
X102036599Y-51597692D01*
X106375753Y-47258513D01*
X110714908Y-42919334D01*
X104737367Y-42919334D01*
X103653732Y-44003067D01*
X102570098Y-45086800D01*
X102036599Y-45086800D01*
X102036599Y-41835600D01*
X113678246Y-41835600D01*
X102840952Y-52672934D01*
G36*
X114420373Y-53485874D02*
G01*
X114554818Y-53486673D01*
X114662624Y-53488699D01*
X114747403Y-53492520D01*
X114812768Y-53498703D01*
X114862333Y-53507816D01*
X114899710Y-53520428D01*
X114928513Y-53537105D01*
X114952356Y-53558416D01*
X114974851Y-53584928D01*
X114986985Y-53600658D01*
X115007736Y-53630787D01*
X115021466Y-53661556D01*
X115030022Y-53701377D01*
X115035248Y-53758660D01*
X115038809Y-53836917D01*
X115045357Y-54013819D01*
X114898881Y-54163067D01*
X114970140Y-54235674D01*
X115041399Y-54308282D01*
X115041399Y-54840400D01*
X114770466Y-54840400D01*
X114770466Y-54298533D01*
X113957666Y-54298533D01*
X113957666Y-54840400D01*
X113686732Y-54840400D01*
X113686732Y-53756667D01*
X113957666Y-53756667D01*
X113957666Y-54027600D01*
X114770466Y-54027600D01*
X114770466Y-53756667D01*
X113957666Y-53756667D01*
X113686732Y-53756667D01*
X113686732Y-53485733D01*
X114255673Y-53485733D01*
X114420373Y-53485874D01*
G37*
X114420373Y-53485874D02*
X114554818Y-53486673D01*
X114662624Y-53488699D01*
X114747403Y-53492520D01*
X114812768Y-53498703D01*
X114862333Y-53507816D01*
X114899710Y-53520428D01*
X114928513Y-53537105D01*
X114952356Y-53558416D01*
X114974851Y-53584928D01*
X114986985Y-53600658D01*
X115007736Y-53630787D01*
X115021466Y-53661556D01*
X115030022Y-53701377D01*
X115035248Y-53758660D01*
X115038809Y-53836917D01*
X115045357Y-54013819D01*
X114898881Y-54163067D01*
X114970140Y-54235674D01*
X115041399Y-54308282D01*
X115041399Y-54840400D01*
X114770466Y-54840400D01*
X114770466Y-54298533D01*
X113957666Y-54298533D01*
X113957666Y-54840400D01*
X113686732Y-54840400D01*
X113686732Y-53756667D01*
X113957666Y-53756667D01*
X113957666Y-54027600D01*
X114770466Y-54027600D01*
X114770466Y-53756667D01*
X113957666Y-53756667D01*
X113686732Y-53756667D01*
X113686732Y-53485733D01*
X114255673Y-53485733D01*
X114420373Y-53485874D01*
G36*
X112873933Y-53756667D02*
G01*
X111790199Y-53756667D01*
X111790199Y-54027600D01*
X112332066Y-54027600D01*
X112332066Y-54298533D01*
X111790199Y-54298533D01*
X111790199Y-54569467D01*
X112873933Y-54569467D01*
X112873933Y-54840400D01*
X111519266Y-54840400D01*
X111519266Y-53485733D01*
X112873933Y-53485733D01*
X112873933Y-53756667D01*
G37*
X112873933Y-53756667D02*
X111790199Y-53756667D01*
X111790199Y-54027600D01*
X112332066Y-54027600D01*
X112332066Y-54298533D01*
X111790199Y-54298533D01*
X111790199Y-54569467D01*
X112873933Y-54569467D01*
X112873933Y-54840400D01*
X111519266Y-54840400D01*
X111519266Y-53485733D01*
X112873933Y-53485733D01*
X112873933Y-53756667D01*
G36*
X110706466Y-53756667D02*
G01*
X110164599Y-53756667D01*
X110164599Y-54840400D01*
X109893666Y-54840400D01*
X109893666Y-53756667D01*
X109351799Y-53756667D01*
X109351799Y-53485733D01*
X110706466Y-53485733D01*
X110706466Y-53756667D01*
G37*
X110706466Y-53756667D02*
X110164599Y-53756667D01*
X110164599Y-54840400D01*
X109893666Y-54840400D01*
X109893666Y-53756667D01*
X109351799Y-53756667D01*
X109351799Y-53485733D01*
X110706466Y-53485733D01*
X110706466Y-53756667D01*
G36*
X107455266Y-54027600D02*
G01*
X108268066Y-54027600D01*
X108268066Y-53485733D01*
X108538999Y-53485733D01*
X108538999Y-54840400D01*
X108268066Y-54840400D01*
X108268066Y-54298533D01*
X107455266Y-54298533D01*
X107455266Y-54840400D01*
X107184332Y-54840400D01*
X107184332Y-53485733D01*
X107455266Y-53485733D01*
X107455266Y-54027600D01*
G37*
X107455266Y-54027600D02*
X108268066Y-54027600D01*
X108268066Y-53485733D01*
X108538999Y-53485733D01*
X108538999Y-54840400D01*
X108268066Y-54840400D01*
X108268066Y-54298533D01*
X107455266Y-54298533D01*
X107455266Y-54840400D01*
X107184332Y-54840400D01*
X107184332Y-53485733D01*
X107455266Y-53485733D01*
X107455266Y-54027600D01*
G36*
X106100599Y-53756667D02*
G01*
X105287799Y-53756667D01*
X105287799Y-54569467D01*
X106100599Y-54569467D01*
X106100599Y-54298533D01*
X105829666Y-54298533D01*
X105829666Y-54027600D01*
X106371533Y-54027600D01*
X106371533Y-54320346D01*
X106371220Y-54428288D01*
X106369863Y-54508425D01*
X106366836Y-54566813D01*
X106361512Y-54609512D01*
X106353264Y-54642580D01*
X106341465Y-54672074D01*
X106333433Y-54688576D01*
X106277876Y-54764653D01*
X106227599Y-54801952D01*
X106206338Y-54813171D01*
X106184570Y-54821924D01*
X106158000Y-54828517D01*
X106122332Y-54833252D01*
X106073270Y-54836435D01*
X106006519Y-54838369D01*
X105917784Y-54839360D01*
X105802769Y-54839710D01*
X105694199Y-54839736D01*
X105552264Y-54839450D01*
X105440105Y-54838521D01*
X105353634Y-54836729D01*
X105288764Y-54833858D01*
X105241405Y-54829690D01*
X105207470Y-54824006D01*
X105182872Y-54816589D01*
X105172308Y-54811922D01*
X105125097Y-54779787D01*
X105079226Y-54735226D01*
X105070708Y-54724726D01*
X105025333Y-54665236D01*
X105025333Y-53660897D01*
X105070943Y-53601098D01*
X105097529Y-53568163D01*
X105124154Y-53542165D01*
X105155046Y-53522287D01*
X105194430Y-53507711D01*
X105246534Y-53497619D01*
X105315584Y-53491193D01*
X105405807Y-53487615D01*
X105521429Y-53486068D01*
X105666677Y-53485734D01*
X105667125Y-53485733D01*
X106100599Y-53485733D01*
X106100599Y-53756667D01*
G37*
X106100599Y-53756667D02*
X105287799Y-53756667D01*
X105287799Y-54569467D01*
X106100599Y-54569467D01*
X106100599Y-54298533D01*
X105829666Y-54298533D01*
X105829666Y-54027600D01*
X106371533Y-54027600D01*
X106371533Y-54320346D01*
X106371220Y-54428288D01*
X106369863Y-54508425D01*
X106366836Y-54566813D01*
X106361512Y-54609512D01*
X106353264Y-54642580D01*
X106341465Y-54672074D01*
X106333433Y-54688576D01*
X106277876Y-54764653D01*
X106227599Y-54801952D01*
X106206338Y-54813171D01*
X106184570Y-54821924D01*
X106158000Y-54828517D01*
X106122332Y-54833252D01*
X106073270Y-54836435D01*
X106006519Y-54838369D01*
X105917784Y-54839360D01*
X105802769Y-54839710D01*
X105694199Y-54839736D01*
X105552264Y-54839450D01*
X105440105Y-54838521D01*
X105353634Y-54836729D01*
X105288764Y-54833858D01*
X105241405Y-54829690D01*
X105207470Y-54824006D01*
X105182872Y-54816589D01*
X105172308Y-54811922D01*
X105125097Y-54779787D01*
X105079226Y-54735226D01*
X105070708Y-54724726D01*
X105025333Y-54665236D01*
X105025333Y-53660897D01*
X105070943Y-53601098D01*
X105097529Y-53568163D01*
X105124154Y-53542165D01*
X105155046Y-53522287D01*
X105194430Y-53507711D01*
X105246534Y-53497619D01*
X105315584Y-53491193D01*
X105405807Y-53487615D01*
X105521429Y-53486068D01*
X105666677Y-53485734D01*
X105667125Y-53485733D01*
X106100599Y-53485733D01*
X106100599Y-53756667D01*
G36*
X104204066Y-54840400D02*
G01*
X103933132Y-54840400D01*
X103933132Y-53485733D01*
X104204066Y-53485733D01*
X104204066Y-54840400D01*
G37*
X104204066Y-54840400D02*
X103933132Y-54840400D01*
X103933132Y-53485733D01*
X104204066Y-53485733D01*
X104204066Y-54840400D01*
G36*
X103391266Y-53756667D02*
G01*
X102307533Y-53756667D01*
X102307533Y-54027600D01*
X102849399Y-54027600D01*
X102849399Y-54298533D01*
X102307533Y-54298533D01*
X102307533Y-54840400D01*
X102036599Y-54840400D01*
X102036599Y-53485733D01*
X103391266Y-53485733D01*
X103391266Y-53756667D01*
G37*
X103391266Y-53756667D02*
X102307533Y-53756667D01*
X102307533Y-54027600D01*
X102849399Y-54027600D01*
X102849399Y-54298533D01*
X102307533Y-54298533D01*
X102307533Y-54840400D01*
X102036599Y-54840400D01*
X102036599Y-53485733D01*
X103391266Y-53485733D01*
X103391266Y-53756667D01*
D10*
X129089000Y-24528000D02*
X129089000Y-38418000D01*
X129089000Y-38418000D02*
X98119000Y-38418000D01*
X98119000Y-38418000D02*
X98119000Y-24528000D01*
X179055000Y-109474000D02*
X179055000Y-97134000D01*
X179055000Y-97134000D02*
X210025000Y-97134000D01*
X210025000Y-97134000D02*
X210025000Y-109474000D01*
X144774000Y-109474000D02*
X144774000Y-97134000D01*
X144774000Y-97134000D02*
X175744000Y-97134000D01*
X175744000Y-97134000D02*
X175744000Y-109474000D01*
X219129000Y-78654000D02*
X207729000Y-78654000D01*
X207729000Y-78654000D02*
G75*
G03*
X206979000Y-79404000I0J-750000D01*
G01*
X219879000Y-79404000D02*
G75*
G03*
X219129000Y-78654000I-750000J0D01*
G01*
X219879000Y-91744000D02*
X219879000Y-71594000D01*
X219129000Y-70844000D02*
X207729000Y-70844000D01*
X206979000Y-71594000D02*
X206979000Y-90994000D01*
X207729000Y-91744000D02*
X219879000Y-91744000D01*
X206979000Y-90994000D02*
G75*
G03*
X207729000Y-91744000I750000J0D01*
G01*
X207729000Y-70844000D02*
G75*
G03*
X206979000Y-71594000I0J-750000D01*
G01*
X219879000Y-71594000D02*
G75*
G03*
X219129000Y-70844000I-750000J0D01*
G01*
X146044000Y-55794000D02*
X153784000Y-55794000D01*
X146044000Y-58534000D02*
X153784000Y-58534000D01*
X146044000Y-55794000D02*
X146044000Y-58534000D01*
X153784000Y-55794000D02*
X153784000Y-58534000D01*
X176329000Y-54684000D02*
X177579000Y-54684000D01*
X177579000Y-54684000D02*
X177579000Y-29164000D01*
X177579000Y-29164000D02*
X173079000Y-29164000D01*
X173079000Y-29164000D02*
X173079000Y-54684000D01*
X173079000Y-54684000D02*
X174329000Y-54684000D01*
X174329000Y-54684000D02*
G75*
G02*
X176329000Y-54684000I1000000J0D01*
G01*
X201729000Y-91514000D02*
X202979000Y-91514000D01*
X202979000Y-91514000D02*
X202979000Y-65994000D01*
X202979000Y-65994000D02*
X198479000Y-65994000D01*
X198479000Y-65994000D02*
X198479000Y-91514000D01*
X198479000Y-91514000D02*
X199729000Y-91514000D01*
X199729000Y-91514000D02*
G75*
G02*
X201729000Y-91514000I1000000J0D01*
G01*
X189029000Y-49604000D02*
X190279000Y-49604000D01*
X190279000Y-49604000D02*
X190279000Y-29164000D01*
X190279000Y-29164000D02*
X185779000Y-29164000D01*
X185779000Y-29164000D02*
X185779000Y-49604000D01*
X185779000Y-49604000D02*
X187029000Y-49604000D01*
X187029000Y-49604000D02*
G75*
G02*
X189029000Y-49604000I1000000J0D01*
G01*
X189229000Y-91514000D02*
X190479000Y-91514000D01*
X190479000Y-91514000D02*
X190479000Y-65994000D01*
X190479000Y-65994000D02*
X185979000Y-65994000D01*
X185979000Y-65994000D02*
X185979000Y-91514000D01*
X185979000Y-91514000D02*
X187229000Y-91514000D01*
X187229000Y-91514000D02*
G75*
G02*
X189229000Y-91514000I1000000J0D01*
G01*
X176529000Y-91514000D02*
X177779000Y-91514000D01*
X177779000Y-91514000D02*
X177779000Y-65994000D01*
X177779000Y-65994000D02*
X173279000Y-65994000D01*
X173279000Y-65994000D02*
X173279000Y-91514000D01*
X173279000Y-91514000D02*
X174529000Y-91514000D01*
X174529000Y-91514000D02*
G75*
G02*
X176529000Y-91514000I1000000J0D01*
G01*
X163629000Y-49604000D02*
X164879000Y-49604000D01*
X164879000Y-49604000D02*
X164879000Y-29164000D01*
X164879000Y-29164000D02*
X160379000Y-29164000D01*
X160379000Y-29164000D02*
X160379000Y-49604000D01*
X160379000Y-49604000D02*
X161629000Y-49604000D01*
X161629000Y-49604000D02*
G75*
G02*
X163629000Y-49604000I1000000J0D01*
G01*
X163629000Y-91514000D02*
X164879000Y-91514000D01*
X164879000Y-91514000D02*
X164879000Y-65994000D01*
X164879000Y-65994000D02*
X160379000Y-65994000D01*
X160379000Y-65994000D02*
X160379000Y-91514000D01*
X160379000Y-91514000D02*
X161629000Y-91514000D01*
X161629000Y-91514000D02*
G75*
G02*
X163629000Y-91514000I1000000J0D01*
G01*
X147610000Y-91514000D02*
X148860000Y-91514000D01*
X147610000Y-65994000D02*
X147610000Y-91514000D01*
X152110000Y-65994000D02*
X147610000Y-65994000D01*
X152110000Y-91514000D02*
X152110000Y-65994000D01*
X150860000Y-91514000D02*
X152110000Y-91514000D01*
X148860000Y-91514000D02*
G75*
G02*
X150860000Y-91514000I1000000J0D01*
G01*
X150929000Y-54684000D02*
X152179000Y-54684000D01*
X152179000Y-54684000D02*
X152179000Y-29164000D01*
X152179000Y-29164000D02*
X147679000Y-29164000D01*
X147679000Y-29164000D02*
X147679000Y-54684000D01*
X147679000Y-54684000D02*
X148929000Y-54684000D01*
X148929000Y-54684000D02*
G75*
G02*
X150929000Y-54684000I1000000J0D01*
G01*
X211179000Y-54684000D02*
X212429000Y-54684000D01*
X211179000Y-36784000D02*
X211179000Y-54684000D01*
X215679000Y-36784000D02*
X211179000Y-36784000D01*
X215679000Y-54684000D02*
X215679000Y-36784000D01*
X214429000Y-54684000D02*
X215679000Y-54684000D01*
X212429000Y-54684000D02*
G75*
G02*
X214429000Y-54684000I1000000J0D01*
G01*
X138229000Y-47064000D02*
X139479000Y-47064000D01*
X139479000Y-47064000D02*
X139479000Y-29164000D01*
X139479000Y-29164000D02*
X134979000Y-29164000D01*
X134979000Y-29164000D02*
X134979000Y-47064000D01*
X134979000Y-47064000D02*
X136229000Y-47064000D01*
X136229000Y-47064000D02*
G75*
G02*
X138229000Y-47064000I1000000J0D01*
G01*
X201729000Y-47064000D02*
X202979000Y-47064000D01*
X202979000Y-47064000D02*
X202979000Y-29164000D01*
X202979000Y-29164000D02*
X198479000Y-29164000D01*
X198479000Y-29164000D02*
X198479000Y-47064000D01*
X198479000Y-47064000D02*
X199729000Y-47064000D01*
X199729000Y-47064000D02*
G75*
G02*
X201729000Y-47064000I1000000J0D01*
G01*
X91799000Y-88974000D02*
X93049000Y-88974000D01*
X91799000Y-68534000D02*
X91799000Y-88974000D01*
X96299000Y-68534000D02*
X91799000Y-68534000D01*
X96299000Y-88974000D02*
X96299000Y-68534000D01*
X95049000Y-88974000D02*
X96299000Y-88974000D01*
X93049000Y-88974000D02*
G75*
G02*
X95049000Y-88974000I1000000J0D01*
G01*
X196899000Y-64884000D02*
X196899000Y-62144000D01*
X204639000Y-64884000D02*
X204639000Y-62144000D01*
X204639000Y-62144000D02*
X196899000Y-62144000D01*
X204639000Y-64884000D02*
X196899000Y-64884000D01*
X204639000Y-61074000D02*
X196899000Y-61074000D01*
X204639000Y-58334000D02*
X196899000Y-58334000D01*
X204639000Y-61074000D02*
X204639000Y-58334000D01*
X196899000Y-61074000D02*
X196899000Y-58334000D01*
X196899000Y-57264000D02*
X196899000Y-54524000D01*
X204639000Y-57264000D02*
X204639000Y-54524000D01*
X204639000Y-54524000D02*
X196899000Y-54524000D01*
X204639000Y-57264000D02*
X196899000Y-57264000D01*
X125819000Y-51984000D02*
X125819000Y-54724000D01*
X118079000Y-51984000D02*
X118079000Y-54724000D01*
X118079000Y-54724000D02*
X125819000Y-54724000D01*
X118079000Y-51984000D02*
X125819000Y-51984000D01*
X125819000Y-41824000D02*
X125819000Y-44564000D01*
X118079000Y-41824000D02*
X118079000Y-44564000D01*
X118079000Y-44564000D02*
X125819000Y-44564000D01*
X118079000Y-41824000D02*
X125819000Y-41824000D01*
X191299000Y-64554000D02*
X191299000Y-64884000D01*
X191299000Y-64884000D02*
X184759000Y-64884000D01*
X184759000Y-64884000D02*
X184759000Y-64554000D01*
X191299000Y-62474000D02*
X191299000Y-62144000D01*
X191299000Y-62144000D02*
X184759000Y-62144000D01*
X184759000Y-62144000D02*
X184759000Y-62474000D01*
X184744000Y-58334000D02*
X184744000Y-58664000D01*
X191284000Y-58334000D02*
X184744000Y-58334000D01*
X191284000Y-58664000D02*
X191284000Y-58334000D01*
X184744000Y-61074000D02*
X184744000Y-60744000D01*
X191284000Y-61074000D02*
X184744000Y-61074000D01*
X191284000Y-60744000D02*
X191284000Y-61074000D01*
X191284000Y-56934000D02*
X191284000Y-57264000D01*
X191284000Y-57264000D02*
X184744000Y-57264000D01*
X184744000Y-57264000D02*
X184744000Y-56934000D01*
X191284000Y-54854000D02*
X191284000Y-54524000D01*
X191284000Y-54524000D02*
X184744000Y-54524000D01*
X184744000Y-54524000D02*
X184744000Y-54854000D01*
X90779000Y-42154000D02*
X90779000Y-41824000D01*
X90779000Y-41824000D02*
X97319000Y-41824000D01*
X97319000Y-41824000D02*
X97319000Y-42154000D01*
X90779000Y-44234000D02*
X90779000Y-44564000D01*
X90779000Y-44564000D02*
X97319000Y-44564000D01*
X97319000Y-44564000D02*
X97319000Y-44234000D01*
X90779000Y-47234000D02*
X90779000Y-46904000D01*
X90779000Y-46904000D02*
X97319000Y-46904000D01*
X97319000Y-46904000D02*
X97319000Y-47234000D01*
X90779000Y-49314000D02*
X90779000Y-49644000D01*
X90779000Y-49644000D02*
X97319000Y-49644000D01*
X97319000Y-49644000D02*
X97319000Y-49314000D01*
X90779000Y-52314000D02*
X90779000Y-51984000D01*
X90779000Y-51984000D02*
X97319000Y-51984000D01*
X97319000Y-51984000D02*
X97319000Y-52314000D01*
X90779000Y-54394000D02*
X90779000Y-54724000D01*
X90779000Y-54724000D02*
X97319000Y-54724000D01*
X97319000Y-54724000D02*
X97319000Y-54394000D01*
X118719000Y-57064000D02*
X118719000Y-57394000D01*
X125259000Y-57064000D02*
X118719000Y-57064000D01*
X125259000Y-57394000D02*
X125259000Y-57064000D01*
X118719000Y-59804000D02*
X118719000Y-59474000D01*
X125259000Y-59804000D02*
X118719000Y-59804000D01*
X125259000Y-59474000D02*
X125259000Y-59804000D01*
X125259000Y-49314000D02*
X125259000Y-49644000D01*
X125259000Y-49644000D02*
X118719000Y-49644000D01*
X118719000Y-49644000D02*
X118719000Y-49314000D01*
X125259000Y-47234000D02*
X125259000Y-46904000D01*
X125259000Y-46904000D02*
X118719000Y-46904000D01*
X118719000Y-46904000D02*
X118719000Y-47234000D01*
X217299000Y-92624000D02*
X217299000Y-95364000D01*
X209559000Y-92624000D02*
X209559000Y-95364000D01*
X209559000Y-95364000D02*
X217299000Y-95364000D01*
X209559000Y-92624000D02*
X217299000Y-92624000D01*
X184144000Y-50714000D02*
X191884000Y-50714000D01*
X184144000Y-53454000D02*
X191884000Y-53454000D01*
X184144000Y-50714000D02*
X184144000Y-53454000D01*
X191884000Y-50714000D02*
X191884000Y-53454000D01*
X166484000Y-50794000D02*
X166484000Y-53534000D01*
X158744000Y-50794000D02*
X158744000Y-53534000D01*
X158744000Y-53534000D02*
X166484000Y-53534000D01*
X158744000Y-50794000D02*
X166484000Y-50794000D01*
X171419000Y-55794000D02*
X179159000Y-55794000D01*
X171419000Y-58534000D02*
X179159000Y-58534000D01*
X171419000Y-55794000D02*
X171419000Y-58534000D01*
X179159000Y-55794000D02*
X179159000Y-58534000D01*
X166484000Y-92624000D02*
X166484000Y-95364000D01*
X158744000Y-92624000D02*
X158744000Y-95364000D01*
X158744000Y-95364000D02*
X166484000Y-95364000D01*
X158744000Y-92624000D02*
X166484000Y-92624000D01*
X145975000Y-92624000D02*
X153715000Y-92624000D01*
X145975000Y-95364000D02*
X153715000Y-95364000D01*
X145975000Y-92624000D02*
X145975000Y-95364000D01*
X153715000Y-92624000D02*
X153715000Y-95364000D01*
X217259000Y-55794000D02*
X217259000Y-58534000D01*
X209519000Y-55794000D02*
X209519000Y-58534000D01*
X209519000Y-58534000D02*
X217259000Y-58534000D01*
X209519000Y-55794000D02*
X217259000Y-55794000D01*
X196899000Y-48174000D02*
X204639000Y-48174000D01*
X196899000Y-50914000D02*
X204639000Y-50914000D01*
X196899000Y-48174000D02*
X196899000Y-50914000D01*
X204639000Y-48174000D02*
X204639000Y-50914000D01*
X141084000Y-48174000D02*
X141084000Y-50914000D01*
X133344000Y-48174000D02*
X133344000Y-50914000D01*
X133344000Y-50914000D02*
X141084000Y-50914000D01*
X133344000Y-48174000D02*
X141084000Y-48174000D01*
X97904000Y-90084000D02*
X97904000Y-92824000D01*
X90164000Y-90084000D02*
X90164000Y-92824000D01*
X90164000Y-92824000D02*
X97904000Y-92824000D01*
X90164000Y-90084000D02*
X97904000Y-90084000D01*
X133479000Y-102784000D02*
X133479000Y-105524000D01*
X125739000Y-102784000D02*
X125739000Y-105524000D01*
X125739000Y-105524000D02*
X133479000Y-105524000D01*
X125739000Y-102784000D02*
X133479000Y-102784000D01*
X204759000Y-92624000D02*
X204759000Y-95364000D01*
X197019000Y-92624000D02*
X197019000Y-95364000D01*
X197019000Y-95364000D02*
X204759000Y-95364000D01*
X197019000Y-92624000D02*
X204759000Y-92624000D01*
X184344000Y-92624000D02*
X192084000Y-92624000D01*
X184344000Y-95364000D02*
X192084000Y-95364000D01*
X184344000Y-92624000D02*
X184344000Y-95364000D01*
X192084000Y-92624000D02*
X192084000Y-95364000D01*
X171644000Y-92624000D02*
X179384000Y-92624000D01*
X171644000Y-95364000D02*
X179384000Y-95364000D01*
X171644000Y-92624000D02*
X171644000Y-95364000D01*
X179384000Y-92624000D02*
X179384000Y-95364000D01*
X95049000Y-64844000D02*
X96299000Y-64844000D01*
X96299000Y-64844000D02*
X96299000Y-57104000D01*
X96299000Y-57104000D02*
X91799000Y-57104000D01*
X91799000Y-57104000D02*
X91799000Y-64844000D01*
X91799000Y-64844000D02*
X93049000Y-64844000D01*
X93049000Y-64844000D02*
G75*
G02*
X95049000Y-64844000I1000000J0D01*
G01*
D12*
X129101380Y-85072095D02*
X129910904Y-85072095D01*
X130006142Y-85024476D01*
X130053761Y-84976857D01*
X130101380Y-84881619D01*
X130101380Y-84691142D01*
X130053761Y-84595904D01*
X130006142Y-84548285D01*
X129910904Y-84500666D01*
X129101380Y-84500666D01*
X130101380Y-83500666D02*
X130101380Y-84072095D01*
X130101380Y-83786380D02*
X129101380Y-83786380D01*
X129244238Y-83881619D01*
X129339476Y-83976857D01*
X129387095Y-84072095D01*
X130101380Y-82548285D02*
X130101380Y-83119714D01*
X130101380Y-82834000D02*
X129101380Y-82834000D01*
X129244238Y-82929238D01*
X129339476Y-83024476D01*
X129387095Y-83119714D01*
X108464238Y-26835380D02*
X108797571Y-27835380D01*
X109130904Y-26835380D01*
X109988047Y-26883000D02*
X109892809Y-26835380D01*
X109749952Y-26835380D01*
X109607095Y-26883000D01*
X109511857Y-26978238D01*
X109464238Y-27073476D01*
X109416619Y-27263952D01*
X109416619Y-27406809D01*
X109464238Y-27597285D01*
X109511857Y-27692523D01*
X109607095Y-27787761D01*
X109749952Y-27835380D01*
X109845190Y-27835380D01*
X109988047Y-27787761D01*
X110035666Y-27740142D01*
X110035666Y-27406809D01*
X109845190Y-27406809D01*
X110416619Y-27549666D02*
X110892809Y-27549666D01*
X110321380Y-27835380D02*
X110654714Y-26835380D01*
X110988047Y-27835380D01*
X112654714Y-27740142D02*
X112607095Y-27787761D01*
X112464238Y-27835380D01*
X112369000Y-27835380D01*
X112226142Y-27787761D01*
X112130904Y-27692523D01*
X112083285Y-27597285D01*
X112035666Y-27406809D01*
X112035666Y-27263952D01*
X112083285Y-27073476D01*
X112130904Y-26978238D01*
X112226142Y-26883000D01*
X112369000Y-26835380D01*
X112464238Y-26835380D01*
X112607095Y-26883000D01*
X112654714Y-26930619D01*
X113226142Y-27835380D02*
X113130904Y-27787761D01*
X113083285Y-27740142D01*
X113035666Y-27644904D01*
X113035666Y-27359190D01*
X113083285Y-27263952D01*
X113130904Y-27216333D01*
X113226142Y-27168714D01*
X113369000Y-27168714D01*
X113464238Y-27216333D01*
X113511857Y-27263952D01*
X113559476Y-27359190D01*
X113559476Y-27644904D01*
X113511857Y-27740142D01*
X113464238Y-27787761D01*
X113369000Y-27835380D01*
X113226142Y-27835380D01*
X113988047Y-27168714D02*
X113988047Y-27835380D01*
X113988047Y-27263952D02*
X114035666Y-27216333D01*
X114130904Y-27168714D01*
X114273761Y-27168714D01*
X114369000Y-27216333D01*
X114416619Y-27311571D01*
X114416619Y-27835380D01*
X114892809Y-27168714D02*
X114892809Y-27835380D01*
X114892809Y-27263952D02*
X114940428Y-27216333D01*
X115035666Y-27168714D01*
X115178523Y-27168714D01*
X115273761Y-27216333D01*
X115321380Y-27311571D01*
X115321380Y-27835380D01*
X116178523Y-27787761D02*
X116083285Y-27835380D01*
X115892809Y-27835380D01*
X115797571Y-27787761D01*
X115749952Y-27692523D01*
X115749952Y-27311571D01*
X115797571Y-27216333D01*
X115892809Y-27168714D01*
X116083285Y-27168714D01*
X116178523Y-27216333D01*
X116226142Y-27311571D01*
X116226142Y-27406809D01*
X115749952Y-27502047D01*
X117083285Y-27787761D02*
X116988047Y-27835380D01*
X116797571Y-27835380D01*
X116702333Y-27787761D01*
X116654714Y-27740142D01*
X116607095Y-27644904D01*
X116607095Y-27359190D01*
X116654714Y-27263952D01*
X116702333Y-27216333D01*
X116797571Y-27168714D01*
X116988047Y-27168714D01*
X117083285Y-27216333D01*
X117369000Y-27168714D02*
X117749952Y-27168714D01*
X117511857Y-26835380D02*
X117511857Y-27692523D01*
X117559476Y-27787761D01*
X117654714Y-27835380D01*
X117749952Y-27835380D01*
X118226142Y-27835380D02*
X118130904Y-27787761D01*
X118083285Y-27740142D01*
X118035666Y-27644904D01*
X118035666Y-27359190D01*
X118083285Y-27263952D01*
X118130904Y-27216333D01*
X118226142Y-27168714D01*
X118369000Y-27168714D01*
X118464238Y-27216333D01*
X118511857Y-27263952D01*
X118559476Y-27359190D01*
X118559476Y-27644904D01*
X118511857Y-27740142D01*
X118464238Y-27787761D01*
X118369000Y-27835380D01*
X118226142Y-27835380D01*
X118988047Y-27835380D02*
X118988047Y-27168714D01*
X118988047Y-27359190D02*
X119035666Y-27263952D01*
X119083285Y-27216333D01*
X119178523Y-27168714D01*
X119273761Y-27168714D01*
X191230476Y-106591380D02*
X191230476Y-107305666D01*
X191182857Y-107448523D01*
X191087619Y-107543761D01*
X190944761Y-107591380D01*
X190849523Y-107591380D01*
X191849523Y-107591380D02*
X191754285Y-107543761D01*
X191706666Y-107496142D01*
X191659047Y-107400904D01*
X191659047Y-107115190D01*
X191706666Y-107019952D01*
X191754285Y-106972333D01*
X191849523Y-106924714D01*
X191992380Y-106924714D01*
X192087619Y-106972333D01*
X192135238Y-107019952D01*
X192182857Y-107115190D01*
X192182857Y-107400904D01*
X192135238Y-107496142D01*
X192087619Y-107543761D01*
X191992380Y-107591380D01*
X191849523Y-107591380D01*
X192516190Y-106924714D02*
X192754285Y-107591380D01*
X192992380Y-106924714D02*
X192754285Y-107591380D01*
X192659047Y-107829476D01*
X192611428Y-107877095D01*
X192516190Y-107924714D01*
X193325714Y-107543761D02*
X193420952Y-107591380D01*
X193611428Y-107591380D01*
X193706666Y-107543761D01*
X193754285Y-107448523D01*
X193754285Y-107400904D01*
X193706666Y-107305666D01*
X193611428Y-107258047D01*
X193468571Y-107258047D01*
X193373333Y-107210428D01*
X193325714Y-107115190D01*
X193325714Y-107067571D01*
X193373333Y-106972333D01*
X193468571Y-106924714D01*
X193611428Y-106924714D01*
X193706666Y-106972333D01*
X194040000Y-106924714D02*
X194420952Y-106924714D01*
X194182857Y-106591380D02*
X194182857Y-107448523D01*
X194230476Y-107543761D01*
X194325714Y-107591380D01*
X194420952Y-107591380D01*
X194754285Y-107591380D02*
X194754285Y-106924714D01*
X194754285Y-106591380D02*
X194706666Y-106639000D01*
X194754285Y-106686619D01*
X194801904Y-106639000D01*
X194754285Y-106591380D01*
X194754285Y-106686619D01*
X195659047Y-107543761D02*
X195563809Y-107591380D01*
X195373333Y-107591380D01*
X195278095Y-107543761D01*
X195230476Y-107496142D01*
X195182857Y-107400904D01*
X195182857Y-107115190D01*
X195230476Y-107019952D01*
X195278095Y-106972333D01*
X195373333Y-106924714D01*
X195563809Y-106924714D01*
X195659047Y-106972333D01*
X196087619Y-107591380D02*
X196087619Y-106591380D01*
X196182857Y-107210428D02*
X196468571Y-107591380D01*
X196468571Y-106924714D02*
X196087619Y-107305666D01*
X197611428Y-106686619D02*
X197659047Y-106639000D01*
X197754285Y-106591380D01*
X197992380Y-106591380D01*
X198087619Y-106639000D01*
X198135238Y-106686619D01*
X198182857Y-106781857D01*
X198182857Y-106877095D01*
X198135238Y-107019952D01*
X197563809Y-107591380D01*
X198182857Y-107591380D01*
X156949476Y-106464380D02*
X156949476Y-107178666D01*
X156901857Y-107321523D01*
X156806619Y-107416761D01*
X156663761Y-107464380D01*
X156568523Y-107464380D01*
X157568523Y-107464380D02*
X157473285Y-107416761D01*
X157425666Y-107369142D01*
X157378047Y-107273904D01*
X157378047Y-106988190D01*
X157425666Y-106892952D01*
X157473285Y-106845333D01*
X157568523Y-106797714D01*
X157711380Y-106797714D01*
X157806619Y-106845333D01*
X157854238Y-106892952D01*
X157901857Y-106988190D01*
X157901857Y-107273904D01*
X157854238Y-107369142D01*
X157806619Y-107416761D01*
X157711380Y-107464380D01*
X157568523Y-107464380D01*
X158235190Y-106797714D02*
X158473285Y-107464380D01*
X158711380Y-106797714D02*
X158473285Y-107464380D01*
X158378047Y-107702476D01*
X158330428Y-107750095D01*
X158235190Y-107797714D01*
X159044714Y-107416761D02*
X159139952Y-107464380D01*
X159330428Y-107464380D01*
X159425666Y-107416761D01*
X159473285Y-107321523D01*
X159473285Y-107273904D01*
X159425666Y-107178666D01*
X159330428Y-107131047D01*
X159187571Y-107131047D01*
X159092333Y-107083428D01*
X159044714Y-106988190D01*
X159044714Y-106940571D01*
X159092333Y-106845333D01*
X159187571Y-106797714D01*
X159330428Y-106797714D01*
X159425666Y-106845333D01*
X159759000Y-106797714D02*
X160139952Y-106797714D01*
X159901857Y-106464380D02*
X159901857Y-107321523D01*
X159949476Y-107416761D01*
X160044714Y-107464380D01*
X160139952Y-107464380D01*
X160473285Y-107464380D02*
X160473285Y-106797714D01*
X160473285Y-106464380D02*
X160425666Y-106512000D01*
X160473285Y-106559619D01*
X160520904Y-106512000D01*
X160473285Y-106464380D01*
X160473285Y-106559619D01*
X161378047Y-107416761D02*
X161282809Y-107464380D01*
X161092333Y-107464380D01*
X160997095Y-107416761D01*
X160949476Y-107369142D01*
X160901857Y-107273904D01*
X160901857Y-106988190D01*
X160949476Y-106892952D01*
X160997095Y-106845333D01*
X161092333Y-106797714D01*
X161282809Y-106797714D01*
X161378047Y-106845333D01*
X161806619Y-107464380D02*
X161806619Y-106464380D01*
X161901857Y-107083428D02*
X162187571Y-107464380D01*
X162187571Y-106797714D02*
X161806619Y-107178666D01*
X163901857Y-107464380D02*
X163330428Y-107464380D01*
X163616142Y-107464380D02*
X163616142Y-106464380D01*
X163520904Y-106607238D01*
X163425666Y-106702476D01*
X163330428Y-106750095D01*
X212813880Y-85850523D02*
X213813880Y-85183857D01*
X212813880Y-85183857D02*
X213813880Y-85850523D01*
X213813880Y-84279095D02*
X213813880Y-84850523D01*
X213813880Y-84564809D02*
X212813880Y-84564809D01*
X212956738Y-84660047D01*
X213051976Y-84755285D01*
X213099595Y-84850523D01*
X149271142Y-57585142D02*
X149223523Y-57632761D01*
X149080666Y-57680380D01*
X148985428Y-57680380D01*
X148842571Y-57632761D01*
X148747333Y-57537523D01*
X148699714Y-57442285D01*
X148652095Y-57251809D01*
X148652095Y-57108952D01*
X148699714Y-56918476D01*
X148747333Y-56823238D01*
X148842571Y-56728000D01*
X148985428Y-56680380D01*
X149080666Y-56680380D01*
X149223523Y-56728000D01*
X149271142Y-56775619D01*
X150223523Y-57680380D02*
X149652095Y-57680380D01*
X149937809Y-57680380D02*
X149937809Y-56680380D01*
X149842571Y-56823238D01*
X149747333Y-56918476D01*
X149652095Y-56966095D01*
X150842571Y-56680380D02*
X150937809Y-56680380D01*
X151033047Y-56728000D01*
X151080666Y-56775619D01*
X151128285Y-56870857D01*
X151175904Y-57061333D01*
X151175904Y-57299428D01*
X151128285Y-57489904D01*
X151080666Y-57585142D01*
X151033047Y-57632761D01*
X150937809Y-57680380D01*
X150842571Y-57680380D01*
X150747333Y-57632761D01*
X150699714Y-57585142D01*
X150652095Y-57489904D01*
X150604476Y-57299428D01*
X150604476Y-57061333D01*
X150652095Y-56870857D01*
X150699714Y-56775619D01*
X150747333Y-56728000D01*
X150842571Y-56680380D01*
X174781380Y-42685904D02*
X175590904Y-42685904D01*
X175686142Y-42638285D01*
X175733761Y-42590666D01*
X175781380Y-42495428D01*
X175781380Y-42304952D01*
X175733761Y-42209714D01*
X175686142Y-42162095D01*
X175590904Y-42114476D01*
X174781380Y-42114476D01*
X174781380Y-41733523D02*
X174781380Y-41114476D01*
X175162333Y-41447809D01*
X175162333Y-41304952D01*
X175209952Y-41209714D01*
X175257571Y-41162095D01*
X175352809Y-41114476D01*
X175590904Y-41114476D01*
X175686142Y-41162095D01*
X175733761Y-41209714D01*
X175781380Y-41304952D01*
X175781380Y-41590666D01*
X175733761Y-41685904D01*
X175686142Y-41733523D01*
X200181380Y-79992095D02*
X200990904Y-79992095D01*
X201086142Y-79944476D01*
X201133761Y-79896857D01*
X201181380Y-79801619D01*
X201181380Y-79611142D01*
X201133761Y-79515904D01*
X201086142Y-79468285D01*
X200990904Y-79420666D01*
X200181380Y-79420666D01*
X201181380Y-78420666D02*
X201181380Y-78992095D01*
X201181380Y-78706380D02*
X200181380Y-78706380D01*
X200324238Y-78801619D01*
X200419476Y-78896857D01*
X200467095Y-78992095D01*
X200276619Y-78039714D02*
X200229000Y-77992095D01*
X200181380Y-77896857D01*
X200181380Y-77658761D01*
X200229000Y-77563523D01*
X200276619Y-77515904D01*
X200371857Y-77468285D01*
X200467095Y-77468285D01*
X200609952Y-77515904D01*
X201181380Y-78087333D01*
X201181380Y-77468285D01*
X187481380Y-40145904D02*
X188290904Y-40145904D01*
X188386142Y-40098285D01*
X188433761Y-40050666D01*
X188481380Y-39955428D01*
X188481380Y-39764952D01*
X188433761Y-39669714D01*
X188386142Y-39622095D01*
X188290904Y-39574476D01*
X187481380Y-39574476D01*
X188481380Y-38574476D02*
X188481380Y-39145904D01*
X188481380Y-38860190D02*
X187481380Y-38860190D01*
X187624238Y-38955428D01*
X187719476Y-39050666D01*
X187767095Y-39145904D01*
X187681380Y-79992095D02*
X188490904Y-79992095D01*
X188586142Y-79944476D01*
X188633761Y-79896857D01*
X188681380Y-79801619D01*
X188681380Y-79611142D01*
X188633761Y-79515904D01*
X188586142Y-79468285D01*
X188490904Y-79420666D01*
X187681380Y-79420666D01*
X188681380Y-78420666D02*
X188681380Y-78992095D01*
X188681380Y-78706380D02*
X187681380Y-78706380D01*
X187824238Y-78801619D01*
X187919476Y-78896857D01*
X187967095Y-78992095D01*
X187681380Y-78087333D02*
X187681380Y-77468285D01*
X188062333Y-77801619D01*
X188062333Y-77658761D01*
X188109952Y-77563523D01*
X188157571Y-77515904D01*
X188252809Y-77468285D01*
X188490904Y-77468285D01*
X188586142Y-77515904D01*
X188633761Y-77563523D01*
X188681380Y-77658761D01*
X188681380Y-77944476D01*
X188633761Y-78039714D01*
X188586142Y-78087333D01*
X174981380Y-79992095D02*
X175790904Y-79992095D01*
X175886142Y-79944476D01*
X175933761Y-79896857D01*
X175981380Y-79801619D01*
X175981380Y-79611142D01*
X175933761Y-79515904D01*
X175886142Y-79468285D01*
X175790904Y-79420666D01*
X174981380Y-79420666D01*
X175981380Y-78420666D02*
X175981380Y-78992095D01*
X175981380Y-78706380D02*
X174981380Y-78706380D01*
X175124238Y-78801619D01*
X175219476Y-78896857D01*
X175267095Y-78992095D01*
X175314714Y-77563523D02*
X175981380Y-77563523D01*
X174933761Y-77801619D02*
X175648047Y-78039714D01*
X175648047Y-77420666D01*
X162081380Y-40145904D02*
X162890904Y-40145904D01*
X162986142Y-40098285D01*
X163033761Y-40050666D01*
X163081380Y-39955428D01*
X163081380Y-39764952D01*
X163033761Y-39669714D01*
X162986142Y-39622095D01*
X162890904Y-39574476D01*
X162081380Y-39574476D01*
X162176619Y-39145904D02*
X162129000Y-39098285D01*
X162081380Y-39003047D01*
X162081380Y-38764952D01*
X162129000Y-38669714D01*
X162176619Y-38622095D01*
X162271857Y-38574476D01*
X162367095Y-38574476D01*
X162509952Y-38622095D01*
X163081380Y-39193523D01*
X163081380Y-38574476D01*
X162081380Y-79515904D02*
X162890904Y-79515904D01*
X162986142Y-79468285D01*
X163033761Y-79420666D01*
X163081380Y-79325428D01*
X163081380Y-79134952D01*
X163033761Y-79039714D01*
X162986142Y-78992095D01*
X162890904Y-78944476D01*
X162081380Y-78944476D01*
X162081380Y-77992095D02*
X162081380Y-78468285D01*
X162557571Y-78515904D01*
X162509952Y-78468285D01*
X162462333Y-78373047D01*
X162462333Y-78134952D01*
X162509952Y-78039714D01*
X162557571Y-77992095D01*
X162652809Y-77944476D01*
X162890904Y-77944476D01*
X162986142Y-77992095D01*
X163033761Y-78039714D01*
X163081380Y-78134952D01*
X163081380Y-78373047D01*
X163033761Y-78468285D01*
X162986142Y-78515904D01*
X149312380Y-79515904D02*
X150121904Y-79515904D01*
X150217142Y-79468285D01*
X150264761Y-79420666D01*
X150312380Y-79325428D01*
X150312380Y-79134952D01*
X150264761Y-79039714D01*
X150217142Y-78992095D01*
X150121904Y-78944476D01*
X149312380Y-78944476D01*
X149312380Y-78039714D02*
X149312380Y-78230190D01*
X149360000Y-78325428D01*
X149407619Y-78373047D01*
X149550476Y-78468285D01*
X149740952Y-78515904D01*
X150121904Y-78515904D01*
X150217142Y-78468285D01*
X150264761Y-78420666D01*
X150312380Y-78325428D01*
X150312380Y-78134952D01*
X150264761Y-78039714D01*
X150217142Y-77992095D01*
X150121904Y-77944476D01*
X149883809Y-77944476D01*
X149788571Y-77992095D01*
X149740952Y-78039714D01*
X149693333Y-78134952D01*
X149693333Y-78325428D01*
X149740952Y-78420666D01*
X149788571Y-78468285D01*
X149883809Y-78515904D01*
X149381380Y-42685904D02*
X150190904Y-42685904D01*
X150286142Y-42638285D01*
X150333761Y-42590666D01*
X150381380Y-42495428D01*
X150381380Y-42304952D01*
X150333761Y-42209714D01*
X150286142Y-42162095D01*
X150190904Y-42114476D01*
X149381380Y-42114476D01*
X149714714Y-41209714D02*
X150381380Y-41209714D01*
X149333761Y-41447809D02*
X150048047Y-41685904D01*
X150048047Y-41066857D01*
X212881380Y-46495904D02*
X213690904Y-46495904D01*
X213786142Y-46448285D01*
X213833761Y-46400666D01*
X213881380Y-46305428D01*
X213881380Y-46114952D01*
X213833761Y-46019714D01*
X213786142Y-45972095D01*
X213690904Y-45924476D01*
X212881380Y-45924476D01*
X212881380Y-45543523D02*
X212881380Y-44876857D01*
X213881380Y-45305428D01*
X136681380Y-38875904D02*
X137490904Y-38875904D01*
X137586142Y-38828285D01*
X137633761Y-38780666D01*
X137681380Y-38685428D01*
X137681380Y-38494952D01*
X137633761Y-38399714D01*
X137586142Y-38352095D01*
X137490904Y-38304476D01*
X136681380Y-38304476D01*
X137681380Y-37780666D02*
X137681380Y-37590190D01*
X137633761Y-37494952D01*
X137586142Y-37447333D01*
X137443285Y-37352095D01*
X137252809Y-37304476D01*
X136871857Y-37304476D01*
X136776619Y-37352095D01*
X136729000Y-37399714D01*
X136681380Y-37494952D01*
X136681380Y-37685428D01*
X136729000Y-37780666D01*
X136776619Y-37828285D01*
X136871857Y-37875904D01*
X137109952Y-37875904D01*
X137205190Y-37828285D01*
X137252809Y-37780666D01*
X137300428Y-37685428D01*
X137300428Y-37494952D01*
X137252809Y-37399714D01*
X137205190Y-37352095D01*
X137109952Y-37304476D01*
X200181380Y-38875904D02*
X200990904Y-38875904D01*
X201086142Y-38828285D01*
X201133761Y-38780666D01*
X201181380Y-38685428D01*
X201181380Y-38494952D01*
X201133761Y-38399714D01*
X201086142Y-38352095D01*
X200990904Y-38304476D01*
X200181380Y-38304476D01*
X200609952Y-37685428D02*
X200562333Y-37780666D01*
X200514714Y-37828285D01*
X200419476Y-37875904D01*
X200371857Y-37875904D01*
X200276619Y-37828285D01*
X200229000Y-37780666D01*
X200181380Y-37685428D01*
X200181380Y-37494952D01*
X200229000Y-37399714D01*
X200276619Y-37352095D01*
X200371857Y-37304476D01*
X200419476Y-37304476D01*
X200514714Y-37352095D01*
X200562333Y-37399714D01*
X200609952Y-37494952D01*
X200609952Y-37685428D01*
X200657571Y-37780666D01*
X200705190Y-37828285D01*
X200800428Y-37875904D01*
X200990904Y-37875904D01*
X201086142Y-37828285D01*
X201133761Y-37780666D01*
X201181380Y-37685428D01*
X201181380Y-37494952D01*
X201133761Y-37399714D01*
X201086142Y-37352095D01*
X200990904Y-37304476D01*
X200800428Y-37304476D01*
X200705190Y-37352095D01*
X200657571Y-37399714D01*
X200609952Y-37494952D01*
X93501380Y-79992095D02*
X94310904Y-79992095D01*
X94406142Y-79944476D01*
X94453761Y-79896857D01*
X94501380Y-79801619D01*
X94501380Y-79611142D01*
X94453761Y-79515904D01*
X94406142Y-79468285D01*
X94310904Y-79420666D01*
X93501380Y-79420666D01*
X94501380Y-78420666D02*
X94501380Y-78992095D01*
X94501380Y-78706380D02*
X93501380Y-78706380D01*
X93644238Y-78801619D01*
X93739476Y-78896857D01*
X93787095Y-78992095D01*
X93501380Y-77801619D02*
X93501380Y-77706380D01*
X93549000Y-77611142D01*
X93596619Y-77563523D01*
X93691857Y-77515904D01*
X93882333Y-77468285D01*
X94120428Y-77468285D01*
X94310904Y-77515904D01*
X94406142Y-77563523D01*
X94453761Y-77611142D01*
X94501380Y-77706380D01*
X94501380Y-77801619D01*
X94453761Y-77896857D01*
X94406142Y-77944476D01*
X94310904Y-77992095D01*
X94120428Y-78039714D01*
X93882333Y-78039714D01*
X93691857Y-77992095D01*
X93596619Y-77944476D01*
X93549000Y-77896857D01*
X93501380Y-77801619D01*
X200602333Y-63935142D02*
X200554714Y-63982761D01*
X200411857Y-64030380D01*
X200316619Y-64030380D01*
X200173761Y-63982761D01*
X200078523Y-63887523D01*
X200030904Y-63792285D01*
X199983285Y-63601809D01*
X199983285Y-63458952D01*
X200030904Y-63268476D01*
X200078523Y-63173238D01*
X200173761Y-63078000D01*
X200316619Y-63030380D01*
X200411857Y-63030380D01*
X200554714Y-63078000D01*
X200602333Y-63125619D01*
X201554714Y-64030380D02*
X200983285Y-64030380D01*
X201269000Y-64030380D02*
X201269000Y-63030380D01*
X201173761Y-63173238D01*
X201078523Y-63268476D01*
X200983285Y-63316095D01*
X200602333Y-60125142D02*
X200554714Y-60172761D01*
X200411857Y-60220380D01*
X200316619Y-60220380D01*
X200173761Y-60172761D01*
X200078523Y-60077523D01*
X200030904Y-59982285D01*
X199983285Y-59791809D01*
X199983285Y-59648952D01*
X200030904Y-59458476D01*
X200078523Y-59363238D01*
X200173761Y-59268000D01*
X200316619Y-59220380D01*
X200411857Y-59220380D01*
X200554714Y-59268000D01*
X200602333Y-59315619D01*
X200983285Y-59315619D02*
X201030904Y-59268000D01*
X201126142Y-59220380D01*
X201364238Y-59220380D01*
X201459476Y-59268000D01*
X201507095Y-59315619D01*
X201554714Y-59410857D01*
X201554714Y-59506095D01*
X201507095Y-59648952D01*
X200935666Y-60220380D01*
X201554714Y-60220380D01*
X200625332Y-56251142D02*
X200577713Y-56298761D01*
X200434856Y-56346380D01*
X200339618Y-56346380D01*
X200196760Y-56298761D01*
X200101522Y-56203523D01*
X200053903Y-56108285D01*
X200006284Y-55917809D01*
X200006284Y-55774952D01*
X200053903Y-55584476D01*
X200101522Y-55489238D01*
X200196760Y-55394000D01*
X200339618Y-55346380D01*
X200434856Y-55346380D01*
X200577713Y-55394000D01*
X200625332Y-55441619D01*
X200958665Y-55346380D02*
X201577713Y-55346380D01*
X201244379Y-55727333D01*
X201387237Y-55727333D01*
X201482475Y-55774952D01*
X201530094Y-55822571D01*
X201577713Y-55917809D01*
X201577713Y-56155904D01*
X201530094Y-56251142D01*
X201482475Y-56298761D01*
X201387237Y-56346380D01*
X201101522Y-56346380D01*
X201006284Y-56298761D01*
X200958665Y-56251142D01*
X121822333Y-53775142D02*
X121774714Y-53822761D01*
X121631857Y-53870380D01*
X121536619Y-53870380D01*
X121393761Y-53822761D01*
X121298523Y-53727523D01*
X121250904Y-53632285D01*
X121203285Y-53441809D01*
X121203285Y-53298952D01*
X121250904Y-53108476D01*
X121298523Y-53013238D01*
X121393761Y-52918000D01*
X121536619Y-52870380D01*
X121631857Y-52870380D01*
X121774714Y-52918000D01*
X121822333Y-52965619D01*
X122679476Y-53203714D02*
X122679476Y-53870380D01*
X122441380Y-52822761D02*
X122203285Y-53537047D01*
X122822333Y-53537047D01*
X121822333Y-43615142D02*
X121774714Y-43662761D01*
X121631857Y-43710380D01*
X121536619Y-43710380D01*
X121393761Y-43662761D01*
X121298523Y-43567523D01*
X121250904Y-43472285D01*
X121203285Y-43281809D01*
X121203285Y-43138952D01*
X121250904Y-42948476D01*
X121298523Y-42853238D01*
X121393761Y-42758000D01*
X121536619Y-42710380D01*
X121631857Y-42710380D01*
X121774714Y-42758000D01*
X121822333Y-42805619D01*
X122727095Y-42710380D02*
X122250904Y-42710380D01*
X122203285Y-43186571D01*
X122250904Y-43138952D01*
X122346142Y-43091333D01*
X122584238Y-43091333D01*
X122679476Y-43138952D01*
X122727095Y-43186571D01*
X122774714Y-43281809D01*
X122774714Y-43519904D01*
X122727095Y-43615142D01*
X122679476Y-43662761D01*
X122584238Y-43710380D01*
X122346142Y-43710380D01*
X122250904Y-43662761D01*
X122203285Y-43615142D01*
X187862333Y-64030380D02*
X187529000Y-63554190D01*
X187290904Y-64030380D02*
X187290904Y-63030380D01*
X187671857Y-63030380D01*
X187767095Y-63078000D01*
X187814714Y-63125619D01*
X187862333Y-63220857D01*
X187862333Y-63363714D01*
X187814714Y-63458952D01*
X187767095Y-63506571D01*
X187671857Y-63554190D01*
X187290904Y-63554190D01*
X188814714Y-64030380D02*
X188243285Y-64030380D01*
X188529000Y-64030380D02*
X188529000Y-63030380D01*
X188433761Y-63173238D01*
X188338523Y-63268476D01*
X188243285Y-63316095D01*
X187847333Y-60220380D02*
X187514000Y-59744190D01*
X187275904Y-60220380D02*
X187275904Y-59220380D01*
X187656857Y-59220380D01*
X187752095Y-59268000D01*
X187799714Y-59315619D01*
X187847333Y-59410857D01*
X187847333Y-59553714D01*
X187799714Y-59648952D01*
X187752095Y-59696571D01*
X187656857Y-59744190D01*
X187275904Y-59744190D01*
X188228285Y-59315619D02*
X188275904Y-59268000D01*
X188371142Y-59220380D01*
X188609238Y-59220380D01*
X188704476Y-59268000D01*
X188752095Y-59315619D01*
X188799714Y-59410857D01*
X188799714Y-59506095D01*
X188752095Y-59648952D01*
X188180666Y-60220380D01*
X188799714Y-60220380D01*
X187847333Y-56410380D02*
X187514000Y-55934190D01*
X187275904Y-56410380D02*
X187275904Y-55410380D01*
X187656857Y-55410380D01*
X187752095Y-55458000D01*
X187799714Y-55505619D01*
X187847333Y-55600857D01*
X187847333Y-55743714D01*
X187799714Y-55838952D01*
X187752095Y-55886571D01*
X187656857Y-55934190D01*
X187275904Y-55934190D01*
X188180666Y-55410380D02*
X188799714Y-55410380D01*
X188466380Y-55791333D01*
X188609238Y-55791333D01*
X188704476Y-55838952D01*
X188752095Y-55886571D01*
X188799714Y-55981809D01*
X188799714Y-56219904D01*
X188752095Y-56315142D01*
X188704476Y-56362761D01*
X188609238Y-56410380D01*
X188323523Y-56410380D01*
X188228285Y-56362761D01*
X188180666Y-56315142D01*
X93882333Y-43710380D02*
X93549000Y-43234190D01*
X93310904Y-43710380D02*
X93310904Y-42710380D01*
X93691857Y-42710380D01*
X93787095Y-42758000D01*
X93834714Y-42805619D01*
X93882333Y-42900857D01*
X93882333Y-43043714D01*
X93834714Y-43138952D01*
X93787095Y-43186571D01*
X93691857Y-43234190D01*
X93310904Y-43234190D01*
X94739476Y-43043714D02*
X94739476Y-43710380D01*
X94501380Y-42662761D02*
X94263285Y-43377047D01*
X94882333Y-43377047D01*
X93882333Y-48790380D02*
X93549000Y-48314190D01*
X93310904Y-48790380D02*
X93310904Y-47790380D01*
X93691857Y-47790380D01*
X93787095Y-47838000D01*
X93834714Y-47885619D01*
X93882333Y-47980857D01*
X93882333Y-48123714D01*
X93834714Y-48218952D01*
X93787095Y-48266571D01*
X93691857Y-48314190D01*
X93310904Y-48314190D01*
X94787095Y-47790380D02*
X94310904Y-47790380D01*
X94263285Y-48266571D01*
X94310904Y-48218952D01*
X94406142Y-48171333D01*
X94644238Y-48171333D01*
X94739476Y-48218952D01*
X94787095Y-48266571D01*
X94834714Y-48361809D01*
X94834714Y-48599904D01*
X94787095Y-48695142D01*
X94739476Y-48742761D01*
X94644238Y-48790380D01*
X94406142Y-48790380D01*
X94310904Y-48742761D01*
X94263285Y-48695142D01*
X93882333Y-53870380D02*
X93549000Y-53394190D01*
X93310904Y-53870380D02*
X93310904Y-52870380D01*
X93691857Y-52870380D01*
X93787095Y-52918000D01*
X93834714Y-52965619D01*
X93882333Y-53060857D01*
X93882333Y-53203714D01*
X93834714Y-53298952D01*
X93787095Y-53346571D01*
X93691857Y-53394190D01*
X93310904Y-53394190D01*
X94739476Y-52870380D02*
X94549000Y-52870380D01*
X94453761Y-52918000D01*
X94406142Y-52965619D01*
X94310904Y-53108476D01*
X94263285Y-53298952D01*
X94263285Y-53679904D01*
X94310904Y-53775142D01*
X94358523Y-53822761D01*
X94453761Y-53870380D01*
X94644238Y-53870380D01*
X94739476Y-53822761D01*
X94787095Y-53775142D01*
X94834714Y-53679904D01*
X94834714Y-53441809D01*
X94787095Y-53346571D01*
X94739476Y-53298952D01*
X94644238Y-53251333D01*
X94453761Y-53251333D01*
X94358523Y-53298952D01*
X94310904Y-53346571D01*
X94263285Y-53441809D01*
X121822333Y-58950380D02*
X121489000Y-58474190D01*
X121250904Y-58950380D02*
X121250904Y-57950380D01*
X121631857Y-57950380D01*
X121727095Y-57998000D01*
X121774714Y-58045619D01*
X121822333Y-58140857D01*
X121822333Y-58283714D01*
X121774714Y-58378952D01*
X121727095Y-58426571D01*
X121631857Y-58474190D01*
X121250904Y-58474190D01*
X122155666Y-57950380D02*
X122822333Y-57950380D01*
X122393761Y-58950380D01*
X121822333Y-48790380D02*
X121489000Y-48314190D01*
X121250904Y-48790380D02*
X121250904Y-47790380D01*
X121631857Y-47790380D01*
X121727095Y-47838000D01*
X121774714Y-47885619D01*
X121822333Y-47980857D01*
X121822333Y-48123714D01*
X121774714Y-48218952D01*
X121727095Y-48266571D01*
X121631857Y-48314190D01*
X121250904Y-48314190D01*
X122393761Y-48218952D02*
X122298523Y-48171333D01*
X122250904Y-48123714D01*
X122203285Y-48028476D01*
X122203285Y-47980857D01*
X122250904Y-47885619D01*
X122298523Y-47838000D01*
X122393761Y-47790380D01*
X122584238Y-47790380D01*
X122679476Y-47838000D01*
X122727095Y-47885619D01*
X122774714Y-47980857D01*
X122774714Y-48028476D01*
X122727095Y-48123714D01*
X122679476Y-48171333D01*
X122584238Y-48218952D01*
X122393761Y-48218952D01*
X122298523Y-48266571D01*
X122250904Y-48314190D01*
X122203285Y-48409428D01*
X122203285Y-48599904D01*
X122250904Y-48695142D01*
X122298523Y-48742761D01*
X122393761Y-48790380D01*
X122584238Y-48790380D01*
X122679476Y-48742761D01*
X122727095Y-48695142D01*
X122774714Y-48599904D01*
X122774714Y-48409428D01*
X122727095Y-48314190D01*
X122679476Y-48266571D01*
X122584238Y-48218952D01*
X213262333Y-94351142D02*
X213214714Y-94398761D01*
X213071857Y-94446380D01*
X212976619Y-94446380D01*
X212833761Y-94398761D01*
X212738523Y-94303523D01*
X212690904Y-94208285D01*
X212643285Y-94017809D01*
X212643285Y-93874952D01*
X212690904Y-93684476D01*
X212738523Y-93589238D01*
X212833761Y-93494000D01*
X212976619Y-93446380D01*
X213071857Y-93446380D01*
X213214714Y-93494000D01*
X213262333Y-93541619D01*
X214119476Y-93446380D02*
X213929000Y-93446380D01*
X213833761Y-93494000D01*
X213786142Y-93541619D01*
X213690904Y-93684476D01*
X213643285Y-93874952D01*
X213643285Y-94255904D01*
X213690904Y-94351142D01*
X213738523Y-94398761D01*
X213833761Y-94446380D01*
X214024238Y-94446380D01*
X214119476Y-94398761D01*
X214167095Y-94351142D01*
X214214714Y-94255904D01*
X214214714Y-94017809D01*
X214167095Y-93922571D01*
X214119476Y-93874952D01*
X214024238Y-93827333D01*
X213833761Y-93827333D01*
X213738523Y-93874952D01*
X213690904Y-93922571D01*
X213643285Y-94017809D01*
X187847333Y-52505142D02*
X187799714Y-52552761D01*
X187656857Y-52600380D01*
X187561619Y-52600380D01*
X187418761Y-52552761D01*
X187323523Y-52457523D01*
X187275904Y-52362285D01*
X187228285Y-52171809D01*
X187228285Y-52028952D01*
X187275904Y-51838476D01*
X187323523Y-51743238D01*
X187418761Y-51648000D01*
X187561619Y-51600380D01*
X187656857Y-51600380D01*
X187799714Y-51648000D01*
X187847333Y-51695619D01*
X188180666Y-51600380D02*
X188847333Y-51600380D01*
X188418761Y-52600380D01*
X162447333Y-52505142D02*
X162399714Y-52552761D01*
X162256857Y-52600380D01*
X162161619Y-52600380D01*
X162018761Y-52552761D01*
X161923523Y-52457523D01*
X161875904Y-52362285D01*
X161828285Y-52171809D01*
X161828285Y-52028952D01*
X161875904Y-51838476D01*
X161923523Y-51743238D01*
X162018761Y-51648000D01*
X162161619Y-51600380D01*
X162256857Y-51600380D01*
X162399714Y-51648000D01*
X162447333Y-51695619D01*
X163018761Y-52028952D02*
X162923523Y-51981333D01*
X162875904Y-51933714D01*
X162828285Y-51838476D01*
X162828285Y-51790857D01*
X162875904Y-51695619D01*
X162923523Y-51648000D01*
X163018761Y-51600380D01*
X163209238Y-51600380D01*
X163304476Y-51648000D01*
X163352095Y-51695619D01*
X163399714Y-51790857D01*
X163399714Y-51838476D01*
X163352095Y-51933714D01*
X163304476Y-51981333D01*
X163209238Y-52028952D01*
X163018761Y-52028952D01*
X162923523Y-52076571D01*
X162875904Y-52124190D01*
X162828285Y-52219428D01*
X162828285Y-52409904D01*
X162875904Y-52505142D01*
X162923523Y-52552761D01*
X163018761Y-52600380D01*
X163209238Y-52600380D01*
X163304476Y-52552761D01*
X163352095Y-52505142D01*
X163399714Y-52409904D01*
X163399714Y-52219428D01*
X163352095Y-52124190D01*
X163304476Y-52076571D01*
X163209238Y-52028952D01*
X175122333Y-57585142D02*
X175074714Y-57632761D01*
X174931857Y-57680380D01*
X174836619Y-57680380D01*
X174693761Y-57632761D01*
X174598523Y-57537523D01*
X174550904Y-57442285D01*
X174503285Y-57251809D01*
X174503285Y-57108952D01*
X174550904Y-56918476D01*
X174598523Y-56823238D01*
X174693761Y-56728000D01*
X174836619Y-56680380D01*
X174931857Y-56680380D01*
X175074714Y-56728000D01*
X175122333Y-56775619D01*
X175598523Y-57680380D02*
X175789000Y-57680380D01*
X175884238Y-57632761D01*
X175931857Y-57585142D01*
X176027095Y-57442285D01*
X176074714Y-57251809D01*
X176074714Y-56870857D01*
X176027095Y-56775619D01*
X175979476Y-56728000D01*
X175884238Y-56680380D01*
X175693761Y-56680380D01*
X175598523Y-56728000D01*
X175550904Y-56775619D01*
X175503285Y-56870857D01*
X175503285Y-57108952D01*
X175550904Y-57204190D01*
X175598523Y-57251809D01*
X175693761Y-57299428D01*
X175884238Y-57299428D01*
X175979476Y-57251809D01*
X176027095Y-57204190D01*
X176074714Y-57108952D01*
X161971142Y-94351142D02*
X161923523Y-94398761D01*
X161780666Y-94446380D01*
X161685428Y-94446380D01*
X161542571Y-94398761D01*
X161447333Y-94303523D01*
X161399714Y-94208285D01*
X161352095Y-94017809D01*
X161352095Y-93874952D01*
X161399714Y-93684476D01*
X161447333Y-93589238D01*
X161542571Y-93494000D01*
X161685428Y-93446380D01*
X161780666Y-93446380D01*
X161923523Y-93494000D01*
X161971142Y-93541619D01*
X162923523Y-94446380D02*
X162352095Y-94446380D01*
X162637809Y-94446380D02*
X162637809Y-93446380D01*
X162542571Y-93589238D01*
X162447333Y-93684476D01*
X162352095Y-93732095D01*
X163875904Y-94446380D02*
X163304476Y-94446380D01*
X163590190Y-94446380D02*
X163590190Y-93446380D01*
X163494952Y-93589238D01*
X163399714Y-93684476D01*
X163304476Y-93732095D01*
X149202142Y-94351142D02*
X149154523Y-94398761D01*
X149011666Y-94446380D01*
X148916428Y-94446380D01*
X148773571Y-94398761D01*
X148678333Y-94303523D01*
X148630714Y-94208285D01*
X148583095Y-94017809D01*
X148583095Y-93874952D01*
X148630714Y-93684476D01*
X148678333Y-93589238D01*
X148773571Y-93494000D01*
X148916428Y-93446380D01*
X149011666Y-93446380D01*
X149154523Y-93494000D01*
X149202142Y-93541619D01*
X150154523Y-94446380D02*
X149583095Y-94446380D01*
X149868809Y-94446380D02*
X149868809Y-93446380D01*
X149773571Y-93589238D01*
X149678333Y-93684476D01*
X149583095Y-93732095D01*
X150535476Y-93541619D02*
X150583095Y-93494000D01*
X150678333Y-93446380D01*
X150916428Y-93446380D01*
X151011666Y-93494000D01*
X151059285Y-93541619D01*
X151106904Y-93636857D01*
X151106904Y-93732095D01*
X151059285Y-93874952D01*
X150487857Y-94446380D01*
X151106904Y-94446380D01*
X212746142Y-57585142D02*
X212698523Y-57632761D01*
X212555666Y-57680380D01*
X212460428Y-57680380D01*
X212317571Y-57632761D01*
X212222333Y-57537523D01*
X212174714Y-57442285D01*
X212127095Y-57251809D01*
X212127095Y-57108952D01*
X212174714Y-56918476D01*
X212222333Y-56823238D01*
X212317571Y-56728000D01*
X212460428Y-56680380D01*
X212555666Y-56680380D01*
X212698523Y-56728000D01*
X212746142Y-56775619D01*
X213698523Y-57680380D02*
X213127095Y-57680380D01*
X213412809Y-57680380D02*
X213412809Y-56680380D01*
X213317571Y-56823238D01*
X213222333Y-56918476D01*
X213127095Y-56966095D01*
X214031857Y-56680380D02*
X214650904Y-56680380D01*
X214317571Y-57061333D01*
X214460428Y-57061333D01*
X214555666Y-57108952D01*
X214603285Y-57156571D01*
X214650904Y-57251809D01*
X214650904Y-57489904D01*
X214603285Y-57585142D01*
X214555666Y-57632761D01*
X214460428Y-57680380D01*
X214174714Y-57680380D01*
X214079476Y-57632761D01*
X214031857Y-57585142D01*
X200126142Y-49965142D02*
X200078523Y-50012761D01*
X199935666Y-50060380D01*
X199840428Y-50060380D01*
X199697571Y-50012761D01*
X199602333Y-49917523D01*
X199554714Y-49822285D01*
X199507095Y-49631809D01*
X199507095Y-49488952D01*
X199554714Y-49298476D01*
X199602333Y-49203238D01*
X199697571Y-49108000D01*
X199840428Y-49060380D01*
X199935666Y-49060380D01*
X200078523Y-49108000D01*
X200126142Y-49155619D01*
X201078523Y-50060380D02*
X200507095Y-50060380D01*
X200792809Y-50060380D02*
X200792809Y-49060380D01*
X200697571Y-49203238D01*
X200602333Y-49298476D01*
X200507095Y-49346095D01*
X201935666Y-49393714D02*
X201935666Y-50060380D01*
X201697571Y-49012761D02*
X201459476Y-49727047D01*
X202078523Y-49727047D01*
X136571142Y-49901142D02*
X136523523Y-49948761D01*
X136380666Y-49996380D01*
X136285428Y-49996380D01*
X136142571Y-49948761D01*
X136047333Y-49853523D01*
X135999714Y-49758285D01*
X135952095Y-49567809D01*
X135952095Y-49424952D01*
X135999714Y-49234476D01*
X136047333Y-49139238D01*
X136142571Y-49044000D01*
X136285428Y-48996380D01*
X136380666Y-48996380D01*
X136523523Y-49044000D01*
X136571142Y-49091619D01*
X137523523Y-49996380D02*
X136952095Y-49996380D01*
X137237809Y-49996380D02*
X137237809Y-48996380D01*
X137142571Y-49139238D01*
X137047333Y-49234476D01*
X136952095Y-49282095D01*
X138428285Y-48996380D02*
X137952095Y-48996380D01*
X137904476Y-49472571D01*
X137952095Y-49424952D01*
X138047333Y-49377333D01*
X138285428Y-49377333D01*
X138380666Y-49424952D01*
X138428285Y-49472571D01*
X138475904Y-49567809D01*
X138475904Y-49805904D01*
X138428285Y-49901142D01*
X138380666Y-49948761D01*
X138285428Y-49996380D01*
X138047333Y-49996380D01*
X137952095Y-49948761D01*
X137904476Y-49901142D01*
X93391142Y-91748142D02*
X93343523Y-91795761D01*
X93200666Y-91843380D01*
X93105428Y-91843380D01*
X92962571Y-91795761D01*
X92867333Y-91700523D01*
X92819714Y-91605285D01*
X92772095Y-91414809D01*
X92772095Y-91271952D01*
X92819714Y-91081476D01*
X92867333Y-90986238D01*
X92962571Y-90891000D01*
X93105428Y-90843380D01*
X93200666Y-90843380D01*
X93343523Y-90891000D01*
X93391142Y-90938619D01*
X94343523Y-91843380D02*
X93772095Y-91843380D01*
X94057809Y-91843380D02*
X94057809Y-90843380D01*
X93962571Y-90986238D01*
X93867333Y-91081476D01*
X93772095Y-91129095D01*
X95200666Y-90843380D02*
X95010190Y-90843380D01*
X94914952Y-90891000D01*
X94867333Y-90938619D01*
X94772095Y-91081476D01*
X94724476Y-91271952D01*
X94724476Y-91652904D01*
X94772095Y-91748142D01*
X94819714Y-91795761D01*
X94914952Y-91843380D01*
X95105428Y-91843380D01*
X95200666Y-91795761D01*
X95248285Y-91748142D01*
X95295904Y-91652904D01*
X95295904Y-91414809D01*
X95248285Y-91319571D01*
X95200666Y-91271952D01*
X95105428Y-91224333D01*
X94914952Y-91224333D01*
X94819714Y-91271952D01*
X94772095Y-91319571D01*
X94724476Y-91414809D01*
X128966142Y-104511142D02*
X128918523Y-104558761D01*
X128775666Y-104606380D01*
X128680428Y-104606380D01*
X128537571Y-104558761D01*
X128442333Y-104463523D01*
X128394714Y-104368285D01*
X128347095Y-104177809D01*
X128347095Y-104034952D01*
X128394714Y-103844476D01*
X128442333Y-103749238D01*
X128537571Y-103654000D01*
X128680428Y-103606380D01*
X128775666Y-103606380D01*
X128918523Y-103654000D01*
X128966142Y-103701619D01*
X129918523Y-104606380D02*
X129347095Y-104606380D01*
X129632809Y-104606380D02*
X129632809Y-103606380D01*
X129537571Y-103749238D01*
X129442333Y-103844476D01*
X129347095Y-103892095D01*
X130251857Y-103606380D02*
X130918523Y-103606380D01*
X130489952Y-104606380D01*
X200246142Y-94351142D02*
X200198523Y-94398761D01*
X200055666Y-94446380D01*
X199960428Y-94446380D01*
X199817571Y-94398761D01*
X199722333Y-94303523D01*
X199674714Y-94208285D01*
X199627095Y-94017809D01*
X199627095Y-93874952D01*
X199674714Y-93684476D01*
X199722333Y-93589238D01*
X199817571Y-93494000D01*
X199960428Y-93446380D01*
X200055666Y-93446380D01*
X200198523Y-93494000D01*
X200246142Y-93541619D01*
X201198523Y-94446380D02*
X200627095Y-94446380D01*
X200912809Y-94446380D02*
X200912809Y-93446380D01*
X200817571Y-93589238D01*
X200722333Y-93684476D01*
X200627095Y-93732095D01*
X201769952Y-93874952D02*
X201674714Y-93827333D01*
X201627095Y-93779714D01*
X201579476Y-93684476D01*
X201579476Y-93636857D01*
X201627095Y-93541619D01*
X201674714Y-93494000D01*
X201769952Y-93446380D01*
X201960428Y-93446380D01*
X202055666Y-93494000D01*
X202103285Y-93541619D01*
X202150904Y-93636857D01*
X202150904Y-93684476D01*
X202103285Y-93779714D01*
X202055666Y-93827333D01*
X201960428Y-93874952D01*
X201769952Y-93874952D01*
X201674714Y-93922571D01*
X201627095Y-93970190D01*
X201579476Y-94065428D01*
X201579476Y-94255904D01*
X201627095Y-94351142D01*
X201674714Y-94398761D01*
X201769952Y-94446380D01*
X201960428Y-94446380D01*
X202055666Y-94398761D01*
X202103285Y-94351142D01*
X202150904Y-94255904D01*
X202150904Y-94065428D01*
X202103285Y-93970190D01*
X202055666Y-93922571D01*
X201960428Y-93874952D01*
X187571142Y-94351142D02*
X187523523Y-94398761D01*
X187380666Y-94446380D01*
X187285428Y-94446380D01*
X187142571Y-94398761D01*
X187047333Y-94303523D01*
X186999714Y-94208285D01*
X186952095Y-94017809D01*
X186952095Y-93874952D01*
X186999714Y-93684476D01*
X187047333Y-93589238D01*
X187142571Y-93494000D01*
X187285428Y-93446380D01*
X187380666Y-93446380D01*
X187523523Y-93494000D01*
X187571142Y-93541619D01*
X188523523Y-94446380D02*
X187952095Y-94446380D01*
X188237809Y-94446380D02*
X188237809Y-93446380D01*
X188142571Y-93589238D01*
X188047333Y-93684476D01*
X187952095Y-93732095D01*
X188999714Y-94446380D02*
X189190190Y-94446380D01*
X189285428Y-94398761D01*
X189333047Y-94351142D01*
X189428285Y-94208285D01*
X189475904Y-94017809D01*
X189475904Y-93636857D01*
X189428285Y-93541619D01*
X189380666Y-93494000D01*
X189285428Y-93446380D01*
X189094952Y-93446380D01*
X188999714Y-93494000D01*
X188952095Y-93541619D01*
X188904476Y-93636857D01*
X188904476Y-93874952D01*
X188952095Y-93970190D01*
X188999714Y-94017809D01*
X189094952Y-94065428D01*
X189285428Y-94065428D01*
X189380666Y-94017809D01*
X189428285Y-93970190D01*
X189475904Y-93874952D01*
X174911142Y-94351142D02*
X174863523Y-94398761D01*
X174720666Y-94446380D01*
X174625428Y-94446380D01*
X174482571Y-94398761D01*
X174387333Y-94303523D01*
X174339714Y-94208285D01*
X174292095Y-94017809D01*
X174292095Y-93874952D01*
X174339714Y-93684476D01*
X174387333Y-93589238D01*
X174482571Y-93494000D01*
X174625428Y-93446380D01*
X174720666Y-93446380D01*
X174863523Y-93494000D01*
X174911142Y-93541619D01*
X175292095Y-93541619D02*
X175339714Y-93494000D01*
X175434952Y-93446380D01*
X175673047Y-93446380D01*
X175768285Y-93494000D01*
X175815904Y-93541619D01*
X175863523Y-93636857D01*
X175863523Y-93732095D01*
X175815904Y-93874952D01*
X175244476Y-94446380D01*
X175863523Y-94446380D01*
X176482571Y-93446380D02*
X176577809Y-93446380D01*
X176673047Y-93494000D01*
X176720666Y-93541619D01*
X176768285Y-93636857D01*
X176815904Y-93827333D01*
X176815904Y-94065428D01*
X176768285Y-94255904D01*
X176720666Y-94351142D01*
X176673047Y-94398761D01*
X176577809Y-94446380D01*
X176482571Y-94446380D01*
X176387333Y-94398761D01*
X176339714Y-94351142D01*
X176292095Y-94255904D01*
X176244476Y-94065428D01*
X176244476Y-93827333D01*
X176292095Y-93636857D01*
X176339714Y-93541619D01*
X176387333Y-93494000D01*
X176482571Y-93446380D01*
X94453761Y-62117333D02*
X94501380Y-61974476D01*
X94501380Y-61736380D01*
X94453761Y-61641142D01*
X94406142Y-61593523D01*
X94310904Y-61545904D01*
X94215666Y-61545904D01*
X94120428Y-61593523D01*
X94072809Y-61641142D01*
X94025190Y-61736380D01*
X93977571Y-61926857D01*
X93929952Y-62022095D01*
X93882333Y-62069714D01*
X93787095Y-62117333D01*
X93691857Y-62117333D01*
X93596619Y-62069714D01*
X93549000Y-62022095D01*
X93501380Y-61926857D01*
X93501380Y-61688761D01*
X93549000Y-61545904D01*
X93501380Y-61212571D02*
X94501380Y-60974476D01*
X93787095Y-60784000D01*
X94501380Y-60593523D01*
X93501380Y-60355428D01*
X94501380Y-59450666D02*
X94501380Y-60022095D01*
X94501380Y-59736380D02*
X93501380Y-59736380D01*
X93644238Y-59831619D01*
X93739476Y-59926857D01*
X93787095Y-60022095D01*
M02*
