M48
INCH,TZ
T1C0.0118
T2C0.0315
T3C0.0394
T4C0.1260
T5C0.1260
%
G90
G05
T1
X44224Y-23965
X44224Y-33509
X44437Y-34506
X44441Y-24557
X44645Y-32911
X44893Y-32513
X45169Y-31502
X45541Y-30507
X48651Y-33705
X48893Y-36120
X49165Y-23698
X50165Y-31092
X50378Y-30580
X51185Y-13482
X53570Y-24491
X55622Y-19596
X55756Y-37045
X56098Y-35545
X56126Y-25931
X56732Y-19392
X56960Y-11344
X58070Y-25722
X58303Y-18596
X58843Y-28506
X59051Y-30506
X59307Y-31506
X60913Y-40724
X61326Y-18269
X61534Y-20006
X61737Y-33508
X61757Y-19006
X61964Y-21006
X62004Y-40935
X63090Y-41179
X63358Y-20006
X63641Y-15445
X64586Y-18383
X64734Y-41430
X64897Y-17387
X64913Y-16392
X66193Y-17592
X66425Y-19654
X66669Y-23698
X66909Y-35506
X69043Y-32517
X69263Y-33584
X69488Y-33856
X69602Y-15446
X70614Y-36395
X71157Y-11344
X71157Y-15588
X71263Y-25722
X71523Y-29179
X71673Y-16206
X71673Y-19006
X71756Y-29718
X71992Y-30907
X73338Y-14817
X73504Y-28509
X73980Y-34882
X74181Y-31966
X74322Y-29057
X74326Y-13006
X74409Y-38223
X74409Y-40724
X74413Y-33293
X74834Y-17623
X75500Y-38223
X75504Y-40935
X75602Y-36395
X76202Y-16995
X76256Y-35627
X76267Y-23962
X76434Y-27093
X76468Y-36746
X76543Y-24226
X76590Y-41179
X76630Y-26604
X76791Y-30222
X76913Y-28120
X76960Y-14419
X77102Y-38013
X78089Y-35137
X78299Y-36119
X78681Y-38431
X78752Y-17513
X78905Y-38198
X79133Y-31506
X79366Y-39277
X79553Y-39673
X79803Y-38698
X80031Y-39009
X80031Y-41415
X80527Y-36139
X81224Y-30989
X81421Y-19191
X81432Y-31257
X81972Y-24933
X81972Y-25904
X81972Y-26860
X82902Y-15513
X82929Y-13246
X83106Y-17454
X83108Y-28009
X83108Y-29990
X83110Y-13817
X83316Y-26135
X83319Y-33966
X83334Y-17002
X83524Y-28293
X83527Y-27100
X83527Y-33517
X83610Y-38285
X83725Y-33257
X83933Y-27104
X83933Y-34210
X84141Y-33013
X84157Y-25198
X84350Y-38817
X84413Y-24476
X84417Y-28383
X84558Y-38537
X84712Y-30962
X84870Y-31525
X84952Y-16502
X86819Y-34415
X86917Y-36175
X86976Y-29494
X87043Y-34919
X87043Y-33734
X87098Y-29950
X87248Y-30900
X87271Y-24933
X87271Y-25904
X87271Y-26892
X87271Y-28009
X87271Y-32801
X87271Y-34080
X87523Y-33057
X87543Y-35911
X87748Y-33734
T2
X35527Y-17006
X35527Y-19006
X35527Y-21006
X35527Y-23006
X35527Y-24006
X35527Y-25006
X35527Y-27506
X35527Y-28506
X35527Y-29506
X35527Y-30506
X35527Y-31506
X35527Y-32506
X35527Y-33506
X35527Y-34506
X38527Y-17006
X38527Y-19006
X38527Y-21006
X38527Y-23006
X38527Y-24006
X38527Y-25006
X38527Y-27506
X38527Y-28506
X38527Y-29506
X38527Y-30506
X38527Y-31506
X38527Y-32506
X38527Y-33506
X38527Y-34506
X46527Y-19006
X46527Y-23006
X46543Y-26506
X46543Y-27506
X46543Y-28506
X46543Y-29506
X46543Y-30506
X46543Y-31506
X46543Y-32506
X46543Y-33506
X46543Y-34506
X46543Y-35506
X46543Y-36506
X46543Y-37506
X46543Y-38506
X46543Y-39506
X48043Y-26506
X48043Y-27506
X48043Y-28506
X48043Y-29506
X48043Y-30506
X48043Y-31506
X48043Y-32506
X48043Y-33506
X48043Y-34506
X48043Y-35506
X48043Y-36506
X48043Y-37506
X48043Y-38506
X48043Y-39506
X49527Y-19006
X49527Y-23006
X51043Y-26506
X51043Y-27506
X51043Y-28506
X51043Y-29506
X51043Y-30506
X51043Y-31506
X51043Y-32506
X51043Y-33506
X51043Y-34506
X51043Y-35506
X51043Y-36506
X51043Y-37506
X51043Y-38506
X51043Y-39506
X52527Y-12006
X52527Y-13006
X52527Y-14006
X52527Y-15006
X52527Y-16006
X52527Y-17006
X52527Y-18006
X52543Y-26506
X52543Y-27506
X52543Y-28506
X52543Y-29506
X52543Y-30506
X52543Y-31506
X52543Y-32506
X52543Y-33506
X52543Y-34506
X52543Y-35506
X52543Y-36506
X52543Y-37506
X52543Y-38506
X52543Y-39506
X55527Y-12006
X55527Y-13006
X55527Y-14006
X55527Y-15006
X55527Y-16006
X55527Y-17006
X55527Y-18006
X57500Y-26506
X57500Y-27506
X57500Y-28506
X57500Y-29506
X57500Y-30506
X57500Y-31506
X57500Y-32506
X57500Y-33506
X57500Y-34506
X57500Y-35506
X57527Y-12006
X57527Y-13006
X57527Y-14006
X57527Y-15006
X57527Y-16006
X57527Y-17006
X57527Y-18006
X57527Y-19006
X57527Y-20006
X57527Y-21006
X60500Y-26506
X60500Y-27506
X60500Y-28506
X60500Y-29506
X60500Y-30506
X60500Y-31506
X60500Y-32506
X60500Y-33506
X60500Y-34506
X60500Y-35506
X60527Y-12006
X60527Y-13006
X60527Y-14006
X60527Y-15006
X60527Y-16006
X60527Y-17006
X60527Y-18006
X60527Y-19006
X60527Y-20006
X60527Y-21006
X62527Y-12006
X62527Y-13006
X62527Y-14006
X62527Y-15006
X62527Y-16006
X62527Y-17006
X62527Y-18006
X62527Y-19006
X62527Y-26506
X62527Y-27506
X62527Y-28506
X62527Y-29506
X62527Y-30506
X62527Y-31506
X62527Y-32506
X62527Y-33506
X62527Y-34506
X62527Y-35506
X65527Y-12006
X65527Y-13006
X65527Y-14006
X65527Y-15006
X65527Y-16006
X65527Y-17006
X65527Y-18006
X65527Y-19006
X65527Y-26506
X65527Y-27506
X65527Y-28506
X65527Y-29506
X65527Y-30506
X65527Y-31506
X65527Y-32506
X65527Y-33506
X65527Y-34506
X65527Y-35506
X67527Y-12006
X67527Y-13006
X67527Y-14006
X67527Y-15006
X67527Y-16006
X67527Y-17006
X67527Y-18006
X67527Y-19006
X67527Y-20006
X67527Y-21006
X67606Y-26506
X67606Y-27506
X67606Y-28506
X67606Y-29506
X67606Y-30506
X67606Y-31506
X67606Y-32506
X67606Y-33506
X67606Y-34506
X67606Y-35506
X70527Y-12006
X70527Y-13006
X70527Y-14006
X70527Y-15006
X70527Y-16006
X70527Y-17006
X70527Y-18006
X70527Y-19006
X70527Y-20006
X70527Y-21006
X70606Y-26506
X70606Y-27506
X70606Y-28506
X70606Y-29506
X70606Y-30506
X70606Y-31506
X70606Y-32506
X70606Y-33506
X70606Y-34506
X70606Y-35506
X72521Y-22006
X72521Y-23506
X72527Y-12006
X72527Y-13006
X72527Y-14006
X72527Y-15006
X72527Y-16006
X72527Y-17006
X72527Y-18006
X72527Y-19006
X72527Y-25006
X72606Y-26506
X72606Y-27506
X72606Y-28506
X72606Y-29506
X72606Y-30506
X72606Y-31506
X72606Y-32506
X72606Y-33506
X72606Y-34506
X72606Y-35506
X75521Y-22006
X75521Y-23506
X75527Y-12006
X75527Y-13006
X75527Y-14006
X75527Y-15006
X75527Y-16006
X75527Y-17006
X75527Y-18006
X75527Y-19006
X75527Y-25006
X75606Y-26506
X75606Y-27506
X75606Y-28506
X75606Y-29506
X75606Y-30506
X75606Y-31506
X75606Y-32506
X75606Y-33506
X75606Y-34506
X75606Y-35506
X77527Y-12006
X77527Y-13006
X77527Y-14006
X77527Y-15006
X77527Y-16006
X77527Y-17006
X77527Y-18006
X77527Y-26506
X77527Y-27506
X77527Y-28506
X77527Y-29506
X77527Y-30506
X77527Y-31506
X77527Y-32506
X77527Y-33506
X77527Y-34506
X77527Y-35506
X80527Y-12006
X80527Y-13006
X80527Y-14006
X80527Y-15006
X80527Y-16006
X80527Y-17006
X80527Y-18006
X80527Y-26506
X80527Y-27506
X80527Y-28506
X80527Y-29506
X80527Y-30506
X80527Y-31506
X80527Y-32506
X80527Y-33506
X80527Y-34506
X80527Y-35506
X82527Y-15006
X82527Y-16006
X82527Y-17006
X82527Y-18006
X82527Y-19006
X82527Y-20006
X82527Y-21006
X85527Y-15006
X85527Y-16006
X85527Y-17006
X85527Y-18006
X85527Y-19006
X85527Y-20006
X85527Y-21006
T3
X36037Y-36006
X38006Y-36006
X42576Y-13700
X43027Y-12920
X43027Y-14480
X43478Y-13700
X43929Y-12920
X43929Y-14480
X44380Y-13700
X44830Y-12920
X44830Y-14480
X45281Y-13700
X45732Y-12920
X45732Y-14480
X46183Y-13700
X46633Y-12920
X46633Y-14480
X47027Y-17006
X47027Y-21006
X48543Y-41006
X48996Y-17006
X48996Y-21006
X50511Y-41006
X53037Y-19506
X55006Y-19506
X58010Y-37006
X58037Y-22506
X59978Y-37006
X60006Y-22506
X60913Y-38974
X61458Y-40092
X62004Y-38974
X62549Y-40092
X63037Y-20537
X63037Y-37006
X63094Y-38974
X63639Y-40092
X64185Y-38974
X64730Y-40092
X65006Y-20537
X65006Y-37006
X65275Y-38974
X68027Y-22506
X68116Y-37006
X69996Y-22506
X70084Y-37006
X73037Y-20506
X73116Y-37006
X74409Y-38974
X74955Y-40092
X75006Y-20506
X75084Y-37006
X75500Y-38974
X76045Y-40092
X76591Y-38974
X77136Y-40092
X77681Y-38974
X78059Y-19506
X78059Y-22006
X78059Y-23506
X78059Y-25006
X78106Y-37006
X78226Y-40092
X78772Y-38974
X80027Y-19506
X80027Y-22006
X80027Y-23506
X80027Y-25006
X80074Y-37006
X82527Y-29006
X82527Y-32006
X82527Y-35006
X83027Y-22506
X83043Y-37006
X84996Y-22506
X85011Y-37006
X85527Y-29006
X85527Y-32006
X85527Y-35006
T4
X39805Y-13920
X49647Y-13920
X58173Y-39533
X68015Y-39533
X71669Y-39533
X81512Y-39533
T5
X36464Y-12006
X36464Y-40746
X84889Y-12006
X84889Y-40746
T0
M30
